<svg width="61" height="76" viewBox="0 0 61 76" fill="none" xmlns="http://www.w3.org/2000/svg">
<path d="M13 21.7831L15 11.7831C16.1029 7.82054 17.6369 5.92293 22.5 3.28307C30.4409 1.50819 34.3141 1.63765 40.5 3.28307C47.199 5.31786 48.8993 7.47493 51 11.7831L53 14.2831M13 21.7831H6.00001C2.81875 23.342 1.99718 24.6873 2.00001 27.7831V51.7831V55.2831C3.02202 58.0755 3.91418 58.7907 6.00001 58.7831H13M13 21.7831V58.7831M13 58.7831V68.2831C14.0459 71.0381 15.257 72.1279 18.5 73.2831H25C28.4973 72.643 29.6759 71.5161 30.5 68.2831C30.5 68.2831 31.0412 64.2292 30.5 61.2831C29.9589 58.3369 31.4282 58.5382 32 58.7831C36.6729 59.3011 46.3436 58.1186 43 58.7831C39.6564 59.4475 38.1879 59.9259 37.5 61.2831V66.7831C38.2273 69.3291 38.9484 69.9263 40.5 70.2831H49C51.3138 69.7901 52.0718 68.8884 53 66.7831C52.2297 62.067 52.1355 60.1242 53 58.7831C54.8463 53.3738 55.5914 50.3158 56 44.7831C56.1386 39.2248 55.9448 36.143 54.5 30.7831M54.5 30.7831C50.0127 32.6201 47.4932 33.0628 43 33.2831C37.8463 33.2754 35.1134 32.703 30.5 30.7831C26.8469 27.1908 26.3802 25.2831 26.5 21.7831C26.6198 18.2831 27.3123 16.6095 30.5 14.2831C34.1667 11.843 36.6356 11.8044 40.5 11.7831C44.3644 11.7617 54.3098 14.7396 53 14.2831M54.5 30.7831C56.8642 28.6208 57.9344 27.2122 58 23.2831C58.0316 20.6387 57.7577 19.2642 56 17.2831C55.3708 16.1275 53 14.2831 53 14.2831" stroke="#FAFAFA" stroke-width="4"/>
<path d="M31.3983 18.8749L31.4248 18.7789L31.4318 18.6795C31.5215 17.414 32.5833 16.1997 34.7832 15.4166C36.9445 14.6473 39.9542 14.411 43.283 14.9676L43.3515 14.9791L43.4209 14.9809C47.3086 15.0858 50.4366 15.8513 52.4406 16.9159C54.4635 17.9905 54.976 19.1182 54.7644 20.001C54.2153 21.1936 53.7102 21.9042 53.0865 22.414C52.4528 22.9318 51.6127 23.3117 50.2628 23.69C48.2476 23.9302 46.7701 23.9308 45.2294 23.9314C44.4189 23.9318 43.591 23.9321 42.6581 23.9673C41.5169 24.0104 38.2688 23.5784 35.4648 22.5739C34.0635 22.0718 32.881 21.4635 32.1368 20.7812C31.4214 20.1252 31.2195 19.5225 31.3983 18.8749Z" fill="#FAFAFA" stroke="#FAFAFA" stroke-width="2"/>
</svg>
