<?xml version="1.0" standalone="no"?>

<svg version="1.0" xmlns="http://www.w3.org/2000/svg"
 viewBox="0 0 648.000000 1280.000000"
 preserveAspectRatio="xMidYMid meet">

<g transform="translate(0.000000,1280.000000) scale(0.100000,-0.100000)"
fill="white" stroke="none">
<path d="M3227 12748 c-328 -328 -608 -1345 -712 -2588 -55 -669 -59 -1565
-10 -2335 77 -1182 264 -2103 488 -2397 l35 -46 -14 -194 c-7 -106 -23 -323
-34 -483 -11 -159 -42 -609 -70 -1000 -27 -390 -72 -1036 -100 -1435 -28 -399
-59 -849 -70 -1000 -75 -1062 -72 -1003 -56 -1048 49 -137 196 -208 456 -219
281 -11 472 56 542 191 27 50 27 41 -2 676 -32 727 -71 1603 -150 3420 -17
382 -34 785 -40 895 -6 139 -6 220 2 265 13 77 -7 5827 -22 6235 -19 528 -44
831 -80 980 -37 148 -78 169 -163 83z"/>
<path d="M162 11898 c-21 -416 -51 -903 -77 -1243 -29 -376 -48 -708 -71
-1225 -19 -417 -14 -507 32 -667 43 -147 105 -254 209 -359 74 -75 105 -99
175 -133 47 -22 115 -48 152 -58 62 -15 68 -18 68 -42 0 -14 -7 -168 -15 -341
-8 -173 -26 -562 -40 -865 -14 -302 -34 -743 -45 -980 -11 -236 -31 -677 -45
-980 -14 -302 -34 -741 -45 -975 -11 -234 -33 -722 -50 -1085 -17 -363 -39
-851 -50 -1085 -11 -234 -28 -627 -40 -875 -11 -247 -22 -469 -25 -493 -8 -67
13 -181 45 -249 72 -155 241 -242 468 -243 278 0 457 118 507 334 14 61 14
117 0 594 -34 1174 -51 1763 -75 2592 -11 382 -24 850 -30 1040 -6 190 -19
658 -30 1040 -27 941 -39 1347 -50 1720 -5 173 -13 442 -16 597 l-7 282 29 6
c149 33 248 88 360 200 78 78 97 104 142 195 102 208 120 331 103 714 -25 570
-54 1082 -71 1276 -22 240 -51 701 -78 1230 l-17 325 -58 3 -57 3 0 -1031 c0
-1136 4 -1072 -62 -1106 -42 -22 -111 -14 -144 17 -13 12 -29 39 -34 58 -5 20
-19 477 -30 1016 -12 539 -24 995 -26 1013 l-5 32 -68 0 -69 0 -6 -122 c-3
-68 -15 -537 -27 -1043 -24 -1043 -15 -963 -105 -978 -62 -11 -123 8 -141 43
-10 20 -13 247 -13 1063 l0 1037 -79 0 -79 0 -6 -182 c-3 -101 -11 -556 -16
-1013 -6 -456 -15 -846 -20 -866 -5 -19 -21 -46 -34 -58 -33 -31 -102 -39
-144 -17 -66 34 -62 -30 -62 1106 l0 1030 -58 0 -58 0 -12 -252z"/>
<path d="M5169 11690 c-161 -29 -388 -169 -579 -360 -280 -278 -484 -653 -559
-1026 -59 -289 -40 -683 48 -1020 148 -564 490 -998 887 -1128 l52 -17 -4 -62
c-3 -34 -13 -264 -24 -512 -11 -247 -29 -641 -40 -875 -11 -234 -29 -625 -40
-870 -11 -245 -29 -636 -40 -870 -11 -234 -33 -722 -50 -1085 -17 -363 -39
-851 -50 -1085 -11 -234 -29 -623 -40 -865 -11 -242 -31 -679 -45 -972 -17
-364 -22 -547 -15 -580 37 -195 149 -305 352 -347 246 -51 496 20 597 168 73
109 81 166 70 516 -11 364 -24 829 -49 1700 -19 657 -27 942 -50 1730 -6 184
-19 652 -30 1040 -11 388 -25 856 -30 1040 -5 184 -19 650 -30 1035 -11 385
-21 744 -22 798 l-3 98 72 28 c462 180 808 718 908 1413 22 148 30 413 16 541
-41 402 -200 778 -463 1092 -268 322 -611 516 -839 475z"/>
</g>
</svg>
