<?xml version="1.0" encoding="iso-8859-1"?>
<!-- Generator: Adobe Illustrator 19.0.0, SVG Export Plug-In . SVG Version: 6.00 Build 0)  -->
<svg version="1.1" id="Layer_1" xmlns="http://www.w3.org/2000/svg" xmlns:xlink="http://www.w3.org/1999/xlink" x="0px" y="0px"
	 viewBox="0 0 250.522 250.522" style="enable-background:new 0 0 250.522 250.522;" xml:space="preserve" fill="white">
<g>
	<g>
		<g>
			<path d="M117.201,34.81c-0.404-0.884-0.412-1.98-0.024-3c0.404-1.072,1.184-1.928,2.14-2.356l-1.16-2.584
				c-1.636,0.736-2.96,2.168-3.628,3.94c-0.652,1.724-0.62,3.608,0.092,5.176L117.201,34.81z"/>
			<path d="M141.185,171.798h87.064v-5.944c0-7.2-5.856-13.056-13.056-13.056h-3.928c0.62-1.048,1.004-2.26,1.004-3.564V92.618
				c0-12.124-9.86-21.984-21.984-21.984h-1.26c0.76-0.796,1.184-1.772,1.48-2.668c0.688-2.072,0.664-3.9-0.076-5.428
				c-1.1-2.28-3.616-3.596-5.688-4.492l-1.236-0.516c-1.64-0.672-3.192-1.308-4.336-2.256c-1.108-0.916-1.708-3.296-1.116-4.308
				c0.244-0.412,0.376-0.6,0.668-0.992l-2.576-1.188c-0.376,0.812-2.268,1.172-3.792,1.464c-0.44,0.084-0.876,0.168-1.292,0.26
				c-3.968,0.884-7.528,3.492-9.528,6.976c-1.628,2.832-2.304,6.156-2.068,10.152c0.04,0.684,0.116,1.956,1.02,2.98
				c0.004,0.008,0.012,0.008,0.02,0.016h-15.332c1-0.396,1.944-0.82,2.764-1.3c2.12-1.232,3.124-3.16,3.828-4.884
				c1.308-3.212,1.304-6.016-0.016-8.34c-1.944-3.42-6.92-6.36-10.724-7.7c-0.784-0.276-12.384-4.508-13.104-5.224
				c1.08-0.816,2.584-2.22,3.344-3.38c1.7-2.596,2.288-5.676,1.648-8.672c-1.348-6.3-7.7-10.376-14.192-9.06
				c-0.212,0.044-0.4,0.132-0.604,0.184c-1.708-8.748-6.272-18.004-14.52-22.096c-1.628-0.808-3.068,1.636-1.432,2.448
				c7.72,3.832,11.748,12.544,13.28,20.692c-1.76,0.932-3.288,2.244-4.404,3.944c-1.704,2.596-2.288,5.672-1.648,8.668
				c0.244,1.136,0.684,2.176,1.224,3.148c-5.164,2.008-9.672,5.256-12.508,9.348c-3.128,4.512-4.46,9.796-4.076,16.156
				c0.06,1.032,0.176,2.948,1.696,4.384c0.824,0.784,1.924,1.268,3.032,1.676h-14.02c0.788-0.8,1.224-1.796,1.528-2.708
				c0.688-2.072,0.664-3.9-0.076-5.428c-1.1-2.284-3.616-3.596-5.684-4.492l-1.248-0.52c-1.636-0.672-3.184-1.308-4.328-2.252
				c-1.108-0.916-1.708-3.3-1.116-4.308c0.264-0.284,0.492-0.612,0.664-0.992l-2.576-1.188c-0.376,0.816-2.268,1.176-3.792,1.468
				c-0.44,0.084-0.876,0.168-1.288,0.26c-3.968,0.884-7.528,3.492-9.528,6.976c-1.628,2.836-2.304,6.156-2.064,10.148
				c0.04,0.684,0.112,1.956,1.016,2.98c0.136,0.152,0.304,0.248,0.456,0.372c-10.444,1.7-18.448,10.756-18.448,21.672v58.04
				c0,0.76,0.156,1.484,0.428,2.144h-3.356c-7.2,0-13.056,5.856-13.056,13.056v5.944h85.26c0.996,3.088,3.48,5.744,6.876,7.52
				c0.14,11.888,0.104,27.872-0.544,30.156c-2.164,7.632-14.14,11.068-16.516,11.68c-4.784,1.228-11.372,6.1-11.932,13.196H72.729
				c-7.352,0-13.332,6.364-13.332,14.188v1.984h128.96v-1.984c0-7.824-5.98-14.188-13.332-14.188h-12.688
				c-0.564-7.096-7.148-11.968-11.932-13.196c-2.38-0.612-14.356-4.048-16.52-11.68c-0.64-2.256-0.684-17.872-0.552-29.712
				C137.221,178.005,140.097,175.169,141.185,171.798z M182.433,60.153l1.192,0.496c1.492,0.644,3.552,1.664,4.252,3.116
				c0.408,0.844,0.668,4.328-1.048,5.364c-1.136,0.684-2.812,1.088-4.712,1.46c1.224-2.568,2.224-5.668,1.336-8.24
				c-0.328-0.952-0.632-1.348-1.376-2.044c-0.248-0.232-0.496-0.432-0.74-0.636C181.705,59.825,182.065,60.002,182.433,60.153z
				 M175.549,53.706c0.116,0.308,0.896,3.412,1.476,4.14c0.856,1.068,1.992,1.584,3.008,2.436c3.54,2.972,2.528,6.896,0.808,10.352
				h-5.86c0.688-1.216,1.052-2.572,0.972-4.156c-0.096-1.888-0.852-3.716-1.004-5.6C174.777,58.794,175.101,55.746,175.549,53.706z
				 M173.813,60.877c0.26,3.548,1.692,6.808-0.224,9.756l-8.052-0.16c-0.096-0.152-0.096-0.152-0.172-0.564
				c-1.648-6.388,5.056-12.432,9.456-17.188C174.149,55.39,173.609,58.118,173.813,60.877z M163.997,58.898
				c1.608-2.804,4.484-4.904,7.688-5.62c0.388-0.084,0.792-0.164,1.204-0.244c0.04-0.008,0.08-0.02,0.12-0.028
				c-4.484,4.736-10.04,10.16-8.86,16.508c-0.132-0.052-0.304-0.084-0.428-0.14c-0.236-0.1-0.852-0.36-1.104-0.64
				c-0.212-0.24-0.276-0.664-0.316-1.268C162.097,64.042,162.653,61.238,163.997,58.898z M149.593,64.554
				c-1.772,2.764-4.472,5.528-13.748,5.528c2.588-4.248,5.112-9.956,3.304-14.54c-1.812-4.592-12.356-8.636-12.12-11.2
				C130.041,45.566,156.437,53.898,149.593,64.554z M120.965,53.382c0.504,6.74,3.744,12.288-1.788,17.252
				c0,0-11.652,0.048-14.664-0.292c-3.524-8.852,4.936-18.684,12.912-25.724c1.188,0.38,2.436,0.604,3.72,0.604
				c0.192,0,0.388-0.048,0.584-0.06C121.125,47.862,120.761,50.598,120.965,53.382z M124.533,64.066
				c0.18-2.5-0.772-4.844-1.268-7.252c-0.848-4.124-0.52-7.992,0.312-11.836c0.004,0,0.004,0,0.008,0
				c0.504-0.1,0.976-0.284,1.456-0.444c1.212,3.552,7.948,6.896,9.688,8.64c5.232,5.244,2.312,11.98-1.1,17.224
				c-0.716,0.088-12.088,0.232-12.088,0.232C123.177,68.842,124.341,66.734,124.533,64.066z M113.413,28.802
				c1.344-2.052,3.432-3.452,5.872-3.948c0.632-0.128,1.26-0.188,1.88-0.188c4.256,0,8.084,2.88,8.976,7.064
				c0.484,2.248,0.04,4.568-1.244,6.524c-1.344,2.052-3.428,3.452-5.868,3.944c-4.948,1-9.832-2.084-10.856-6.876
				C111.685,33.078,112.129,30.762,113.413,28.802z M96.465,64.318c-0.236-5.708,1.224-10.32,3.972-14.288
				c2.648-3.816,6.948-6.832,11.88-8.604c1.028,1.084,2.26,1.948,3.616,2.588c-3.812,3.504-7.364,6.3-10.528,10.24
				c-3.476,4.332-5.46,11.332-3.012,15.544C101.729,69.618,96.657,68.966,96.465,64.318z M78.185,60.11l1.2,0.5
				c1.492,0.64,3.552,1.664,4.252,3.116c0.408,0.844,0.388,1.956-0.06,3.304c-0.28,0.844-0.576,1.48-1.092,1.84
				c-1.092,0.752-2.708,1.308-4.604,1.68c1.224-2.568,2.224-5.668,1.336-8.24c-0.328-0.952-0.632-1.352-1.376-2.044
				c-0.248-0.232-0.496-0.432-0.74-0.636C77.461,59.786,77.821,59.958,78.185,60.11z M71.289,54.646
				c0.116,0.308,0.24,0.604,0.388,0.888c0.212,0.78,0.524,1.54,1.108,2.268c0.856,1.068,1.992,1.584,3.008,2.436
				c3.556,2.984,2.52,6.928,0.784,10.392h-5.864c0.704-1.224,1.08-2.596,0.996-4.196c-0.096-1.888-0.852-3.716-1.004-5.6
				C70.537,58.75,70.845,56.686,71.289,54.646z M69.573,60.838c0.26,3.564,1.712,6.84-0.248,9.796h-4.788
				c-1.248-0.196-2.376-0.46-3.412-0.768c-1.648-6.388,5.056-12.432,9.456-17.188C69.913,55.35,69.369,58.078,69.573,60.838z
				 M59.753,58.858c1.608-2.804,4.484-4.904,7.688-5.62c0.388-0.084,0.792-0.164,1.204-0.244c0.04-0.008,0.084-0.02,0.124-0.028
				c-4.484,4.736-10.036,10.16-8.86,16.504c-0.132-0.052-0.304-0.088-0.428-0.14c-0.232-0.096-0.852-0.356-1.104-0.64
				c-0.212-0.24-0.276-0.664-0.312-1.268C57.857,64.002,58.413,61.198,59.753,58.858z M42.233,94.466
				c3.976-1.128,8.548,1.584,10.732,5.068c2.46,3.924,3.052,8.824,3.628,13.556l0.08,0.644c0.64,5.244,1.548,10.716,4.896,14.932
				c1.108,1.4,3.152,2.824,5.208,2.852c0.02,0,0.044,0,0.064,0c1.156,0,2.14-0.448,2.856-1.3c0.66-0.784,0.908-1.744,1.08-2.664
				c0.64-3.428,0.58-6.924,0.52-10.308c-0.048-2.964-0.1-6.028,0.332-8.952c0.292-1.988,1.492-4.888,3.484-4.788
				c1.592,0.088,2.656,2.148,2.76,4.084c0.044,0.824-0.004,1.66-0.056,2.488c-0.092,1.556-0.184,3.164,0.268,4.772
				c0.484,1.72,1.916,3.272,3.564,3.864c1.24,0.448,2.476,0.312,3.476-0.388c0.904-0.628,1.524-1.632,1.904-3.072
				c0.404-1.524,0.476-3.072,0.544-4.568c0.068-1.456,0.132-2.832,0.484-4.132c0.396-1.468,1.532-2.9,2.768-3.484
				c0.74-0.344,1.428-0.38,2.064-0.092c0.44,0.2,0.86,0.56,1.308,0.944c0.404,0.344,0.808,0.688,1.252,0.968
				c1.72,1.08,3.772,1.132,5.416,1.168l10.264,0.248c27.952,0.688,62.748,1.54,90.076,1.092l-0.036-2.264
				c-27.3,0.44-62.056-0.408-89.984-1.092l-10.264-0.248c-1.74-0.044-3.164-0.132-4.268-0.824c-0.348-0.22-0.664-0.496-0.98-0.768
				c-0.52-0.448-1.112-0.96-1.856-1.292c-1.256-0.56-2.62-0.52-3.964,0.112c-1.848,0.876-3.416,2.816-3.988,4.944
				c-0.416,1.54-0.488,3.104-0.556,4.616c-0.068,1.44-0.128,2.8-0.468,4.092c-0.236,0.884-0.576,1.484-1.008,1.788
				c-0.396,0.276-0.868,0.304-1.416,0.116c-0.956-0.344-1.86-1.332-2.144-2.344c-0.352-1.24-0.272-2.592-0.188-4.024
				c0.052-0.916,0.104-1.832,0.056-2.744c-0.16-2.892-1.924-6.056-4.896-6.228c-3.376-0.132-5.34,3.24-5.852,6.72
				c-0.46,3.108-0.408,6.268-0.356,9.324c0.06,3.42,0.112,6.652-0.484,9.852c-0.132,0.712-0.284,1.26-0.584,1.62
				c-0.288,0.34-0.68,0.52-1.152,0.492c-1.104-0.016-2.56-0.856-3.464-1.996c-2.984-3.752-3.82-8.872-4.42-13.796l-0.08-0.644
				c-0.604-4.984-1.232-10.132-3.956-14.488c-2.58-4.116-7.744-7.232-12.6-6.244c0.288-9.684,8.208-17.488,17.964-17.488h130.04
				c9.932,0,18.016,8.084,18.016,18.016v56.616c0,1.7-1.384,3.08-3.084,3.08H43.893c-0.916,0-1.66-0.744-1.66-1.66V94.466z
				 M26.253,167.83v-1.976c0-3.976,2.584-7.328,6.152-8.556l-2.324,10.532H26.253z M32.401,167.83l2.432-11.012
				c0.172-0.008,0.332-0.052,0.508-0.052h5.644l-2.632,11.064H32.401z M46.937,167.83h-6.256l2.632-11.064h5.82L46.937,167.83z
				 M49.249,167.83l2.196-11.064h5.34l-2.508,11.064H49.249z M56.602,167.826l2.507-11.06h156.084c3.288,0,6.148,1.772,7.744,4.396
				h-59.044v2.268h59.964v-0.184c0.252,0.832,0.424,1.692,0.424,2.604v1.976H56.602z M149.417,225.03
				c2.964,0.76,8.292,4.232,8.912,9.32h-7.832v3.968h24.536c4.54,0,8.336,3.548,9.184,8.236H63.549
				c0.848-4.688,4.644-8.236,9.184-8.236h55.772v-3.968H89.433c0.62-5.088,5.944-8.56,8.916-9.32
				c3.864-0.996,16.684-4.972,19.372-14.464c0.868-3.068,0.82-20.072,0.716-29.712c1.856,0.504,3.836,0.824,5.924,0.824
				c1.736,0,3.376-0.248,4.956-0.6c-0.1,9.676-0.144,26.448,0.72,29.488C132.729,220.057,145.549,224.034,149.417,225.03z
				 M124.365,177.706c-5.688,0-10.668-2.512-12.552-5.908h25.104C135.021,175.202,130.045,177.706,124.365,177.706z"/>
			<rect x="123.361" y="161.174" width="33.776" height="2.268"/>
		</g>
	</g>
</g>
<g>
</g>
<g>
</g>
<g>
</g>
<g>
</g>
<g>
</g>
<g>
</g>
<g>
</g>
<g>
</g>
<g>
</g>
<g>
</g>
<g>
</g>
<g>
</g>
<g>
</g>
<g>
</g>
<g>
</g>
</svg>
