<svg width="90" height="90" viewBox="0 0 90 90" fill="none" xmlns="http://www.w3.org/2000/svg">
<path d="M38.734 67.1686L19 38.5702C19.5991 35.3725 20.742 34.3961 23.5106 34.9955L40.9894 59.4232C44.0419 62.6377 45.7752 63.0795 48.883 59.4232L66.3617 23.0795C69.8181 20.8869 70.7305 22.2105 72 25.4627L51.7021 67.1686C46.955 72.3295 44.1189 72.2245 38.734 67.1686Z" fill="white"/>
<path d="M86.7366 44.6602C86.6768 67.8364 67.9557 86.551 44.9529 86.4917C21.9501 86.4324 3.32572 67.6216 3.38546 44.4454C3.44519 21.2691 22.1663 2.55456 45.1691 2.61385C68.1719 2.67313 86.7963 21.4839 86.7366 44.6602Z" stroke="white" stroke-width="5"/>
</svg>
