<svg width="133" height="183" viewBox="0 0 133 183" fill="none" xmlns="http://www.w3.org/2000/svg">
<path fill-rule="evenodd" clip-rule="evenodd" d="M94.0369 173.324L95.8168 173.34L94.8242 180.19C91.6894 177.863 91.5433 181.774 92.1066 177.069C92.1475 176.728 93.9883 173.401 94.0369 173.324ZM82.7149 175.828C79.5606 180.985 83.102 178.47 77.4252 179.902C77.835 174.407 72.3638 176.476 82.7149 175.828ZM54.3947 178.746C63.2191 174.572 57.9989 177.813 60.2371 178.746C56.3818 181.336 57.6973 180.506 54.3947 178.746ZM47.0265 178.746C46.9513 175.723 50.2233 176.578 49.6743 178.545C48.8055 181.656 47.0541 179.857 47.0265 178.746ZM102.835 176.757C98.1567 177.429 100.085 173.823 102.354 174.048L102.98 174.757C103.036 174.961 103.54 176.656 102.835 176.757V176.757ZM109.342 164.717C107.959 171.851 111.974 168.015 104.678 169.991L109.342 164.717ZM20.2966 159.749C26.9555 162.84 23.6538 159.726 23.8046 163.652C20.6497 163.299 21.682 166.008 20.2966 159.749ZM111.119 162.385L114.571 158.746C113.835 161.921 114.435 165.187 111.119 162.385ZM15.0754 155.633C14.7314 148.072 22.6128 154.868 17.3121 155.915C16.8252 156.011 15.1608 157.511 15.0754 155.633ZM117.906 156.566C117.429 153.68 115.265 146.87 121.849 151.855C126.212 155.159 119.016 155.503 117.906 156.566ZM122.136 144.972C122.157 144.429 124.261 144.973 124.397 145.059C124.438 145.084 127.37 140.778 125.272 145.853C125.267 145.865 125.025 146.16 124.995 146.163C124.953 146.166 124.373 146.148 124.306 146.135C121.743 145.623 121.956 149.536 122.136 144.972ZM130.437 130.641C125.921 136.654 129.587 131.703 125.61 134.395C127.613 128.6 124.003 132.151 130.437 130.641ZM3.03706 130.327C4.73383 131.403 5.86763 131.308 4.44284 133.658C4.28451 133.919 3.35061 134.416 2.91774 134.879L3.03706 130.327ZM7.54449 111.954C4.71117 110.762 -1.01064 112.895 4.3038 106.175L7.54449 111.954ZM1.95149 100.536C7.39329 102.372 4.40703 99.5989 6.66714 104.691C0.0621269 101.969 3.53498 105.502 1.95149 100.536ZM4.35542 82.7368C14.233 77.8597 8.99824 82.2704 9.85275 82.7368C3.2756 86.104 7.95554 84.9149 4.35542 82.7368ZM119.688 76.3312C112.878 73.1833 118.892 72.8408 119.688 71.9664C125.86 80.3439 120.05 75.9037 119.688 76.3312ZM14.4973 70.1641L19.2481 69.8926L15.5152 75.5183L14.4973 70.1641ZM115.518 64.7638C114.798 71.0397 117.009 66.286 113.246 70.4258C111.821 67.904 110.589 73.7113 112.273 67.3459C113.018 64.5331 111.848 66.7964 115.518 64.7638V64.7638ZM19.2481 69.8926C18.6099 61.3241 19.4378 66.1223 20.914 64.273C21.8772 66.5505 22.0606 64.706 21.4544 67.5183C21.3857 67.8373 19.7265 69.4526 19.2481 69.8926V69.8926ZM83.3009 64.8933C83.7721 64.7116 84.4914 64.3902 84.7092 64.3372L88.3684 64.1889C92.5583 68.2641 97.2988 75.67 102.104 79.1809C100.792 85.074 100.894 83.1974 97.1131 88.3989L102.862 84.9985C106.466 82.9319 102.866 84.5479 106.428 83.0891C110.343 89.8674 111.175 85.665 110.152 93.609L113.699 96.9602C111.709 105.48 112.989 102.154 113.412 109.371C113.655 113.502 112.935 115.577 112.582 120.622C110.835 126.19 115.442 129.358 110.933 137.803C108.754 141.884 105.465 147.081 99.5087 149.758C101.824 153.73 93.3539 153.376 102.064 152.873C101.506 165.778 103.714 152.259 97.9706 156.766L92.1604 166.3L87.3197 163.1C82.7272 169.136 57.2902 165.239 47.9178 165.143L46.7682 157.333C46.4 157.726 46.0683 158.387 45.8616 158.621C45.6719 158.836 45.2042 159.553 44.9744 159.775C42.9405 161.743 45.2491 166.221 37.2528 156.526C18.8018 134.156 21.9164 139.778 22.3168 116.519C23.2105 64.6139 28.7725 92.0204 42.3093 62.8912C46.0424 65.1682 43.2173 62.9282 46.8872 66.5386C48.4532 68.0793 48.1744 68.2559 49.3506 69.6909L50.9756 62.7911C60.9788 62.7593 75.4052 60.764 83.3009 64.8933V64.8933ZM109.927 59.4721C110.437 65.4443 111.071 61.218 108.33 64.251C100.743 56.6721 108.197 60.7665 109.927 59.4721ZM94.0369 173.324L46.6812 173.428L40.2395 179.371C40.0199 178.915 39.8251 178.303 39.6942 177.97L33.4402 166.616C29.702 162.189 28.071 160.549 24.7326 156.042C9.09637 134.935 14.515 142.762 6.68213 141.342C9.88254 133.479 12.074 144.615 11.8156 123.659C11.7233 116.15 11.165 108.222 12.3535 100.935C9.29828 96.8862 9.94897 96.8294 10.4558 91.6265C1.94566 88.7789 5.17457 95.4817 1.59939 86.3015C4.84804 85.8021 7.34368 85.5555 11.9607 85.1624C19.5496 77.5594 30.6815 60.7041 39.0652 55.654C39.0657 55.6547 42.3021 57.1291 37.8419 63.0109L22.5684 80.5611C13.9926 89.5383 16.9593 100.499 16.8902 114.74C16.779 137.698 12.1237 132.223 23.9612 147.656L39.4777 165.05C43.7714 170.547 41.1781 164.217 42.58 172.154C53.4593 167.321 91.8225 169.523 92.2086 169.672C93.8441 171.038 93.05 171.978 94.0369 173.324V173.324ZM106.231 55.47C104.953 57.1348 108.712 58.5915 102.565 58.1498L106.231 55.47ZM32.0274 52.5357L29.6223 57.1546C26.825 52.6526 26.2452 55.9672 32.0274 52.5357ZM97.0756 53.3074C99.7745 45.8502 95.1377 51.9182 103.038 49.6104C100.793 52.5259 107.206 54.2188 97.0756 53.3074ZM32.0274 52.5357L33.4432 47.7035C36.1922 49.9401 36.0472 44.7354 35.5795 50.4674C35.2428 54.5914 36.7968 50.9587 32.0274 52.5357ZM95.8168 173.34C94.2965 165.257 99.807 162.066 105.309 154.338C107.906 150.69 109.912 148.312 111.976 145.61C118.118 137.57 112.59 141.502 121.207 138.085C115.738 133.674 117.224 136.598 116.764 127.266C116.555 123.016 116.802 118.481 116.616 114.185C116.206 104.672 114.337 93.8263 119.558 88.0706L117.009 86.8224C108.601 81.6618 89.3726 61.8098 91.3129 54.5032C80.5404 59.0572 91.1536 57.9648 63.8504 57.9963C51.0307 58.0112 43.0489 60.6053 39.6231 52.6984L85.3314 52.5444C88.2206 49.5208 88.8603 55.1711 84.5619 44.9065C95.1041 50.5533 90.253 47.8241 96.7588 48.061C90.3848 55.2611 95.6589 58.3414 102.308 65.0668C107.227 70.0419 113.032 77.7406 118.359 82.0697C123.434 80.7038 122.366 78.2402 126.23 78.882L126.249 87.3319C126.184 87.5292 125.93 87.995 125.839 88.2159C122.5 96.3503 123.043 94.8238 122.61 104.66C122.33 111.012 122.238 117.348 122.203 123.703C122.114 139.446 124.394 135.291 128.828 139.631C110.167 147.575 117.006 150.572 97.9879 171.358C97.7378 171.631 97.139 172.136 96.9266 172.354C96.7107 172.575 96.2226 173.042 95.8168 173.34V173.34ZM46.7138 48.6059C49.9736 45.5565 41.4431 48.7755 51.6864 44.5793C49.0816 49.496 52.8621 47.8801 46.7138 48.6059ZM62.2646 33.0106C62.0151 32.7678 61.3972 32.3479 61.2068 32.0788C61.056 31.8658 60.7134 31.4018 60.6393 31.1821C59.3064 27.2304 62.9362 26.7678 63.962 25.3322L73.8512 26.8589C73.5193 33.0213 74.5024 29.5928 70.3801 32.9544L72.856 34.5804C73.1515 34.7528 73.8176 35.1362 74.1131 35.3025C75.9699 36.3472 76.2089 36.2652 77.8524 37.0892C72.1683 41.4039 76.9158 41.7208 80.1471 48.6252L55.9889 48.4649L71.393 38.2881C66.1052 34.5747 61.5707 36.4743 56.3852 39.0145C56.2329 36.1954 51.8607 35.469 65.4674 35.0151L62.2646 33.0106ZM59.2973 5.92753C71.453 -1.14158 83.2694 11.888 74.2365 18.5001C66.3309 24.287 55.4578 17.6589 59.2973 5.92753ZM14.4973 70.1641C14.0656 70.4191 13.4616 70.7608 13.2027 70.9285L7.31171 75.345C14.5652 77.7965 10.5925 74.4364 14.5065 80.8374L3.77289 78.2544C-0.408015 83.877 -0.572016 95.3564 1.95149 100.536C-0.232789 102.925 1.17985 99.3776 0 104.368L0.867574 136.336C7.53398 151.518 8.41234 149.531 15.5872 149.602C11.1738 156.304 12.7783 149.598 12.8834 155.604C12.9523 159.543 24.8878 168.795 28.0579 172.701C31.3935 176.811 28.0129 174.95 33.3047 179.06C39.8375 184.134 76.8322 182.932 87.5861 182.738C93.3599 182.634 90.2878 183.016 95.2692 181.88C98.1444 181.224 95.8973 181.773 98.5338 180.886C99.0357 180.717 99.5805 180.508 100.058 180.323C108.513 177.032 102.856 181.103 108.393 174.704L129.814 145.825C133.931 136.644 131.201 137.261 130.808 131.52C130.779 131.102 130.623 130.91 130.437 130.641C138.287 116.727 125.448 126.453 127.077 113.97C129.835 119.259 125.947 117.337 131.817 117.655C131.774 114.477 132.053 106.812 131.594 105.821C123.774 103.886 128.41 106.672 123.993 102.294C128.329 98.2669 117.566 98.2774 131.217 99.2608L130.946 98.1705C122.635 96.0533 127.159 100.43 124.122 93.4044C128.538 89.5082 117.464 89.4164 131.439 90.4601C132.047 87.6343 132.151 85.9425 132.022 82.9004C131.668 74.5451 133.881 81.5697 121.887 70.1095L115.518 64.7638C115.339 64.3458 115.062 63.7852 114.923 63.5276C108.923 52.3461 97.3654 39.0981 80.683 43.9127C83.9074 36.2599 83.3126 31.0393 76.0177 22.2866C79.5188 18.5578 82.7935 17.0576 80.2993 8.82386C74.5348 -11.527 36.6115 7.74784 58.6286 22.2866C52.4193 28.1731 59.4982 24.2107 49.7337 36.7557C51.9496 41.3384 50.642 39.1262 54.165 42.6346C47.8815 44.0303 49.3026 42.5107 45.1076 45.9947L40.3013 44.0784L30.3582 44.8261C28.0733 50.1539 26.7283 52.1087 22.4087 57.3373C18.8643 61.6276 15.5351 63.8711 14.4973 70.1641V70.1641Z" fill="white"/>
<path fill-rule="evenodd" clip-rule="evenodd" d="M68.4647 130.66C67.9081 131.032 65.8965 132.478 65.4461 132.8C64.9855 133.13 64.2554 133.659 63.7902 133.992C63.305 134.34 62.6525 134.835 62.0653 135.238C75.2984 134.212 75.2504 133.757 76.8406 122.799C69.2244 114.474 50.2391 107.548 61.9645 95.769C80.0265 91.9268 78.9405 96.5366 80.9468 107.474C85.9205 104.512 83.9285 104.922 87.2162 100.932C90.822 104.516 89.4229 103.484 94.2443 105.983C90.8055 99.5504 91.0452 103.443 89.8306 96.6903C78.3528 101.537 88.8037 97.7165 77.7037 92.3967C73.7385 90.4962 68.1636 90.1541 64.1046 91.4493C44.7047 97.6405 56.2788 111.422 57.0175 112.964C49.1914 119.109 49.9679 113.359 47.6492 122.911C53.8074 121.639 49.9021 121.14 57.4187 117.868C58.5028 117.72 81.6743 120.533 68.4647 130.66V130.66Z" fill="white"/>
<path fill-rule="evenodd" clip-rule="evenodd" d="M73.4434 107.345C67.1091 104.683 70.9835 107.061 66.5103 102.906C70.5777 97.5928 72.4906 102.789 73.4434 107.345V107.345ZM52.7995 136.118C62.0832 141.305 76.9775 143.796 85.6438 134.457C98.2756 120.845 82.0834 113.337 80.9455 107.475C77.1043 108.148 79.0174 107.137 75.9973 108.217C72.1501 97.981 78.2928 99.1338 65.1173 97.709C62.4235 108.51 68.2491 107.924 76.4079 113.322C92.9078 124.239 80.8736 141.917 60.6376 136.878C49.1917 134.028 55.1827 129.972 44.8046 125.011C46.3598 132.131 47.6509 132.015 52.7995 136.118Z" fill="white"/>
<path fill-rule="evenodd" clip-rule="evenodd" d="M76.9763 151.918L71.9228 150.793C75.8656 147.874 67.1243 147.183 76.0198 148.634C80.0097 149.284 78.0509 146.94 76.9763 151.918V151.918ZM76.9763 151.918C83.4654 150.76 80.1381 154.026 81.4439 148.522C79.7419 147.639 82.3682 145.117 68.4829 147.168C74.1306 161.387 63.7475 154.82 65.2561 163.714C80.9471 167.768 67.4646 160.398 76.9763 151.918V151.918Z" fill="white"/>
<path fill-rule="evenodd" clip-rule="evenodd" d="M76.1468 71.7356C71.4609 73.1575 73.2082 70.9669 71.7476 76.3367C67.0435 71.5874 73.7469 70.4757 63.6782 73.6966C66.4038 80.1562 62.5637 75.1041 70.2277 80.5795C74.1792 83.4024 70.1204 84.067 76.6708 80.656L76.1468 71.7356Z" fill="white"/>
<path fill-rule="evenodd" clip-rule="evenodd" d="M76.1466 71.736C82.8141 71.7322 81.9857 69.7217 83.3015 64.8939L79.4547 67.4282C79.1534 67.6155 78.3811 68.0732 78.107 68.2419C77.8329 68.4107 77.1909 68.7644 76.7437 69.0382L66.7338 65.7612L60.764 69.547C67.6187 68.2686 69.404 68.3003 76.1466 71.736Z" fill="white"/>
<path fill-rule="evenodd" clip-rule="evenodd" d="M89.5461 153.68C96.5349 151.864 97.3491 150.498 99.1215 143.108C89.0111 146.817 95.0079 144.348 89.5461 153.68Z" fill="white"/>
<path fill-rule="evenodd" clip-rule="evenodd" d="M33.5258 129.068C32.4785 123.952 33.6386 124.518 29.5021 120.609C27.8183 122.102 26.6707 121.927 28.6495 125.661C31.3499 130.758 28.6062 127.07 33.5258 129.068V129.068Z" fill="white"/>
<path fill-rule="evenodd" clip-rule="evenodd" d="M83.755 141.324C89.0306 139.283 90.7158 138.891 91.3966 132.938C86.2112 136.436 86.7335 136.992 83.755 141.324V141.324Z" fill="white"/>
<path fill-rule="evenodd" clip-rule="evenodd" d="M27.6172 98.7245L35.5208 88.944C28.8235 91.0512 28.6795 93.7963 27.6172 98.7245Z" fill="white"/>
<path fill-rule="evenodd" clip-rule="evenodd" d="M49.8946 148.023C50.2762 144.83 49.8567 146.647 48.8279 145.047C46.0062 148.914 45.4016 146.996 48.467 151.927C48.8164 151.313 49.8289 148.574 49.8946 148.023Z" fill="white"/>
<path fill-rule="evenodd" clip-rule="evenodd" d="M51.8169 76.7713C51.9937 78.0097 57.3054 83.1887 54.6494 77.6174C54.2026 76.6805 51.1354 72.0049 51.8169 76.7713Z" fill="white"/>
<path fill-rule="evenodd" clip-rule="evenodd" d="M87.3195 163.103L85.3319 157.456C85.0139 157.958 83.8483 157.524 84.502 160.203C86.1409 166.921 84.7985 160.968 87.3195 163.103Z" fill="white"/>
<path fill-rule="evenodd" clip-rule="evenodd" d="M86.1013 93.4885C82.1704 87.889 85.9853 91.7949 79.2173 89.2889L86.1013 93.4885Z" fill="white"/>
<path fill-rule="evenodd" clip-rule="evenodd" d="M105.548 108.435L105.593 120.215C109.722 115.354 107.99 113.012 105.548 108.435Z" fill="white"/>
</svg>
