<svg width="219" height="167" viewBox="0 0 219 167" fill="none" xmlns="http://www.w3.org/2000/svg">
<path d="M171.645 111.466L175.645 111.466L171.645 111.466ZM109.515 59.9416L109.515 55.9416L109.515 59.9416ZM4 158.982C1.79086 158.982 0 160.772 0 162.982C0 165.191 1.79086 166.982 4 166.982V158.982ZM215 162.982V166.982C216.474 166.982 217.828 166.171 218.525 164.873C219.221 163.574 219.148 161.998 218.333 160.77L215 162.982ZM0.693554 160.77C-0.527965 162.611 -0.0260174 165.093 1.81469 166.314C3.65539 167.536 6.13781 167.034 7.35933 165.193L0.693554 160.77ZM112.862 6.21176C114.083 4.37105 113.582 1.88863 111.741 0.667113C109.9 -0.554406 107.418 -0.0524584 106.196 1.78824L112.862 6.21176ZM112.83 1.78824C111.609 -0.0524584 109.126 -0.554406 107.286 0.667113C105.445 1.88863 104.943 4.37105 106.164 6.21176L112.83 1.78824ZM105.497 163C105.497 165.209 107.288 167 109.497 167C111.706 167 113.497 165.209 113.497 163H105.497ZM113.497 4.03219C113.497 1.82305 111.706 0.0321906 109.497 0.0321906C107.288 0.0321906 105.497 1.82305 105.497 4.03219H113.497ZM167.645 111.466C167.645 123.802 161.741 135.824 150.894 144.82L156.001 150.978C168.457 140.648 175.645 126.459 175.645 111.466L167.645 111.466ZM150.894 144.82C140.026 153.833 125.149 158.99 109.515 158.99V166.99C126.837 166.99 143.566 161.29 156.001 150.978L150.894 144.82ZM109.515 158.99C93.8814 158.99 79.0048 153.833 68.1363 144.82L63.0295 150.978C75.4642 161.29 92.1936 166.99 109.515 166.99V158.99ZM68.1363 144.82C57.2894 135.824 51.3855 123.802 51.3855 111.466H43.3855C43.3855 126.459 50.5732 140.648 63.0295 150.978L68.1363 144.82ZM51.3855 111.466C51.3855 99.1289 57.2894 87.107 68.1363 78.1117L63.0295 71.9537C50.5732 82.2837 43.3855 96.4723 43.3855 111.466H51.3855ZM68.1363 78.1117C79.0048 69.0985 93.8814 63.9416 109.515 63.9416L109.515 55.9416C92.1936 55.9416 75.4642 61.6417 63.0295 71.9537L68.1363 78.1117ZM109.515 63.9416C125.149 63.9416 140.026 69.0985 150.894 78.1117L156.001 71.9537C143.566 61.6417 126.837 55.9416 109.515 55.9416L109.515 63.9416ZM150.894 78.1117C161.741 87.107 167.645 99.1289 167.645 111.466L175.645 111.466C175.645 96.4723 168.457 82.2837 156.001 71.9537L150.894 78.1117ZM4 166.982H215V158.982H4V166.982ZM7.35933 165.193L112.862 6.21176L106.196 1.78824L0.693554 160.77L7.35933 165.193ZM218.333 160.77L112.83 1.78824L106.164 6.21176L211.667 165.193L218.333 160.77ZM113.497 163V4.03219H105.497V163H113.497Z" fill="white"/>
</svg>
