
<svg version="1.0" xmlns="http://www.w3.org/2000/svg"
 width="914.000000pt" height="1280.000000pt" viewBox="0 0 914.000000 1280.000000"
 preserveAspectRatio="xMidYMid meet">

<g transform="translate(0.000000,1280.000000) scale(0.100000,-0.100000)"
fill="white" stroke="none">
<path d="M2954 12542 c-5 -24 -16 -38 -42 -51 l-36 -18 32 -17 c27 -14 32 -22
32 -51 0 -40 9 -44 35 -14 16 16 26 19 58 14 l39 -7 -17 31 c-15 30 -15 33 5
61 l21 30 -37 0 c-30 0 -43 6 -61 28 l-22 27 -7 -33z"/>
<path d="M3941 12335 c-7 -35 -18 -68 -25 -73 -10 -8 -32 -17 -100 -42 l-30
-11 60 -36 c32 -19 61 -37 62 -38 2 -2 7 -36 10 -75 l7 -70 53 46 53 46 66
-16 c36 -9 67 -15 69 -13 3 2 -7 30 -22 63 -28 64 -27 70 27 153 l23 34 -72
-6 -72 -6 -42 54 c-24 30 -46 54 -49 54 -3 1 -11 -28 -18 -64z"/>
<path d="M2204 12225 c3 -11 17 -96 31 -190 95 -626 167 -885 288 -1038 19
-24 33 -35 39 -29 17 17 22 167 8 249 -26 166 -104 396 -272 803 -78 191 -105
248 -94 205z"/>
<path d="M2554 12104 c-5 -30 -13 -39 -47 -53 l-40 -17 36 -23 c32 -20 37 -27
37 -62 0 -46 5 -48 40 -14 23 22 29 24 64 14 21 -6 40 -8 42 -6 3 3 -3 20 -12
40 -16 34 -16 36 5 65 29 41 27 45 -18 37 -36 -6 -41 -4 -62 24 -29 40 -37 39
-45 -5z"/>
<path d="M3278 12033 c-2 -20 -12 -32 -35 -43 -18 -8 -33 -17 -33 -20 0 -3 14
-13 30 -22 25 -14 30 -24 30 -53 l0 -37 30 26 c25 21 35 24 56 16 40 -16 45
-12 27 24 -15 33 -15 35 7 66 l23 33 -37 -7 c-32 -6 -40 -4 -57 18 -26 33 -37
33 -41 -1z"/>
<path d="M1185 11959 c-21 -105 -21 -105 -83 -129 -31 -13 -60 -26 -65 -30 -4
-3 20 -22 53 -41 49 -28 60 -39 60 -60 0 -14 3 -47 6 -72 l7 -46 51 44 c28 25
55 45 61 45 5 0 35 -7 65 -15 30 -8 58 -15 62 -15 4 0 -4 25 -18 55 -13 31
-24 63 -24 73 0 9 16 42 36 71 l37 54 -77 -6 c-42 -3 -76 -2 -76 1 -1 4 -20
29 -44 56 l-44 50 -7 -35z"/>
<path d="M2800 11735 l-13 -67 -51 -23 c-28 -12 -60 -25 -71 -29 -16 -6 -10
-13 42 -43 65 -39 73 -53 73 -146 l0 -39 55 47 55 47 66 -16 c37 -9 68 -16 69
-14 2 2 -7 28 -20 58 -31 70 -31 73 3 123 51 75 53 71 -24 64 l-69 -6 -51 56
-51 56 -13 -68z"/>
<path d="M4025 11583 c-257 -33 -547 -126 -760 -245 -191 -107 -388 -273 -440
-371 -17 -32 -29 -40 -91 -61 l-72 -24 -51 34 -50 34 -24 -47 c-26 -53 -42
-60 -125 -62 l-54 -1 32 -40 c18 -23 31 -42 29 -44 -2 -2 -31 -22 -63 -45
l-59 -41 73 0 73 0 -7 -27 c-3 -16 -8 -38 -12 -51 -6 -22 -6 -22 57 8 78 37
94 37 144 3 24 -16 40 -22 43 -15 2 6 13 26 26 44 21 32 23 33 105 36 l83 3
-31 31 c-17 18 -31 37 -31 44 0 6 25 22 55 35 30 13 55 27 55 30 0 4 -26 9
-57 13 -81 9 -89 16 -77 62 9 37 14 40 179 124 94 47 269 146 390 219 240 146
437 249 585 306 149 57 151 58 75 48z"/>
<path d="M4305 11430 c-6 -35 -12 -42 -48 -58 l-41 -18 37 -23 c32 -20 37 -27
37 -62 0 -21 3 -39 6 -39 3 0 20 11 38 25 28 21 37 23 67 15 49 -14 51 -13 34
20 -20 39 -19 56 6 91 l20 29 -44 0 c-38 0 -49 5 -70 30 -14 17 -28 30 -30 30
-3 0 -8 -18 -12 -40z"/>
<path d="M1466 11380 c-4 -23 -14 -34 -36 -41 -36 -13 -38 -22 -6 -39 15 -8
28 -26 33 -47 l8 -35 26 21 c21 16 32 19 58 11 17 -5 31 -7 31 -6 0 2 -5 17
-11 35 -9 25 -8 36 5 56 23 35 20 38 -19 32 -30 -5 -38 -2 -51 19 -21 32 -30
30 -38 -6z"/>
<path d="M336 11324 c-11 -58 -22 -72 -66 -85 -22 -7 -40 -15 -40 -18 0 -3 18
-16 40 -29 39 -22 43 -30 53 -111 1 -10 13 -5 39 18 35 30 39 32 75 22 62 -18
64 -16 43 34 l-20 46 25 39 c14 22 25 42 25 46 0 3 -21 3 -47 -1 -47 -7 -48
-6 -84 36 l-36 43 -7 -40z"/>
<path d="M1935 11271 c-5 -24 -15 -37 -36 -44 -35 -14 -36 -20 -4 -37 14 -8
25 -22 25 -34 0 -38 14 -49 35 -26 14 16 26 19 52 14 37 -7 38 -5 22 29 -9 20
-8 30 6 51 l17 26 -33 0 c-24 0 -39 7 -55 27 l-21 27 -8 -33z"/>
<path d="M5623 11209 c-44 -41 -61 -45 -128 -29 -22 5 -41 7 -43 5 -2 -2 8
-29 22 -61 l26 -57 -30 -48 c-16 -27 -30 -52 -30 -55 0 -3 28 -3 63 1 l63 7
42 -46 c46 -50 52 -54 52 -31 0 7 5 36 11 64 10 47 12 50 65 71 30 12 54 25
54 29 0 4 -25 20 -55 36 -52 28 -55 32 -56 70 -1 22 -4 50 -7 62 -7 21 -9 20
-49 -18z"/>
<path d="M4666 11164 c-26 -23 -35 -25 -78 -20 l-49 7 21 -41 20 -40 -20 -41
-21 -41 47 3 c41 3 49 0 75 -29 34 -38 39 -39 39 -9 0 48 13 68 51 84 22 8 39
18 39 22 0 3 -17 15 -38 26 -33 18 -37 25 -40 63 -2 23 -6 42 -10 42 -4 0 -20
-12 -36 -26z"/>
<path d="M3818 11124 c-3 -5 -8 -20 -11 -34 -4 -17 -18 -30 -39 -38 l-33 -12
33 -20 c27 -16 32 -26 32 -57 l0 -36 25 23 c20 19 31 22 65 16 l41 -6 -16 30
c-15 29 -15 33 4 66 l21 35 -35 -7 c-29 -5 -38 -2 -58 22 -13 15 -26 23 -29
18z"/>
<path d="M1380 11004 c-14 -2 -59 -9 -100 -15 -98 -14 -308 -64 -351 -83 -33
-15 -33 -15 -4 -8 17 4 140 7 275 6 198 0 290 -5 480 -27 256 -29 483 -47 599
-47 72 0 74 1 57 19 -46 50 -246 115 -449 145 -95 15 -432 21 -507 10z"/>
<path d="M4137 10974 c-4 -4 -7 -18 -7 -31 0 -18 -9 -28 -36 -39 l-37 -15 32
-20 c25 -15 31 -25 31 -54 l0 -36 29 22 c23 17 37 20 66 15 l36 -7 -16 31
c-15 29 -15 34 -1 55 23 36 20 45 -13 39 -24 -5 -34 -1 -53 21 -13 14 -27 23
-31 19z"/>
<path d="M6557 10923 c-3 -5 -53 -116 -112 -248 -194 -433 -252 -602 -262
-766 -3 -56 -2 -103 4 -113 9 -16 15 -12 50 28 109 124 176 326 278 846 25
129 48 241 50 248 5 13 -1 17 -8 5z"/>
<path d="M3160 10854 c-19 -2 -73 -11 -120 -21 -97 -19 -89 -25 46 -37 317
-28 600 -72 819 -127 131 -33 366 -109 364 -118 0 -3 -18 -21 -39 -39 l-39
-34 -56 13 c-30 7 -58 10 -61 7 -3 -3 7 -30 22 -60 l26 -54 -31 -53 c-18 -29
-30 -55 -28 -57 2 -2 30 1 63 6 l59 10 46 -51 46 -52 7 39 c17 98 14 94 78
121 l60 26 -61 35 -61 34 0 49 c0 27 2 49 4 49 2 0 42 -16 88 -36 234 -100
523 -276 733 -449 143 -117 125 -91 -30 43 -460 397 -956 640 -1492 733 -112
19 -365 32 -443 23z"/>
<path d="M7281 10781 c-19 -14 -31 -17 -54 -10 -25 7 -28 6 -21 -9 10 -22 10
-62 -1 -86 -7 -17 -5 -18 24 -14 25 4 36 0 51 -19 24 -31 30 -29 30 8 0 25 6
33 30 42 36 14 37 20 7 34 -13 6 -28 25 -33 42 -9 30 -9 30 -33 12z"/>
<path d="M6760 10655 c-20 -21 -29 -24 -62 -19 l-39 7 17 -36 c16 -33 16 -37
1 -61 -23 -35 -22 -36 20 -36 26 0 45 -8 64 -26 l26 -25 7 39 c5 34 11 41 43
54 l38 15 -37 18 c-34 17 -38 23 -38 57 0 44 -8 47 -40 13z"/>
<path d="M2231 10659 c-203 -40 -485 -188 -731 -385 -193 -155 -433 -420 -589
-649 -119 -175 -251 -419 -325 -597 -27 -67 -9 -41 37 55 146 299 369 601 633
858 215 208 445 376 828 604 108 64 196 118 196 120 0 3 -1 5 -2 4 -2 -1 -23
-5 -47 -10z"/>
<path d="M5565 10650 c-14 -16 -26 -19 -47 -15 -30 7 -35 -3 -18 -36 8 -14 6
-25 -6 -44 -16 -25 -16 -25 17 -25 19 0 42 -8 55 -21 l22 -21 7 31 c5 23 16
35 38 45 l32 13 -32 17 c-26 13 -33 23 -33 46 0 35 -10 38 -35 10z"/>
<path d="M2920 10640 c41 -34 174 -111 391 -225 319 -169 442 -239 612 -351
190 -126 523 -393 507 -406 -3 -3 -61 -26 -130 -53 -144 -56 -344 -156 -475
-237 -88 -55 -168 -113 -102 -74 135 81 343 181 472 229 96 35 263 87 279 87
7 0 25 -13 41 -30 34 -36 23 -59 -25 -52 -29 4 -30 4 -19 -26 7 -22 7 -36 0
-51 -16 -30 -14 -34 20 -29 23 4 34 -1 48 -18 21 -26 31 -22 31 13 0 16 9 27
26 35 25 12 29 9 76 -42 28 -30 46 -48 41 -40 -18 29 -136 175 -171 212 -41
43 -46 40 93 67 274 55 618 73 984 52 112 -7 205 -10 208 -8 8 9 -141 57 -240
79 -88 19 -132 22 -322 22 -158 0 -249 -5 -324 -17 -134 -22 -136 -22 -150 9
-10 23 -8 32 19 74 16 25 30 49 30 53 0 3 -26 3 -57 0 l-57 -6 -42 48 -42 49
-12 -57 c-15 -65 -17 -68 -83 -92 l-49 -18 56 -34 c47 -29 56 -39 56 -64 0
-27 -4 -30 -71 -50 l-70 -21 -142 140 c-153 152 -244 231 -398 348 -338 256
-767 474 -980 499 l-54 7 25 -22z"/>
<path d="M2653 10558 c-4 -7 -9 -56 -11 -108 -5 -112 12 -209 67 -380 40 -122
283 -782 287 -778 4 5 -104 729 -121 811 -41 196 -93 332 -161 420 -39 50 -48
55 -61 35z"/>
<path d="M4985 10512 c180 -104 270 -170 545 -397 210 -173 427 -332 438 -320
8 8 -45 103 -92 163 -55 72 -190 201 -287 274 -157 118 -366 227 -573 297 -65
23 -121 41 -124 41 -4 0 38 -26 93 -58z"/>
<path d="M2354 10528 c-75 -50 -223 -197 -315 -314 -323 -413 -559 -891 -704
-1427 -32 -117 -28 -141 5 -30 38 131 137 373 213 524 134 265 268 469 512
784 167 216 274 364 315 438 17 31 30 57 28 57 -3 0 -27 -15 -54 -32z"/>
<path d="M330 10463 l-15 -67 -62 -25 c-35 -13 -63 -27 -63 -30 0 -3 22 -19
50 -34 61 -34 70 -50 70 -121 0 -31 3 -56 6 -56 3 0 28 20 56 44 l50 44 70
-18 c64 -17 69 -17 63 -2 -4 9 -16 40 -27 68 l-20 52 36 56 c20 31 36 58 36
59 0 1 -33 1 -72 -1 l-73 -4 -40 51 c-22 28 -42 51 -45 51 -3 0 -12 -30 -20
-67z"/>
<path d="M1075 10440 c-6 -35 -12 -42 -48 -58 l-41 -18 36 -22 c33 -20 37 -28
40 -68 l3 -45 35 29 c29 25 39 28 65 21 52 -15 55 -13 38 30 -15 38 -14 41 7
75 l22 36 -46 0 c-39 0 -49 4 -68 30 -12 17 -25 30 -29 30 -4 0 -10 -18 -14
-40z"/>
<path d="M5869 10324 c-9 -11 -23 -14 -47 -10 -29 4 -33 3 -26 -12 10 -22 9
-52 -1 -75 -7 -16 -4 -18 18 -15 16 2 34 -5 50 -20 l24 -23 6 30 c4 18 16 35
33 44 l26 14 -26 16 c-16 11 -26 27 -26 42 0 29 -12 32 -31 9z"/>
<path d="M6760 10245 l-45 -44 -60 14 c-32 8 -61 13 -62 11 -2 -2 8 -28 23
-60 l26 -56 -32 -57 -32 -56 63 7 63 6 47 -46 47 -46 6 31 c3 17 9 45 12 62 5
26 16 35 65 59 l59 28 -57 34 -58 34 -5 56 c-3 31 -8 59 -11 62 -3 3 -25 -15
-49 -39z"/>
<path d="M4537 10244 c-4 -4 -7 -18 -7 -31 0 -17 -9 -27 -37 -38 l-37 -16 32
-19 c27 -16 32 -26 32 -57 l0 -36 25 23 c20 19 31 22 64 16 l40 -6 -14 32
c-12 30 -11 36 7 67 l21 34 -36 -7 c-32 -6 -40 -3 -60 19 -12 15 -26 23 -30
19z"/>
<path d="M7275 10230 c-12 -14 -25 -17 -46 -13 -32 6 -34 2 -19 -28 8 -14 7
-27 -5 -49 l-16 -30 33 0 c18 0 41 -9 54 -21 l22 -21 7 32 c5 23 16 36 38 45
l31 13 -32 16 c-25 13 -32 23 -32 46 0 35 -10 38 -35 10z"/>
<path d="M7935 10129 c-42 -43 -48 -44 -143 -23 l-33 7 27 -61 26 -61 -31 -56
-32 -56 68 6 69 7 38 -47 c43 -52 49 -50 60 27 8 52 13 58 78 84 27 10 48 21
48 24 0 3 -24 18 -54 33 -57 30 -66 47 -66 123 0 19 -4 34 -8 34 -4 0 -26 -18
-47 -41z"/>
<path d="M4791 10126 c-13 -14 -28 -23 -35 -21 -6 2 -23 6 -38 9 l-28 6 16
-39 c14 -36 14 -42 0 -70 -9 -16 -16 -32 -16 -33 0 -2 16 -2 36 0 28 4 41 -1
63 -22 24 -23 29 -25 35 -11 3 9 6 25 6 36 0 14 13 25 43 38 l42 18 -36 18
c-31 15 -38 24 -43 56 -7 45 -14 48 -45 15z"/>
<path d="M3336 9993 l-18 -71 -64 -23 c-35 -13 -64 -25 -64 -28 0 -3 27 -21
60 -39 60 -33 60 -33 61 -80 1 -26 4 -57 7 -70 7 -22 8 -22 59 22 l53 44 42
-12 c24 -7 55 -16 70 -20 l27 -6 -28 67 -29 67 34 53 c19 29 34 57 34 61 0 4
-30 5 -67 4 l-67 -4 -47 53 -46 53 -17 -71z"/>
<path d="M3910 9798 c0 -7 -5 -30 -10 -50 -9 -31 -18 -39 -55 -54 -25 -9 -45
-20 -45 -24 0 -3 17 -16 39 -28 39 -22 51 -48 51 -110 l0 -26 28 25 c53 49 55
49 105 34 26 -8 47 -11 47 -8 0 3 -7 26 -17 52 -16 47 -16 47 11 87 l26 39
-55 3 c-49 3 -58 7 -82 37 -29 37 -43 44 -43 23z"/>
<path d="M1196 9750 c-4 -23 -14 -34 -36 -41 -36 -13 -38 -22 -6 -37 15 -7 27
-23 32 -47 l9 -37 26 21 c21 16 32 19 58 11 17 -5 31 -7 31 -6 0 2 -5 17 -11
35 -9 25 -8 36 5 56 23 34 21 38 -20 33 -29 -3 -39 0 -51 19 -20 31 -29 29
-37 -7z"/>
<path d="M5980 9735 l0 -45 -67 0 -67 0 46 -29 c25 -16 48 -34 52 -39 3 -6 -8
-24 -25 -40 l-31 -29 51 -7 c78 -10 99 -22 118 -63 10 -21 18 -39 19 -41 0 -1
17 5 37 13 50 21 58 20 117 -20 29 -19 53 -35 55 -35 1 0 0 20 -3 45 -4 42 -3
45 19 45 13 0 41 -4 62 -9 20 -5 37 -7 37 -5 0 2 -20 22 -45 45 -25 23 -45 46
-45 51 0 5 12 20 27 34 14 13 24 26 22 27 -2 2 -31 10 -64 18 -62 15 -72 25
-95 92 l-10 28 -44 -26 -45 -26 -60 31 -61 30 0 -45z"/>
<path d="M6628 9709 c-89 -9 -144 -23 -212 -52 -42 -18 -46 -22 -28 -28 44
-16 295 -39 537 -49 333 -14 517 -34 675 -75 30 -8 56 -13 57 -11 8 8 -163 82
-283 122 -264 89 -504 119 -746 93z"/>
<path d="M3507 9573 c-2 -4 -7 -20 -11 -35 -4 -19 -14 -28 -36 -33 -38 -8 -38
-16 0 -37 23 -13 30 -24 30 -48 0 -35 10 -38 35 -10 12 13 25 18 39 14 60 -17
57 -19 40 21 -14 34 -13 38 7 66 l22 31 -36 -3 c-27 -3 -42 3 -60 20 -14 12
-27 19 -30 14z"/>
<path d="M5648 9534 c-327 -59 -868 -317 -1223 -584 -51 -38 -96 -70 -98 -70
-3 0 5 19 18 43 14 23 25 46 25 50 0 4 -26 5 -59 1 -38 -4 -61 -3 -65 5 -4 5
-4 32 0 59 6 47 8 51 55 73 27 12 49 25 49 29 0 3 -20 16 -44 27 -43 21 -45
24 -51 77 l-7 56 -44 -36 c-42 -35 -45 -35 -91 -26 -26 6 -49 9 -51 7 -2 -2 6
-25 17 -51 l21 -47 -25 -45 c-14 -24 -25 -46 -25 -49 0 -2 26 -1 58 3 69 7 72
3 60 -72 -9 -49 -11 -52 -59 -74 -27 -13 -49 -26 -49 -30 0 -4 22 -17 49 -30
44 -20 50 -27 56 -62 7 -37 4 -43 -36 -86 -42 -44 -42 -44 -6 -14 21 18 43 32
50 32 7 0 29 16 48 36 33 35 35 36 92 29 31 -3 57 -3 57 0 0 3 -7 20 -16 36
-8 17 -14 32 -12 34 35 33 267 168 408 239 208 103 345 159 665 269 239 83
401 146 437 171 21 15 19 16 -52 15 -41 0 -110 -7 -152 -15z"/>
<path d="M6435 9452 c11 -10 97 -81 190 -158 552 -451 866 -884 1056 -1454 44
-132 50 -134 15 -5 -176 654 -600 1267 -1063 1538 -94 55 -230 110 -198 79z"/>
<path d="M6025 9388 c-104 -121 -143 -234 -270 -788 -36 -157 -68 -294 -71
-305 -12 -50 275 564 330 703 64 162 92 327 70 410 -9 31 -17 28 -59 -20z"/>
<path d="M6300 9368 c0 -20 145 -306 247 -488 183 -326 291 -575 377 -875 37
-126 83 -348 99 -470 3 -23 4 -21 6 12 1 52 -23 243 -50 388 -79 422 -253 870
-465 1197 -68 105 -213 265 -214 236z"/>
<path d="M1067 9343 c-3 -4 -8 -24 -12 -43 -12 -64 -15 -69 -65 -85 -28 -9
-52 -20 -54 -24 -3 -4 17 -20 44 -36 49 -28 49 -29 56 -92 l6 -63 44 40 c24
22 47 40 51 40 5 0 32 -7 61 -14 28 -8 52 -12 52 -9 0 2 -10 27 -21 54 -24 54
-22 60 22 127 l22 34 -66 -7 c-37 -4 -67 -3 -67 1 -1 15 -68 86 -73 77z"/>
<path d="M2236 9342 c-2 -4 -7 -24 -11 -44 -6 -32 -13 -39 -53 -55 l-46 -19
41 -24 c39 -22 42 -26 45 -72 l3 -49 37 31 c35 29 40 30 75 21 54 -15 54 -15
36 33 -16 42 -15 45 5 78 12 20 22 38 22 41 0 4 -19 4 -43 1 -40 -6 -45 -4
-75 30 -17 19 -33 32 -36 28z"/>
<path d="M7760 9255 c-22 -21 -30 -23 -62 -16 -42 10 -45 4 -24 -38 13 -25 13
-30 -5 -57 -10 -16 -19 -31 -19 -34 0 -3 19 -4 43 -2 38 3 46 0 61 -22 21 -34
36 -33 36 2 0 36 9 47 50 65 l35 14 -37 18 c-29 14 -38 25 -38 44 0 45 -13 53
-40 26z"/>
<path d="M7219 9254 c-9 -11 -25 -15 -51 -12 -44 4 -42 6 -24 -30 12 -24 12
-30 0 -47 -21 -28 -17 -38 14 -32 20 4 34 -1 55 -21 l27 -26 0 26 c0 29 23 58
46 58 22 0 17 15 -11 30 -15 8 -25 22 -25 36 0 30 -14 38 -31 18z"/>
<path d="M3354 9093 c-4 -20 -15 -35 -33 -43 l-26 -12 28 -14 c15 -8 27 -23
27 -34 0 -26 15 -33 30 -15 7 8 25 15 41 15 31 0 34 6 20 29 -6 10 -4 25 6 44
l15 30 -27 -7 c-21 -5 -33 -2 -51 15 l-24 22 -6 -30z"/>
<path d="M2832 9014 c-6 -21 -13 -53 -17 -69 -5 -27 -14 -34 -70 -55 -36 -13
-65 -27 -65 -30 0 -4 15 -14 33 -24 17 -9 44 -24 60 -32 17 -10 27 -23 27 -37
-1 -21 -1 -21 -15 3 -8 14 -14 21 -15 17 0 -5 27 -119 61 -255 73 -297 135
-489 190 -591 41 -77 105 -154 121 -145 15 9 8 117 -12 202 -26 107 -89 262
-201 489 l-90 182 38 35 c21 19 45 33 53 31 120 -32 131 -37 120 -50 -7 -8
-20 -17 -31 -20 -27 -9 -24 -21 11 -35 24 -10 30 -19 30 -41 0 -34 10 -37 35
-9 14 16 26 19 53 14 l34 -7 -17 32 c-15 30 -15 35 -1 56 23 34 20 38 -17 31
-26 -5 -38 -2 -52 14 -22 25 -35 26 -36 3 0 -10 -14 11 -30 46 l-29 63 35 57
c19 31 35 59 35 61 0 3 -30 3 -67 2 l-68 -4 -47 53 -46 53 -10 -40z"/>
<path d="M2205 8996 c-3 -9 -7 -23 -10 -31 -3 -9 -19 -22 -37 -30 l-33 -13 33
-19 c26 -14 32 -24 32 -50 0 -38 6 -40 35 -13 17 16 27 18 53 11 35 -10 37 -6
22 34 -8 22 -6 32 11 57 l22 30 -36 -3 c-27 -3 -42 3 -61 20 -22 21 -26 22
-31 7z"/>
<path d="M7385 8981 c-16 -18 -26 -21 -54 -16 -30 6 -33 4 -26 -12 11 -22 11
-63 1 -84 -6 -13 -1 -15 24 -11 24 3 35 -1 46 -17 20 -28 34 -27 34 4 0 18 10
31 32 45 l31 19 -25 11 c-16 8 -28 24 -34 47 l-9 36 -20 -22z"/>
<path d="M3654 8703 c-4 -20 -15 -35 -33 -43 l-26 -12 28 -14 c15 -8 27 -23
27 -34 0 -26 15 -33 30 -15 7 8 25 15 41 15 32 0 34 3 18 31 -8 16 -7 26 6 46
l17 26 -28 -6 c-21 -4 -35 0 -51 15 l-23 21 -6 -30z"/>
<path d="M5110 8685 c-23 -24 -30 -26 -73 -21 l-48 7 16 -30 c19 -37 19 -60 0
-85 -23 -31 -18 -39 23 -33 31 4 42 0 69 -26 l32 -30 6 29 c11 50 13 53 52 72
l38 20 -37 17 c-31 15 -38 24 -45 62 l-8 45 -25 -27z"/>
<path d="M6295 8649 c-43 -43 -42 -43 -142 -23 l-32 6 28 -58 29 -59 -29 -51
c-16 -28 -29 -54 -29 -58 0 -3 27 -3 61 1 l60 6 44 -43 c25 -24 46 -42 49 -39
2 2 8 29 13 59 8 54 8 55 67 83 l59 28 -29 19 c-16 11 -41 25 -55 31 -24 9
-28 18 -34 75 -3 35 -10 64 -14 64 -4 0 -25 -18 -46 -41z"/>
<path d="M1955 8476 c-7 -57 -8 -57 -61 -84 l-55 -28 54 -26 c54 -27 55 -27
62 -84 l7 -56 42 41 42 41 53 -10 c30 -5 55 -10 57 -10 2 0 -8 24 -23 54 l-26
54 27 47 c15 25 26 48 24 50 -1 2 -27 -1 -57 -7 l-54 -9 -43 42 -42 41 -7 -56z"/>
<path d="M3286 8449 c-3 -17 -6 -41 -6 -53 0 -17 -14 -29 -57 -50 l-56 -27 52
-26 c58 -29 57 -27 66 -97 l7 -49 43 43 43 42 56 -9 c31 -6 55 -7 54 -4 -2 3
-14 27 -27 52 l-23 45 27 53 26 53 -43 -7 c-24 -3 -50 -9 -59 -11 -11 -3 -30
10 -51 36 -19 22 -37 40 -40 40 -3 0 -8 -14 -12 -31z"/>
<path d="M4925 8450 c-15 -17 -26 -20 -54 -15 -30 6 -33 4 -26 -12 10 -23 10
-53 1 -75 -7 -15 -3 -18 21 -18 17 0 38 -9 48 -20 21 -23 35 -18 35 14 0 17 9
27 31 37 29 11 30 14 14 25 -10 7 -22 15 -27 16 -5 2 -13 18 -16 37 l-7 33
-20 -22z"/>
<path d="M4215 8371 c-270 -70 -498 -188 -692 -359 -82 -73 -173 -187 -173
-217 0 -26 172 81 435 270 193 140 317 217 448 281 80 39 109 55 96 54 -2 -1
-53 -14 -114 -29z"/>
<path d="M4526 8286 c-5 -27 -15 -40 -39 -52 l-32 -17 32 -15 c23 -11 33 -24
38 -50 l6 -34 24 22 c18 17 33 21 59 18 42 -5 41 -6 20 33 -14 28 -14 33 0 54
22 34 20 38 -15 30 -25 -6 -36 -2 -59 20 l-28 26 -6 -35z"/>
<path d="M6201 8229 c-17 -14 -32 -18 -53 -14 -32 7 -33 6 -17 -29 10 -20 9
-30 -5 -51 -16 -25 -16 -25 16 -25 19 0 41 -9 55 -22 l23 -21 6 30 c4 21 16
35 37 45 l32 15 -32 16 c-23 12 -33 25 -35 46 l-3 29 -24 -19z"/>
<path d="M7326 8221 c-16 -17 -26 -20 -54 -15 -32 6 -34 5 -27 -12 10 -24 11
-54 1 -76 -7 -15 -3 -18 26 -18 23 0 37 -6 46 -20 16 -26 32 -17 32 16 0 19 8
28 31 36 l31 11 -26 21 c-15 11 -30 34 -34 49 l-8 29 -18 -21z"/>
<path d="M6614 8189 c-27 -28 -32 -30 -78 -23 -45 6 -48 5 -41 -12 29 -71 29
-70 7 -106 -12 -20 -22 -38 -22 -41 0 -4 20 -4 46 0 41 5 48 3 78 -26 37 -35
40 -34 50 20 5 30 13 39 46 54 22 10 40 21 40 24 0 3 -17 15 -38 26 -32 17
-38 26 -43 62 -3 24 -8 45 -10 48 -3 3 -19 -9 -35 -26z"/>
<path d="M5399 8135 l-46 -43 -59 14 c-32 7 -60 11 -62 9 -2 -2 8 -29 22 -60
l25 -56 -31 -56 -31 -56 64 7 65 7 42 -45 c46 -50 52 -53 52 -31 0 7 5 36 11
64 10 47 12 50 65 71 30 12 54 25 54 29 0 3 -25 19 -55 36 -50 27 -55 32 -56
65 -1 19 -4 47 -8 62 l-6 27 -46 -44z"/>
<path d="M2224 8056 c-3 -15 -18 -33 -33 -40 l-26 -14 27 -12 c17 -8 29 -24
33 -42 l7 -30 21 20 c16 15 30 19 51 15 28 -6 28 -6 13 23 -13 25 -13 31 0 51
15 22 14 23 -18 23 -18 0 -40 7 -50 16 -17 15 -19 14 -25 -10z"/>
<path d="M2617 8013 c-4 -3 -7 -14 -7 -24 0 -10 -12 -25 -27 -33 l-28 -14 28
-13 c18 -8 27 -20 27 -36 0 -27 12 -30 31 -7 8 10 23 14 41 12 32 -5 32 -5 16
21 -9 15 -9 25 0 46 12 25 11 26 -12 23 -13 -1 -33 5 -43 15 -11 9 -23 14 -26
10z"/>
<path d="M4145 7982 c-4 -18 -16 -34 -33 -42 l-27 -12 26 -14 c15 -7 30 -25
33 -40 6 -24 8 -25 25 -10 10 9 32 16 50 16 32 0 33 1 18 23 -13 20 -13 26 0
51 15 29 15 29 -13 23 -21 -4 -35 0 -51 15 l-21 20 -7 -30z"/>
<path d="M7255 7960 c-40 -39 -40 -39 -88 -29 -27 6 -50 9 -53 7 -2 -3 6 -24
17 -49 l22 -44 -26 -49 c-15 -27 -26 -51 -24 -52 1 -1 25 2 52 6 49 8 51 7 92
-32 l41 -40 12 55 c11 53 12 55 63 76 l52 22 -50 27 c-48 26 -50 29 -58 81 -4
30 -9 56 -10 58 -2 1 -21 -15 -42 -37z"/>
<path d="M1308 7923 c-3 -32 -9 -41 -42 -59 l-39 -22 42 -21 c36 -19 41 -25
41 -56 0 -42 8 -44 40 -10 21 23 29 25 69 19 l45 -7 -22 37 -22 37 20 38 19
38 -42 -4 c-36 -4 -46 -1 -66 21 -33 35 -39 33 -43 -11z"/>
<path d="M4414 7883 c-4 -20 -15 -35 -33 -43 l-26 -12 26 -14 c15 -7 30 -25
33 -40 6 -24 8 -25 25 -10 10 9 30 16 44 16 29 0 32 6 18 29 -6 10 -4 25 6 44
l15 30 -27 -7 c-21 -5 -33 -2 -51 15 l-24 22 -6 -30z"/>
<path d="M3124 7737 c-19 -42 -22 -44 -108 -62 l-29 -6 27 -28 27 -28 -47 -40
-48 -40 59 5 58 5 -7 -41 -6 -42 60 33 59 32 37 -20 37 -20 -2 -85 c-3 -140
32 -239 258 -720 56 -118 101 -210 101 -203 0 25 -123 550 -151 646 -42 142
-98 256 -154 316 l-47 50 19 33 c20 35 45 45 111 47 l44 1 -31 26 c-17 14 -31
29 -31 33 0 4 21 19 47 33 l47 26 -50 7 c-75 10 -76 10 -68 50 l6 35 -56 -26
-56 -26 -43 25 -43 26 -20 -42z"/>
<path d="M2249 7755 c-141 -23 -416 -100 -442 -124 -4 -4 27 -1 70 7 57 10
215 16 585 20 278 4 509 10 512 13 10 10 -108 59 -181 75 -97 22 -431 28 -544
9z"/>
<path d="M3709 7750 c-80 -9 -193 -35 -219 -51 -9 -5 21 -9 80 -9 177 -1 473
-20 609 -40 384 -56 752 -196 1066 -404 140 -93 128 -77 -25 33 -335 240 -715
399 -1093 455 -128 20 -323 27 -418 16z"/>
<path d="M3430 7566 c0 -11 195 -104 412 -197 273 -117 495 -230 650 -331 125
-81 307 -218 308 -230 0 -3 -27 -4 -61 -1 l-60 6 39 -63 40 -63 -29 -63 c-15
-35 -23 -64 -18 -64 6 0 38 7 71 15 l60 16 53 -45 52 -45 7 37 c3 20 6 53 6
72 1 32 5 38 60 69 33 19 57 38 53 41 -5 4 -30 15 -58 25 -64 23 -65 23 -80
88 -12 53 -12 57 9 76 20 18 28 20 69 12 26 -4 47 -7 47 -5 0 2 -10 23 -21 48
l-22 44 22 35 c11 19 21 37 21 41 0 4 -21 4 -47 0 -44 -5 -50 -3 -77 25 -17
17 -33 31 -37 31 -4 0 -10 -20 -13 -45 -7 -41 -11 -47 -54 -69 l-46 -23 44
-23 c25 -12 46 -23 46 -24 1 0 4 -19 8 -41 5 -35 2 -44 -25 -74 l-31 -33 -61
59 c-300 290 -803 586 -1142 671 -88 22 -195 38 -195 28z"/>
<path d="M2829 7497 c-375 -143 -769 -550 -1009 -1042 -73 -148 -156 -352
-147 -361 2 -2 22 43 46 100 23 57 69 153 103 212 215 388 474 665 913 978
236 168 235 166 94 113z"/>
<path d="M7032 7480 c0 -14 2 -19 5 -12 2 6 2 18 0 25 -3 6 -5 1 -5 -13z"/>
<path d="M2943 7365 c-206 -206 -454 -669 -567 -1061 -37 -128 -81 -321 -90
-394 -3 -25 7 6 23 67 94 363 220 635 483 1041 178 275 252 404 245 425 -2 6
-44 -29 -94 -78z"/>
<path d="M4790 7321 c0 -11 -12 -28 -26 -38 l-26 -19 26 -17 c17 -12 26 -26
26 -44 l0 -26 24 22 c17 16 30 20 50 15 26 -6 26 -5 15 20 -9 20 -9 32 -1 51
11 24 10 25 -22 25 -21 0 -36 6 -40 15 -8 21 -26 19 -26 -4z"/>
<path d="M1970 7266 c0 -28 -5 -36 -30 -46 -37 -15 -37 -21 0 -42 23 -13 30
-24 30 -48 0 -36 6 -37 37 -8 17 16 34 22 58 19 l35 -3 -17 31 c-17 29 -17 32
1 61 l18 32 -35 -3 c-26 -3 -42 3 -60 19 -31 30 -37 28 -37 -12z"/>
<path d="M1364 7234 c-7 -56 -7 -56 -55 -76 -27 -12 -49 -23 -49 -27 0 -3 21
-17 48 -31 46 -24 47 -27 56 -83 l9 -59 42 42 43 42 56 -9 c31 -6 56 -8 56 -6
0 3 -12 25 -27 50 l-26 45 27 55 27 55 -43 -7 c-24 -3 -51 -9 -60 -11 -11 -3
-28 9 -49 36 -18 22 -36 40 -40 40 -4 0 -11 -25 -15 -56z"/>
<path d="M3836 7079 c-3 -17 -6 -42 -6 -55 0 -19 -12 -30 -55 -52 l-56 -28 56
-27 c44 -21 55 -32 55 -51 0 -13 3 -38 6 -55 l7 -32 41 40 42 41 53 -10 c30
-5 55 -10 57 -10 2 0 -8 24 -22 53 l-26 53 26 53 c24 46 25 52 9 48 -80 -22
-94 -20 -138 23 l-42 41 -7 -32z"/>
<path d="M5887 7055 c-13 -18 -27 -25 -52 -25 -40 0 -41 -2 -20 -34 12 -18 13
-30 5 -50 -14 -38 -14 -39 21 -32 23 4 39 0 60 -15 l29 -20 0 30 c0 21 9 36
31 54 31 24 31 25 10 32 -31 10 -51 33 -51 61 0 30 -10 30 -33 -1z"/>
<path d="M4310 6919 c0 -41 -13 -61 -55 -82 l-30 -15 37 -18 c36 -17 48 -37
48 -83 l0 -25 33 31 c29 29 36 31 75 26 l44 -6 -20 40 c-20 39 -20 40 -1 69
27 41 24 45 -22 38 -36 -6 -44 -4 -75 27 l-34 33 0 -35z"/>
<path d="M2114 6716 c-3 -15 -18 -33 -33 -40 l-26 -14 26 -12 c18 -8 29 -23
33 -43 l6 -30 24 22 c18 17 30 20 52 15 l28 -7 -17 26 c-13 21 -15 32 -7 46
15 28 13 31 -17 31 -14 0 -34 7 -44 16 -17 15 -19 14 -25 -10z"/>
<path d="M6637 6678 c-14 -35 -53 -130 -87 -213 -225 -547 -291 -814 -243
-978 5 -17 7 -17 30 5 86 81 161 281 223 593 36 186 112 647 106 652 -2 2 -15
-24 -29 -59z"/>
<path d="M3996 6706 c-3 -14 -19 -32 -34 -40 l-27 -14 28 -13 c18 -8 30 -23
34 -41 l6 -29 22 21 c17 16 29 19 49 14 26 -6 26 -5 15 20 -9 20 -9 32 -1 51
11 24 10 25 -20 25 -17 0 -39 7 -49 15 -15 15 -17 14 -23 -9z"/>
<path d="M6278 6619 c-21 -28 -26 -30 -66 -24 l-43 6 23 -39 c22 -39 22 -41 5
-76 -19 -40 -12 -45 39 -26 23 9 31 7 54 -15 14 -14 29 -25 32 -25 4 0 8 17
10 37 2 30 10 42 35 58 18 11 32 23 33 27 0 3 -16 12 -35 18 -28 9 -37 19 -45
51 -6 21 -13 39 -15 39 -2 0 -15 -14 -27 -31z"/>
<path d="M5556 6544 c-15 -22 -24 -25 -52 -21 -39 7 -40 5 -18 -28 16 -24 15
-38 -1 -77 -6 -15 -2 -16 30 -11 29 5 41 1 60 -17 l24 -23 7 40 c4 30 13 44
30 52 32 14 30 24 -5 38 -20 7 -31 20 -36 42 -8 37 -14 38 -39 5z"/>
<path d="M7631 6443 l-44 -54 -69 7 c-37 4 -68 4 -68 0 0 -3 16 -30 35 -61
l35 -55 -25 -61 c-15 -34 -24 -63 -22 -66 3 -2 32 3 65 11 33 9 62 16 66 16 3
0 29 -21 58 -47 l53 -47 3 72 3 71 60 37 c33 20 57 40 52 44 -4 4 -33 17 -64
29 -56 22 -56 22 -69 79 -7 31 -15 62 -19 68 -3 7 -24 -11 -50 -43z"/>
<path d="M2980 6427 c0 -33 -4 -39 -35 -54 -19 -9 -35 -20 -35 -23 0 -3 16
-14 35 -23 31 -15 35 -21 35 -54 l0 -37 29 29 c25 23 36 27 65 22 41 -7 41 -6
20 34 -14 28 -14 33 0 54 24 36 20 44 -20 38 -29 -5 -40 -1 -65 22 l-29 29 0
-37z"/>
<path d="M2030 6353 c0 -52 -11 -71 -51 -88 -21 -10 -39 -21 -39 -25 0 -4 18
-15 39 -25 40 -17 51 -36 51 -87 0 -37 9 -35 45 8 29 35 31 35 75 25 24 -5 46
-8 48 -6 2 2 -6 21 -18 44 l-20 41 20 40 c11 21 20 41 20 44 0 3 -21 3 -47 0
-44 -5 -50 -3 -77 25 -37 38 -46 39 -46 4z"/>
<path d="M6009 6255 l-44 -55 -74 6 -74 7 42 -61 41 -62 -29 -65 c-33 -72 -32
-73 45 -50 27 8 54 15 59 15 6 0 34 -20 62 -45 l52 -45 5 42 c3 24 7 56 8 72
2 24 13 36 54 60 28 17 52 35 53 40 1 5 -24 20 -57 33 l-60 24 -17 70 c-10 38
-18 69 -20 69 -1 0 -22 -25 -46 -55z"/>
<path d="M3485 6202 c-7 -59 -7 -59 -56 -82 -27 -13 -49 -26 -49 -29 0 -3 22
-16 49 -27 48 -21 48 -22 55 -78 4 -31 10 -56 14 -56 4 0 23 18 42 39 35 38
37 39 80 30 73 -13 73 -13 45 41 l-25 50 25 50 c14 27 25 51 25 53 0 2 -25 -1
-55 -6 l-56 -10 -43 42 -44 43 -7 -60z"/>
<path d="M2980 6157 c0 -16 -9 -28 -27 -36 -27 -12 -27 -13 -8 -27 10 -8 22
-14 27 -14 4 0 8 -14 8 -32 l0 -31 24 22 c19 18 31 22 52 17 23 -6 25 -5 19
11 -10 22 -11 53 -1 74 6 13 1 15 -22 11 -18 -2 -33 2 -41 12 -19 23 -31 20
-31 -7z"/>
<path d="M4805 6090 c11 -5 69 -28 130 -51 152 -59 312 -142 580 -304 218
-132 533 -300 543 -290 2 2 -7 24 -21 48 -73 123 -319 310 -554 419 -161 74
-414 148 -593 173 -25 3 -58 8 -75 11 -25 3 -26 2 -10 -6z"/>
<path d="M4530 5953 c-20 -28 -30 -33 -67 -33 -24 0 -43 -2 -43 -5 0 -2 9 -19
19 -36 18 -30 19 -35 5 -67 -8 -19 -12 -37 -10 -39 2 -3 20 0 40 6 34 9 40 7
71 -21 l35 -30 0 43 c0 40 4 46 38 68 l37 25 -38 15 c-31 13 -39 23 -50 61
l-13 45 -24 -32z"/>
<path d="M7370 5895 c-20 -21 -29 -24 -59 -19 l-35 7 21 -33 c19 -30 20 -36 7
-67 l-14 -34 27 7 c16 4 30 8 32 10 2 2 16 -5 31 -16 37 -27 40 -26 40 13 0
26 6 36 25 45 33 15 32 28 -5 41 -18 6 -30 17 -30 28 0 38 -15 44 -40 18z"/>
<path d="M8492 5824 c-30 -36 -32 -37 -83 -30 l-51 7 27 -47 c27 -45 27 -47
11 -87 -9 -22 -14 -43 -11 -45 2 -3 23 0 46 6 40 10 45 9 77 -18 20 -16 39
-27 44 -24 4 3 8 24 8 48 0 39 3 44 40 65 22 12 40 26 40 30 0 4 -19 14 -42
22 -37 14 -44 21 -55 59 -7 24 -14 45 -17 47 -2 2 -17 -13 -34 -33z"/>
<path d="M6907 5784 c-13 -17 -28 -24 -53 -24 l-34 0 16 -25 c15 -24 15 -38
-1 -77 -6 -15 -3 -16 26 -8 27 8 37 6 54 -10 29 -27 35 -25 35 10 0 20 8 35
25 46 32 21 31 27 -5 41 -18 7 -30 18 -30 30 0 35 -14 42 -33 17z"/>
<path d="M3200 5733 c0 -15 -3 -45 -7 -66 -5 -35 -12 -41 -59 -65 -30 -14 -54
-29 -54 -32 0 -4 27 -18 59 -32 58 -25 59 -26 66 -75 10 -78 17 -81 61 -28
l39 46 63 -7 c34 -3 62 -3 62 1 0 4 -12 29 -27 55 l-27 48 26 61 c26 61 26 61
5 56 -106 -24 -105 -24 -129 2 -13 14 -35 34 -50 45 l-28 19 0 -28z"/>
<path d="M4166 5677 c-3 -12 -6 -31 -6 -43 0 -13 -14 -28 -41 -44 l-42 -23 44
-21 c27 -13 45 -29 47 -41 1 -11 5 -31 8 -44 l5 -24 34 33 c31 30 38 32 80 28
l45 -6 -24 42 -24 41 20 38 c11 22 17 41 15 43 -2 3 -23 1 -45 -4 -35 -8 -44
-7 -59 10 -32 35 -50 40 -57 15z"/>
<path d="M5026 5614 c-15 -21 -25 -25 -52 -22 -39 5 -40 1 -18 -30 15 -22 15
-35 -1 -75 -7 -17 -4 -18 29 -11 30 5 41 2 61 -16 l23 -22 7 40 c5 30 13 42
33 52 26 11 26 12 7 26 -10 8 -25 14 -31 14 -7 0 -16 16 -20 35 -7 42 -13 43
-38 9z"/>
<path d="M7020 5509 c-182 -23 -363 -76 -454 -132 l-51 -32 65 -3 c85 -5 372
15 574 39 267 31 524 43 676 32 74 -5 137 -8 138 -7 16 11 -275 79 -428 100
-114 15 -413 17 -520 3z"/>
<path d="M4706 5464 c-15 -21 -25 -25 -52 -22 -39 5 -40 1 -18 -30 15 -22 15
-35 -1 -75 -7 -17 -4 -18 29 -11 30 5 41 2 61 -16 l23 -22 7 40 c5 30 13 42
33 52 26 11 26 12 7 26 -10 8 -25 14 -31 14 -7 0 -16 16 -20 35 -7 42 -13 43
-38 9z"/>
<path d="M6259 5424 l-46 -34 -71 24 -70 24 1 -46 2 -46 -45 -8 c-100 -19 -98
-16 -31 -48 33 -16 61 -32 61 -35 0 -3 -15 -22 -34 -42 l-34 -38 82 3 81 3 29
-45 29 -45 42 24 c23 14 48 25 56 25 8 0 43 -14 77 -30 35 -17 66 -30 68 -30
2 0 -1 12 -6 26 -6 14 -10 36 -10 49 0 23 4 24 66 27 l65 3 -52 35 c-29 20
-54 40 -56 46 -2 7 8 25 22 42 14 16 25 33 25 36 0 3 -20 6 -44 6 -86 0 -104
8 -128 61 -13 26 -25 48 -28 48 -3 0 -26 -16 -51 -35z"/>
<path d="M2311 5434 c-1 -6 22 -126 49 -265 84 -423 144 -628 223 -764 29 -51
85 -115 99 -115 14 0 8 182 -7 250 -40 172 -114 357 -352 880 -7 14 -12 20
-12 14z"/>
<path d="M5460 5363 c-482 -36 -1040 -261 -1485 -596 -97 -74 -249 -203 -290
-248 -17 -18 -2 -9 35 22 197 164 384 285 625 404 105 52 200 97 213 100 23 7
23 6 16 -42 -9 -62 -7 -59 -66 -89 -27 -14 -47 -28 -43 -32 3 -4 30 -18 58
-32 51 -25 52 -26 61 -82 4 -32 12 -58 16 -58 4 0 25 20 48 43 l40 44 58 -8
c32 -4 60 -6 62 -4 3 2 -9 27 -26 56 l-30 52 25 55 c13 30 22 57 19 59 -2 3
-30 -1 -61 -8 l-56 -12 -34 33 c-19 19 -35 37 -35 40 0 7 168 66 286 100 194
55 494 106 799 135 223 21 235 24 170 41 -102 27 -262 38 -405 27z"/>
<path d="M1560 5280 c0 -23 -7 -33 -32 -46 l-32 -16 31 -13 c22 -9 32 -22 37
-46 l6 -32 23 21 c14 14 36 22 56 22 l33 0 -17 26 c-14 21 -15 31 -6 51 16 34
14 36 -18 30 -21 -4 -34 -1 -46 13 -25 28 -35 25 -35 -10z"/>
<path d="M2075 5151 c-5 -33 -13 -45 -38 -57 l-31 -17 37 -19 c26 -13 37 -25
37 -41 0 -41 15 -51 34 -23 13 21 25 26 56 26 44 0 47 5 25 38 -14 19 -14 24
0 51 21 42 20 44 -21 36 -31 -5 -41 -2 -64 20 l-28 27 -7 -41z"/>
<path d="M3276 5165 c-3 -9 -6 -25 -6 -36 0 -10 -4 -19 -8 -19 -5 0 -17 -6
-27 -14 -17 -13 -17 -14 11 -27 20 -10 30 -23 32 -42 4 -32 16 -34 36 -6 11
16 22 20 46 17 25 -4 30 -2 24 11 -14 34 -15 60 -4 81 11 21 10 22 -20 15 -25
-5 -37 -2 -55 15 -20 19 -23 19 -29 5z"/>
<path d="M5835 5145 c-112 -30 -202 -67 -358 -147 -350 -181 -630 -385 -934
-682 l-142 -138 -69 21 c-68 20 -69 21 -64 52 4 24 15 37 55 62 l50 31 -39 17
c-21 10 -45 18 -52 18 -14 1 -26 27 -42 89 l-11 43 -37 -46 -37 -46 -62 3
c-35 2 -63 3 -63 2 0 -2 14 -25 31 -53 28 -45 30 -53 20 -79 l-12 -29 -75 13
c-300 52 -627 40 -844 -32 -115 -37 -119 -47 -20 -40 217 15 572 18 720 7 149
-12 393 -49 473 -72 39 -10 39 -11 21 -32 -10 -12 -23 -26 -29 -32 -12 -12
-155 -195 -164 -210 -7 -14 13 8 61 65 34 39 40 42 62 32 15 -6 27 -23 31 -42
l7 -32 22 21 c13 13 36 21 55 21 l33 0 -17 26 c-14 21 -15 31 -6 51 16 34 14
36 -18 30 -46 -9 -54 12 -21 52 33 39 33 39 215 -21 143 -48 351 -139 467
-204 155 -87 156 -87 130 -67 -112 86 -425 251 -621 326 l-113 44 78 71 c128
115 259 217 424 327 183 122 268 171 570 330 228 120 401 218 447 255 l26 20
-29 0 c-16 -1 -69 -12 -119 -25z"/>
<path d="M6600 5168 c3 -3 109 -67 235 -143 255 -153 363 -224 507 -336 372
-289 669 -641 877 -1039 39 -74 71 -132 71 -127 0 4 -23 58 -51 120 -90 201
-230 436 -361 611 -318 420 -740 756 -1100 875 -86 28 -190 51 -178 39z"/>
<path d="M3890 5051 c-388 -126 -750 -374 -931 -637 -31 -45 -63 -114 -54
-114 24 0 263 177 459 340 208 173 347 275 478 353 131 78 145 86 138 86 -3 0
-43 -13 -90 -28z"/>
<path d="M6172 5046 c-77 -87 -128 -218 -172 -435 -29 -142 -125 -790 -118
-796 5 -6 234 615 284 770 59 182 82 325 66 413 -6 36 -15 69 -20 74 -5 5 -21
-5 -40 -26z"/>
<path d="M6486 5023 c40 -70 164 -242 330 -458 247 -322 378 -524 512 -790 77
-155 168 -378 203 -498 12 -42 24 -75 26 -73 14 13 -112 412 -188 597 -207
505 -567 1034 -833 1223 -35 25 -67 46 -70 46 -4 0 5 -21 20 -47z"/>
<path d="M8479 4989 l-47 -55 -68 7 c-38 3 -70 5 -71 4 -1 0 15 -28 36 -60
l38 -60 -28 -68 -28 -67 27 6 c15 4 46 13 69 19 42 13 42 13 95 -33 l53 -45 7
39 c4 21 7 53 7 71 1 28 8 35 56 63 30 17 57 35 59 39 3 4 -24 18 -59 30 -62
22 -65 25 -75 65 -6 22 -14 54 -18 70 l-7 29 -46 -54z"/>
<path d="M7758 4962 c-23 -27 -33 -32 -73 -32 l-46 0 25 -36 c23 -34 23 -38
10 -70 -19 -46 -19 -47 26 -39 35 6 46 3 75 -20 l35 -26 0 40 c0 40 11 53 66
87 17 10 14 13 -23 24 -39 12 -44 17 -55 58 l-13 46 -27 -32z"/>
<path d="M2975 4821 c-4 -17 -16 -33 -33 -41 l-27 -13 33 -13 c24 -11 32 -20
32 -39 0 -28 12 -32 30 -10 7 8 28 15 47 15 l35 0 -16 25 c-12 19 -14 30 -6
44 16 31 12 38 -18 33 -18 -2 -33 2 -41 12 -19 23 -29 20 -36 -13z"/>
<path d="M2055 4736 l-7 -67 -49 -24 c-26 -14 -50 -29 -53 -33 -3 -5 18 -20
47 -33 29 -13 55 -28 59 -33 3 -5 9 -33 13 -63 3 -29 9 -53 13 -53 4 0 25 21
47 46 l40 46 63 -9 c34 -6 62 -6 62 -2 0 5 -14 31 -30 58 l-31 50 31 61 31 61
-28 -7 c-16 -3 -45 -10 -67 -16 -38 -9 -40 -8 -86 37 l-48 47 -7 -66z"/>
<path d="M1564 4731 c-4 -21 -16 -37 -30 -43 -31 -14 -30 -19 6 -40 21 -12 30
-25 30 -43 0 -30 11 -32 28 -5 8 14 23 20 47 20 38 0 42 5 20 34 -12 16 -12
23 1 49 l16 30 -33 -7 c-25 -5 -37 -2 -56 16 l-23 21 -6 -32z"/>
<path d="M4306 4734 c-15 -21 -25 -25 -52 -22 -39 5 -40 1 -18 -30 15 -22 15
-35 -1 -75 -7 -17 -4 -18 29 -11 30 5 41 2 60 -15 l23 -22 6 39 c5 29 13 42
34 51 27 12 27 13 8 27 -10 8 -25 14 -31 14 -7 0 -16 16 -20 35 -7 42 -13 43
-38 9z"/>
<path d="M886 4649 c-3 -19 -7 -47 -8 -64 -3 -24 -13 -35 -55 -59 -29 -17 -53
-33 -53 -37 0 -4 24 -17 54 -29 58 -23 56 -20 72 -113 l7 -39 47 47 47 46 63
-7 64 -7 -32 56 -32 57 25 56 c14 32 23 59 21 61 -2 3 -21 0 -43 -6 -65 -18
-84 -14 -129 30 l-43 42 -5 -34z"/>
<path d="M4040 4626 c0 -29 -6 -38 -36 -57 l-37 -22 36 -18 c26 -14 36 -26 41
-54 8 -42 18 -44 41 -9 15 24 21 26 62 20 l45 -6 -21 36 c-19 32 -20 37 -6 71
8 19 15 37 15 38 0 2 -17 -1 -37 -6 -33 -7 -41 -5 -64 16 -33 33 -39 31 -39
-9z"/>
<path d="M5472 4517 l-42 -53 -72 4 -72 4 15 -23 c8 -13 25 -41 38 -61 l22
-37 -26 -61 c-14 -34 -24 -64 -22 -66 2 -2 26 3 53 11 70 21 80 19 133 -25 26
-22 50 -40 54 -40 4 0 7 29 7 65 l0 66 60 37 c33 20 60 39 60 42 0 3 -28 16
-63 30 l-62 25 -15 62 c-9 34 -18 64 -21 67 -3 3 -24 -18 -47 -47z"/>
<path d="M4922 4282 c-31 -38 -32 -39 -88 -34 l-57 5 32 -46 31 -46 -20 -47
c-11 -26 -19 -48 -17 -50 1 -2 24 3 50 11 l48 14 38 -34 c21 -19 41 -35 45
-35 3 0 6 24 6 54 0 53 0 53 45 77 25 13 45 26 45 29 0 3 -22 13 -49 23 -45
16 -50 21 -56 55 -10 64 -19 68 -53 24z"/>
<path d="M2835 4259 c-27 -16 -55 -29 -61 -29 -6 0 -28 11 -49 25 -20 15 -38
25 -39 23 -2 -2 -11 -25 -22 -53 -20 -49 -21 -50 -85 -67 -35 -9 -66 -17 -68
-17 -2 -1 8 -10 23 -22 14 -11 26 -26 26 -32 0 -6 -21 -33 -47 -59 l-48 -48
35 7 c19 4 49 7 65 8 32 0 33 -5 21 -68 l-6 -28 57 41 c60 43 83 48 123 25 24
-13 25 -17 25 -117 1 -114 17 -188 71 -331 59 -154 341 -751 329 -697 -3 14
-28 124 -56 245 -137 597 -183 729 -292 842 l-41 43 21 44 c22 44 22 44 96 56
l75 12 -35 31 -35 31 24 18 c12 10 39 27 58 38 l35 19 -74 1 -74 0 5 45 c3 25
3 45 -1 44 -3 -1 -28 -14 -56 -30z"/>
<path d="M7640 4265 c-20 -21 -29 -24 -59 -19 l-35 7 21 -33 c19 -30 20 -36 7
-66 -8 -19 -13 -34 -12 -34 2 0 18 4 35 9 26 8 37 6 57 -10 33 -26 36 -24 36
14 0 26 6 36 25 45 33 15 32 28 -5 41 -18 6 -30 17 -30 28 0 38 -15 44 -40 18z"/>
<path d="M1935 4220 c-121 -10 -288 -45 -410 -85 -104 -34 -319 -125 -312
-131 2 -3 42 5 88 15 140 33 283 51 499 61 435 22 652 40 688 60 19 10 -74 48
-157 65 -86 17 -283 25 -396 15z"/>
<path d="M5336 4065 c-15 -22 -22 -25 -51 -19 -39 7 -42 3 -19 -31 13 -20 14
-31 5 -56 -6 -18 -10 -34 -8 -35 2 -2 17 0 34 5 26 8 35 6 49 -10 24 -27 31
-24 38 14 4 22 15 39 31 47 32 17 31 23 -5 37 -22 8 -32 20 -36 42 -8 38 -17
39 -38 6z"/>
<path d="M3015 4047 c39 -27 214 -96 435 -172 305 -105 477 -174 655 -262 138
-69 345 -188 405 -233 24 -18 24 -19 7 -55 -9 -19 -17 -37 -17 -39 0 -2 25 1
56 7 l56 9 42 -41 c23 -23 45 -38 49 -34 4 3 20 -5 35 -18 55 -50 67 -52 16
-4 -49 47 -51 52 -47 91 4 38 9 43 54 64 27 13 49 26 49 30 0 4 -22 17 -49 30
-48 22 -49 24 -56 76 -9 72 -4 77 61 69 30 -3 54 -3 54 2 0 4 -11 26 -24 47
l-23 39 24 55 c17 39 20 53 10 49 -8 -3 -34 -8 -58 -12 -41 -6 -46 -4 -78 29
-19 20 -39 36 -43 36 -4 0 -8 -22 -8 -48 0 -53 -10 -67 -70 -97 l-35 -18 50
-23 c46 -21 51 -27 61 -71 15 -64 0 -85 -54 -72 -73 17 -75 15 -47 -41 14 -27
23 -50 20 -50 -4 0 -41 26 -83 58 -442 335 -1078 612 -1406 612 -54 0 -58 -2
-41 -13z"/>
<path d="M2390 3955 c-354 -140 -738 -540 -984 -1025 -102 -199 -157 -340
-222 -565 -47 -166 -42 -166 15 0 56 165 85 233 156 375 205 407 464 713 915
1081 175 143 183 149 179 153 -2 2 -29 -7 -59 -19z"/>
<path d="M2514 3838 c-268 -285 -528 -877 -623 -1418 -25 -139 -51 -351 -50
-400 0 -19 9 19 19 85 67 438 205 817 469 1289 159 282 263 496 242 496 -4 0
-30 -24 -57 -52z"/>
<path d="M6605 3826 c-28 -37 -31 -38 -77 -34 -26 3 -48 3 -48 1 0 -2 11 -21
25 -42 26 -38 26 -39 9 -75 -10 -19 -15 -38 -12 -42 3 -3 23 -1 44 5 34 9 40
8 76 -20 l38 -31 0 46 c0 43 3 47 42 72 l42 27 -44 21 c-39 18 -46 27 -55 66
l-11 44 -29 -38z"/>
<path d="M7765 3816 l-40 -48 -63 6 -62 7 34 -54 34 -53 -23 -54 c-13 -30 -22
-56 -21 -57 1 -1 28 5 60 13 l57 15 40 -35 c21 -20 44 -36 49 -36 6 0 10 25
10 55 l0 56 50 31 c27 17 47 34 45 39 -3 4 -27 15 -53 23 -48 16 -49 17 -63
78 l-14 62 -40 -48z"/>
<path d="M1077 3752 c-5 -28 -14 -42 -38 -56 l-32 -19 36 -19 c23 -11 37 -26
37 -37 0 -11 3 -27 6 -36 6 -14 11 -12 35 11 22 21 35 26 63 22 20 -2 36 -2
36 0 0 1 -7 17 -16 34 -15 29 -15 34 0 65 9 18 16 35 16 37 0 2 -16 0 -37 -4
-31 -7 -41 -5 -68 16 l-32 24 -6 -38z"/>
<path d="M1630 3767 c0 -26 -30 -67 -50 -67 -21 0 -9 -16 20 -27 22 -8 30 -18
30 -35 0 -36 10 -40 32 -13 15 20 24 23 54 18 l36 -6 -17 26 c-14 22 -15 32
-6 58 6 18 11 33 11 35 0 1 -12 -1 -27 -6 -23 -6 -33 -2 -55 18 l-28 26 0 -27z"/>
<path d="M5495 3610 c-15 -16 -27 -20 -48 -16 -25 5 -28 3 -21 -12 9 -21 9
-52 0 -73 -6 -13 -2 -16 19 -11 18 3 33 -2 51 -18 l24 -23 0 30 c0 23 6 33 27
42 27 12 27 13 8 27 -10 8 -22 14 -26 14 -4 0 -9 14 -11 31 l-3 31 -20 -22z"/>
<path d="M6020 3553 c-1 -5 -20 -29 -43 -54 l-42 -46 -67 6 c-38 4 -68 4 -68
1 0 -3 16 -29 35 -57 19 -29 35 -56 35 -61 0 -5 -12 -36 -27 -68 -17 -39 -28
-53 -30 -41 -6 22 -16 22 -38 -3 -14 -16 -26 -19 -53 -14 l-34 7 17 -33 c16
-32 16 -35 0 -63 l-18 -30 34 6 c27 4 40 0 60 -20 l27 -24 6 36 c5 25 15 39
32 47 30 14 30 22 -1 36 -14 6 -25 16 -25 21 0 8 65 31 120 43 15 3 90 -50 90
-64 0 -4 -40 -90 -90 -190 -159 -326 -212 -480 -213 -622 l-1 -78 -38 -26 -38
-25 -57 24 c-49 21 -61 31 -82 74 -15 29 -65 90 -121 145 -142 142 -319 254
-531 336 -85 33 -266 84 -297 84 -8 0 34 -24 94 -54 137 -68 233 -128 459
-291 99 -71 227 -157 285 -191 129 -77 140 -87 140 -123 0 -28 -2 -29 -61 -36
l-61 -7 43 -25 c58 -33 56 -29 25 -62 l-27 -29 64 -6 c56 -6 65 -11 80 -36 9
-15 17 -32 17 -37 0 -5 -19 -30 -41 -54 -54 -57 -120 -196 -159 -334 -33 -119
-150 -628 -146 -633 2 -1 25 44 51 100 178 382 241 524 273 617 31 92 36 119
36 203 l1 97 37 17 c36 16 37 16 93 -14 l57 -31 -7 41 -7 41 61 -6 62 -5 -46
35 c-25 20 -45 40 -45 46 0 6 9 21 21 33 23 25 22 26 -54 39 -33 5 -41 12 -57
47 l-18 42 44 50 c96 110 157 271 265 702 l72 284 38 22 c22 12 39 24 39 27 0
3 -28 17 -63 31 l-62 25 -15 68 c-8 37 -18 67 -22 67 -4 0 -8 -3 -8 -7z m69
-275 c-8 -14 -14 -18 -17 -10 -4 13 17 46 25 38 3 -2 -1 -15 -8 -28z"/>
<path d="M6635 3494 c-14 -22 -22 -25 -51 -19 -39 7 -40 4 -17 -31 14 -22 15
-31 5 -57 -14 -38 -12 -40 23 -27 23 9 32 7 50 -10 29 -27 35 -25 35 9 0 23 7
34 30 48 37 22 37 26 0 40 -22 8 -32 20 -36 42 -8 38 -17 39 -39 5z"/>
<path d="M1460 3483 c0 -24 -7 -36 -31 -50 l-30 -20 29 -12 c21 -9 32 -22 36
-43 l6 -31 25 23 c19 17 31 21 55 17 l30 -7 -16 32 c-13 25 -14 36 -5 50 18
29 13 38 -19 31 -24 -4 -37 0 -55 17 l-25 23 0 -30z"/>
<path d="M5196 3221 c-15 -16 -27 -20 -48 -16 -31 7 -32 6 -17 -28 8 -18 8
-30 0 -46 -11 -19 -9 -21 17 -21 16 0 35 -7 42 -15 18 -22 30 -18 30 10 0 16
9 29 26 38 l26 14 -25 16 c-14 9 -27 28 -29 43 l-3 26 -19 -21z"/>
<path d="M3730 3181 c0 -36 -4 -42 -40 -64 l-40 -24 39 -18 c34 -15 41 -23 46
-56 8 -47 17 -49 44 -10 19 26 25 28 66 23 l46 -5 -22 37 c-21 36 -21 39 -5
73 9 20 15 37 12 40 -2 2 -20 0 -39 -5 -32 -9 -38 -7 -63 19 -15 16 -31 29
-36 29 -4 0 -8 -18 -8 -39z"/>
<path d="M2520 3158 c0 -71 -8 -84 -68 -117 l-57 -30 63 -28 c34 -15 62 -33
62 -40 0 -7 5 -36 11 -65 l12 -52 42 48 42 49 68 -8 68 -7 -24 39 c-12 21 -27
45 -33 54 -7 12 -2 34 17 79 l27 62 -25 -6 c-14 -4 -44 -9 -68 -12 -39 -5 -45
-3 -82 35 -21 23 -43 41 -47 41 -4 0 -8 -19 -8 -42z"/>
<path d="M6864 2999 l-41 -40 -51 9 c-29 5 -52 6 -52 1 0 -5 10 -29 22 -54
l22 -45 -22 -46 c-13 -26 -21 -48 -19 -50 2 -2 26 0 53 5 49 10 49 9 90 -30
44 -43 54 -40 54 16 0 41 11 55 64 82 l51 26 -53 25 c-45 23 -53 31 -58 62
-14 84 -14 85 -60 39z"/>
<path d="M5534 2950 c-39 -38 -40 -39 -88 -29 -27 5 -51 7 -53 5 -3 -2 7 -26
20 -53 l25 -48 -24 -45 c-13 -25 -23 -48 -24 -51 0 -3 26 -2 57 4 l57 10 38
-42 c41 -44 43 -43 53 30 5 43 9 47 58 71 l52 25 -51 26 c-52 26 -64 44 -64
99 0 41 -13 41 -56 -2z"/>
<path d="M3920 2951 c0 -24 -7 -36 -30 -50 l-31 -18 30 -13 c20 -8 32 -21 36
-42 l7 -30 23 22 c17 16 32 21 54 18 36 -5 36 -5 15 27 -14 21 -14 26 1 55
l17 32 -31 -7 c-23 -5 -38 -1 -61 15 l-30 21 0 -30z"/>
<path d="M4314 2799 c-15 -17 -26 -20 -56 -15 l-38 6 16 -33 c15 -31 15 -36 0
-66 l-17 -31 38 6 c31 5 42 2 57 -15 26 -29 36 -26 36 9 0 23 7 33 30 45 17 9
30 18 30 20 0 2 -13 11 -30 20 -23 12 -30 22 -30 45 0 35 -10 38 -36 9z"/>
<path d="M2647 2753 c-4 -3 -7 -16 -7 -29 0 -13 -12 -31 -27 -42 l-28 -20 28
-13 c18 -8 30 -23 34 -41 7 -33 14 -35 31 -7 11 16 21 20 48 17 38 -4 40 -1
19 30 -14 19 -14 25 0 53 l17 31 -32 -7 c-25 -5 -37 -2 -54 14 -12 12 -26 18
-29 14z"/>
<path d="M1520 2720 c0 -23 -7 -33 -32 -46 l-33 -17 32 -13 c22 -10 33 -22 38
-45 l7 -31 23 22 c17 16 32 21 54 18 36 -5 36 -5 16 26 -12 18 -13 30 -5 50
14 38 14 38 -18 31 -21 -4 -33 -1 -47 15 -25 28 -35 25 -35 -10z"/>
<path d="M2216 2683 c-6 -43 -10 -50 -48 -72 l-42 -24 44 -21 c40 -19 45 -25
55 -71 l10 -50 30 39 c29 38 30 38 82 32 l53 -6 -26 42 -26 41 21 45 22 44
-52 -7 c-48 -7 -53 -5 -84 25 l-32 31 -7 -48z"/>
<path d="M3420 2663 c0 -82 -10 -101 -69 -134 l-56 -32 62 -28 61 -27 7 -56
c4 -31 11 -59 15 -61 5 -3 25 15 46 40 l37 46 64 -7 c35 -3 63 -2 63 2 0 5
-12 27 -25 49 -31 49 -31 57 0 123 l24 52 -22 -5 c-104 -24 -98 -25 -154 22
l-53 45 0 -29z"/>
<path d="M6616 2571 c-11 -12 -25 -16 -43 -13 -23 4 -25 2 -18 -14 4 -10 8
-26 8 -34 0 -8 -4 -24 -8 -34 -7 -16 -5 -18 18 -14 18 3 32 -1 43 -13 23 -26
32 -24 36 9 2 16 12 31 26 37 28 13 28 19 -3 33 -17 8 -25 20 -25 37 0 30 -11
32 -34 6z"/>
<path d="M6236 2511 c-13 -14 -26 -19 -42 -15 -27 7 -29 2 -13 -28 8 -14 8
-23 0 -31 -19 -19 -12 -34 12 -30 14 3 29 -2 36 -11 18 -22 31 -20 31 4 0 11
12 27 26 36 l26 17 -24 13 c-12 7 -25 24 -28 39 l-5 27 -19 -21z"/>
<path d="M4702 2499 c-11 -17 -20 -20 -44 -15 -26 5 -29 4 -23 -12 10 -22 10
-42 0 -64 -6 -15 -2 -18 23 -18 16 0 35 -7 42 -15 18 -22 30 -18 30 10 0 16 9
29 27 39 l28 14 -28 13 c-20 9 -27 19 -27 41 0 33 -10 36 -28 7z"/>
<path d="M1566 2447 c-7 -50 -9 -54 -51 -77 -25 -14 -45 -27 -45 -30 0 -3 22
-15 49 -27 47 -20 49 -22 56 -72 4 -28 11 -51 15 -51 5 0 22 17 39 38 30 38
30 38 83 32 29 -4 55 -6 56 -5 2 2 -8 23 -22 48 l-26 44 20 48 c11 26 19 50
17 52 -3 2 -26 -1 -52 -7 -48 -11 -49 -10 -85 25 -20 19 -39 35 -42 35 -3 0
-9 -24 -12 -53z"/>
<path d="M7527 2442 c-25 -26 -32 -28 -67 -22 -44 8 -48 2 -23 -36 15 -23 15
-28 0 -60 -23 -47 -22 -47 20 -41 33 6 42 2 69 -24 l32 -31 6 45 c6 38 12 46
44 61 l37 18 -37 19 c-30 15 -38 26 -45 60 l-8 40 -28 -29z"/>
<path d="M4435 2400 c-15 -16 -27 -20 -48 -16 -25 5 -28 3 -21 -12 9 -21 9
-52 0 -73 -6 -13 -1 -15 22 -11 18 2 33 -2 41 -12 19 -23 31 -20 31 9 0 16 9
29 27 39 l28 14 -27 12 c-19 9 -28 21 -30 43 l-3 29 -20 -22z"/>
<path d="M6165 2269 c-76 -10 -192 -42 -240 -66 l-30 -16 25 -10 c15 -5 223
-10 505 -11 449 -2 542 -7 630 -33 13 -3 17 -2 10 5 -13 13 -168 65 -273 92
-183 46 -440 62 -627 39z"/>
<path d="M4872 2259 c-281 -24 -589 -116 -875 -261 -119 -61 -383 -230 -447
-287 -19 -18 8 -3 60 32 335 226 714 368 1125 422 104 13 425 32 610 36 l60 1
-59 19 c-116 38 -304 53 -474 38z"/>
<path d="M5325 2064 c-243 -43 -659 -246 -955 -468 -170 -127 -369 -307 -463
-421 -27 -32 -2 -12 67 53 276 262 568 441 1061 651 315 134 448 203 388 200
-10 0 -54 -7 -98 -15z"/>
<path d="M5940 2036 c0 -2 62 -46 138 -99 435 -305 690 -559 901 -895 56 -90
167 -308 196 -385 10 -26 20 -46 22 -43 8 8 -73 208 -142 351 -242 495 -665
924 -1037 1051 -76 25 -78 26 -78 20z"/>
<path d="M5830 1955 c0 -25 113 -216 282 -475 225 -345 359 -637 444 -965 41
-160 44 -127 4 52 -76 344 -198 662 -361 939 -90 153 -168 263 -242 341 -67
70 -127 122 -127 108z"/>
<path d="M4060 1835 c-7 -8 -25 -15 -41 -15 -32 0 -34 -3 -18 -31 8 -16 7 -26
-6 -46 l-17 -26 28 6 c21 4 35 0 51 -15 l23 -21 6 30 c4 20 15 35 33 43 l26
12 -28 14 c-15 8 -27 23 -27 34 0 26 -15 33 -30 15z"/>
<path d="M6871 1787 c-19 -21 -29 -24 -57 -20 -37 6 -40 0 -19 -37 7 -14 10
-29 5 -35 -4 -5 -10 -19 -14 -30 -5 -19 -3 -21 30 -17 26 3 41 -1 58 -17 l24
-22 6 34 c5 25 14 37 38 49 l33 15 -32 16 c-22 12 -33 27 -39 53 l-9 36 -24
-25z"/>
<path d="M7455 1760 c-22 -23 -46 -38 -55 -36 -8 3 -34 8 -58 11 l-43 7 30
-54 30 -54 -24 -39 c-36 -59 -33 -64 26 -53 l52 9 43 -42 c48 -47 44 -50 58
41 5 31 13 39 58 61 l52 26 -55 29 c-51 28 -54 31 -61 77 -4 27 -8 51 -10 53
-3 2 -22 -14 -43 -36z"/>
<path d="M3944 1619 c-27 -29 -32 -31 -81 -25 l-53 6 22 -45 22 -45 -22 -45
-21 -44 32 5 c18 3 38 8 46 10 8 3 31 -12 52 -32 38 -37 38 -37 43 -13 3 13 7
35 8 49 2 18 14 30 45 45 23 11 42 22 43 26 0 3 -20 15 -45 27 -40 19 -45 26
-45 54 0 55 -12 62 -46 27z"/>
<path d="M4987 1580 l-36 -42 -55 9 c-65 11 -67 7 -32 -52 l24 -39 -25 -49
c-13 -27 -23 -51 -20 -53 2 -2 26 0 53 5 48 10 49 9 90 -30 43 -42 54 -42 54
0 0 54 12 72 64 98 l51 26 -52 25 c-51 25 -62 41 -63 92 -1 51 -15 54 -53 10z"/>
<path d="M4530 1424 c-22 -23 -30 -25 -72 -20 l-48 5 20 -39 c20 -40 20 -40 1
-79 l-20 -38 42 8 c38 7 45 5 74 -23 l32 -31 7 42 c6 36 12 45 48 63 l41 21
-42 19 c-31 14 -43 25 -44 41 0 12 -4 30 -8 40 -6 16 -9 16 -31 -9z"/>
<path d="M6730 1235 c-7 -8 -26 -15 -42 -15 -25 0 -29 -3 -23 -17 10 -23 10
-43 0 -67 -7 -16 -5 -17 22 -12 23 5 34 2 49 -15 l19 -21 5 28 c3 17 14 33 28
39 28 13 28 19 -3 33 -17 8 -25 20 -25 37 0 28 -12 32 -30 10z"/>
<path d="M4846 1221 c-11 -12 -25 -16 -43 -13 -23 4 -25 2 -18 -14 10 -24 10
-44 0 -68 -7 -17 -5 -18 17 -13 18 5 30 1 43 -13 25 -27 35 -25 35 8 0 22 7
32 27 41 l28 13 -28 14 c-15 8 -27 23 -27 34 0 27 -15 32 -34 11z"/>
<path d="M5860 945 c-20 -22 -32 -26 -62 -23 -21 2 -38 2 -38 0 0 -2 7 -17 16
-34 15 -29 15 -34 0 -59 -22 -38 -21 -41 20 -33 30 5 40 2 64 -21 l28 -27 7
40 c5 32 12 43 36 52 36 16 37 24 0 39 -22 10 -31 22 -37 53 l-9 40 -25 -27z"/>
<path d="M6800 856 c-33 -33 -37 -34 -80 -26 -25 4 -47 7 -49 5 -1 -2 7 -22
20 -45 l24 -42 -24 -40 c-12 -22 -21 -42 -18 -44 2 -3 24 0 48 5 43 10 45 9
81 -26 l37 -36 7 50 c6 47 9 51 52 72 l46 23 -46 20 c-43 18 -46 22 -54 69
l-9 50 -35 -35z"/>
<path d="M5340 729 l-33 -41 -63 7 -63 6 27 -50 27 -51 -27 -51 -27 -51 61 7
c60 7 60 7 98 -30 39 -38 39 -38 44 -14 3 13 7 38 8 54 3 25 12 35 56 58 l52
29 -52 26 c-52 26 -53 28 -61 81 -4 30 -9 56 -11 58 -1 2 -17 -15 -36 -38z"/>
<path d="M5870 676 c-7 -9 -28 -16 -47 -16 -33 0 -34 -1 -19 -21 13 -20 13
-25 0 -52 l-16 -30 27 7 c21 5 33 2 50 -14 l23 -22 6 29 c4 16 18 36 33 45
l26 16 -22 7 c-13 4 -28 20 -35 36 -11 26 -14 28 -26 15z"/>
</g>
</svg>
