<svg width="318" height="338" viewBox="0 0 318 338" fill="none" xmlns="http://www.w3.org/2000/svg">
<path d="M159 328C241.29 328 308 256.813 308 169C308 81.1867 241.29 10 159 10C76.7096 10 10 81.1867 10 169C10 256.813 76.7096 328 159 328Z" stroke="white" stroke-width="20"/>
<path d="M55.6894 193.812C50.3013 189.339 47.5161 183.388 47.3752 177.397C47.2362 171.408 49.7435 165.364 54.9157 160.706C60.0841 156.051 66.9673 153.642 73.8955 153.522C80.8274 153.398 87.8157 155.559 93.2077 160.035L139.759 198.758L232.44 96.9817L235.761 99.1719L232.437 96.972C232.701 96.6749 233.002 96.4216 233.336 96.2154C238.85 92.0867 245.771 90.2229 252.536 90.5411V90.5346L252.866 90.5606C259.67 90.9503 266.317 93.5642 271.224 98.2984C276.216 103.112 278.479 109.226 278.102 115.203H278.109L278.079 115.488C277.636 121.265 274.716 126.91 269.423 131.126L158.196 248.168L158.204 248.174C157.995 248.403 157.761 248.6 157.505 248.772C152.297 252.725 145.72 254.664 139.181 254.566C132.587 254.467 126.006 252.3 120.887 248.046L55.6894 193.812Z" fill="white"/>
</svg>
