<svg width="232" height="205" viewBox="0 0 232 205" fill="none" xmlns="http://www.w3.org/2000/svg">
<path d="M229.941 105.645L232 102.5L229.941 99.3554C218.582 82.0062 202.25 67.4548 182.708 57.2755C162.584 46.7931 139.536 41.2493 116.053 41.2409C116.036 41.2409 116.018 41.2405 116 41.2405C115.982 41.2405 115.965 41.2409 115.947 41.2409C98.8854 41.2467 82.0555 44.1778 66.4083 49.7987L13.2361 2.81464L3.18536 11.6957L52.7846 55.5226C51.6115 56.0912 50.4464 56.6744 49.2923 57.2755C29.7504 67.4548 13.4171 82.0058 2.05866 99.3554L0 102.5L2.05866 105.645C13.4175 122.994 29.7504 137.545 49.2923 147.724C69.416 158.207 92.4635 163.751 115.947 163.759C115.964 163.759 115.982 163.76 116 163.76C116.018 163.76 116.035 163.759 116.053 163.759C133.115 163.753 149.944 160.822 165.592 155.201L218.764 202.186L228.815 193.305L179.215 149.477C180.388 148.909 181.554 148.326 182.708 147.724C202.25 137.545 218.583 122.994 229.941 105.645ZM215.493 102.5C204.624 117.817 189.525 130.144 172.003 138.565C180.376 128.44 185.328 115.972 185.328 102.5C185.328 89.0275 180.377 76.5598 172.003 66.435C189.525 74.8559 204.624 87.1825 215.493 102.5ZM116 151.2C115.983 151.2 115.966 151.199 115.949 151.199C85.5825 151.175 60.8857 129.338 60.8857 102.5C60.8857 91.3322 65.1646 81.0328 72.3464 72.8078L95.0012 92.826C93.2856 95.7215 92.3095 99.0109 92.3095 102.5C92.3095 114.042 102.937 123.433 116 123.433C119.948 123.433 123.67 122.57 126.947 121.054L149.602 141.072C140.306 147.41 128.669 151.188 116.05 151.198C116.034 151.199 116.017 151.2 116 151.2ZM116 53.8003C116.017 53.8003 116.034 53.8007 116.051 53.8007C146.417 53.825 171.114 75.6618 171.114 102.5C171.114 113.668 166.835 123.967 159.654 132.192L136.999 112.174C138.714 109.279 139.69 105.989 139.69 102.5C139.69 90.958 129.063 81.5674 116 81.5674C112.052 81.5674 108.33 82.4299 105.053 83.9458L82.3981 63.9276C91.6936 57.5904 103.331 53.8116 115.95 53.8015C115.966 53.8007 115.983 53.8003 116 53.8003ZM16.5067 102.5C27.3757 87.1825 42.4752 74.8559 59.9973 66.435C51.6238 76.5598 46.6722 89.0275 46.6722 102.5C46.6722 115.972 51.6234 128.44 59.9973 138.565C42.4752 130.144 27.3757 117.817 16.5067 102.5Z" fill="white"/>
</svg>
