<svg width="42" height="54" viewBox="0 0 42 54" fill="none" xmlns="http://www.w3.org/2000/svg">
<path fill-rule="evenodd" clip-rule="evenodd" d="M16.1315 29.7101C18.7951 31.4545 20.4482 29.5513 21.5708 29.1782C22.0603 29.5313 21.9702 29.5582 22.2952 30.0772C22.697 30.7188 22.8626 30.4948 23.1845 30.8711C21.9358 33.292 17.3544 33.6126 15.646 31.6809C14.9688 30.915 15.2374 31.086 16.1315 29.7101V29.7101ZM17.333 25.9737C17.2921 25.2846 17.8635 21.4715 18.1215 21.1601C18.9894 22.6804 21.4427 27.1211 21.6534 28.6537C19.9858 29.4691 18.5719 30.2241 16.4945 29.373L17.1929 26.3399C17.9622 26.5637 19.9742 26.9475 20.3316 26.045C19.1915 25.9966 18.4594 26.2202 17.333 25.9737ZM17.8562 16.8228C17.9555 16.921 18.0781 16.9474 18.1146 17.2271C18.2097 17.9544 18.1398 17.3826 17.9889 17.6094C17.7999 17.5007 17.7017 17.6244 17.6617 17.2144C17.594 16.5208 17.7456 16.9422 17.8562 16.8228V16.8228ZM0.152915 44.527H1.05936C0.869139 40.2802 0.599948 36.379 0.968802 32.095C1.01611 31.5465 1.32559 29.5601 1.19193 29.2359C1.10419 29.0225 1.06548 29.0602 1.03947 29.0215L0.926342 28.8693C0.259463 27.5922 1.76825 23.9482 5.65105 24.0379C7.11124 25.5216 6.59917 27.8792 7.11031 29.0272C7.81588 29.0596 7.23299 29.0036 7.8549 28.822C7.74898 31.0399 4.30819 38.0249 2.97429 40.4824C2.33671 41.6572 1.56516 43.0257 1.40346 44.527H2.19538C2.57394 42.4066 3.94905 39.7109 4.8903 37.9707C6.69319 34.6372 8.35114 31.3733 8.24193 27.457C8.19178 25.6626 7.90614 25.1576 7.26934 23.7774C5.78187 20.5526 8.96678 19.9955 8.79928 17.0457C10.7637 18.1511 8.35428 19.3709 8.40332 21.0309C8.68223 20.8636 8.4508 21.0427 8.72548 20.7757C9.31118 20.2066 10.5146 17.9464 11.0489 17.1772C11.8576 16.0134 12.9221 14.7492 14.6559 14.43C13.8859 16.1373 12.1517 16.8548 11.6109 18.9536C12.303 18.597 13.4995 16.9495 14.0704 16.1775C14.7716 15.2292 15.9547 13.1469 16.6857 13.8921C16.8632 14.0731 16.7083 14.5734 16.6097 14.8333C16.4905 15.1479 16.3958 15.3289 16.2242 15.5907C15.1539 17.2239 13.7404 18.2131 13.4002 19.9907C15.1848 19.3241 15.2614 16.1337 17.5133 15.5697C17.5169 19.075 15.3842 19.2747 14.754 21.7684C16.6956 21.3887 16.3281 18.6481 18.1681 18.4148C17.375 20.8428 17.1171 22.5722 16.723 25.1609C15.9422 30.29 15.2814 29.1476 14.3587 31.0773C13.8049 32.2353 13.3743 36.309 13.0721 37.9051C12.647 40.1491 11.9469 42.3297 11.6523 44.527H12.5784C12.7352 42.9831 14.414 32.1653 15.0702 31.5818C15.6412 31.8083 15.4417 31.9928 15.8147 32.3828C17.0998 33.7267 20.8529 34.3894 23.0256 32.3304L23.8261 31.4591C26.1038 32.8352 28.1813 38.5204 29.0522 40.9327C29.4728 42.0974 30.1346 43.3934 30.4866 44.527H31.6948C31.3564 43.5133 30.6523 42.2911 30.2019 41.2119C28.7988 37.85 27.7134 34.5412 25.2203 31.7871L23.4905 29.959C22.1039 28.8324 23.1357 30.0785 22.205 27.6181C21.0975 24.6911 18.8455 22.4014 18.7137 18.9665C19.8595 19.6256 19.38 20.4551 20.6898 20.8984C20.286 19.4948 18.0829 18.0502 18.1581 15.4225C20.0469 15.4586 20.7232 19.26 22.6349 19.5816C22.3035 18.6356 21.2421 17.5152 20.6493 16.8469C20.3226 16.4784 18.9917 14.921 18.9394 14.3719C18.8529 13.4658 19.7307 13.6364 20.6902 14.7321C22.0093 16.2384 22.8349 17.7059 23.8002 18.8218L24.2451 19.2262C23.8719 17.1215 21.5864 16.0053 21.0061 14.1088C21.9601 14.1594 22.4532 14.5884 22.8654 15.0468C24.4478 16.8067 23.742 16.2171 25.6901 17.8159C27.3795 19.2024 29.0096 20.3352 28.8553 22.8247C28.7808 24.0263 28.1596 26.9279 29.5013 27.3073C30.1285 26.0592 28.3748 24.9007 29.9475 24.2807C29.9313 24.2552 29.9001 24.2254 29.8864 24.2119L29.3651 23.7995C29.4103 20.2707 28.7219 20.0077 26.6863 18.0035C25.4695 16.8055 23.2479 15.214 22.2567 13.8014C21.2069 13.8936 21.2186 13.8884 20.2777 13.63C17.3819 12.8349 18.9812 15.5185 17.7 15.0515C16.7297 14.698 17.979 13.364 16.6802 13.3302C16.3201 13.321 15.7988 13.5908 15.5309 13.7281C14.6614 14.1738 14.6229 14.0203 13.6109 13.9955C12.3388 14.7711 10.9892 16.3058 10.227 17.7324C9.58837 17.4447 9.73754 16.9249 9.37276 16.3762C7.12739 16.1006 8.25634 19.4181 7.11031 19.7437C6.86367 19.0339 7.33828 18.544 6.98918 17.8277C5.55859 18.8175 6.24427 23.2426 6.24411 23.2439C-0.34271 24.3736 -0.0929424 26.1633 0.345947 31.2319C0.527558 33.3282 0.366329 35.8289 0.227968 37.9429C0.0830291 40.1572 0.0960339 42.3052 0.152915 44.527V44.527Z" fill="white"/>
<path fill-rule="evenodd" clip-rule="evenodd" d="M39.9689 44.5269H40.8649C40.0178 40.9029 37.9923 36.554 36.5547 33.3134C35.8091 31.6327 34.0742 26.5993 32.6267 25.5846C32.073 25.1965 30.7442 24.2876 29.9476 24.2806C30.563 26.7363 29.0846 28.8539 29.8383 30.0958C29.9165 30.2249 31.9431 32.7822 32.8174 34.1922C34.4887 36.8871 36.5902 40.5282 38.6642 42.4405C37.9564 39.0768 32.0761 32.7603 31.055 30.6848C30.4356 29.4259 30.3171 28.0028 30.5775 26.5874C30.615 26.3842 30.6468 26.1965 30.7013 25.9867L30.9901 25.3598C33.5805 26.7697 34.7583 31.1688 35.9431 34.4901C36.8209 36.9515 39.6833 43.1123 39.9689 44.5269Z" fill="white"/>
<path fill-rule="evenodd" clip-rule="evenodd" d="M4.72237 16.7201C4.52791 16.4073 4.70498 15.5743 4.8551 15.3141C5.17945 15.6947 4.95882 16.3685 4.72237 16.7201ZM5.45947 14.4155C5.08466 14.8073 5.362 14.7987 4.86387 15.0467C4.84663 14.7113 4.75324 13.9872 5.05096 13.848C5.00615 12.6743 5.67477 11.4229 5.66835 9.8945C5.66286 8.55048 7.04882 8.06964 6.92691 6.64136C6.20815 6.91742 5.3255 8.44895 4.95256 9.24618C3.82859 11.6495 3.50626 14.5166 3.88907 17.1515C4.02352 18.0756 4.24164 18.1275 3.67299 18.8108C3.28517 19.2766 3.01377 19.5446 2.87024 20.2726C4.33894 20.1133 4.21563 18.8763 5.10581 18.3327C5.08764 19.3622 4.28503 20.9931 5.40305 21.3951L6.26395 16.8024C5.43691 17.0978 6.02373 17.1496 5.31969 17.5203C5.55882 16.3203 5.83037 15.5458 5.45947 14.4155V14.4155Z" fill="white"/>
<path fill-rule="evenodd" clip-rule="evenodd" d="M14.4729 10.948C14.9934 10.3577 15.8087 10.2087 15.8541 9.3233C14.1064 9.88781 13.6019 10.9896 12.1397 11.6156C12.4148 11.0122 12.5916 11.3989 12.7095 10.6032C12.3932 10.77 12.6957 10.55 12.3882 10.8473C12.3286 10.9049 12.2346 11.0295 12.1545 11.1292C11.1149 12.4213 10.2971 13.4788 10.0363 15.2684C10.7414 15.0191 11.1105 14.3449 11.6021 13.6595C12.548 12.3411 13.8744 11.9759 15.6039 11.2369C16.4276 10.8849 16.9677 10.5099 17.5909 10.1594C18.2256 10.8584 17.9632 11.2219 18.9662 11.9316C19.5053 12.313 20.5269 12.8283 21.3308 12.4602C21.3071 12.4391 21.2728 12.4123 21.2565 12.4002C21.2402 12.3882 21.2017 12.3561 21.1814 12.3417C21.1612 12.3273 21.1271 12.3012 21.1043 12.286L19.0537 11.1146C18.4015 10.6086 17.8439 9.68548 17.7683 9.14085C17.7626 9.0998 17.7421 9.08755 17.7235 9.06409C17.0498 9.47897 15.3321 10.7984 14.4729 10.948V10.948Z" fill="white"/>
<path fill-rule="evenodd" clip-rule="evenodd" d="M11.6582 0.999034C12.036 1.13786 12.089 1.00897 12.3776 1.24284C11.8895 1.41392 10.3098 1.50825 9.55623 1.6871L7.40142 2.63454C7.38528 2.64907 7.35268 2.68033 7.33215 2.70596C8.26463 3.22554 9.21324 2.22051 9.86899 2.58413C8.49011 3.57058 7.58067 3.5752 5.97615 5.56424C5.23406 6.48416 3.85158 8.72133 3.82666 10.2325C4.98556 8.81321 5.69349 7.04205 6.91458 5.69586C7.51345 5.03558 8.15901 4.33498 8.95799 3.79005L10.9158 2.8059C11.3646 2.64403 11.3532 2.69933 11.6355 2.45539L10.4401 2.38266C10.6219 2.02783 11.3541 1.99384 11.7819 1.87921C12.39 1.71633 12.7957 1.39836 13.1413 1.30188C14.2598 0.989383 15.3128 1.98289 16.569 1.52869C16.1938 0.995574 15.1677 0.873745 14.3718 0.797426C13.5624 0.719654 12.1962 0.604589 11.6582 0.999034Z" fill="white"/>
<path fill-rule="evenodd" clip-rule="evenodd" d="M28.7883 9.63878C28.5181 9.36718 28.6908 10.0064 28.6675 9.49664C28.6571 9.27098 28.6588 9.38604 28.7347 9.2537L29.0275 9.56073C29.5639 9.63331 29.1311 9.63663 29.3074 9.34357C29.0861 9.15319 27.1993 5.78152 27.1416 5.41848L28.3676 5.60223C28.1013 5.25892 27.7486 5.2291 27.284 5.01799C26.1618 4.50806 25.4318 3.80803 24.5954 3.09533C23.5856 2.23518 22.545 1.16347 20.7749 0.632081C20.5919 0.246139 20.7406 0.902093 20.962 0.117387C19.5234 -0.0103408 17.8528 0.0184582 17.3877 1.1325C20.4585 1.17801 20.7483 0.66865 22.9125 2.20565C23.7514 2.80142 25.7977 4.48401 26.4039 5.21081C28.1253 7.2746 28.4327 13.1864 29.9005 14.2892C30.0437 11.9047 28.9241 11.2488 28.7883 9.63878V9.63878Z" fill="white"/>
<path fill-rule="evenodd" clip-rule="evenodd" d="M19.1744 9.66113C20.6014 12.4195 24.198 12.5128 24.9687 13.9657C25.2078 14.4166 25.3617 14.7821 25.5555 15.2458L27.0151 17.7574C26.501 15.2583 25.35 12.04 23.4098 11.2467C23.4435 11.9367 23.5489 11.5059 23.7603 12.1512C23.0571 11.9416 22.2166 11.2033 21.5295 10.7843C20.8579 10.3747 20.0345 9.8986 19.1744 9.66113V9.66113Z" fill="white"/>
<path fill-rule="evenodd" clip-rule="evenodd" d="M29.7264 17.3336C29.7634 16.5865 29.7588 15.6442 29.4454 15.1527L29.2345 19.6187L29.7264 17.3336Z" fill="white"/>
<path fill-rule="evenodd" clip-rule="evenodd" d="M4.72236 16.72C4.95885 16.3685 5.17951 15.6947 4.85511 15.3141C4.70496 15.5743 4.52786 16.4073 4.72236 16.72Z" fill="white"/>
<path fill-rule="evenodd" clip-rule="evenodd" d="M5.45934 14.4156C5.227 14.218 5.88469 14.1041 5.23592 14.2798L4.97131 14.844L5.05089 13.848C4.75322 13.9873 4.8466 14.7113 4.86383 15.0467C5.36188 14.7988 5.08458 14.8074 5.45934 14.4156V14.4156Z" fill="white"/>
<path fill-rule="evenodd" clip-rule="evenodd" d="M28.7883 9.63874L28.757 9.40573C28.8259 9.48781 28.9262 9.4822 29.0276 9.56068L28.7347 9.25366C28.6589 9.386 28.6571 9.27094 28.6675 9.4966C28.6908 10.0064 28.5181 9.36714 28.7883 9.63874Z" fill="white"/>
<path d="M11.9988 45.1675C11.9785 45.8572 12.2335 46.3107 12.0774 47.6763C11.4246 53.3865 8.93748 53.3234 6.04676 53.3234C3.15604 53.3234 2.53379 51.1259 1.60912 47.6763C1.47559 47.1782 1.32118 44.405 1.91195 44.2065C2.39005 44.0458 2.34568 46.1165 2.46599 46.6566L2.50579 46.8673C2.54759 47.2462 2.80569 47.7103 3.03408 48.021C3.14294 48.1692 3.27373 48.24 3.38355 48.3623L3.57367 48.6064C3.64292 48.7112 3.75806 48.7927 3.80602 48.8842C3.93259 49.1257 4.37299 49.4924 4.59428 49.6909C4.73462 49.8169 4.86516 49.9591 5.03471 50.0538C5.23195 50.1639 5.1826 50.2947 5.80357 50.4872C6.22352 50.6175 6.48142 50.6418 6.92985 50.6209C7.12918 50.6116 7.30519 50.5328 7.49753 50.4966C7.71456 50.4558 7.89174 50.3478 8.07187 50.2359C8.31833 50.0829 8.30891 49.9961 8.46651 49.8478L8.71005 49.5649C8.81047 49.4531 9.0753 49.0777 9.12691 48.948L9.34399 48.5962C9.48923 48.3986 9.52035 48.1634 9.61876 47.9494C9.69624 47.7809 9.67716 47.6514 9.73252 47.5311L9.8237 47.3156C9.92998 47.1129 9.90128 47.001 9.95636 46.8114L10.0739 46.3808C10.1799 46.1503 10.138 46.0811 10.1626 45.9566C10.1873 45.8314 10.3019 45.6868 10.3274 45.4556C10.3415 45.3281 10.4439 45.0201 10.446 44.8645C10.4467 44.8098 10.7313 44.4077 10.7768 44.2944L10.9083 44.0371C10.9261 43.9846 11.0428 43.8572 11.0942 43.6741L11.208 43.4127C13.0675 41.7257 12.0054 44.9422 11.9988 45.1675V45.1675Z" stroke="white"/>
<path d="M30.8906 48.3009C32.9764 53.7131 35.3786 53.1178 38.1894 52.4973C41.0001 51.8769 40.9726 49.5018 41.0692 46.0539C41.0836 45.541 40.5178 42.8112 39.893 42.745C39.7921 42.7343 38.9036 41.8215 38.7231 41.8761C39.0018 42.2087 39.7306 43.3178 39.8484 43.769C39.9269 44.0696 39.9011 44.0633 39.9269 44.3444C39.9495 44.5904 39.9056 44.419 39.9771 44.7086C40.053 45.0167 39.9702 45.0631 39.9771 45.2463L39.9919 45.4597C40.0221 45.6645 39.9476 45.8553 39.9551 46.0578C39.965 46.3268 39.8674 46.4595 39.7714 46.6949C39.7032 46.8623 39.594 46.9593 39.5183 47.1018L39.3955 47.3799C39.3548 47.4967 39.2635 47.6007 39.2402 47.6999C39.1785 47.962 38.8434 48.4129 38.6787 48.6535C38.5743 48.8061 38.4835 48.9724 38.3427 49.1009C38.1789 49.2503 38.2601 49.3669 37.7053 49.6874C37.33 49.9042 37.0854 49.9832 36.6441 50.0591C36.4479 50.0929 36.2568 50.054 36.0606 50.0601C35.8392 50.067 35.6394 50 35.4359 49.9299C35.1573 49.834 35.1444 49.7476 34.9535 49.6372L34.6448 49.4144C34.5188 49.3272 34.1659 49.019 34.0827 48.904L33.7823 48.6085C33.5908 48.4476 33.5008 48.2255 33.3507 48.0386C33.2326 47.8914 33.2182 47.7614 33.1338 47.6563L32.9904 47.4663C32.8355 47.292 32.835 47.177 32.7333 47.0045L32.5095 46.611C32.3479 46.4097 32.371 46.3334 32.3155 46.2176C32.2597 46.1012 32.1115 45.9852 32.0279 45.7658C31.9819 45.6449 31.804 45.3674 31.7624 45.2165C31.7479 45.1636 30.9706 43.8925 30.8977 43.7921C30.592 43.441 30.2658 46.6791 30.8908 48.3008L30.8906 48.3009Z" stroke="white"/>
<path d="M0.599243 44.2644C0.599243 46.0545 1.27685 46.556 1.67172 47.8275" stroke="white"/>
<path fill-rule="evenodd" clip-rule="evenodd" d="M1.96802 47.1352L2.09074 46.9267C2.26088 47.3459 2.33855 47.8305 2.63667 48.2104L2.24014 48.3798C2.12219 48.0521 2.02197 47.7505 1.96802 47.1352V47.1352Z" fill="white" stroke="white" stroke-width="0.5669"/>
<path fill-rule="evenodd" clip-rule="evenodd" d="M1.17241 47.1316L1 47C1.07076 47.4426 1.25684 47.9016 1.19488 48.3666L1.62045 48.3393C1.58515 48.1644 1.5403 47.9494 1.46757 47.7527C1.39916 47.5678 1.30589 47.4045 1.17241 47.1316V47.1316Z" fill="white" stroke="white" stroke-width="0.5669"/>
</svg>
