<svg viewBox="0 0 21 23" fill="none" xmlns="http://www.w3.org/2000/svg">
<path fill-rule="evenodd" clip-rule="evenodd" d="M10.4197 17.4037C9.34672 17.4037 8.57596 17.1702 7.77009 16.7428C7.58785 16.646 7.27851 16.4436 7.12156 16.3194C7.0531 16.2651 6.99677 16.2245 6.9264 16.1676C6.85515 16.1101 6.79643 16.0587 6.72917 16.0002C6.6931 15.9688 6.68032 15.9483 6.64035 15.915C6.59575 15.8779 6.58905 15.8727 6.55051 15.8309C5.9647 15.1966 5.86808 15.0922 5.47193 14.3897L5.35056 14.159C5.30811 14.0717 5.27748 13.9999 5.23774 13.9012C5.04856 13.4307 5.003 13.316 4.88267 12.8031C4.60341 11.612 4.70538 10.2915 5.12946 9.16261C5.22632 8.90463 5.34002 8.65048 5.46944 8.40887C5.63692 8.09625 5.9714 7.58791 6.19697 7.34893C6.34833 7.18859 6.28425 7.22355 6.45731 7.06873C6.48979 7.03963 6.51221 7.0119 6.54221 6.97941C6.78373 6.71854 7.25186 6.36885 7.54078 6.19146L8.23287 5.83269C9.58777 5.25412 11.0707 5.24817 12.426 5.82759C12.5173 5.86661 12.5861 5.90268 12.6739 5.94086L13.0098 6.12206C13.331 6.33117 13.6605 6.52901 13.9431 6.79937C14.0063 6.85978 14.0606 6.90585 14.1203 6.97032L14.4655 7.33995C14.8015 7.69727 15.0234 8.1027 15.2598 8.52661C15.2855 8.57259 15.2992 8.59676 15.3202 8.64224C15.5488 9.13563 15.6597 9.45004 15.7883 9.99807C16.1175 11.402 15.9121 12.882 15.3371 14.1228C15.316 14.1683 15.3024 14.1925 15.2767 14.2385C15.1553 14.4562 15.0973 14.5842 14.9465 14.8223C14.8528 14.9702 14.746 15.1033 14.6466 15.2406C14.6166 15.282 14.5993 15.2954 14.5673 15.3359L14.2912 15.6532C13.8752 16.0794 13.6628 16.2679 13.1381 16.6002C13.0608 16.6491 13.0011 16.6819 12.9218 16.7292C12.2568 17.1257 11.2279 17.4037 10.4197 17.4037ZM15.9601 4.27979C15.9601 3.89048 16.0174 3.6325 16.2842 3.34686C16.6123 2.99565 17.1293 2.88665 17.5545 3.11376C17.7875 3.23829 17.954 3.41075 18.0709 3.66067C18.221 3.98168 18.2264 4.38524 18.0765 4.70668C17.9052 5.0741 17.533 5.37949 17.1556 5.37949C16.7942 5.37949 16.5511 5.31834 16.2841 5.03245C16.1137 4.84997 15.96 4.56704 15.96 4.27979H15.9601ZM0.231445 6.40702V16.3942C0.231445 16.8402 0.307477 17.2956 0.393091 17.6633C0.440965 17.8689 0.493069 18.0359 0.549161 18.2173C0.575731 18.3034 0.606531 18.3964 0.64124 18.4793C0.831457 18.9335 0.963431 19.2476 1.249 19.6675C1.27764 19.7097 1.29064 19.7287 1.31912 19.7727C1.34984 19.8201 1.36445 19.8324 1.39357 19.8732C1.49124 20.0097 1.58411 20.1418 1.70069 20.2655L1.86967 20.4632C1.90486 20.5049 1.92154 20.5047 1.96199 20.5447C2.16203 20.7421 2.16369 20.7658 2.4112 20.9652C2.80456 21.2822 2.97036 21.3979 3.4645 21.6584C3.73147 21.7991 4.18867 21.9639 4.47169 22.0403C4.80744 22.131 5.24867 22.2169 5.67075 22.2169H15.0001C15.8693 22.2169 16.8859 21.8885 17.6369 21.4161C17.8876 21.2585 18.209 21.0241 18.4306 20.8235L19.4075 19.688C19.6013 19.4114 19.7608 19.0915 19.912 18.7679C19.9507 18.6852 19.9811 18.6041 20.0137 18.5162C20.2549 17.8666 20.4395 17.1443 20.4395 16.4121V6.38903C20.4395 5.74827 20.2921 5.12932 20.1176 4.57035C20.0915 4.48678 20.0595 4.39797 20.0259 4.30796C19.9926 4.21871 19.9542 4.12438 19.9177 4.04523C19.7436 3.66678 19.5229 3.25059 19.2799 2.92525C19.1837 2.79665 19.0795 2.65037 18.9702 2.53567C18.904 2.46628 18.8684 2.40844 18.802 2.33718L18.4481 1.99487C18.3906 1.9376 18.325 1.88882 18.2619 1.83368C18.1954 1.77574 18.1352 1.73484 18.0676 1.68114C17.8026 1.47049 17.5108 1.30753 17.2063 1.14295C16.693 0.865624 15.7723 0.584229 15.0001 0.584229H5.67075C5.26375 0.584229 4.81996 0.664077 4.48261 0.754426C4.18284 0.834764 3.73435 0.997474 3.47583 1.13694C3.01066 1.38797 2.43084 1.74808 2.05439 2.15706C1.98769 2.22951 1.93382 2.26761 1.86895 2.33718C0.906536 3.36987 0.231445 4.92496 0.231445 6.40702Z" fill="white"/>
<path fill-rule="evenodd" clip-rule="evenodd" d="M9.9844 7.92188C8.11779 7.92188 6.60474 9.53169 6.60474 11.5176C6.60474 13.5034 8.11779 15.1132 9.9844 15.1132C11.851 15.1132 13.3642 13.5034 13.3642 11.5176C13.3642 9.53169 11.851 7.92188 9.9844 7.92188Z" fill="white" stroke="#3A3A3A" stroke-width="0.5669"/>
</svg>
