<svg width="91" height="101" viewBox="0 0 91 101" fill="none" xmlns="http://www.w3.org/2000/svg">
<path fill-rule="evenodd" clip-rule="evenodd" d="M15.9991 33.1055C19.3962 32.9927 20.4292 37.2554 17.6746 39.6353C12.7319 43.9055 5.29403 41.9882 4.30086 35.2463C3.94832 32.8534 4.44982 29.7532 7.0346 26.606C7.99355 27.4969 8.92146 27.714 9.89458 27.4203C11.3927 26.9683 11.727 26.1697 12.6479 24.7902C18.6619 23.2427 22.201 29.675 21.3026 32.2962C19.5396 30.4223 18.1006 29.815 15.9214 29.8945C14.5646 29.944 11.5947 31.0566 10.277 33.3037C8.25081 36.7588 12.7232 39.6096 15.2986 36.1146C16.2762 34.7877 15.8668 33.8142 15.9991 33.1055ZM8.79616 7.36832C9.70535 6.74136 11.4492 6.61883 12.5489 6.83435C16.9911 7.70531 18.3004 13.2915 14.8286 17.2162C12.632 19.6992 9.43878 20.3076 7.23445 19.3939C4.27537 18.1678 3.46969 14.6452 4.33869 12.4906C7.67627 15.0713 11.823 10.319 8.79616 7.36832ZM18.4579 17.1534C19.0807 18.6415 19.0507 19.7546 20.229 21.4241C22.5397 24.6987 26.8033 26.1532 30.9501 25.0956C31.4994 24.9556 32.4853 24.5089 33.0183 24.4852C33.0858 25.5441 33.2808 26.6069 33.874 27.556L34.3092 28.4062C34.3491 28.3907 34.3319 28.4915 34.3362 28.5365C31.6962 28.0109 28.0015 31.8992 28.9147 34.7923L28.1888 34.614C25.7476 33.5657 25.4341 34.1905 24.2844 34.1164C24.2411 33.5264 24.4587 32.657 24.4702 31.9031C24.538 27.5524 22.7229 23.9553 18.8615 22.2759C18.1529 21.9678 17.3892 21.7426 16.6752 21.6118C15.893 21.4689 15.169 21.5282 14.4858 21.3335C16.4876 19.6332 16.7845 19.4302 18.4579 17.1534ZM23.1439 8.03037C28.4507 2.1642 36.2761 3.34937 38.3859 8.47437C39.3116 10.7236 39.363 13.9028 37.5366 16.7352C36.0214 19.0844 32.2146 20.1409 30.7795 16.0142C31.2504 15.8249 31.6975 15.9604 32.3779 15.7075C32.8418 15.5351 33.3827 15.2227 33.8317 14.7545C36.9355 11.5171 32.9199 7.5611 29.8559 10.62C27.758 12.7143 27.507 15.3553 27.7276 16.9168C28.0743 19.3709 29.2511 20.3697 31.4993 21.6746C29.7067 22.6004 26.4828 22.4511 24.3481 20.8335C21.9671 19.0291 21.3226 16.1813 21.5892 14.0606C22.6715 13.1523 23.7693 13.2129 24.2861 11.0982C24.5623 9.96783 24.3079 8.96981 23.1439 8.03037ZM36.3033 23.1667C36.8938 21.4895 39.1766 19.8021 40.3849 17.6269C47.9542 4.00196 30.1856 -7.02344 19.3407 8.3147C18.3196 6.7518 18.0074 5.7562 16.1013 4.62912C12.6341 2.57889 7.29649 3.37483 3.71059 7.57569C-1.60445 13.8023 1.36205 21.6667 6.74578 22.743C6.25644 23.433 5.08214 24.4092 4.38472 25.297C-3.47519 35.3032 3.84843 47.6584 14.1035 44.7177C15.6788 44.266 17.2816 43.6141 18.9769 42.3223C20.9508 40.8182 22.2832 38.3508 23.8721 37.4854C23.9044 38.2208 23.7622 39.0898 24.3041 39.8527C25.3855 41.3753 27.5918 41.2706 28.9545 39.8375C29.8689 38.8762 29.8719 38.0545 30.1589 37.2049C30.9492 37.7607 31.3421 37.8335 32.1488 38.127L38.0863 31.2456C37.6693 30.4851 37.6038 30.1588 36.893 29.4101C37.2534 29.2371 36.9921 29.3618 37.2753 29.256C39.1737 28.5476 40.324 27.165 40.1035 25.2494C39.8278 22.8559 37.8174 22.9604 36.3033 23.1667Z" fill="white"/>
<path fill-rule="evenodd" clip-rule="evenodd" d="M37.9851 42.058L69.3228 69.1773L74.1361 63.6284L42.8125 36.4679L37.9851 42.058Z" fill="white"/>
<path fill-rule="evenodd" clip-rule="evenodd" d="M71.9179 88.8872C70.7043 87.835 71.8899 87.2237 74.2021 85.0037C76.7682 82.5398 77.0623 81.7079 78.1152 82.6208C79.4548 83.7823 79.8223 83.8291 78.8976 85.1083C77.8591 86.5448 75.3813 90.2837 74.4492 90.8827C73.1944 90.0738 73.0661 89.8827 71.9179 88.8872ZM73.4738 100.092C74.073 100.618 74.248 100.987 74.9237 100.845C75.5302 100.643 77.9326 97.8904 77.9744 97.2766C78.0772 96.5673 77.3081 96.3222 76.8519 95.6257L77.6092 94.2192C77.501 93.3017 76.6997 93.4618 77.3888 92.3637L81.773 86.3032C82.6749 85.9127 82.2161 86.5435 83.26 85.3486C84.9167 83.4532 84.5595 83.4848 82.8501 82.0064C81.664 80.9809 77.9237 77.5402 77.0436 77.2019C76.4666 77.5244 76.2149 77.8245 75.6258 78.4984C74.4212 79.8754 75.0636 79.3965 74.7757 80.0839C74.5354 80.6579 69.3314 85.5512 69.0255 85.6927C68.2949 86.0312 68.2286 85.4047 67.5925 85.5026C67.1939 85.5636 66.6913 86.1339 66.2654 86.3575C65.7361 86.2076 65.1201 85.6137 64.6098 85.3828C63.6841 85.8528 61.6094 88.2675 61.1982 89.2631C61.6243 89.9182 63.1705 91.2823 63.8953 91.5416C64.9553 90.919 65.7947 89.1281 66.6593 89.2283C67.0908 89.2786 73.7492 94.8461 74.129 95.8488C72.8568 98.4899 70.8811 97.8133 73.4738 100.092Z" fill="white"/>
<path fill-rule="evenodd" clip-rule="evenodd" d="M76.9591 75.8173C78.8326 77.6589 81.1438 79.4783 83.1508 81.2188C84.2297 82.1545 85.0284 83.0969 86.3359 83.1654C87.2276 83.2121 88.492 82.8279 89.4486 81.6873C92.0189 78.6227 89.1113 76.6109 87.8803 75.5436C85.9143 73.8393 83.805 71.8177 81.7544 70.2687L76.9591 75.8173Z" fill="white"/>
<path fill-rule="evenodd" clip-rule="evenodd" d="M33.6239 41.8507C34.2059 41.4947 38.739 36.1002 39.6103 35.0953C40.3713 34.2176 41.9883 32.7128 42.132 31.7365C42.3009 30.5896 41.0502 29.7627 40.019 30.3608C39.2675 30.7964 34.9232 36.0564 33.952 37.1765C33.1332 38.1208 31.5228 39.4865 31.4347 40.6289C31.3383 41.8753 32.655 42.4434 33.6239 41.8507Z" fill="white"/>
<path fill-rule="evenodd" clip-rule="evenodd" d="M71.8369 71.2751C73.4229 71.9223 73.617 72.2552 74.5339 73.6042L79.226 68.1908C77.6704 67.4686 77.4572 67.3015 76.5354 65.8547L71.8369 71.2751Z" fill="white"/>
<path fill-rule="evenodd" clip-rule="evenodd" d="M74.8041 74.4007C74.4154 75.0591 74.877 75.8961 75.6233 75.8202C76.4684 75.7343 81.3264 69.6624 81.3866 69.5532C81.7654 68.8665 81.3346 68.0034 80.567 68.1143C79.8148 68.2229 75.1201 73.866 74.8041 74.4007Z" fill="white"/>
<path fill-rule="evenodd" clip-rule="evenodd" d="M69.6472 69.9295C69.2654 70.6206 69.7876 71.4282 70.5016 71.3242C71.3019 71.2076 76.0853 65.3226 76.2195 65.0986C76.629 64.4147 76.2927 63.575 75.4424 63.6646C74.7147 63.7416 74.0583 64.7888 73.5265 65.4042C72.8274 66.2137 70.0038 69.2837 69.6472 69.9295Z" fill="white"/>
<path fill-rule="evenodd" clip-rule="evenodd" d="M35.8347 40.6117C35.4413 41.3165 35.985 42.1076 36.7019 41.9947C37.5289 41.8646 42.2792 36.0006 42.4023 35.7904C42.7911 35.1268 42.5075 34.2596 41.6407 34.3417C40.9136 34.4104 40.2538 35.4732 39.7194 36.0913C39.0249 36.895 36.1883 39.9786 35.8347 40.6117Z" fill="white"/>
</svg>
