<svg viewBox="0 0 83 86" fill="none" xmlns="http://www.w3.org/2000/svg">
<g id="kidalki">
<path id="Vector" fill-rule="evenodd" clip-rule="evenodd" d="M35.2798 78.0682C36.6344 78.1508 37.6478 78.7862 39.2045 78.8772C40.7646 78.9683 42.5071 78.9382 44.0831 78.9668C46.6199 79.0129 50.3908 79.4412 50.7258 82.6343C49.1662 85.592 44.4235 84.1943 41.749 83.6985L41.013 83.4243C38.8617 83.0204 35.0997 81.4782 34.2894 79.7947C33.595 79.0316 33.583 79.8729 33.9441 77.8893C34.9617 77.5721 34.4921 77.5448 35.2798 78.0682V78.0682ZM34.3915 76.1715C36.1121 76.3368 37.9034 76.8409 39.5987 77.1464C41.5302 77.4944 43.0857 77.3935 44.9444 77.6461C46.3096 77.8317 52.7852 79.2659 51.7981 82.2565L51.187 81.263C50.9737 80.8443 50.9049 80.5905 50.6239 80.1993C49.4925 78.6246 46.1775 78.0632 44.6621 78.0488C35.735 77.9644 41.1635 77.9227 34.6774 77.0638L34.0658 76.8857L34.3915 76.1715V76.1715ZM35.3275 74.8294C36.9499 73.7995 38.9507 74.8729 40.6675 75.2268C42.6691 75.6395 44.6043 75.6357 46.654 75.6875C48.9017 75.7443 50.2043 75.5316 51.9613 76.7958C53.517 77.9152 54.2055 79.474 53.2276 81.5497C52.5101 81.2834 52.9724 81.5506 52.4759 80.7322C52.1198 80.1454 52.4548 80.3962 51.9007 79.6883C51.6355 79.3494 50.63 78.5678 50.1836 78.2673C47.2006 76.2596 43.7778 76.866 40.7054 76.469C39.1742 76.271 37.5604 75.8022 36.0339 75.6889L35.0436 75.3942C34.8749 74.3418 34.933 75.2274 35.3275 74.8294V74.8294ZM41.3591 74.3276C41.8576 73.1349 43.149 71.0409 44.7039 71.6123C45.2673 71.8194 48.4543 73.5736 48.7674 74.6757L41.3591 74.3276V74.3276ZM44.9721 70.2979C46.1598 70.2635 47.6502 71.1461 48.6084 71.7628C50.088 72.7148 50.4202 72.731 50.9222 74.498C49.5186 74.5505 50.4502 74.7483 49.373 73.6192C48.4559 72.6578 46.4847 71.2489 45.2156 71.1073C45.037 70.9797 43.8603 70.2467 44.9721 70.2979V70.2979ZM15.9408 70.1014L16.2321 70.9641L15.3725 70.826C14.9729 70.3041 14.9183 69.3058 15.9408 70.1014V70.1014ZM46.5648 69.5816C46.6323 69.5349 46.4537 69.0644 47.6969 69.2883C47.9286 69.33 48.3974 69.6 48.5461 69.6841C49.7035 70.339 51.8668 72.0353 52.0532 73.746C50.4296 73.4146 52.1361 73.1928 49.504 71.3703C48.4767 70.659 47.5371 70.5155 46.5648 69.5816ZM41.0764 70.0642C41.203 69.3403 41.2858 69.5796 41.8154 68.7583L44.3219 69.4969C43.2459 70.1394 42.6041 70.2527 41.0764 70.0642V70.0642ZM17.8273 71.0308L18.4054 71.6167C17.2833 71.4793 17.9692 71.7319 17.5903 70.9944C16.7837 70.706 16.3239 70.0032 16.0451 68.9536C17.3692 68.9383 16.5468 68.4328 17.3001 69.8445C17.708 70.6091 17.6564 70.3897 17.8273 71.0308V71.0308ZM10.4509 70.2083C9.54829 71.4137 7.9511 73.6101 7.3996 75.486C6.3899 78.9206 7.5714 79.5505 8.1532 82.0106C10.3221 84.2544 0.718793 77.9729 10.3291 70.0684C10.6102 69.6441 10.3963 69.8133 10.8114 69.456C11.1615 69.1549 11.0398 69.3315 11.4143 69.2127C11.067 69.5506 10.8236 69.8176 10.4509 70.2083ZM18.3488 67.8957L20.1205 71.3169C18.7643 71.2418 17.622 69.9228 17.6494 68.0373L18.3488 67.8957V67.8957ZM19.1841 67.1162C21.7855 65.9902 22.893 64.3623 24.6799 63.254C25.2785 64.4227 25.5955 64.9767 26.6828 65.9992C27.4472 66.7181 28.4764 67.2882 29.2433 68.1705C27.9239 69.451 23.0666 70.9707 20.9219 70.9639C19.9981 70.0306 19.4135 69.0936 19.1841 67.1162V67.1162ZM42.9677 67.8708C44.4196 66.9295 46.0463 66.1621 47.8494 65.4433C50.1892 64.5104 51.3196 65.0219 53.6728 65.866C60.9877 68.4897 54.1359 72.3523 52.9416 72.8507C51.2833 71.0148 50.8847 70.386 48.4654 68.7161C49.6521 68.1618 50.5241 68.2345 51.2623 67.4649C50.1944 66.5671 48.373 67.6075 47.1693 68.0936C45.5731 68.7383 44.3483 68.8765 42.9677 67.8708ZM18.2552 73.7339C18.1525 74.0307 18.0452 74.4041 17.9268 74.705C17.8123 74.9962 17.6967 75.3061 17.6716 75.2466C17.6495 75.1949 17.5794 75.4165 17.5338 75.5019C16.3017 79.0226 17.3146 81.8355 14.0081 83.2669C11.4997 84.3528 8.2867 82.1475 8.0105 79.1019C7.5884 74.4489 13.2472 66.5871 17.8143 66.7134C16.6004 68.079 14.999 68.0272 14.1849 69.9344C14.8368 71.9286 16.5229 71.9986 18.54 72.5983L18.2552 73.7339V73.7339ZM52.4827 63.9567C53.6172 63.9415 54.3631 63.7784 55.2749 64.2899C55.0371 64.6809 55.2376 65.3468 54.1014 64.9759C53.3635 64.735 53.2016 64.6633 52.2707 64.5394L51.6971 64.1435L52.4827 63.9567V63.9567ZM72.0156 56.5288C71.2153 57.3496 71.0612 57.1813 70.5558 56.176C70.6762 56.1143 70.2944 55.6936 71.4732 55.9271C72.2848 56.0879 71.7357 55.9388 72.0156 56.5288V56.5288ZM79.1014 57.717C77.6793 57.7639 76.4979 57.0543 75.5967 56.3013L79.0928 56.4403L79.1014 57.717ZM73.4349 56.141C74.3339 56.2728 75.264 57.0691 75.9442 57.7297L76.3847 58.5706C75.4065 58.8094 75.7929 59.0879 75.0448 58.2126C73.5856 57.7871 73.6697 57.5983 72.748 56.6107C72.1441 55.9681 72.2422 57.433 72.248 55.7705L73.4349 56.141V56.141ZM27.3002 54.3939C27.9715 53.2599 29.415 51.9913 30.7695 51.8042C31.0977 51.3513 30.2186 51.5427 31.5311 51.2664L31.8403 53.1582C32.7776 54.8311 33.5246 55.3829 35.3845 56.3067C36.6253 56.9231 38.4942 57.7607 39.8558 58.2529C44.3801 59.8886 46.1057 59.4216 50.7065 59.0479L51.2037 58.8018L50.8684 59.3778L50.6057 61.0976C50.1106 61.1515 49.4843 61.1395 49.0356 61.2257L48.1792 62.0516C48.2497 62.0738 48.3316 62.1132 48.4129 62.1314L49.4933 62.1421C51.2794 62.0073 53.1882 61.837 54.5288 63.026C50.6758 63.1323 46.0365 64.7522 42.7385 66.8655C41.4014 67.7222 40.9122 68.7277 39.7907 69.15C39.0191 68.4768 38.2916 68.019 38.1294 66.5121C37.9431 66.1928 38.0251 66.5095 37.7585 65.7033C37.4886 64.8874 37.7422 65.7777 37.6911 64.9744L38.4088 65.4021L41.2201 65.774C41.2388 65.7155 41.2262 65.613 41.2262 65.5856C41.2347 63.6933 40.7522 65.7411 41.2166 64.543L46.2703 63.9371C45.8586 62.8641 46.5936 63.6388 45.2729 63.1463L38.6493 60.7545C37.4787 60.2837 36.8937 59.7217 36.1113 60.4308C37.1458 61.2221 39.0597 61.8091 40.324 62.4051C39.015 62.5463 37.2766 62.3246 35.918 62.2219C35.2908 62.1745 34.4909 61.9994 33.7764 61.985C32.922 61.9678 32.531 62.0289 32.0753 62.526C33.0671 63.208 37.5471 63.1662 39.0744 63.2785L32.9294 64.6277C32.5622 65.1393 32.8354 64.8015 32.5828 65.5107L35.3139 65.425L32.6434 68.2401C28.8129 68.298 24.4555 63.7617 24.6162 59.3367C28.3528 57.794 26.3031 58.6636 28.7169 59.9159C29.1655 59.8958 29.1068 60.0547 29.011 59.5572C27.9068 58.3459 27.4875 58.2662 27.0533 56.4955C26.9831 56.3891 26.495 56.6535 26.759 55.2699C26.9633 54.2001 27.1618 54.5668 27.3002 54.3939ZM56.2724 49.5558L57.3729 49.7217C57.3814 50.3293 57.6058 49.9069 57.0547 50.1885C56.0906 50.8353 56.3215 50.664 55.0904 50.5509C55.2664 49.3351 55.3026 48.7646 56.2724 49.5558ZM82.0744 54.1053C79.2944 57.1975 71.6858 54.2665 68.1505 54.7792C67.6809 56.319 67.5164 57.999 66.2384 58.4843C65.0243 58.9454 63.5046 58.6396 62.7862 57.5871C63.4805 55.1038 66.6454 55.0197 63.7035 52.0558C62.3037 50.6456 62.9465 51.7949 63.1121 49.5681C61.1945 49.3478 63.3022 49.9445 61.5547 49.9609L55.9901 48.4532C56.4106 47.4373 58.2262 44.9743 59.2331 44.9197C60.0868 44.8734 62.3898 46.651 63.38 47.1813C66.3024 48.7463 69.7073 49.1992 72.3823 50.8923C72.5539 51.7942 71.8807 50.8857 71.8862 52.171C73.4744 52.3563 75.9119 51.9679 77.826 52.0688C79.7043 52.1678 81.7044 52.2204 82.0744 54.1053V54.1053ZM29.2593 45.0961L30.2461 45.2399C29.8882 45.6607 30.958 45.4353 29.7839 45.5748C28.8196 45.6894 29.5121 45.4914 29.2593 45.0961V45.0961ZM40.9223 39.2054L43.2214 38.9721C44.4207 41.1382 43.9784 41.7043 45.8062 43.1097C47.2767 44.2403 49.3185 44.4528 50.5615 43.1233C49.7819 42.3346 48.761 43.046 47.4585 43.0631C47.8349 41.4298 49.72 39.512 50.9463 39.2712L51.347 41.8848C53.619 42.1231 57.149 41.975 58.9152 43.476C58.0511 44.5781 57.1232 45.3245 56.1581 46.3835C54.8292 47.8418 55.1187 48.6278 54.0681 50.2684L52.2735 49.6401C52.352 46.1602 53.195 47.2038 53.6168 44.4068C52.7743 44.8787 53.1269 44.4022 52.807 45.3002L52.3661 46.1382L51.4134 46.0152C51.7088 47.6905 51.312 49.8621 51.4404 51.9511C51.5702 54.0625 52.163 55.7553 52.1803 57.3706C48.3879 59.1902 43.2317 58.7089 39.323 57.106C37.3904 56.3135 35.4729 55.6269 33.9657 54.5416C31.3019 52.6236 32.0811 50.345 33.5011 49.5378C33.7732 49.178 33.8501 48.7349 34.2036 49.7414C34.9429 49.8266 34.5343 49.9157 35.081 49.378L35.4178 46.8781C37.1433 45.7696 37.8281 46.5157 39.6239 44.6847C40.9507 43.3317 41.3764 42.299 40.6777 40.0053C40.215 39.5672 40.3162 40.5358 40.2751 39.4635L40.9223 39.2054V39.2054ZM35.077 41.3394C36.288 41.6129 35.5808 41.6406 35.7844 40.8695L34.9305 40.0271C34.2804 39.5336 34.6337 40.5197 34.3795 39.5281L34.8533 39.1602C36.8022 39.1098 39.8083 38.8755 40.1741 41.1309C40.4758 42.9905 38.3027 44.6784 37.0054 45.195C36.7005 45.4758 37.0029 45.4084 36.5453 45.2469C36.2299 45.1356 36.4658 45.4847 36.2883 44.8435C35.8807 44.6773 32.6954 45.612 31.4436 45.6386C32.686 42.3162 32.2356 41.1238 30.4397 38.993C32.4464 38.8507 34.2009 40.0429 35.077 41.3394V41.3394ZM17.6802 38.3596C16.9622 39.3123 14.723 38.9845 13.5249 38.8454C13.5129 37.5792 13.3528 37.9882 13.9512 37.2456C13.9277 36.427 13.9532 35.9779 14.1084 35.7219C13.9499 35.3604 13.8525 34.9683 13.8317 34.5607C13.5817 34.455 13.6385 34.1332 12.6825 33.5355C11.9142 33.0551 11.4274 33.1613 10.7942 32.7115C10.561 32.8293 10.3142 32.9242 10.0576 32.9931C9.94879 33.0223 9.8446 33.0561 9.7421 33.0928C9.4605 33.9532 9.2474 33.8298 9.0274 34.9987C8.8783 35.2275 8.3723 36.3159 8.3723 35.2647C6.0684 33.9605 5.3308 34.2559 4.5962 33.7578C4.1198 33.7739 3.64771 33.6767 3.21611 33.4799C3.19231 33.4722 3.1685 33.4641 3.1447 33.4558L3.15159 33.47C2.47749 33.3236 2.2818 33.2605 2.1795 32.9185C1.6019 32.4448 1.2308 31.7853 0.961203 31.0154C0.781503 30.502 0.409594 29.1294 0.384894 28.6207C0.326494 27.4188 0.38439 25.821 0.61009 24.6547L1.0303 22.9187L1.55419 21.4664C1.77539 20.8797 2.00849 20.2792 2.41589 19.7638C2.52619 19.6243 2.64189 19.4985 2.76169 19.3845C2.76339 18.9062 3.18619 18.0494 3.56439 17.8729C3.61279 17.8036 3.67381 17.7141 3.75281 17.5943C4.18451 16.9397 4.72879 15.9064 5.31009 15.69C6.53559 14.6725 7.7635 12.8547 9.73121 12.1036C15.9691 9.72256 13.6632 10.0414 20.3391 10.955C24.2591 10.8456 30.156 16.8265 30.644 23.3613C30.8735 24.5226 30.7451 23.668 30.6134 24.6436C30.5658 24.646 30.5213 24.6487 30.4791 24.6516C30.5779 25.0686 30.6062 25.5089 30.5556 25.9495C30.9799 28.0303 29.6401 31.6645 28.087 32.5956L28.0792 32.6358C27.7528 33.5674 27.1486 34.1862 26.4415 34.5168C25.1567 35.5242 23.656 36.668 22.0489 37.0225L21.9844 36.9065C21.8388 37.098 21.6721 37.2732 21.4848 37.4275L21.4032 37.7181L20.7049 38.0051L19.9856 38.0894C19.8934 38.1037 19.8036 38.1141 19.716 38.121L17.6802 38.3596V38.3596ZM8.9915 38.3765L9.3157 36.398C9.7744 34.7847 10.6573 32.6891 12.4513 34.1604C13.6065 35.1079 12.4193 37.6908 12.4808 39.4593C18.9843 39.9305 19.8338 38.3191 22.9232 37.8849C23.3365 39.1346 22.8937 39.3812 23.7966 39.8162L23.7286 38.418C24.7671 38.5176 24.7718 38.3869 25.5091 38.95C28.3557 39.0399 32.5997 39.5387 30.9843 43.8308C30.3972 44.6588 27.9109 43.6626 27.4374 43.5218C26.2354 43.1644 25.1186 42.9232 23.9712 42.5528C14.9989 39.6565 19.2418 41.4753 12.6352 40.573C11.1648 40.3722 10.2973 39.7548 9.1716 39.5567C7.6836 39.2947 6.8406 39.5986 5.8979 38.3754C2.5139 33.9838 7.2648 33.2075 8.9915 38.3765V38.3765ZM26.7084 35.5614C27.4479 34.8728 27.6463 34.3866 28.6409 34.1271C29.1951 34.9083 28.8306 34.1862 29.0688 35.0094C28.2342 35.8514 27.8409 35.7166 26.7084 35.5614ZM3.75189 35.6297C4.21559 36.2846 3.9567 34.7876 4.173 36.4798L3.37419 36.0999C2.01139 35.791 1.5139 35.8121 1.4738 33.9419C2.6907 33.7884 2.6549 33.9146 3.6988 34.521L3.75189 35.6297V35.6297ZM43.403 37.1099L43.7062 37.8883L43.1639 38.1595C41.2629 38.0125 40.3669 38.9268 38.6749 38.5111C36.1064 37.88 35.9738 38.4937 33.7848 38.626C31.9527 38.7367 31.7766 37.8769 28.815 38.3436C27.4475 38.5591 25.8044 37.9741 24.3967 37.8646L23.5018 37.7831C23.3731 36.6321 23.3677 37.4985 23.8522 37.1233C26.638 35.9014 26.019 36.9712 28.3628 36.5034C30.6472 36.0475 29.4669 34.1423 29.2124 32.8927C29.8181 32.0728 30.1545 31.2609 30.928 30.6072C32.1334 31.1185 33.3158 31.2679 33.9716 32.678C36.8174 38.7973 41.882 32.5935 43.403 37.1099V37.1099ZM65.4489 23.455C65.3476 24.3921 65.4385 23.8302 65.2572 24.5146C65.2363 24.5934 65.1479 24.8439 65.1304 24.7949C65.1132 24.7465 65.0315 24.9669 64.9843 25.0547L64.1046 27.1111C64.2485 28.0257 63.5958 27.7444 65.2063 27.8092C65.7512 27.8312 65.4133 27.6588 66.1093 27.7858C67.4099 28.0232 66.4966 27.8315 66.888 28.242C70.2712 32.809 63.6799 32.054 63.294 32.1572L62.8837 32.3899C62.849 32.314 62.7504 32.4754 62.6899 32.5788L64.2843 33.2455C63.9299 35.0056 62.5393 37.2794 61.4597 38.1107C57.9534 40.8108 53.037 36.3207 49.8888 38.6478C48.2845 39.8338 47.8336 41.7279 46.0802 42.4139C45.1208 41.4889 44.1919 40.3686 44.3639 38.4235C44.6902 34.7351 42.9263 35.752 42.7968 34.3519C42.6574 33.7662 43.0836 33.6687 42.439 34.1552C40.6981 34.2895 39.779 35.4202 37.4679 34.684C35.9517 34.201 34.8487 33.0463 34.7109 30.9795L37.2606 30.401C37.8033 30.6445 37.5444 30.3858 37.8414 30.8322L37.2478 31.2344C37.1562 32.9967 37.4274 33.3975 38.7505 33.6452C38.6353 32.2208 38.478 32.6576 38.1241 31.4989C40.2006 31.0521 39.1564 31.9822 41.0228 32.2963C40.5151 29.5368 37.5017 29.5907 35.5879 29.7079L35.1613 30.0415C34.6867 30.3136 35.2252 30.0928 34.497 30.2042C34.8488 28.6038 34.5065 29.4379 35.215 28.7109C35.4573 26.1754 39.3223 26.4243 40.7345 27.5012C43.4415 29.5657 42.5211 30.2881 46.8519 29.3961C46.5231 28.9082 47.3456 28.9618 46.0921 29.0735H44.3531L43.7344 28.5811L44.3737 28.2571C47.287 27.5361 50.0255 24.2183 50.127 20.0978C51.7156 20.0761 52.6122 20.6536 54.3803 20.6075C58.8296 20.4915 62.4241 18.1015 65.2349 17.6631C66.3148 19.4746 66.0691 21.5277 65.4489 23.455V23.455ZM67.3524 19.9333L68.2649 20.133C68.7301 19.2191 68.9368 19.5407 69.3118 18.1031C69.5816 17.069 69.5182 16.2207 69.7517 15.2633L70.9528 15.1872C72.7524 19.0511 69.6921 21.6756 67.9889 21.7788C67.4475 22.5186 68.0885 22.1868 66.9113 22.4371L66.929 19.3399L66.4213 16.961L68.688 15.9818C68.6762 17.9477 68.3631 18.8078 67.3524 19.9333ZM42.0691 1.14437C40.767 1.31167 38.7068 2.36717 37.8754 3.25937C38.7137 3.97877 40.6244 2.53017 41.7062 2.11367C48.9324 -0.668832 58.3827 1.65667 65.3453 4.56356C67.3654 5.40706 70.7861 8.02936 71.5039 9.96216C70.9005 10.2408 70.7509 10.1176 70.1415 10.3043C69.2595 10.5745 69.5729 10.3179 68.9065 11.0205C69.8304 11.6242 71.3185 10.8294 72.8532 11.2157C74.2434 11.5655 74.9402 12.3182 74.9321 14.3077C71.1755 14.0664 71.5343 13.5873 67.8644 15.3318C64.5101 16.9263 57.9731 19.6016 54.374 19.7302C51.9799 19.8158 49.5008 18.7545 47.2121 18.4697C46.3611 18.3602 46.8945 18.2908 46.7182 18.8624L49.2443 19.8399C49.4666 23.8702 45.0383 29.3897 42.2199 27.4266C40.5798 26.2844 39.2723 25.1794 36.7061 26.2174C34.5057 27.1075 34.3466 28.2105 33.5011 30.674C32.3846 30.5129 32.2595 30.1767 31.2975 29.5641C31.6135 26.1993 31.8771 25.6088 31.195 22.1681C30.8325 20.3898 30.7393 18.0726 28.1761 15.3048C28.5355 12.3861 29.6541 9.99216 31.5247 8.23707C32.391 7.42417 32.7622 7.64876 33.314 6.26296C31.2217 6.64256 28.7102 10.5542 29.0475 7.60177C29.133 6.85297 30.2572 5.97116 30.8017 5.57966C31.746 4.90066 32.7732 4.31017 34.1431 4.17447C36.7731 3.91377 35.543 3.73116 37.3418 2.35966C38.3721 1.57396 39.3907 1.02307 40.6752 0.884366C40.8937 0.716266 41.2092 0.393766 41.7884 0.352266C43.4306 0.234666 42.7788 0.670064 43.0311 1.00756L42.0691 1.14437V1.14437ZM26.2269 56.917C26.6913 57.6346 26.5423 55.9155 26.5984 57.817L25.7939 57.9781L23.6721 58.9501L24.1631 62.6194C23.041 63.2536 21.0429 65.6464 19.4963 65.704C16.1215 65.8299 16.5076 65.153 13.3242 66.9032C9.68839 68.902 7.28949 70.7192 5.74089 74.7001C5.35819 77.2687 5.2659 77.4702 5.3847 80.1515C6.4846 81.845 6.7869 82.3548 8.8464 83.4204C10.5515 84.3027 12.6451 84.6483 14.5292 83.9378C18.88 82.2973 17.3942 78.7799 19.2446 74.2254C20.2838 71.6678 20.8156 72.2083 23.3592 71.5742C25.1655 71.1239 26.6608 70.6003 28.2766 69.8465C32.8055 67.7338 31.3583 70.0954 33.6097 68.715C34.7852 67.9942 35.5578 66.1903 36.9144 65.4518C38.5428 70.651 39.8426 69.8444 42.0348 71.3475C41.5852 71.9185 40.7943 72.5239 40.5443 73.446L40.0704 74.1743L39.3334 73.8503C31.6551 71.7908 32.9479 79.2341 33.2203 79.8006C34.2997 82.045 38.755 83.7347 41.4895 84.4348C46.8798 85.8149 48.1771 85.5977 51.9263 83.5061C53.6182 82.5622 54.7055 82.1773 54.3479 79.1564C54.0664 76.7789 52.7591 76.5112 51.5295 75.2474C52.99 74.2308 58.131 70.9098 57.9689 68.6035C57.8797 67.3354 56.9022 66.5013 56.0951 66.1191C55.8194 65.9411 54.8761 65.4359 55.8849 65.3636C56.5695 64.762 56.174 65.4243 56.5373 64.2899C55.923 62.9294 54.6842 61.6515 53.0607 61.6781L51.2884 61.1149C51.2959 59.7993 51.2913 60.4826 51.6339 60.1207C51.8375 59.5126 51.9843 59.0379 52.2672 58.5331C54.104 55.2554 52.2842 57.2193 52.293 50.5862C56.1778 51.7336 55.8584 50.941 59.0424 50.4315C59.8958 50.2949 61.3706 50.6903 62.0548 51.2756L63.983 53.7066C63.4367 55.6414 62.0088 55.268 61.8415 57.943C63.6297 60.1505 68.2723 60.535 68.5151 56.2693L69.2375 55.4061C70.221 55.766 69.509 55.3862 69.7932 56.0693C70.2631 58.4186 71.5028 57.4519 73.0857 58.1061C74.1076 58.5285 75.6348 60.1777 76.7936 58.9825L77.2698 58.1581L78.0323 58.823C80.0175 58.6252 80.2351 58.5721 79.7845 56.1561C81.3423 55.8948 82.0026 55.7185 82.6974 54.4121C82.8841 50.1598 77.2325 51.4188 74.7079 51.0757C73.6624 50.9336 72.4301 49.8186 71.1512 49.2045C69.8385 48.5741 68.5977 48.2543 67.1633 47.7785C65.7744 47.3179 64.6437 46.8669 63.3764 46.1159C60.0029 44.1165 61.9569 44.8745 60.5272 43.281C58.993 41.571 54.5689 41.3853 52.1873 40.7941L51.6267 39.261C51.3425 38.8617 51.0516 39.7634 51.4299 38.7883C52.3108 38.3806 52.1488 38.3248 52.8416 39.0141C57.1955 39.307 59.957 41.2631 63.1511 37.3757C65.2299 34.8458 64.7428 33.5997 65.7625 32.833C67.1576 31.7839 69.1161 32.3919 68.6766 28.6594C67.6184 27.2112 67.2405 27.1876 65.2375 27.1952C65.3704 26.7076 66.2704 24.1575 66.4683 23.8278C67.2148 22.584 67.3412 23.3831 69.198 22.2713C71.3539 20.9803 72.3004 19.9167 72.5664 16.4202C71.8389 15.6895 72.031 15.7184 72.1018 14.5137L73.4731 14.8262C74.4974 15.3364 75.6801 16.3465 75.591 13.5121C75.5405 11.9002 74.5974 11.1044 73.5725 10.6117C71.4577 9.59507 72.657 10.043 71.2436 8.17526C68.1265 4.05606 60.7993 1.40317 55.6084 0.653765C53.1111 0.293165 41.089 -0.375933 39.3988 0.270367C38.2648 0.703967 37.1143 1.33076 36.291 2.11336C34.4473 3.86586 35.7355 2.89737 33.1057 3.49387C30.6382 4.05347 28.7308 5.68457 27.9444 7.92057L28.9926 9.55606L27.3372 14.3602C26.8539 12.9979 24.1227 10.2439 17.4622 9.90387C4.3588 8.82997 -3.35951 23.0815 1.43019 32.5399L0.958898 33.3465C0.929298 33.4122 0.878695 33.499 0.853195 33.5686C-0.302005 36.7353 3.34729 35.7633 5.19439 38.5295C6.09419 39.877 7.06379 40.2287 8.89189 40.4434C10.4314 40.6242 11.2971 41.3208 13.1963 41.5203C24.1504 42.671 17.8793 41.9016 26.3859 44.1516C29.6071 45.0035 27.6784 45.2406 29.4151 46.4258C30.796 47.1346 32.9516 46.2652 34.6165 46.3197C34.1321 49.5183 34.1067 47.4895 32.3928 49.1664C31.6251 49.9174 32.2364 49.6816 31.1089 50.394C28.6563 51.9437 25.5332 52.6953 26.2269 56.917V56.917Z" fill="#FEFEFE"/>
<path id="Vector_2" fill-rule="evenodd" clip-rule="evenodd" d="M49.6101 34.7284L50.0166 35.2806C48.9939 35.3404 48.3476 35.418 48.2834 34.2465L48.9392 33.7291L49.6101 34.7284V34.7284ZM51.5809 32.3183C52.144 31.6653 51.294 32.0528 52.6248 31.6766C52.5897 32.0874 52.6114 32.4327 52.506 32.8691C52.2262 34.0263 52.642 32.9078 52.0753 33.6225C51.5577 33.3357 50.6178 32.7948 51.5809 32.3183ZM51.7146 31.1819C49.9177 32.4279 47.9728 32.7201 47.2906 35.0094C49.0716 37.4369 51.4575 34.7503 52.8577 35.07C53.6094 35.2417 55.4999 37.3868 59.2693 36.1146C58.7373 35.5875 59.6262 35.8965 58.3708 35.662C56.2778 35.271 53.052 36.6678 53.1883 31.4816C54.3142 30.4691 54.9368 30.7658 55.5287 29.2624C54.6801 29.5806 53.4742 31.4347 51.3915 29.8543C50.4118 29.1108 51.4036 29.1916 50.1584 29.1055C50.1673 30.5964 50.6767 30.5359 51.7146 31.1819V31.1819Z" fill="#FEFEFE"/>
<path id="Vector_3" fill-rule="evenodd" clip-rule="evenodd" d="M43.4794 16.3121C43.7495 16.7215 43.1854 16.4936 44.1347 16.9649C44.2951 17.0445 45.0846 17.2252 45.3152 17.2767C46.1623 17.4663 46.9162 17.5927 47.7836 17.6885C51.8597 18.1383 54.2007 17.7518 58.1701 17.1185C59.8921 16.8438 61.6868 16.6766 62.3645 15.2007C61.041 15.3393 58.2525 16.5106 53.2394 16.9106C51.5062 17.0489 43.6666 16.2351 43.4794 16.3121Z" fill="#FEFEFE"/>
<path id="Vector_4" fill-rule="evenodd" clip-rule="evenodd" d="M60.7571 28.2117C62.1967 28.6633 62.5396 27.8749 62.434 26.1542C61.0481 26.2834 60.6534 26.4677 60.7571 28.2117Z" fill="#FEFEFE"/>
<path id="Vector_5" fill-rule="evenodd" clip-rule="evenodd" d="M14.7084 75.226C13.8567 74.0587 12.7458 73.7654 11.5036 73.7618C11.9924 75.1295 13.997 75.4775 14.1123 75.476C14.6394 75.4691 14.4555 75.3864 14.7084 75.226Z" fill="#FEFEFE"/>
<path id="Vector_6" fill-rule="evenodd" clip-rule="evenodd" d="M39.2778 79.9313C38.5621 79.6706 38.401 79.3571 38.4118 80.2232C38.7846 81.4027 38.9646 82.5764 40.3509 82.5645L39.2778 79.9313Z" fill="#FEFEFE"/>
<path id="Vector_7" fill-rule="evenodd" clip-rule="evenodd" d="M15.4912 73.2492L16.2988 72.8707C15.506 71.4946 14.9674 71.7044 13.49 71.3005L13.534 72.2086C14.5901 72.4983 14.9148 72.524 15.4912 73.2492V73.2492Z" fill="#FEFEFE"/>
<path id="Vector_8" fill-rule="evenodd" clip-rule="evenodd" d="M40.72 80.8559L41.5718 82.8347L42.4587 83.1578L42.2983 82.2463L41.4692 80.3506L40.5415 80.1188L40.72 80.8559Z" fill="#FEFEFE"/>
<path id="Vector_9" fill-rule="evenodd" clip-rule="evenodd" d="M60.8859 22.4134L60.5677 21.9739C59.5245 22.7184 59.0296 23.3809 58.8875 25.1357C59.7828 24.758 59.4449 25.0811 59.9861 23.9126C60.4182 22.9795 60.3005 23.1004 60.8859 22.4134Z" fill="#FEFEFE"/>
<path id="Vector_10" fill-rule="evenodd" clip-rule="evenodd" d="M15.4469 73.438C14.3217 73.1266 13.7825 72.766 12.5229 72.8136C13.1838 73.8578 14.6375 74.367 15.675 74.1473L15.4469 73.438V73.438Z" fill="#FEFEFE"/>
<path id="Vector_11" fill-rule="evenodd" clip-rule="evenodd" d="M46.8127 36.7733C47.598 37.8888 48.7548 37.6072 49.696 37.0883C49.1787 36.5449 47.4271 36.2556 46.8127 36.7733Z" fill="#FEFEFE"/>
<path id="Vector_12" fill-rule="evenodd" clip-rule="evenodd" d="M43.5589 80.6367C42.9514 80.3854 42.755 80.0625 42.7357 80.8704C43.1819 82.1942 43.0343 82.6077 44.408 82.6383L43.5589 80.6367V80.6367Z" fill="#FEFEFE"/>
<path id="Vector_13" fill-rule="evenodd" clip-rule="evenodd" d="M36.5253 80.1055C36.7405 81.2635 36.5627 81.1299 37.8523 81.3007C37.5136 80.2935 37.492 80.1546 36.8837 79.6759L36.1652 79.4599L36.5253 80.1055Z" fill="#FEFEFE"/>
<path id="Vector_14" fill-rule="evenodd" clip-rule="evenodd" d="M61.7614 21.372L63.8687 21.3541C63.5566 20.943 64.4622 20.7343 62.9419 20.6296C61.4999 20.5302 61.8523 21.2542 61.7614 21.372V21.372Z" fill="#FEFEFE"/>
<path id="Vector_15" fill-rule="evenodd" clip-rule="evenodd" d="M75.0448 58.2126C75.7929 59.0879 75.4065 58.8094 76.3847 58.5706L75.9442 57.7297C75.9619 58.4805 76.0476 58.0246 75.813 58.4168L75.0448 58.2126V58.2126Z" fill="#FEFEFE"/>
<path id="Vector_16" fill-rule="evenodd" clip-rule="evenodd" d="M72.7481 56.6107C72.8899 56.0771 72.2614 56.2707 73.4349 56.141L72.2481 55.7705C72.2423 57.433 72.1441 55.9681 72.7481 56.6107V56.6107Z" fill="#FEFEFE"/>
<path id="Vector_17" fill-rule="evenodd" clip-rule="evenodd" d="M76.7937 58.9825C77.5914 58.5974 76.8323 58.6121 78.0322 58.823L77.2698 58.1581L76.7937 58.9825V58.9825Z" fill="#FEFEFE"/>
<path id="Vector_18" fill-rule="evenodd" clip-rule="evenodd" d="M68.5151 56.2693C68.8101 55.887 68.9308 56.0299 69.2374 55.7639L69.7932 56.0693C69.5091 55.3862 70.221 55.766 69.2374 55.4061L68.5151 56.2693Z" fill="#FEFEFE"/>
<path id="Vector_19" fill-rule="evenodd" clip-rule="evenodd" d="M66.3504 30.4273C67.8038 30.3951 66.8418 30.4266 67.2052 30.0174C65.7272 30.022 66.7297 30.0655 66.3504 30.4273Z" fill="#FEFEFE"/>
</g>
</svg>
