<svg width="453" height="324" viewBox="0 0 453 324" fill="url(#linear-gradient)" xmlns="http://www.w3.org/2000/svg">
  <defs>
	<linearGradient id="linear-gradient">
		<stop offset="0%" stop-color="black" stop-opacity="1"/>
        <stop offset="50%" stop-color="black" stop-opacity="0"/>
		<stop offset="100%" stop-color="black" stop-opacity="1"/>
	</linearGradient>
  </defs>
<path d="M241.735 215.523C241.356 215.523 240.985 215.675 240.67 215.961C240.355 216.247 240.109 216.654 239.964 217.129C239.819 217.605 239.781 218.128 239.855 218.633C239.929 219.138 240.112 219.601 240.38 219.965C240.648 220.329 240.989 220.577 241.361 220.677C241.733 220.778 242.118 220.726 242.469 220.529C242.819 220.332 243.118 219.999 243.329 219.571C243.54 219.143 243.652 218.64 243.652 218.125C243.649 217.436 243.447 216.776 243.088 216.289C242.729 215.802 242.243 215.526 241.735 215.523Z" fill="white"/>
<path d="M71.6555 144.436H79.836L75.7457 130.798L71.6555 144.436Z" fill="white"/>
<path d="M216.804 269.909C216.231 269.858 215.657 269.983 215.125 270.275C214.592 270.566 214.115 271.017 213.729 271.593C212.798 273.047 212.205 274.844 212.027 276.756L220.904 277.313C220.857 275.325 220.399 273.396 219.582 271.746C219.249 271.179 218.826 270.72 218.346 270.402C217.865 270.084 217.338 269.916 216.804 269.909Z" fill="white"/>
<path d="M241.663 206.268C242.042 206.265 242.412 206.11 242.726 205.823C243.039 205.535 243.284 205.128 243.427 204.652C243.571 204.176 243.607 203.653 243.532 203.149C243.457 202.645 243.274 202.183 243.005 201.82C242.737 201.458 242.395 201.211 242.023 201.112C241.652 201.013 241.267 201.065 240.917 201.263C240.568 201.46 240.269 201.793 240.059 202.221C239.848 202.649 239.736 203.151 239.736 203.666C239.736 204.008 239.786 204.348 239.883 204.665C239.98 204.981 240.122 205.269 240.301 205.511C240.48 205.753 240.693 205.944 240.927 206.074C241.16 206.204 241.411 206.27 241.663 206.268Z" fill="white"/>
<path d="M262.576 201.773C257.338 201.773 250.838 210.304 250.562 210.666L250.459 210.805L250.562 210.93C250.828 211.278 257.122 219.489 262.361 219.489C267.599 219.489 269.783 215.119 269.783 210.805C269.783 206.491 267.548 201.773 262.576 201.773Z" fill="white"/>
<path d="M249.106 203.666H249.249C249.618 203.568 258.527 201.397 261.551 195.622C262.206 194.521 262.676 193.24 262.929 191.868C263.182 190.496 263.212 189.065 263.017 187.675C262.618 185.547 261.677 183.679 260.362 182.401C257.778 179.882 253.832 179.868 250.838 185.504C249.157 188.677 248.788 193.646 248.788 197.556C248.788 199.548 248.884 201.538 249.075 203.512L249.106 203.666Z" fill="white"/>
<path d="M241.735 207.173C241.208 207.17 240.691 207.38 240.252 207.776C239.812 208.171 239.469 208.736 239.265 209.397C239.062 210.057 239.008 210.785 239.11 211.488C239.211 212.191 239.464 212.837 239.837 213.344C240.209 213.852 240.684 214.198 241.201 214.339C241.718 214.479 242.255 214.409 242.743 214.135C243.23 213.862 243.647 213.398 243.94 212.803C244.234 212.207 244.39 211.507 244.39 210.791C244.388 209.835 244.107 208.919 243.61 208.241C243.113 207.564 242.439 207.18 241.735 207.173Z" fill="white"/>

<path d="M238.086 155.5C238.675 154.873 239.15 154.07 239.472 153.152C239.794 152.234 239.954 151.228 239.941 150.212C240.006 149.143 239.867 148.071 239.538 147.096C239.21 146.121 238.703 145.277 238.065 144.645C236.454 143.349 234.594 142.738 232.724 142.891H228.972V157.56H233.073C234.869 157.68 236.64 156.952 238.086 155.5Z" fill="white"/>
<path d="M235.974 138.09C236.507 137.523 236.933 136.792 237.216 135.957C237.5 135.122 237.632 134.207 237.604 133.289C237.604 128.65 235.461 126.331 231.176 126.331H228.972V139.802H231.433C233.045 139.942 234.645 139.339 235.974 138.09Z" fill="white"/>
<path d="M249.311 218.125H249.178V218.306C248.981 220.28 248.885 222.27 248.891 224.262C248.891 228.187 249.28 233.141 250.941 236.314C253.934 241.964 257.881 241.881 260.464 239.417C261.781 238.143 262.719 236.273 263.109 234.143C263.306 232.754 263.278 231.324 263.026 229.952C262.775 228.58 262.306 227.298 261.654 226.197C258.588 220.421 249.69 218.25 249.311 218.125Z" fill="white"/>
<path d="M172.908 260.752C172.358 260.519 171.777 260.461 171.208 260.582C170.639 260.702 170.098 260.999 169.627 261.448C168.483 262.584 167.61 264.152 167.116 265.957L175.665 269.199C175.947 267.248 175.823 265.229 175.307 263.368C175.074 262.719 174.738 262.148 174.323 261.695C173.908 261.243 173.425 260.921 172.908 260.752Z" fill="white"/>
<path d="M197.193 270.173C196.402 269.305 195.453 268.743 194.446 268.545C193.103 268.273 191.731 268.524 190.489 269.269L188.695 285.162C189.256 286.075 189.955 286.816 190.745 287.333C191.558 287.843 192.421 288.19 193.308 288.362C194.131 288.533 194.973 288.368 195.727 287.889C196.603 287.266 197.318 286.295 197.777 285.106C198.461 283.342 198.899 281.422 199.069 279.442C199.339 277.553 199.286 275.606 198.915 273.75C198.607 272.357 198.009 271.115 197.193 270.173Z" fill="white"/>
<path d="M285.498 265.442C284.873 263.94 283.99 262.666 282.925 261.726C282.421 261.305 281.856 261.038 281.268 260.942C280.681 260.845 280.085 260.923 279.522 261.169C279.051 261.321 278.608 261.6 278.219 261.99C277.829 262.38 277.502 262.872 277.256 263.438C276.749 264.662 276.481 266.041 276.477 267.446C276.463 269.039 276.615 270.627 276.928 272.163C277.301 274.047 277.867 275.851 278.609 277.521C279.246 279.043 280.156 280.321 281.254 281.237C281.766 281.65 282.336 281.912 282.928 282.008C283.519 282.104 284.119 282.031 284.688 281.794C285.156 281.646 285.596 281.367 285.979 280.974C286.363 280.581 286.681 280.082 286.913 279.511C287.39 278.271 287.633 276.889 287.62 275.489C287.624 273.9 287.469 272.318 287.159 270.786C286.784 268.912 286.225 267.114 285.498 265.442Z" fill="white"/>
<path d="M361.84 143.587C360.62 142.335 358.703 141.722 356.089 141.722H352.378V157.518H356.376C358.346 157.724 360.301 156.925 361.86 155.277C362.451 154.566 362.919 153.688 363.232 152.705C363.546 151.721 363.697 150.656 363.675 149.585C363.751 148.458 363.624 147.323 363.304 146.278C362.985 145.233 362.482 144.309 361.84 143.587Z" fill="white"/>
<path d="M452.759 107.794C452.759 101.434 452.759 101.434 448.105 100.752C431.805 98.3442 421.349 85.8749 417.843 64.6659C417.494 62.5923 417.289 60.4909 417.074 58.306C417.002 57.5127 416.92 56.6916 416.828 55.8566H406.658C391.958 55.9401 377.264 56.0329 362.578 56.135C360.681 56.135 359.328 55.8845 358.703 52.447C357.329 44.8346 353.803 40.3535 348.236 39.1566C342.67 37.9598 337.462 41.5781 335.996 47.5066C335.5 49.5632 335.428 51.7653 335.79 53.8731C336.151 55.9809 336.932 57.9137 338.046 59.461C339.594 61.8547 341.778 62.4392 344.71 61.2285C345.423 61.0268 346.087 60.5809 346.638 59.9329C347.189 59.285 347.608 58.4567 347.857 57.5266C347.988 56.5673 347.935 55.5784 347.704 54.6547C347.472 53.7311 347.069 52.9038 346.534 52.2522C345.985 51.52 345.372 50.8799 344.71 50.3456L343.746 49.455L342.803 48.5225L343.9 47.9937C347.918 46.1011 351.281 48.2721 352.911 53.8248C353.472 55.9737 353.443 58.3255 352.829 60.4477C352.215 62.5699 351.057 64.3198 349.569 65.3756C346.338 67.8402 342.577 68.7059 338.928 67.825C328.277 65.8488 319.256 58.9322 310.942 52.0017C310.481 51.626 309.548 50.1508 309.917 49.2184C310.311 48.3186 310.941 47.653 311.68 47.3536C312.248 47.1372 312.827 46.979 313.412 46.8804C313.812 46.7969 314.222 46.7134 314.612 46.5881C317.574 45.614 319.081 43.276 319.215 39.4489C319.252 37.1034 319.052 34.762 318.62 32.4906C318.425 31.419 318.077 30.7092 317.595 30.5144C317.248 30.4582 316.897 30.5161 316.571 30.6833C316.244 30.8504 315.952 31.1219 315.719 31.4746C315.069 32.2822 314.482 33.1775 313.966 34.1466L313.863 34.3415C313.036 35.9437 311.887 37.1892 310.553 37.9295C309.219 38.6697 307.756 38.8735 306.339 38.5165C303.976 38.1319 301.708 37.0231 299.706 35.2739C295.412 31.1053 291.441 26.3538 287.856 21.0928C282.884 13.2856 277.984 8.17813 272.428 5.03297C260.321 -1.85578 249.793 -0.784191 240.228 8.30339C240.105 8.42864 239.972 8.53998 239.839 8.65131C233.237 16.0132 227.916 29.3036 227.701 29.8742L226.502 32.922L225.477 29.749C225.477 29.6376 221.52 17.558 214.477 9.27755C213.887 8.85989 213.315 8.39519 212.765 7.88589C208.174 3.28467 202.623 0.788846 196.916 0.760551H196.783C184.256 0.844051 173.851 7.71888 165.834 21.1346C160.862 29.4846 155.993 34.7033 150.509 37.6258C145.998 40.0195 142.595 38.8505 139.478 33.8544L139.324 33.6039C138.835 32.7754 138.293 32.007 137.705 31.3076C137.49 31.0041 137.223 30.7768 136.928 30.6458C136.633 30.5148 136.319 30.484 136.013 30.5561C135.74 30.7458 135.504 31.0217 135.326 31.3608C135.147 31.6998 135.032 32.092 134.988 32.5045C134.59 34.4794 134.366 36.5116 134.322 38.5582C134.322 43.2342 136.147 46.115 139.642 46.9082L140.278 47.0056C140.759 47.0463 141.234 47.1679 141.693 47.3675C142.169 47.6345 142.622 47.9705 143.046 48.3695L143.558 48.8148L144.153 49.288L143.733 50.0256C143.61 50.2482 143.497 50.4848 143.384 50.7214C143.124 51.3993 142.744 51.9782 142.277 52.4053L139.57 54.5206C136.495 56.97 133.256 59.4889 129.944 61.5903C123.906 65.4174 117.315 68.8687 109.975 68.0615C105.3 67.5605 102.389 65.1947 100.81 60.6161C100.26 58.9175 100.104 57.032 100.362 55.2099C100.62 53.3879 101.281 51.7156 102.256 50.4152C103.13 49.0527 104.255 48.0276 105.515 47.4436C106.774 46.8596 108.126 46.7373 109.432 47.0891L110.559 47.3536L109.77 48.4808L108.591 50.1508C107.884 51.125 107.279 51.96 106.746 52.8367C106.359 53.3708 106.058 54.0073 105.86 54.7064C105.663 55.4055 105.573 56.1523 105.598 56.9004C105.679 57.5937 105.865 58.2568 106.144 58.8482C106.422 59.4397 106.788 59.9467 107.217 60.3378C109.473 62.7176 113.788 62.4114 115.418 59.7394C116.312 58.3739 116.993 56.7777 117.421 55.0464C117.849 53.3151 118.015 51.4843 117.909 49.6637C117.759 48.1482 117.374 46.6931 116.78 45.3933C116.187 44.0935 115.398 42.9784 114.465 42.1209C112.824 40.5218 110.92 39.4917 108.919 39.1206C106.918 38.7495 104.88 39.0485 102.984 39.9916C101.01 40.9578 99.241 42.567 97.8325 44.6781C96.424 46.7892 95.4189 49.3374 94.9055 52.0991C94.2596 55.634 93.009 56.2741 90.8049 56.2741C77.2527 56.135 63.7004 56.0375 50.1482 55.9819H39.5381C36.5652 55.9819 36.5652 55.9819 36.2167 59.9203C34.2587 81.7695 24.1406 96.4655 8.44583 100.279C6.65184 100.71 4.86811 101.016 2.98187 101.364L0.788086 101.754V191.405L2.83835 191.753C4.7451 192.087 6.54932 192.379 8.37406 192.824C16.0831 194.675 21.7008 198.182 26.1191 203.846C32.9567 212.656 34.884 224.053 35.8579 234.046C35.9399 234.839 35.9911 235.507 36.0321 236.077C36.2064 238.29 36.1962 238.276 38.2054 238.248H39.3228C58.462 238.248 77.2527 238.151 96.2586 237.97H96.3202C98.1859 237.97 99.1905 238.833 99.6826 240.879C103.424 270.855 127.648 297.492 164.491 312.243C205.199 327.686 248.242 327.719 288.963 312.341C326.37 297.45 350.717 270.479 354.11 240.183L354.182 239.905C354.93 238.081 356.14 237.928 357.421 237.942C373.003 238.054 388.579 238.137 404.147 238.193H417.381C418.611 208.369 430.554 192.699 452.882 191.586L452.759 107.794ZM90.6614 225.946H44.4485C44.0162 225.946 43.5978 225.739 43.2662 225.363C42.9346 224.986 42.7108 224.464 42.634 223.886C37.6006 186.158 10.7216 181.009 9.58372 180.745C9.34426 180.705 9.11295 180.602 8.90316 180.44C8.69337 180.278 8.50926 180.062 8.3615 179.803C8.21373 179.544 8.10524 179.248 8.04229 178.932C7.97934 178.616 7.96319 178.286 7.99476 177.961C8.05878 177.307 8.30949 176.713 8.69293 176.307C9.07637 175.901 9.56189 175.715 10.045 175.79C10.3526 175.79 39.7226 181.357 45.9247 220.894H90.6717C91.136 220.941 91.57 221.225 91.8867 221.688C92.2035 222.152 92.3795 222.76 92.3795 223.392C92.3795 224.025 92.2035 224.633 91.8867 225.096C91.57 225.56 91.136 225.843 90.6717 225.89L90.6614 225.946ZM54.5255 159.675V160.58H41.7216V159.675L45.9349 157.407V126.372H39.3228L36.3602 134.917H35.6938V123.255H60.461V134.917H59.8255L56.9141 126.372H50.2815V157.448L54.5255 159.675ZM80.7587 147.498H70.7021L67.6267 157.754L71.1327 159.675V160.58H62.1218V159.675L64.7461 157.81L75.469 122.935H77.7653L88.3549 157.643L91.1535 159.675V160.58H80.1743V159.675L83.8443 157.699L80.7587 147.498ZM90.6614 73.9344H45.9144C39.6816 113.458 10.3116 118.983 10.0348 119.024H9.79899C9.33642 119.012 8.89412 118.764 8.55976 118.33C8.2254 117.896 8.02338 117.307 7.99372 116.68C7.96405 116.054 8.10891 115.435 8.3996 114.946C8.69029 114.457 9.1056 114.135 9.56322 114.042C10.7011 113.847 37.5801 108.698 42.6135 70.9006C42.6925 70.3256 42.9171 69.8064 43.2485 69.4327C43.5799 69.0591 43.9972 68.8546 44.428 68.8548H90.6819C91.1462 68.9019 91.5803 69.1855 91.897 69.6488C92.2137 70.1121 92.3897 70.7208 92.3897 71.3528C92.3897 71.9849 92.2137 72.5936 91.897 73.0569C91.5803 73.5202 91.1462 73.8038 90.6819 73.8509L90.6614 73.9344ZM297.871 139.746V126.386L294.581 124.16V123.255H305.632V124.16L302.249 126.428V157.448L305.632 159.717V160.621H294.581V159.675L297.912 157.407V142.975H284.329V157.448L287.61 159.675V160.58H276.559V159.675L279.942 157.407V126.428L276.559 124.16V123.255H287.61V124.16L284.329 126.428V139.788L297.871 139.746ZM277.154 223.956C272.715 225.014 272.489 219.517 273.494 218.459C273.494 218.459 274.17 217.373 275.544 218.389C275.76 218.603 276.022 218.713 276.289 218.704C276.556 218.694 276.813 218.565 277.02 218.336C277.227 218.107 277.372 217.792 277.434 217.439C277.495 217.086 277.469 216.716 277.359 216.385C277.2 215.873 276.952 215.42 276.636 215.066C276.32 214.712 275.945 214.468 275.544 214.354C276.161 214.247 276.731 213.85 277.155 213.232C277.578 212.613 277.829 211.812 277.862 210.969C277.894 210.125 277.708 209.293 277.335 208.617C276.962 207.941 276.426 207.464 275.821 207.27C276.162 207.111 276.475 206.856 276.74 206.523C277.005 206.19 277.216 205.786 277.359 205.336C277.473 205.005 277.503 204.631 277.443 204.275C277.384 203.918 277.238 203.599 277.03 203.367C276.822 203.136 276.563 203.005 276.293 202.996C276.024 202.987 275.76 203.1 275.544 203.318C274.17 204.347 273.494 203.248 273.494 203.248C272.469 202.204 272.715 196.707 277.154 197.765C281.592 198.823 281.203 205.363 281.203 205.363H282.679L285.754 210.86L282.679 216.344H281.203C281.203 216.344 281.582 222.898 277.154 223.956ZM263.57 19.4924C268.091 21.1485 273.186 23.6674 276.723 29.5402C279.005 33.0691 280.294 37.5795 280.362 42.274C280.339 44.9816 279.939 47.6589 279.183 50.1647C276.836 58.2642 272.94 62.4392 267.281 62.9124C262.31 63.3438 257.994 61.3259 255.113 57.2622C253.917 55.5613 253.013 53.5233 252.463 51.2935C251.914 49.0636 251.734 46.6967 251.935 44.3615C251.989 43.0577 252.239 41.7827 252.669 40.6148C253.099 39.4469 253.701 38.4108 254.437 37.5701C255.343 36.6465 256.45 36.1571 257.584 36.1785H258.158L257.912 36.5542C254.836 40.7292 254.088 45.28 255.554 49.9281C257.02 54.5763 260.065 57.4153 264.206 57.6797C269.926 58.0137 274.406 54.284 276.2 47.7293C277.094 44.4305 277.178 40.8275 276.439 37.4587C275.7 34.0899 274.178 31.1363 272.1 29.0392C266.031 22.9715 259.603 21.7469 253.001 25.3931C245.128 29.7351 240.7 36.8047 239.746 46.4211C239.458 49.3008 239.599 52.2296 240.161 55.0338C240.723 57.838 241.694 60.4604 243.017 62.7454C240.949 61.3856 239.195 59.2851 237.943 56.6706C236.691 54.0561 235.989 51.0269 235.912 47.9102C235.796 43.5195 236.447 39.1536 237.811 35.1698C239.176 31.186 241.216 27.6975 243.765 24.9895C246.501 21.9874 249.728 19.9212 253.174 18.9646C256.621 18.008 260.186 18.189 263.57 19.4924ZM249.075 159.675L252.458 157.407V126.428L249.075 124.16V123.255H269.978V132.997H269.311L266.605 126.372H256.805V139.788H263.724L265.857 135.029H266.523V147.554H265.877L263.755 142.975H256.835V157.574H267.763L270.511 150.1H271.177V160.691H249.075V159.675ZM232.396 123.213C234.096 123.181 235.789 123.495 237.419 124.146C238.746 124.645 239.954 125.604 240.925 126.929C241.78 128.204 242.236 129.881 242.196 131.605C242.187 133.553 241.668 135.432 240.731 136.907C239.63 138.621 238.159 139.819 236.527 140.331C238.687 140.579 240.747 141.666 242.463 143.462C243.151 144.213 243.702 145.168 244.076 146.254C244.449 147.339 244.634 148.527 244.616 149.725C244.622 151.756 244.103 153.726 243.15 155.291C242.084 157.026 240.707 158.358 239.152 159.16C237.303 160.134 235.332 160.607 233.35 160.552H221.171V159.675L224.554 157.407V126.428L221.171 124.16V123.255L232.396 123.213ZM210.92 159.675V160.58H198.116V159.675L202.319 157.448V126.372H195.727L192.765 134.917H192.068V123.255H216.876V134.917H216.209L213.298 126.372H206.665V157.448L210.92 159.675ZM206.235 21.566C213.534 26.4925 218.383 38.266 217.511 49.1071C217.361 52.0364 216.609 54.85 215.341 57.2286C214.072 59.6073 212.338 61.4558 210.335 62.5645C212.952 57.9087 214.211 52.106 213.872 46.2681C213.36 39.7551 210.551 33.743 205.743 28.8861C197.593 20.6614 186.429 21.4964 179.797 30.8484C178.729 32.3749 177.893 34.1721 177.337 36.1374C176.781 38.1026 176.516 40.1974 176.557 42.3018C176.583 44.3454 176.911 46.3612 177.52 48.2303C178.129 50.0994 179.008 51.784 180.104 53.1846C181.279 54.6277 182.654 55.7398 184.148 56.4565C185.642 57.1732 187.226 57.4801 188.808 57.3596C190.228 57.3226 191.628 56.8995 192.926 56.1155C194.223 55.3315 195.392 54.2024 196.363 52.795C199.254 48.4808 199.346 42.7332 196.599 37.8067C196.25 37.1805 195.881 36.5681 195.573 36.0115C196.454 35.8553 197.349 36.0186 198.167 36.4846C198.849 36.9383 199.456 37.5739 199.953 38.3534C200.45 39.1329 200.825 40.0403 201.058 41.0215C201.538 42.867 201.743 44.8234 201.662 46.7775C201.582 48.7316 201.216 50.6445 200.586 52.4053C199.926 54.3849 198.984 56.1677 197.814 57.6509C196.644 59.1341 195.269 60.2885 193.769 61.0475C185.804 64.9999 178.833 61.6877 175.122 52.1548C173.244 47.6489 172.709 42.337 173.628 37.3123C174.547 32.2875 176.85 27.9322 180.063 25.1426C185.384 20.2996 190.54 17.892 195.614 17.892C199.32 17.9853 202.958 19.258 206.235 21.6077V21.566ZM164.789 135.154C165.559 132.764 166.638 130.582 167.977 128.71C169.308 126.842 170.887 125.331 172.631 124.257C174.387 123.181 176.292 122.631 178.218 122.643C179.42 122.619 180.621 122.745 181.806 123.018C182.695 123.223 183.567 123.544 184.41 123.979C185.2 124.387 185.973 124.851 186.727 125.37L186.973 135.446H186.224L183.344 128.084C182.548 127.29 181.688 126.622 180.781 126.094C179.962 125.674 179.093 125.467 178.218 125.482C176.399 125.458 174.616 126.165 173.092 127.514C171.534 128.911 170.286 130.86 169.484 133.15C168.568 135.754 168.119 138.615 168.172 141.5C168.11 144.6 168.544 147.681 169.443 150.532C170.169 152.846 171.359 154.837 172.877 156.279C174.291 157.586 175.965 158.275 177.675 158.255C178.917 158.302 180.155 158.033 181.324 157.462C182.254 156.977 183.141 156.351 183.969 155.597L186.768 149.251H187.475L186.973 158.367C185.719 159.22 184.408 159.905 183.057 160.413C181.283 161.001 179.459 161.268 177.634 161.206C175.05 161.298 172.492 160.478 170.212 158.826C168.179 157.317 166.502 155.059 165.373 152.313C164.349 149.698 163.768 146.804 163.674 143.845C163.58 140.885 163.975 137.935 164.83 135.209L164.789 135.154ZM124.409 124.16L121.036 126.428V157.448L124.409 159.675V160.58H113.327V159.675L116.659 157.407V132.997L102.696 155.5V157.476L105.956 159.675V160.58H94.9362V159.675L98.3089 157.407V126.428L94.9362 124.16V123.255H105.956V124.16L102.666 126.428V151.325L116.628 128.85V126.414L113.296 124.146V123.241H124.409V124.16ZM129.381 159.675L132.764 157.407V126.428L129.381 124.16V123.255H140.432V124.16L137.141 126.428V139.788H150.693V126.428L147.362 124.16V123.255H158.412V124.16L155.029 126.428V157.448L158.412 159.717V160.621H147.362V159.675L150.693 157.407V142.975H137.141V157.448L140.432 159.717V160.621H129.381V159.675ZM161.365 255.241L158.423 255.394L152.272 273.666L154.097 276.798L153.82 277.619L145.619 272.497L145.896 271.676L148.684 271.426L154.835 253.098L147.782 248.742L141.631 267.056L143.302 270.104L143.025 270.925L134.824 265.803L135.101 264.982L138.084 264.843L144.235 246.571L142.369 243.412L142.646 242.59L161.672 254.434L161.365 255.241ZM178.628 272.678L178.372 272.873L166.521 268.392C166.207 269.988 166.124 271.652 166.275 273.291C166.417 274.868 166.911 276.349 167.69 277.535C168.698 278.924 169.979 279.89 171.38 280.319C173.229 280.893 175.152 280.854 176.988 280.207H177.111L176.978 280.861C175.952 282.319 174.672 283.401 173.256 284.006C171.701 284.662 170.035 284.662 168.479 284.006C167.317 283.656 166.222 282.98 165.263 282.021C164.304 281.062 163.504 279.843 162.913 278.44C162.371 276.994 162.046 275.417 161.956 273.8C161.866 272.183 162.014 270.558 162.39 269.018C162.869 266.504 163.799 264.19 165.096 262.283C166.256 260.565 167.726 259.289 169.361 258.581C170.908 257.912 172.565 257.873 174.128 258.469C175.09 258.769 175.988 259.365 176.752 260.212C177.517 261.059 178.127 262.135 178.536 263.354C179.373 266.365 179.406 269.68 178.628 272.72V272.678ZM203.149 278.454C202.904 281.154 202.164 283.729 200.996 285.941C199.997 287.817 198.632 289.276 197.054 290.154C195.476 291.032 193.749 291.294 192.068 290.909C190.72 290.655 189.399 290.188 188.131 289.517L186.983 299.704L189.792 302.126L189.689 303.017L180.166 301.04L180.268 300.136L183.108 298.897L186.44 269.352L184.246 265.97L184.297 265.525L190.345 263.577H190.632L190.581 267.056L190.868 267.126C191.87 266.231 192.97 265.559 194.128 265.135C195.183 264.796 196.277 264.744 197.347 264.982C198.638 265.226 199.846 265.992 200.812 267.181C201.79 268.453 202.498 270.059 202.862 271.829C203.338 273.991 203.436 276.273 203.149 278.495V278.454ZM224.359 279.845L224.144 280.11L211.842 279.344C211.795 280.998 211.987 282.648 212.406 284.201C212.8 285.683 213.515 286.968 214.456 287.889C215.675 288.968 217.102 289.535 218.557 289.517C220.456 289.513 222.327 288.888 224.011 287.694H224.134V288.376C223.388 290.102 222.329 291.539 221.058 292.551C219.659 293.683 218.039 294.208 216.414 294.054C215.225 294.06 214.048 293.73 212.957 293.085C211.867 292.441 210.887 291.496 210.079 290.311C209.313 289.065 208.737 287.625 208.385 286.075C208.033 284.524 207.912 282.894 208.029 281.279C208.089 278.684 208.613 276.147 209.556 273.889C210.403 271.864 211.626 270.175 213.103 268.99C214.499 267.869 216.106 267.327 217.727 267.432C218.717 267.422 219.696 267.726 220.585 268.317C221.475 268.909 222.251 269.773 222.852 270.841C224.1 273.519 224.632 276.698 224.359 279.845ZM244.79 270.285L237.43 297.993C237.204 298.865 237.009 299.602 236.845 300.206C236.692 300.796 236.51 301.372 236.302 301.931C236.034 302.645 235.736 303.337 235.41 304.005C234.949 305.039 234.322 305.919 233.575 306.579C232.945 307.132 232.222 307.458 231.474 307.526C230.828 307.526 230.448 307.526 230.274 307.233C230.079 306.867 229.985 306.418 230.008 305.967L229.905 302.919L230.059 302.627L231.976 302.502C232.524 302.495 233.069 302.387 233.596 302.182C234.037 301.93 234.4 301.477 234.621 300.901C235.066 299.817 235.447 298.686 235.759 297.52L236.999 293.191L228.47 271.092L225.692 269.617V268.712L236.025 268.086V268.99L232.827 270.883V271.175L238.67 286.484H238.834L242.709 270.897V270.605L239.685 268.81V267.905L247.814 267.418V268.322L244.79 270.285ZM260.557 290.561L260.464 289.671L262.914 287.36L260.751 267.404L255.011 268.545L255.175 269.937C255.595 273.669 255.835 277.434 255.892 281.209C255.967 283.749 255.717 286.286 255.154 288.71C254.932 289.788 254.484 290.756 253.866 291.497C253.248 292.238 252.484 292.72 251.669 292.885C251.281 293.033 250.866 292.988 250.5 292.76C250.273 292.419 250.143 291.98 250.131 291.521L249.813 288.502L249.946 288.181L250.572 288.07C251.121 287.999 251.645 287.729 252.09 287.288C252.536 286.848 252.886 286.252 253.104 285.565C253.637 283.668 253.851 281.633 253.729 279.609C253.633 276.528 253.411 273.457 253.063 270.41L252.919 269.018L249.844 267.794L249.752 266.889L266.964 263.507L267.056 264.398L264.647 266.708L266.769 286.595L269.568 287.875L269.66 288.78L260.557 290.561ZM265.241 224.694C265.241 224.694 270.111 239.487 259.726 244.567C259.726 244.567 247.332 250.342 246.236 226.823C245.824 227.97 245.14 228.894 244.294 229.447C243.447 230.001 242.488 230.15 241.571 229.871C238.147 229.022 237.255 225.487 237.091 221.409C236.927 217.332 235.42 215.926 233.903 216.024C232.386 216.121 230.131 217.193 231.146 220.199C231.422 220.317 231.715 220.341 231.999 220.268C232.284 220.195 232.55 220.028 232.776 219.781C233.039 219.508 233.355 219.345 233.686 219.313C234.016 219.28 234.346 219.379 234.636 219.598C234.926 219.817 235.162 220.145 235.316 220.544C235.47 220.942 235.534 221.393 235.502 221.841C235.42 224.624 232.427 226.906 228.767 224.485C227.971 223.716 227.359 222.647 227.008 221.409C226.656 220.172 226.58 218.822 226.789 217.527H181.191V220.56H173.615V216.204H170.458L167.997 210.86V210.777L170.458 205.433H173.615V201.063H181.242V204.208H185.917V201.258H184.82V194.077H187.311V198.099H191.042V195.009H197.736V198.099H201.56V194.077H204.051V201.258H202.811V204.208H226.84C226.63 202.913 226.705 201.562 227.057 200.324C227.409 199.087 228.022 198.018 228.819 197.25C232.437 194.815 235.472 197.097 235.554 199.894C235.586 200.342 235.521 200.793 235.367 201.191C235.213 201.589 234.977 201.918 234.687 202.137C234.398 202.356 234.067 202.455 233.737 202.422C233.406 202.39 233.09 202.227 232.827 201.954C232.602 201.707 232.335 201.538 232.051 201.463C231.767 201.388 231.474 201.408 231.197 201.522C230.172 204.542 232.437 205.6 233.954 205.697C235.472 205.795 237.03 204.306 237.143 200.312C237.255 196.318 238.168 192.713 241.622 191.864C242.539 191.58 243.5 191.727 244.347 192.28C245.195 192.834 245.878 193.762 246.287 194.912C247.384 171.379 259.777 177.154 259.777 177.154C270.152 182.303 265.282 197.097 265.282 197.097C270.726 196.874 272.202 206.491 274.119 207.27L274.478 207.395C273.921 207.644 273.44 208.136 273.111 208.794C272.781 209.453 272.622 210.241 272.657 211.035C272.692 211.83 272.92 212.586 273.305 213.187C273.69 213.787 274.211 214.197 274.785 214.354C274.56 214.396 274.337 214.461 274.119 214.548C272.161 215.342 270.685 224.902 265.241 224.694ZM291.249 275.183C290.896 277.353 290.125 279.355 289.014 280.987C287.837 282.692 286.32 283.896 284.647 284.452C282.994 285.106 281.237 285.106 279.583 284.452C278.013 283.808 276.597 282.607 275.483 280.973C274.319 279.231 273.475 277.141 273.021 274.872C272.566 272.603 272.514 270.22 272.868 267.919C273.219 265.747 273.998 263.745 275.124 262.129C276.321 260.45 277.841 259.26 279.511 258.692C281.116 258.033 282.825 258.004 284.441 258.607C286.057 259.211 287.515 260.422 288.645 262.102C289.801 263.849 290.64 265.94 291.094 268.207C291.548 270.474 291.605 272.854 291.259 275.155L291.249 275.183ZM313.341 269.422L311.075 267.585L301.91 262.227L304.986 271.565L307.938 271.732L308.205 272.553L299.819 277.73L299.542 276.909L301.418 273.764L295.268 255.449L292.284 255.296L292.008 254.475L300.404 249.312L300.68 250.133L298.845 253.251L301.541 261.35L305.806 249.577L305.703 249.27L303.868 248.171L303.592 247.336L310.542 243.064L310.819 243.885L308.769 247.308L304.484 258.442L315.524 264.885L318.6 265.149L318.876 265.97L313.341 269.422ZM339.615 124.215L336.242 126.484V157.448L339.615 159.717V160.621H328.564V159.675L331.906 157.407V142.975H318.343V157.448L321.644 159.675V160.58H310.593V159.675L313.966 157.407V126.428L310.593 124.16V123.255H321.644V124.16L318.343 126.428V139.788H331.906V126.428L328.564 124.16V123.255H339.615V124.215ZM356.673 160.677H344.617V159.675L348 157.407V126.428L344.617 124.16V123.255H356.591V124.16L352.378 126.428V138.605H356.714C358.804 138.541 360.887 138.979 362.865 139.899C364.43 140.616 365.827 141.884 366.914 143.573C367.859 145.142 368.367 147.113 368.349 149.14C368.366 151.264 367.861 153.336 366.914 155.027C365.863 156.862 364.463 158.272 362.865 159.104C360.897 160.168 358.791 160.684 356.673 160.621V160.677ZM445.706 180.856C444.568 181.065 417.689 186.214 412.655 223.998C412.581 224.576 412.357 225.101 412.025 225.477C411.693 225.854 411.274 226.06 410.841 226.057H364.597C364.344 226.083 364.09 226.038 363.85 225.924C363.61 225.81 363.391 225.63 363.205 225.396C363.019 225.161 362.87 224.877 362.769 224.561C362.667 224.245 362.615 223.904 362.615 223.559C362.615 223.215 362.667 222.874 362.769 222.558C362.87 222.242 363.019 221.958 363.205 221.723C363.391 221.489 363.61 221.309 363.85 221.195C364.09 221.081 364.344 221.036 364.597 221.061H409.334C415.567 181.538 444.947 176.013 445.214 175.957C445.697 175.882 446.182 176.068 446.566 176.474C446.949 176.88 447.2 177.474 447.264 178.128C447.303 178.759 447.164 179.387 446.874 179.883C446.585 180.379 446.167 180.707 445.706 180.8V180.856ZM372.235 124.215V123.311H383.367V124.215L379.985 126.484V157.448L383.367 159.717V160.621H372.235V159.675L375.648 157.407V126.428L372.235 124.215ZM388.534 124.215V123.311H399.585V124.215L396.294 126.484V151.325L410.267 128.85V126.414L406.925 124.146V123.241H417.986V124.146L414.603 126.414V157.448L417.986 159.717V160.621H406.925V159.675L410.267 157.407V132.997L396.294 155.5V157.476L399.585 159.745V160.649H388.534V159.675L391.917 157.407V126.428L388.534 124.215ZM396.253 111.871H399.964C399.923 113.443 400.196 115.001 400.754 116.38C401.069 116.935 401.473 117.384 401.936 117.693C402.399 118.002 402.908 118.162 403.424 118.162C403.94 118.162 404.449 118.002 404.912 117.693C405.375 117.384 405.78 116.935 406.095 116.38C406.657 115.004 406.93 113.444 406.884 111.871H410.595C410.608 112.994 410.454 114.109 410.142 115.149C409.83 116.189 409.367 117.133 408.781 117.925C407.258 119.539 405.382 120.415 403.45 120.415C401.518 120.415 399.642 119.539 398.119 117.925C397.518 117.133 397.043 116.182 396.722 115.132C396.401 114.081 396.241 112.953 396.253 111.816V111.871ZM447.305 116.965C447.248 117.567 447.031 118.121 446.695 118.523C446.36 118.925 445.928 119.148 445.48 119.15H445.244C444.947 119.15 415.516 113.583 409.365 74.0596H364.597C364.344 74.0853 364.09 74.0398 363.85 73.9259C363.61 73.812 363.391 73.6321 363.205 73.3977C363.019 73.1632 362.87 72.8791 362.769 72.5632C362.667 72.2472 362.615 71.9063 362.615 71.5616C362.615 71.2169 362.667 70.8759 362.769 70.56C362.87 70.2441 363.019 69.96 363.205 69.7255C363.391 69.491 363.61 69.3112 363.85 69.1973C364.09 69.0834 364.344 69.0379 364.597 69.0636H410.841C411.272 69.0607 411.691 69.2641 412.022 69.6382C412.354 70.0123 412.578 70.5332 412.655 71.1093C417.689 108.851 444.568 114 445.706 114.251C446.174 114.331 446.602 114.651 446.903 115.145C447.204 115.638 447.355 116.269 447.325 116.909L447.305 116.965Z" fill="white"/>
</svg>
