<svg width="345" height="150" viewBox="0 0 345 150" fill="none" xmlns="http://www.w3.org/2000/svg">
<g clip-path="url(#clip0_359_684)">
<g filter="url(#filter0_i_359_684)">
<path fill-rule="evenodd" clip-rule="evenodd" d="M170.108 126.17C168.841 129.965 156.438 129.611 158.832 121.584C159.147 120.527 159.925 119.402 160.86 118.574C163.013 116.671 170.611 115.367 170.611 122.345C167.279 122.345 164.74 122.143 161.295 122.143C161.295 128.795 169.495 126.21 170.108 126.17ZM220.469 118.721C220.469 120.475 219.959 121.953 218.388 123.097C214.84 125.678 209.118 124.549 207.401 121.115C204.59 115.492 210.989 111.606 216.275 113.418C218.446 114.161 220.469 116.321 220.469 118.721ZM175.899 134.423H175.144C175.119 133.536 174.892 133.481 174.892 132.41C178.216 132.41 178.101 132.658 179.843 129.103C180.41 127.947 179.225 126.444 178.154 124.971L174.231 119.048C173.652 118.223 173.063 118.138 171.87 117.916V117.513C174.648 117.513 176.607 117.312 179.173 117.312V117.715C177.958 117.796 178.012 118.113 176.907 118.319C176.983 119.051 180.007 123.357 180.67 124.369C180.914 124.743 180.966 124.994 181.188 125.364C182.109 124.824 184.402 118.679 184.46 118.117C182.825 117.812 182.478 117.737 182.194 117.111H187.986C187.427 117.5 187.475 117.469 186.749 117.732C185.194 118.299 185.686 118.419 184.497 120.965L181.185 128.382C180.801 129.226 180.428 129.961 180.024 130.877C179.389 132.32 178.104 134.423 175.899 134.423ZM127.301 118.319C127.301 119.703 127.401 120.928 128.949 121.833C131.838 123.522 133.819 122.774 135.359 122.748C131.503 126.955 120.317 122.679 125.794 115.704C128.969 111.659 136.87 112.372 136.87 116.708C136.87 118.574 136.733 118.024 136.618 119.124C134.506 119.087 129.542 117.444 127.553 117.312C127.422 117.763 127.301 117.775 127.301 118.319ZM141.151 116.104C141.845 116.092 144.985 115.47 145.432 115.299V116.909C146.626 116.83 145.653 116.898 147.261 116.359C156.983 113.104 157.543 127.176 147.95 127.176C146.246 127.176 145.05 126.83 143.668 126.572C143.336 127.713 142.913 129.856 142.913 131.202C143.565 131.551 144.478 131.919 144.927 132.41C142.703 132.37 140.101 131.644 137.877 131.605C138.55 130.869 139.226 131.285 139.905 130.81C140.453 130.428 141.969 121.132 142.269 119.817C142.408 119.213 142.663 118.088 142.438 117.67L141.474 116.651C141.122 116.193 141.303 116.336 141.151 116.104ZM200.576 116.507L202.055 124.786C202.352 125.911 202.315 125.334 203.739 125.855C204.409 126.1 204.1 125.994 204.354 126.17L197.806 126.974C198.038 126.278 198.229 126.334 199.568 125.767C199.177 124.418 198.991 122.938 198.74 121.398C198.508 119.982 198.058 118.598 198.058 116.909C196.144 116.909 195.197 117.312 193.525 117.312C193.525 119.64 195.797 127.981 190.756 127.981C189.756 127.981 189.983 126.978 189.749 126.17C194.492 125.854 192.26 119.862 192.015 117.513C191.259 117.372 190.581 117.167 189.749 117.111V116.708C191.765 116.708 194.032 116.289 196 116.069L202.339 115.299C202.041 115.957 201.592 116.077 200.576 116.507ZM230.289 113.084C232.808 114.051 238.105 115.921 240.864 116.104L237.875 117.36C236.235 117.9 236.605 117.383 234.968 116.792C233.82 116.377 232.847 116.076 231.793 115.707C230.848 115.376 229.382 114.715 228.274 114.695C230.971 118.768 229.463 118.922 232.807 118.922V119.326C231.012 119.444 228.696 121.009 226.764 121.137L228.274 119.526C227.429 118.748 224.424 112.885 223.49 111.474H221.224C222.132 110.843 225.996 109.596 227.267 109.058C227.102 110.65 225.514 109.689 226.452 111.5L228.023 114.293C228.856 113.804 230.897 110.042 231.548 109.058C231.478 109.021 231.277 108.93 231.23 108.91C231.196 108.895 231.107 108.86 231.066 108.84C229.959 108.356 230.245 108.674 230.037 108.052C231.616 107.758 233.243 106.736 234.821 106.442C234.672 106.888 233.42 108.07 232.472 109.595L230.289 113.084ZM109.927 106.24L118.571 109.394C119.741 109.831 123.168 110.812 123.776 111.474C121.745 111.474 121.612 111.424 120.946 112.633C120.242 113.91 117.246 118.805 116.977 119.728C117.447 120.289 117.985 120.583 118.236 121.339C117.196 120.898 112.83 119.616 112.193 118.922C114.127 118.922 114.396 118.94 115.061 117.793C115.718 116.661 118.912 111.234 118.992 110.467C117.767 110.24 117.365 110.002 116.309 109.593C115.348 109.221 114.582 109.027 113.704 108.656L110.804 113.585C110.538 114.043 110.358 114.351 110.091 114.827C110.005 114.981 109.878 115.212 109.78 115.384C108.316 117.939 109.615 116.632 110.179 118.319L104.965 116.448C104.478 116.172 104.604 116.381 104.387 115.903H106.653C106.807 115.376 107.373 114.413 107.664 113.892C108.053 113.195 108.525 112.559 108.885 111.848L111.186 107.851L110.227 106.805C109.991 106.463 110.002 106.354 109.927 106.24ZM207.123 88.3243C207.123 86.8241 207.513 86.5125 209.389 86.5125C211.674 86.5125 212.915 87.8901 212.915 89.7335C214.334 89.7587 214.829 90.5263 216.188 92.1491C215.776 92.6406 215.363 93.0994 214.936 93.564C214.328 94.2253 214.231 94.5414 212.915 94.5648C212.915 98.4142 207.123 98.6807 207.123 96.3764C207.123 94.7996 207.745 95.4194 209.641 95.7725L210.44 94.9984C210.122 94.0228 209.939 94.2151 209.389 93.5582C210.971 93.2205 211.13 91.1115 209.389 90.74C209.789 90.2629 210.974 89.4944 209.937 88.8991C208.932 88.3215 207.123 89.6823 207.123 88.3243ZM201.08 86.11C206.178 87.0595 204.939 89.1123 207.375 90.5387C206.493 91.5909 205.496 92.2789 207.626 93.7596C206.163 94.0718 205.704 96.5575 203.413 97.6379C202.589 98.0263 202.045 98.0084 201.08 98.1881C201.199 99.3332 203.145 102.705 200.271 105.191C196.43 108.515 187.231 108.136 187.231 99.1948C186.654 99.3615 187.039 99.2577 186.643 99.5306C186.284 99.7778 186.628 99.6119 186.121 99.9177C184.576 100.848 181.101 100.703 180.456 97.766C180.032 95.8315 180.246 94.3633 177.662 94.3633C175.633 94.3633 174.312 96.3764 176.403 96.3764C177.778 96.3764 176.057 95.6887 178.669 96.1751C178.831 96.715 178.921 96.5547 178.921 96.9803C178.921 99.1959 172.626 99.0164 172.626 96.1751V94.9674H139.136C138.211 94.9674 138.38 95.3972 138.38 96.3764H133.093C133.093 93.9764 133.308 94.3633 130.575 94.3633C129.968 93.6389 129.422 92.8772 128.812 92.1491C129.147 91.8414 128.913 92.066 129.231 91.679C129.447 91.4163 129.5 91.3301 129.719 91.0626C130.13 90.5616 130.246 90.4301 130.575 89.9348C133.308 89.9348 133.093 90.3217 133.093 87.9216H138.38V89.3308H142.158C142.158 85.6244 141.402 90.5346 141.402 84.9023H143.165V86.7139H145.935V85.3048H150.719V86.7139H153.741V84.9023H155.503V87.7203C154.347 87.7974 154.496 87.7326 154.496 89.3308H172.626C172.626 87.3448 172.736 85.9087 176.655 85.9087C179.03 85.9087 179.724 88.3243 177.662 88.3243C177.221 88.3243 175.396 87.1143 175.396 88.727C175.396 89.5539 176.78 89.9348 177.914 89.9348C180.16 89.9348 180.115 88.217 180.422 86.7068C180.598 85.8507 180.726 85.3989 181.361 84.8397C182.554 83.7888 184.683 83.4568 186.196 84.5221C186.234 84.5493 186.283 84.5946 186.322 84.6219C186.924 85.0453 186.543 84.9567 187.231 85.1034C187.231 73.6591 203.582 75.6902 201.63 84.3356C201.404 85.3374 201.164 85.2938 201.08 86.11ZM309.607 98.5908H274.859C274.038 98.5908 273.851 98.1123 273.851 97.5843C273.851 96.4859 275.713 96.7724 277.124 96.7782L308.348 96.7795C309.497 94.8639 308.673 92.2975 314.785 86.0224C320.219 80.4429 334.913 75.4128 336.332 77.4514C338.019 79.8729 329.477 77.9248 319.469 84.9356L316.296 87.6329C313.929 90.0512 311.592 93.7008 310.94 96.838C310.763 97.6894 310.701 98.5908 309.607 98.5908ZM37.9109 96.7792L68.8833 96.7789C70.843 96.7741 72.4081 96.4127 72.4081 97.7856C72.4081 98.2567 71.9904 98.5908 71.4009 98.5908H36.6519C35.2984 98.5908 35.3723 96.5911 34.6723 94.9396C33.4355 92.0221 32.6411 90.5045 30.1797 87.8621C29.5416 87.177 29.3437 87.0551 28.6573 86.4621L26.8948 85.0529C17.3125 77.9647 8.20441 79.9244 9.92673 77.4511C11.3488 75.409 23.0962 80.2108 26.0076 81.9374C31.2643 85.0552 35.3298 89.4601 37.1584 94.5626C37.4004 95.2378 37.57 96.2106 37.9109 96.7792ZM54.0265 68.9993C55.7937 69.7469 55.8608 69.2599 56.5446 70.0057H49.9976C50.1825 69.8771 50.0384 69.9469 50.4075 69.7297C52.2737 68.6327 51.7138 69.789 53.3097 66.6144L58.9899 55.6551C60.0635 53.4904 61.0192 52.5958 62.4081 55.4542L68.6236 67.3946C70.2637 70.4188 70.1796 68.6733 71.4009 70.0057H63.5951C64.1936 69.3524 63.5615 69.8004 64.6855 69.4684C65.4345 69.2472 65.5074 69.2554 66.1131 68.9993C66.0597 68.4879 64.4209 64.3691 63.3432 64.3691H56.7962C55.8917 64.3691 55.7118 65.425 55.1777 66.4974C54.8165 67.2228 54.0985 68.3066 54.0265 68.9993ZM146.69 58.7327V53.9014H165.072V58.7327C164.375 58.5311 164.708 58.7897 164.213 58.0108C162.085 54.6702 164.194 55.1092 158.021 55.1092C157.441 55.1092 157.266 55.2493 157.266 55.7132V67.9926C157.266 69.7014 159.56 68.9372 160.54 70.0057H151.223C151.532 69.7908 151.557 69.7697 151.976 69.6019C152.395 69.4341 152.337 69.4751 152.879 69.3165C153.678 69.0824 154.496 69.0346 154.496 68.3952V55.1092H149.208C148.988 55.866 148.551 56.3573 148.118 57.0553C147.217 58.5034 147.543 58.4858 146.69 58.7327ZM30.357 58.7327V53.9014H48.7387V58.7327C47.5954 58.4886 48.4337 58.8389 47.2278 56.921C47.001 56.5604 46.905 56.3888 46.6695 55.9581C46.0273 54.7826 46.769 55.1092 40.9326 55.1092V68.3952C40.9326 69.155 42.0215 69.082 43.2796 69.5387C43.8259 69.737 43.8545 69.7615 44.2062 70.0057H34.8892L36.1724 69.421C36.8714 69.1904 37.1018 69.053 37.9109 68.9993V55.1092C31.4211 55.1092 33.4349 54.4133 31.2947 57.872C30.8479 58.594 30.8476 58.5907 30.357 58.7327ZM128.812 60.9471V62.5576C128.812 69.4321 137.2 70.3568 140.539 68.1079C140.975 67.8148 142.516 65.6726 142.661 65.1745H143.165C143.133 66.3133 142.661 68.0301 142.661 69.2006C138.325 70.0082 141.894 70.207 134.603 70.207C131.188 70.207 127.66 68.2076 126.392 65.6999C123.248 59.4858 129.869 53.7 135.611 53.7C138.371 53.7 140.393 53.6937 142.661 54.9079V58.934C142.065 58.7613 142.321 58.8622 141.981 58.4719C141.028 57.381 140.861 54.7068 136.114 54.7068C132.084 54.7068 128.812 57.7266 128.812 60.9471ZM168.597 53.9014C173.074 53.9014 178.873 53.3927 181.851 54.78C184.565 56.0439 184.284 58.9377 182.102 60.2691C181.746 60.486 181.402 60.65 181.002 60.7993L179.676 61.3496C181.958 61.5014 184.3 62.4486 185.146 63.8217C186.301 65.6961 185.225 67.521 183.641 68.545C181.7 69.7988 179.337 70.0137 176.908 70.0062C174.054 69.9977 171.199 70.0057 168.345 70.0057L169.387 69.4294C169.863 69.2452 170.357 69.0934 170.864 68.9993V55.1092C168.207 53.9857 169.439 54.7772 168.597 53.9014ZM292.988 53.9014H301.045C300.495 54.5024 299.371 54.7524 298.528 55.1092V66.181C299.312 65.7613 300.504 64.3766 301.238 63.7182C302.228 62.8305 302.925 62.1207 303.891 61.2086C304.379 60.7481 309.103 56.6114 309.103 56.1156C309.103 54.0848 307.754 55.1761 306.585 53.9014H314.643C313.879 54.7346 312.125 54.654 312.125 55.5119V68.3952C312.125 69.2531 313.879 69.1726 314.643 70.0057H306.585C307.082 69.4637 307.679 69.4005 309.103 68.7979V58.1288C308.114 58.34 307.008 59.8749 306.27 60.494L299.595 66.8337C296.71 69.1804 300.208 69.0921 301.045 70.0057H292.988C293.751 69.1726 295.507 69.2531 295.507 68.3952V55.5119C295.507 54.654 293.751 54.7346 292.988 53.9014ZM280.901 53.9014H288.959C288.196 54.7346 286.441 54.654 286.441 55.5119V68.3952C286.441 69.456 288.162 69.1357 288.959 70.0057H280.901C281.665 69.1726 283.419 69.2531 283.419 68.3952V55.5119C283.419 54.4411 281.903 55.0971 280.901 53.9014ZM260.254 53.9014H269.067L265.793 55.1092V60.5444C270.498 60.5444 277.628 60.4107 277.628 65.3757C277.628 68.0076 274.585 69.4024 271.698 69.8953C269.599 70.2537 262.889 70.0057 260.254 70.0057C261.017 69.1726 262.771 69.2531 262.771 68.3952V55.5119C262.771 54.654 261.017 54.7346 260.254 53.9014ZM235.073 53.9014H242.879C241.953 55.0062 240.613 54.4349 240.613 55.5119V61.1484C252.639 61.1484 250.95 61.8651 250.937 58.5317C250.933 57.391 250.937 56.25 250.937 55.1092C250.084 54.9272 248.916 54.4945 248.419 53.9014H256.225C255.601 54.6462 254.96 54.6854 253.959 55.1092V68.9993L256.477 70.0057H248.419C249.183 69.1726 250.937 69.2531 250.937 68.3952V62.3562H240.613V68.9993C241.514 69.1669 242.404 69.4865 242.879 70.0057H235.073C235.624 69.4047 236.747 69.155 237.591 68.7979V55.1092C236.739 54.9272 235.57 54.4945 235.073 53.9014ZM209.641 53.9014H217.699C216.935 54.7346 215.181 54.654 215.181 55.5119V61.1484H225.505V55.5119C225.505 54.654 223.75 54.7346 222.987 53.9014H231.045C230.281 54.7346 228.527 54.654 228.527 55.5119V68.3952C228.527 69.2531 230.281 69.1726 231.045 70.0057H222.987C223.704 69.2229 225.505 69.3021 225.505 68.3952V62.3562H215.181V68.3952C215.181 69.2531 216.935 69.1726 217.699 70.0057H209.641C210.404 69.1726 212.159 69.2531 212.159 68.3952V55.5119C212.159 54.654 210.404 54.7346 209.641 53.9014ZM189.244 53.9014H204.605V57.9275C203.724 57.6724 204.538 58.2172 203.782 57.3773C201.431 54.7648 205.36 55.1092 194.784 55.1092V61.1484C200.134 61.1484 199.761 61.5442 200.828 60.1417C201.196 59.6569 201.288 59.3057 202.087 59.1353C202.087 60.6697 202.526 63.2175 201.835 64.3691C200.944 63.8477 200.653 62.3562 199.568 62.3562H194.784V68.7979H202.59C203.714 68.7979 204.234 66.237 205.36 65.577V70.0057H189.244C190.008 69.1726 191.763 69.2531 191.763 68.3952V55.5119C191.763 54.4411 190.246 55.0971 189.244 53.9014ZM100.106 53.9014H108.164C107.4 54.7346 105.646 54.654 105.646 55.5119V61.1484H115.97V55.5119C115.97 54.654 114.216 54.7346 113.452 53.9014H121.51C120.746 54.7346 118.992 54.654 118.992 55.5119V68.3952C118.992 69.2531 120.746 69.1726 121.51 70.0057H113.452C114.17 69.2229 115.97 69.3021 115.97 68.3952V62.3562H105.646V68.3952C105.646 69.2531 107.4 69.1726 108.164 70.0057H100.106C100.87 69.1726 102.625 69.2531 102.625 68.3952V55.5119C102.625 54.654 100.87 54.7346 100.106 53.9014ZM79.9622 55.1092V65.9796C81.2346 65.708 86.0186 60.7489 87.1201 59.6239L89.8647 56.9867C90.8255 56.1134 90.7898 56.6331 90.7898 55.1092C89.8302 54.9305 88.7881 54.518 88.2717 53.9014L96.0776 54.304C95.2693 54.4545 93.5595 54.7785 93.5595 55.5119V68.3952C93.5595 69.2531 95.314 69.1726 96.0776 70.0057H88.2717C88.8225 69.4047 89.9459 69.155 90.7898 68.7979V58.1288C90.0061 58.2961 89.6902 58.6403 89.2396 59.1038L85.2148 62.9318C84.4264 63.7121 79.9622 67.4427 79.9622 68.3952C79.9622 69.2531 81.7165 69.1726 82.4803 70.0057H74.4225L75.8138 69.3062C76.4132 69.0617 76.9406 68.9312 76.9406 68.3952V55.5119C76.9406 54.9186 76.5027 54.9181 75.9424 54.6994C75.8825 54.6761 75.3313 54.486 75.2544 54.4442C74.7598 54.1747 74.89 54.378 74.6743 53.9014H82.4803C81.9294 54.5024 80.806 54.7524 79.9622 55.1092ZM298.779 48.8689H301.298C301.298 49.6812 301.401 50.3198 301.857 50.8374C302.97 52.1031 306.585 52.2958 306.585 48.8689H309.103C309.103 53.735 298.779 53.735 298.779 48.8689ZM273.851 30.9529C273.851 30.4816 274.269 30.1475 274.859 30.1475H309.607C310.826 30.1475 310.954 32.0472 311.565 33.8157C312.281 35.8879 313.228 37.4996 314.594 39.2458L319.138 43.6652C321.312 45.0498 323.304 46.342 325.851 47.3569L331.793 49.2498C335.492 50.1205 335.498 49.2924 336.55 50.8818C335.661 52.2254 335.792 52.2647 330.445 50.9309C326.913 50.0498 326.386 49.7097 323.625 48.5331C322.729 48.1517 322.355 48.0527 321.546 47.5775C315.846 44.2318 312.658 41.5891 309.929 36.131C309.588 35.449 309.341 34.9041 309.07 34.2001C308.852 33.6322 308.656 32.6739 308.348 32.1607C303.293 32.1607 276.725 32.4477 274.103 31.9594C273.972 31.5078 273.851 31.4966 273.851 30.9529ZM70.3937 32.1607H37.6592C37.5989 34.3225 35.3156 38.0899 34.2165 39.6749C32.431 42.2495 29.4674 44.6938 26.6176 46.4833L20.4978 49.4418C18.3397 50.2435 13.3708 51.8884 10.4644 51.8884C10.3453 51.7461 8.22991 50.2408 11.5681 49.7513C15.9061 49.1153 19.6151 47.8736 23.2582 46.0122C27.2827 43.9557 30.5727 41.1086 32.7081 37.6637C33.9351 35.6843 34.6952 34.1073 35.2893 31.8763C35.4949 31.1036 35.653 30.1475 36.6519 30.1475H71.4009C72.6289 30.1475 73.3531 32.1607 70.3937 32.1607ZM183.705 26.7254C177.172 23.9616 178.072 15.014 185.751 10.4441C188.236 8.96541 193.011 7.34766 197.961 8.08196C205.975 9.27094 214.429 13.4831 211.661 21.0936C211.188 22.3947 209.914 24.2086 208.833 25.073C204.338 28.6641 196.029 27.7486 192.657 23.7966C191.101 21.9734 190.556 18.567 192.578 16.7073C193.475 15.8815 194.205 16.0693 195.288 15.6537C194.911 16.7822 193.675 17.2678 193.327 18.9223C192.533 22.6954 197.34 26.4084 203.986 24.8214C206.231 24.2853 207.932 23.0996 208.936 21.5318C211.206 17.9891 209.29 14.0483 206.323 12.4687C202.782 10.5836 201.543 10.0287 197.048 10.0142C193.087 10.0016 190.056 11.3209 187.734 12.6347C185.325 13.9983 183.326 15.8534 182.406 18.4402C181.985 19.6264 181.76 21.4078 182.075 22.9964C182.268 23.9739 182.338 24.1482 182.727 24.8905C183.05 25.5071 183.493 25.9961 183.705 26.7254ZM135.107 17.2642C135.107 20.3664 135.653 22.7379 139.818 24.3683C140.909 24.795 141.58 24.8814 143.022 25.0422C145.272 25.2935 147.773 24.5296 149 23.7413C151.507 22.1336 152.437 19.9571 150.977 17.4612C150.583 16.7889 149.966 16.4131 149.712 15.6537C153.716 15.9202 154.463 20.0837 152.829 22.7759C149.856 27.6736 139.658 29.4428 134.498 23.1866C132.761 21.0813 132.164 18.1132 133.308 15.423C135.216 10.9324 143.399 7.80287 148.453 7.80287C155.321 7.80287 161.108 10.1788 164.022 15.0839C165.666 17.8519 166.298 21.5142 164.314 24.3077C163.333 25.6868 162.379 26.0765 160.791 26.9268C160.995 26.3164 161.911 25.161 162.306 24.3134C164.359 19.9123 162.213 16.5197 158.464 13.4879C153.435 9.42056 144.667 8.70066 138.879 12.2275C137.323 13.176 135.107 15.1308 135.107 17.2642ZM112.697 16.6602C108.226 16.6602 107.119 13.0368 105.143 13.0368C103.444 13.0368 103.632 16.2743 103.632 17.4655C103.632 18.6237 105.1 19.7278 106.141 20.0897C107.003 20.3893 107.519 20.3586 108.607 20.5331C109.586 20.6899 109.865 20.9447 110.682 21.2903C110.154 22.8724 105.154 24.6963 103.293 25.448C98.2501 27.4841 93.9133 29.5437 87.2646 29.5437C77.9878 29.5437 76.4431 23.766 80.4568 21.4843C82.2929 20.4404 82.4389 20.4851 85.5018 20.4851C85.2212 21.3253 84.3523 21.6431 83.6776 22.2475C78.7293 26.6817 87.8264 28.3885 90.1474 25.608C92.0751 23.2988 92.2157 19.7586 88.9871 18.1015C85.5158 16.3198 81.386 16.2186 78.0512 18.1521C72.6256 21.298 76.0668 24.3552 70.6524 24.3152L32.3714 24.1085C31.6911 24.1085 31.6772 24.2046 31.1122 24.3098C30.6327 25.109 30.7198 25.2069 30.5661 26.2888C29.527 33.5997 23.6483 39.9185 15.0378 42.4599C12.2771 43.2748 7.38418 44.025 4.16919 44.2387V83.4931C7.03846 84.5936 16.2357 83.5417 23.3707 89.2795C25.5415 91.0251 27.3926 93.2363 28.5025 95.846C29.3528 97.8449 29.9666 100.109 30.3131 102.249C30.4465 103.074 30.3695 104.227 31.3642 104.227C35.6303 104.227 63.5546 104.5 66.5103 104.142C68.1144 103.948 74.8618 103.807 76.301 104.135C78.8324 104.71 77.5588 109.053 82.7303 114.898L85.9301 118.177C89.4157 121.472 93.6106 124.184 98.0921 126.572C103.238 129.313 108.746 131.507 114.532 133.358C115.817 133.77 116.86 134.074 118.163 134.482C125.688 136.836 133.813 138.398 141.797 139.542C143.391 139.771 144.593 139.924 146.142 140.095C147.445 140.239 149.262 140.532 150.507 140.632C160.033 141.394 170.892 142.116 180.697 141.479C181.504 141.426 182.381 141.51 183.189 141.458C187.087 141.205 191.732 141.029 195.579 140.492C198.713 140.054 202.036 139.824 204.908 139.295C216.958 137.077 226.568 135.301 237.676 130.867C243.958 128.36 250.278 125.358 255.276 121.384C255.888 120.899 256.268 120.793 256.787 120.379L260.503 116.907C260.969 116.421 261.248 116.221 261.718 115.666C263.992 112.979 265.833 110.153 266.852 106.886C268.092 102.907 267.674 104.026 279.643 104.026C283.448 104.026 286.373 104.227 290.218 104.227H314.391C314.391 98.8234 316.992 92.9796 321.627 89.2774C323.651 87.6607 326.843 86.1056 329.78 85.3279C331.689 84.8224 332.675 84.5429 334.967 84.2407L340.831 83.6943V46.0505C340.831 43.9415 339.271 43.967 336.821 43.8213C328.084 43.3016 319.853 39.0965 316.618 32.5945C315.627 30.6003 314.797 28.3784 314.353 26.1515C314.114 24.9476 314.391 24.1085 312.881 24.1085C300.016 24.1085 287.925 24.2694 275.109 24.3103C269.416 24.3284 271.746 23.524 269.91 20.8177C265.521 14.3522 253.203 16.3057 253.203 22.0954C253.203 24.0518 254.812 26.2142 256.65 26.7939C258.815 27.4772 262.771 26.5186 262.771 24.7123C262.771 22.4872 260.2 22.2278 259.246 21.0889C262.523 19.8321 266.548 21.7615 266.548 24.7123C266.548 28.0233 262.008 29.5437 257.987 29.5437C250.028 29.5437 242.809 26.2058 236.473 23.1905C235.403 22.6805 234.657 22.507 234.318 21.4916C235.884 19.6213 241.369 21.2313 241.369 16.8616C241.369 12.7511 240.056 11.8038 236.987 14.969C234.65 17.3791 230.373 16.7256 227.595 15.5934C226.883 15.3034 226.168 14.7947 225.539 14.4182C223.5 13.1969 220.324 11.1882 218.743 9.5856L216.131 7.24498C213.775 5.32419 210.911 3.5941 207.841 2.39753C198.14 -1.38318 186.314 -0.997438 179.059 5.90015C177.271 7.60048 175.395 9.39845 174.054 11.3605C173.546 12.1025 172.822 13.4321 172.123 13.8421C171.432 11.4731 168.592 8.55513 166.801 6.62237C160.102 -0.601329 147.865 -1.5245 138.131 1.96739C132.237 4.08198 129.879 6.44108 126.103 9.86474L124.026 11.626C121.536 13.7279 116.845 16.6602 112.697 16.6602Z" fill="url(#paint0_linear_359_684)"/>
<path fill-rule="evenodd" clip-rule="evenodd" d="M188.741 97.7856C188.741 99.7666 189.156 101.519 189.989 102.827C194.186 109.427 205.607 102.149 196.252 97.2163C194.871 96.4882 191.221 95.37 188.993 95.37C188.993 96.5463 188.741 96.7765 188.741 97.7856Z" fill="url(#paint1_linear_359_684)"/>
<path fill-rule="evenodd" clip-rule="evenodd" d="M188.741 86.3112L188.993 89.1295C192.113 88.922 199.568 86.7448 199.568 83.4931V82.084C199.568 80.0095 194.153 76.5243 190.137 81.1864C189.195 82.2785 188.741 84.5115 188.741 86.3112Z" fill="url(#paint2_linear_359_684)"/>
<path fill-rule="evenodd" clip-rule="evenodd" d="M190 92.149C190.502 92.6962 192.966 94.1627 193.786 94.5579C205.259 100.081 208.625 88.123 199.065 88.123C195.923 88.123 191.013 90.94 190 92.149Z" fill="url(#paint3_linear_359_684)"/>
<path fill-rule="evenodd" clip-rule="evenodd" d="M209.389 116.909C209.389 120.531 212.4 124.527 216.011 123.219C216.589 123.01 217.039 122.683 217.353 122.27C218.772 120.404 217.311 117.318 216.09 115.779C213.887 113.006 209.389 113.697 209.389 116.909Z" fill="url(#paint4_linear_359_684)"/>
<path fill-rule="evenodd" clip-rule="evenodd" d="M145.179 117.715L143.92 124.761C145.73 125.729 145.448 126.17 148.453 126.17C151.745 126.17 153.188 120.359 150.91 118.367C148.904 116.614 146.452 117.471 145.179 117.715Z" fill="url(#paint5_linear_359_684)"/>
<path fill-rule="evenodd" clip-rule="evenodd" d="M265.793 68.7978H270.073C272.663 68.7978 274.901 67.0206 274.485 64.8841C274.026 62.5243 272.059 61.7522 268.814 61.7522H265.793V68.7978Z" fill="url(#paint6_linear_359_684)"/>
<path fill-rule="evenodd" clip-rule="evenodd" d="M173.885 62.7587V68.7979C176.607 68.7979 182.447 69.3687 182.447 65.577C182.447 64.1385 181.534 63.1736 180.223 62.7245C180.222 62.7243 173.885 61.2708 173.885 62.7587Z" fill="url(#paint7_linear_359_684)"/>
<path fill-rule="evenodd" clip-rule="evenodd" d="M173.885 61.1484C176.468 61.1484 180.684 61.3793 180.684 58.1288C180.684 57.2882 180.317 56.5049 179.751 56.0558C178.21 54.8338 176.028 55.1092 173.885 55.1092V61.1484Z" fill="url(#paint8_linear_359_684)"/>
<path fill-rule="evenodd" clip-rule="evenodd" d="M57.0481 63.1614H63.0914C63.0625 62.1248 62.233 61.0449 61.7938 60.1726C61.3981 59.387 60.5637 57.9534 60.3214 57.1223H59.8179C59.6922 58.3293 57.1858 61.8367 57.0481 63.1614Z" fill="url(#paint9_linear_359_684)"/>
<path fill-rule="evenodd" clip-rule="evenodd" d="M166.834 121.338H168.093C168.093 116.52 162.227 117.279 161.475 120.516C161.253 121.472 162.008 121.058 163.514 121.172C164.571 121.253 165.399 121.338 166.834 121.338Z" fill="url(#paint10_linear_359_684)"/>
<path fill-rule="evenodd" clip-rule="evenodd" d="M128.056 116.507C130.289 116.547 132.37 117.675 134.603 117.715C134.603 115.761 134.889 113.89 131.33 113.89C129.712 113.89 128.184 115.291 128.056 116.507Z" fill="url(#paint11_linear_359_684)"/>
<path fill-rule="evenodd" clip-rule="evenodd" d="M181.439 92.149C181.439 94.089 185.719 94.5211 185.719 92.149C185.719 89.7895 181.439 90.1539 181.439 92.149Z" fill="url(#paint12_linear_359_684)"/>
<path fill-rule="evenodd" clip-rule="evenodd" d="M181.942 88.9283C181.942 89.2367 182.181 89.5784 182.386 89.7811C183.738 91.1129 186.037 89.5228 184.772 88.2765C183.39 86.9141 181.942 88.5645 181.942 88.9283Z" fill="url(#paint13_linear_359_684)"/>
<path fill-rule="evenodd" clip-rule="evenodd" d="M182.194 94.9674V95.9738C182.713 96.2516 182.848 96.5779 183.453 96.5779C185.27 96.5779 185.695 95.6358 184.46 94.1622C183.626 94.1622 182.194 94.0693 182.194 94.9674Z" fill="url(#paint14_linear_359_684)"/>
</g>
</g>
<defs>
<filter id="filter0_i_359_684" x="4.16919" y="0" width="336.662" height="145.724" filterUnits="userSpaceOnUse" color-interpolation-filters="sRGB">
<feFlood flood-opacity="0" result="BackgroundImageFix"/>
<feBlend mode="normal" in="SourceGraphic" in2="BackgroundImageFix" result="shape"/>
<feColorMatrix in="SourceAlpha" type="matrix" values="0 0 0 0 0 0 0 0 0 0 0 0 0 0 0 0 0 0 127 0" result="hardAlpha"/>
<feOffset dy="4"/>
<feGaussianBlur stdDeviation="2"/>
<feComposite in2="hardAlpha" operator="arithmetic" k2="-1" k3="1"/>
<feColorMatrix type="matrix" values="0 0 0 0 0.490196 0 0 0 0 0.533333 0 0 0 0 0 0 0 0 1 0"/>
<feBlend mode="normal" in2="shape" result="effect1_innerShadow_359_684"/>
</filter>
<linearGradient id="paint0_linear_359_684" x1="5.09881" y1="103.418" x2="334.181" y2="101.563" gradientUnits="userSpaceOnUse">
<stop stop-color="#181818"/>
<stop offset="0.0708332" stop-color="#181818"/>
<stop offset="0.440625" stop-color="white" stop-opacity="0.913542"/>
<stop offset="0.513542" stop-color="white"/>
<stop offset="0.95625" stop-color="#181818"/>
<stop offset="1" stop-color="#181818"/>
</linearGradient>
<linearGradient id="paint1_linear_359_684" x1="5.09881" y1="103.418" x2="334.181" y2="101.563" gradientUnits="userSpaceOnUse">
<stop stop-color="#181818"/>
<stop offset="0.0708332" stop-color="#181818"/>
<stop offset="0.440625" stop-color="white" stop-opacity="0.913542"/>
<stop offset="0.513542" stop-color="white"/>
<stop offset="0.95625" stop-color="#181818"/>
<stop offset="1" stop-color="#181818"/>
</linearGradient>
<linearGradient id="paint2_linear_359_684" x1="5.09887" y1="103.418" x2="334.181" y2="101.563" gradientUnits="userSpaceOnUse">
<stop stop-color="#181818"/>
<stop offset="0.0708332" stop-color="#181818"/>
<stop offset="0.440625" stop-color="white" stop-opacity="0.913542"/>
<stop offset="0.513542" stop-color="white"/>
<stop offset="0.95625" stop-color="#181818"/>
<stop offset="1" stop-color="#181818"/>
</linearGradient>
<linearGradient id="paint3_linear_359_684" x1="5.09893" y1="103.418" x2="334.181" y2="101.563" gradientUnits="userSpaceOnUse">
<stop stop-color="#181818"/>
<stop offset="0.0708332" stop-color="#181818"/>
<stop offset="0.440625" stop-color="white" stop-opacity="0.913542"/>
<stop offset="0.513542" stop-color="white"/>
<stop offset="0.95625" stop-color="#181818"/>
<stop offset="1" stop-color="#181818"/>
</linearGradient>
<linearGradient id="paint4_linear_359_684" x1="5.09862" y1="103.418" x2="334.181" y2="101.563" gradientUnits="userSpaceOnUse">
<stop stop-color="#181818"/>
<stop offset="0.0708332" stop-color="#181818"/>
<stop offset="0.440625" stop-color="white" stop-opacity="0.913542"/>
<stop offset="0.513542" stop-color="white"/>
<stop offset="0.95625" stop-color="#181818"/>
<stop offset="1" stop-color="#181818"/>
</linearGradient>
<linearGradient id="paint5_linear_359_684" x1="5.09874" y1="103.418" x2="334.181" y2="101.563" gradientUnits="userSpaceOnUse">
<stop stop-color="#181818"/>
<stop offset="0.0708332" stop-color="#181818"/>
<stop offset="0.440625" stop-color="white" stop-opacity="0.913542"/>
<stop offset="0.513542" stop-color="white"/>
<stop offset="0.95625" stop-color="#181818"/>
<stop offset="1" stop-color="#181818"/>
</linearGradient>
<linearGradient id="paint6_linear_359_684" x1="5.09909" y1="103.418" x2="334.181" y2="101.563" gradientUnits="userSpaceOnUse">
<stop stop-color="#181818"/>
<stop offset="0.0708332" stop-color="#181818"/>
<stop offset="0.440625" stop-color="white" stop-opacity="0.913542"/>
<stop offset="0.513542" stop-color="white"/>
<stop offset="0.95625" stop-color="#181818"/>
<stop offset="1" stop-color="#181818"/>
</linearGradient>
<linearGradient id="paint7_linear_359_684" x1="5.09862" y1="103.418" x2="334.181" y2="101.563" gradientUnits="userSpaceOnUse">
<stop stop-color="#181818"/>
<stop offset="0.0708332" stop-color="#181818"/>
<stop offset="0.440625" stop-color="white" stop-opacity="0.913542"/>
<stop offset="0.513542" stop-color="white"/>
<stop offset="0.95625" stop-color="#181818"/>
<stop offset="1" stop-color="#181818"/>
</linearGradient>
<linearGradient id="paint8_linear_359_684" x1="5.09869" y1="103.418" x2="334.181" y2="101.563" gradientUnits="userSpaceOnUse">
<stop stop-color="#181818"/>
<stop offset="0.0708332" stop-color="#181818"/>
<stop offset="0.440625" stop-color="white" stop-opacity="0.913542"/>
<stop offset="0.513542" stop-color="white"/>
<stop offset="0.95625" stop-color="#181818"/>
<stop offset="1" stop-color="#181818"/>
</linearGradient>
<linearGradient id="paint9_linear_359_684" x1="5.09879" y1="103.418" x2="334.181" y2="101.563" gradientUnits="userSpaceOnUse">
<stop stop-color="#181818"/>
<stop offset="0.0708332" stop-color="#181818"/>
<stop offset="0.440625" stop-color="white" stop-opacity="0.913542"/>
<stop offset="0.513542" stop-color="white"/>
<stop offset="0.95625" stop-color="#181818"/>
<stop offset="1" stop-color="#181818"/>
</linearGradient>
<linearGradient id="paint10_linear_359_684" x1="5.09869" y1="103.418" x2="334.181" y2="101.563" gradientUnits="userSpaceOnUse">
<stop stop-color="#181818"/>
<stop offset="0.0708332" stop-color="#181818"/>
<stop offset="0.440625" stop-color="white" stop-opacity="0.913542"/>
<stop offset="0.513542" stop-color="white"/>
<stop offset="0.95625" stop-color="#181818"/>
<stop offset="1" stop-color="#181818"/>
</linearGradient>
<linearGradient id="paint11_linear_359_684" x1="5.09815" y1="103.418" x2="334.182" y2="101.563" gradientUnits="userSpaceOnUse">
<stop stop-color="#181818"/>
<stop offset="0.0708332" stop-color="#181818"/>
<stop offset="0.440625" stop-color="white" stop-opacity="0.913542"/>
<stop offset="0.513542" stop-color="white"/>
<stop offset="0.95625" stop-color="#181818"/>
<stop offset="1" stop-color="#181818"/>
</linearGradient>
<linearGradient id="paint12_linear_359_684" x1="5.09918" y1="103.418" x2="334.18" y2="101.563" gradientUnits="userSpaceOnUse">
<stop stop-color="#181818"/>
<stop offset="0.0708332" stop-color="#181818"/>
<stop offset="0.440625" stop-color="white" stop-opacity="0.913542"/>
<stop offset="0.513542" stop-color="white"/>
<stop offset="0.95625" stop-color="#181818"/>
<stop offset="1" stop-color="#181818"/>
</linearGradient>
<linearGradient id="paint13_linear_359_684" x1="5.09957" y1="103.418" x2="334.18" y2="101.563" gradientUnits="userSpaceOnUse">
<stop stop-color="#181818"/>
<stop offset="0.0708332" stop-color="#181818"/>
<stop offset="0.440625" stop-color="white" stop-opacity="0.913542"/>
<stop offset="0.513542" stop-color="white"/>
<stop offset="0.95625" stop-color="#181818"/>
<stop offset="1" stop-color="#181818"/>
</linearGradient>
<linearGradient id="paint14_linear_359_684" x1="5.09852" y1="103.418" x2="334.181" y2="101.563" gradientUnits="userSpaceOnUse">
<stop stop-color="#181818"/>
<stop offset="0.0708332" stop-color="#181818"/>
<stop offset="0.440625" stop-color="white" stop-opacity="0.913542"/>
<stop offset="0.513542" stop-color="white"/>
<stop offset="0.95625" stop-color="#181818"/>
<stop offset="1" stop-color="#181818"/>
</linearGradient>
<clipPath id="clip0_359_684">
<rect width="345" height="150" fill="white"/>
</clipPath>
</defs>
</svg>
