<svg width="1058" height="565" viewBox="0 0 1058 565" fill="none" xmlns="http://www.w3.org/2000/svg">
<path fill-rule="evenodd" clip-rule="evenodd" d="M521.483 502.989C517.498 518.122 478.525 516.712 486.046 484.707C487.036 480.493 489.48 476.011 492.419 472.713C499.186 465.121 523.065 459.923 523.065 487.741C512.594 487.741 504.614 486.939 493.786 486.939C493.786 513.459 519.558 503.152 521.483 502.989ZM679.747 473.296C679.747 480.286 678.147 486.179 673.208 490.74C662.06 501.032 644.075 496.527 638.682 482.841C629.846 460.42 649.955 444.931 666.569 452.153C673.391 455.118 679.747 463.728 679.747 473.296ZM539.683 535.893H537.309C537.231 532.356 536.517 532.141 536.517 527.867C546.965 527.867 546.601 528.858 552.076 514.688C553.858 510.075 550.135 504.082 546.77 498.21L534.44 474.6C532.62 471.308 530.767 470.971 527.022 470.086V468.481C535.751 468.481 541.907 467.678 549.97 467.678V469.284C546.155 469.605 546.322 470.87 542.848 471.691C543.088 474.613 552.591 491.778 554.674 495.811C555.444 497.302 555.605 498.307 556.301 499.779C559.199 497.626 566.404 473.129 566.588 470.888C561.446 469.673 560.357 469.372 559.466 466.876H577.667C575.909 468.424 576.059 468.303 573.782 469.356C568.894 471.616 570.44 472.093 566.702 482.24L556.295 511.812C555.088 515.171 553.913 518.104 552.647 521.753C550.649 527.507 546.613 535.893 539.683 535.893ZM386.958 471.691C386.958 477.211 387.27 482.094 392.134 485.701C401.213 492.435 407.442 489.455 412.28 489.347C400.162 506.12 365.009 489.075 382.218 461.267C392.197 445.142 417.028 447.981 417.028 465.271C417.028 472.712 416.596 470.518 416.236 474.901C409.601 474.751 393.998 468.205 387.749 467.678C387.335 469.478 386.958 469.523 386.958 471.691ZM430.48 462.863C432.662 462.814 442.534 460.334 443.933 459.653V466.073C447.689 465.756 444.628 466.025 449.682 463.879C480.236 450.903 481.996 507.002 451.846 507.002C446.493 507.002 442.736 505.62 438.393 504.594C437.348 509.145 436.02 517.684 436.02 523.052C438.069 524.444 440.937 525.911 442.35 527.867C435.36 527.709 427.184 524.815 420.193 524.657C422.311 521.726 424.432 523.385 426.567 521.491C428.286 519.965 433.052 482.905 433.997 477.663C434.43 475.257 435.236 470.771 434.528 469.109L431.498 465.043C430.391 463.216 430.959 463.788 430.48 462.863ZM617.232 464.469L621.882 497.471C622.814 501.96 622.696 499.657 627.173 501.737C629.277 502.714 628.308 502.289 629.103 502.989L608.528 506.2C609.259 503.425 609.855 503.644 614.067 501.384C612.833 496.01 612.251 490.108 611.46 483.965C610.734 478.323 609.32 472.804 609.32 466.073C603.306 466.073 600.329 467.678 595.076 467.678C595.076 476.958 602.215 510.212 586.371 510.212C583.229 510.212 583.945 506.211 583.206 502.989C598.114 501.731 591.097 477.847 590.328 468.481C587.954 467.92 585.82 467.096 583.206 466.876V465.271C589.541 465.271 596.667 463.6 602.852 462.724L622.772 459.653C621.835 462.278 620.425 462.755 617.232 464.469ZM710.609 450.825C718.525 454.677 735.172 462.132 743.844 462.863L734.449 467.868C729.296 470.021 730.458 467.962 725.314 465.605C721.706 463.952 718.648 462.752 715.335 461.281C712.364 459.961 707.761 457.324 704.279 457.246C712.75 473.484 708.012 474.099 718.522 474.099V475.703C712.883 476.179 705.605 482.414 699.53 482.926L704.279 476.506C701.62 473.404 692.176 450.028 689.243 444.405H682.121C684.976 441.889 697.117 436.919 701.113 434.775C700.593 441.119 695.603 437.288 698.551 444.506L703.487 455.64C706.104 453.696 712.519 438.697 714.565 434.775C714.347 434.626 713.714 434.263 713.567 434.183C713.458 434.123 713.182 433.98 713.049 433.905C709.571 431.974 710.471 433.245 709.817 430.762C714.777 429.591 719.893 425.514 724.852 424.342C724.384 426.12 720.448 430.836 717.467 436.915L710.609 450.825ZM332.356 423.539L359.522 436.116C363.198 437.853 373.969 441.762 375.879 444.405C369.496 444.405 369.079 444.205 366.984 449.028C364.776 454.114 355.359 473.629 354.513 477.308C355.991 479.546 357.678 480.721 358.47 483.729C355.2 481.974 341.477 476.866 339.478 474.099C345.556 474.099 346.401 474.166 348.491 469.596C350.553 465.081 360.593 443.447 360.844 440.393C356.994 439.483 355.73 438.536 352.412 436.906C349.394 435.423 346.984 434.65 344.226 433.17L335.114 452.819C334.277 454.648 333.712 455.871 332.875 457.771C332.603 458.386 332.204 459.308 331.895 459.993C327.295 470.177 331.377 464.968 333.148 471.691L316.764 464.231C315.233 463.135 315.628 463.968 314.947 462.061H322.069C322.552 459.96 324.333 456.119 325.245 454.046C326.466 451.266 327.949 448.729 329.08 445.898L336.313 429.96L333.301 425.792C332.56 424.425 332.591 423.994 332.356 423.539ZM637.807 352.115C637.807 346.135 639.031 344.892 644.929 344.892C652.107 344.892 656.008 350.384 656.008 357.733C660.466 357.834 662.023 360.894 666.295 367.363C665.001 369.323 663.702 371.152 662.361 373.004C660.451 375.64 660.146 376.9 656.008 376.993C656.008 392.34 637.807 393.402 637.807 384.216C637.807 377.93 639.763 380.401 645.72 381.809L648.229 378.723C647.229 374.833 646.658 375.6 644.929 372.981C649.901 371.635 650.398 363.227 644.929 361.746C646.185 359.843 649.91 356.78 646.653 354.407C643.492 352.104 637.807 357.529 637.807 352.115ZM618.815 343.288C634.836 347.073 630.946 355.257 638.598 360.943C635.829 365.138 632.693 367.881 639.39 373.784C634.791 375.029 633.35 384.938 626.148 389.245C623.558 390.794 621.849 390.722 618.815 391.439C619.19 396.004 625.304 409.446 616.274 419.358C604.203 432.609 575.292 431.095 575.292 395.452C573.482 396.116 574.691 395.702 573.447 396.79C572.319 397.776 573.399 397.115 571.804 398.334C566.951 402.042 556.031 401.464 554.003 389.755C552.668 382.043 553.345 376.191 545.223 376.191C538.846 376.191 534.693 384.216 541.265 384.216C545.587 384.216 540.18 381.474 548.388 383.414C548.895 385.566 549.179 384.927 549.179 386.623C549.179 395.456 529.396 394.741 529.396 383.414V378.599H424.15C421.24 378.599 421.776 380.312 421.776 384.216H405.158C405.158 374.648 405.832 376.191 397.245 376.191C395.337 373.303 393.622 370.266 391.705 367.363C392.757 366.136 392.023 367.032 393.023 365.489C393.701 364.442 393.866 364.098 394.556 363.032C395.847 361.034 396.214 360.51 397.245 358.536C405.832 358.536 405.158 360.078 405.158 350.51H421.776V356.128H433.645C433.645 341.352 431.272 360.927 431.272 338.473H436.811V345.695H445.516V340.077H460.551V345.695H470.047V338.473H475.586V349.708C471.952 350.015 472.42 349.756 472.42 356.128H529.396C529.396 348.21 529.742 342.485 542.057 342.485C549.521 342.485 551.704 352.115 545.223 352.115C543.836 352.115 538.1 347.291 538.1 353.721C538.1 357.017 542.451 358.536 546.013 358.536C553.072 358.536 552.93 351.687 553.899 345.667C554.447 342.254 554.852 340.453 556.847 338.223C560.596 334.034 567.289 332.71 572.039 336.957C572.161 337.066 572.315 337.246 572.438 337.355C574.331 339.043 573.133 338.69 575.292 339.275C575.292 293.65 626.679 301.748 620.544 336.214C619.834 340.208 619.082 340.034 618.815 343.288ZM959.876 393.044H850.673C848.096 393.044 847.508 391.136 847.508 389.031C847.508 384.652 853.361 385.795 857.792 385.818L955.919 385.823C959.532 378.186 956.939 367.955 976.147 342.938C993.227 320.695 1039.4 300.642 1043.86 308.769C1049.16 318.423 1022.32 310.656 990.867 338.606L980.896 349.359C973.459 359 966.115 373.549 964.063 386.056C963.506 389.45 963.314 393.044 959.876 393.044ZM106.037 385.822L203.372 385.82C209.531 385.801 214.449 384.36 214.449 389.834C214.449 391.712 213.136 393.044 211.284 393.044H102.081C97.8272 393.044 98.0596 385.072 95.8598 378.488C91.9729 366.857 89.4764 360.807 81.7412 350.273C79.7358 347.542 79.1139 347.056 76.957 344.691L71.4181 339.074C41.3047 310.816 12.6812 318.628 18.0938 308.768C22.563 300.627 59.4805 319.77 68.6299 326.653C85.1496 339.083 97.9258 356.643 103.673 376.985C104.433 379.677 104.966 383.555 106.037 385.822ZM156.683 275.074C162.236 278.054 162.447 276.113 164.596 279.086H144.021C144.602 278.574 144.15 278.851 145.31 277.986C151.174 273.612 149.415 278.222 154.43 265.566L172.281 221.876C175.655 213.246 178.658 209.679 183.023 221.074L202.556 268.677C207.71 280.733 207.446 273.774 211.284 279.086H186.753C188.634 276.482 186.648 278.267 190.18 276.944C192.534 276.062 192.763 276.095 194.666 275.074C194.498 273.035 189.348 256.615 185.961 256.615H165.387C162.544 256.615 161.979 260.825 160.3 265.1C159.166 267.991 156.909 272.312 156.683 275.074ZM447.889 234.145V214.884H505.656V234.145C503.467 233.341 504.513 234.372 502.955 231.267C496.27 217.949 502.898 219.699 483.499 219.699C481.676 219.699 481.125 220.258 481.125 222.107V271.06C481.125 277.873 488.335 274.826 491.412 279.086H462.133C463.106 278.229 463.185 278.145 464.502 277.476C465.819 276.807 465.634 276.971 467.337 276.339C469.85 275.405 472.42 275.214 472.42 272.666V219.699H455.803C455.11 222.716 453.738 224.675 452.374 227.458C449.544 233.231 450.57 233.161 447.889 234.145ZM82.2983 234.145V214.884H140.065V234.145C136.472 233.172 139.107 234.568 135.317 226.922C134.604 225.485 134.302 224.801 133.562 223.083C131.544 218.397 133.875 219.699 115.534 219.699V272.666C115.534 275.694 118.956 275.404 122.909 277.224C124.626 278.015 124.716 278.112 125.821 279.086H96.5414L100.574 276.755C102.771 275.836 103.495 275.288 106.037 275.074V219.699C85.6423 219.699 91.971 216.925 85.2454 230.714C83.8409 233.592 83.8402 233.579 82.2983 234.145ZM391.705 242.973V249.393C391.705 276.799 418.064 280.486 428.559 271.52C429.928 270.352 434.772 261.811 435.228 259.826H436.811C436.711 264.366 435.228 271.21 435.228 275.876C421.601 279.096 432.816 279.889 409.906 279.889C399.171 279.889 388.088 271.918 384.101 261.92C374.22 237.147 395.028 214.082 413.071 214.082C421.745 214.082 428.1 214.056 435.228 218.897V234.947C433.353 234.259 434.16 234.661 433.088 233.105C430.096 228.756 429.572 218.095 414.654 218.095C401.988 218.095 391.705 230.134 391.705 242.973ZM516.735 214.884C530.806 214.884 549.027 212.856 558.387 218.387C566.913 223.426 566.033 234.962 559.175 240.27C558.058 241.135 556.978 241.788 555.72 242.384L551.553 244.577C558.722 245.183 566.084 248.959 568.742 254.433C572.372 261.905 568.991 269.18 564.011 273.263C557.914 278.261 550.486 279.118 542.851 279.088C533.884 279.054 524.911 279.086 515.943 279.086L519.217 276.788C520.711 276.054 522.265 275.449 523.856 275.074V219.699C515.509 215.22 519.379 218.376 516.735 214.884ZM907.648 214.884H932.971C931.24 217.28 927.71 218.277 925.057 219.699V263.838C927.521 262.165 931.27 256.645 933.577 254.02C936.687 250.482 938.875 247.651 941.912 244.015C943.445 242.18 958.293 225.688 958.293 223.712C958.293 215.615 954.051 219.966 950.38 214.884H975.702C973.302 218.206 967.789 217.885 967.789 221.305V272.666C967.789 276.086 973.302 275.765 975.702 279.086H950.38C951.941 276.925 953.816 276.673 958.293 274.271V231.737C955.184 232.579 951.708 238.699 949.39 241.166L928.414 266.441C919.347 275.796 930.339 275.444 932.971 279.086H907.648C910.048 275.765 915.562 276.086 915.562 272.666V221.305C915.562 217.885 910.048 218.206 907.648 214.884ZM869.665 214.884H894.987C892.587 218.206 887.074 217.885 887.074 221.305V272.666C887.074 276.894 892.481 275.618 894.987 279.086H869.665C872.065 275.765 877.578 276.086 877.578 272.666V221.305C877.578 217.036 872.812 219.651 869.665 214.884ZM804.776 214.884H832.472L822.185 219.699V241.367C836.97 241.367 859.378 240.834 859.378 260.628C859.378 271.12 849.812 276.681 840.743 278.646C834.148 280.075 813.058 279.086 804.776 279.086C807.176 275.765 812.689 276.086 812.689 272.666V221.305C812.689 217.885 807.176 218.206 804.776 214.884ZM725.644 214.884H750.175C747.267 219.289 743.053 217.011 743.053 221.305V243.775C780.847 243.775 775.541 246.633 775.499 233.343C775.485 228.796 775.497 224.247 775.497 219.699C772.818 218.974 769.145 217.249 767.584 214.884H792.115C790.154 217.854 788.141 218.01 784.993 219.699V275.074L792.907 279.086H767.584C769.984 275.765 775.497 276.086 775.497 272.666V248.591H743.053V275.074C745.882 275.742 748.68 277.016 750.175 279.086H725.644C727.375 276.69 730.905 275.694 733.557 274.271V219.699C730.877 218.974 727.205 217.249 725.644 214.884ZM645.72 214.884H671.043C668.643 218.206 663.13 217.885 663.13 221.305V243.775H695.574V221.305C695.574 217.885 690.06 218.206 687.66 214.884H712.983C710.583 218.206 705.069 217.885 705.069 221.305V272.666C705.069 276.086 710.583 275.765 712.983 279.086H687.66C689.915 275.965 695.574 276.281 695.574 272.666V248.591H663.13V272.666C663.13 276.086 668.643 275.765 671.043 279.086H645.72C648.12 275.765 653.633 276.086 653.633 272.666V221.305C653.633 217.885 648.12 218.206 645.72 214.884ZM581.623 214.884H629.894V230.935C627.124 229.918 629.684 232.089 627.309 228.741C619.92 218.326 632.269 219.699 599.032 219.699V243.775C615.843 243.775 614.672 245.353 618.024 239.762C619.183 237.829 619.471 236.429 621.98 235.75C621.98 241.867 623.362 252.024 621.189 256.615C618.39 254.536 617.476 248.591 614.067 248.591H599.032V274.271H623.563C627.093 274.271 628.727 264.061 632.268 261.43V279.086H581.623C584.022 275.765 589.536 276.086 589.536 272.666V221.305C589.536 217.036 584.771 219.651 581.623 214.884ZM301.495 214.884H326.817C324.418 218.206 318.904 217.885 318.904 221.305V243.775H351.348V221.305C351.348 217.885 345.834 218.206 343.435 214.884H368.757C366.358 218.206 360.844 217.885 360.844 221.305V272.666C360.844 276.086 366.358 275.765 368.757 279.086H343.435C345.689 275.965 351.348 276.281 351.348 272.666V248.591H318.904V272.666C318.904 276.086 324.418 275.765 326.817 279.086H301.495C303.894 275.765 309.408 276.086 309.408 272.666V221.305C309.408 217.885 303.894 218.206 301.495 214.884ZM238.189 219.699V263.036C242.187 261.953 257.222 242.183 260.683 237.697L269.309 227.184C272.328 223.703 272.216 225.775 272.216 219.699C269.2 218.987 265.925 217.342 264.302 214.884L288.833 216.49C286.293 217.09 280.92 218.381 280.92 221.305V272.666C280.92 276.086 286.434 275.765 288.833 279.086H264.302C266.033 276.69 269.564 275.694 272.216 274.271V231.737C269.753 232.404 268.76 233.777 267.344 235.624L254.696 250.885C252.218 253.996 238.189 268.868 238.189 272.666C238.189 276.086 243.702 275.765 246.102 279.086H220.78L225.152 276.297C227.036 275.322 228.693 274.802 228.693 272.666V221.305C228.693 218.939 227.317 218.937 225.556 218.066C225.368 217.973 223.636 217.215 223.394 217.048C221.84 215.974 222.249 216.784 221.571 214.884H246.102C244.371 217.28 240.84 218.277 238.189 219.699ZM925.848 194.821H933.762C933.762 198.06 934.088 200.606 935.52 202.669C939.021 207.715 950.38 208.483 950.38 194.821H958.293C958.293 214.221 925.848 214.221 925.848 194.821ZM847.508 123.397C847.508 121.518 848.821 120.187 850.673 120.187H959.876C963.706 120.187 964.111 127.76 966.03 134.81C968.279 143.071 971.253 149.497 975.547 156.458L989.827 174.076C996.659 179.596 1002.92 184.748 1010.92 188.794L1029.6 196.34C1041.22 199.811 1041.24 196.51 1044.55 202.846C1041.75 208.203 1042.17 208.359 1025.36 203.042C1014.26 199.53 1012.6 198.174 1003.93 193.483C1001.11 191.962 999.939 191.567 997.396 189.673C979.482 176.335 969.464 165.8 960.886 144.04C959.814 141.322 959.04 139.149 958.189 136.343C957.503 134.079 956.887 130.259 955.919 128.212C940.031 128.212 856.541 129.357 848.299 127.41C847.886 125.609 847.508 125.565 847.508 123.397ZM208.119 128.212H105.247C105.057 136.831 97.8815 151.85 94.4274 158.169C88.8165 168.433 79.5027 178.177 70.547 185.311L51.3145 197.105C44.5327 200.301 28.9173 206.859 19.7837 206.859C19.4091 206.292 12.7613 200.291 23.252 198.339C36.8844 195.804 48.5406 190.854 59.9896 183.433C72.6372 175.235 82.9764 163.884 89.6869 150.151C93.5428 142.259 95.9318 135.973 97.7987 127.079C98.4449 123.998 98.9417 120.187 102.081 120.187H211.284C215.143 120.187 217.419 128.212 208.119 128.212ZM564.214 106.544C543.681 95.5258 546.51 59.8548 570.641 41.6368C578.45 35.7416 593.459 29.2923 609.014 32.2197C634.201 36.9597 660.77 53.7521 652.069 84.092C650.582 89.2792 646.581 96.5103 643.181 99.9564C629.056 114.273 602.942 110.623 592.345 94.8678C587.456 87.5996 585.744 74.0195 592.095 66.6057C594.917 63.3132 597.21 64.0621 600.615 62.4052C599.43 66.9042 595.545 68.8402 594.451 75.4361C591.957 90.4778 607.064 105.28 627.948 98.9535C635.003 96.8164 640.348 92.0893 643.505 85.8392C650.636 71.7158 644.617 56.005 635.293 49.7079C624.165 42.1929 620.269 39.9807 606.144 39.9228C593.699 39.8724 584.172 45.1319 576.877 50.3694C569.304 55.8058 563.022 63.2017 560.132 73.514C558.807 78.2429 558.101 85.3446 559.09 91.6781C559.698 95.5747 559.916 96.27 561.14 99.229C562.156 101.687 563.546 103.637 564.214 106.544ZM411.488 68.8255C411.488 81.193 413.203 90.6475 426.293 97.147C429.72 98.8481 431.83 99.1924 436.36 99.8338C443.434 100.836 451.29 97.7898 455.151 94.6473C463.026 88.2381 465.95 79.5614 461.359 69.6111C460.122 66.9309 458.182 65.4326 457.385 62.4052C469.968 63.4678 472.318 80.0657 467.182 90.799C457.838 110.324 425.791 117.377 409.573 92.436C404.116 84.0431 402.24 72.2105 405.834 61.4855C411.831 43.5832 437.546 31.107 453.429 31.107C475.012 31.107 493.199 40.5788 502.356 60.1339C507.523 71.1687 509.512 85.769 503.273 96.9052C500.193 102.404 497.195 103.957 492.204 107.347C492.844 104.913 495.724 100.307 496.966 96.9286C503.414 79.383 496.672 65.8575 484.891 53.7713C469.086 37.5562 441.531 34.6862 423.341 48.7463C418.45 52.5277 411.488 60.3206 411.488 68.8255ZM341.061 66.4178C327.01 66.4178 323.533 51.9726 317.321 51.9726C311.983 51.9726 312.573 64.8794 312.573 69.6284C312.573 74.2455 317.186 78.6473 320.458 80.0898C323.169 81.2845 324.789 81.1621 328.21 81.8578C331.284 82.4826 332.162 83.4981 334.73 84.8762C333.069 91.1835 317.359 98.4546 311.508 101.451C295.661 109.569 282.032 117.779 261.137 117.779C231.984 117.779 227.13 94.7459 239.743 85.6497C245.513 81.4884 245.972 81.6664 255.598 81.6664C254.716 85.0158 251.985 86.283 249.865 88.6921C234.314 106.37 262.903 113.174 270.197 102.09C276.255 92.8836 276.697 78.77 266.551 72.1637C255.642 65.0606 242.663 64.6574 232.183 72.3655C215.133 84.9071 225.947 97.0952 208.931 96.9355L88.6288 96.1114C86.491 96.1114 86.447 96.4945 84.6719 96.9142C83.1647 100.1 83.4386 100.491 82.9554 104.803C79.6901 133.949 61.2155 159.14 34.156 169.272C25.4802 172.52 10.1035 175.511 0 176.363V332.855C9.01703 337.242 37.9206 333.049 60.343 355.923C67.1649 362.882 72.9824 371.698 76.4705 382.101C79.1426 390.07 81.0717 399.098 82.1603 407.629C82.5796 410.916 82.3377 415.515 85.4635 415.515C98.8703 415.515 186.626 416.602 195.915 415.176C200.955 414.402 222.16 413.84 226.683 415.145C234.638 417.441 230.636 434.753 246.888 458.054L256.944 471.129C267.897 484.261 281.08 495.078 295.164 504.594C311.337 515.523 328.644 524.267 346.827 531.649C350.867 533.29 354.144 534.501 358.239 536.127C381.889 545.515 407.423 551.741 432.511 556.304C437.522 557.216 441.296 557.823 446.168 558.504C450.261 559.076 455.971 560.248 459.883 560.645C489.82 563.686 523.945 566.565 554.76 564.023C557.298 563.814 560.051 564.148 562.589 563.938C574.842 562.928 589.441 562.231 601.526 560.09C611.375 558.346 621.821 557.424 630.846 555.317C668.715 546.473 698.916 539.395 733.824 521.718C753.565 511.721 773.428 499.755 789.133 483.914C791.055 481.976 792.253 481.558 793.884 479.905L805.559 466.065C807.023 464.123 807.903 463.33 809.381 461.113C816.524 450.404 822.31 439.136 825.512 426.111C829.411 410.25 828.096 414.712 865.708 414.712C877.668 414.712 886.861 415.515 898.944 415.515H974.911C974.911 393.971 983.086 370.674 997.649 355.915C1004.01 349.47 1014.04 343.27 1023.27 340.17C1029.27 338.154 1032.37 337.04 1039.57 335.836L1058 333.657V183.586C1058 175.178 1053.1 175.279 1045.4 174.699C1017.94 172.627 992.074 155.863 981.91 129.942C978.793 121.992 976.186 113.134 974.792 104.256C974.039 99.4564 974.908 96.1114 970.163 96.1114C929.733 96.1114 891.736 96.7528 851.462 96.9161C833.569 96.9884 840.893 93.7814 835.121 82.9924C821.33 57.2169 782.619 65.0046 782.619 88.086C782.619 95.8855 787.677 104.506 793.449 106.817C800.254 109.541 812.689 105.719 812.689 98.5186C812.689 89.6478 804.608 88.6137 801.611 84.0734C811.908 79.0628 824.559 86.7547 824.559 98.5186C824.559 111.718 810.291 117.779 797.655 117.779C772.643 117.779 749.956 104.473 730.044 92.4519C726.678 90.4188 724.336 89.727 723.27 85.6787C728.193 78.2229 745.427 84.6412 745.427 67.2204C745.427 50.8337 741.303 47.057 731.657 59.6757C724.313 69.2838 710.875 66.6787 702.142 62.1649C699.906 61.0088 697.658 58.9806 695.682 57.48C689.271 52.6111 679.293 44.6034 674.322 38.2141L666.114 28.883C658.71 21.2255 649.71 14.3283 640.064 9.55804C609.578 -5.51419 572.412 -3.97641 549.613 23.5217C543.992 30.3002 538.101 37.468 533.884 45.2897C532.289 48.2481 530.012 53.5489 527.813 55.1831C525.643 45.739 516.721 34.106 511.088 26.4008C490.036 -2.39727 451.581 -6.07759 420.993 7.84325C402.47 16.2733 395.06 25.6781 383.193 39.327L376.664 46.3487C368.84 54.7277 354.095 66.4178 341.061 66.4178Z" fill="#1B1918"/>
<path fill-rule="evenodd" clip-rule="evenodd" d="M580.04 389.834C580.04 397.731 581.344 404.716 583.96 409.934C597.153 436.243 633.045 407.227 603.643 387.564C599.303 384.661 587.832 380.204 580.832 380.204C580.832 384.893 580.04 385.811 580.04 389.834Z" fill="#1B1918"/>
<path fill-rule="evenodd" clip-rule="evenodd" d="M580.04 344.09L580.832 355.325C590.636 354.498 614.067 345.819 614.067 332.855V327.238C614.067 318.967 597.045 305.073 584.425 323.659C581.469 328.013 580.04 336.915 580.04 344.09Z" fill="#1B1918"/>
<path fill-rule="evenodd" clip-rule="evenodd" d="M583.997 367.363C585.573 369.544 593.314 375.391 595.894 376.966C631.949 398.986 642.526 351.313 612.484 351.313C602.609 351.313 587.179 362.543 583.997 367.363Z" fill="#1B1918"/>
<path fill-rule="evenodd" clip-rule="evenodd" d="M644.929 466.073C644.929 480.51 654.39 496.442 665.739 491.228C667.555 490.394 668.97 489.092 669.958 487.443C674.415 480.006 669.825 467.702 665.988 461.569C659.066 450.51 644.929 453.268 644.929 466.073Z" fill="#1B1918"/>
<path fill-rule="evenodd" clip-rule="evenodd" d="M443.141 469.283L439.185 497.371C444.869 501.232 443.987 502.989 453.429 502.989C463.775 502.989 468.31 479.824 461.151 471.884C454.849 464.895 447.14 468.312 443.141 469.283Z" fill="#1B1918"/>
<path fill-rule="evenodd" clip-rule="evenodd" d="M822.185 274.271H835.638C843.773 274.271 850.81 267.186 849.503 258.668C848.059 249.261 841.876 246.182 831.681 246.182H822.185V274.271Z" fill="#1B1918"/>
<path fill-rule="evenodd" clip-rule="evenodd" d="M533.352 250.195V274.271C541.907 274.271 560.257 276.546 560.257 261.43C560.257 255.695 557.388 251.849 553.27 250.058C553.27 250.058 533.352 244.263 533.352 250.195Z" fill="#1B1918"/>
<path fill-rule="evenodd" clip-rule="evenodd" d="M533.352 243.775C541.471 243.775 554.718 244.696 554.718 231.737C554.718 228.386 553.567 225.263 551.788 223.473C546.944 218.602 540.088 219.699 533.352 219.699V243.775Z" fill="#1B1918"/>
<path fill-rule="evenodd" clip-rule="evenodd" d="M166.178 251.8H185.17C185.079 247.668 182.473 243.363 181.092 239.886C179.849 236.753 177.226 231.038 176.465 227.725H174.883C174.488 232.536 166.611 246.519 166.178 251.8Z" fill="#1B1918"/>
<path fill-rule="evenodd" clip-rule="evenodd" d="M511.195 483.729H515.152C515.152 464.52 496.716 467.548 494.351 480.453C493.652 484.263 496.027 482.613 500.763 483.068C504.084 483.388 506.682 483.729 511.195 483.729Z" fill="#1B1918"/>
<path fill-rule="evenodd" clip-rule="evenodd" d="M389.332 464.468C396.347 464.627 402.89 469.125 409.906 469.283C409.906 461.492 410.802 454.036 399.619 454.036C394.531 454.036 389.729 459.622 389.332 464.468Z" fill="#1B1918"/>
<path fill-rule="evenodd" clip-rule="evenodd" d="M557.092 367.363C557.092 375.097 570.544 376.819 570.544 367.363C570.544 357.956 557.092 359.409 557.092 367.363Z" fill="#1B1918"/>
<path fill-rule="evenodd" clip-rule="evenodd" d="M558.675 354.523C558.675 355.753 559.423 357.115 560.07 357.923C564.316 363.232 571.541 356.893 567.567 351.925C563.222 346.493 558.675 353.073 558.675 354.523Z" fill="#1B1918"/>
<path fill-rule="evenodd" clip-rule="evenodd" d="M559.466 378.599V382.611C561.097 383.718 561.52 385.019 563.423 385.019C569.131 385.019 570.467 381.263 566.588 375.388C563.967 375.388 559.466 375.018 559.466 378.599Z" fill="#1B1918"/>
</svg>
