<svg width="331" height="145" viewBox="0 0 331 145" fill="none" xmlns="http://www.w3.org/2000/svg">
<g filter="url(#filter0_d_2_2668)">
<path fill-rule="evenodd" clip-rule="evenodd" d="M163.205 121.964C161.989 125.633 150.09 125.291 152.387 117.531C152.689 116.509 153.435 115.422 154.332 114.622C156.398 112.782 163.688 111.521 163.688 118.267C160.491 118.267 158.055 118.072 154.75 118.072C154.75 124.502 162.617 122.003 163.205 121.964ZM211.522 114.764C211.522 116.459 211.033 117.888 209.526 118.994C206.122 121.489 200.632 120.397 198.985 117.078C196.288 111.642 202.427 107.886 207.499 109.637C209.582 110.356 211.522 112.444 211.522 114.764ZM168.761 129.942H168.037C168.013 129.085 167.795 129.032 167.795 127.996C170.984 127.996 170.874 128.236 172.545 124.8C173.089 123.682 171.952 122.229 170.925 120.805L167.161 115.08C166.605 114.282 166.04 114.2 164.896 113.985V113.596C167.561 113.596 169.44 113.402 171.902 113.402V113.791C170.737 113.869 170.788 114.176 169.728 114.375C169.801 115.083 172.702 119.245 173.338 120.223C173.573 120.585 173.622 120.828 173.835 121.185C174.719 120.663 176.919 114.723 176.975 114.18C175.406 113.885 175.073 113.812 174.801 113.207H180.358C179.821 113.583 179.867 113.553 179.171 113.808C177.679 114.356 178.151 114.472 177.01 116.933L173.833 124.103C173.464 124.918 173.106 125.629 172.719 126.514C172.109 127.909 170.877 129.942 168.761 129.942ZM122.135 114.375C122.135 115.713 122.231 116.897 123.716 117.772C126.488 119.405 128.389 118.682 129.866 118.656C126.167 122.723 115.435 118.59 120.689 111.847C123.735 107.937 131.316 108.626 131.316 112.818C131.316 114.622 131.184 114.09 131.074 115.153C129.048 115.117 124.285 113.529 122.377 113.402C122.251 113.838 122.135 113.849 122.135 114.375ZM135.423 112.234C136.089 112.222 139.102 111.621 139.53 111.456V113.012C140.676 112.936 139.742 113.001 141.285 112.48C150.613 109.334 151.15 122.937 141.946 122.937C140.311 122.937 139.164 122.602 137.838 122.353C137.519 123.456 137.114 125.527 137.114 126.829C137.739 127.166 138.615 127.522 139.046 127.996C136.912 127.958 134.416 127.256 132.282 127.218C132.928 126.507 133.576 126.909 134.228 126.45C134.753 126.08 136.208 117.094 136.496 115.823C136.629 115.239 136.874 114.152 136.658 113.748L135.733 112.763C135.395 112.32 135.569 112.458 135.423 112.234ZM192.437 112.623L193.856 120.626C194.141 121.714 194.105 121.156 195.471 121.66C196.114 121.897 195.818 121.794 196.061 121.964L189.779 122.742C190.002 122.069 190.185 122.123 191.47 121.575C191.094 120.271 190.916 118.84 190.675 117.351C190.453 115.983 190.021 114.645 190.021 113.012C188.185 113.012 187.276 113.402 185.672 113.402C185.672 115.652 187.852 123.715 183.015 123.715C182.056 123.715 182.274 122.745 182.049 121.964C186.6 121.659 184.458 115.867 184.223 113.596C183.498 113.46 182.847 113.261 182.049 113.207V112.818C183.983 112.818 186.158 112.413 188.046 112.2L194.128 111.456C193.842 112.092 193.411 112.208 192.437 112.623ZM220.944 109.315C223.361 110.249 228.443 112.057 231.09 112.234L228.222 113.448C226.649 113.97 227.004 113.47 225.433 112.899C224.332 112.498 223.398 112.207 222.387 111.85C221.48 111.53 220.074 110.891 219.011 110.872C221.598 114.809 220.151 114.958 223.36 114.958V115.348C221.638 115.463 219.416 116.975 217.562 117.099L219.011 115.542C218.2 114.79 215.317 109.122 214.421 107.758H212.247C213.118 107.148 216.825 105.943 218.045 105.423C217.886 106.962 216.363 106.033 217.263 107.783L218.77 110.483C219.569 110.011 221.527 106.374 222.152 105.423C222.085 105.387 221.892 105.299 221.847 105.28C221.814 105.265 221.729 105.231 221.689 105.212C220.627 104.744 220.902 105.052 220.702 104.45C222.217 104.166 223.778 103.178 225.292 102.894C225.149 103.325 223.948 104.468 223.038 105.942L220.944 109.315ZM105.466 102.699L113.759 105.748C114.882 106.17 118.17 107.118 118.753 107.758C116.805 107.758 116.677 107.71 116.038 108.879C115.363 110.113 112.488 114.845 112.23 115.737C112.681 116.279 113.197 116.564 113.438 117.294C112.44 116.868 108.251 115.629 107.64 114.958C109.496 114.958 109.754 114.975 110.392 113.867C111.022 112.772 114.087 107.526 114.163 106.785C112.988 106.565 112.602 106.335 111.589 105.94C110.667 105.58 109.932 105.393 109.09 105.034L106.308 109.799C106.052 110.242 105.88 110.539 105.624 110.999C105.541 111.148 105.419 111.372 105.325 111.538C103.921 114.008 105.167 112.744 105.708 114.375L100.706 112.566C100.238 112.3 100.359 112.502 100.151 112.04H102.325C102.473 111.53 103.016 110.599 103.295 110.096C103.668 109.422 104.121 108.807 104.466 108.12L106.674 104.256L105.754 103.245C105.528 102.914 105.538 102.809 105.466 102.699ZM198.718 85.3802C198.718 83.93 199.092 83.6288 200.892 83.6288C203.084 83.6288 204.275 84.9604 204.275 86.7424C205.636 86.7667 206.111 87.5088 207.415 89.0775C207.02 89.5526 206.624 89.9961 206.214 90.4452C205.631 91.0845 205.538 91.39 204.275 91.4126C204.275 95.1337 198.718 95.3913 198.718 93.1639C198.718 91.6396 199.315 92.2388 201.134 92.5801L201.9 91.8318C201.595 90.8887 201.42 91.0746 200.892 90.4396C202.41 90.1132 202.562 88.0745 200.892 87.7153C201.276 87.2541 202.413 86.5113 201.418 85.9358C200.454 85.3775 198.718 86.6929 198.718 85.3802ZM192.92 83.2397C197.811 84.1575 196.623 86.1419 198.96 87.5207C198.114 88.5379 197.157 89.2029 199.201 90.6343C197.797 90.9361 197.357 93.3389 195.159 94.3833C194.368 94.7588 193.846 94.7415 192.92 94.9152C193.034 96.0221 194.901 99.2817 192.144 101.685C188.459 104.898 179.633 104.531 179.633 95.8883C179.08 96.0495 179.449 95.9491 179.069 96.2129C178.725 96.4519 179.055 96.2915 178.568 96.5871C177.086 97.4863 173.752 97.3462 173.133 94.5071C172.726 92.6371 172.932 91.2179 170.453 91.2179C168.506 91.2179 167.238 93.1639 169.245 93.1639C170.564 93.1639 168.913 92.4991 171.419 92.9693C171.574 93.4912 171.66 93.3362 171.66 93.7476C171.66 95.8894 165.621 95.7159 165.621 92.9693V91.8018H133.49C132.602 91.8018 132.765 92.2173 132.765 93.1639H127.692C127.692 90.8439 127.898 91.2179 125.276 91.2179C124.694 90.5176 124.17 89.7813 123.585 89.0775C123.906 88.78 123.682 88.9971 123.987 88.623C124.194 88.3691 124.245 88.2858 124.455 88.0272C124.849 87.5429 124.961 87.4158 125.276 86.937C127.898 86.937 127.692 87.311 127.692 84.9909H132.765V86.3531H136.389C136.389 82.7703 135.664 87.5168 135.664 82.0722H137.355V83.8234H140.013V82.4613H144.603V83.8234H147.502V82.0722H149.193V84.7963C148.084 84.8708 148.227 84.8082 148.227 86.3531H165.621C165.621 84.4333 165.726 83.0451 169.486 83.0451C171.765 83.0451 172.431 85.3802 170.453 85.3802C170.029 85.3802 168.278 84.2105 168.278 85.7694C168.278 86.5688 169.606 86.937 170.694 86.937C172.849 86.937 172.806 85.2764 173.101 83.8166C173.269 82.989 173.392 82.5523 174.001 82.0117C175.146 80.9958 177.189 80.6749 178.64 81.7047C178.677 81.731 178.724 81.7748 178.761 81.8012C179.339 82.2105 178.973 82.1248 179.633 82.2666C179.633 71.2038 195.321 73.1672 193.448 81.5244C193.231 82.4928 193.001 82.4507 192.92 83.2397ZM297.043 95.3044H263.705C262.918 95.3044 262.738 94.8419 262.738 94.3315C262.738 93.2697 264.525 93.5467 265.878 93.5523L295.835 93.5535C296.938 91.7018 296.147 89.2209 302.011 83.155C307.225 77.7615 321.322 72.899 322.684 74.8697C324.302 77.2105 316.107 75.3273 306.505 82.1044L303.461 84.7118C301.19 87.0495 298.948 90.5774 298.322 93.6101C298.152 94.4331 298.093 95.3044 297.043 95.3044ZM36.3725 93.5532L66.088 93.5529C67.9682 93.5483 69.4698 93.1989 69.4698 94.5261C69.4698 94.9815 69.069 95.3044 68.5035 95.3044H35.1646C33.866 95.3044 33.9369 93.3714 33.2653 91.7749C32.0787 88.9547 31.3165 87.4877 28.955 84.9334C28.3428 84.2711 28.1529 84.1533 27.4944 83.58L25.8034 82.2178C16.61 75.3659 7.87147 77.2603 9.5239 74.8694C10.8883 72.8954 22.159 77.5371 24.9522 79.2062C29.9956 82.22 33.8961 86.4781 35.6505 91.4105C35.8827 92.0632 36.0454 93.0036 36.3725 93.5532ZM51.8341 66.6993C53.5296 67.422 53.594 66.9512 54.25 67.6722H47.9687C48.1461 67.5479 48.0079 67.6153 48.362 67.4054C50.1524 66.3449 49.6153 67.4627 51.1464 64.3939L56.5961 53.7999C57.6261 51.7074 58.5431 50.8426 59.8756 53.6057L65.8389 65.1481C67.4124 68.0715 67.3317 66.3842 68.5035 67.6722H61.0144C61.5886 67.0407 60.9822 67.4737 62.0606 67.1528C62.7792 66.939 62.8491 66.9469 63.4302 66.6993C63.379 66.205 61.8067 62.2235 60.7727 62.2235H54.4914C53.6236 62.2235 53.451 63.2442 52.9386 64.2808C52.5921 64.982 51.9032 66.0297 51.8341 66.6993ZM140.737 56.7749V52.1047H158.373V56.7749C157.705 56.5801 158.024 56.83 157.549 56.0771C155.508 52.8479 157.531 53.2722 151.609 53.2722C151.052 53.2722 150.884 53.4077 150.884 53.8561V65.7262C150.884 67.378 153.085 66.6393 154.025 67.6722H145.086C145.383 67.4644 145.407 67.444 145.809 67.2818C146.211 67.1196 146.155 67.1593 146.675 67.006C147.442 66.7797 148.227 66.7334 148.227 66.1154V53.2722H143.153C142.942 54.0038 142.523 54.4787 142.107 55.1535C141.243 56.5533 141.556 56.5363 140.737 56.7749ZM29.1251 56.7749V52.1047H46.7609V56.7749C45.664 56.539 46.4683 56.8776 45.3113 55.0236C45.0937 54.6751 45.0016 54.5092 44.7757 54.0928C44.1595 52.9565 44.8711 53.2722 39.2716 53.2722V66.1154C39.2716 66.8498 40.3163 66.7793 41.5233 67.2207C42.0475 67.4124 42.0749 67.4361 42.4123 67.6722H33.4734L34.7045 67.107C35.3752 66.8841 35.5962 66.7512 36.3725 66.6993V53.2722C30.146 53.2722 32.0781 52.5995 30.0248 55.9429C29.5961 56.6409 29.5958 56.6377 29.1251 56.7749ZM123.585 58.9155V60.4723C123.585 67.1177 131.632 68.0116 134.836 65.8376C135.254 65.5543 136.733 63.4835 136.872 63.002H137.355C137.325 64.1029 136.872 65.7624 136.872 66.8939C132.712 67.6746 136.136 67.8668 129.141 67.8668C125.864 67.8668 122.48 65.934 121.263 63.5099C118.247 57.5029 124.599 51.91 130.108 51.91C132.756 51.91 134.696 51.9039 136.872 53.0776V56.9695C136.3 56.8026 136.546 56.9001 136.219 56.5228C135.305 55.4683 135.145 52.8832 130.591 52.8832C126.724 52.8832 123.585 55.8024 123.585 58.9155ZM161.755 52.1047C166.051 52.1047 171.614 51.6129 174.472 52.954C177.075 54.1758 176.806 56.9731 174.712 58.2601C174.371 58.4698 174.041 58.6283 173.657 58.7727L172.385 59.3046C174.574 59.4514 176.821 60.367 177.633 61.6943C178.741 63.5062 177.709 65.2703 176.189 66.2602C174.327 67.4722 172.06 67.6799 169.729 67.6727C166.991 67.6644 164.252 67.6722 161.514 67.6722L162.513 67.1151C162.97 66.937 163.444 66.7903 163.93 66.6993V53.2722C161.381 52.1862 162.563 52.9513 161.755 52.1047ZM281.099 52.1047H288.829C288.301 52.6857 287.223 52.9273 286.414 53.2722V63.975C287.166 63.5693 288.31 62.2307 289.014 61.5943C289.964 60.7362 290.632 60.05 291.559 59.1683C292.027 58.7232 296.56 54.7244 296.56 54.2451C296.56 52.282 295.265 53.3369 294.144 52.1047H301.875C301.142 52.9101 299.459 52.8322 299.459 53.6615V66.1154C299.459 66.9447 301.142 66.8668 301.875 67.6722H294.144C294.621 67.1482 295.193 67.0872 296.56 66.5046V56.1912C295.611 56.3953 294.55 57.8791 293.842 58.4775L287.438 64.6059C284.67 66.8744 288.026 66.789 288.829 67.6722H281.099C281.831 66.8668 283.515 66.9447 283.515 66.1154V53.6615C283.515 52.8322 281.831 52.9101 281.099 52.1047ZM269.502 52.1047H277.233C276.501 52.9101 274.817 52.8322 274.817 53.6615V66.1154C274.817 67.1408 276.468 66.8312 277.233 67.6722H269.502C270.235 66.8668 271.918 66.9447 271.918 66.1154V53.6615C271.918 52.6264 270.463 53.2605 269.502 52.1047ZM249.693 52.1047H258.148L255.007 53.2722V58.5263C259.521 58.5263 266.362 58.397 266.362 63.1965C266.362 65.7407 263.442 67.089 260.673 67.5655C258.659 67.9119 252.221 67.6722 249.693 67.6722C250.425 66.8668 252.108 66.9447 252.108 66.1154V53.6615C252.108 52.8322 250.425 52.9101 249.693 52.1047ZM225.534 52.1047H233.023C232.135 53.1727 230.849 52.6204 230.849 53.6615V59.1101C242.387 59.1101 240.767 59.8029 240.754 56.5806C240.75 55.478 240.754 54.375 240.754 53.2722C239.936 53.0963 238.815 52.678 238.338 52.1047H245.827C245.229 52.8247 244.614 52.8626 243.653 53.2722V66.6993L246.069 67.6722H238.338C239.071 66.8668 240.754 66.9447 240.754 66.1154V60.2777H230.849V66.6993C231.713 66.8613 232.567 67.1703 233.023 67.6722H225.534C226.062 67.0912 227.14 66.8498 227.95 66.5046V53.2722C227.132 53.0963 226.011 52.678 225.534 52.1047ZM201.134 52.1047H208.865C208.132 52.9101 206.449 52.8322 206.449 53.6615V59.1101H216.354V53.6615C216.354 52.8322 214.67 52.9101 213.938 52.1047H221.669C220.936 52.9101 219.253 52.8322 219.253 53.6615V66.1154C219.253 66.9447 220.936 66.8668 221.669 67.6722H213.938C214.626 66.9155 216.354 66.992 216.354 66.1154V60.2777H206.449V66.1154C206.449 66.9447 208.132 66.8668 208.865 67.6722H201.134C201.866 66.8668 203.55 66.9447 203.55 66.1154V53.6615C203.55 52.8322 201.866 52.9101 201.134 52.1047ZM181.565 52.1047H196.302V55.9966C195.457 55.75 196.238 56.2766 195.513 55.4647C193.257 52.9393 197.027 53.2722 186.88 53.2722V59.1101C192.013 59.1101 191.655 59.4927 192.678 58.137C193.032 57.6683 193.12 57.3288 193.886 57.1641C193.886 58.6474 194.308 61.1103 193.645 62.2235C192.79 61.7194 192.511 60.2777 191.47 60.2777H186.88V66.5046H194.369C195.447 66.5046 195.946 64.0291 197.027 63.3911V67.6722H181.565C182.298 66.8668 183.981 66.9447 183.981 66.1154V53.6615C183.981 52.6264 182.526 53.2605 181.565 52.1047ZM96.0442 52.1047H103.775C103.042 52.9101 101.359 52.8322 101.359 53.6615V59.1101H111.264V53.6615C111.264 52.8322 109.581 52.9101 108.848 52.1047H116.579C115.846 52.9101 114.163 52.8322 114.163 53.6615V66.1154C114.163 66.9447 115.846 66.8668 116.579 67.6722H108.848C109.537 66.9155 111.264 66.992 111.264 66.1154V60.2777H101.359V66.1154C101.359 66.9447 103.042 66.8668 103.775 67.6722H96.0442C96.7767 66.8668 98.4601 66.9447 98.4601 66.1154V53.6615C98.4601 52.8322 96.7767 52.9101 96.0442 52.1047ZM76.7174 53.2722V63.7803C77.9381 63.5177 82.528 58.7239 83.5848 57.6364L86.218 55.0871C87.1398 54.243 87.1056 54.7453 87.1056 53.2722C86.1849 53.0995 85.1851 52.7007 84.6897 52.1047L92.1788 52.4939C91.4033 52.6394 89.7629 52.9526 89.7629 53.6615V66.1154C89.7629 66.9447 91.4462 66.8668 92.1788 67.6722H84.6897C85.2181 67.0912 86.2959 66.8498 87.1056 66.5046V56.1912C86.3537 56.3529 86.0506 56.6856 85.6183 57.1337L81.7568 60.8341C81.0004 61.5884 76.7174 65.1946 76.7174 66.1154C76.7174 66.9447 78.4005 66.8668 79.1333 67.6722H71.4025L72.7373 66.996C73.3124 66.7596 73.8184 66.6335 73.8184 66.1154V53.6615C73.8184 53.088 73.3982 53.0875 72.8607 52.8761C72.8032 52.8536 72.2744 52.6698 72.2006 52.6294C71.7261 52.3689 71.851 52.5654 71.644 52.1047H79.1333C78.6047 52.6857 77.5269 52.9273 76.7174 53.2722ZM286.655 47.2399H289.071C289.071 48.0252 289.17 48.6425 289.608 49.1428C290.676 50.3663 294.144 50.5526 294.144 47.2399H296.56C296.56 51.9438 286.655 51.9438 286.655 47.2399ZM262.738 29.9211C262.738 29.4655 263.139 29.1426 263.705 29.1426H297.043C298.213 29.1426 298.336 30.979 298.922 32.6885C299.609 34.6916 300.517 36.2496 301.828 37.9376L306.187 42.2097C308.273 43.5481 310.184 44.7973 312.628 45.7783L318.329 47.6081C321.878 48.4498 321.884 47.6493 322.893 49.1857C322.04 50.4846 322.166 50.5225 317.036 49.2332C313.647 48.3815 313.141 48.0527 310.492 46.9153C309.633 46.5466 309.274 46.4509 308.498 45.9916C303.029 42.7574 299.97 40.2028 297.352 34.9266C297.025 34.2674 296.788 33.7406 296.528 33.0601C296.319 32.5111 296.131 31.5848 295.835 31.0887C290.985 31.0887 265.496 31.3661 262.98 30.8941C262.854 30.4575 262.738 30.4467 262.738 29.9211ZM67.5371 31.0887H36.131C36.0731 33.1784 33.8825 36.8202 32.828 38.3524C31.115 40.8412 28.2716 43.204 25.5375 44.9339L19.666 47.7937C17.5955 48.5687 12.8282 50.1588 10.0398 50.1588C9.92547 50.0212 7.89594 48.5661 11.0987 48.0929C15.2606 47.4781 18.8191 46.2778 22.3144 44.4785C26.1756 42.4905 29.3321 39.7383 31.3808 36.4082C32.558 34.4948 33.2873 32.9704 33.8573 30.8138C34.0545 30.0668 34.2062 29.1426 35.1646 29.1426H68.5035C69.6816 29.1426 70.3764 31.0887 67.5371 31.0887ZM176.25 25.8346C169.982 23.1629 170.846 14.5135 178.213 10.096C180.597 8.66656 185.179 7.10274 189.928 7.81256C197.617 8.96191 205.728 13.0337 203.072 20.3905C202.618 21.6482 201.396 23.4016 200.359 24.2372C196.046 27.7086 188.074 26.8236 184.839 23.0034C183.346 21.241 182.823 17.9481 184.763 16.1504C185.624 15.3521 186.324 15.5337 187.363 15.1319C187.002 16.2228 185.816 16.6922 185.482 18.2916C184.72 21.9389 189.332 25.5281 195.708 23.994C197.862 23.4758 199.494 22.3296 200.457 20.8141C202.635 17.3895 200.797 13.58 197.95 12.0531C194.553 10.2308 193.364 9.69442 189.052 9.68039C185.252 9.66818 182.344 10.9435 180.116 12.2135C177.805 13.5317 175.887 15.325 175.004 17.8255C174.6 18.9722 174.384 20.6942 174.686 22.2299C174.872 23.1748 174.939 23.3433 175.312 24.0608C175.622 24.6569 176.047 25.1296 176.25 25.8346ZM129.624 16.6887C129.624 19.6875 130.148 21.98 134.144 23.556C135.191 23.9685 135.835 24.052 137.218 24.2075C139.377 24.4504 141.776 23.7119 142.954 22.9499C145.359 21.3958 146.251 19.2919 144.85 16.8792C144.472 16.2293 143.88 15.866 143.637 15.1319C147.478 15.3895 148.195 19.4142 146.627 22.0167C143.775 26.7511 133.991 28.4614 129.04 22.4137C127.374 20.3786 126.801 17.5094 127.898 14.9089C129.729 10.568 137.58 7.54277 142.429 7.54277C149.018 7.54277 154.57 9.83946 157.366 14.5811C158.943 17.2568 159.55 20.7971 157.646 23.4974C156.705 24.8306 155.79 25.2073 154.266 26.0292C154.462 25.4392 155.341 24.3223 155.72 23.503C157.689 19.2486 155.63 15.969 152.034 13.0383C147.209 9.10654 138.796 8.41064 133.243 11.8199C131.75 12.7368 129.624 14.6264 129.624 16.6887ZM108.124 16.1049C103.834 16.1049 102.772 12.6022 100.876 12.6022C99.2463 12.6022 99.4264 15.7318 99.4264 16.8833C99.4264 18.0029 100.835 19.0702 101.834 19.42C102.661 19.7097 103.156 19.68 104.2 19.8487C105.139 20.0002 105.407 20.2465 106.191 20.5806C105.684 22.11 100.887 23.8731 99.1013 24.5997C94.2631 26.568 90.1023 28.5589 83.7234 28.5589C74.8231 28.5589 73.3411 22.9738 77.1919 20.7682C78.9535 19.7591 79.0935 19.8023 82.0322 19.8023C81.7629 20.6145 80.9293 20.9217 80.282 21.5059C75.5345 25.7923 84.2624 27.4422 86.4892 24.7544C88.3387 22.5222 88.4736 19.1 85.376 17.4981C82.0456 15.7758 78.0834 15.678 74.8839 17.547C69.6785 20.5881 72.98 23.5434 67.7853 23.5047L31.0578 23.3049C30.4051 23.3049 30.3917 23.3978 29.8497 23.4995C29.3896 24.272 29.4732 24.3667 29.3257 25.4125C28.3288 32.4797 22.6887 38.5879 14.4276 41.0446C11.7789 41.8323 7.08453 42.5575 4 42.7641V80.71C6.75284 81.7738 15.5769 80.757 22.4223 86.3035C24.505 87.9909 26.281 90.1284 27.3459 92.6511C28.1617 94.5834 28.7506 96.7724 29.083 98.841C29.211 99.6382 29.1371 100.753 30.0914 100.753C34.1844 100.753 60.9756 101.017 63.8113 100.671C65.3503 100.483 71.8239 100.347 73.2047 100.664C75.6334 101.22 74.4115 105.418 79.3731 111.068L82.4431 114.238C85.7872 117.423 89.8119 120.045 94.1115 122.353C99.049 125.003 104.333 127.123 109.884 128.913C111.117 129.311 112.118 129.605 113.368 129.999C120.588 132.275 128.383 133.785 136.043 134.891C137.572 135.112 138.725 135.26 140.212 135.425C141.462 135.564 143.205 135.848 144.399 135.944C153.539 136.681 163.957 137.379 173.364 136.763C174.139 136.712 174.98 136.793 175.755 136.743C179.495 136.498 183.952 136.328 187.642 135.809C190.649 135.386 193.837 135.163 196.593 134.652C208.154 132.508 217.374 130.791 228.031 126.505C234.058 124.081 240.122 121.179 244.917 117.338C245.504 116.869 245.869 116.767 246.367 116.366L249.932 113.01C250.379 112.54 250.647 112.347 251.098 111.81C253.279 109.213 255.046 106.481 256.023 103.323C257.213 99.4764 256.812 100.558 268.295 100.558C271.946 100.558 274.752 100.753 278.441 100.753H301.633C301.633 95.5293 304.129 89.8803 308.575 86.3015C310.517 84.7387 313.58 83.2354 316.398 82.4836C318.229 81.995 319.175 81.7248 321.374 81.4327L327 80.9045V44.5155C327 42.4768 325.503 42.5014 323.153 42.3606C314.77 41.8582 306.873 37.7933 303.77 31.508C302.819 29.5803 302.023 27.4325 301.597 25.2798C301.367 24.116 301.633 23.3049 300.184 23.3049C287.841 23.3049 276.241 23.4604 263.945 23.5C258.483 23.5175 260.719 22.7399 258.957 20.1238C254.746 13.8738 242.928 15.7622 242.928 21.3589C242.928 23.2501 244.472 25.3404 246.235 25.9008C248.312 26.5613 252.108 25.6346 252.108 23.8886C252.108 21.7376 249.641 21.4869 248.726 20.3859C251.87 19.171 255.732 21.0361 255.732 23.8886C255.732 27.0892 251.376 28.5589 247.518 28.5589C239.882 28.5589 232.956 25.3323 226.877 22.4175C225.85 21.9245 225.135 21.7568 224.809 20.7752C226.312 18.9673 231.574 20.5236 231.574 16.2995C231.574 12.3261 230.315 11.4103 227.37 14.47C225.128 16.7998 221.025 16.1681 218.359 15.0736C217.676 14.7933 216.99 14.3015 216.387 13.9376C214.43 12.757 211.383 10.8153 209.866 9.26608L207.36 7.00348C205.1 5.14672 202.352 3.4743 199.407 2.31761C190.1 -1.33707 178.753 -0.96419 171.793 5.70348C170.077 7.34713 168.278 9.08517 166.991 10.9818C166.504 11.6991 165.809 12.9844 165.138 13.3807C164.475 11.0907 161.751 8.26996 160.032 6.40162C153.605 -0.581285 141.865 -1.47368 132.526 1.90181C126.871 3.94591 124.609 6.22638 120.986 9.53592L118.993 11.2385C116.604 13.2703 112.103 16.1049 108.124 16.1049Z" fill="url(#paint0_linear_2_2668)"/>
<path fill-rule="evenodd" clip-rule="evenodd" d="M181.082 94.5261C181.082 96.4411 181.48 98.1346 182.279 99.3999C186.306 105.779 197.264 98.7436 188.288 93.9758C186.963 93.2719 183.461 92.191 181.324 92.191C181.324 93.3281 181.082 93.5506 181.082 94.5261Z" fill="url(#paint1_linear_2_2668)"/>
<path fill-rule="evenodd" clip-rule="evenodd" d="M181.082 83.4342L181.324 86.1585C184.317 85.9579 191.47 83.8533 191.47 80.71V79.3479C191.47 77.3425 186.274 73.9735 182.421 78.4802C181.518 79.5359 181.082 81.6945 181.082 83.4342Z" fill="url(#paint2_linear_2_2668)"/>
<path fill-rule="evenodd" clip-rule="evenodd" d="M182.29 89.0774C182.771 89.6063 185.135 91.0239 185.922 91.406C196.93 96.7452 200.159 85.1856 190.987 85.1856C187.972 85.1856 183.262 87.9087 182.29 89.0774Z" fill="url(#paint3_linear_2_2668)"/>
<path fill-rule="evenodd" clip-rule="evenodd" d="M200.892 113.012C200.892 116.513 203.781 120.376 207.245 119.112C207.8 118.91 208.232 118.594 208.533 118.194C209.894 116.391 208.493 113.407 207.321 111.92C205.208 109.239 200.892 109.907 200.892 113.012Z" fill="url(#paint4_linear_2_2668)"/>
<path fill-rule="evenodd" clip-rule="evenodd" d="M139.288 113.791L138.08 120.602C139.816 121.538 139.546 121.964 142.429 121.964C145.587 121.964 146.972 116.347 144.786 114.421C142.862 112.727 140.509 113.555 139.288 113.791Z" fill="url(#paint5_linear_2_2668)"/>
<path fill-rule="evenodd" clip-rule="evenodd" d="M255.007 66.5046H259.114C261.598 66.5046 263.746 64.7866 263.347 62.7213C262.906 60.4402 261.019 59.6938 257.906 59.6938H255.007V66.5046Z" fill="url(#paint6_linear_2_2668)"/>
<path fill-rule="evenodd" clip-rule="evenodd" d="M166.829 60.6667V66.5046C169.44 66.5046 175.043 67.0564 175.043 63.3911C175.043 62.0005 174.167 61.0678 172.91 60.6337C172.909 60.6335 166.829 59.2284 166.829 60.6667Z" fill="url(#paint7_linear_2_2668)"/>
<path fill-rule="evenodd" clip-rule="evenodd" d="M166.829 59.1101C169.307 59.1101 173.352 59.3333 173.352 56.1912C173.352 55.3786 173 54.6214 172.457 54.1873C170.978 53.006 168.885 53.2722 166.829 53.2722V59.1101Z" fill="url(#paint8_linear_2_2668)"/>
<path fill-rule="evenodd" clip-rule="evenodd" d="M54.7331 61.056H60.5312C60.5034 60.054 59.7076 59.0101 59.2862 58.1669C58.9066 57.4075 58.106 56.0216 57.8736 55.2182H57.3905C57.2699 56.385 54.8652 59.7755 54.7331 61.056Z" fill="url(#paint9_linear_2_2668)"/>
<path fill-rule="evenodd" clip-rule="evenodd" d="M160.064 117.293H161.272C161.272 112.636 155.644 113.37 154.922 116.499C154.709 117.423 155.434 117.023 156.879 117.133C157.893 117.211 158.687 117.293 160.064 117.293Z" fill="url(#paint10_linear_2_2668)"/>
<path fill-rule="evenodd" clip-rule="evenodd" d="M122.86 112.623C125.002 112.662 126.999 113.752 129.141 113.791C129.141 111.902 129.415 110.094 126.001 110.094C124.448 110.094 122.982 111.448 122.86 112.623Z" fill="url(#paint11_linear_2_2668)"/>
<path fill-rule="evenodd" clip-rule="evenodd" d="M174.076 89.0774C174.076 90.9527 178.183 91.3704 178.183 89.0774C178.183 86.7965 174.076 87.1488 174.076 89.0774Z" fill="url(#paint12_linear_2_2668)"/>
<path fill-rule="evenodd" clip-rule="evenodd" d="M174.559 85.964C174.559 86.2622 174.788 86.5925 174.985 86.7884C176.282 88.0758 178.488 86.5387 177.274 85.334C175.948 84.017 174.559 85.6124 174.559 85.964Z" fill="url(#paint13_linear_2_2668)"/>
<path fill-rule="evenodd" clip-rule="evenodd" d="M174.801 91.8018V92.7747C175.299 93.0432 175.428 93.3586 176.009 93.3586C177.752 93.3586 178.16 92.4479 176.975 91.0234C176.175 91.0234 174.801 90.9336 174.801 91.8018Z" fill="url(#paint14_linear_2_2668)"/>
</g>
<defs>
<filter id="filter0_d_2_2668" x="0" y="0" width="331" height="145" filterUnits="userSpaceOnUse" color-interpolation-filters="sRGB">
<feFlood flood-opacity="0" result="BackgroundImageFix"/>
<feColorMatrix in="SourceAlpha" type="matrix" values="0 0 0 0 0 0 0 0 0 0 0 0 0 0 0 0 0 0 127 0" result="hardAlpha"/>
<feOffset dy="4"/>
<feGaussianBlur stdDeviation="2"/>
<feComposite in2="hardAlpha" operator="out"/>
<feColorMatrix type="matrix" values="0 0 0 0 0.368627 0 0 0 0 0.0392157 0 0 0 0 0.905882 0 0 0 0.25 0"/>
<feBlend mode="normal" in2="BackgroundImageFix" result="effect1_dropShadow_2_2668"/>
<feBlend mode="normal" in="SourceGraphic" in2="effect1_dropShadow_2_2668" result="shape"/>
</filter>
<linearGradient id="paint0_linear_2_2668" x1="4.8919" y1="99.9709" x2="320.62" y2="98.2045" gradientUnits="userSpaceOnUse">
<stop stop-color="#181818"/>
<stop offset="0.0708332" stop-color="#181818"/>
<stop offset="0.440625" stop-color="white" stop-opacity="0.913542"/>
<stop offset="0.513542" stop-color="white"/>
<stop offset="0.95625" stop-color="#181818"/>
<stop offset="1" stop-color="#181818"/>
</linearGradient>
<linearGradient id="paint1_linear_2_2668" x1="4.8919" y1="99.9709" x2="320.62" y2="98.2045" gradientUnits="userSpaceOnUse">
<stop stop-color="#181818"/>
<stop offset="0.0708332" stop-color="#181818"/>
<stop offset="0.440625" stop-color="white" stop-opacity="0.913542"/>
<stop offset="0.513542" stop-color="white"/>
<stop offset="0.95625" stop-color="#181818"/>
<stop offset="1" stop-color="#181818"/>
</linearGradient>
<linearGradient id="paint2_linear_2_2668" x1="4.8919" y1="99.9709" x2="320.62" y2="98.2045" gradientUnits="userSpaceOnUse">
<stop stop-color="#181818"/>
<stop offset="0.0708332" stop-color="#181818"/>
<stop offset="0.440625" stop-color="white" stop-opacity="0.913542"/>
<stop offset="0.513542" stop-color="white"/>
<stop offset="0.95625" stop-color="#181818"/>
<stop offset="1" stop-color="#181818"/>
</linearGradient>
<linearGradient id="paint3_linear_2_2668" x1="4.8919" y1="99.9709" x2="320.62" y2="98.2045" gradientUnits="userSpaceOnUse">
<stop stop-color="#181818"/>
<stop offset="0.0708332" stop-color="#181818"/>
<stop offset="0.440625" stop-color="white" stop-opacity="0.913542"/>
<stop offset="0.513542" stop-color="white"/>
<stop offset="0.95625" stop-color="#181818"/>
<stop offset="1" stop-color="#181818"/>
</linearGradient>
<linearGradient id="paint4_linear_2_2668" x1="4.8919" y1="99.9709" x2="320.62" y2="98.2045" gradientUnits="userSpaceOnUse">
<stop stop-color="#181818"/>
<stop offset="0.0708332" stop-color="#181818"/>
<stop offset="0.440625" stop-color="white" stop-opacity="0.913542"/>
<stop offset="0.513542" stop-color="white"/>
<stop offset="0.95625" stop-color="#181818"/>
<stop offset="1" stop-color="#181818"/>
</linearGradient>
<linearGradient id="paint5_linear_2_2668" x1="4.8919" y1="99.9709" x2="320.62" y2="98.2045" gradientUnits="userSpaceOnUse">
<stop stop-color="#181818"/>
<stop offset="0.0708332" stop-color="#181818"/>
<stop offset="0.440625" stop-color="white" stop-opacity="0.913542"/>
<stop offset="0.513542" stop-color="white"/>
<stop offset="0.95625" stop-color="#181818"/>
<stop offset="1" stop-color="#181818"/>
</linearGradient>
<linearGradient id="paint6_linear_2_2668" x1="4.8919" y1="99.9709" x2="320.62" y2="98.2045" gradientUnits="userSpaceOnUse">
<stop stop-color="#181818"/>
<stop offset="0.0708332" stop-color="#181818"/>
<stop offset="0.440625" stop-color="white" stop-opacity="0.913542"/>
<stop offset="0.513542" stop-color="white"/>
<stop offset="0.95625" stop-color="#181818"/>
<stop offset="1" stop-color="#181818"/>
</linearGradient>
<linearGradient id="paint7_linear_2_2668" x1="4.8919" y1="99.9709" x2="320.62" y2="98.2045" gradientUnits="userSpaceOnUse">
<stop stop-color="#181818"/>
<stop offset="0.0708332" stop-color="#181818"/>
<stop offset="0.440625" stop-color="white" stop-opacity="0.913542"/>
<stop offset="0.513542" stop-color="white"/>
<stop offset="0.95625" stop-color="#181818"/>
<stop offset="1" stop-color="#181818"/>
</linearGradient>
<linearGradient id="paint8_linear_2_2668" x1="4.8919" y1="99.9709" x2="320.62" y2="98.2045" gradientUnits="userSpaceOnUse">
<stop stop-color="#181818"/>
<stop offset="0.0708332" stop-color="#181818"/>
<stop offset="0.440625" stop-color="white" stop-opacity="0.913542"/>
<stop offset="0.513542" stop-color="white"/>
<stop offset="0.95625" stop-color="#181818"/>
<stop offset="1" stop-color="#181818"/>
</linearGradient>
<linearGradient id="paint9_linear_2_2668" x1="4.8919" y1="99.9709" x2="320.62" y2="98.2045" gradientUnits="userSpaceOnUse">
<stop stop-color="#181818"/>
<stop offset="0.0708332" stop-color="#181818"/>
<stop offset="0.440625" stop-color="white" stop-opacity="0.913542"/>
<stop offset="0.513542" stop-color="white"/>
<stop offset="0.95625" stop-color="#181818"/>
<stop offset="1" stop-color="#181818"/>
</linearGradient>
<linearGradient id="paint10_linear_2_2668" x1="4.8919" y1="99.9709" x2="320.62" y2="98.2045" gradientUnits="userSpaceOnUse">
<stop stop-color="#181818"/>
<stop offset="0.0708332" stop-color="#181818"/>
<stop offset="0.440625" stop-color="white" stop-opacity="0.913542"/>
<stop offset="0.513542" stop-color="white"/>
<stop offset="0.95625" stop-color="#181818"/>
<stop offset="1" stop-color="#181818"/>
</linearGradient>
<linearGradient id="paint11_linear_2_2668" x1="4.8919" y1="99.9709" x2="320.62" y2="98.2045" gradientUnits="userSpaceOnUse">
<stop stop-color="#181818"/>
<stop offset="0.0708332" stop-color="#181818"/>
<stop offset="0.440625" stop-color="white" stop-opacity="0.913542"/>
<stop offset="0.513542" stop-color="white"/>
<stop offset="0.95625" stop-color="#181818"/>
<stop offset="1" stop-color="#181818"/>
</linearGradient>
<linearGradient id="paint12_linear_2_2668" x1="4.8919" y1="99.9709" x2="320.62" y2="98.2045" gradientUnits="userSpaceOnUse">
<stop stop-color="#181818"/>
<stop offset="0.0708332" stop-color="#181818"/>
<stop offset="0.440625" stop-color="white" stop-opacity="0.913542"/>
<stop offset="0.513542" stop-color="white"/>
<stop offset="0.95625" stop-color="#181818"/>
<stop offset="1" stop-color="#181818"/>
</linearGradient>
<linearGradient id="paint13_linear_2_2668" x1="4.8919" y1="99.9709" x2="320.62" y2="98.2045" gradientUnits="userSpaceOnUse">
<stop stop-color="#181818"/>
<stop offset="0.0708332" stop-color="#181818"/>
<stop offset="0.440625" stop-color="white" stop-opacity="0.913542"/>
<stop offset="0.513542" stop-color="white"/>
<stop offset="0.95625" stop-color="#181818"/>
<stop offset="1" stop-color="#181818"/>
</linearGradient>
<linearGradient id="paint14_linear_2_2668" x1="4.8919" y1="99.9709" x2="320.62" y2="98.2045" gradientUnits="userSpaceOnUse">
<stop stop-color="#181818"/>
<stop offset="0.0708332" stop-color="#181818"/>
<stop offset="0.440625" stop-color="white" stop-opacity="0.913542"/>
<stop offset="0.513542" stop-color="white"/>
<stop offset="0.95625" stop-color="#181818"/>
<stop offset="1" stop-color="#181818"/>
</linearGradient>
</defs>
</svg>
