<svg width="413" height="253" viewBox="0 0 413 253" fill="url(#linear-gradient)" xmlns="http://www.w3.org/2000/svg">
<g filter="url(#filter0_d_2_2668)">
<path d="M133.618 39.6567C135.744 39.6567 136.934 44.8421 141.744 44.8421C146.205 44.8421 151.252 40.6457 153.931 37.6379L156.165 35.1173C160.227 30.2177 162.764 26.8416 169.104 23.8155C179.574 18.8183 192.737 20.1394 199.943 30.4771C201.871 33.2431 204.926 37.419 205.668 40.8092C206.421 40.2225 207.2 38.3197 207.746 37.2577C209.19 34.45 211.206 31.8769 213.13 29.4436C220.934 19.5726 233.656 19.0206 244.091 24.4311C247.393 26.1435 250.474 28.6194 253.008 31.3682L255.818 34.7178C257.519 37.0114 260.934 39.8859 263.129 41.6337C263.806 42.1724 264.575 42.9004 265.34 43.3154C268.329 44.9358 272.929 45.8709 275.443 42.4219C278.745 37.8921 280.156 39.2479 280.156 45.1302C280.156 51.3838 274.257 49.0798 272.572 51.7562C272.937 53.2095 273.739 53.4578 274.891 54.1876C281.707 58.5027 289.472 63.2795 298.034 63.2795C302.359 63.2795 307.243 61.1037 307.243 56.3654C307.243 52.1425 302.913 49.3813 299.388 51.18C300.414 52.8098 303.18 53.181 303.18 56.3654C303.18 58.9503 298.924 60.3222 296.594 59.3443C294.619 58.5148 292.887 55.4202 292.887 52.6204C292.887 44.3348 306.138 41.5393 310.858 50.7919C312.834 54.6649 310.327 55.8161 316.452 55.7901C330.237 55.7315 343.244 55.5013 357.083 55.5013C358.707 55.5013 358.409 56.702 358.667 58.425C359.144 61.6119 360.036 64.7916 361.103 67.6454C364.583 76.9503 373.436 82.9682 382.835 83.7119C385.47 83.9203 387.149 83.884 387.149 86.9021V140.773L380.842 141.555C378.375 141.988 377.315 142.388 375.262 143.111C372.103 144.224 368.668 146.45 366.491 148.763C361.506 154.062 358.708 162.424 358.708 170.158H332.705C328.569 170.158 325.422 169.87 321.328 169.87C308.454 169.87 308.904 168.268 307.569 173.962C306.473 178.637 304.493 182.682 302.048 186.526C301.542 187.322 301.241 187.607 300.739 188.304L296.743 193.272C296.185 193.866 295.775 194.016 295.117 194.711C289.741 200.398 282.942 204.693 276.185 208.282C264.236 214.628 253.898 217.168 240.936 220.343C237.847 221.1 234.271 221.43 230.9 222.056C226.763 222.825 221.766 223.075 217.572 223.438C216.703 223.513 215.761 223.393 214.892 223.468C204.344 224.381 192.663 223.347 182.416 222.256C181.077 222.113 179.122 221.692 177.721 221.487C176.054 221.243 174.762 221.025 173.047 220.697C164.459 219.059 155.719 216.825 147.624 213.454C146.222 212.871 145.1 212.436 143.717 211.847C137.493 209.197 131.569 206.058 126.033 202.135C121.213 198.719 116.7 194.836 112.951 190.122L109.509 185.428C103.946 177.064 105.316 170.849 102.593 170.025C101.044 169.557 93.7862 169.759 92.0607 170.036C88.8813 170.548 58.8429 170.158 54.2538 170.158C53.1838 170.158 53.2667 168.507 53.1231 167.327C52.7505 164.265 52.0902 161.024 51.1755 158.164C49.9816 154.429 47.9903 151.264 45.6551 148.766C37.98 140.555 28.0865 142.06 25 140.486V84.3093C28.4584 84.0034 33.7218 82.9298 36.6915 81.7637C45.9538 78.1268 52.2776 69.084 53.3953 58.6214C53.5607 57.0732 53.4669 56.933 53.9828 55.7894C54.5904 55.6388 54.6055 55.5013 55.3373 55.5013L96.5163 55.7971C102.341 55.8544 98.639 51.4792 104.475 46.9772C108.063 44.2102 112.505 44.3549 116.239 46.9047C119.712 49.2762 119.561 54.3426 117.487 57.6472C114.99 61.6262 105.205 59.1838 110.528 52.838C111.253 51.9732 112.188 51.5183 112.49 50.3159C109.195 50.3159 109.038 50.252 107.063 51.7458C102.745 55.0111 104.407 63.2795 114.386 63.2795C121.538 63.2795 126.203 60.3321 131.628 57.4182C133.63 56.3424 139.008 53.7323 139.577 51.4681C138.698 50.9735 138.397 50.6089 137.345 50.3846C136.174 50.1349 135.619 50.1788 134.691 49.75C133.571 49.2321 131.992 47.652 131.992 45.9946C131.992 44.2899 131.791 39.6567 133.618 39.6567Z" fill="#1B1918"/>
<path fill-rule="evenodd" clip-rule="evenodd" d="M203.501 201.559C202.138 206.991 188.797 206.485 191.372 194.996C191.71 193.483 192.547 191.874 193.553 190.69C195.869 187.965 204.043 186.099 204.043 196.085C200.459 196.085 197.727 195.797 194.021 195.797C194.021 205.317 202.843 201.617 203.501 201.559ZM257.674 190.9C257.674 193.409 257.127 195.524 255.436 197.162C251.62 200.856 245.464 199.239 243.618 194.326C240.594 186.278 247.477 180.718 253.164 183.31C255.499 184.375 257.674 187.465 257.674 190.9ZM209.731 213.37H208.919C208.892 212.101 208.648 212.023 208.648 210.489C212.224 210.489 212.099 210.845 213.973 205.758C214.583 204.102 213.309 201.951 212.157 199.843L207.937 191.368C207.313 190.186 206.679 190.065 205.397 189.747V189.171C208.385 189.171 210.492 188.883 213.252 188.883V189.459C211.946 189.575 212.004 190.029 210.815 190.324C210.897 191.372 214.149 197.534 214.863 198.982C215.126 199.517 215.181 199.878 215.419 200.407C216.411 199.634 218.878 190.84 218.941 190.035C217.181 189.599 216.808 189.491 216.503 188.595H222.733C222.131 189.151 222.183 189.108 221.403 189.486C219.73 190.297 220.259 190.468 218.98 194.11L215.418 204.726C215.004 205.932 214.602 206.985 214.169 208.295C213.485 210.36 212.103 213.37 209.731 213.37ZM157.454 190.324C157.454 192.305 157.561 194.058 159.226 195.353C162.333 197.77 164.466 196.701 166.122 196.662C161.974 202.683 149.941 196.564 155.832 186.582C159.247 180.793 167.747 181.813 167.747 188.019C167.747 190.69 167.599 189.903 167.476 191.476C165.205 191.422 159.864 189.072 157.725 188.883C157.583 189.529 157.454 189.546 157.454 190.324ZM172.352 187.155C173.098 187.137 176.477 186.247 176.956 186.002V188.307C178.242 188.193 177.194 188.29 178.924 187.519C189.383 182.861 189.985 202.999 179.665 202.999C177.833 202.999 176.547 202.503 175.06 202.135C174.702 203.769 174.248 206.834 174.248 208.761C174.949 209.261 175.931 209.787 176.415 210.489C174.022 210.433 171.223 209.394 168.83 209.337C169.555 208.285 170.281 208.881 171.012 208.2C171.601 207.653 173.232 194.349 173.555 192.467C173.704 191.604 173.979 189.993 173.737 189.397L172.7 187.937C172.321 187.281 172.515 187.487 172.352 187.155ZM236.276 187.731L237.868 199.578C238.187 201.19 238.146 200.363 239.679 201.109C240.399 201.46 240.067 201.308 240.339 201.559L233.297 202.711C233.547 201.715 233.751 201.794 235.192 200.983C234.77 199.054 234.571 196.935 234.3 194.73C234.052 192.704 233.568 190.723 233.568 188.307C231.509 188.307 230.49 188.883 228.692 188.883C228.692 192.214 231.136 204.152 225.712 204.152C224.637 204.152 224.882 202.715 224.629 201.559C229.732 201.107 227.33 192.534 227.067 189.171C226.254 188.97 225.524 188.674 224.629 188.595V188.019C226.798 188.019 229.237 187.419 231.354 187.105L238.172 186.002C237.851 186.945 237.369 187.116 236.276 187.731ZM268.238 182.833C270.948 184.216 276.646 186.892 279.615 187.155L276.399 188.951C274.635 189.724 275.033 188.985 273.272 188.139C272.037 187.546 270.99 187.115 269.856 186.587C268.839 186.113 267.264 185.166 266.072 185.138C268.971 190.967 267.349 191.188 270.947 191.188V191.764C269.017 191.935 266.526 194.173 264.446 194.357L266.072 192.052C265.162 190.939 261.929 182.547 260.925 180.529H258.487C259.464 179.626 263.62 177.842 264.988 177.072C264.81 179.349 263.102 177.974 264.111 180.565L265.801 184.562C266.696 183.864 268.892 178.48 269.593 177.072C269.518 177.018 269.301 176.888 269.251 176.859C269.214 176.838 269.119 176.786 269.074 176.76C267.883 176.066 268.191 176.523 267.967 175.632C269.665 175.211 271.416 173.747 273.114 173.327C272.954 173.965 271.606 175.658 270.586 177.84L268.238 182.833ZM138.764 173.039L148.063 177.553C149.321 178.177 153.008 179.58 153.662 180.529C151.477 180.529 151.334 180.457 150.617 182.188C149.861 184.014 146.638 191.019 146.348 192.34C146.854 193.144 147.432 193.565 147.703 194.645C146.583 194.015 141.886 192.181 141.202 191.188C143.282 191.188 143.572 191.212 144.287 189.572C144.993 187.951 148.429 180.185 148.515 179.088C147.197 178.762 146.765 178.422 145.629 177.837C144.596 177.305 143.771 177.027 142.827 176.496L139.708 183.549C139.422 184.206 139.228 184.645 138.942 185.327C138.849 185.547 138.712 185.879 138.606 186.124C137.032 189.78 138.429 187.91 139.035 190.324L133.427 187.646C132.903 187.252 133.038 187.551 132.805 186.867H135.243C135.408 186.112 136.018 184.734 136.33 183.99C136.748 182.992 137.256 182.081 137.643 181.065L140.119 175.343L139.087 173.847C138.834 173.357 138.845 173.202 138.764 173.039ZM243.319 147.399C243.319 145.253 243.738 144.807 245.757 144.807C248.213 144.807 249.549 146.778 249.549 149.416C251.075 149.452 251.608 150.551 253.07 152.873C252.627 153.576 252.182 154.233 251.723 154.898C251.069 155.844 250.965 156.297 249.549 156.33C249.549 161.839 243.319 162.22 243.319 158.923C243.319 156.666 243.988 157.553 246.027 158.058L246.886 156.951C246.544 155.554 246.348 155.83 245.757 154.89C247.459 154.406 247.628 151.388 245.757 150.856C246.186 150.174 247.461 149.074 246.346 148.222C245.265 147.395 243.319 149.343 243.319 147.399ZM236.818 144.231C242.302 145.589 240.97 148.527 243.59 150.568C242.641 152.074 241.568 153.059 243.86 155.178C242.286 155.625 241.793 159.182 239.328 160.728C238.441 161.284 237.856 161.258 236.818 161.515C236.946 163.154 239.039 167.98 235.948 171.537C231.816 176.294 221.92 175.751 221.92 162.956C221.3 163.195 221.714 163.046 221.289 163.436C220.902 163.79 221.272 163.553 220.726 163.991C219.065 165.322 215.327 165.114 214.633 160.911C214.176 158.143 214.407 156.042 211.627 156.042C209.445 156.042 208.023 158.923 210.273 158.923C211.752 158.923 209.901 157.938 212.711 158.635C212.885 159.407 212.982 159.178 212.982 159.787C212.982 162.958 206.21 162.701 206.21 158.635V156.906H170.185C169.189 156.906 169.372 157.521 169.372 158.923H163.684C163.684 155.488 163.915 156.042 160.975 156.042C160.322 155.005 159.735 153.915 159.079 152.873C159.439 152.433 159.188 152.754 159.53 152.2C159.762 151.824 159.819 151.701 160.055 151.318C160.497 150.601 160.622 150.413 160.975 149.704C163.915 149.704 163.684 150.258 163.684 146.823H169.372V148.84H173.435C173.435 143.536 172.622 150.563 172.622 142.502H174.518V145.095H177.498V143.078H182.645V145.095H185.895V142.502H187.791V146.535C186.547 146.645 186.707 146.553 186.707 148.84H206.21C206.21 145.998 206.328 143.943 210.544 143.943C213.099 143.943 213.846 147.399 211.627 147.399C211.153 147.399 209.189 145.668 209.189 147.976C209.189 149.159 210.679 149.704 211.898 149.704C214.314 149.704 214.266 147.246 214.597 145.085C214.785 143.859 214.923 143.213 215.606 142.413C216.89 140.909 219.18 140.434 220.807 141.958C220.848 141.997 220.901 142.062 220.943 142.101C221.591 142.707 221.181 142.58 221.92 142.79C221.92 126.412 239.51 129.319 237.41 141.691C237.166 143.125 236.909 143.063 236.818 144.231ZM353.561 162.092H316.182C315.3 162.092 315.098 161.407 315.098 160.651C315.098 159.079 317.102 159.489 318.619 159.498L352.207 159.499C353.444 156.758 352.556 153.085 359.131 144.105C364.977 136.12 380.783 128.922 382.31 131.839C384.124 135.305 374.936 132.517 364.17 142.55L360.757 146.41C358.211 149.871 355.697 155.094 354.995 159.583C354.804 160.802 354.738 162.092 353.561 162.092ZM61.2962 159.499L94.6133 159.498C96.7214 159.492 98.405 158.974 98.405 160.939C98.405 161.614 97.9556 162.092 97.3215 162.092H59.9419C58.4858 162.092 58.5654 159.23 57.8124 156.866C56.4819 152.691 55.6274 150.52 52.9797 146.738C52.2932 145.758 52.0803 145.583 51.342 144.734L49.4461 142.718C39.1384 132.574 29.3407 135.379 31.1934 131.839C32.7232 128.917 45.3599 135.788 48.4917 138.259C54.1463 142.721 58.5196 149.025 60.4867 156.327C60.747 157.293 60.9294 158.685 61.2962 159.499ZM78.6318 119.744C80.5328 120.814 80.605 120.117 81.3405 121.184H74.2978C74.4968 121 74.3418 121.1 74.7388 120.789C76.7463 119.219 76.144 120.874 77.8607 116.331L83.9709 100.647C85.1258 97.5492 86.154 96.2689 87.648 100.359L94.334 117.447C96.0983 121.775 96.0078 119.277 97.3215 121.184H88.9248C89.5686 120.249 88.8887 120.89 90.0978 120.415C90.9035 120.099 90.9819 120.11 91.6334 119.744C91.576 119.012 89.8131 113.118 88.6538 113.118H81.6112C80.6382 113.118 80.4447 114.629 79.8702 116.163C79.4817 117.201 78.7092 118.752 78.6318 119.744ZM178.311 105.051V98.1374H198.084V105.051C197.335 104.763 197.693 105.133 197.159 104.018C194.871 99.2376 197.14 99.8658 190.5 99.8658C189.876 99.8658 189.687 100.066 189.687 100.73V118.303C189.687 120.748 192.155 119.655 193.208 121.184H183.186C183.519 120.876 183.546 120.846 183.997 120.606C184.448 120.366 184.385 120.425 184.968 120.198C185.828 119.863 186.707 119.794 186.707 118.879V99.8658H181.019C180.782 100.949 180.313 101.652 179.846 102.651C178.877 104.723 179.228 104.698 178.311 105.051ZM53.1704 105.051V98.1374H72.9437V105.051C71.7139 104.702 72.6156 105.203 71.3184 102.459C71.0744 101.943 70.9711 101.697 70.7179 101.081C70.027 99.3984 70.8249 99.8658 64.5466 99.8658V118.879C64.5466 119.966 65.718 119.862 67.0713 120.516C67.659 120.799 67.6898 120.834 68.068 121.184H58.0457L59.426 120.347C60.178 120.017 60.4258 119.821 61.2962 119.744V99.8658C54.315 99.8658 56.4813 98.8699 54.1791 103.82C53.6984 104.853 53.6982 104.848 53.1704 105.051ZM159.079 108.22V110.525C159.079 120.363 168.102 121.686 171.694 118.468C172.162 118.049 173.821 114.983 173.977 114.27H174.518C174.484 115.9 173.977 118.357 173.977 120.032C169.312 121.187 173.151 121.472 165.309 121.472C161.634 121.472 157.841 118.611 156.476 115.022C153.094 106.129 160.217 97.8492 166.392 97.8492C169.362 97.8492 171.537 97.8401 173.977 99.5777V105.339C173.335 105.092 173.611 105.237 173.244 104.678C172.22 103.117 172.041 99.2899 166.934 99.2899C162.599 99.2899 159.079 103.612 159.079 108.22ZM201.876 98.1374C206.693 98.1374 212.93 97.4093 216.133 99.3947C219.052 101.204 218.751 105.345 216.403 107.25C216.021 107.56 215.651 107.795 215.221 108.009L213.794 108.796C216.248 109.014 218.768 110.369 219.678 112.334C220.92 115.016 219.763 117.628 218.059 119.094C215.972 120.888 213.429 121.195 210.815 121.185C207.746 121.172 204.675 121.184 201.605 121.184L202.726 120.359C203.237 120.096 203.769 119.878 204.314 119.744V99.8658C201.457 98.258 202.781 99.3907 201.876 98.1374ZM335.684 98.1374H344.352C343.759 98.9975 342.551 99.3551 341.643 99.8658V115.71C342.486 115.11 343.77 113.128 344.559 112.186C345.624 110.916 346.373 109.9 347.413 108.595C347.937 107.936 353.02 102.016 353.02 101.306C353.02 98.3998 351.568 99.9615 350.311 98.1374H358.979C358.157 99.3297 356.27 99.2144 356.27 100.442V118.879C356.27 120.107 358.157 119.992 358.979 121.184H350.311C350.845 120.408 351.487 120.318 353.02 119.456V104.187C351.955 104.489 350.766 106.686 349.972 107.572L342.792 116.645C339.689 120.003 343.451 119.876 344.352 121.184H335.684C336.505 119.992 338.393 120.107 338.393 118.879V100.442C338.393 99.2144 336.505 99.3297 335.684 98.1374ZM322.682 98.1374H331.35C330.529 99.3297 328.642 99.2144 328.642 100.442V118.879C328.642 120.397 330.493 119.939 331.35 121.184H322.682C323.504 119.992 325.391 120.107 325.391 118.879V100.442C325.391 98.9097 323.76 99.8485 322.682 98.1374ZM300.471 98.1374H309.952L306.431 99.8658V107.644C311.491 107.644 319.161 107.453 319.161 114.558C319.161 118.325 315.887 120.321 312.783 121.026C310.525 121.539 303.306 121.184 300.471 121.184C301.293 119.992 303.18 120.107 303.18 118.879V100.442C303.18 99.2144 301.293 99.3297 300.471 98.1374ZM273.385 98.1374H281.782C280.786 99.7185 279.344 98.9008 279.344 100.442V108.508C292.28 108.508 290.464 109.534 290.45 104.764C290.445 103.131 290.449 101.498 290.449 99.8658C289.532 99.6054 288.275 98.9862 287.741 98.1374H296.138C295.466 99.2033 294.777 99.2594 293.7 99.8658V119.744L296.409 121.184H287.741C288.562 119.992 290.449 120.107 290.449 118.879V110.237H279.344V119.744C280.312 119.984 281.27 120.441 281.782 121.184H273.385C273.977 120.324 275.186 119.966 276.094 119.456V99.8658C275.176 99.6054 273.919 98.9862 273.385 98.1374ZM246.027 98.1374H254.695C253.874 99.3297 251.986 99.2144 251.986 100.442V108.508H263.092V100.442C263.092 99.2144 261.204 99.3297 260.383 98.1374H269.051C268.23 99.3297 266.342 99.2144 266.342 100.442V118.879C266.342 120.107 268.23 119.992 269.051 121.184H260.383C261.155 120.064 263.092 120.177 263.092 118.879V110.237H251.986V118.879C251.986 120.107 253.874 119.992 254.695 121.184H246.027C246.849 119.992 248.736 120.107 248.736 118.879V100.442C248.736 99.2144 246.849 99.3297 246.027 98.1374ZM224.087 98.1374H240.61V103.899C239.662 103.534 240.538 104.314 239.725 103.112C237.196 99.3729 241.423 99.8658 230.046 99.8658V108.508C235.801 108.508 235.4 109.075 236.547 107.068C236.944 106.374 237.042 105.871 237.901 105.627C237.901 107.823 238.374 111.47 237.63 113.118C236.672 112.371 236.359 110.237 235.192 110.237H230.046V119.456H238.443C239.651 119.456 240.211 115.791 241.423 114.846V121.184H224.087C224.908 119.992 226.796 120.107 226.796 118.879V100.442C226.796 98.9097 225.164 99.8485 224.087 98.1374ZM128.2 98.1374H136.868C136.047 99.3297 134.159 99.2144 134.159 100.442V108.508H145.265V100.442C145.265 99.2144 143.378 99.3297 142.556 98.1374H151.224C150.403 99.3297 148.515 99.2144 148.515 100.442V118.879C148.515 120.107 150.403 119.992 151.224 121.184H142.556C143.328 120.064 145.265 120.177 145.265 118.879V110.237H134.159V118.879C134.159 120.107 136.047 119.992 136.868 121.184H128.2C129.022 119.992 130.909 120.107 130.909 118.879V100.442C130.909 99.2144 129.022 99.3297 128.2 98.1374ZM106.531 99.8658V115.422C107.9 115.034 113.046 107.937 114.231 106.327L117.183 102.553C118.217 101.303 118.178 102.047 118.178 99.8658C117.146 99.6101 116.025 99.0198 115.47 98.1374L123.866 98.7136C122.997 98.929 121.158 99.3927 121.158 100.442V118.879C121.158 120.107 123.045 119.992 123.866 121.184H115.47C116.062 120.324 117.27 119.966 118.178 119.456V104.187C117.335 104.427 116.996 104.919 116.511 105.582L112.181 111.061C111.333 112.177 106.531 117.516 106.531 118.879C106.531 120.107 108.418 119.992 109.24 121.184H100.572L102.069 120.183C102.713 119.833 103.281 119.646 103.281 118.879V100.442C103.281 99.5931 102.81 99.5923 102.207 99.2794C102.142 99.2461 101.55 98.974 101.467 98.9141C100.935 98.5286 101.075 98.8195 100.843 98.1374H109.24C108.647 98.9975 107.439 99.3551 106.531 99.8658ZM341.914 90.9354H344.623C344.623 92.0979 344.734 93.0118 345.224 93.7525C346.423 95.5638 350.311 95.8396 350.311 90.9354H353.02C353.02 97.8992 341.914 97.8992 341.914 90.9354ZM315.098 65.2961C315.098 64.6217 315.548 64.1436 316.182 64.1436H353.561C354.872 64.1436 355.011 66.8623 355.668 69.3931C356.438 72.3584 357.456 74.6651 358.926 77.164L363.814 83.4885C366.152 85.47 368.295 87.3194 371.035 88.7716L377.427 91.4804C381.406 92.7266 381.412 91.5415 382.544 93.8161C381.587 95.7389 381.729 95.795 375.977 93.8863C372.178 92.6255 371.61 92.1387 368.64 90.4548C367.677 89.909 367.275 89.7673 366.404 89.0874C360.273 84.2994 356.843 80.5175 353.907 72.7064C353.54 71.7305 353.275 70.9507 352.984 69.9432C352.749 69.1305 352.538 67.7591 352.207 67.0246C346.769 67.0246 318.19 67.4354 315.369 66.7365C315.228 66.0902 315.098 66.0742 315.098 65.2961ZM96.2381 67.0246H61.0254C60.9605 70.1183 58.5044 75.5097 57.3221 77.778C55.4015 81.4625 52.2134 84.9605 49.1479 87.5214L42.5647 91.7552C40.2434 92.9025 34.8983 95.2567 31.7719 95.2567C31.6437 95.0529 29.3681 92.8988 32.9591 92.1981C37.6254 91.288 41.6153 89.5111 45.5342 86.8473C49.8634 83.9043 53.4025 79.8297 55.6994 74.8998C57.0193 72.0671 57.8371 69.8103 58.4761 66.6177C58.6973 65.5118 58.8673 64.1436 59.9419 64.1436H97.3215C98.6425 64.1436 99.4215 67.0246 96.2381 67.0246ZM218.128 59.2464C211.1 55.291 212.068 42.4862 220.328 35.9464C223.001 33.8302 228.139 31.5151 233.463 32.566C242.084 34.2675 251.179 40.2955 248.2 51.1867C247.691 53.0487 246.322 55.6445 245.158 56.8815C240.323 62.0207 231.385 60.7104 227.757 55.0549C226.084 52.4458 225.498 47.5709 227.672 44.9096C228.637 43.7276 229.423 43.9965 230.588 43.4017C230.182 45.0167 228.852 45.7117 228.478 48.0794C227.624 53.479 232.795 58.7925 239.944 56.5215C242.359 55.7543 244.189 54.0575 245.269 51.8138C247.71 46.7439 245.65 41.1042 242.458 38.8437C238.649 36.1461 237.316 35.3519 232.481 35.3311C228.221 35.3131 224.96 37.2011 222.462 39.0812C219.87 41.0327 217.72 43.6876 216.731 47.3895C216.277 49.087 216.036 51.6363 216.374 53.9099C216.582 55.3086 216.657 55.5582 217.076 56.6204C217.424 57.5028 217.9 58.2027 218.128 59.2464ZM165.851 45.7064C165.851 50.146 166.438 53.5399 170.918 55.873C172.091 56.4836 172.814 56.6073 174.364 56.8375C176.785 57.1971 179.475 56.1038 180.796 54.9757C183.492 52.675 184.493 49.5603 182.921 45.9884C182.498 45.0263 181.834 44.4884 181.561 43.4017C185.868 43.7831 186.673 49.7413 184.914 53.5943C181.716 60.6031 170.746 63.1351 165.195 54.1819C163.327 51.1691 162.685 46.9215 163.915 43.0715C165.968 36.6451 174.77 32.1665 180.207 32.1665C187.595 32.1665 193.82 35.5666 196.954 42.5864C198.723 46.5476 199.404 51.7886 197.268 55.7862C196.214 57.76 195.188 58.3177 193.479 59.5345C193.698 58.6609 194.684 57.0074 195.109 55.7946C197.317 49.4962 195.009 44.641 190.976 40.3024C185.566 34.4816 176.134 33.4514 169.908 38.4985C168.234 39.856 165.851 42.6534 165.851 45.7064ZM141.744 44.8421C136.934 44.8421 135.744 39.6567 133.618 39.6567C131.791 39.6567 131.992 44.2899 131.992 45.9946C131.992 47.652 133.571 49.2321 134.691 49.75C135.619 50.1788 136.174 50.1349 137.345 50.3846C138.397 50.6089 138.698 50.9735 139.577 51.4681C139.008 53.7323 133.63 56.3424 131.628 57.4182C126.203 60.3321 121.538 63.2795 114.386 63.2795C104.407 63.2795 102.745 55.0111 107.063 51.7458C109.038 50.252 109.195 50.3159 112.49 50.3159C112.188 51.5183 111.253 51.9732 110.528 52.838C105.205 59.1838 114.99 61.6262 117.487 57.6472C119.561 54.3426 119.712 49.2762 116.239 46.9047C112.505 44.3549 108.063 44.2102 104.475 46.9772C98.639 51.4792 102.341 55.8544 96.5163 55.7971L55.3373 55.5013C54.6055 55.5013 54.5904 55.6388 53.9828 55.7894C53.4669 56.933 53.5607 57.0732 53.3953 58.6214C52.2776 69.084 45.9538 78.1268 36.6915 81.7637C33.7218 82.9298 28.4584 84.0034 25 84.3093V140.486C28.0865 142.06 37.98 140.555 45.6551 148.766C47.9903 151.264 49.9816 154.429 51.1755 158.164C52.0902 161.024 52.7505 164.265 53.1231 167.327C53.2667 168.507 53.1838 170.158 54.2538 170.158C58.8429 170.158 88.8813 170.548 92.0607 170.036C93.7862 169.759 101.044 169.557 102.593 170.025C105.316 170.849 103.946 177.064 109.509 185.428L112.951 190.122C116.7 194.836 121.213 198.719 126.033 202.135C131.569 206.058 137.493 209.197 143.717 211.847C145.1 212.436 146.222 212.871 147.624 213.454C155.719 216.825 164.459 219.059 173.047 220.697C174.762 221.025 176.054 221.243 177.721 221.487C179.122 221.692 181.077 222.113 182.416 222.256C192.663 223.347 204.344 224.381 214.892 223.468C215.761 223.393 216.703 223.513 217.572 223.438C221.766 223.075 226.763 222.825 230.9 222.056C234.271 221.43 237.847 221.1 240.936 220.343C253.898 217.168 264.236 214.628 276.185 208.282C282.942 204.693 289.741 200.398 295.117 194.711C295.775 194.016 296.185 193.866 296.743 193.272L300.739 188.304C301.241 187.607 301.542 187.322 302.048 186.526C304.493 182.682 306.473 178.637 307.569 173.962C308.904 168.268 308.454 169.87 321.328 169.87C325.422 169.87 328.569 170.158 332.705 170.158H358.708C358.708 162.424 361.506 154.062 366.491 148.763C368.668 146.45 372.103 144.224 375.262 143.111C377.315 142.388 378.375 141.988 380.842 141.555L387.149 140.773V86.9021C387.149 83.884 385.47 83.9203 382.835 83.7119C373.436 82.9682 364.583 76.9503 361.103 67.6454C360.037 64.7916 359.144 61.6119 358.667 58.425C358.409 56.702 358.707 55.5013 357.083 55.5013C343.244 55.5013 330.237 55.7315 316.452 55.7901C310.327 55.8161 312.834 54.6649 310.858 50.7919C306.138 41.5393 292.887 44.3348 292.887 52.6204C292.887 55.4202 294.619 58.5148 296.594 59.3443C298.924 60.3222 303.18 58.9503 303.18 56.3654C303.18 53.181 300.414 52.8098 299.388 51.18C302.913 49.3813 307.243 52.1425 307.243 56.3654C307.243 61.1037 302.359 63.2795 298.034 63.2795C289.472 63.2795 281.707 58.5027 274.891 54.1876C273.739 53.4578 272.937 53.2095 272.572 51.7562C274.257 49.0798 280.156 51.3838 280.156 45.1302C280.156 39.2479 278.745 37.8921 275.443 42.4219C272.929 45.8709 268.329 44.9358 265.34 43.3154C264.575 42.9004 263.806 42.1724 263.129 41.6337C260.934 39.8859 257.519 37.0114 255.818 34.7178L253.008 31.3682C250.474 28.6194 247.393 26.1435 244.091 24.4311C233.656 19.0206 220.934 19.5726 213.13 29.4436C211.206 31.8769 209.19 34.45 207.746 37.2577C207.2 38.3197 206.421 40.2225 205.668 40.8092C204.926 37.419 201.871 33.2431 199.943 30.4771C192.737 20.1394 179.574 18.8183 169.104 23.8155C162.764 26.8416 160.227 30.2177 156.165 35.1173L153.931 37.6379C151.252 40.6457 146.205 44.8421 141.744 44.8421Z" fill="url(#linear-gradient)"/>
<path fill-rule="evenodd" clip-rule="evenodd" d="M223.545 160.939C223.545 163.774 223.991 166.282 224.887 168.155C229.403 177.599 241.689 167.183 231.625 160.125C230.139 159.082 226.212 157.482 223.816 157.482C223.816 159.166 223.545 159.495 223.545 160.939Z" fill="white"/>
<path fill-rule="evenodd" clip-rule="evenodd" d="M223.545 144.518L223.816 148.552C227.172 148.255 235.193 145.139 235.193 140.486V138.469C235.193 135.5 229.366 130.513 225.046 137.184C224.034 138.747 223.545 141.943 223.545 144.518Z" fill="white"/>
<path fill-rule="evenodd" clip-rule="evenodd" d="M224.9 152.873C225.439 153.656 228.089 155.755 228.972 156.32C241.314 164.225 244.934 147.111 234.651 147.111C231.27 147.111 225.989 151.143 224.9 152.873Z" fill="white"/>
<path fill-rule="evenodd" clip-rule="evenodd" d="M245.756 188.307C245.756 193.489 248.995 199.209 252.88 197.337C253.501 197.038 253.985 196.57 254.324 195.978C255.849 193.309 254.278 188.892 252.965 186.69C250.596 182.72 245.756 183.71 245.756 188.307Z" fill="#D0D0D0"/>
<path fill-rule="evenodd" clip-rule="evenodd" d="M176.685 189.459L175.331 199.542C177.277 200.928 176.975 201.559 180.207 201.559C183.748 201.559 185.301 193.243 182.85 190.393C180.693 187.884 178.054 189.111 176.685 189.459Z" fill="#D0D0D0"/>
<path fill-rule="evenodd" clip-rule="evenodd" d="M306.431 119.455H311.035C313.82 119.455 316.229 116.912 315.781 113.855C315.287 110.477 313.17 109.373 309.681 109.373H306.431V119.455Z" fill="gray"/>
<path fill-rule="evenodd" clip-rule="evenodd" d="M207.564 110.813V119.455C210.492 119.455 216.774 120.272 216.774 114.846C216.774 112.787 215.791 111.407 214.382 110.764C214.382 110.764 207.564 108.684 207.564 110.813Z" fill="#D0D0D0"/>
<path fill-rule="evenodd" clip-rule="evenodd" d="M207.564 108.508C210.343 108.508 214.878 108.839 214.878 104.187C214.878 102.984 214.484 101.863 213.875 101.221C212.217 99.4718 209.87 99.8657 207.564 99.8657V108.508Z" fill="#D0D0D0"/>
<path fill-rule="evenodd" clip-rule="evenodd" d="M81.8821 111.389H88.383C88.3519 109.906 87.4596 108.36 86.9872 107.112C86.5615 105.988 85.6638 103.936 85.4033 102.747H84.8616C84.7265 104.474 82.0303 109.493 81.8821 111.389Z" fill="#4E4E4E"/>
<path fill-rule="evenodd" clip-rule="evenodd" d="M199.98 194.645H201.334C201.334 187.749 195.024 188.837 194.214 193.469C193.975 194.837 194.788 194.244 196.409 194.408C197.546 194.523 198.435 194.645 199.98 194.645Z" fill="#D0D0D0"/>
<path fill-rule="evenodd" clip-rule="evenodd" d="M158.267 187.731C160.668 187.788 162.908 189.403 165.309 189.459C165.309 186.663 165.616 183.986 161.788 183.986C160.046 183.986 158.403 185.991 158.267 187.731Z" fill="#D0D0D0"/>
<path fill-rule="evenodd" clip-rule="evenodd" d="M215.69 152.873C215.69 155.649 220.295 156.267 220.295 152.873C220.295 149.496 215.69 150.018 215.69 152.873Z" fill="#D0D0D0"/>
<path fill-rule="evenodd" clip-rule="evenodd" d="M216.232 148.264C216.232 148.705 216.488 149.194 216.71 149.484C218.163 151.39 220.636 149.114 219.276 147.331C217.789 145.381 216.232 147.743 216.232 148.264Z" fill="#D0D0D0"/>
<path fill-rule="evenodd" clip-rule="evenodd" d="M216.503 156.906V158.346C217.061 158.744 217.206 159.211 217.857 159.211C219.811 159.211 220.268 157.863 218.941 155.754C218.043 155.754 216.503 155.621 216.503 156.906Z" fill="#D0D0D0"/>
</g>
<defs>
<filter id="filter0_d_2_2668" x="0" y="0" width="412.149" height="252.819" filterUnits="userSpaceOnUse" color-interpolation-filters="sRGB">
<feFlood flood-opacity="0" result="BackgroundImageFix"/>
<feColorMatrix in="SourceAlpha" type="matrix" values="0 0 0 0 0 0 0 0 0 0 0 0 0 0 0 0 0 0 127 0" result="hardAlpha"/>
<feOffset dy="4"/>
<feGaussianBlur stdDeviation="12.5"/>
<feComposite in2="hardAlpha" operator="out"/>
<feColorMatrix type="matrix" values="0 0 0 0 0.367875 0 0 0 0 0.0391806 0 0 0 0 0.904167 0 0 0 0.25 0"/>
<feBlend mode="normal" in2="BackgroundImageFix" result="effect1_dropShadow_2_2668"/>
<feBlend mode="normal" in="SourceGraphic" in2="effect1_dropShadow_2_2668" result="shape"/>
</filter>
<linearGradient id="linear-gradient">
		<stop offset="0%" stop-color="black"/>
        <stop offset="50%" stop-color="white" />
		<stop offset="100%" stop-color="black" />
	</linearGradient>	
</defs>
</svg>
