<svg xmlns='http://www.w3.org/2000/svg' fill='#FAFAFA' viewBox='0 0 100 100'>
<path d="M50.409,6C23.065,6,.818,22.886.818,43.641c0,13.222,8.918,25.245,23.855,32.163l1.67.773.41,12.436a3.354,3.354,0,0,0,5.058,2.777L49.592,81.283h.817C77.753,81.283,100,64.4,100,43.641S77.753,6,50.409,6ZM37.158,45.439a5.68,5.68,0,1,1-6.682-6.684A5.668,5.668,0,0,1,37.158,45.439Zm18.124,0A5.68,5.68,0,1,1,48.6,38.754,5.669,5.669,0,0,1,55.282,45.438Zm19.517,0a5.68,5.68,0,1,1-6.682-6.684A5.668,5.668,0,0,1,74.8,45.438Z"/>
</svg>