<svg width="775" height="980" viewBox="0 0 775 980" fill="none" xmlns="http://www.w3.org/2000/svg">
<path d="M261.46 6.96188C231.61 26.1519 196.69 92.2519 182.83 156.752C179.37 172.482 178.03 190.602 178.03 215.392C178.03 267.102 186.83 318.012 211.61 405.432C220.67 437.952 223.6 444.882 228.13 446.212C231.33 447.012 244.12 449.142 257.18 451.012C276.37 453.942 280.37 453.942 280.37 450.742C280.37 448.872 275.04 403.302 268.38 349.462C261.72 295.622 256.92 249.782 257.72 247.912C258.52 245.782 262.25 244.712 267.58 245.242L276.37 246.042L289.16 349.992C296.09 407.032 302.75 454.472 303.82 455.542C304.89 456.612 316.88 457.942 330.47 458.472L354.99 459.542V314.282C354.72 132.502 352.06 98.6519 333.4 49.8819C316.37 5.63185 289.45 -10.6281 261.46 6.96188Z" fill="white"/>
<path d="M461.1 158.362C444.84 163.162 433.38 174.882 430.98 188.482C425.38 222.332 465.63 299.362 514.94 348.672C575.44 409.172 616.49 404.382 631.15 335.082C636.21 312.162 634.88 274.042 628.22 248.722C621.82 223.932 606.9 195.682 594.64 185.022C567.44 161.822 496.28 147.432 461.1 158.362Z" fill="white"/>
<path d="M429.65 363.592V458.742L454.97 457.412C469.1 456.612 481.09 455.282 481.89 454.742C482.69 453.942 485.89 432.082 489.08 406.502L494.68 359.862L480.02 341.732C462.69 320.142 446.17 295.892 437.91 279.892C434.71 273.762 431.51 268.702 430.98 268.702C430.18 268.702 429.65 311.352 429.65 363.592Z" fill="white"/>
<path d="M376.34 311.352V346.002H393.66H410.99V311.352V276.702H393.66H376.34V311.352Z" fill="white"/>
<path d="M156.45 302.552C135.39 307.882 90.88 324.672 69.03 335.872C-9.34001 376.112 -21.33 429.692 38.91 472.602C98.88 514.982 199.63 541.102 332.9 549.102C537.33 560.832 738.3 507.252 769.75 432.622C783.08 400.642 759.36 363.852 707.65 337.202C681 323.612 657.28 314.012 655.14 316.142C654.08 316.942 653.54 321.472 653.54 326.272C653.54 336.402 644.75 364.652 637.81 377.982L632.75 387.312L641.81 397.172C646.88 402.772 650.87 410.232 650.87 413.692C650.87 445.412 554.12 474.462 433.64 478.992C290.78 484.322 166.57 464.062 132.19 429.682C126.59 423.822 123.13 417.952 123.13 413.422C123.13 403.032 142.59 385.702 162.58 378.242C171.64 374.772 179.11 370.782 179.11 368.912C179.11 362.782 164.72 300.682 163.38 300.942C162.58 301.222 159.38 302.022 156.45 302.552Z" fill="white"/>
<path d="M508.54 414.232C506.14 434.222 504.54 451.282 505.34 451.812C506.94 453.682 558.65 444.352 561.85 441.682C563.45 440.352 566.12 434.482 567.98 428.352C569.84 422.222 571.98 415.822 572.78 413.692C573.58 411.562 572.51 409.962 570.65 409.962C564.25 409.962 540.53 397.702 527.47 387.572C520.54 382.242 514.41 377.972 514.14 377.972C513.6 377.982 511.21 394.242 508.54 414.232Z" fill="white"/>
<path d="M1.86 476.862C15.72 540.562 127.66 589.872 292.38 604.532C333.69 608.262 440.57 608.262 481.62 604.532C646.34 589.872 758.28 540.572 772.14 476.862L774.01 467.532L761.22 478.462C722.57 510.452 670.59 532.832 594.9 549.632C529.6 564.022 469.36 569.892 387 569.892C281.19 569.892 197.23 558.432 119.67 533.372C71.43 517.912 42.38 502.982 12.79 478.462L0 467.532L1.86 476.862Z" fill="white"/>
<path d="M111.67 609.072C108.74 639.452 109.54 647.722 115.93 658.642C137.25 693.822 214.28 722.612 313.43 732.742C359.54 737.272 458.96 734.612 500.27 727.412C582.36 713.282 636.47 690.102 656.46 660.512L664.72 648.522L662.85 620.532C661.78 605.072 660.72 592.282 660.18 591.742C659.91 591.212 648.72 593.872 635.93 597.602C555.97 620.522 466.41 630.392 359 627.722C262.78 625.322 202.28 616.262 118.85 592.272C113.8 590.942 113.27 592.012 111.67 609.072Z" fill="white"/>
<path d="M103.67 697.022C94.87 784.712 87.94 876.932 89.54 885.192C96.47 922.502 170.83 957.952 275.05 973.682C321.16 980.612 425.37 982.212 474.95 976.612C540.25 969.152 598.89 953.692 636.2 934.232C658.32 922.502 681.78 898.782 684.44 885.722C685.51 879.862 682.84 836.412 677.78 780.702C673.25 728.462 669.52 684.752 669.52 683.412C669.52 682.352 664.46 685.542 658.06 690.612C579.97 754.582 371 776.172 216.41 736.452C173.5 725.522 139.91 710.062 116.19 690.872L105.26 681.812L103.67 697.022Z" fill="white"/>
</svg>
