<?xml version="1.0" encoding="UTF-8"?>
<svg viewBox="0 0 60 60" xmlns="http://www.w3.org/2000/svg"><title/><g id="colour"><polygon fill="#3a3a3a" points="30.76 1 30.76 9.95 42 7.834 42 7.327 30.76 1"/><polygon fill="#3a3a3a" points="29.24 1 29.24 9.95 18 7.834 18 7.327 29.24 1"/><polygon fill="#494849" points="18 7.134 30 1 30 4 21 8 18 7.625 18 7.134"/><polygon fill="#494849" points="42 7.134 30 1 30 4 39 8 42 7.625 42 7.134"/><path d="M50.8144,36.79c-4.07891,10.33-12.56388,18.46-18.8305,21.14a4.93034,4.93034,0,0,1-3.84381,0c-6.26662-2.68-14.74135-10.81-18.8305-21.14-2.83175-7.17-2.90332-14.05-.22494-19.9a6.67525,6.67525,0,0,1,2.11614-2.58l6.64486-4.87,3.50643,1.71a5.212,5.212,0,0,0-.59288,4.09c.71561,2.41,3.3633,4.18,6.08262,5.59a14.70149,14.70149,0,1,0,6.44039,0c2.72949-1.41,5.367-3.18,6.09279-5.59a5.29884,5.29884,0,0,0-.59288-4.09l3.50643-1.71,6.63463,4.87a6.61222,6.61222,0,0,1,2.12637,2.58C53.728,22.74,53.64616,29.62,50.8144,36.79Z" fill="#f57b02"/><path d="M8.95044,16.89a6.61211,6.61211,0,0,1,2.12634-2.58l6.63464-4.87,2.481,1.2099L15.20612,14.31a6.61211,6.61211,0,0,0-2.12634,2.58C10.40137,22.74,10.16821,29.83,13,37c4.04858,10.25317,10.74762,18.2597,17,21-.04687.02057,1.90656-.09,1.85992-.07a4.93035,4.93035,0,0,1-3.84381,0C21.74945,55.25,13.26453,47.12,9.18561,36.79,6.35382,29.62,6.272,22.74,8.95044,16.89Z" fill="#f99338"/><path d="M51.04956,16.89a6.61211,6.61211,0,0,0-2.12634-2.58L42.28857,9.44l-2.481,1.2099L44.79388,14.31a6.61211,6.61211,0,0,1,2.12634,2.58C49.59863,22.74,49.83179,29.83,47,37,42.95142,47.25317,36.25238,55.2597,30,58c.04688.02057-1.90656-.09-1.85992-.07a4.93035,4.93035,0,0,0,3.84381,0c6.26666-2.68,14.75159-10.81,18.83051-21.14C53.64618,29.62,53.728,22.74,51.04956,16.89Z" fill="#d86a07"/><path d="M42,8v.37617L30,15,18,8.37617V8l11.84507,2.17751a.36768.36768,0,0,0,.30986,0Z" fill="#2d2d2d"/></g><g data-name="Layer 1" id="Layer_1"><path d="M51.78125,16.32653a8.01,8.01,0,0,0-2.50635-3.12012L43,8.50048V7.00036a1.0004,1.0004,0,0,0-.55273-.89453l-12-6a1.0011,1.0011,0,0,0-.89453,0l-12,6A1.0004,1.0004,0,0,0,17,7.00036V8.50048l-6.2749,4.70593a8.00442,8.00442,0,0,0-2.50586,3.12012c-2.77441,6.19824-2.70605,13.44531.19678,20.957,4.13037,10.68652,12.76123,19.1084,19.15137,21.9043a6.07932,6.07932,0,0,0,4.86475,0C38.82275,56.392,47.45361,47.97008,51.584,37.28356,54.48682,29.77184,54.55518,22.52477,51.78125,16.32653ZM37.78369,14.85192c-.64258,2.20605-3.51025,3.89355-6.231,5.25391a1.00021,1.00021,0,0,0,.30566,1.88477,13.00078,13.00078,0,1,1-3.7168,0,1.00021,1.00021,0,0,0,.30566-1.88477c-2.7207-1.36035-5.58838-3.04785-6.231-5.25391a3.66842,3.66842,0,0,1,.22443-2.513l7.112,3.556a1.0011,1.0011,0,0,0,.89453,0l7.112-3.556A3.66842,3.66842,0,0,1,37.78369,14.85192ZM31,2.61852l9.30212,4.65106L31,8.82ZM29,8.82,19.69788,7.26958,29,2.61852Zm1,5.06219L21.39575,9.58007l8.4397,1.40662a.99708.99708,0,0,0,.3291,0l8.4397-1.40662ZM49.71826,36.56286c-3.89111,10.06836-12.22363,18.22754-18.08838,20.793a4.07953,4.07953,0,0,1-3.26025,0c-5.86426-2.56543-14.19678-10.72461-18.08789-20.793-1.88721-4.88379-3.46045-12.21777-.23682-19.41992A5.99828,5.99828,0,0,1,11.92529,14.806l6.18005-4.63483,2.54633,1.27319a5.68419,5.68419,0,0,0-.35529,3.9671c.64307,2.208,2.6543,3.876,4.93066,5.22754A15.2106,15.2106,0,0,0,15,35.00036a15,15,0,1,0,30,0A15.2106,15.2106,0,0,0,34.773,20.639c2.27637-1.35156,4.2876-3.01953,4.93066-5.22754a5.68419,5.68419,0,0,0-.35529-3.9671l2.54633-1.27319L48.07471,14.806a6.00389,6.00389,0,0,1,1.88086,2.33691C53.17871,24.34508,51.60547,31.67907,49.71826,36.56286Z"/></g></svg>