<svg width="272" height="297" viewBox="0 0 272 297" fill="none" xmlns="http://www.w3.org/2000/svg">
<path d="M260.153 81.0884C256.973 74.9527 252.057 69.6208 245.867 65.5918L210.1 42.219V34.7684C210.1 33.846 209.805 32.9418 209.249 32.1572C208.692 31.3725 207.896 30.7383 206.949 30.3255L138.549 0.52553C137.758 0.181035 136.885 0.00170135 136 0.00170135C135.115 0.00170135 134.242 0.181035 133.451 0.52553L65.0506 30.3255C64.104 30.7383 63.3078 31.3725 62.7514 32.1572C62.1949 32.9418 61.9002 33.846 61.9 34.7684V42.219L26.1331 65.5918C19.9429 69.6202 15.0282 74.9524 11.8497 81.0884C-3.96445 111.873 -3.57479 147.867 12.9713 185.175C36.5145 238.251 85.7104 280.08 122.134 293.966C126.507 295.63 131.227 296.488 135.999 296.488C140.77 296.488 145.49 295.63 149.863 293.966C186.29 280.08 235.486 238.251 259.029 185.175C275.575 147.867 275.965 111.873 260.153 81.0884ZM180.367 73.7645C176.704 84.7212 160.359 93.1024 144.85 99.8589C143.764 100.332 142.879 101.096 142.325 102.038C141.771 102.981 141.578 104.052 141.772 105.097C141.967 106.143 142.539 107.106 143.406 107.848C144.273 108.589 145.39 109.07 146.593 109.22C165.135 111.553 181.974 119.92 193.723 132.635C205.471 145.351 211.256 161.472 209.914 177.754C208.571 194.037 200.201 209.271 186.487 220.393C172.773 231.515 154.734 237.698 136 237.698C117.265 237.698 99.226 231.515 85.5123 220.393C71.7986 209.271 63.4282 194.037 62.0858 177.754C60.7433 161.472 66.5284 145.351 78.2767 132.635C90.0251 119.92 106.865 111.553 125.407 109.22C126.61 109.07 127.726 108.589 128.593 107.848C129.46 107.106 130.033 106.143 130.227 105.097C130.422 104.052 130.228 102.981 129.674 102.038C129.121 101.096 128.236 100.332 127.149 99.8589C111.641 93.1025 95.2954 84.7212 91.6324 73.7645C90.3519 69.6031 90.8051 65.181 92.9117 61.2832L133.45 78.9447C134.242 79.2892 135.115 79.4685 135.999 79.4685C136.884 79.4685 137.757 79.2892 138.549 78.9447L179.087 61.2832C181.194 65.1809 181.647 69.6031 180.367 73.7645V73.7645ZM141.7 13.0052L194.722 36.1055L141.7 43.8059V13.0052ZM130.3 43.8059L77.2779 36.1055L130.3 13.0052V43.8059ZM136 68.9481L86.9558 47.5809L135.062 54.5671C135.683 54.6577 136.317 54.6577 136.938 54.5671L185.044 47.5809L136 68.9481ZM248.394 181.595C226.215 231.602 178.719 272.126 145.29 284.867C142.359 285.981 139.196 286.555 135.999 286.555C132.801 286.555 129.638 285.981 126.707 284.867C93.2806 272.126 45.7853 231.602 23.6059 181.595C12.8488 157.339 3.88138 120.914 22.2561 85.1432C24.643 80.5458 28.331 76.552 32.9742 73.5364L68.2005 50.5167L82.7145 56.8402C79.3344 62.9802 78.6151 69.9779 80.6894 76.5435C84.3549 87.5099 95.8189 95.7943 108.794 102.507C91.7791 107.648 77.0237 117.279 66.5772 130.061C56.1306 142.843 50.5115 158.143 50.5 173.835C50.5 193.594 59.508 212.543 75.5424 226.514C91.5768 240.486 113.324 248.335 136 248.335C158.676 248.335 180.423 240.486 196.458 226.514C212.492 212.543 221.5 193.594 221.5 173.835C221.489 158.143 215.869 142.843 205.423 130.061C194.976 117.279 180.221 107.648 163.206 102.507C176.181 95.7942 187.645 87.5099 191.311 76.5435C193.385 69.9779 192.666 62.9802 189.286 56.8402L203.8 50.5167L239.026 73.5364C243.669 76.5525 247.358 80.546 249.747 85.143C268.119 120.914 259.151 157.339 248.394 181.595Z" fill="white"/>
</svg>
