<svg xmlns="http://www.w3.org/2000/svg" viewBox="0 0 100 100">
	<linearGradient id="linear-gradient-1">
		<stop offset="0%" stop-color="#24a6bd"/>
		<stop offset="100%" stop-color="#349cc1"/>
	</linearGradient>
	<path fill="url(#linear-gradient-1)" d="M56.461,69.558A69.6,69.6,0,0,0,68.785,79.605c3.267,2.222,3.271,5.08,1.9,8.609C66.9,97.956,54.946,102.55,44.838,97.988A18.622,18.622,0,0,1,39.49,94.22c-6.526-6.488-6.18-9.211,1.41-16.215,9.954-9.186,8.825-7.24.707-14.422-3.093-2.737-6.312-5.34-9.379-8.1-1.8-1.622-3.448-1.491-5.387.386C24.1,58.524,21.228,61.06,18.467,63.7c-2.746,2.63-5.393,2.835-8.57,1.542-6.24-2.54-9.054-7.27-8.673-13.985a30.09,30.09,0,0,1,5.594-15.5c3.159-4.543,5-4.957,8.678-1.788s7.236,6.494,10.628,9.959c2.477,2.53,4.57,3.068,7.645-.247,3.888-4.193,8.048-8.174,12.317-12,2.849-2.551,2.3-4.265.2-6.269-4.04-3.854-7.965-7.825-11.916-11.767-1.9-1.892-1.743-3.776.527-5.922C43.875-.754,59.22-1.4,66.6,6.472c4.551,4.854,4.317,6.649-.863,12.016C62.6,21.738,57,24.2,57.02,28.483c.015,3.7,4.934,5.616,7.627,8.374,2.2,2.254,4.571,4.353,6.922,6.461,4.261,3.821,4.3,3.824,9.375-.611,2.468-2.154,4.835-4.424,7.282-6.6a3.626,3.626,0,0,1,4.89-.4c8.912,5.441,9.12,19.629.453,27.242-2.32,2.038-4.02,2.31-6.021.49-3.054-2.776-6.279-5.374-9.276-8.207-1.966-1.859-3.757-1.782-6.071.155A187.06,187.06,0,0,0,56.461,69.558ZM52.254,31.512l-16.9,16.125c-1.771,1.689-1.638,3.146-.042,4.505,4.986,4.247,9.976,8.49,14.908,12.8,1.874,1.636,3.573,1.116,5.456-.575,5.212-4.682,10.467-9.317,16.248-14.453Zm-.78,63.818c3.238.2,6.6.007,9.779-1.815,5.969-3.421,6.783-8.622,2-12.337-.956-.743-1.935-1.458-2.9-2.191-7.993-6.077-7.992-6.077-16.422,1.777-5.2,4.847-5.3,6.759-.562,10.979A15.4,15.4,0,0,0,51.474,95.33Zm.835-70.475a45.876,45.876,0,0,0,9.054-8.325c4.111-4.554,4.143-5.687-.246-8.776C53.666,2.507,46.231,5.7,38.327,10.431,42.37,15.989,47.49,20.047,52.309,24.855Zm-41,12.242C6.865,42.675,4.538,48.366,5.959,54.651,7.531,61.6,13.285,62.87,18.965,57.66,20.771,56,22.49,54.249,24.28,52.573c1.476-1.382,1.627-2.662.28-3.881C20.288,44.827,16.616,40.3,11.311,37.1ZM94.98,53.092c.524-3.623.982-6.91-.748-9.8-2.044-3.413-3.725-3.712-7.109-.648-9.8,8.87-8.635,6.242-.92,13.549.7.66,1.442,1.268,2.137,1.928,2.378,2.255,3.982.91,5.25-1.688C94.168,55.252,94.6,54.014,94.98,53.092Z"/>
</svg>