<svg xmlns="http://www.w3.org/2000/svg" viewBox="0 0 100 100">
	<linearGradient id="linear-gradient-2">
		<stop offset="0%" stop-color="#349cc1"/>
		<stop offset="100%" stop-color="#4592c6"/>
	</linearGradient>
	<path fill="url(#linear-gradient-2)" d="M52.6,46.177c7.21,2.015,14.039,2.2,20.859,2.686,4.672.329,6.3-1.774,7.185-6.082C82.288,34.808,81.682,26.8,81.915,18.8c.15-5.095.429-10.189.809-15.271A2.787,2.787,0,0,1,85.37.624C87.419.5,87.814,2.211,87.8,3.476c-.2,14.182,1.307,28.472-1.716,42.5-1.711,7.936-3.21,8.832-11.267,8.773-4.735-.034-9.473-.641-14.2-.547-3.258.065-7.717-1.971-8.818,3.6-.886,4.486-1.248,8.08,4.531,10.441C65.414,71.951,67.725,80.877,69.8,89.5c.433,1.8.311,4.025-1.594,4.738-2.947,1.1-3.644-1.572-4.292-3.558-1.465-4.488-2.271-9.237-5.363-13.042-1.375-1.692-2.819-3.728-5.274-3.288-2.864.513-2.457,3.2-2.587,5.27-.276,4.366-.238,8.756-.642,13.107-.251,2.7.023,6.754-4.071,6.242-3.481-.436-2.187-3.879-1.869-6.308A66.787,66.787,0,0,0,44.134,75.5c-6.116,1.776-8.207,5.892-8.954,11.072-.273,1.89-.549,3.97-2.9,3.656-2.67-.355-3.242-2.809-3.02-5.036.707-7.075,4.858-11.976,10.513-15.822,2.036-1.385,4.5-2.072,5.31-5.029,2.112-7.705-.328-11.166-8.542-11.8-5.8-.449-11.659-.191-17.352-1.88-3.99-1.183-6.546-3.406-6.159-7.74,1.131-12.7,2.419-25.39,3.692-38.079.183-1.82.6-3.829,2.968-3.789,2.533.041,2.477,2.266,2.509,3.974.185,9.872-1.33,19.618-2.244,29.412C19,44.662,19.3,44.94,29.09,46.169a66.21,66.21,0,0,0,7.64.4c2.49.022,5.038.776,7.491-.4,3.619-3.517-11.287-7.081,1.007-10.785A84.1,84.1,0,0,1,38.5,30.133c-5.343-5.13-5.54-11.85-.8-17.578C41.141,8.4,47.486,8.032,50.168,2.7c.693-1.376,3.263-.055,3.473,1.118.784,4.4,4.476,6.358,6.958,9.357,5.023,6.068,4.6,12.941-1.894,19.329-2.9,2.857-1.986,3.095.723,4.728,2.539,1.53,1.771,3.611-.918,4.7C56.59,42.713,54.047,42.311,52.6,46.177ZM46.152,27.089c1.606-2.015,1.368-3.853,1.316-5.6-.065-2.14.108-4.639-3.258-4.286C40.7,17.567,40.2,19.961,40.9,22.73,41.471,24.967,43.119,26.4,46.152,27.089Zm9.3-.68c3.018-2.753,3.481-5.137.1-8.463C54.04,20.979,53.445,23.355,55.447,26.409Z"/>
</svg>