<svg xmlns="http://www.w3.org/2000/svg" viewBox="0 0 100 100">
	<linearGradient id="linear-gradient-3">
		<stop offset="0%" stop-color="#4592c6"/>
		<stop offset="100%" stop-color="#5f80cd"/>
	</linearGradient>
	<path fill="url(#linear-gradient-3)" d="M79.115,17.064c2.679.353,4.954-.431,5.836-3.449.765-2.616-1.246-7.25-3.569-8.589-2.792-1.609-5.049-.529-6.743,1.7-2.971,3.913-5.764,7.964-8.575,12-2.035,2.919-.138,5.5,1.183,7.8,3.274,5.708,5.8,11.742,8.482,17.721a89.073,89.073,0,0,1,4.834,13.162c2.5,9.24,4.892,18.516,7.711,27.66,2.777,9.013-6.134,14.245-13,13.919-5.444-.259-8.714-7.041-5.814-11.619a5.3,5.3,0,0,1,7.326-1.84A2.734,2.734,0,0,1,77.9,87.162a1.446,1.446,0,0,1-1.578,1.806c-2.381-.142-4.455-.056-3.736,3.216.611,2.78,2.782,2.731,4.982,2.512,5.486-.546,7.655-3.5,6.634-9.054-.084-.461-.136-.929-.238-1.385-1.9-8.477-1.96-8-10.786-9.194C61.362,73.47,49.681,70.918,37.9,69.041c-6.722-1.072-13.378-2.2-19.721-4.794a16.653,16.653,0,0,1-7.7-5.868A11.971,11.971,0,0,1,12.864,42c2.722-2.061,5.783-3.326,9.178-1.926,3.579,1.476,5.128,4.683,5.932,8.206.615,2.7-.788,4.5-3.246,5.484-1.12.449-2.412.6-3.262-.383-1.028-1.2-.132-2.052.864-2.808,2.412-1.832,1.217-3.71-.092-5.442-1.549-2.05-3.522-1.934-5.626-.834a8.257,8.257,0,0,0-2.225,12.636c2.882,3.433,7,4.553,11.129,5.474,2.643.59,3.612-1.78,4.884-3.329C42.446,44.411,53.671,29.121,64.7,13.685c2.043-2.858,3.945-5.817,6.034-8.639C74.429.058,79.688-1.072,84.115,2.061c4.294,3.039,6.3,11.118,3.77,15.149C85.8,20.532,80.4,22.017,76.577,20.247c-1.04-.481-2.194-1.157-1.814-2.588.4-1.492,1.6-1.418,2.808-1.074C78.021,16.714,78.465,16.861,79.115,17.064Zm-17.482,7.8C51.531,38.3,42.36,50.923,32.422,62.881c.842.791,1.137,1.319,1.51,1.381,13.139,2.2,26.127,5.313,39.384,6.782,5.836.646,6.289.243,5.178-5.495C75.75,51.371,69.477,38.612,61.633,24.861Z"/>
	<path fill="url(#linear-gradient-3)" d="M67.219,62.837c-5.367-1.225-11.211-2.8-17.269-3.437-2.6-.273-3.4-2.482-2.439-4.78,2.247-5.4,5.74-10.115,9.019-14.893,1.653-2.409,4.2-2.074,5.612.684,3.193,6.213,6.106,12.58,8.88,18.994C72.125,61.955,70.948,63,67.219,62.837ZM59.27,44.089a20.971,20.971,0,0,0-2.087,1.97c-6.671,8.973-6.666,8.979,4.107,11.31,1.321.286,2.665.969,4.247-.393A72.37,72.37,0,0,0,59.27,44.089Z" />
</svg>