<svg  viewBox="0 0 23 25" fill="none" xmlns="http://www.w3.org/2000/svg">
<path fill-rule="evenodd" clip-rule="evenodd" d="M4.24978 2.60684C4.57309 2.56375 5.03443 2.59038 5.37521 2.59038C9.54389 2.59038 13.7126 2.59038 17.8813 2.59038C18.7127 2.59038 19.172 2.59208 19.7368 3.05188C20.6792 3.8187 20.5727 4.73484 20.5727 5.81843V19.2072C20.5727 20.0902 20.5711 20.5938 20.1414 21.1934C19.8541 21.5946 19.3959 21.9865 18.6977 22.0722C18.3568 22.114 17.9093 22.0886 17.5575 22.0886C13.3888 22.0886 9.22011 22.0886 5.05143 22.0886C4.22002 22.0886 3.76067 22.0869 3.19592 21.6271C2.25361 20.8603 2.35997 19.9572 2.35997 18.8605V5.47179C2.35997 4.58816 2.36156 4.08576 2.7913 3.48556C3.09067 3.06724 3.53375 2.70237 4.24978 2.60684ZM0.349991 20.1604C0.37313 20.5902 0.473182 21.0071 0.59909 21.3738C0.879789 22.191 1.17158 22.5361 1.65327 23.0621C1.69532 23.1081 1.69453 23.1127 1.73355 23.1488C2.67459 24.0192 3.56726 24.2551 4.86934 24.2551H15.9993C16.899 24.2551 17.8619 24.2894 18.7526 24.2413C19.4273 24.205 20.323 23.8754 20.824 23.4625C21.3126 23.0597 21.1436 23.2009 21.4819 22.845C21.5236 22.8011 21.5299 22.8003 21.5631 22.7593C22.3761 21.7539 22.5963 20.7908 22.5963 19.4021V7.48661C22.5963 6.51967 22.6291 5.48587 22.583 4.52699C22.5388 3.60882 22.1102 2.53916 21.544 1.89662C21.5105 1.8587 21.4838 1.83833 21.4525 1.80075C21.1853 1.48067 20.7341 1.11214 20.383 0.930089C19.5723 0.509734 19.0875 0.423873 18.0633 0.423873H6.93343C6.03364 0.423873 5.07074 0.389519 4.18005 0.437621C3.13281 0.494205 2.04216 1.08788 1.36962 1.91969C0.556561 2.92506 0.336355 3.88819 0.336355 5.27685V17.1924C0.336355 18.1554 0.298766 19.2081 0.349991 20.1604Z" fill="white"/>
<path fill-rule="evenodd" clip-rule="evenodd" d="M6.88667 9.75627C6.74856 9.45094 6.61802 9.15954 6.48948 8.83462C6.33756 8.45048 6.28898 8.23806 5.93105 8.11063C5.69935 8.02809 3.86573 8.07033 3.49025 8.08492C3.06849 8.1013 2.7984 8.26224 3.00345 8.75394C3.39242 9.68663 3.78435 10.5224 4.22231 11.4151C4.49997 11.9812 4.82278 12.5839 5.14026 13.1001C5.21805 13.2265 5.30025 13.3753 5.37932 13.5054L5.88756 14.2822C6.51334 15.1892 7.13416 15.977 8.05388 16.5889C8.88024 17.1387 9.85582 17.5153 10.8974 17.5111C11.2293 17.5103 11.7964 17.5557 12.0766 17.4499C12.4793 17.2977 12.4096 17.0059 12.4486 16.5323C12.5102 15.7848 12.821 14.8149 13.5534 15.4281C13.7272 15.5736 14.035 15.9092 14.168 16.0915L14.7527 16.7874C14.9283 16.9825 15.1803 17.2166 15.4733 17.3635C15.8847 17.5698 16.0163 17.5463 16.4998 17.5399C17.0301 17.5331 18.4575 17.5886 18.8456 17.4026C19.1885 17.2383 19.2748 16.9796 19.0749 16.5577C18.8068 15.9919 18.3829 15.52 17.9935 15.0711C17.6375 14.6606 17.0997 14.2039 16.7365 13.7483C16.4986 13.4498 16.4438 13.1828 16.6546 12.7944C17.1683 11.8479 18.7535 10.0824 19.1211 8.82739C19.2589 8.35723 19.1567 8.13387 18.7059 8.08492C18.358 8.04717 17.8191 8.08745 17.4494 8.09C17.0452 8.09254 16.6422 8.09595 16.2388 8.09849C15.7563 8.10188 15.5112 8.0386 15.3284 8.45277C15.197 8.75063 15.0817 9.08047 14.9581 9.37833C14.6233 10.1849 13.4907 12.3442 12.9029 12.4629C11.918 12.6617 12.8018 8.66267 12.2756 7.97694C11.9164 7.50873 9.62746 7.58244 9.01924 7.74779C8.66139 7.84518 8.61983 7.90744 8.43168 8.10918C8.36498 8.1807 8.3302 8.20497 8.3302 8.33435C8.71118 8.42801 8.97328 8.50886 9.13134 8.82775C9.28589 9.13961 9.31206 9.54546 9.32475 9.93519C9.34916 10.6899 9.49246 13.413 8.33402 12.1719C7.89048 11.6967 7.16114 10.3634 6.88667 9.75653V9.75627Z" fill="white"/>
</svg>
