<?xml version="1.0"?>
<svg xmlns="http://www.w3.org/2000/svg" viewBox="0 0 64 64" fill="white"><path d="M51,36H43V33a1,1,0,0,0-1-1H38v-.38C48,26.69,48,25.59,48,25V21a2.974,2.974,0,0,0-.78-2A2.974,2.974,0,0,0,48,17V13a2.974,2.974,0,0,0-.78-2A2.974,2.974,0,0,0,48,9V5a3.009,3.009,0,0,0-3-3H19a3.009,3.009,0,0,0-3,3V9a2.974,2.974,0,0,0,.78,2A2.974,2.974,0,0,0,16,13v4a2.974,2.974,0,0,0,.78,2A2.974,2.974,0,0,0,16,21v4c0,.59,0,1.69,10,6.62V32H22a1,1,0,0,0-1,1v3H13a1,1,0,0,0-1,1V61a1,1,0,0,0,1,1H51a1,1,0,0,0,1-1V37A1,1,0,0,0,51,36ZM18,5a1,1,0,0,1,1-1H45a1,1,0,0,1,1,1V9a1,1,0,0,1-1,1H19a1,1,0,0,1-1-1Zm0,8a1,1,0,0,1,1-1H45a1,1,0,0,1,1,1v1.41c-.63-.11-1.2-.24-1.77-.38A22.867,22.867,0,0,0,38,13.28a22.867,22.867,0,0,0-6.23.75,21.435,21.435,0,0,1-5.78.69,21.235,21.235,0,0,1-5.75-.69c-.68-.17-1.39-.34-2.24-.47Zm0,2.59c.63.11,1.2.24,1.77.38a22.84,22.84,0,0,0,6.22.75,22.954,22.954,0,0,0,6.24-.75A21.407,21.407,0,0,1,38,15.28a21.262,21.262,0,0,1,5.76.69c.68.17,1.39.34,2.24.47V17a1,1,0,0,1-1,1H19a1,1,0,0,1-1-1Zm0,9.16V21a1,1,0,0,1,1-1H45a1,1,0,0,1,1,1v3.75c-.86.87-5.46,3.4-9.44,5.35A1.012,1.012,0,0,0,36,31v1H28V31a1.012,1.012,0,0,0-.56-.9C23.46,28.15,18.86,25.62,18,24.75ZM23,34H41v2H23ZM36.09,60H27.91l-.53-5.83a10.771,10.771,0,0,0,1.95.15,10.551,10.551,0,0,0,2.9-.35,8.974,8.974,0,0,1,2.44-.29,8.473,8.473,0,0,1,1.97.19Zm.74-8.14a11.432,11.432,0,0,0-2.16-.18,10.551,10.551,0,0,0-2.9.35,8.974,8.974,0,0,1-2.44.29,8.95,8.95,0,0,1-2.14-.22l-.1-1.1h9.82ZM45,60H38.1l.9-9.91A1.01,1.01,0,0,0,38,49H26a1.01,1.01,0,0,0-1,1.09L25.9,60H19V42H45Zm5,0H47V41a1,1,0,0,0-1-1H18a1,1,0,0,0-1,1V60H14V38H50Z"/><path d="M30,43a1,1,0,0,0-1,1v3a1,1,0,0,0,1,1h4a1,1,0,0,0,1-1V45h2V43Zm3,3H31V45h2Z"/></svg>
