<svg width="167" height="176" viewBox="0 0 167 176" fill="none" xmlns="http://www.w3.org/2000/svg">
<path fill-rule="evenodd" clip-rule="evenodd" d="M73.3821 0.373625C63.7571 1.84362 58.9561 3.03163 52.5821 5.52163C45.2671 8.37963 41.5431 10.4566 33.9821 15.8966C24.4001 22.7906 14.8901 34.3716 9.26206 45.9996C6.26506 52.1916 5.13206 55.1106 3.77506 60.1446C3.59706 60.8046 3.18406 62.3346 2.85806 63.5446C2.53206 64.7546 1.98506 67.2746 1.64406 69.1446C1.30306 71.0146 0.794059 73.8046 0.513059 75.3446C-0.186941 79.1936 -0.164935 97.1816 0.544065 100.945C1.58906 106.484 3.04906 113.372 3.46906 114.745C16.1801 156.302 56.1141 181.737 97.3821 174.561C106.457 172.983 116.182 169.607 123.182 165.606C124.502 164.851 125.968 164.025 126.44 163.769C130.489 161.573 136.616 156.725 141.628 151.75C163.461 130.075 171.508 98.4406 163.759 64.7446C163.532 63.7546 163.2 62.3146 163.021 61.5446C162.632 59.8626 160.347 53.0276 159.612 51.3446C149.966 29.2556 137.91 16.7166 116.982 7.01063C115.271 6.21663 109.228 3.98463 107.582 3.53863C106.922 3.36063 105.392 2.94663 104.182 2.62063C101.606 1.92563 96.5001 0.985625 91.9821 0.372625C88.3101 -0.124375 76.6441 -0.124375 73.3821 0.373625ZM51.3821 39.7266C53.6821 41.3536 53.7181 41.7616 51.7461 43.9446C48.2551 47.8116 46.8481 52.3216 45.0061 65.5446C43.9371 73.2216 44.1451 101.104 45.3371 109.945C46.0951 115.562 47.6171 122.396 48.6331 124.745C49.8871 127.64 50.5191 128.695 51.9271 130.239C53.7971 132.288 53.6901 132.702 50.8151 134.541C48.4881 136.029 47.4691 136.231 46.0561 135.482C35.4131 129.845 32.3261 72.1696 41.2451 45.5946C43.7161 38.2326 46.7701 36.4646 51.3821 39.7266ZM62.9011 46.6746C65.2521 47.8326 75.7271 53.2766 78.5821 54.8236C80.0121 55.5986 82.8021 57.0936 84.7821 58.1466C86.7621 59.1986 89.4621 60.6406 90.7821 61.3516C92.1021 62.0616 95.1621 63.6796 97.5821 64.9476C100.002 66.2146 103.062 67.8326 104.382 68.5416C105.702 69.2506 108.132 70.5486 109.782 71.4276C111.432 72.3056 114.368 73.8776 116.306 74.9216L119.829 76.8196L121.364 75.8036C128.541 71.0546 136.625 74.1716 139.209 82.6856C142.756 94.3716 129.131 104.177 120.56 96.1066C118.828 94.4766 119.192 94.3366 103.182 102.749C100.762 104.02 96.5321 106.222 93.7821 107.641C82.5821 113.423 69.2901 120.348 64.2461 123.029C60.4271 125.06 60.0041 125.028 59.3421 122.666C55.6871 109.613 55.2421 71.9646 58.5271 53.7446C59.9921 45.6216 60.1731 45.3296 62.9011 46.6746Z" fill="#FA1A1A"/>
<path fill-rule="evenodd" clip-rule="evenodd" d="M45.7629 39.6457C40.5909 43.1317 36.7919 63.6797 36.7959 88.1447C36.7979 101.198 37.6369 109.82 39.9489 120.545C40.2809 122.085 40.6629 123.885 40.7979 124.545C41.5239 128.109 44.5099 133.585 46.2349 134.516C47.6599 135.286 47.6669 135.286 49.3689 134.399C52.4369 132.799 52.7289 132.191 51.1339 130.715C49.2759 128.994 46.6839 122.589 45.7329 117.368C43.8789 107.182 43.5819 103.008 43.5819 87.1447C43.5819 72.5837 43.7659 68.9847 44.9659 60.1447C46.0529 52.1317 47.9499 46.8837 51.0209 43.3957L52.5729 41.6327L51.2769 40.6507C48.4089 38.4767 47.6909 38.3467 45.7629 39.6457ZM60.6109 48.0667C56.3909 60.9587 55.8889 104.347 59.7669 121.073C60.3889 123.755 60.7079 123.859 63.6109 122.321C64.9149 121.631 68.7719 119.62 72.1819 117.853C75.5919 116.085 80.1819 113.695 82.3819 112.541C84.5819 111.388 88.7219 109.231 91.5819 107.748C94.4419 106.264 99.0319 103.871 101.782 102.429C119.099 93.3497 118.676 93.5147 120.545 95.1117C128.369 101.799 138.701 96.8127 138.665 86.3677C138.648 81.2137 135.044 75.1447 132.001 75.1447C131.687 75.1447 131.318 74.9647 131.182 74.7447C130.611 73.8207 126.063 74.3177 123.782 75.5537C119.466 77.8927 119.859 77.8087 118.037 76.7767C117.127 76.2617 114.942 75.0807 113.182 74.1517C111.422 73.2237 109.172 72.0147 108.182 71.4657C105.399 69.9217 98.3879 66.2377 94.1819 64.1087C92.0919 63.0507 90.2919 62.0787 90.1819 61.9477C90.0719 61.8177 88.8119 61.1377 87.3819 60.4377C85.9519 59.7377 84.0619 58.7387 83.1819 58.2177C82.3019 57.6957 78.5219 55.6857 74.7819 53.7497C71.0419 51.8147 66.7219 49.5707 65.1819 48.7637C61.0289 46.5887 61.0919 46.5987 60.6109 48.0667Z" fill="white"/>
</svg>
