<svg width="979" height="1518" viewBox="0 0 979 1518" fill="none" xmlns="http://www.w3.org/2000/svg">
<g id="bodyTop">
<path id="leg2" d="M383 889.5C383 856.11 376.964 836.84 383 804C385.817 788.672 386.631 779.489 393.5 765.5C399.543 753.194 403.17 745.407 414 737C424.026 729.217 431.326 725.174 444 724.5C456.831 723.818 464.587 727.218 475.5 734C491.29 743.814 493.632 756.744 503.5 772.5C510.969 784.427 516.377 790.708 521 804C529.851 829.451 522.644 846.104 521 873C518.98 906.048 509.5 957 509.5 957C503.498 992.377 497.644 1011.74 491 1047C484.836 1079.71 485.125 1098.85 476.5 1131C470.357 1153.9 479.292 1180.42 457 1188.5C447.271 1192.03 440.701 1190.24 430.5 1188.5C418.312 1186.42 411.492 1183.54 401 1177C393.236 1172.16 383 1162 383 1162C383 1162 366.239 1156.37 358.5 1162C353.054 1165.96 352.884 1170.92 350 1177C344.815 1187.94 344.922 1195.23 340.5 1206.5C334.534 1221.7 326.489 1228.3 322 1244C318.425 1256.51 319.603 1264.16 317.5 1277C314.763 1293.7 305.985 1302.84 309 1319.5C310.608 1328.38 317.812 1331.98 317.5 1341C317.213 1349.3 309.474 1352.21 309 1360.5C308.454 1370.06 317.5 1383.5 317.5 1383.5L329 1408L340.5 1432.5L350 1451L358.5 1469L340.5 1460.5H329C325.13 1462.38 324.16 1465.28 322 1469C319.022 1474.13 317.556 1477.57 317.5 1483.5C317.442 1489.62 321.605 1492.4 322 1498.5C322.505 1506.3 317.5 1518 317.5 1518L304 1506.5C304 1506.5 291.956 1491.73 283 1483.5C276.353 1477.39 271.884 1474.84 265 1469C256.986 1462.2 248.472 1460.92 245 1451C242.613 1444.18 245 1439.72 245 1432.5C245 1422.93 247.167 1417.32 245 1408C242.546 1397.45 232 1383.5 232 1383.5C232 1383.5 240.292 1364.75 245 1352.5C249.894 1339.76 252.295 1332.48 256.5 1319.5C260.021 1308.63 262.925 1302.74 265 1291.5C268.369 1273.26 263.923 1262.52 265 1244C266.534 1217.62 276.159 1203.37 274.5 1177C273.349 1158.69 266.814 1149.25 265 1131C263.281 1113.71 258.177 1102.48 265 1086.5C269.478 1076.01 274.899 1071.53 283 1063.5C290.408 1056.16 294.105 1050.3 304 1047C313.263 1043.91 319.935 1043.37 329 1047C341.691 1052.08 337.686 1069.07 350 1075C361.61 1080.59 370.263 1076.96 383 1075C397.036 1072.84 417.5 1063.5 417.5 1063.5V1047V1034C416.481 1006.88 401 966.5 401 966.5C401 966.5 385.489 937.733 383 917.5C381.665 906.647 383 900.435 383 889.5Z" fill="black"/>
<path id="leg1" d="M473.269 922.157L426.259 861.805C407.901 838.236 411.406 835.574 413.999 818C415.715 806.367 420.355 800.668 426.259 790.5C434.624 776.095 438.551 765.558 452.999 757.269C463.496 751.246 482.999 749.5 482.999 749.5C482.999 749.5 500.716 743.659 511.999 745.5C522.604 747.23 536.87 757.269 536.87 757.269L626.532 918.759C626.532 918.759 667.419 1000.88 693.503 1053.56C700.403 1067.49 711.158 1089.24 711.158 1089.24C711.158 1089.24 720.815 1105.94 715.517 1114.37C712.816 1118.67 709.478 1119.53 705.261 1122.36C698.327 1127.01 694.056 1129.18 686.236 1132.11C678.213 1135.1 664.927 1137.3 664.927 1137.3L650.411 1136.56C645.453 1137.25 642.692 1138.22 638.179 1140.38C631.488 1143.59 623.189 1152.06 623.189 1152.06C623.189 1152.06 627.66 1166.44 630.223 1175.73C634.727 1192.08 635.819 1201.61 640.295 1217.96C643.119 1228.28 644.359 1234.19 648.076 1244.22C657.391 1269.36 663.646 1284.51 682.367 1303.7C689.185 1310.7 696.504 1311.49 701.367 1319.96C705.544 1327.23 702.088 1333.59 706.249 1340.87C713.428 1353.44 724.903 1353.87 738.1 1359.8C747.389 1363.97 762.664 1368.55 762.664 1368.55C762.664 1368.55 772.553 1377.87 780.302 1381.43C787.505 1384.74 792.797 1383.05 799.995 1386.37C804.539 1388.47 810.919 1393.07 810.919 1393.07L793.821 1398.79L785.932 1404.93C781.034 1411.27 779.973 1418.04 783.403 1425.28C786.344 1431.49 792.813 1430.82 797.399 1435.93C803.64 1442.88 808.29 1457.23 808.29 1457.23L759.129 1454.33L729.524 1448.87C729.524 1448.87 712.492 1446.91 703.777 1441.04C694.548 1434.82 686.264 1418.55 686.264 1418.55C686.264 1418.55 678.912 1412.55 673.409 1410.19C668.421 1408.04 659.944 1406.73 659.944 1406.73L644.648 1357.8C644.648 1357.8 635.13 1326.75 626.633 1307.82C610.249 1271.33 598.205 1251.26 571.448 1221.52C556.226 1204.6 543.778 1198.97 528.62 1181.99C518.086 1170.19 508.379 1165.16 503.733 1150.04C500.758 1140.36 501.363 1134.28 501.96 1124.17C502.531 1114.5 501.853 1108.32 506.416 1099.78C512.49 1088.42 519.754 1081.71 532.45 1079.5C544.147 1077.47 551.075 1093.06 561.706 1087.77C564.853 1086.21 568.806 1082.24 568.806 1082.24L586.951 1068.11C586.951 1068.11 612.603 1049.29 609.423 1033.49C606.813 1020.52 594.636 1019.08 584.893 1010.13C563.738 990.708 553.634 977.004 528.815 962.55C514.929 954.463 503.589 955.898 491.396 945.43C482.655 937.926 473.269 922.157 473.269 922.157Z" fill="black"/>
<path id="trankdude" d="M547.5 746C547.5 746 548.561 802.481 528.5 829C517.971 842.918 509.493 849.068 494.5 858C476.727 868.588 465.036 878.004 444.5 875.5C429.157 873.629 421.839 866.606 409 858C399.094 851.36 393.379 847.451 385.5 838.5C373.037 824.341 363.5 795.5 363.5 795.5L354.5 763C354.5 763 351.377 739.207 354.5 724.5C357.803 708.945 363.954 701.497 371.5 687.5C376.569 678.097 380.227 673.291 385.5 664C391.838 652.832 398.88 647.665 401 635C402.096 628.452 401 624.639 401 618C401 610.58 403.231 606.077 401 599C398.166 590.011 390.591 588.432 385.5 580.5C377.156 567.498 377.15 557.879 371.5 543.5C365.095 527.199 365.113 515.932 354.5 502C347.551 492.878 341.045 490.172 333 482C318.512 467.284 310.719 458.503 299 441.5C287.688 425.088 274 397 274 397L263.5 375L255 358.5V346L269.5 325L285.5 315.5L297 314.5L309 315.5L333 316.5L345 309V287L342 247.5L350 226.5L371.5 217L393 223L415 247.5L425.5 273L433.5 309L447 316.5L486 326L522.5 336L534 346L539 359.5L543 378L547.5 397V417.5V432.5V469.5L555.5 502V543.5C555.5 543.5 557.493 577.418 555.5 599C553.805 617.348 549.633 627.198 547.5 645.5C542.957 684.484 547.5 746 547.5 746Z" fill="black"/>
<path id="neck" d="M343.5 260.5L346 309.5C346 309.5 440.124 332.754 434 309.5L421.5 265C415.5 242 403.883 225.071 387 223.5C376.872 223.298 359.202 229.259 353.5 233.5C349.266 236.649 336.999 245 343.5 260.5Z" fill="#BFA595" stroke="#BFA595"/>
<g id="rightArm">
<g id="rightLowerComb">
<g id="rightThumb" filter="url(#filter0_d_80_92)">
<path d="M673.403 742.023L651.83 712.542L672.779 710.704L678.746 713.283L680.507 716.768L685.842 732.148L687.37 747.516L684.382 758.208L678.181 767.511L673.403 742.023Z" fill="white"/>
<path d="M673.403 742.023L651.83 712.542L672.779 710.704L678.746 713.283L680.507 716.768L685.842 732.148L687.37 747.516L684.382 758.208L678.181 767.511L673.403 742.023Z" stroke="black" stroke-width="5"/>
</g>
<path id="rightHand" d="M656.031 726.176L624.94 718.48L624.498 715.79L645.208 710.561L660.002 700.307L673.53 689.105L661.976 663.742L669.501 665.738L689.589 679.799L717.144 700.244L737.069 705.292L763.447 714.385L777.367 724.813L758.997 729.029L766.272 732.503L772.538 741.544L758.37 740.414L730.727 730.373L721.714 730.536L738.365 761.58L747.264 785.83L735.245 780.777L721.797 765.763L705.053 737.217L696.508 724.889L680.061 720.471L656.031 726.176Z" fill="white" stroke="black" stroke-width="5"/>
<path id="rightLowArm" d="M648.443 649.246L605.547 604.111L573.479 569.356L556.83 551.32L536.147 536.481L502.916 547.015L500.23 573.807L523.885 622.107L543.244 641.218L566.044 665.843L596.495 687.69L626.926 718.66L659.482 716.344L670.836 711.436L675.133 700.595L676.557 687.692L667.14 670.493L648.443 649.246Z" fill="black" stroke="black"/>
</g>
<path id="rightUpArm" d="M574.819 509.759L570.042 474.76L575.569 409.241L560.636 374.621L538.118 342.082L510.082 335.752L491.931 355.64L473.832 389.415L473.638 421.625L477.634 446.039L481.915 512.773L487.588 547.385L501.389 579.382L522.402 583.01L557.402 583.159L584.107 579.264L578.979 545.914L574.819 509.759Z" fill="black"/>
</g>
<g id="leftArm">
<path id="leftUpArm" d="M209.945 478.376L219.518 444.375L223.108 378.722L242.687 346.5L269.49 317.389L298.132 314.998L313.357 337.206L326.61 373.16L322.346 405.088L315.01 428.714L301.538 494.214L291.132 527.708L273.036 557.488L256.599 576.629L243.151 590.21L207.495 583.893L192.697 552.728L200.823 513.609L209.945 478.376Z" fill="black"/>
<g id="leftThumb" filter="url(#filter1_d_80_92)">
<path d="M295.998 795.927L265.775 775.407L264.677 796.408L267.465 802.28L271.01 803.918L286.568 808.707L301.98 809.691L312.56 806.328L321.639 799.803L295.998 795.927Z" fill="white"/>
<path d="M295.998 795.927L265.775 775.407L264.677 796.408L267.465 802.28L271.01 803.918L286.568 808.707L301.98 809.691L312.56 806.328L321.639 799.803L295.998 795.927Z" stroke="black" stroke-width="5"/>
</g>
<path id="leftHand" d="M263.378 805.328L282.361 784.691L294.029 749.814L274.425 767.979L258.12 777.935L241.454 783.635L222.002 761.322L228.463 828.549L218.51 867.038L220.031 891.224L225.802 882.395L232.623 876.942L232.373 889.238L236.233 897.368L242.309 884.52L245.552 868.036L247.869 853.098L252.691 846.934L260.051 858.937L269.793 874.791L287.912 896.63L288.636 883.002L283.603 866.573L264.977 836.672L259.04 820.672L263.378 805.328Z" fill="white" stroke="black" stroke-width="5"/>
<path id="leftLowArm" d="M276.408 549.51L255.218 524.701L231.598 520.419L207.208 532L191.984 554.727L195.93 602.669L209.763 670.269L219.789 760.158L241.668 784.087L252.225 781.841L272.121 771.287L280.082 764.739L288.066 757.074L294.48 749.6L295.825 738.445L292.218 695.877L282.781 676.004L277.514 638.099L278.771 609.274L280.096 577.095L276.408 549.51Z" fill="black"/>
</g>
<g id="headMain">
<path id="Head" d="M435.501 144C429.313 136.65 425.157 132.904 420.501 124.5C416.336 116.983 418.07 110.545 412.501 104C408.983 99.8653 405.996 98.5439 401.501 95.5001C395.564 91.4805 385.501 86.5001 385.501 86.5001C385.501 86.5001 371.137 78.5099 361.001 76.5001C350.658 74.4493 334.001 76.5001 334.001 76.5001C334.001 76.5001 318.607 78.7926 311.001 84.5001C303.502 90.1263 300.332 95.2372 297.001 104C293.313 113.701 295.001 130.5 295.001 130.5V155.5V174C295.001 174 295.33 183.332 297.001 189C298.582 194.363 300.96 196.794 303.001 202C304.804 206.599 304.976 209.494 307.001 214C308.361 217.028 309.236 218.688 311.001 221.5C313.077 224.808 314.495 226.504 317.001 229.5C319.571 232.573 321.531 233.845 324.001 237C326.171 239.772 326.814 241.741 329.001 244.5C330.804 246.775 334.001 250 334.001 250C334.001 250 338.661 258.034 343.501 261C349.412 264.623 361.001 264 361.001 264H385.501H412.501C412.501 264 419.744 265.433 424.001 264C426.319 263.22 427.155 261.696 429.501 261C432.683 260.056 434.681 261 438.001 261C442.101 261 444.442 261.586 448.501 261C452.111 260.479 457.501 258.5 457.501 258.5C457.501 258.5 461.097 257.232 463.501 257C467.431 256.621 473.501 258.5 473.501 258.5L485.001 261C485.001 261 490.859 262.631 494.501 264C496.877 264.894 497.995 266.093 500.501 266.5C502.235 266.782 504.147 268.036 505.001 266.5C505.475 265.647 505.286 264.934 505.001 264C504.382 261.98 502.146 262.325 500.501 261C497.81 258.833 496.585 257.255 494.501 254.5C493.226 252.816 492.745 251.706 491.501 250C489.865 247.758 488.858 246.562 487.001 244.5C484.968 242.243 481.501 239 481.501 239L473.501 229.5L468.501 221.5L464.501 214V207C464.501 204.071 462.937 201.976 464.501 199.5C465.543 197.849 466.852 197.547 468.501 196.5C471.229 194.768 476.001 193 476.001 193L485.001 189C485.001 189 488.735 187.223 489.501 185C490.009 183.523 489.501 181 489.501 181C489.501 181 487.271 177.611 485.001 177C483.681 176.645 482.868 177 481.501 177H476.001C476.001 177 472.923 177.344 471.001 177C468.249 176.507 464.501 174 464.501 174C464.501 174 460.045 171.855 457.501 170C454.932 168.127 453.756 166.74 451.501 164.5C449.049 162.066 447.408 160.88 445.501 158C444.054 155.816 443.897 154.217 442.501 152C440.288 148.488 438.174 147.176 435.501 144Z" fill="#CB7777" stroke="black"/>
<path id="manhair" d="M292.999 115C298.319 95.6599 303.385 87.065 319.999 79.9999C352.694 73.4709 368.346 75.6695 391.499 89.9999C411.312 100.638 416.732 106.108 415.999 115C412.978 119.217 414.207 125.22 379.499 127.5C373.882 128.327 373.159 129.989 374.999 134.5C383.458 156.896 386.097 168.056 388.568 186.5C390.553 199.208 390.336 204.705 388.568 212.75C385.02 214.93 383.051 214.719 379.499 212.75C377.184 195.982 376.42 185.966 369.499 174.5C366.85 166.316 364.482 163.417 357.499 163.5C351.494 165.132 349.313 167.688 346.999 174.5C346.139 191.162 347.62 200.442 349.999 217L357.499 264.5C344.167 265.403 337.336 262.127 327.499 243C313.036 225.22 307.948 218.428 305.43 212.75C296.215 190.354 295 173 292.999 153C290.997 133 292.999 115 292.999 115Z" fill="#52312A"/>
<path id="glases" d="M416 173.5V184C416 184 408.671 187.052 406 191C405.021 192.446 404.489 193.323 404 195C403.235 197.624 404 199.266 404 202C404 210.982 403.527 216.03 404 225C404.341 231.461 405.5 241.5 405.5 241.5V263C405.5 263 406.821 276.75 406 285.5C405.538 290.422 404.836 293.128 404 298C403.262 302.303 403.107 304.776 402 309C400.575 314.438 397 322.5 397 322.5C397 322.5 393.793 328.678 391.5 332.5C388.202 337.997 386.026 340.98 382.344 346.029L382 346.5C378.801 350.886 377.211 353.537 373.5 357.5C368.955 362.355 365.104 363.701 360.5 368.5C358.007 371.098 354.5 375.5 354.5 375.5C354.5 375.5 358.21 373.455 360.5 372C365.906 368.565 373.5 362 373.5 362L384 351.5C384 351.5 390.595 342.662 394 336.5C396.408 332.143 399.5 325 399.5 325L404 314C404 314 405.999 307.645 407 303.5C408.628 296.76 410 286 410 286V266.5V238V214C410 207.556 406.07 202.606 410 197.5C412.247 194.58 414.356 193.045 418 192.5C419.352 192.298 420.185 192.126 421.5 192.5C423.116 192.96 423.701 193.935 425 195C426.922 196.576 427.243 198.459 429.5 199.5C433.291 201.248 436.574 199.885 440 197.5C443.38 195.146 444.589 192.517 445.5 188.5C446.644 183.458 444.86 180.324 443 175.5C441.011 170.344 439.94 166.791 435.5 163.5C433.395 161.94 429.5 160.5 429.5 160.5C429.5 160.5 424.398 159.332 421.5 160.5C418.808 161.585 417.217 162.865 416 165.5C414.69 168.336 416 173.5 416 173.5Z" fill="white"/>
<path id="cylinder" d="M281 193.5L303.5 187L428 154L444.5 150.5H448.5L456 147L460.5 142.5L466.5 138L468 136.5L464 132.5L452 128.5L437.5 123.5L424 115L419.5 106L413.5 81.5L405 40L398 5L396 0H378.5L351 5L324.5 10L303.5 15.5L283 23L266.5 28.5L264.5 34L268 40L277 71L287 103L291.5 123.5V142.5V156.5L283 169L275 181L266.5 188L268 193.5L271 196L281 193.5Z" fill="black"/>
</g>
</g>
<defs>
<filter id="filter0_d_80_92" x="643.193" y="708.158" width="50.7109" height="73.8496" filterUnits="userSpaceOnUse" color-interpolation-filters="sRGB">
<feFlood flood-opacity="0" result="BackgroundImageFix"/>
<feColorMatrix in="SourceAlpha" type="matrix" values="0 0 0 0 0 0 0 0 0 0 0 0 0 0 0 0 0 0 127 0" result="hardAlpha"/>
<feOffset dy="4"/>
<feGaussianBlur stdDeviation="2"/>
<feColorMatrix type="matrix" values="0 0 0 0 0 0 0 0 0 0 0 0 0 0 0 0 0 0 0.25 0"/>
<feBlend mode="normal" in2="BackgroundImageFix" result="effect1_dropShadow_80_92"/>
<feBlend mode="normal" in="SourceGraphic" in2="effect1_dropShadow_80_92" result="shape"/>
</filter>
<filter id="filter1_d_80_92" x="258.146" y="770.848" width="73.9375" height="49.3687" filterUnits="userSpaceOnUse" color-interpolation-filters="sRGB">
<feFlood flood-opacity="0" result="BackgroundImageFix"/>
<feColorMatrix in="SourceAlpha" type="matrix" values="0 0 0 0 0 0 0 0 0 0 0 0 0 0 0 0 0 0 127 0" result="hardAlpha"/>
<feOffset dy="4"/>
<feGaussianBlur stdDeviation="2"/>
<feColorMatrix type="matrix" values="0 0 0 0 0 0 0 0 0 0 0 0 0 0 0 0 0 0 0.25 0"/>
<feBlend mode="normal" in2="BackgroundImageFix" result="effect1_dropShadow_80_92"/>
<feBlend mode="normal" in="SourceGraphic" in2="effect1_dropShadow_80_92" result="shape"/>
</filter>
</defs>
</svg>
