<svg width="500" height="500" viewBox="0 0 500 500" fill="none" xmlns="http://www.w3.org/2000/svg">
<path fill-rule="evenodd" clip-rule="evenodd" d="M340.745 7.11769C327.232 20.7797 312.349 37.7523 302.164 51.1128C294.414 61.2778 286.94 70.8192 286.726 70.8192C286.587 70.8192 283.134 69.4832 279.053 67.8498C191.506 32.8041 86.9776 64.3952 32.5517 142.349C-2.4491 192.478 -9.95778 262.405 13.5975 318.845C30.1573 358.525 64.7743 395.229 103.58 414.252C107.737 416.291 111.237 418.031 111.357 418.121C111.476 418.21 110.601 421.685 109.411 425.843C106.837 434.831 98.3751 466.426 97.1845 471.498C96.7237 473.457 95.8151 477.157 95.1667 479.719C92.1036 491.804 91.2822 495.67 91.7227 495.926C91.9844 496.078 96.5914 495.348 101.96 494.301C107.329 493.254 120.749 490.637 131.783 488.484C142.817 486.331 157.209 483.61 163.765 482.437C170.322 481.265 178.236 479.787 181.353 479.153C184.471 478.52 188.068 477.912 189.346 477.801C190.625 477.691 193.44 477.23 195.6 476.776C197.76 476.322 202.276 475.543 205.634 475.043C213.977 473.8 214.356 473.696 214.356 472.677C214.356 472.185 213.185 466.107 211.753 459.17C206.861 435.484 206.465 432.648 206.858 424.085C207.246 415.6 207.636 413.865 208.812 415.381C209.39 416.128 209.597 414.667 209.906 407.586C210.116 402.793 210.456 395.603 210.661 391.609L211.034 384.346L206.734 384.225C204.37 384.158 201.258 384.087 199.819 384.066C181.805 383.798 155.815 377.847 139.374 370.224C135.039 368.213 131.255 366.561 130.966 366.551C130.676 366.54 129.31 370.213 127.93 374.71C126.549 379.209 125.199 383.098 124.928 383.352C124.658 383.607 117.649 383.751 109.355 383.67L94.2755 383.524L94.1229 363.38L93.9702 343.237H95.7496H97.529L95.6595 341.044C93.3946 338.387 92.9497 338.325 92.7127 340.633L92.531 342.414L72.3237 342.558L52.1164 342.702L51.9958 325.429C51.9289 315.929 51.8635 306.985 51.8504 305.553L51.8257 302.95L58.5043 302.793C66.7224 302.601 66.5668 302.762 64.0126 297.149C60.5541 289.548 56.7597 278.168 55.6214 271.981C55.3714 270.624 54.6329 266.677 53.9787 263.211C50.5173 244.859 52.7895 220.638 60.0336 198.668C62.4687 191.284 62.5224 191.406 56.8063 191.406H52.2618L51.9943 173.181C51.8475 163.157 51.8431 154.648 51.9841 154.271C52.1818 153.743 56.2277 153.586 69.5529 153.586H86.8657L89.4432 150.708C94.3569 145.224 93.9848 147.065 93.9848 128.25V111.38H113.465H132.946V115.217C132.946 119.819 132.838 119.79 139.406 116.932C142.09 115.764 146.117 114.131 148.355 113.3C154.409 111.056 154.249 110.832 146.582 110.828C142.76 110.825 138.255 110.666 136.571 110.476L133.51 110.129L133.664 93.6431L133.818 77.1555L141.959 74.5506C151.333 71.551 165.093 68.217 170.166 67.7182L173.651 67.3743V87.1848C173.651 98.0802 173.859 106.995 174.115 106.995C174.369 106.995 176.987 106.499 179.933 105.894C186.989 104.443 198.843 103.159 205.195 103.159H210.286V83.9742V64.7899L214.792 64.8132C221.52 64.8488 240.744 67.4003 245.897 68.9419C246.846 69.2269 246.921 70.5328 246.921 86.982V104.715L245.124 105.088C244.137 105.292 240.931 105.313 238 105.133C231.639 104.744 233.257 105.644 242.269 107.509C252.494 109.625 259.132 111.613 259.132 112.562C259.132 113.248 256.277 118.506 255.903 118.506C255.738 118.506 252.536 117.658 248.79 116.622C198.393 102.686 140.542 115.282 104.231 148.096C41.549 204.742 46.2505 294.387 114.628 346.364C171.603 389.672 258.25 386.492 310.159 339.185C335.687 315.92 347.565 292.579 352.16 256.647C354.444 238.793 349.232 206.743 342.67 198.284C341.978 197.392 338.265 200.176 323.045 213.001C319.972 215.591 318.72 216.62 312.34 221.804C309.781 223.883 307.262 225.971 306.743 226.445C306.222 226.921 304.399 228.418 302.691 229.775C299.602 232.228 295.677 235.552 291.853 238.956C290.753 239.936 289.744 240.738 289.612 240.738C288.917 240.738 265.593 262.423 253.899 273.94C244.205 283.488 230.907 297.805 225.683 304.32C224.111 306.279 222.489 308.209 222.077 308.609C220.77 309.879 217.845 314.087 217.845 314.696C217.845 315.018 217.575 315.282 217.245 315.282C216.916 315.282 216.477 315.714 216.271 316.242C216.064 316.769 215.288 317.964 214.544 318.897C213.801 319.83 213.193 320.796 213.193 321.046C213.193 321.295 212.827 321.889 212.381 322.365C211.661 323.13 210.313 325.232 208.304 328.72C207.955 329.327 207.08 330.598 206.361 331.544C205.641 332.491 205.052 333.49 205.052 333.764C205.052 334.038 204.24 334.986 203.245 335.871L201.438 337.481L199.611 335.316C194.281 329.002 175.528 310.911 162.893 299.896C158.418 295.997 135.119 277.492 125.838 270.469C121.912 267.498 116.082 263.09 112.884 260.673C109.685 258.257 103.274 253.592 98.6368 250.308C93.9993 247.025 87.5882 242.37 84.39 239.966C81.1917 237.563 78.4441 235.496 78.2841 235.377C76.5454 234.07 107.614 215.813 116.261 213.06C138.072 206.117 156.379 216.849 180.302 250.604C185.691 258.208 186.145 258.926 191.736 268.692C196.138 276.379 196.068 276.334 197.669 272.701C202.954 260.704 214.225 238.803 220.891 227.583C221.696 226.226 222.852 224.253 223.458 223.198C224.065 222.142 224.972 220.663 225.475 219.909C225.978 219.155 228.324 215.455 230.691 211.687C233.056 207.919 237.676 201.037 240.957 196.396C244.237 191.753 246.921 187.857 246.921 187.739C246.921 187.62 247.184 187.226 247.505 186.861C247.825 186.497 250.285 183.33 252.968 179.822C255.652 176.314 258.987 172.1 260.38 170.457C261.772 168.816 266.052 163.564 269.89 158.79C273.728 154.016 277.13 149.844 277.45 149.517C277.769 149.191 279.076 147.692 280.353 146.185C292.772 131.528 344.808 82.4655 366.654 64.8159C374.132 58.7742 373.212 59.0606 379.249 60.9064C389.421 64.017 399.555 66.9344 411.777 70.267C416.255 71.4879 422.928 73.331 426.606 74.3642C434.344 76.5348 454.262 81.6584 463.46 83.8427C466.939 84.6689 469.769 85.5432 469.75 85.7858C469.708 86.3202 457.055 100.791 446.689 112.157C437.467 122.272 418.012 140.975 407.416 149.916C395.212 160.213 395.133 160.88 407.028 153.201C438.875 132.639 465.071 110.721 491.593 82.4436C501.915 71.44 501.121 72.8459 497.695 71.6387C494.982 70.6822 482.658 65.9135 479.232 64.4925C478.272 64.0951 474.609 62.6138 471.091 61.1997C467.573 59.7855 463.386 58.074 461.787 57.3971C460.188 56.7201 457.636 55.6403 456.117 54.9963C454.598 54.3536 452.112 53.3026 450.593 52.6626C424.3 41.5714 373.101 15.0655 353.726 2.51345C348.025 -1.17953 349.45 -1.68518 340.745 7.11769ZM92.8218 104.529V110.832H84.9235C79.9167 110.832 77.095 110.632 77.2185 110.284C77.3683 109.861 92.0324 98.4625 92.6764 98.2693C92.7564 98.2446 92.8218 101.062 92.8218 104.529ZM50.9534 145.111V153.079L45.621 152.921C39.4323 152.739 39.2623 152.561 41.7903 148.902C44.192 145.427 50.5144 137.142 50.7644 137.142C50.8691 137.142 50.9534 140.728 50.9534 145.111ZM127.671 143.573C78.5138 182.616 61.7941 235.034 81.1379 289.459C83.4348 295.921 83.3898 296.191 80.8355 291.243C77.1182 284.042 73.9345 274.348 71.8091 263.759C70.2216 255.851 69.7753 231.602 71.1171 226.212C71.4922 224.705 72.1144 221.868 72.4996 219.909C77.7215 193.319 95.2379 165.58 116.663 149.972C123.458 145.023 128.536 141.823 129.997 141.571C130.135 141.546 129.089 142.448 127.671 143.573ZM383.791 168.84C374.988 175.007 366.282 180.689 359.006 185.018C355.868 186.884 355.662 187.139 355.662 189.143C355.662 191.435 354.916 191.931 351.446 191.948C349.556 191.956 349.484 192.415 350.936 195.128C351.536 196.246 352.779 199.358 353.698 202.043L355.371 206.924L355.764 204.509C355.98 203.181 356.177 199.934 356.2 197.291L356.244 192.488L374.997 192.631L393.751 192.777L395.733 199.902C397.666 206.846 397.718 207.314 397.769 218.264L397.821 229.501L379.213 229.775L360.605 230.049L360.238 243.752C360.038 251.289 359.672 259.737 359.426 262.525L358.98 267.596H378.546H398.112L398.109 278.695C398.105 290.088 397.757 293.585 396.084 299.007L395.121 302.127H375.683H356.244V292.568C356.244 280.974 355.783 280.426 353.343 289.118C352.308 292.805 350.966 297.004 350.363 298.447C348.681 302.469 348.784 302.675 352.471 302.675H355.677L355.524 322.545L355.371 342.414L337.172 342.528L318.972 342.643L319.013 362.879L319.053 383.115L317.732 383.45C317.005 383.632 310.588 383.787 303.472 383.791L290.533 383.798V373.932C290.533 368.505 290.419 364.065 290.279 364.065C290.139 364.065 287.065 365.515 283.446 367.288C279.828 369.06 272.812 371.993 267.855 373.804C259.749 376.767 256.604 377.725 245.038 380.757C242.206 381.5 241.649 381.857 241.353 383.126C241.159 383.947 240.091 387.826 238.976 391.746C237.861 395.665 236.044 402.201 234.94 406.271C231.546 418.774 225.802 438.287 224.855 440.529C220.714 450.333 218.366 457.338 218.985 458.043C219.751 458.913 228.203 464.614 241.347 473.125C246.118 476.216 251.221 479.537 252.686 480.506C254.153 481.476 258.754 484.451 262.912 487.116C274.186 494.343 279.616 497.877 281.163 498.997C281.926 499.548 282.733 500 282.958 500C283.182 500 283.541 487.112 283.755 471.361C283.968 455.609 284.311 439.251 284.516 435.01L284.89 427.298L291.346 424.655C387.28 385.364 436.82 286.769 407.444 193.599C404.196 183.302 395.459 163.795 393.611 162.718C393.287 162.53 388.869 165.284 383.791 168.84ZM50.9534 211.122V229.741L35.1074 229.896C26.3921 229.979 17.7466 229.975 15.8959 229.885L12.5305 229.719L12.8895 225.5C13.5452 217.764 17.466 199.538 19.8414 193.188C20.0377 192.663 23.707 192.503 35.5246 192.503H50.9534V211.122ZM404.014 235.804C404.529 242.137 404.539 262.419 404.029 265.129C403.629 267.254 403.546 267.322 401.3 267.322H398.984L398.831 249.065L398.677 230.807L401.158 230.977L403.636 231.145L404.014 235.804ZM50.9534 284.87V302.145L35.1874 301.999L19.4199 301.853L18.3063 298.565C15.5688 290.485 12.6395 275.798 12.593 269.925L12.5741 267.596H31.7637H50.9534V284.87ZM50.9534 351.02C50.9534 355.471 50.7368 358.58 50.4475 358.283C48.9254 356.718 40.4863 344.592 40.4863 343.971C40.4863 343.412 41.7351 343.237 45.7199 343.237H50.9534V351.02ZM374.491 343.922C372.553 347.017 366.545 355.024 362.284 360.191L357.116 366.458L356.731 363.754C356.518 362.267 356.322 357.043 356.294 352.144L356.244 343.237H365.582C372.893 343.237 374.827 343.386 374.491 343.922ZM92.9119 385.031C93.0311 385.408 93.0398 387.999 92.9337 390.789L92.7389 395.861L89.1467 393.291C80.8355 387.351 78.2972 385.316 78.6069 384.845C79.1375 384.036 92.656 384.213 92.9119 385.031ZM335.802 384.831C336.593 385.304 322.359 396.461 320.461 396.855C319.309 397.095 319.186 385.146 320.336 384.709C321.586 384.234 334.978 384.339 335.802 384.831Z" fill="white"/>
</svg>
