<svg width="80" height="120" viewBox="0 0 80 120" fill="none" xmlns="http://www.w3.org/2000/svg">
<path d="M36.25 47.705L25 36.795L29.645 32.15L36.25 38.415L50.355 23.955L55 28.605L36.25 47.705ZM74.63 28.61C72.22 35.66 72.21 34.305 74.63 41.385C74.88 42.12 75 42.87 75 43.61C75 45.855 73.89 48.025 71.925 49.39C65.645 53.74 66.475 52.645 64.115 59.725C63.125 62.68 60.265 64.675 57.04 64.675H57.025C49.28 64.65 50.625 64.235 44.385 68.62C43.075 69.54 41.54 70 40 70C38.46 70 36.925 69.54 35.62 68.625C29.375 64.235 30.72 64.655 22.98 64.68H22.96C19.735 64.68 16.88 62.685 15.895 59.73C13.53 52.645 14.34 53.74 8.085 49.395C6.11 48.025 5 45.855 5 43.61C5 42.87 5.12 42.12 5.37 41.39C7.785 34.335 7.79 35.695 5.37 28.615C5.12 27.88 5 27.13 5 26.39C5 24.14 6.11 21.975 8.08 20.605C14.335 16.265 13.525 17.365 15.89 10.27C16.875 7.315 19.735 5.32 22.955 5.32H22.975C30.7 5.345 29.33 5.795 35.615 1.37C36.925 0.455 38.46 0 40 0C41.54 0 43.075 0.455 44.38 1.37C50.62 5.76 49.28 5.345 57.02 5.32H57.035C60.265 5.32 63.12 7.315 64.11 10.27C66.475 17.35 65.645 16.255 71.92 20.605C73.89 21.97 75 24.14 75 26.385C75 27.125 74.88 27.88 74.63 28.61ZM63.75 35C63.75 21.885 53.115 11.25 40 11.25C26.885 11.25 16.25 21.885 16.25 35C16.25 48.115 26.885 58.75 40 58.75C53.115 58.75 63.75 48.11 63.75 35ZM26.825 74.655C22.995 74.655 19.97 74.285 17.46 73.59C15.92 88.93 10.665 100.44 0 111.55C4.27 112.085 9.75 111.08 14.165 108.75C15.75 111.93 17.415 115.9 18 120C28.045 108.505 34.33 94.73 36.67 79.645C31.955 78.74 30.5 77.165 26.825 74.655V74.655ZM53.175 74.655C49.49 77.19 47.96 78.755 43.335 79.645C45.685 94.73 51.965 108.505 62 120C62.58 115.9 64.245 111.93 65.835 108.75C70.25 111.075 75.73 112.085 80 111.55C69.35 100.455 64.16 88.895 62.605 73.575C60.09 74.28 57.045 74.655 53.175 74.655V74.655Z" fill="white"/>
</svg>
