<svg width="89" height="119" viewBox="0 0 89 119" fill="none" xmlns="http://www.w3.org/2000/svg">
<path d="M27.4413 75.0864C25.7226 75.3812 24.1116 77.1922 23.0084 80.0395C22.071 82.4656 21.4366 86.9048 21.7293 88.935C21.8951 90.0218 23.0278 93.2734 23.5261 94.0566C23.6531 94.2585 23.8387 94.402 24.0243 94.4609C24.4247 94.5705 32.3236 94.8147 32.6066 94.7223C32.7239 94.68 32.8897 94.5788 32.9774 94.4948C33.163 94.3012 34.081 92.4057 34.5594 91.2181C35.1943 89.6262 35.2627 89.2302 35.2525 87.1327C35.2525 84.3783 34.9011 82.4573 33.9734 80.0232C33.4558 78.6838 32.372 76.7294 31.8549 76.2154C30.8782 75.2382 29.1498 74.8 27.4413 75.0864Z" fill="white"/>
<path d="M6.26306 85.928C4.95491 86.3324 4.25162 86.9303 3.45093 88.3287C1.74243 91.3022 0.980489 94.3346 1.00038 98.0834C1.01007 99.8694 1.01976 100.03 1.27374 100.821C1.56648 101.764 2.51355 103.921 3.01182 104.797C3.2658 105.252 3.39279 105.387 3.63657 105.454C4.07568 105.581 11.8185 105.345 12.2387 105.202C12.6681 105.042 12.9124 104.595 13.6642 102.54C14.5526 100.139 14.5623 100.072 14.5526 98.1679C14.5429 96.8453 14.4939 96.2306 14.2792 95.0092C13.8105 92.2966 13.4495 91.0501 12.6585 89.4749C11.8674 87.8913 10.52 86.4169 9.50462 86.0297C8.79215 85.7679 6.98573 85.7089 6.26306 85.928Z" fill="white"/>
<path d="M22.9594 98.1173C22.6764 98.3615 22.0904 99.92 21.9246 100.872C21.7589 101.849 21.8563 103.449 22.1296 104.191C22.452 105.067 22.8717 105.69 23.4868 106.196C24.4828 107.021 25.5569 107.35 27.2654 107.35C29.0035 107.35 30.3998 106.929 31.454 106.078C32.4108 105.295 33.0162 104.25 33.2604 102.927C33.3971 102.203 33.4068 98.9599 33.2701 98.648C33.0651 98.193 33.036 98.1846 28.6031 98.05C23.0961 97.8731 23.2527 97.8731 22.9594 98.1173Z" fill="white"/>
<path d="M7.99146 108.782L3.46113 108.925L3.20715 109.144C2.96286 109.354 2.95317 109.43 2.88483 110.525C2.79711 111.873 2.9139 113.6 3.13881 114.358C3.80283 116.607 5.76531 117.964 8.55756 118.107C11.4671 118.259 13.4495 117.096 14.1818 114.796C14.3966 114.106 14.4649 112.505 14.3185 111.638C14.2012 110.947 13.7621 109.599 13.4689 109.06C13.3613 108.858 13.2246 108.765 12.9614 108.698C12.7661 108.656 12.5901 108.622 12.5611 108.622C12.5315 108.63 10.4716 108.706 7.99146 108.782Z" fill="white"/>
<path d="M61.3393 43.8224C63.0641 43.5657 64.7149 41.7908 65.8807 38.9686C66.8715 36.5638 67.604 32.1398 67.3562 30.1036C67.2146 29.0134 66.1541 25.7376 65.6732 24.9435C65.5507 24.7388 65.3683 24.5913 65.184 24.5283C64.7862 24.4099 56.8947 23.991 56.6097 24.0771C56.4915 24.1168 56.3235 24.2143 56.234 24.2963C56.0441 24.4858 55.0844 26.3605 54.5798 27.5372C53.9098 29.1147 53.8328 29.5091 53.7966 31.6063C53.7356 34.36 54.0444 36.2884 54.9181 38.7424C55.406 40.0929 56.4462 42.0708 56.9518 42.5961C57.9066 43.5947 59.6249 44.071 61.3393 43.8224Z" fill="white"/>
<path d="M82.7522 33.452C84.069 33.0766 84.7853 32.4944 85.6168 31.1141C87.3906 28.1791 88.2195 25.1642 88.2825 21.4159C88.3123 19.6302 88.3062 19.4698 88.0698 18.6728C87.798 17.7232 86.8988 15.5464 86.4201 14.6591C86.1762 14.1986 86.0522 14.0612 85.81 13.9885C85.3738 13.8526 77.6277 13.9171 77.2044 14.0507C76.7715 14.2014 76.5174 14.6424 75.7204 16.6806C74.7791 19.061 74.7679 19.128 74.7355 21.0317C74.7159 22.3542 74.7512 22.9698 74.9389 24.1957C75.3475 26.918 75.6809 28.1722 76.4369 29.7645C77.1926 31.3652 78.5071 32.8691 79.5137 33.2786C80.2202 33.5561 82.0249 33.655 82.7522 33.452Z" fill="white"/>
<path d="M66.3296 20.8963C66.618 20.6584 67.2383 19.1133 67.4251 18.1655C67.6124 17.1921 67.5504 15.5901 67.2935 14.8428C66.9906 13.9599 66.5848 13.3273 65.9811 12.8082C65.0035 11.9609 63.937 11.6086 62.2289 11.5708C60.4912 11.5324 59.0859 11.9224 58.0131 12.7499C57.0393 13.5117 56.411 14.5426 56.1375 15.8595C55.9848 16.5806 55.9034 19.8228 56.0331 20.1377C56.228 20.5971 56.2569 20.6061 60.6858 20.8388C66.1875 21.1374 66.031 21.134 66.3296 20.8963Z" fill="white"/>
<path d="M81.5298 10.5658L86.0622 10.523L86.3209 10.3095C86.5698 10.1042 86.5812 10.0288 86.6737 8.93541C86.7912 7.58996 86.7127 5.86079 86.5046 5.09788C85.8905 2.83445 83.9585 1.43529 81.1701 1.23012C78.2646 1.014 76.257 2.13235 75.474 4.41547C75.244 5.10135 75.1403 6.70018 75.2674 7.57045C75.3694 8.26367 75.7786 9.62078 76.0599 10.1661C76.163 10.3704 76.2976 10.4663 76.5592 10.5394C76.7535 10.5859 76.9287 10.6233 76.9578 10.6239C76.9875 10.6167 79.0486 10.5866 81.5298 10.5658Z" fill="white"/>
<path d="M79.9888 75.939L79.3639 75.8766C79.0714 76.3499 79.2489 77.0287 79.4696 77.3946C79.6899 77.76 79.9174 77.9418 80.4646 77.4939C80.6145 77.2092 81.0433 76.9158 80.9838 76.0383C81.0127 76.0412 80.7936 75.9768 80.9838 76.0383C80.9838 76.0383 80.4863 75.9886 79.9888 75.939Z" fill="white"/>
<path d="M81.8761 57.0329C80.5342 57.3053 79.2652 59.3869 78.3296 60.6988C77.2005 63.601 77.2005 63.601 77.3504 67.1333C77.5479 68.1011 78.0971 69.7203 78.5449 70.2675C78.9928 70.8147 82.8409 71.2184 83.0227 70.7145C83.0227 70.7145 84.535 69.0579 84.8132 67.8783C85.5093 65.4735 85.4756 62.6758 84.9614 61.3608C84.3317 59.7065 82.848 57.5191 81.8761 57.0329Z" fill="white"/>
<path d="M68.7401 92.3621L69.349 92.2083C69.7081 92.6333 69.6325 93.3308 69.4682 93.7253C69.3042 94.1192 69.1059 94.3325 68.4987 93.9702C68.3085 93.7107 67.8411 93.4837 67.7706 92.607C67.7424 92.6141 67.9496 92.5182 67.7706 92.607C67.7706 92.607 68.2554 92.4845 68.7401 92.3621Z" fill="white"/>
<path d="M64.0864 73.9408C65.4538 74.0125 67.0158 75.8842 68.1346 77.0438C69.6792 79.7478 69.6792 79.7478 70.0516 83.2637C69.9989 84.25 69.6944 85.9325 69.3321 86.5397C68.9698 87.147 65.2233 88.1136 64.9692 87.6419C64.9692 87.6419 63.2292 86.2264 62.7801 85.1007C61.7371 82.8248 61.358 80.0526 61.6727 78.6762C62.0518 76.9472 63.1968 74.5649 64.0864 73.9408Z" fill="white"/>
<path d="M9.60282 57.8585L10.2137 58.0038C10.5669 57.5738 10.4816 56.8774 10.3118 56.4853C10.1422 56.0937 9.94102 55.8832 9.33891 56.2539C9.15232 56.516 8.68817 56.7496 8.62994 57.6272C8.60166 57.6204 8.8102 57.7134 8.62994 57.6272C8.62994 57.6272 9.11638 57.7428 9.60282 57.8585Z" fill="white"/>
<path d="M5.20734 76.3431C6.57355 76.2523 8.10923 74.3589 9.2117 73.1838C10.7183 70.4584 10.7183 70.4584 11.0415 66.9376C10.975 65.9521 10.647 64.2741 10.2762 63.672C9.90548 63.0699 6.14575 62.1558 5.89832 62.631C5.89832 62.631 4.17829 64.0707 3.74499 65.2026C2.73396 67.4928 2.39369 70.2701 2.72765 71.6419C3.13086 73.3655 4.30905 75.7315 5.20734 76.3431Z" fill="white"/>
<path d="M22.9441 43.0848L22.3202 43.156C22.0211 42.6868 22.1891 42.0056 22.4046 41.6366C22.6198 41.2682 22.8447 41.0832 23.3982 41.5234C23.552 41.8059 23.9849 42.0934 23.9377 42.9716C23.9666 42.9683 23.7484 43.0357 23.9377 42.9716C23.9377 42.9716 23.4409 43.0282 22.9441 43.0848Z" fill="white"/>
<path d="M25.0958 61.9626C23.7503 61.709 22.4523 59.6454 21.4984 58.3468C20.3288 55.4607 20.3287 55.4607 20.4292 51.9265C20.6132 50.9561 21.1396 49.3294 21.5798 48.776C22.0199 48.2226 25.8621 47.765 26.0508 48.2663C26.0508 48.2663 27.5862 49.9016 27.8809 51.0772C28.6106 53.472 28.6161 56.27 28.1203 57.592C27.5137 59.2549 26.0609 61.4629 25.0958 61.9626Z" fill="white"/>
<path d="M27.4413 75.0864L27.3587 74.5933L27.3568 74.5936L27.4413 75.0864ZM23.0084 80.0395L22.5422 79.8589L22.542 79.8593L23.0084 80.0395ZM21.7293 88.935L21.2344 89.0063L21.2351 89.0103L21.7293 88.935ZM23.5261 94.0566L23.9494 93.7904L23.9479 93.7882L23.5261 94.0566ZM24.0243 94.4609L23.873 94.9375L23.8826 94.9405L23.8924 94.9432L24.0243 94.4609ZM32.6066 94.7223L32.7618 95.1976L32.7689 95.1953L32.776 95.1927L32.6066 94.7223ZM32.9774 94.4948L33.3233 94.8558L33.3309 94.8485L33.3383 94.8409L32.9774 94.4948ZM34.5594 91.2181L35.0232 91.4049L35.0238 91.4034L34.5594 91.2181ZM35.2525 87.1327H34.7525L34.7525 87.1352L35.2525 87.1327ZM33.9734 80.0232L34.4406 79.8451L34.4398 79.843L33.9734 80.0232ZM31.8549 76.2154L31.5012 76.5689L31.5024 76.5701L31.8549 76.2154ZM6.26306 85.928L6.11798 85.4495L6.1154 85.4503L6.26306 85.928ZM3.45093 88.3287L3.88446 88.5778L3.88483 88.5771L3.45093 88.3287ZM1.00038 98.0834L0.500386 98.0861L0.500387 98.0862L1.00038 98.0834ZM1.27374 100.821L1.7513 100.673L1.74983 100.668L1.27374 100.821ZM3.01182 104.797L3.44841 104.554L3.44649 104.55L3.01182 104.797ZM3.63657 105.454L3.77476 104.974L3.76966 104.972L3.63657 105.454ZM12.2387 105.202L12.3998 105.675L12.4067 105.673L12.4135 105.67L12.2387 105.202ZM13.6642 102.54L13.1953 102.366L13.1946 102.368L13.6642 102.54ZM14.5526 98.1679L15.0526 98.1654L15.0526 98.1643L14.5526 98.1679ZM14.2792 95.0092L13.7865 95.0943L13.7868 95.0957L14.2792 95.0092ZM12.6585 89.4749L12.2112 89.6983L12.2116 89.6992L12.6585 89.4749ZM9.50462 86.0297L9.68278 85.5624L9.67707 85.5603L9.50462 86.0297ZM22.9594 98.1173L22.6394 97.733L22.6328 97.7387L22.9594 98.1173ZM21.9246 100.872L21.432 100.786L21.4317 100.788L21.9246 100.872ZM22.1296 104.191L22.5989 104.018L22.5988 104.018L22.1296 104.191ZM23.4868 106.196L23.8058 105.811L23.8042 105.809L23.4868 106.196ZM31.454 106.078L31.7681 106.467L31.7707 106.465L31.454 106.078ZM33.2604 102.927L32.7691 102.835L32.7688 102.837L33.2604 102.927ZM33.2701 98.648L33.7281 98.4473L33.726 98.4425L33.2701 98.648ZM28.6031 98.05L28.587 98.5497L28.5879 98.5498L28.6031 98.05ZM7.99146 108.782L7.97621 108.282L7.97568 108.282L7.99146 108.782ZM3.46113 108.925L3.44535 108.425L3.26849 108.43L3.13451 108.546L3.46113 108.925ZM3.20715 109.144L3.53377 109.522L3.53377 109.522L3.20715 109.144ZM2.88483 110.525L3.38378 110.558L3.38386 110.556L2.88483 110.525ZM3.13881 114.358L3.61835 114.217L3.61816 114.216L3.13881 114.358ZM8.55756 118.107L8.58361 117.608L8.58321 117.608L8.55756 118.107ZM14.1818 114.796L14.6583 114.948L14.6593 114.945L14.1818 114.796ZM14.3185 111.638L14.8115 111.554L14.8115 111.554L14.3185 111.638ZM13.4689 109.06L13.0276 109.295L13.0297 109.299L13.4689 109.06ZM12.9614 108.698L13.0853 108.214L13.0762 108.211L13.0671 108.209L12.9614 108.698ZM12.5611 108.622V108.122H12.4953L12.4317 108.139L12.5611 108.622ZM61.3393 43.8224L61.4111 44.3173L61.4129 44.317L61.3393 43.8224ZM65.8807 38.9686L66.3428 39.1595L66.343 39.1591L65.8807 38.9686ZM67.3562 30.1036L67.8526 30.0432L67.8521 30.0392L67.3562 30.1036ZM65.6732 24.9435L65.2442 25.2003L65.2455 25.2025L65.6732 24.9435ZM65.184 24.5283L65.3459 24.0552L65.3363 24.0519L65.3267 24.049L65.184 24.5283ZM56.6097 24.0771L56.465 23.5985L56.4578 23.6007L56.4507 23.6031L56.6097 24.0771ZM56.234 24.2963L55.8961 23.9277L55.8883 23.9349L55.8808 23.9424L56.234 24.2963ZM54.5798 27.5372L54.1203 27.3402L54.1196 27.3418L54.5798 27.5372ZM53.7966 31.6063L54.2964 31.6174L54.2965 31.6149L53.7966 31.6063ZM54.9181 38.7424L54.447 38.9101L54.4478 38.9123L54.9181 38.7424ZM56.9518 42.5961L57.3132 42.2505L57.3121 42.2493L56.9518 42.5961ZM82.7522 33.452L82.8867 33.9335L82.8893 33.9328L82.7522 33.452ZM85.6168 31.1141L85.1889 30.8555L85.1885 30.8561L85.6168 31.1141ZM88.2825 21.4159L88.7824 21.4243L88.7824 21.4242L88.2825 21.4159ZM88.0698 18.6728L87.589 18.8104L87.5904 18.815L88.0698 18.6728ZM86.4201 14.6591L85.9782 14.8931L85.98 14.8965L86.4201 14.6591ZM85.81 13.9885L85.6612 14.4659L85.6663 14.4674L85.81 13.9885ZM77.2044 14.0507L77.0538 13.5739L77.0469 13.5761L77.04 13.5785L77.2044 14.0507ZM75.7204 16.6806L76.1853 16.8644L76.186 16.8627L75.7204 16.6806ZM74.7355 21.0317L74.2355 21.0232L74.2355 21.0243L74.7355 21.0317ZM74.9389 24.1957L75.4334 24.1215L75.4331 24.1201L74.9389 24.1957ZM76.4369 29.7645L76.889 29.551L76.8885 29.5501L76.4369 29.7645ZM79.5137 33.2786L79.3253 33.7418L79.3309 33.744L79.5137 33.2786ZM66.3296 20.8963L66.641 21.2876L66.6478 21.282L66.3296 20.8963ZM67.4251 18.1655L67.9156 18.2621L67.916 18.26L67.4251 18.1655ZM67.2935 14.8428L66.8206 15.0051L66.8207 15.0054L67.2935 14.8428ZM65.9811 12.8082L65.6536 13.1861L65.6551 13.1874L65.9811 12.8082ZM62.2289 11.5708L62.24 11.0709L62.2289 11.5708ZM58.0131 12.7499L57.7078 12.354L57.7051 12.3561L58.0131 12.7499ZM56.1375 15.8595L56.6266 15.9631L56.627 15.9612L56.1375 15.8595ZM56.0331 20.1377L55.5708 20.3282L55.5728 20.333L56.0331 20.1377ZM60.6858 20.8388L60.7129 20.3395L60.712 20.3395L60.6858 20.8388ZM81.5298 10.5658L81.534 11.0657L81.5345 11.0657L81.5298 10.5658ZM86.0622 10.523L86.0669 11.023L86.2438 11.0213L86.3803 10.9087L86.0622 10.523ZM86.3209 10.3095L86.0028 9.92384L86.0027 9.92384L86.3209 10.3095ZM86.6737 8.93541L86.1756 8.89191L86.1755 8.89324L86.6737 8.93541ZM86.5046 5.09788L86.022 5.2288L86.0222 5.22945L86.5046 5.09788ZM81.1701 1.23012L81.133 1.72874L81.1334 1.72877L81.1701 1.23012ZM75.474 4.41547L75.001 4.25326L74.9999 4.25654L75.474 4.41547ZM75.2674 7.57045L74.7727 7.64273L74.7728 7.64322L75.2674 7.57045ZM76.0599 10.1661L76.5062 9.94083L76.5043 9.93696L76.0599 10.1661ZM76.5592 10.5394L76.4246 11.0209L76.4336 11.0235L76.4427 11.0256L76.5592 10.5394ZM76.9578 10.6239L76.9467 11.1238L77.0125 11.1252L77.0764 11.1096L76.9578 10.6239ZM79 36L73.4232 37.4943L77.5057 41.5768L79 36ZM30 53L34.6506 56.4212L35.2882 50.6831L30 53ZM33.8547 66.3547L34.2018 66.7146L34.2018 66.7146L33.8547 66.3547ZM53.4243 39.4243L47.7007 40.1821L51.2188 44.7599L53.4243 39.4243ZM38.0466 70.0187L38.1147 69.5234L38.1147 69.5234L38.0466 70.0187ZM12.8427 72.4087L16.9952 76.42L18.3929 70.8182L12.8427 72.4087ZM81.8761 57.0329L82.0998 56.5857L81.9456 56.5086L81.7766 56.5429L81.8761 57.0329ZM78.3296 60.6988L77.9225 60.4084L77.8862 60.4593L77.8636 60.5175L78.3296 60.6988ZM77.3504 67.1333L76.8508 67.1545L76.8525 67.1943L76.8605 67.2333L77.3504 67.1333ZM83.0227 70.7145L82.6534 70.3774L82.5862 70.451L82.5523 70.5449L83.0227 70.7145ZM84.8132 67.8783L84.333 67.7393L84.3295 67.7513L84.3266 67.7635L84.8132 67.8783ZM84.9614 61.3608L84.4941 61.5387L84.4958 61.5429L84.9614 61.3608ZM79.9888 75.939L79.9391 76.4365L79.9391 76.4365L79.9888 75.939ZM79.3639 75.8766L79.4136 75.379L79.1028 75.348L78.9386 75.6137L79.3639 75.8766ZM79.4696 77.3946L79.8977 77.1364L79.4696 77.3946ZM80.4646 77.4939L80.7813 77.8808L80.8598 77.8166L80.907 77.7269L80.4646 77.4939ZM64.0864 73.9408L64.1126 73.4415L63.9404 73.4325L63.7993 73.5315L64.0864 73.9408ZM68.1346 77.0438L68.5687 76.7958L68.5378 76.7416L68.4944 76.6966L68.1346 77.0438ZM70.0516 83.2637L70.5509 83.2904L70.553 83.2506L70.5489 83.211L70.0516 83.2637ZM64.9692 87.6419L65.4094 87.4048L65.3621 87.317L65.2847 87.2541L64.9692 87.6419ZM62.7801 85.1007L63.2445 84.9154L63.2399 84.9038L63.2346 84.8924L62.7801 85.1007ZM61.6727 78.6762L62.1602 78.7877L62.1612 78.7833L61.6727 78.6762ZM68.7401 92.3621L68.6177 91.8773L68.6177 91.8773L68.7401 92.3621ZM69.349 92.2083L69.7309 91.8856L69.5293 91.647L69.2265 91.7235L69.349 92.2083ZM69.4682 93.7253L69.0067 93.533L69.0067 93.533L69.4682 93.7253ZM68.4987 93.9702L68.0955 94.2658L68.1554 94.3476L68.2425 94.3996L68.4987 93.9702ZM5.20734 76.3431L4.92594 76.7564L5.06846 76.8534L5.24048 76.842L5.20734 76.3431ZM9.2117 73.1838L9.57635 73.5258L9.61907 73.4803L9.64929 73.4256L9.2117 73.1838ZM11.0415 66.9376L11.5394 66.9833L11.5431 66.9437L11.5404 66.9039L11.0415 66.9376ZM5.89832 62.631L6.21925 63.0144L6.29573 62.9503L6.3418 62.8619L5.89832 62.631ZM3.74499 65.2026L4.2024 65.4045L4.20746 65.393L4.21194 65.3813L3.74499 65.2026ZM2.72765 71.6419L3.21453 71.528L3.21346 71.5236L2.72765 71.6419ZM9.60282 57.8585L9.71849 57.3721L9.71849 57.3721L9.60282 57.8585ZM10.2137 58.0038L10.0981 58.4902L10.4019 58.5625L10.6001 58.3211L10.2137 58.0038ZM10.3118 56.4853L9.85296 56.6839L9.85296 56.6839L10.3118 56.4853ZM9.33891 56.2539L9.07674 55.8282L8.9904 55.8813L8.93159 55.9639L9.33891 56.2539ZM25.0958 61.9626L25.0032 62.454L25.1726 62.4859L25.3257 62.4066L25.0958 61.9626ZM21.4984 58.3468L21.035 58.5346L21.0584 58.5924L21.0954 58.6428L21.4984 58.3468ZM20.4292 51.9265L19.938 51.8334L19.9305 51.8725L19.9294 51.9123L20.4292 51.9265ZM26.0508 48.2663L25.5829 48.4425L25.6181 48.5359L25.6863 48.6086L26.0508 48.2663ZM27.8809 51.0772L27.3959 51.1988L27.399 51.2109L27.4026 51.2229L27.8809 51.0772ZM28.1203 57.592L27.6521 57.4164L27.6506 57.4206L28.1203 57.592ZM22.9441 43.0848L23.0007 43.5816L23.0007 43.5816L22.9441 43.0848ZM22.3202 43.156L21.8986 43.4248L22.0665 43.6881L22.3768 43.6527L22.3202 43.156ZM22.4046 41.6366L22.8363 41.8888L22.4046 41.6366ZM23.3982 41.5234L23.8373 41.2842L23.7888 41.1952L23.7094 41.1321L23.3982 41.5234ZM27.3568 74.5936C26.3526 74.7659 25.4257 75.3723 24.6212 76.2726C23.8154 77.1744 23.1091 78.3956 22.5422 79.8589L23.4747 80.2201C24.0109 78.8362 24.6617 77.7282 25.3669 76.9389C26.0734 76.1483 26.8114 75.7018 27.5259 75.5792L27.3568 74.5936ZM22.542 79.8593C22.0547 81.1206 21.6548 82.8775 21.4127 84.5647C21.1717 86.2442 21.0776 87.9188 21.2345 89.0063L22.2242 88.8636C22.0883 87.921 22.1651 86.3609 22.4025 84.7067C22.6388 83.0603 23.0248 81.3845 23.4748 80.2197L22.542 79.8593ZM21.2351 89.0103C21.3258 89.6052 21.6655 90.7299 22.0311 91.7747C22.2164 92.3046 22.4132 92.8274 22.5965 93.27C22.7755 93.7024 22.9539 94.0887 23.1042 94.3249L23.9479 93.7882C23.8491 93.6328 23.6991 93.319 23.5204 92.8875C23.3459 92.4661 23.1558 91.9613 22.975 91.4445C22.6081 90.396 22.2987 89.3516 22.2236 88.8596L21.2351 89.0103ZM23.1028 94.3227C23.2862 94.6144 23.5635 94.8392 23.873 94.9375L24.1757 93.9844C24.1139 93.9647 24.0199 93.9027 23.9493 93.7904L23.1028 94.3227ZM23.8924 94.9432C23.9662 94.9634 24.0653 94.9738 24.1351 94.9806C24.2224 94.9891 24.3336 94.9977 24.4632 95.0063C24.7231 95.0236 25.0695 95.042 25.4714 95.0604C26.276 95.0975 27.3125 95.1355 28.3441 95.1671C29.3757 95.1988 30.405 95.2241 31.1951 95.2358C31.5897 95.2416 31.9275 95.2441 32.177 95.2421C32.3012 95.2411 32.4077 95.2389 32.4901 95.2353C32.5309 95.2335 32.5708 95.2311 32.6062 95.2277C32.6263 95.2257 32.694 95.2197 32.7618 95.1976L32.4514 94.247C32.5015 94.2306 32.5367 94.2297 32.5102 94.2323C32.4991 94.2334 32.4785 94.2348 32.4458 94.2363C32.3812 94.2391 32.2886 94.2411 32.169 94.2421C31.9308 94.244 31.6019 94.2417 31.2099 94.2359C30.4269 94.2243 29.4033 94.1991 28.3748 94.1676C27.3463 94.136 26.3153 94.0982 25.5174 94.0615C25.1181 94.0431 24.7795 94.0252 24.5297 94.0085C24.4044 94.0002 24.3046 93.9924 24.2321 93.9853C24.1421 93.9765 24.1325 93.9721 24.1563 93.9787L23.8924 94.9432ZM32.776 95.1927C32.9558 95.128 33.1825 94.9907 33.3233 94.8558L32.6315 94.1338C32.5968 94.167 32.492 94.2321 32.4372 94.2519L32.776 95.1927ZM33.3383 94.8409C33.4055 94.7707 33.4663 94.6731 33.5073 94.6052C33.5572 94.5224 33.6146 94.4196 33.6764 94.3041C33.8005 94.0724 33.9508 93.7736 34.1088 93.4468C34.4244 92.7939 34.7785 92.0123 35.0232 91.4049L34.0956 91.0313C33.8619 91.6115 33.5178 92.3715 33.2084 93.0116C33.0539 93.3313 32.91 93.6169 32.7948 93.8322C32.737 93.9402 32.6885 94.0265 32.6508 94.089C32.6041 94.1665 32.5956 94.1705 32.6165 94.1487L33.3383 94.8409ZM35.0238 91.4034C35.3424 90.6047 35.536 90.0653 35.6408 89.4488C35.7443 88.8398 35.7576 88.175 35.7525 87.1303L34.7525 87.1352C34.7576 88.188 34.7418 88.7699 34.6549 89.2813C34.5693 89.785 34.4114 90.2396 34.095 91.0329L35.0238 91.4034ZM35.7525 87.1327C35.7525 84.3198 35.3908 82.3382 34.4406 79.8451L33.5062 80.2013C34.4114 82.5763 34.7525 84.4368 34.7525 87.1327H35.7525ZM34.4398 79.843C34.1704 79.1459 33.759 78.3011 33.351 77.5669C32.9538 76.8522 32.523 76.1745 32.2073 75.8608L31.5024 76.5701C31.7039 76.7703 32.0735 77.3268 32.4769 78.0527C32.8695 78.7591 33.2588 79.5611 33.507 80.2035L34.4398 79.843ZM32.2085 75.862C31.0877 74.7404 29.1797 74.288 27.3587 74.5933L27.524 75.5795C29.1199 75.312 30.6688 75.736 31.5012 76.5689L32.2085 75.862ZM6.1154 85.4503C5.41623 85.6664 4.84712 85.9445 4.34222 86.3752C3.84187 86.802 3.43211 87.3553 3.01703 88.0802L3.88483 88.5771C4.27044 87.9037 4.61268 87.4589 4.99118 87.136C5.36514 86.817 5.80175 86.594 6.41072 86.4057L6.1154 85.4503ZM3.01739 88.0796C1.26087 91.1367 0.480072 94.2574 0.500386 98.0861L1.50037 98.0808C1.48091 94.4119 2.22399 91.4677 3.88446 88.5778L3.01739 88.0796ZM0.500387 98.0862C0.505177 98.969 0.509659 99.4831 0.547819 99.8738C0.588344 100.289 0.666838 100.566 0.797646 100.974L1.74983 100.668C1.62666 100.284 1.57332 100.086 1.54308 99.7766C1.51048 99.4428 1.50527 98.9838 1.50037 98.0807L0.500387 98.0862ZM0.796203 100.969C1.10036 101.949 2.06234 104.139 2.57715 105.045L3.44649 104.55C2.96475 103.703 2.03259 101.579 1.75127 100.673L0.796203 100.969ZM2.57524 105.041C2.70325 105.27 2.82435 105.467 2.96546 105.616C3.12809 105.787 3.30297 105.881 3.50347 105.936L3.76966 104.972C3.74 104.964 3.72821 104.958 3.72338 104.955C3.71915 104.953 3.7091 104.946 3.69057 104.927C3.64375 104.878 3.57436 104.779 3.4484 104.554L2.57524 105.041ZM3.49838 105.935C3.58673 105.96 3.69757 105.968 3.76902 105.973C3.86018 105.979 3.97409 105.983 4.10451 105.985C4.36623 105.991 4.71194 105.992 5.11095 105.988C5.90996 105.982 6.93594 105.959 7.95966 105.929C8.98341 105.898 10.0081 105.859 10.8045 105.819C11.2022 105.798 11.5461 105.778 11.8057 105.757C11.935 105.747 12.0475 105.737 12.137 105.726C12.207 105.718 12.3153 105.704 12.3998 105.675L12.0777 104.728C12.1096 104.718 12.1082 104.722 12.0183 104.733C11.9481 104.741 11.8507 104.751 11.7272 104.76C11.4812 104.78 11.1478 104.8 10.7537 104.82C9.96644 104.86 8.94916 104.899 7.92979 104.929C6.91038 104.96 5.89207 104.982 5.10266 104.988C4.70747 104.992 4.37295 104.991 4.12555 104.986C4.0014 104.983 3.90353 104.979 3.83282 104.975C3.7424 104.969 3.74129 104.964 3.77476 104.974L3.49838 105.935ZM12.4135 105.67C12.7873 105.531 13.0329 105.261 13.2711 104.818C13.4995 104.393 13.7601 103.733 14.1337 102.712L13.1946 102.368C12.8165 103.402 12.5791 103.993 12.3901 104.345C12.2108 104.679 12.1195 104.713 12.064 104.733L12.4135 105.67ZM14.1331 102.713C14.5719 101.528 14.8135 100.868 14.9352 100.267C15.0596 99.6522 15.0574 99.1056 15.0526 98.1654L14.0526 98.1705C14.0575 99.1341 14.0553 99.5732 13.9551 100.068C13.8523 100.576 13.6449 101.151 13.1953 102.366L14.1331 102.713ZM15.0526 98.1643C15.0427 96.8176 14.9918 96.1749 14.7717 94.9226L13.7868 95.0957C13.9961 96.2863 14.0431 96.873 14.0526 98.1716L15.0526 98.1643ZM14.7719 94.924C14.2992 92.1881 13.9274 90.8877 13.1053 89.2505L12.2116 89.6992C12.9715 91.2125 13.3219 92.4051 13.7865 95.0943L14.7719 94.924ZM13.1058 89.2514C12.6889 88.4168 12.1275 87.6141 11.5346 86.9661C10.9509 86.3282 10.2971 85.7967 9.68277 85.5625L9.32647 86.4968C9.72751 86.6498 10.2551 87.0491 10.7968 87.6411C11.3292 88.223 11.837 88.9493 12.2112 89.6983L13.1058 89.2514ZM9.67707 85.5603C9.24201 85.4005 8.54528 85.3192 7.90356 85.2987C7.26261 85.2784 6.56162 85.315 6.11798 85.4495L6.40815 86.4065C6.68718 86.3219 7.25073 86.2785 7.87177 86.2982C8.49205 86.318 9.05476 86.397 9.33217 86.499L9.67707 85.5603ZM22.6328 97.7387C22.5419 97.8171 22.4707 97.917 22.4194 97.9972C22.3632 98.085 22.3076 98.1865 22.2541 98.2939C22.1468 98.5092 22.0352 98.7734 21.93 99.0533C21.7209 99.6096 21.5221 100.269 21.432 100.786L22.4172 100.958C22.4929 100.523 22.6699 99.927 22.8661 99.4051C22.9635 99.1459 23.0618 98.9152 23.1491 98.7399C23.193 98.652 23.2309 98.5842 23.2616 98.5363C23.2971 98.4808 23.3061 98.4785 23.286 98.4959L22.6328 97.7387ZM21.4317 100.788C21.3403 101.327 21.3242 102.012 21.3634 102.65C21.4022 103.282 21.4986 103.924 21.6605 104.364L22.5988 104.018C22.4873 103.715 22.3983 103.187 22.3615 102.589C22.3252 101.998 22.3432 101.394 22.4176 100.955L21.4317 100.788ZM21.6604 104.363C22.0076 105.307 22.4736 106.01 23.1693 106.582L23.8042 105.809C23.2697 105.37 22.8963 104.826 22.5989 104.018L21.6604 104.363ZM23.1677 106.581C24.2786 107.501 25.4778 107.85 27.2654 107.85V106.85C25.6359 106.85 24.687 106.541 23.8058 105.811L23.1677 106.581ZM27.2654 107.85C29.0837 107.85 30.6017 107.408 31.7681 106.467L31.14 105.689C30.198 106.449 28.9232 106.85 27.2654 106.85V107.85ZM31.7707 106.465C32.8255 105.601 33.4879 104.449 33.7521 103.018L32.7688 102.837C32.5444 104.051 31.9961 104.988 31.1373 105.691L31.7707 106.465ZM33.7518 103.02C33.8304 102.604 33.8654 101.562 33.8678 100.634C33.869 100.159 33.8616 99.6936 33.845 99.3239C33.8367 99.1397 33.8259 98.9736 33.8119 98.8397C33.8049 98.773 33.7965 98.7085 33.7861 98.6508C33.7775 98.6029 33.7615 98.5234 33.7281 98.4473L32.8122 98.8486C32.7959 98.8115 32.7958 98.7939 32.802 98.8282C32.8064 98.8526 32.8117 98.8904 32.8173 98.9437C32.8284 99.0497 32.8381 99.1938 32.846 99.3689C32.8617 99.7176 32.869 100.166 32.8678 100.632C32.8653 101.585 32.8272 102.527 32.7691 102.835L33.7518 103.02ZM33.726 98.4425C33.6775 98.335 33.5886 98.1203 33.3542 97.9648C33.1502 97.8296 32.888 97.772 32.5861 97.733C31.9677 97.6531 30.8174 97.617 28.6183 97.5502L28.5879 98.5498C30.8218 98.6176 31.9025 98.653 32.4581 98.7247C32.7432 98.7616 32.8037 98.7997 32.8014 98.7982C32.7687 98.7765 32.7602 98.7334 32.8143 98.8534L33.726 98.4425ZM28.6192 97.5503C25.8747 97.4621 24.5203 97.4172 23.82 97.4258C23.4797 97.43 23.2388 97.4461 23.0555 97.4975C22.8235 97.5625 22.6992 97.6834 22.6395 97.7331L23.2794 98.5015C23.3102 98.4759 23.3099 98.4755 23.3277 98.461C23.3375 98.4529 23.3395 98.4518 23.3376 98.4531C23.3271 98.4601 23.3182 98.4624 23.3255 98.4603C23.3674 98.4486 23.4866 98.43 23.8322 98.4257C24.5036 98.4175 25.8245 98.461 28.587 98.5497L28.6192 97.5503ZM7.97568 108.282L3.44535 108.425L3.4769 109.424L8.00723 109.281L7.97568 108.282ZM3.13451 108.546L2.88053 108.765L3.53377 109.522L3.78775 109.303L3.13451 108.546ZM2.88053 108.765C2.81383 108.823 2.72444 108.903 2.64886 109.015C2.56895 109.133 2.52286 109.259 2.4925 109.392C2.43956 109.624 2.4185 109.97 2.3858 110.494L3.38386 110.556C3.4195 109.985 3.43745 109.746 3.46752 109.614C3.47866 109.565 3.48507 109.563 3.47782 109.574C3.47489 109.578 3.47832 109.57 3.53377 109.522L2.88053 108.765ZM2.38589 110.493C2.34039 111.192 2.34812 111.983 2.39569 112.696C2.44263 113.4 2.5307 114.066 2.65946 114.5L3.61816 114.216C3.52201 113.892 3.43923 113.316 3.39348 112.63C3.34836 111.953 3.34155 111.207 3.38377 110.558L2.38589 110.493ZM2.65927 114.5C3.39716 116.999 5.58095 118.455 8.53191 118.606L8.58321 117.608C5.94967 117.472 4.2085 116.216 3.61835 114.217L2.65927 114.5ZM8.53151 118.606C10.0555 118.686 11.3826 118.424 12.4396 117.802C13.5045 117.176 14.2576 116.206 14.6583 114.948L13.7054 114.645C13.3738 115.686 12.7695 116.448 11.9327 116.94C11.0881 117.437 9.96918 117.68 8.58361 117.608L8.53151 118.606ZM14.6593 114.945C14.7864 114.536 14.859 113.911 14.8851 113.305C14.9115 112.692 14.8929 112.037 14.8115 111.554L13.8255 111.721C13.8905 112.106 13.9109 112.684 13.886 113.262C13.8609 113.846 13.792 114.366 13.7044 114.648L14.6593 114.945ZM14.8115 111.554C14.7468 111.173 14.599 110.636 14.4347 110.136C14.2718 109.64 14.0774 109.132 13.9081 108.821L13.0297 109.299C13.1536 109.527 13.3254 109.963 13.4846 110.448C13.6426 110.929 13.773 111.412 13.8256 111.721L14.8115 111.554ZM13.9101 108.825C13.8277 108.67 13.7189 108.531 13.5619 108.42C13.4119 108.314 13.2467 108.255 13.0853 108.214L12.8375 109.182C12.9393 109.208 12.974 109.229 12.985 109.237C12.989 109.24 13.0024 109.248 13.0276 109.295L13.9101 108.825ZM13.0671 108.209C12.9662 108.187 12.8691 108.168 12.7919 108.153C12.7536 108.146 12.7178 108.139 12.6877 108.135C12.6757 108.133 12.6164 108.122 12.5611 108.122V109.122C12.5421 109.122 12.5283 109.121 12.5249 109.121C12.5197 109.12 12.5166 109.12 12.5166 109.12C12.5163 109.12 12.5172 109.12 12.5196 109.12C12.5219 109.121 12.5251 109.121 12.5292 109.122C12.5463 109.125 12.5721 109.129 12.6059 109.136C12.6728 109.148 12.7613 109.166 12.8557 109.187L13.0671 108.209ZM12.4317 108.139C12.4607 108.132 12.484 108.128 12.4875 108.128C12.4955 108.127 12.5017 108.126 12.5044 108.126C12.5076 108.125 12.51 108.125 12.5112 108.125C12.5125 108.125 12.5133 108.125 12.5135 108.125C12.5135 108.125 12.5106 108.125 12.5031 108.125C12.4887 108.126 12.4661 108.127 12.4347 108.129C12.3724 108.132 12.2811 108.136 12.1635 108.14C11.9285 108.15 11.5915 108.162 11.1775 108.177C10.3497 108.206 9.21548 108.244 7.97621 108.282L8.00671 109.281C9.24756 109.243 10.3834 109.206 11.2129 109.176C11.6276 109.162 11.9662 109.149 12.2032 109.139C12.3216 109.135 12.4155 109.131 12.4812 109.128C12.5137 109.126 12.5409 109.125 12.5612 109.124C12.571 109.123 12.5816 109.122 12.5913 109.122C12.5958 109.121 12.6034 109.121 12.612 109.12C12.6162 109.119 12.6235 109.119 12.6325 109.117C12.6369 109.117 12.6609 109.113 12.6904 109.105L12.4317 108.139ZM61.4129 44.317C62.4207 44.167 63.3608 43.5813 64.185 42.6989C65.0105 41.8152 65.7437 40.6099 66.3428 39.1595L65.4186 38.7777C64.8519 40.1495 64.1767 41.2428 63.4542 42.0163C62.7305 42.7911 61.9827 43.2212 61.2657 43.3279L61.4129 44.317ZM66.343 39.1591C66.8581 37.9089 67.2968 36.1612 67.5762 34.4798C67.8543 32.8061 67.9853 31.134 67.8526 30.0432L66.8599 30.164C66.9749 31.1094 66.8636 32.6674 66.5897 34.3159C66.3171 35.9568 65.8941 37.6236 65.4184 38.7782L66.343 39.1591ZM67.8521 30.0392C67.7745 29.4425 67.4598 28.3105 67.1174 27.2579C66.9438 26.7241 66.7586 26.197 66.5852 25.7505C66.4158 25.3142 66.246 24.9241 66.1009 24.6845L65.2455 25.2025C65.3409 25.36 65.484 25.6771 65.6531 26.1125C65.8181 26.5376 65.9971 27.0465 66.1664 27.5672C66.51 28.6235 66.7963 29.6745 66.8604 30.1681L67.8521 30.0392ZM66.1023 24.6868C65.9254 24.3912 65.6531 24.1603 65.3459 24.0552L65.0222 25.0013C65.0836 25.0223 65.1761 25.0865 65.2442 25.2003L66.1023 24.6868ZM65.3267 24.049C65.2533 24.0272 65.1545 24.0146 65.0848 24.0063C64.9978 23.9959 64.8867 23.9848 64.7574 23.9733C64.4979 23.9502 64.152 23.9242 63.7506 23.8969C62.947 23.8421 61.9116 23.7812 60.8809 23.7267C59.8503 23.6722 58.8218 23.6241 58.0321 23.595C57.6378 23.5804 57.3001 23.5705 57.0507 23.567C56.9265 23.5652 56.8199 23.565 56.7374 23.5668C56.6966 23.5677 56.6567 23.5692 56.6212 23.5719C56.6011 23.5734 56.5333 23.5779 56.465 23.5985L56.7543 24.5558C56.7038 24.571 56.6686 24.5711 56.6952 24.5691C56.7063 24.5683 56.7269 24.5673 56.7597 24.5666C56.8243 24.5651 56.9169 24.5652 57.0365 24.5669C57.2747 24.5702 57.6035 24.5798 57.9953 24.5943C58.7778 24.6232 59.8006 24.671 60.8282 24.7253C61.8557 24.7796 62.8856 24.8402 63.6825 24.8945C64.0813 24.9217 64.4194 24.9472 64.6688 24.9694C64.7939 24.9805 64.8934 24.9905 64.9658 24.9992C65.0556 25.0099 65.0651 25.0145 65.0414 25.0075L65.3267 24.049ZM56.4507 23.6031C56.2695 23.6638 56.0398 23.796 55.8961 23.9277L56.5718 24.665C56.6072 24.6325 56.7134 24.5697 56.7686 24.5512L56.4507 23.6031ZM55.8808 23.9424C55.812 24.011 55.7491 24.1072 55.7066 24.1742C55.6549 24.256 55.5952 24.3575 55.5309 24.4715C55.4017 24.7004 55.2448 24.9959 55.0796 25.3191C54.7497 25.9649 54.3784 26.7383 54.1203 27.3402L55.0394 27.7343C55.2859 27.1594 55.6466 26.4072 55.9701 25.7741C56.1317 25.4578 56.2818 25.1755 56.4018 24.9629C56.462 24.8561 56.5124 24.7709 56.5515 24.7092C56.5999 24.6328 56.6084 24.629 56.5871 24.6503L55.8808 23.9424ZM54.1196 27.3418C53.7835 28.1332 53.5779 28.6681 53.4596 29.2822C53.3426 29.8888 53.3147 30.5531 53.2966 31.5977L54.2965 31.6149C54.3146 30.5623 54.3433 29.9809 54.4415 29.4715C54.5382 28.9697 54.7062 28.5188 55.0401 27.7327L54.1196 27.3418ZM53.2967 31.5952C53.2345 34.4075 53.5522 36.3965 54.447 38.9101L55.3891 38.5747C54.5367 36.1802 54.2368 34.3126 54.2964 31.6174L53.2967 31.5952ZM54.4478 38.9123C54.7017 39.6151 55.0943 40.4688 55.486 41.2118C55.8673 41.9351 56.283 42.6222 56.5916 42.9428L57.3121 42.2493C57.1151 42.0447 56.7579 41.4802 56.3706 40.7455C55.9938 40.0306 55.6223 39.2201 55.3883 38.5725L54.4478 38.9123ZM56.5905 42.9416C57.6862 44.0877 59.5837 44.5822 61.4111 44.3173L61.2676 43.3276C59.6661 43.5598 58.127 43.1017 57.3132 42.2505L56.5905 42.9416ZM82.8893 33.9328C83.5931 33.7322 84.1682 33.4668 84.6825 33.0474C85.1922 32.6318 85.6141 32.0876 86.0451 31.3721L85.1885 30.8561C84.7881 31.5208 84.4361 31.958 84.0505 32.2724C83.6696 32.583 83.2282 32.7964 82.6152 32.9711L82.8893 33.9328ZM86.0447 31.3727C87.8684 28.3552 88.718 25.2525 88.7824 21.4243L87.7826 21.4075C87.7209 25.076 86.9129 28.003 85.1889 30.8555L86.0447 31.3727ZM88.7824 21.4242C88.7972 20.5415 88.8041 20.0274 88.7746 19.636C88.7432 19.2203 88.6709 18.9411 88.5491 18.5307L87.5904 18.815C87.7051 19.2015 87.754 19.401 87.7774 19.7112C87.8026 20.0456 87.7976 20.5046 87.7826 21.4076L88.7824 21.4242ZM88.5505 18.5353C88.2681 17.5486 87.3547 15.3384 86.8601 14.4217L85.98 14.8965C86.4429 15.7544 87.3279 17.8979 87.5891 18.8104L88.5505 18.5353ZM86.8619 14.4251C86.739 14.193 86.6223 13.9939 86.4845 13.8422C86.3257 13.6674 86.153 13.5694 85.9537 13.5096L85.6663 14.4674C85.6957 14.4763 85.7074 14.4827 85.7122 14.4857C85.7163 14.4882 85.7262 14.4947 85.7443 14.5146C85.7901 14.5649 85.8573 14.6647 85.9782 14.8931L86.8619 14.4251ZM85.9588 13.5112C85.871 13.4838 85.7604 13.4733 85.689 13.4672C85.598 13.4593 85.4842 13.4528 85.3539 13.4471C85.0924 13.4358 84.7468 13.4276 84.3478 13.4221C83.5488 13.4111 82.5226 13.4106 81.4985 13.4185C80.4743 13.4265 79.449 13.4429 78.6519 13.4657C78.2538 13.4771 77.9095 13.4902 77.6496 13.5049C77.5201 13.5122 77.4074 13.5201 77.3176 13.5289C77.2475 13.5357 77.1389 13.5471 77.0538 13.5739L77.3549 14.5275C77.3227 14.5377 77.3243 14.5329 77.4143 14.5242C77.4848 14.5173 77.5823 14.5103 77.706 14.5033C77.9524 14.4894 78.2861 14.4766 78.6806 14.4653C79.4685 14.4427 80.4864 14.4264 81.5062 14.4185C82.526 14.4106 83.5446 14.4111 84.334 14.422C84.7291 14.4275 85.0635 14.4355 85.3108 14.4462C85.4348 14.4516 85.5326 14.4574 85.6032 14.4635C85.6935 14.4713 85.6945 14.4762 85.6612 14.4659L85.9588 13.5112ZM77.04 13.5785C76.6632 13.7097 76.4117 13.9735 76.1638 14.4116C75.926 14.8318 75.6508 15.4856 75.2547 16.4985L76.186 16.8627C76.587 15.8374 76.8374 15.2516 77.0341 14.9041C77.2207 14.5744 77.3127 14.5424 77.3687 14.523L77.04 13.5785ZM75.2554 16.4967C74.7905 17.6724 74.5344 18.326 74.3993 18.9249C74.2614 19.5366 74.2516 20.0831 74.2355 21.0232L75.2354 21.0402C75.2518 20.0766 75.2637 19.6378 75.3748 19.1449C75.4888 18.6393 75.7089 18.0691 76.1853 16.8644L75.2554 16.4967ZM74.2355 21.0243C74.2156 22.3708 74.2523 23.0145 74.4446 24.2714L75.4331 24.1201C75.2502 22.9251 75.2162 22.3376 75.2354 21.0391L74.2355 21.0243ZM74.4444 24.2699C74.8565 27.0156 75.1995 28.324 75.9852 29.979L76.8885 29.5501C76.1623 28.0204 75.8384 26.8204 75.4334 24.1215L74.4444 24.2699ZM75.9847 29.978C76.383 30.8216 76.9265 31.6365 77.505 32.2975C78.0743 32.9481 78.7162 33.494 79.3253 33.7418L79.7021 32.8155C79.3046 32.6537 78.7859 32.2428 78.2575 31.639C77.7381 31.0455 77.2464 30.3081 76.889 29.551L75.9847 29.978ZM79.3309 33.744C79.7623 33.9135 80.4571 34.0102 81.0982 34.0448C81.7386 34.0793 82.4402 34.0582 82.8867 33.9335L82.6178 32.9704C82.3369 33.0488 81.7726 33.0797 81.1521 33.0462C80.5324 33.0128 79.9716 32.9213 79.6965 32.8132L79.3309 33.744ZM66.6478 21.282C66.7403 21.2056 66.8138 21.1074 66.8668 21.0284C66.925 20.9418 66.9828 20.8416 67.0386 20.7354C67.1506 20.5225 67.2681 20.2608 67.3795 19.9833C67.6008 19.4318 67.8142 18.7771 67.9156 18.2621L66.9345 18.0688C66.8492 18.5017 66.659 19.0935 66.4514 19.6109C66.3483 19.8679 66.2449 20.0963 66.1537 20.2697C66.1079 20.3566 66.0685 20.4235 66.0368 20.4707C66 20.5255 65.9909 20.5275 66.0114 20.5106L66.6478 21.282ZM67.916 18.26C68.0193 17.7236 68.0506 17.0388 68.0255 16.3997C68.0006 15.7677 67.9185 15.1229 67.7663 14.6803L66.8207 15.0054C66.9254 15.31 67.0027 15.8398 67.0262 16.439C67.0495 17.0311 67.0182 17.634 66.9341 18.071L67.916 18.26ZM67.7665 14.6806C67.4402 13.7294 66.9898 13.0161 66.307 12.4291L65.6551 13.1874C66.1798 13.6384 66.5411 14.1903 66.8206 15.0051L67.7665 14.6806ZM66.3086 12.4304C65.2183 11.4854 64.0271 11.1105 62.24 11.0709L62.2179 12.0707C63.8469 12.1067 64.7887 12.4365 65.6536 13.186L66.3086 12.4304ZM62.24 11.0709C60.422 11.0307 58.8947 11.4385 57.7078 12.354L58.3185 13.1458C59.2771 12.4064 60.5605 12.034 62.2179 12.0707L62.24 11.0709ZM57.7051 12.3561C56.6315 13.1959 55.9437 14.3336 55.6479 15.7579L56.627 15.9612C56.8782 14.7516 57.4471 13.8275 58.3212 13.1437L57.7051 12.3561ZM55.6483 15.756C55.5605 16.1706 55.5025 17.2112 55.4795 18.1386C55.4678 18.6135 55.4649 19.0792 55.4734 19.4492C55.4776 19.6336 55.4847 19.7999 55.4958 19.9341C55.5013 20.0009 55.5082 20.0656 55.5173 20.1235C55.5249 20.1716 55.5392 20.2513 55.5708 20.3282L56.4954 19.9472C56.5109 19.9847 56.5106 20.0023 56.5051 19.9679C56.5013 19.9434 56.4968 19.9054 56.4924 19.852C56.4837 19.7458 56.4771 19.6015 56.4731 19.4264C56.4651 19.0773 56.4678 18.6284 56.4792 18.1633C56.5028 17.2106 56.5618 16.2695 56.6266 15.9631L55.6483 15.756ZM55.5728 20.333C55.6189 20.4416 55.7031 20.6582 55.934 20.8188C56.1349 20.9585 56.3958 21.022 56.6967 21.0676C57.3133 21.1611 58.4625 21.2227 60.6596 21.3381L60.712 20.3395C58.4802 20.2222 57.4006 20.1629 56.8467 20.0789C56.5625 20.0358 56.5028 19.9963 56.505 19.9979C56.5373 20.0203 56.5448 20.0635 56.4934 19.9424L55.5728 20.333ZM60.6587 21.338C63.4006 21.4869 64.7536 21.5617 65.454 21.5686C65.7943 21.572 66.0354 21.5612 66.2198 21.5139C66.4532 21.454 66.5802 21.3359 66.641 21.2875L66.0182 20.5051C65.9869 20.5301 65.9871 20.5304 65.969 20.5445C65.959 20.5524 65.957 20.5535 65.9589 20.5522C65.9696 20.5455 65.9785 20.5434 65.9711 20.5453C65.929 20.5561 65.8094 20.5721 65.4638 20.5687C64.7924 20.5621 63.4728 20.4893 60.7129 20.3395L60.6587 21.338ZM81.5345 11.0657L86.0669 11.023L86.0574 10.023L81.5251 10.0658L81.5345 11.0657ZM86.3803 10.9087L86.6391 10.6953L86.0027 9.92384L85.744 10.1373L86.3803 10.9087ZM86.6391 10.6953C86.707 10.6392 86.7982 10.5611 86.8762 10.4507C86.9587 10.3341 87.0076 10.2099 87.0409 10.0773C87.0989 9.84619 87.1277 9.50074 87.1719 8.97758L86.1755 8.89324C86.1272 9.46346 86.104 9.70243 86.071 9.83368C86.0588 9.88234 86.0524 9.88381 86.0598 9.87323C86.0629 9.86896 86.0592 9.87724 86.0028 9.92384L86.6391 10.6953ZM87.1718 8.97891C87.2328 8.28109 87.2425 7.49021 87.2108 6.77596C87.1794 6.0713 87.1061 5.40306 86.987 4.96631L86.0222 5.22945C86.1112 5.55561 86.1812 6.1334 86.2117 6.82042C86.2419 7.49784 86.2322 8.24427 86.1756 8.89191L87.1718 8.97891ZM86.9871 4.96695C86.3047 2.45173 84.1537 0.948299 81.2068 0.731467L81.1334 1.72877C83.7633 1.92228 85.4762 3.21718 86.022 5.2288L86.9871 4.96695ZM81.2072 0.731497C79.6853 0.618295 78.3528 0.851031 77.2823 1.44907C76.2038 2.05155 75.4294 3.00406 75.001 4.25326L75.9469 4.57768C76.3015 3.54376 76.9225 2.79553 77.77 2.32208C78.6254 1.8442 79.7494 1.62582 81.133 1.72874L81.2072 0.731497ZM74.9999 4.25654C74.8638 4.66252 74.7773 5.28616 74.7378 5.89125C74.6979 6.50274 74.702 7.15887 74.7727 7.64273L75.7622 7.49816C75.7057 7.11175 75.6981 6.53334 75.7357 5.95638C75.7738 5.37301 75.8542 4.85431 75.948 4.5744L74.9999 4.25654ZM74.7728 7.64322C74.829 8.02563 74.9649 8.56539 75.118 9.06917C75.2699 9.56887 75.4531 10.0805 75.6155 10.3953L76.5043 9.93696C76.3854 9.70643 76.2233 9.26682 76.0748 8.77832C75.9276 8.2939 75.8078 7.80849 75.7621 7.49767L74.7728 7.64322ZM75.6135 10.3914C75.6925 10.5479 75.7982 10.6895 75.9527 10.8039C76.1004 10.9132 76.2641 10.9761 76.4246 11.0209L76.6938 10.0579C76.5926 10.0296 76.5583 10.008 76.5475 10C76.5435 9.9971 76.5304 9.98867 76.5062 9.94084L75.6135 10.3914ZM76.4427 11.0256C76.5431 11.0497 76.6397 11.0716 76.7166 11.088C76.7547 11.0961 76.7904 11.1033 76.8204 11.1088C76.8324 11.111 76.8914 11.1226 76.9467 11.1238L76.9688 10.124C76.9877 10.1245 77.0015 10.126 77.005 10.1263C77.0102 10.1269 77.0132 10.1274 77.0132 10.1274C77.0135 10.1274 77.0126 10.1273 77.0103 10.1269C77.008 10.1265 77.0048 10.1259 77.0007 10.1252C76.9836 10.122 76.9579 10.1169 76.9243 10.1098C76.8577 10.0956 76.7697 10.0757 76.6757 10.0532L76.4427 11.0256ZM77.0764 11.1096C77.0472 11.1168 77.0239 11.1195 77.0204 11.1199C77.0123 11.1209 77.0061 11.1215 77.0034 11.1217C77.0002 11.122 76.9978 11.1222 76.9966 11.1222C76.9953 11.1223 76.9945 11.1224 76.9943 11.1224C76.9943 11.1224 76.9972 11.1222 77.0048 11.122C77.0191 11.1215 77.0417 11.1208 77.0732 11.12C77.1355 11.1185 77.2269 11.1167 77.3446 11.1146C77.5798 11.1105 77.9169 11.1054 78.3311 11.0999C79.1594 11.0888 80.2942 11.0761 81.534 11.0657L81.5256 10.0658C80.2842 10.0762 79.1478 10.0889 78.3178 10.1C77.9029 10.1055 77.5641 10.1106 77.3269 10.1148C77.2085 10.1169 77.1146 10.1187 77.0488 10.1203C77.0162 10.1211 76.989 10.1219 76.9688 10.1226C76.9589 10.123 76.9483 10.1234 76.9386 10.1239C76.934 10.1242 76.9265 10.1247 76.9179 10.1254C76.9137 10.1257 76.9063 10.1264 76.8973 10.1275C76.8928 10.1281 76.8688 10.131 76.8392 10.1382L77.0764 11.1096ZM35.3536 80.3535L76.1716 39.5355L75.4645 38.8284L34.6464 79.6464L35.3536 80.3535ZM75.0552 57.5031L34.5277 53L34.4173 53.9939L74.9448 58.4969L75.0552 57.5031ZM9.58971 83.8961C20.8749 79.9396 25.7442 74.8695 34.2018 66.7146L33.5077 65.9948C25.041 74.1584 20.3132 79.0769 9.25886 82.9524L9.58971 83.8961ZM34.2018 66.7146C38.4122 62.6549 40.583 58.2642 42.6173 54.08C44.6571 49.8844 46.5511 45.9195 50.1957 42.5332L49.5151 41.8006C45.7126 45.3335 43.7465 49.4703 41.7179 53.6428C39.6838 57.8266 37.5778 62.0703 33.5077 65.9948L34.2018 66.7146ZM59.7489 77.285C55.9981 74.2489 52.7888 72.6043 49.398 71.5709C46.0268 70.5434 42.484 70.1244 38.1147 69.5234L37.9784 70.5141C42.3853 71.1203 45.8307 71.5291 49.1065 72.5274C52.3627 73.5199 55.4592 75.0991 59.1197 78.0623L59.7489 77.285ZM38.1147 69.5234C33.9072 68.9446 30.3629 69.9884 27.0497 71.07C23.711 72.1599 20.6493 73.268 17.2492 72.9999L17.1706 73.9968C20.8118 74.284 24.0834 73.0903 27.36 72.0206C30.6623 70.9426 34.0157 69.969 37.9784 70.5141L38.1147 69.5234ZM81.7766 56.5429C80.9214 56.7165 80.1719 57.4333 79.5672 58.1549C78.9487 58.8932 78.3721 59.778 77.9225 60.4084L78.7366 60.9891C79.2227 60.3076 79.7484 59.4958 80.3338 58.7972C80.933 58.0819 81.4889 57.6217 81.9756 57.5229L81.7766 56.5429ZM77.8636 60.5175C77.306 61.9506 76.9986 62.7336 76.866 63.6045C76.7346 64.4683 76.7767 65.4093 76.8508 67.1545L77.8499 67.1121C77.7741 65.3249 77.7413 64.4998 77.8546 63.755C77.9669 63.0172 78.224 62.3491 78.7955 60.88L77.8636 60.5175ZM76.8605 67.2333C76.9651 67.7459 77.1594 68.417 77.3844 69.0303C77.602 69.6237 77.8751 70.2385 78.158 70.5842L78.9318 69.9508C78.7669 69.7493 78.5415 69.2809 78.3232 68.6859C78.1123 68.1109 77.9332 67.4885 77.8403 67.0333L76.8605 67.2333ZM78.158 70.5842C78.2961 70.7529 78.5037 70.8577 78.6646 70.9254C78.845 71.0012 79.0594 71.0671 79.2864 71.124C79.742 71.2382 80.2953 71.3276 80.8328 71.3826C81.3687 71.4373 81.9102 71.46 82.3404 71.4332C82.5523 71.42 82.7616 71.3936 82.9368 71.3423C83.0241 71.3168 83.1245 71.279 83.2176 71.2192C83.3091 71.1604 83.4311 71.0557 83.493 70.8841L82.5523 70.5449C82.5915 70.4363 82.6622 70.3874 82.6771 70.3779C82.6937 70.3672 82.6922 70.3719 82.6561 70.3825C82.5844 70.4035 82.4597 70.4239 82.2783 70.4352C81.9219 70.4573 81.4392 70.4393 80.9344 70.3877C80.4312 70.3363 79.9271 70.2537 79.5295 70.154C79.3299 70.104 79.1687 70.0525 79.0523 70.0036C78.9164 69.9464 78.9057 69.9188 78.9318 69.9508L78.158 70.5842ZM83.0227 70.7145C83.3919 71.0516 83.392 71.0515 83.392 71.0515C83.3921 71.0514 83.3921 71.0514 83.3922 71.0513C83.3923 71.0512 83.3924 71.0511 83.3926 71.0509C83.3929 71.0506 83.3932 71.0501 83.3937 71.0496C83.3947 71.0486 83.396 71.0471 83.3977 71.0452C83.401 71.0415 83.4058 71.0363 83.4119 71.0295C83.424 71.016 83.4415 70.9964 83.4635 70.9713C83.5076 70.9213 83.5702 70.8491 83.646 70.7591C83.7971 70.5793 84.002 70.3266 84.2165 70.0349C84.6306 69.4716 85.1353 68.691 85.2999 67.9931L84.3266 67.7635C84.213 68.2452 83.8224 68.8827 83.4108 69.4426C83.2124 69.7124 83.0218 69.9476 82.8807 70.1154C82.8103 70.1991 82.7526 70.2655 82.7129 70.3107C82.693 70.3332 82.6777 70.3504 82.6676 70.3617C82.6625 70.3673 82.6587 70.3715 82.6563 70.3741C82.6551 70.3755 82.6543 70.3764 82.6538 70.3769C82.6536 70.3772 82.6534 70.3774 82.6533 70.3775C82.6533 70.3775 82.6533 70.3775 82.6533 70.3775C82.6533 70.3775 82.6533 70.3775 82.6533 70.3774C82.6534 70.3774 82.6534 70.3774 83.0227 70.7145ZM85.2935 68.0173C85.6556 66.7665 85.8264 65.4206 85.8412 64.217C85.8558 63.0246 85.718 61.9226 85.4271 61.1787L84.4958 61.5429C84.7191 62.1139 84.8552 63.0683 84.8412 64.2047C84.8274 65.3299 84.667 66.5853 84.333 67.7393L85.2935 68.0173ZM85.4287 61.1829C85.0965 60.3102 84.5466 59.3133 83.9564 58.4717C83.6605 58.0497 83.3485 57.6583 83.0414 57.3364C82.7404 57.021 82.4185 56.7452 82.0998 56.5857L81.6524 57.4801C81.8196 57.5637 82.0477 57.7436 82.3179 58.0268C82.582 58.3035 82.8625 58.6535 83.1377 59.0459C83.6898 59.8331 84.1966 60.7571 84.4942 61.5387L85.4287 61.1829ZM80.0384 75.4414L79.4136 75.379L79.3142 76.3741L79.9391 76.4365L80.0384 75.4414ZM78.9386 75.6137C78.7119 75.9805 78.6841 76.3962 78.7284 76.7398C78.7729 77.0851 78.8963 77.4122 79.0414 77.6528L79.8977 77.1364C79.8222 77.0111 79.7465 76.8158 79.7202 76.6119C79.6937 76.4062 79.7234 76.2459 79.7892 76.1395L78.9386 75.6137ZM79.0414 77.6528C79.1492 77.8316 79.3551 78.1497 79.7325 78.2365C80.1259 78.327 80.4845 78.1237 80.7813 77.8808L80.1479 77.107C80.0334 77.2007 79.9616 77.2394 79.9254 77.2538C79.8949 77.2658 79.9128 77.2519 79.9566 77.2619C79.9981 77.2715 80.0119 77.2912 79.9962 77.2753C79.9769 77.2558 79.9455 77.2157 79.8977 77.1364L79.0414 77.6528ZM80.907 77.7269C80.9614 77.6237 81.5549 77.0703 81.4827 76.0045L80.485 76.0721C80.5317 76.7612 80.2677 76.7948 80.0222 77.2609L80.907 77.7269ZM81.1375 75.5625C81.1147 75.5551 81.0994 75.5501 81.0898 75.5469C81.085 75.5452 81.0825 75.5444 81.0818 75.5441C81.0795 75.5433 81.0847 75.5451 81.0929 75.5483C81.0954 75.5493 81.0995 75.551 81.1045 75.5532C81.1088 75.555 81.1178 75.559 81.129 75.5646C81.1347 75.5674 81.1435 75.5719 81.154 75.5779C81.1631 75.5831 81.1814 75.5939 81.2029 75.6099C81.214 75.6181 81.2303 75.6308 81.2486 75.6481C81.2654 75.664 81.2944 75.6934 81.3227 75.7363C81.3349 75.7557 81.3587 75.8008 81.3698 75.8265C81.3815 75.8589 81.399 75.9323 81.4039 75.9732C81.4053 76.0205 81.3939 76.1181 81.3806 76.1672C81.3623 76.2146 81.3144 76.2992 81.2859 76.336C81.2585 76.3656 81.2026 76.4137 81.175 76.4327C81.1515 76.4468 81.1071 76.4691 81.0866 76.4776C81.0399 76.4958 81.0003 76.5031 80.9778 76.5063C80.9535 76.5099 80.9332 76.511 80.9197 76.5114C80.9056 76.5118 80.8936 76.5115 80.8848 76.5112C80.8677 76.5105 80.854 76.509 80.846 76.508C80.8373 76.507 80.8301 76.5059 80.8251 76.5051C80.8082 76.5023 80.7954 76.4992 80.793 76.4987C80.7884 76.4976 80.785 76.4967 80.7836 76.4963C80.782 76.4959 80.781 76.4956 80.7807 76.4956C80.7802 76.4954 80.7808 76.4956 80.7825 76.4961C80.7912 76.4986 80.8021 76.5021 80.806 76.5035C80.8066 76.5037 80.8047 76.503 80.801 76.5016C80.7992 76.5009 80.7957 76.4996 80.7912 76.4977C80.7873 76.4961 80.7791 76.4927 80.7687 76.4877C80.7634 76.4852 80.7556 76.4813 80.7462 76.4762C80.7377 76.4716 80.7227 76.4631 80.705 76.451C80.6958 76.4448 80.6835 76.436 80.6696 76.4246C80.6562 76.4137 80.6366 76.3965 80.6154 76.373C80.5954 76.351 80.5633 76.3115 80.536 76.2549C80.5083 76.1975 80.4771 76.1037 80.4891 75.9868C80.4952 75.9282 80.5115 75.8711 80.5374 75.8183C80.563 75.766 80.595 75.7236 80.6273 75.6903C80.6893 75.6263 80.7542 75.5934 80.7927 75.5773C80.8333 75.5602 80.8681 75.5519 80.8899 75.5477C80.913 75.5431 80.9324 75.541 80.946 75.54C80.9724 75.5378 80.9935 75.5383 81.0045 75.5387C81.0169 75.5392 81.027 75.5401 81.0335 75.5408L80.9342 76.5358C80.9416 76.5365 80.9524 76.5375 80.9655 76.538C80.9772 76.5384 80.9988 76.5389 81.0257 76.5368C81.0395 76.5357 81.0591 76.5335 81.0823 76.529C81.1043 76.5247 81.1393 76.5163 81.1799 76.4993C81.2186 76.483 81.2835 76.4501 81.3456 76.3861C81.3779 76.3527 81.4099 76.3103 81.4355 76.258C81.4614 76.2051 81.4778 76.148 81.4839 76.0894C81.4959 75.9724 81.4647 75.8785 81.4369 75.821C81.4096 75.7643 81.3774 75.7248 81.3574 75.7026C81.336 75.679 81.3163 75.6617 81.3028 75.6507C81.2887 75.6392 81.2763 75.6302 81.267 75.6239C81.2488 75.6116 81.2334 75.6029 81.2243 75.5979C81.2144 75.5925 81.2059 75.5883 81.1999 75.5855C81.1881 75.5798 81.1782 75.5756 81.1722 75.5731C81.1657 75.5705 81.1599 75.5682 81.1555 75.5666C81.1468 75.5632 81.1387 75.5604 81.1325 75.5583C81.1095 75.5503 81.0829 75.5421 81.0642 75.5366C81.0591 75.5351 81.0534 75.5334 81.0476 75.5318C81.0431 75.5306 81.0337 75.528 81.0227 75.5254C81.0188 75.5245 81.0048 75.5212 80.9871 75.5183C80.9819 75.5174 80.9745 75.5163 80.9656 75.5152C80.9574 75.5142 80.9436 75.5128 80.9263 75.512C80.9175 75.5117 80.9055 75.5114 80.8914 75.5118C80.8778 75.5122 80.8575 75.5133 80.833 75.5169C80.8105 75.5202 80.7709 75.5275 80.7242 75.5456C80.7036 75.5541 80.6593 75.5764 80.6358 75.5906C80.6082 75.6095 80.5523 75.6576 80.5249 75.6872C80.4964 75.724 80.4484 75.8087 80.4302 75.8561C80.4168 75.9052 80.4054 76.0028 80.4069 76.0502C80.4117 76.091 80.4293 76.1644 80.4409 76.1968C80.452 76.2226 80.4759 76.2677 80.4881 76.2871C80.5164 76.33 80.5454 76.3595 80.5623 76.3754C80.5806 76.3927 80.5969 76.4055 80.608 76.4137C80.6296 76.4297 80.648 76.4405 80.6573 76.4458C80.6679 76.4519 80.6768 76.4565 80.6827 76.4594C80.6943 76.4652 80.7037 76.4694 80.7087 76.4715C80.7143 76.4739 80.7191 76.4759 80.7224 76.4772C80.7339 76.4818 80.7444 76.4855 80.7496 76.4873C80.7563 76.4897 80.7635 76.4922 80.771 76.4947C80.7859 76.4997 80.8054 76.5061 80.8301 76.5141L81.1375 75.5625ZM80.9838 76.0383C81.0335 75.5408 81.0335 75.5408 81.0335 75.5408C81.0335 75.5408 81.0335 75.5408 81.0335 75.5408C81.0334 75.5407 81.0334 75.5407 81.0334 75.5407C81.0333 75.5407 81.0332 75.5407 81.0331 75.5407C81.0329 75.5407 81.0325 75.5407 81.032 75.5406C81.0311 75.5405 81.0297 75.5404 81.0278 75.5402C81.024 75.5398 81.0184 75.5392 81.0111 75.5385C80.9966 75.5371 80.9752 75.5349 80.948 75.5322C80.8935 75.5268 80.8158 75.519 80.7225 75.5097C80.536 75.4911 80.2872 75.4663 80.0384 75.4414L79.9391 76.4365C80.1879 76.4613 80.4366 76.4861 80.6232 76.5048C80.7165 76.5141 80.7942 76.5218 80.8486 76.5273C80.8759 76.53 80.8972 76.5321 80.9118 76.5336C80.9191 76.5343 80.9247 76.5349 80.9284 76.5352C80.9303 76.5354 80.9318 76.5356 80.9327 76.5357C80.9332 76.5357 80.9336 76.5357 80.9338 76.5358C80.9339 76.5358 80.934 76.5358 80.9341 76.5358C80.9341 76.5358 80.9341 76.5358 80.9341 76.5358C80.9341 76.5358 80.9341 76.5358 80.9342 76.5358C80.9342 76.5358 80.9342 76.5358 80.9838 76.0383ZM64.0602 74.4401C64.5562 74.4661 65.1738 74.8393 65.872 75.4584C66.5539 76.0631 67.1936 76.7886 67.7748 77.391L68.4944 76.6966C67.9568 76.1394 67.256 75.3492 66.5354 74.7102C65.831 74.0856 64.984 73.4872 64.1126 73.4415L64.0602 74.4401ZM67.7004 77.2918C68.4823 78.6606 68.835 79.2835 69.0548 79.9966C69.2767 80.7166 69.366 81.5375 69.5544 83.3164L70.5489 83.211C70.3648 81.474 70.2678 80.537 70.0105 79.7021C69.751 78.8602 69.3315 78.1311 68.5687 76.7958L67.7004 77.2918ZM69.5523 83.237C69.5275 83.7009 69.4422 84.3429 69.3183 84.9428C69.1901 85.5634 69.0362 86.0599 68.9028 86.2835L69.7615 86.7959C69.9904 86.4123 70.1698 85.764 70.2976 85.145C70.4297 84.5052 70.523 83.8129 70.5509 83.2904L69.5523 83.237ZM68.9028 86.2835C68.9239 86.2481 68.9174 86.2769 68.7914 86.3535C68.6834 86.4191 68.5316 86.4938 68.3416 86.5727C67.963 86.7299 67.4767 86.8859 66.9865 87.0109C66.4948 87.1364 66.0201 87.2253 65.6643 87.2559C65.4832 87.2715 65.3569 87.2697 65.2828 87.2595C65.2455 87.2544 65.2434 87.25 65.2614 87.258C65.2776 87.2653 65.3547 87.3032 65.4094 87.4048L64.529 87.879C64.6155 88.0396 64.7517 88.1252 64.8508 88.1699C64.9517 88.2153 65.0565 88.2378 65.1467 88.2502C65.3276 88.2751 65.5384 88.2704 65.75 88.2522C66.1795 88.2153 66.7117 88.1131 67.2337 87.9799C67.7572 87.8463 68.2913 87.6763 68.725 87.4962C68.9411 87.4065 69.1435 87.3097 69.3107 87.2081C69.4599 87.1174 69.6498 86.9832 69.7615 86.7959L68.9028 86.2835ZM64.9692 87.6419C65.2847 87.2541 65.2848 87.2541 65.2848 87.2541C65.2848 87.2541 65.2849 87.2542 65.2849 87.2542C65.2849 87.2542 65.2849 87.2542 65.2848 87.2541C65.2848 87.2541 65.2846 87.2539 65.2843 87.2537C65.2837 87.2532 65.2827 87.2524 65.2814 87.2513C65.2786 87.249 65.2743 87.2455 65.2684 87.2406C65.2567 87.2309 65.239 87.2162 65.2161 87.1968C65.1702 87.1581 65.1033 87.1008 65.0213 87.0284C64.8571 86.8833 64.6339 86.6788 64.3979 86.4411C63.9082 85.948 63.4279 85.3751 63.2445 84.9154L62.3157 85.286C62.5814 85.952 63.1957 86.6497 63.6883 87.1458C63.9434 87.4027 64.1833 87.6224 64.3593 87.7779C64.4475 87.8558 64.52 87.9179 64.571 87.961C64.5965 87.9825 64.6167 87.9993 64.6307 88.0109C64.6377 88.0167 64.6432 88.0212 64.647 88.0244C64.649 88.0259 64.6505 88.0272 64.6516 88.0281C64.6522 88.0286 64.6526 88.0289 64.653 88.0292C64.6531 88.0293 64.6533 88.0295 64.6534 88.0296C64.6535 88.0296 64.6535 88.0297 64.6536 88.0297C64.6536 88.0297 64.6537 88.0298 64.9692 87.6419ZM63.2346 84.8924C62.7342 83.8003 62.3904 82.5822 62.2109 81.4714C62.0295 80.3494 62.0235 79.3854 62.1602 78.7877L61.1853 78.5648C61.0073 79.3435 61.0334 80.4538 61.2237 81.6309C61.4158 82.8192 61.7831 84.1252 62.3256 85.309L63.2346 84.8924ZM62.1612 78.7833C62.3402 77.9664 62.7053 76.9778 63.1353 76.1178C63.3496 75.6891 63.5755 75.3016 63.7959 74.989C64.0215 74.6691 64.2205 74.4575 64.3736 74.3501L63.7993 73.5315C63.5075 73.7362 63.2298 74.0565 62.9786 74.4128C62.7222 74.7764 62.4714 75.2095 62.2409 75.6706C61.7812 76.59 61.3843 77.657 61.1843 78.5692L62.1612 78.7833ZM68.8626 92.8469L69.4714 92.693L69.2265 91.7235L68.6177 91.8773L68.8626 92.8469ZM68.9671 92.531C69.0478 92.6266 69.1009 92.7808 69.105 92.9881C69.109 93.1936 69.063 93.3979 69.0067 93.533L69.9298 93.9175C70.0378 93.6582 70.1117 93.3165 70.1048 92.9683C70.0979 92.622 70.0092 92.2149 69.7309 91.8856L68.9671 92.531ZM69.0067 93.533C68.9711 93.6185 68.946 93.6628 68.9298 93.6849C68.9166 93.7029 68.9273 93.6814 68.967 93.6659C69.0088 93.6495 69.0285 93.6606 68.9966 93.6532C68.9587 93.6443 68.882 93.6167 68.7549 93.5408L68.2425 94.3996C68.5718 94.5961 68.9565 94.7442 69.3323 94.5967C69.6927 94.4553 69.8495 94.1103 69.9298 93.9175L69.0067 93.533ZM68.9019 93.6745C68.5904 93.2497 68.3243 93.2554 68.269 92.5669L67.2722 92.6471C67.3578 93.712 68.0265 94.1718 68.0955 94.2658L68.9019 93.6745ZM67.9927 93.0549C68.016 93.0434 68.0344 93.0342 68.0484 93.027C68.0554 93.0235 68.0622 93.02 68.0684 93.0166C68.0733 93.014 68.0831 93.0088 68.0938 93.0026C68.0969 93.0008 68.1014 92.9982 68.1066 92.9949C68.1111 92.9921 68.1199 92.9866 68.1305 92.9792C68.1359 92.9754 68.144 92.9695 68.1536 92.962C68.162 92.9554 68.1786 92.9419 68.1976 92.9229C68.2074 92.9131 68.2217 92.8981 68.2372 92.8783C68.2516 92.8601 68.2759 92.8266 68.2976 92.7801C68.3068 92.759 68.3237 92.7109 68.3309 92.6838C68.3377 92.65 68.3442 92.5748 68.343 92.5337C68.3374 92.4866 68.3118 92.3918 68.2913 92.3452C68.2663 92.301 68.2064 92.2244 68.1728 92.1922C68.1413 92.1669 68.0789 92.1276 68.0488 92.1129C68.0235 92.1023 67.9763 92.0869 67.9547 92.0815C67.9059 92.0704 67.8656 92.069 67.8428 92.0691C67.8182 92.0692 67.7979 92.071 67.7844 92.0727C67.7704 92.0744 67.7586 92.0764 67.7499 92.078C67.7329 92.0813 67.7194 92.0848 67.7115 92.087C67.7028 92.0894 67.6957 92.0916 67.6907 92.0932C67.6736 92.0987 67.6602 92.104 67.6565 92.1055C67.6461 92.1097 67.6371 92.1136 67.6328 92.1155C67.6273 92.1179 67.622 92.1204 67.6171 92.1226C67.5995 92.1308 67.5744 92.1429 67.5527 92.1542C67.5469 92.1572 67.5394 92.1612 67.5312 92.1657C67.5271 92.1681 67.5218 92.1711 67.5157 92.1747C67.5102 92.178 67.501 92.1837 67.4901 92.191C67.4846 92.1947 67.4768 92.2001 67.4678 92.2069C67.4595 92.2131 67.4456 92.2241 67.4295 92.2389C67.4212 92.2465 67.4102 92.2572 67.3979 92.2707C67.3862 92.2836 67.3693 92.3036 67.3516 92.3301C67.3351 92.355 67.309 92.3988 67.2904 92.4589C67.2714 92.5199 67.2544 92.6174 67.2835 92.7313C67.2982 92.7884 67.3228 92.8424 67.3562 92.8909C67.3892 92.9389 67.4272 92.9761 67.4641 93.0043C67.5349 93.0586 67.604 93.0815 67.6446 93.0919C67.6873 93.1028 67.7231 93.1059 67.7455 93.1069C67.7691 93.108 67.7889 93.1072 67.8027 93.1062C67.8296 93.1044 67.8509 93.1007 67.8624 93.0986C67.8752 93.0961 67.8858 93.0936 67.8931 93.0918L67.6481 92.1222C67.6545 92.1206 67.6643 92.1183 67.6765 92.116C67.6874 92.1139 67.7081 92.1104 67.7345 92.1085C67.7482 92.1076 67.7677 92.1068 67.7911 92.1079C67.8133 92.1089 67.849 92.112 67.8916 92.1229C67.9321 92.1332 68.0011 92.1561 68.0719 92.2103C68.1087 92.2385 68.1467 92.2757 68.1797 92.3236C68.2131 92.3721 68.2376 92.4261 68.2523 92.4831C68.2814 92.597 68.2644 92.6944 68.2454 92.7553C68.2268 92.8153 68.2008 92.859 68.1843 92.8838C68.1668 92.9102 68.1499 92.9301 68.1383 92.9428C68.1262 92.9562 68.1154 92.9667 68.1073 92.9742C68.0915 92.9887 68.0779 92.9993 68.0701 93.0052C68.0616 93.0116 68.0545 93.0165 68.0496 93.0198C68.04 93.0263 68.0324 93.0309 68.0288 93.0331C68.0246 93.0356 68.0214 93.0374 68.0197 93.0384C68.0163 93.0402 68.0145 93.0412 68.015 93.0409C68.0187 93.039 68.0289 93.034 68.0372 93.0301C68.0388 93.0294 68.0393 93.0292 68.0389 93.0294C68.0386 93.0295 68.0376 93.0299 68.0361 93.0306C68.0348 93.0311 68.0316 93.0325 68.0272 93.0342C68.0249 93.0352 68.0127 93.0401 67.9964 93.0453C67.9916 93.0468 67.9846 93.049 67.9762 93.0513C67.9684 93.0535 67.955 93.0569 67.9382 93.0602C67.9295 93.0618 67.9178 93.0638 67.9038 93.0655C67.8903 93.0671 67.8701 93.069 67.8455 93.0691C67.8228 93.0691 67.7825 93.0678 67.7337 93.0567C67.7121 93.0513 67.6649 93.0358 67.6396 93.0253C67.6096 93.0106 67.5472 92.9713 67.5157 92.946C67.4821 92.9139 67.4222 92.8372 67.3972 92.793C67.3767 92.7464 67.3511 92.6516 67.3455 92.6045C67.3443 92.5634 67.3508 92.4882 67.3576 92.4545C67.3648 92.4273 67.3817 92.3792 67.3909 92.3582C67.4126 92.3117 67.4369 92.2783 67.4512 92.2601C67.4668 92.2403 67.481 92.2253 67.4907 92.2156C67.5097 92.1966 67.5262 92.1833 67.5344 92.1767C67.5439 92.1693 67.5519 92.1635 67.5571 92.1599C67.5674 92.1527 67.5757 92.1475 67.5797 92.145C67.5844 92.1421 67.5881 92.1399 67.5905 92.1385C67.5981 92.1341 67.603 92.1316 67.6009 92.1327C67.6001 92.1331 67.5978 92.1343 67.5933 92.1366C67.5843 92.1412 67.5699 92.1484 67.5484 92.1591L67.9927 93.0549ZM67.7706 92.607C67.8931 93.0918 67.8931 93.0918 67.8931 93.0918C67.8931 93.0918 67.8931 93.0918 67.8931 93.0918C67.8931 93.0918 67.8931 93.0918 67.8931 93.0918C67.8932 93.0917 67.8933 93.0917 67.8934 93.0917C67.8936 93.0916 67.894 93.0915 67.8945 93.0914C67.8954 93.0912 67.8968 93.0908 67.8986 93.0904C67.9023 93.0895 67.9077 93.0881 67.9148 93.0863C67.929 93.0827 67.9499 93.0774 67.9764 93.0707C68.0294 93.0573 68.1051 93.0382 68.196 93.0152C68.3778 92.9693 68.6202 92.9081 68.8626 92.8468L68.6177 91.8773C68.3753 91.9385 68.1329 91.9998 67.9511 92.0457C67.8602 92.0687 67.7845 92.0878 67.7314 92.1012C67.7049 92.1079 67.6841 92.1132 67.6699 92.1167C67.6628 92.1185 67.6573 92.1199 67.6537 92.1208C67.6518 92.1213 67.6505 92.1217 67.6495 92.1219C67.6491 92.122 67.6487 92.1221 67.6485 92.1222C67.6484 92.1222 67.6483 92.1222 67.6482 92.1222C67.6482 92.1222 67.6482 92.1222 67.6481 92.1222C67.6481 92.1222 67.6481 92.1222 67.6481 92.1222C67.6481 92.1222 67.6481 92.1222 67.7706 92.607ZM5.24048 76.842C6.11118 76.7841 6.94978 76.1739 7.64535 75.5395C8.35695 74.8905 9.04657 74.0906 9.57635 73.5258L8.84705 72.8417C8.27436 73.4521 7.6449 74.1865 6.97149 74.8006C6.28206 75.4294 5.66971 75.8113 5.1742 75.8442L5.24048 76.842ZM9.64929 73.4256C10.3933 72.0798 10.8025 71.3449 11.0502 70.4995C11.2958 69.661 11.3797 68.7228 11.5394 66.9833L10.5436 66.8919C10.3801 68.6732 10.3024 69.4953 10.0905 70.2184C9.88074 70.9345 9.53672 71.5623 8.77411 72.9419L9.64929 73.4256ZM11.5404 66.9039C11.5051 66.3819 11.4022 65.6909 11.2612 65.0531C11.1247 64.436 10.9362 63.7902 10.702 63.4098L9.85049 63.9342C9.98703 64.1559 10.1479 64.6502 10.2848 65.269C10.417 65.8671 10.5113 66.5078 10.5427 66.9713L11.5404 66.9039ZM10.702 63.4098C10.5876 63.2241 10.396 63.0926 10.2455 63.004C10.0768 62.9047 9.87315 62.8108 9.65583 62.7241C9.21958 62.5501 8.68317 62.3875 8.15784 62.2613C7.63401 62.1355 7.10043 62.0407 6.6705 62.0098C6.4587 61.9945 6.24778 61.9928 6.06725 62.0202C5.97729 62.0339 5.87281 62.0579 5.77253 62.1047C5.67403 62.1508 5.53908 62.2383 5.45484 62.4L6.3418 62.8619C6.28849 62.9643 6.2119 63.0032 6.19585 63.0107C6.17801 63.0191 6.18003 63.0146 6.21728 63.0089C6.29117 62.9977 6.41747 62.9942 6.59873 63.0072C6.95493 63.0328 7.43085 63.1151 7.92423 63.2337C8.4161 63.3518 8.90461 63.501 9.28532 63.6529C9.47648 63.7292 9.62931 63.8017 9.73818 63.8658C9.86525 63.9406 9.87215 63.9693 9.85049 63.9342L10.702 63.4098ZM5.89832 62.631C5.57739 62.2476 5.57733 62.2476 5.57727 62.2476C5.57724 62.2477 5.57717 62.2477 5.57711 62.2478C5.57699 62.2479 5.57685 62.248 5.57668 62.2481C5.57634 62.2484 5.57589 62.2488 5.57534 62.2493C5.57425 62.2502 5.57274 62.2515 5.57083 62.2531C5.56701 62.2563 5.56159 62.2609 5.55467 62.2668C5.54082 62.2786 5.52092 62.2956 5.49572 62.3175C5.44534 62.3613 5.37364 62.4244 5.28656 62.5035C5.11274 62.6615 4.87597 62.8845 4.62446 63.145C4.13885 63.6479 3.53439 64.3542 3.27804 65.0238L4.21194 65.3813C4.38889 64.9191 4.8611 64.3396 5.34383 63.8396C5.57649 63.5987 5.79681 63.3911 5.95903 63.2437C6.03997 63.1701 6.10604 63.112 6.15141 63.0725C6.17409 63.0529 6.19157 63.0379 6.20313 63.028C6.2089 63.0231 6.2132 63.0195 6.21592 63.0172C6.21728 63.016 6.21824 63.0152 6.2188 63.0147C6.21908 63.0145 6.21926 63.0144 6.21934 63.0143C6.21937 63.0143 6.21939 63.0143 6.21937 63.0143C6.21937 63.0143 6.21934 63.0143 6.21933 63.0143C6.2193 63.0143 6.21925 63.0144 5.89832 62.631ZM3.28757 65.0006C2.76171 66.1919 2.4127 67.5029 2.23729 68.6938C2.06351 69.8735 2.0529 70.984 2.24184 71.7602L3.21346 71.5236C3.06844 70.9279 3.06099 69.9639 3.22661 68.8395C3.3906 67.7262 3.71725 66.5035 4.2024 65.4045L3.28757 65.0006ZM2.24079 71.7558C2.45351 72.6651 2.86529 73.7264 3.33779 74.6393C3.57473 75.0971 3.83162 75.5267 4.09304 75.8867C4.3492 76.2394 4.63133 76.5558 4.92594 76.7564L5.48874 75.9298C5.33421 75.8246 5.13221 75.6158 4.90221 75.2991C4.67747 74.9896 4.44618 74.6053 4.22589 74.1797C3.78392 73.3257 3.405 72.3423 3.21451 71.528L2.24079 71.7558ZM9.48715 58.3449L10.0981 58.4902L10.3294 57.5173L9.71849 57.3721L9.48715 58.3449ZM10.6001 58.3211C10.8738 57.9879 10.9569 57.5796 10.9589 57.2332C10.9609 56.885 10.8823 56.5444 10.7706 56.2866L9.85296 56.6839C9.91111 56.8182 9.96005 57.0219 9.95887 57.2274C9.95768 57.4348 9.90679 57.5897 9.82735 57.6864L10.6001 58.3211ZM10.7706 56.2866C10.6876 56.095 10.526 55.7521 10.1637 55.6158C9.78582 55.4735 9.40327 55.6271 9.07674 55.8282L9.60108 56.6797C9.72712 56.6021 9.8034 56.5733 9.84123 56.5639C9.87303 56.5561 9.85342 56.5675 9.81143 56.5517C9.77151 56.5366 9.76047 56.5153 9.77391 56.5331C9.79042 56.555 9.81618 56.599 9.85296 56.6839L10.7706 56.2866ZM8.93159 55.9639C8.86393 56.059 8.20177 56.5281 8.13104 57.5941L9.12885 57.6603C9.17458 56.9711 9.4407 56.9731 9.74624 56.5439L8.93159 55.9639ZM8.41407 58.0782C8.4357 58.0885 8.45016 58.0955 8.45924 58.1C8.46382 58.1023 8.46615 58.1035 8.46688 58.1038C8.46901 58.1049 8.46407 58.1024 8.45641 58.0981C8.45406 58.0968 8.45027 58.0946 8.44558 58.0918C8.44151 58.0894 8.43313 58.0843 8.42277 58.0772C8.41749 58.0737 8.40941 58.068 8.39983 58.0607C8.39147 58.0543 8.3748 58.0411 8.35558 58.0224C8.34573 58.0129 8.33128 57.9981 8.31545 57.9785C8.30089 57.9605 8.27609 57.9275 8.25378 57.8812C8.2443 57.8603 8.22669 57.8125 8.21911 57.7854C8.2119 57.7518 8.2043 57.6767 8.20494 57.6356C8.20988 57.5885 8.23418 57.4933 8.25398 57.4464C8.27839 57.4018 8.3372 57.3244 8.37037 57.2917C8.40147 57.266 8.4633 57.2259 8.49313 57.2107C8.5183 57.1999 8.56526 57.1837 8.58677 57.178C8.63542 57.1663 8.67566 57.1643 8.69837 57.1641C8.72302 57.1638 8.74326 57.1654 8.75671 57.1668C8.77074 57.1683 8.78252 57.1702 8.79119 57.1717C8.80806 57.1747 8.82146 57.178 8.8293 57.18C8.83778 57.1822 8.84475 57.1843 8.84959 57.1858C8.86598 57.1908 8.87825 57.1955 8.88053 57.1964C8.88498 57.1981 8.88822 57.1994 8.88951 57.1999C8.89104 57.2006 8.89202 57.201 8.89228 57.2011C8.89276 57.2013 8.89224 57.2011 8.89059 57.2003C8.88229 57.1966 8.872 57.1918 8.86828 57.1899C8.86773 57.1896 8.86957 57.1905 8.87297 57.1924C8.87473 57.1933 8.87796 57.1951 8.88216 57.1975C8.88584 57.1997 8.89349 57.2042 8.90312 57.2105C8.90806 57.2137 8.91531 57.2186 8.92389 57.2249C8.93176 57.2306 8.94545 57.241 8.96144 57.2553C8.96966 57.2627 8.98068 57.2731 8.99296 57.2862C9.00473 57.2988 9.02187 57.3185 9.03979 57.3446C9.05661 57.3692 9.08323 57.4125 9.10268 57.4722C9.12244 57.5329 9.14088 57.63 9.11331 57.7443C9.0995 57.8015 9.07568 57.8559 9.04297 57.9048C9.01064 57.9532 8.97323 57.9909 8.93677 58.0196C8.86677 58.0748 8.7981 58.0987 8.75775 58.1096C8.71531 58.121 8.67967 58.1246 8.65747 58.1259C8.63403 58.1273 8.6145 58.1268 8.60089 58.1261C8.57441 58.1246 8.55362 58.1214 8.5427 58.1194C8.5305 58.1173 8.52066 58.1151 8.51427 58.1136L8.74561 57.1407C8.73835 57.139 8.72774 57.1366 8.71488 57.1344C8.7033 57.1324 8.68196 57.129 8.65505 57.1275C8.64121 57.1268 8.62149 57.1263 8.59788 57.1277C8.57552 57.129 8.53974 57.1326 8.49718 57.1441C8.45671 57.155 8.38795 57.179 8.31788 57.2342C8.28139 57.2629 8.24396 57.3007 8.2116 57.3491C8.17888 57.398 8.15504 57.4524 8.14122 57.5097C8.11363 57.624 8.13207 57.7212 8.15187 57.782C8.17134 57.8418 8.19802 57.8853 8.21491 57.9099C8.23291 57.9362 8.25016 57.956 8.26205 57.9687C8.27444 57.982 8.28561 57.9925 8.294 58C8.31032 58.0146 8.32443 58.0253 8.3328 58.0315C8.34188 58.0381 8.34971 58.0434 8.35531 58.0471C8.36627 58.0542 8.37555 58.0597 8.38113 58.063C8.38724 58.0665 8.39264 58.0695 8.39681 58.0717C8.40503 58.0762 8.41261 58.0801 8.41844 58.083C8.44024 58.094 8.46551 58.1057 8.48328 58.1136C8.48815 58.1158 8.49356 58.1182 8.49906 58.1205C8.50337 58.1224 8.51238 58.1262 8.52288 58.1302C8.52662 58.1317 8.54004 58.1368 8.55726 58.1421C8.5623 58.1436 8.56945 58.1457 8.57809 58.148C8.5861 58.15 8.59963 58.1533 8.61663 58.1564C8.62536 58.1579 8.63718 58.1598 8.65127 58.1613C8.66476 58.1627 8.68504 58.1643 8.70973 58.164C8.73247 58.1638 8.77275 58.1618 8.82142 58.1501C8.84294 58.1444 8.88992 58.1282 8.91509 58.1173C8.94493 58.1022 9.00677 58.062 9.03788 58.0363C9.07106 58.0037 9.12987 57.9262 9.15428 57.8817C9.17408 57.8347 9.19839 57.7396 9.20333 57.6924C9.20397 57.6513 9.19637 57.5762 9.18916 57.5426C9.18157 57.5155 9.16396 57.4676 9.15447 57.4467C9.13215 57.4005 9.10733 57.3674 9.09275 57.3494C9.0769 57.3298 9.06242 57.3149 9.05254 57.3053C9.03325 57.2866 9.01648 57.2734 9.00799 57.2669C8.9983 57.2594 8.99007 57.2537 8.98462 57.25C8.97391 57.2427 8.96508 57.2373 8.96046 57.2346C8.95521 57.2314 8.95075 57.2289 8.94762 57.2271C8.93684 57.221 8.92697 57.2159 8.92204 57.2134C8.9157 57.2102 8.90886 57.2068 8.90183 57.2033C8.88771 57.1963 8.86925 57.1874 8.84582 57.1762L8.41407 58.0782ZM8.62994 57.6272C8.51427 58.1136 8.51427 58.1136 8.51428 58.1136C8.51428 58.1136 8.51429 58.1136 8.51429 58.1136C8.51431 58.1136 8.51434 58.1136 8.51436 58.1136C8.51442 58.1136 8.51451 58.1136 8.51463 58.1137C8.51486 58.1137 8.51522 58.1138 8.51568 58.1139C8.51662 58.1141 8.51801 58.1145 8.51985 58.1149C8.52354 58.1158 8.529 58.1171 8.53612 58.1188C8.55038 58.1222 8.57128 58.1271 8.59788 58.1335C8.65108 58.1461 8.72709 58.1642 8.8183 58.1859C9.00071 58.2293 9.24393 58.2871 9.48715 58.3449L9.71849 57.3721C9.47527 57.3142 9.23205 57.2564 9.04964 57.213C8.95843 57.1913 8.88243 57.1733 8.82922 57.1606C8.80262 57.1543 8.78172 57.1493 8.76747 57.1459C8.76034 57.1442 8.75488 57.1429 8.7512 57.142C8.74936 57.1416 8.74796 57.1413 8.74703 57.1411C8.74656 57.1409 8.74621 57.1409 8.74597 57.1408C8.74585 57.1408 8.74576 57.1408 8.7457 57.1407C8.74567 57.1407 8.74565 57.1407 8.74564 57.1407C8.74563 57.1407 8.74563 57.1407 8.74562 57.1407C8.74562 57.1407 8.74562 57.1407 8.62994 57.6272ZM25.1884 61.4713C24.7004 61.3793 24.1382 60.9269 23.529 60.2201C22.9339 59.5298 22.3968 58.7254 21.9013 58.0508L21.0954 58.6428C21.5538 59.2668 22.1427 60.1435 22.7715 60.873C23.3862 61.5861 24.1457 62.2923 25.0032 62.454L25.1884 61.4713ZM21.9618 58.159C21.3697 56.6981 21.1033 56.0336 20.9807 55.2975C20.857 54.5543 20.8782 53.7288 20.929 51.9407L19.9294 51.9123C19.8798 53.6584 19.8508 54.5999 19.9943 55.4618C20.139 56.3307 20.4574 57.1094 21.035 58.5346L21.9618 58.159ZM20.9204 52.0197C21.007 51.5633 21.1773 50.9384 21.3802 50.3605C21.5901 49.7625 21.809 49.291 21.9711 49.0872L21.1885 48.4647C20.9104 48.8143 20.646 49.4329 20.4367 50.0293C20.2203 50.6456 20.0354 51.3194 19.938 51.8334L20.9204 52.0197ZM21.9711 49.0872C21.9454 49.1195 21.9557 49.0918 22.0908 49.0328C22.2066 48.9822 22.367 48.9284 22.5659 48.8756C22.962 48.7704 23.4649 48.6807 23.9674 48.6223C24.4714 48.5636 24.9537 48.5389 25.3104 48.5561C25.492 48.5648 25.6169 48.5834 25.6889 48.6034C25.7252 48.6135 25.7267 48.6182 25.71 48.6078C25.695 48.5984 25.6236 48.5506 25.5829 48.4425L26.5188 48.0902C26.4545 47.9195 26.331 47.8164 26.2387 47.759C26.1447 47.7004 26.0439 47.6641 25.9562 47.6398C25.7803 47.591 25.5706 47.5674 25.3585 47.5572C24.928 47.5365 24.3869 47.5667 23.8518 47.629C23.3151 47.6914 22.7631 47.7886 22.3092 47.9091C22.0831 47.9692 21.8696 48.0381 21.6903 48.1165C21.5303 48.1864 21.3242 48.294 21.1885 48.4647L21.9711 49.0872ZM26.0508 48.2663C25.6863 48.6086 25.6863 48.6086 25.6863 48.6085C25.6863 48.6085 25.6862 48.6085 25.6862 48.6085C25.6862 48.6085 25.6862 48.6085 25.6863 48.6085C25.6863 48.6086 25.6865 48.6088 25.6867 48.609C25.6872 48.6096 25.6881 48.6105 25.6893 48.6118C25.6917 48.6144 25.6956 48.6185 25.7007 48.6241C25.711 48.6352 25.7266 48.6522 25.7467 48.6745C25.7871 48.719 25.8457 48.7847 25.9172 48.8674C26.0607 49.0331 26.2545 49.2656 26.4567 49.5327C26.8761 50.0868 27.2756 50.7187 27.3959 51.1988L28.3659 50.9556C28.1916 50.2601 27.676 49.4866 27.254 48.9292C27.0355 48.6404 26.8271 48.3907 26.6734 48.2131C26.5965 48.1241 26.5328 48.0528 26.4881 48.0033C26.4657 47.9786 26.4479 47.9593 26.4356 47.9459C26.4294 47.9392 26.4246 47.934 26.4212 47.9304C26.4195 47.9285 26.4182 47.9271 26.4172 47.9261C26.4167 47.9255 26.4163 47.9251 26.416 47.9248C26.4158 47.9246 26.4157 47.9245 26.4156 47.9244C26.4155 47.9243 26.4155 47.9242 26.4155 47.9242C26.4154 47.9242 26.4153 47.9241 26.0508 48.2663ZM27.4026 51.2229C27.7528 52.3721 27.9308 53.6251 27.9603 54.75C27.9902 55.8862 27.8674 56.8423 27.6522 57.4164L28.5885 57.7675C28.869 57.0196 28.9913 55.9158 28.96 54.7237C28.9283 53.5204 28.7388 52.1771 28.3592 50.9314L27.4026 51.2229ZM27.6506 57.4206C27.364 58.2063 26.8701 59.1373 26.3291 59.9322C26.0595 60.3284 25.7839 60.6823 25.5237 60.9626C25.2575 61.2496 25.0319 61.4326 24.8659 61.5186L25.3257 62.4066C25.6423 62.2427 25.9602 61.9624 26.2567 61.6428C26.5594 61.3167 26.8658 60.921 27.1558 60.4948C27.7342 59.6451 28.27 58.6406 28.5901 57.7633L27.6506 57.4206ZM22.8875 42.5881L22.2636 42.6592L22.3768 43.6527L23.0007 43.5816L22.8875 42.5881ZM22.7418 42.8871C22.6745 42.7816 22.6425 42.6217 22.6661 42.4157C22.6896 42.2115 22.7625 42.0152 22.8363 41.8888L21.9728 41.3845C21.8311 41.6271 21.7123 41.9558 21.6727 42.3018C21.6332 42.6459 21.6668 43.0612 21.8986 43.4248L22.7418 42.8871ZM22.8363 41.8888C22.883 41.8089 22.9139 41.7682 22.9329 41.7485C22.9483 41.7324 22.9348 41.7523 22.8934 41.7624C22.8498 41.7731 22.8317 41.7594 22.8623 41.7711C22.8988 41.7849 22.9711 41.8226 23.0869 41.9147L23.7094 41.1321C23.4093 40.8934 23.0478 40.6951 22.6557 40.7911C22.2796 40.8831 22.0781 41.2042 21.9728 41.3845L22.8363 41.8888ZM22.9591 41.7625C23.211 42.2252 23.4755 42.255 23.4384 42.9448L24.437 42.9984C24.4943 41.9317 23.8931 41.3867 23.8373 41.2842L22.9591 41.7625ZM23.7773 42.498C23.7527 42.5063 23.7333 42.513 23.7185 42.5182C23.7111 42.5208 23.7039 42.5234 23.6972 42.5259C23.692 42.5278 23.6816 42.5316 23.6702 42.5364C23.6669 42.5378 23.6621 42.5398 23.6565 42.5423C23.6516 42.5445 23.6422 42.5488 23.6307 42.5547C23.6248 42.5577 23.616 42.5624 23.6055 42.5687C23.5963 42.5741 23.578 42.5852 23.5566 42.6015C23.5457 42.6099 23.5295 42.6229 23.5114 42.6404C23.4948 42.6566 23.4662 42.6864 23.4385 42.7297C23.4266 42.7493 23.4034 42.7947 23.3926 42.8207C23.3814 42.8532 23.3649 42.9269 23.3606 42.9678C23.3599 43.0152 23.3726 43.1126 23.3867 43.1615C23.4056 43.2087 23.4547 43.2926 23.4837 43.329C23.5115 43.3583 23.5681 43.4056 23.5959 43.4241C23.6196 43.438 23.6643 43.4596 23.685 43.4679C23.7319 43.4853 23.7717 43.4921 23.7942 43.4951C23.8187 43.4983 23.839 43.4991 23.8526 43.4993C23.8668 43.4995 23.8787 43.4991 23.8876 43.4986C23.9048 43.4976 23.9186 43.496 23.9268 43.4949C23.9357 43.4937 23.943 43.4924 23.9482 43.4915C23.9659 43.4883 23.9799 43.4848 23.9838 43.4839C23.9947 43.4811 24.0041 43.4784 24.0086 43.4771C24.0143 43.4754 24.02 43.4737 24.0251 43.4721C24.0437 43.4664 24.0702 43.4578 24.0931 43.4495C24.0992 43.4473 24.1072 43.4443 24.1159 43.4409C24.1203 43.4391 24.1261 43.4368 24.1325 43.434C24.1385 43.4315 24.1484 43.4272 24.1601 43.4214C24.1661 43.4184 24.1745 43.4141 24.1843 43.4086C24.1933 43.4035 24.2086 43.3945 24.2266 43.382C24.2358 43.3755 24.2482 43.3664 24.2621 43.3547C24.2754 43.3435 24.2949 43.3259 24.3159 43.302C24.3356 43.2796 24.3673 43.2396 24.3938 43.1825C24.4207 43.1246 24.4507 43.0303 24.437 42.9135C24.4301 42.8549 24.4129 42.7981 24.3863 42.7456C24.36 42.6937 24.3273 42.6517 24.2945 42.6188C24.2316 42.5556 24.1662 42.5236 24.1273 42.5079C24.0864 42.4914 24.0513 42.4836 24.0293 42.4796C24.006 42.4753 23.9864 42.4735 23.9725 42.4726C23.9457 42.4708 23.9241 42.4716 23.9123 42.4722C23.8993 42.4729 23.8885 42.474 23.8811 42.4748L23.9943 43.4684C23.9878 43.4691 23.9778 43.4701 23.9654 43.4708C23.9543 43.4714 23.9333 43.4722 23.9068 43.4704C23.8932 43.4695 23.8738 43.4677 23.8507 43.4635C23.8288 43.4595 23.7938 43.4517 23.7531 43.4352C23.7143 43.4196 23.649 43.3877 23.5861 43.3245C23.5533 43.2917 23.5207 43.2497 23.4944 43.1978C23.4678 43.1453 23.4506 43.0885 23.4438 43.03C23.4301 42.9133 23.46 42.8191 23.4869 42.7612C23.5133 42.7043 23.545 42.6644 23.5646 42.642C23.5855 42.6182 23.6049 42.6008 23.6181 42.5897C23.6318 42.5781 23.644 42.5691 23.6531 42.5628C23.6707 42.5505 23.6855 42.5418 23.694 42.537C23.7033 42.5318 23.711 42.5278 23.7163 42.5252C23.7267 42.5201 23.7348 42.5166 23.7387 42.5149C23.7432 42.513 23.7466 42.5116 23.7484 42.5109C23.752 42.5094 23.754 42.5088 23.7534 42.509C23.7495 42.5104 23.7387 42.514 23.73 42.5167C23.7283 42.5172 23.7277 42.5173 23.7282 42.5172C23.7285 42.5171 23.7295 42.5168 23.7311 42.5164C23.7325 42.516 23.7358 42.5151 23.7405 42.5139C23.7428 42.5133 23.7556 42.5101 23.7724 42.5071C23.7774 42.5062 23.7846 42.505 23.7933 42.5038C23.8013 42.5027 23.815 42.5011 23.8321 42.5001C23.8409 42.4996 23.8528 42.4992 23.8669 42.4994C23.8804 42.4996 23.9007 42.5004 23.9252 42.5037C23.9477 42.5066 23.9874 42.5134 24.0343 42.5308C24.055 42.5391 24.0997 42.5607 24.1233 42.5745C24.1512 42.5931 24.2077 42.6404 24.2355 42.6697C24.2646 42.706 24.3137 42.79 24.3326 42.8371C24.3466 42.8861 24.3594 42.9834 24.3586 43.0308C24.3543 43.0717 24.3378 43.1454 24.3266 43.1779C24.3159 43.2039 24.2927 43.2493 24.2807 43.2689C24.253 43.3121 24.2245 43.3419 24.2079 43.3581C24.1898 43.3756 24.1737 43.3886 24.1628 43.3969C24.1415 43.4131 24.1233 43.4242 24.1143 43.4295C24.1039 43.4357 24.0952 43.4403 24.0895 43.4432C24.0784 43.449 24.0694 43.4531 24.0651 43.455C24.0601 43.4572 24.0561 43.4589 24.0536 43.46C24.0455 43.4633 24.0403 43.4652 24.0425 43.4644C24.0433 43.4641 24.0458 43.4632 24.0506 43.4615C24.0601 43.4581 24.0753 43.4529 24.098 43.4452L23.7773 42.498ZM23.9377 42.9716C23.8811 42.4748 23.8811 42.4748 23.8811 42.4748C23.881 42.4748 23.881 42.4748 23.881 42.4748C23.881 42.4748 23.881 42.4748 23.881 42.4748C23.8809 42.4748 23.8808 42.4748 23.8807 42.4749C23.8805 42.4749 23.8801 42.4749 23.8796 42.475C23.8787 42.4751 23.8772 42.4753 23.8754 42.4755C23.8716 42.4759 23.866 42.4765 23.8587 42.4774C23.8442 42.479 23.8228 42.4815 23.7957 42.4845C23.7413 42.4907 23.6637 42.4996 23.5706 42.5102C23.3843 42.5314 23.1359 42.5598 22.8875 42.5881L23.0007 43.5816C23.2491 43.5533 23.4975 43.525 23.6838 43.5038C23.777 43.4932 23.8546 43.4843 23.9089 43.4781C23.9361 43.475 23.9574 43.4726 23.972 43.4709C23.9793 43.4701 23.9848 43.4695 23.9886 43.469C23.9905 43.4688 23.9919 43.4687 23.9929 43.4685C23.9933 43.4685 23.9937 43.4685 23.9939 43.4684C23.9941 43.4684 23.9942 43.4684 23.9942 43.4684C23.9942 43.4684 23.9943 43.4684 23.9943 43.4684C23.9943 43.4684 23.9943 43.4684 23.9943 43.4684C23.9943 43.4684 23.9943 43.4684 23.9377 42.9716Z" fill="white"/>
</svg>
