<svg width="2661" height="1560" viewBox="0 0 2661 1560" fill="none" xmlns="http://www.w3.org/2000/svg">
<g filter="url(#filter0_d_6_113)">
<path d="M524.517 1333.77C677.441 1328 794.556 1141.7 786.099 917.658C777.643 693.619 646.818 516.679 493.894 522.452C340.969 528.224 223.855 714.523 232.312 938.562C240.768 1162.6 371.593 1339.54 524.517 1333.77Z" fill="white"/>
<path d="M494.156 529.848C344.034 535.514 229.101 718.386 237.403 938.331C245.705 1158.27 374.094 1331.96 524.218 1326.3C674.338 1320.63 789.344 1137.75 781.043 917.811C772.745 697.866 644.275 524.181 494.156 529.848ZM490.918 533.749L494.526 543.48C446.951 545.314 403.023 565.553 365.775 599.462L364.792 588.687C401.571 556.09 444.483 536.347 490.918 533.749ZM497.97 533.588C544.354 532.743 588.54 549.117 627.586 578.767L627.718 589.889C587.964 558.742 542.567 541.723 494.886 543.466L497.97 533.588ZM494.805 547.039C638.439 541.617 761.305 707.817 769.248 918.256C777.191 1128.68 667.204 1303.68 523.569 1309.11C379.935 1314.53 257.069 1148.31 249.126 937.888C241.183 727.453 351.17 552.46 494.805 547.039ZM358.945 594.051L365.5 599.787C327.048 634.902 295.796 684.608 274.921 743.555L270.337 734.7C291.2 677.515 321.716 629.061 358.945 594.051ZM634.117 583.874C673.811 615.992 707.785 661.949 732.856 717.347L729.18 726.828C704.005 669.645 669.122 622.376 628.233 590.185L634.117 583.874ZM267.146 743.638L274.789 743.875C254.555 801.152 244.122 867.116 246.645 937.037L239.763 932.153C237.9 864.16 247.909 799.922 267.146 743.638ZM736.948 726.535C760.3 781.261 775.068 844.605 778.252 912.562L771.669 917.535C768.964 847.909 753.854 783.113 729.572 727.653L736.948 726.535ZM246.665 937.561C246.67 937.702 246.675 937.839 246.681 937.981C249.303 1007.46 264.361 1072.24 288.483 1127.66L281.107 1128.78C257.836 1073.94 243.133 1010.46 240.079 942.429L246.665 937.561ZM771.713 918.688L778.667 923.569C780.574 991.389 770.653 1055.56 751.56 1111.76L743.993 1111.62C764.084 1054.41 774.282 988.441 771.713 918.688ZM288.798 1128.39C313.864 1185.71 348.638 1232.98 389.47 1265.35L383.59 1271.77C343.98 1239.49 310.014 1193.46 285.055 1137.97L288.798 1128.39ZM743.537 1112.9L748.045 1121.65C727.221 1178.7 696.833 1227 659.713 1261.98L653.086 1256.24C691.42 1221.17 722.695 1171.68 743.537 1112.9ZM390.212 1265.96C429.889 1297.18 475.225 1314.27 522.841 1312.7L519.689 1322.69C473.384 1323.34 429.3 1306.81 390.344 1277.08L390.212 1265.96ZM652.251 1257.01L653.238 1267.89C616.506 1300.3 573.642 1319.96 527.316 1322.51L523.704 1312.67C571.187 1310.88 615.041 1290.76 652.251 1257.01Z" fill="url(#paint0_linear_6_113)"/>
<g filter="url(#filter1_d_6_113)">
<path d="M471.143 557.485L471.285 561.259L471.317 562.098L471.455 565.766L474.044 565.669L474.979 565.633L482.603 607.335L478.322 646.546L477.387 646.582L474.869 646.677L475.008 650.345L475.04 651.184L475.182 654.958L477.699 654.863L484.819 654.594L487.336 654.499L487.194 650.725L487.162 649.887L487.024 646.218L484.651 646.307L486.519 629.021L489.613 646.12L487.168 646.212L487.306 649.881L487.338 650.72L487.48 654.493L489.997 654.398L497.189 654.127L499.419 654.043L499.707 654.032L501.936 653.948L509.056 653.679L509.128 653.676L511.573 653.584L511.645 653.581L520.995 653.228L523.512 653.133L523.369 649.36L523.338 648.521L523.199 644.852L520.682 644.947L520.179 644.966L517.124 564.043L517.627 564.024L520.145 563.929L520.006 560.26L519.974 559.421L519.832 555.648L517.315 555.743L507.965 556.095L507.894 556.098L505.448 556.19L505.376 556.193L496.674 556.522L496.027 556.546L494.085 556.619L493.51 556.641L486.893 556.891L485.527 556.942L484.376 556.986L483.009 557.037L473.732 557.388L471.143 557.485ZM483.466 565.313L484.689 565.267L485.839 565.223L487.062 565.177L485.731 577.614L483.466 565.313ZM493.463 564.936L493.822 564.922L494.398 564.9L496.339 564.827L496.771 564.811L499.826 645.735L499.394 645.751L499.106 645.762L498.171 645.797L489.726 599.508L493.463 564.936ZM505.186 564.493L505.689 564.474L505.761 564.472L508.206 564.379L508.278 564.377L508.709 564.36L511.764 645.284L511.332 645.3L511.261 645.303L508.815 645.395L508.744 645.398L508.24 645.417L505.186 564.493ZM385.917 596.918L383.826 598.781L375.957 605.902L374.985 606.883L374.358 607.432L368.299 612.909L367.188 614.001L365.097 615.864L357.232 623.089L355.141 624.953L356.558 628.153L356.874 628.876L358.215 631.975L360.377 630.109L361.141 629.345L381.906 660.473L391.681 698.104L390.845 698.87L388.755 700.734L390.1 703.937L390.416 704.66L391.833 707.861L393.919 705.893L399.906 700.418L401.997 698.554L400.652 695.351L400.336 694.628L398.991 691.425L396.972 693.286L392.671 676.652L401.077 689.457L399.059 691.317L400.476 694.518L400.719 695.244L402.137 698.444L404.295 696.473L412.161 689.248L414.319 687.277L420.238 681.91L422.325 679.942L420.983 676.843L420.668 676.12L419.251 672.92L417.164 674.888L416.745 675.218L386.485 606.239L386.904 605.908L389.063 603.937L387.645 600.737L387.33 600.014L385.917 596.918ZM618.122 597.076L616.95 600.374L616.69 601.119L615.514 604.312L617.815 606.115L618.186 606.416L593.212 677.48L592.84 677.18L590.544 675.482L589.44 678.673L589.18 679.417L588.008 682.716L590.309 684.518L598.621 691.028L600.922 692.83L602.021 689.535L602.281 688.79L603.453 685.492L601.157 683.794L600.781 683.388L625.755 612.324L626.127 612.624L628.427 614.427L629.527 611.131L629.787 610.387L630.963 607.193L628.663 605.391L620.35 598.881L618.122 597.076ZM379.382 612.701L409.642 681.68L409.087 682.226L408.319 682.885L385.266 648.379L376.668 615.217L377.432 614.454L379.382 612.701ZM371.305 620.039L374.421 631.993L368.315 622.881L370.333 621.02L371.305 620.039ZM288.652 733.38L287.48 736.678L284.229 745.934L283.129 749.229L282.473 750.934L278.317 762.952L277.145 766.251L279.442 767.949L279.889 768.352L282.19 770.154L283.29 766.859L283.75 765.687L312.081 777.844L333.232 803.918L332.772 805.09L331.672 808.386L333.901 810.192L334.42 810.592L336.717 812.29L337.821 809.099L341.076 799.948L342.176 796.653L339.947 794.847L339.428 794.447L337.203 792.746L336.095 795.832L326.73 784.324L338.299 789.346L337.195 792.537L339.496 794.339L340.015 794.74L342.24 796.44L343.416 793.247L347.64 781.12L348.812 777.822L346.583 776.017L346.064 775.616L343.763 773.814L342.663 777.109L342.203 778.281L310.796 764.771L292.141 741.856L292.525 740.582L293.701 737.388L291.4 735.586L290.881 735.185L288.652 733.38ZM715.039 718.545L712.88 720.516L712.393 720.955L710.306 722.923L711.648 726.021L711.883 726.537L665.584 768.804L665.349 768.288L664.003 765.085L661.845 767.056L661.357 767.494L659.271 769.463L660.612 772.561L665.734 784.23L665.814 784.437L667.155 787.535L672.277 799.204L673.694 802.404L675.781 800.436L676.268 799.998L678.427 798.027L677.013 794.931L676.774 794.31L723.073 752.043L723.312 752.664L724.726 755.76L726.816 753.896L727.304 753.458L729.462 751.487L728.045 748.286L722.923 736.618L721.582 733.519L721.506 733.417L716.384 721.749L715.039 718.545ZM289.21 750.049L295.931 758.299L287.586 754.73L288.693 751.644L289.21 750.049ZM716.534 737.174L716.769 737.69L716.845 737.792L718.191 740.995L718.426 741.511L672.123 783.674L671.892 783.262L670.546 780.059L670.471 779.957L670.235 779.441L716.534 737.174ZM315.355 904.632L315.493 908.301L315.544 909.664L284.128 920.717L260.401 914.16L260.35 912.797L260.211 909.128L257.694 909.223L257.119 909.245L254.53 909.343L254.668 913.011L255.068 923.599L255.139 925.485L255.206 927.267L255.281 929.259L255.752 941.733L255.796 942.886L255.895 945.507L255.938 946.66L256.409 959.134L256.548 962.803L259.137 962.705L259.712 962.683L262.229 962.588L262.091 958.919L262.067 958.29L317.301 956.205L317.325 956.834L317.463 960.503L319.981 960.408L320.556 960.386L323.073 960.291L322.935 956.623L322.444 943.625L322.42 942.996L322.306 939.956L322.278 939.222L321.91 929.473L321.771 925.805L319.254 925.9L318.679 925.921L316.162 926.016L316.292 929.475L304.431 926.249L316.019 922.243L316.154 925.807L318.671 925.712L319.246 925.69L321.764 925.595L321.625 921.926L321.103 908.089L320.964 904.421L318.447 904.516L317.872 904.537L315.355 904.632ZM695.304 894.07L695.446 897.843L695.961 911.471L695.965 911.575L696.103 915.244L696.107 915.349L696.621 928.976L696.625 929.08L696.764 932.749L696.768 932.854L697.282 946.481L697.421 950.15L699.938 950.055L700.513 950.033L703.03 949.938L702.892 946.269L702.868 945.64L758.102 943.555L758.126 944.184L758.265 947.853L760.782 947.758L761.357 947.736L763.874 947.641L763.736 943.973L763.221 930.345L763.218 930.241L763.079 926.572L763.075 926.467L762.561 912.84L762.557 912.736L762.418 909.067L762.414 908.962L761.9 895.335L761.758 891.562L759.24 891.657L758.665 891.678L756.148 891.773L756.29 895.547L756.31 896.071L701.076 898.156L701.056 897.632L700.914 893.858L698.396 893.953L697.821 893.975L695.304 894.07ZM260.757 923.594L269.271 925.897L260.955 928.835L260.888 927.053L260.821 925.271L260.757 923.594ZM701.547 910.63L756.781 908.545L756.805 909.174L756.809 909.279L756.947 912.947L756.951 913.052L756.971 913.576L701.737 915.661L701.717 915.137L701.713 915.032L701.574 911.363L701.57 911.259L701.547 910.63ZM289.714 931.318L316.64 938.7L316.668 939.434L316.696 940.167L316.811 943.207L316.834 943.836L261.6 945.921L261.477 942.672L261.434 941.519L261.426 941.309L289.714 931.318ZM702.207 928.135L757.442 926.051L757.465 926.679L757.469 926.784L757.608 930.453L757.612 930.558L757.632 931.082L702.397 933.167L702.378 932.642L702.374 932.538L702.235 928.869L702.231 928.764L702.207 928.135ZM335.065 1031.85L332.975 1033.71L332.487 1034.15L330.329 1036.12L331.746 1039.32L331.982 1039.84L285.682 1082.11L285.443 1081.49L284.03 1078.39L281.939 1080.25L281.452 1080.69L279.293 1082.66L280.711 1085.86L285.832 1097.53L285.836 1097.64L287.25 1100.73L292.372 1112.4L293.789 1115.6L293.793 1115.71L298.915 1127.38L300.332 1130.58L303.721 1138.32L305.138 1141.52L307.225 1139.55L307.712 1139.11L309.871 1137.14L308.457 1134.05L308.377 1133.84L331.305 1119.22L311.922 1141.9L311.771 1141.69L310.425 1138.49L308.267 1140.46L307.851 1140.89L305.689 1142.76L307.106 1145.96L312.228 1157.63L313.574 1160.83L315.732 1158.86L316.148 1158.43L318.306 1156.46L316.893 1153.36L316.497 1152.43L362.029 1099.38L363.828 1097.42L362.567 1094.53L361.936 1093.08L360.75 1090.3L358.712 1091.63L304.988 1126.1L304.521 1125.17L303.415 1122.59L349.714 1080.32L349.95 1080.84L351.295 1084.04L353.454 1082.07L353.941 1081.63L356.028 1079.66L354.682 1076.46L349.56 1064.79L349.485 1064.69L348.143 1061.59L343.021 1049.92L341.604 1046.72L341.6 1046.61L336.478 1034.95L335.065 1031.85ZM685.831 1032.36L684.659 1035.66L680.432 1047.68L679.26 1050.98L681.553 1052.57L682.072 1052.97L684.373 1054.78L685.477 1051.59L685.741 1050.95L735.302 1089.38L735.106 1089.92L733.934 1093.21L736.231 1094.91L736.75 1095.31L738.983 1097.22L740.155 1093.92L744.383 1081.9L745.559 1078.71L743.258 1076.91L742.739 1076.51L740.514 1074.81L739.338 1078L739.142 1078.53L689.581 1040.09L689.776 1039.56L690.876 1036.27L688.651 1034.56L688.136 1034.27L685.831 1032.36ZM336.632 1050.48L336.868 1050.99L336.872 1051.1L337.343 1052.13L338.209 1054.09L338.285 1054.19L338.525 1054.81L292.225 1097.08L291.986 1096.46L290.573 1093.36L290.565 1093.15L290.333 1092.74L336.632 1050.48ZM343.171 1065.35L343.407 1065.86L343.411 1065.97L344.828 1069.17L345.064 1069.68L298.764 1111.95L298.529 1111.43L298.453 1111.33L297.108 1108.13L296.872 1107.61L343.171 1065.35ZM674.632 1063.86L673.592 1066.83L673.072 1068.32L672.101 1071.2L673.902 1073.12L722.603 1125.03L722.355 1126.09L721.183 1129.39L723.404 1130.98L723.927 1131.49L726.228 1133.29L727.404 1130.1L730.516 1120.95L731.764 1117.76L729.391 1115.96L728.872 1115.56L726.715 1113.75L725.543 1117.05L725.475 1117.15L704.687 1094.95L728.407 1108.96L728.267 1109.07L727.167 1112.36L729.396 1114.17L729.915 1114.57L732.212 1116.27L733.392 1113.18L737.547 1101.16L738.719 1097.86L736.423 1096.16L735.899 1095.66L733.599 1093.86L732.495 1097.05L732.243 1098L676.774 1065.24L674.632 1063.86ZM401.721 1151.1L400.621 1154.4L400.361 1155.14L399.185 1158.34L401.486 1160.14L401.858 1160.44L376.884 1231.5L376.512 1231.2L374.215 1229.51L373.111 1232.7L372.851 1233.44L371.68 1236.74L373.98 1238.54L382.292 1245.05L384.593 1246.85H384.665L392.977 1253.36L394.167 1254.37L394.463 1254.56L400.774 1259.58L403.071 1261.27L404.247 1258.08L404.507 1257.33L405.607 1254.04L403.378 1252.23L403.234 1252.24L417.741 1222.51L409.018 1256.64L408.798 1256.54L406.569 1254.74L405.397 1258.04L405.137 1258.78L404.037 1262.08L406.262 1263.78L414.65 1270.39L416.875 1272.09L418.051 1268.9L418.311 1268.15L419.411 1264.86L417.182 1263.05L416.515 1262.55L437.189 1182.52L437.938 1179.44L435.933 1177.84L434.894 1177.04L432.893 1175.54L431.621 1178.11L397.666 1247.83L397.442 1247.63L395.513 1246.13L395.142 1245.83L420.116 1174.76L420.487 1175.06L422.712 1176.76L423.888 1173.57L424.148 1172.83L425.32 1169.53L423.019 1167.72L414.707 1161.21L414.631 1161.11L414.04 1160.72L412.406 1159.41L412.335 1159.42L404.022 1152.91L401.721 1151.1ZM409.427 1166.35L409.798 1166.65L412.099 1168.45H412.171L412.546 1168.85L387.572 1239.92L387.201 1239.62L387.125 1239.52L384.824 1237.71L384.457 1237.52L409.427 1166.35ZM614.221 1159.67L612.271 1161.42L611.296 1162.3L609.489 1164.04L610.391 1166.95L635.581 1246.62L634.957 1247.27L632.799 1249.24L634.212 1252.34L634.528 1253.06L635.873 1256.26L638.031 1254.29L643.947 1248.82L646.109 1246.96L644.692 1243.76L644.376 1243.03L643.031 1239.83L640.873 1241.8L640.805 1241.91L630.09 1207.99L646.165 1236.98L646.025 1237.09L643.938 1239.06L645.284 1242.26L645.599 1242.99L647.012 1246.08L649.103 1244.22L656.896 1237L659.059 1235.13L657.641 1231.93L657.326 1231.21L655.981 1228L653.822 1229.97L653.267 1230.52L615.619 1162.34L614.221 1159.67ZM499.899 1202.93L500.041 1206.7L500.073 1207.54L500.211 1211.21L502.8 1211.11L503.232 1211.09L506.287 1292.02L505.855 1292.03L503.266 1292.13L503.404 1295.8L503.436 1296.64L503.575 1300.31L506.164 1300.21L514.578 1299.89L515.441 1299.86L517.095 1299.8L518.03 1299.76L524.215 1299.53L526.805 1299.43L526.666 1295.76L526.634 1294.92L526.496 1291.26L523.907 1291.35L523.835 1291.36L525.978 1254.64L530.236 1291.11L530.02 1291.12L527.503 1291.22L527.641 1294.89L527.673 1295.72L527.812 1299.39L530.329 1299.3L539.678 1298.95L542.196 1298.85L542.057 1295.18L542.025 1294.34L541.887 1290.67L539.37 1290.77L538.651 1290.8L528.865 1205.19L528.523 1201.85L526.222 1201.93L525.071 1201.98L522.841 1202.06L522.676 1205.32L517.578 1291.59L516.787 1291.62L515.133 1291.68L514.773 1291.7L511.719 1210.77L512.078 1210.76L514.668 1210.66L514.529 1206.99L514.497 1206.16L514.355 1202.38L511.766 1202.48L502.488 1202.83L499.899 1202.93Z" fill="url(#paint1_linear_6_113)"/>
</g>
<path d="M468.057 534.451L464.094 535.219L465.388 547.031L465.776 550.587C467.095 550.319 468.425 550.064 469.744 549.826L469.354 546.27L468.057 534.451Z" fill="#010101"/>
<path d="M440.277 541.707L436.394 543.07L438.521 554.605L439.162 558.084C440.456 557.622 441.74 557.147 443.039 556.699L442.403 553.212L440.277 541.707Z" fill="#010101"/>
<path d="M413.255 553.175L409.505 555.134L412.422 566.283L413.312 569.662C414.552 568.994 415.807 568.342 417.058 567.707L416.176 564.318L413.255 553.175Z" fill="#010101"/>
<path d="M387.276 568.743L383.705 571.276L387.399 581.96L388.514 585.199C389.704 584.345 390.903 583.51 392.098 582.679L390.973 579.447L387.276 568.743Z" fill="#010101"/>
<path d="M339.615 611.501L336.504 615.089L341.638 624.539L343.186 627.386C344.214 626.181 345.25 624.98 346.297 623.795L344.747 620.951L339.615 611.501Z" fill="#010101"/>
<path d="M318.437 638.213L315.607 642.267L321.387 650.92L323.126 653.521C324.066 652.162 325.017 650.816 325.969 649.48L324.23 646.879L318.437 638.213Z" fill="#010101"/>
<path d="M299.356 668.106L296.835 672.571L303.184 680.323L305.1 682.659C305.931 681.157 306.766 679.654 307.616 678.17L305.707 675.848L299.356 668.106Z" fill="#010101"/>
<path d="M282.57 700.84L280.395 705.682L287.227 712.424L289.288 714.459C290.005 712.833 290.737 711.22 291.472 709.62L289.406 707.585L282.57 700.84Z" fill="#010101"/>
<path d="M256.605 773.389L255.183 778.831L262.747 783.359L265.037 784.734C265.51 782.915 265.974 781.101 266.464 779.292L264.169 777.924L256.605 773.389Z" fill="#010101"/>
<path d="M256.872 822.427C257.205 820.547 257.544 818.656 257.902 816.792L255.531 815.773L247.709 812.413L246.684 818.045L254.499 821.405L256.872 822.427Z" fill="#010101"/>
<path d="M251.491 861.3C251.685 859.361 251.903 857.441 252.121 855.515L249.693 854.871L241.674 852.711L241.075 858.498L249.063 860.645L251.491 861.3Z" fill="#010101"/>
<path d="M248.965 900.913C249.022 898.952 249.094 897.001 249.168 895.05L246.719 894.766L238.582 893.824L238.393 899.686L246.511 900.616L248.965 900.913Z" fill="#010101"/>
<path d="M252.377 980.539C252.157 978.599 251.943 976.659 251.745 974.708L249.315 975.169L241.289 976.735L241.931 982.555L249.959 981.003L252.377 980.539Z" fill="#010101"/>
<path d="M258.297 1019.73C257.939 1017.82 257.572 1015.92 257.233 1014.02L254.868 1014.85L247.051 1017.62L248.108 1023.33L255.929 1020.56L258.297 1019.73Z" fill="#010101"/>
<path d="M265.518 1052.37L263.233 1053.57L255.696 1057.52L257.16 1063.05L264.684 1059.12L266.972 1057.92C266.473 1056.06 265.993 1054.23 265.518 1052.37Z" fill="#010101"/>
<path d="M274.315 1090.9L267.114 1096L268.955 1101.3L276.135 1096.2L278.313 1094.66C277.695 1092.89 277.096 1091.13 276.492 1089.36L274.315 1090.9Z" fill="#010101"/>
<path d="M304.056 1159.8L297.759 1167.05L300.294 1171.7L306.594 1164.46L308.493 1162.28C307.644 1160.72 306.789 1159.18 305.953 1157.61L304.056 1159.8Z" fill="#010101"/>
<path d="M322.386 1190.62L316.644 1198.82L319.497 1203.08L325.224 1194.89L326.96 1192.42C325.999 1191.01 325.057 1189.57 324.114 1188.14L322.386 1190.62Z" fill="#010101"/>
<path d="M342.738 1218.59L337.636 1227.66L340.769 1231.46L345.872 1222.38L347.408 1219.66C346.365 1218.39 345.313 1217.13 344.275 1215.85L342.738 1218.59Z" fill="#010101"/>
<path d="M364.917 1243.38L360.515 1253.2L363.887 1256.5L368.285 1246.71L369.615 1243.76C368.49 1242.65 367.365 1241.55 366.25 1240.42L364.917 1243.38Z" fill="#010101"/>
<path d="M413.752 1282.41L410.878 1293.34L414.629 1295.57L417.499 1284.64L418.376 1281.32C417.12 1280.6 415.868 1279.86 414.62 1279.09L413.752 1282.41Z" fill="#010101"/>
<path d="M439.892 1296.17L437.831 1307.51L441.703 1309.15L443.768 1297.84L444.398 1294.39C443.105 1293.84 441.809 1293.29 440.52 1292.73L439.892 1296.17Z" fill="#010101"/>
<path d="M466.789 1305.86L465.556 1317.52L469.514 1318.58L470.751 1306.95L471.127 1303.43C469.798 1303.08 468.486 1302.7 467.165 1302.32L466.789 1305.86Z" fill="#010101"/>
<path d="M494.149 1311.4L493.754 1323.26L497.754 1323.72L498.157 1311.87L498.275 1308.28C496.94 1308.15 495.599 1307.98 494.272 1307.81L494.149 1311.4Z" fill="#010101"/>
<path d="M552.627 1305.64C551.307 1305.9 549.989 1306.16 548.666 1306.39L549.058 1309.96L550.363 1321.75L554.308 1320.97L553.015 1309.19L552.627 1305.64Z" fill="#010101"/>
<path d="M579.241 1298.14C577.952 1298.6 576.665 1299.07 575.371 1299.52L576.014 1303.02L578.138 1314.53L582 1313.14L579.885 1301.63L579.241 1298.14Z" fill="#010101"/>
<path d="M605.094 1286.56C603.856 1287.23 602.604 1287.88 601.351 1288.5L602.246 1291.9L605.166 1303.04L608.892 1301.06L605.98 1289.94L605.094 1286.56Z" fill="#010101"/>
<path d="M629.887 1271.03C628.704 1271.88 627.509 1272.71 626.315 1273.54L627.44 1276.79L631.134 1287.46L634.688 1284.92L631.014 1274.28L629.887 1271.03Z" fill="#010101"/>
<path d="M675.223 1228.84C674.197 1230.03 673.161 1231.24 672.12 1232.41L673.668 1235.26L678.804 1244.7L681.898 1241.12L676.771 1231.7L675.223 1228.84Z" fill="#010101"/>
<path d="M695.286 1202.7C694.351 1204.06 693.403 1205.4 692.455 1206.72L694.199 1209.33L699.986 1217.99L702.79 1213.94L697.032 1205.31L695.286 1202.7Z" fill="#010101"/>
<path d="M713.306 1173.57C712.482 1175.07 711.644 1176.56 710.796 1178.03L712.705 1180.36L719.056 1188.11L721.558 1183.63L715.221 1175.89L713.306 1173.57Z" fill="#010101"/>
<path d="M729.123 1141.78C728.41 1143.39 727.675 1144.99 726.945 1146.6L729.006 1148.62L735.845 1155.37L738.006 1150.53L731.184 1143.8L729.123 1141.78Z" fill="#010101"/>
<path d="M753.373 1071.49C752.911 1073.3 752.443 1075.12 751.956 1076.92L754.252 1078.29L761.814 1082.83L763.218 1077.39L755.665 1072.87L753.373 1071.49Z" fill="#010101"/>
<path d="M761.538 1033.79C761.213 1035.68 760.871 1037.55 760.52 1039.42L762.891 1040.44L770.705 1043.78L771.701 1038.16L763.913 1034.8L761.538 1033.79Z" fill="#010101"/>
<path d="M766.925 994.916C766.726 996.845 766.513 998.761 766.292 1000.68L768.714 1001.34L776.735 1003.49L777.326 997.725L769.349 995.577L766.925 994.916Z" fill="#010101"/>
<path d="M769.45 955.308C769.395 957.272 769.328 959.22 769.252 961.171L771.698 961.438L779.829 962.37L780.003 956.539L771.899 955.606L769.45 955.308Z" fill="#010101"/>
<path d="M766.033 875.668C766.251 877.608 766.467 879.548 766.669 881.482L769.095 881.017L777.135 879.461L776.464 873.658L768.453 875.2L766.033 875.668Z" fill="#010101"/>
<path d="M760.118 836.499C760.472 838.39 760.839 840.284 761.178 842.196L763.541 841.344L771.364 838.573L770.286 832.904L762.48 835.661L760.118 836.499Z" fill="#010101"/>
<path d="M752.887 803.832L755.179 802.633L762.713 798.674L761.242 793.167L753.728 797.099L751.443 798.297C751.934 800.132 752.418 801.978 752.887 803.832Z" fill="#010101"/>
<path d="M744.091 765.301L751.298 760.189L749.449 754.917L742.273 760.002L740.084 761.539C740.706 763.299 741.31 765.077 741.911 766.848L744.091 765.301Z" fill="#010101"/>
<path d="M711.813 691.753L709.915 693.934C710.764 695.474 711.618 697.024 712.449 698.591L714.355 696.403L720.654 689.145L718.112 684.515L711.813 691.753Z" fill="#010101"/>
<path d="M693.177 661.324L691.449 663.787C692.406 665.192 693.347 666.631 694.286 668.064L696.014 665.587L701.764 657.365L698.908 653.133L693.177 661.324Z" fill="#010101"/>
<path d="M672.535 633.819L670.997 636.545C672.045 637.808 673.09 639.069 674.127 640.343L675.661 637.618L680.771 628.534L677.639 624.752L672.535 633.819Z" fill="#010101"/>
<path d="M650.119 609.502L648.788 612.455C649.912 613.558 651.035 614.678 652.156 615.794L653.483 612.845L657.899 603.011L654.517 599.709L650.119 609.502Z" fill="#010101"/>
<path d="M626.147 588.673L625.042 591.818C626.243 592.744 627.431 593.693 628.62 594.646L629.727 591.497L633.39 581.029L629.803 578.259L626.147 588.673Z" fill="#010101"/>
<path d="M600.897 571.568L600.028 574.882C601.278 575.621 602.534 576.36 603.778 577.126L604.653 573.808L607.519 562.87L603.775 560.64L600.897 571.568Z" fill="#010101"/>
<path d="M574.637 558.373L574.009 561.816C575.306 562.355 576.597 562.914 577.891 563.49L578.513 560.05L580.584 548.682L576.706 547.052L574.637 558.373Z" fill="#010101"/>
<path d="M547.649 549.274L547.275 552.791C548.597 553.131 549.918 553.508 551.239 553.888L551.616 550.363L552.855 538.681L548.895 537.638L547.649 549.274Z" fill="#010101"/>
<path d="M521.102 566.99L520.981 570.559C522.319 570.7 523.655 570.861 524.996 571.026L525.11 567.451L525.5 555.555L521.505 555.121L521.102 566.99Z" fill="#010101"/>
<path d="M764.513 916.319C768.511 1022.24 630.91 931.651 499.987 933.922C375.481 936.086 257.541 1036.32 253.739 935.599C245.94 728.96 353.958 557.125 495.003 551.801C636.048 546.477 756.713 709.681 764.513 916.319Z" fill="url(#paint2_linear_6_113)"/>
</g>
<path d="M991 361C989.855 369.885 984.5 383 984.5 383C984.5 383 1017.54 475.094 1048 529.5C1053.3 538.967 1056.44 544.18 1062 553.5C1067.38 562.532 1067.48 570.343 1076 576.5C1079.54 579.056 1081.64 581.266 1086 581.5C1090.89 581.762 1092.61 576.209 1097.5 576.5C1102.85 576.819 1104.45 581.163 1109 584C1116.28 588.536 1128 595 1128 595C1128 595 1152.04 589.231 1165.5 595C1173.4 598.387 1177.13 602.12 1183.11 608.105L1183.5 608.5C1187.62 612.622 1188.39 616.436 1193 620C1197.91 623.796 1201.61 624.544 1207.5 626.5C1216.15 629.373 1221.42 629.689 1230.5 630.5C1240.22 631.368 1245.89 632.25 1255.5 630.5C1268.82 628.073 1273.91 619.479 1287 616C1293.52 614.268 1297.41 611.592 1304 613C1310.73 614.437 1311.93 620.97 1318.5 623C1327.52 625.787 1333.13 621.215 1342.5 620C1354.03 618.504 1360.57 618.131 1372 616C1384.24 613.717 1391.28 612.708 1403 608.5C1419.28 602.655 1442 587.5 1442 587.5C1442 587.5 1424.7 587.053 1414 584.5C1397.94 580.665 1389.3 576.071 1375.5 567C1360.84 557.362 1353.63 550.064 1342.5 536.5C1331.05 522.549 1327.14 512.847 1318.5 497C1308.76 479.134 1301.64 469.551 1296 450C1288.73 424.804 1291.5 383 1291.5 383C1291.5 383 1288.64 336.462 1280.5 308C1277.21 296.482 1276.12 289.578 1270.5 279C1265.77 270.101 1262.54 265.208 1255.5 258C1244.29 246.527 1235.81 241.298 1220.5 236.5C1206.67 232.164 1183.5 233.5 1183.5 233.5C1183.5 233.5 1178.52 222.346 1172 220C1165.05 217.496 1160.53 221.719 1153.5 224C1137.92 229.053 1132.93 240.018 1117.5 245.5C1109.91 248.195 1105.47 249.359 1097.5 250.5C1086.48 252.078 1080.02 248.944 1069 250.5C1058.35 252.004 1052.35 253.692 1042.5 258C1034 261.716 1028.92 263.823 1022 270C1015.56 275.747 1012.99 280.127 1008.5 287.5C1003.91 295.037 1002.06 299.723 999 308C994.209 320.974 992.078 328.712 991 342.5C990.437 349.703 991.923 353.835 991 361Z" fill="black"/>
<path d="M1166 367.5C1164.32 352.627 1156.36 345.463 1156 330.5C1155.79 321.856 1155.99 316.775 1158.5 308.5C1160.5 301.896 1166 292.5 1166 292.5C1166 292.5 1161.78 306.693 1162 316C1162.2 324.154 1164.29 328.524 1166 336.5C1169.92 354.839 1178.34 364.249 1178 383C1177.86 390.676 1177.07 394.984 1175.5 402.5L1175.4 402.995C1174.01 409.65 1173.18 413.603 1170.5 420C1166.46 429.64 1156 442.5 1156 442.5L1152 464.5L1156 487L1142 464.5V450L1152 426C1152 426 1163.41 408.666 1166 396C1168.23 385.096 1167.25 378.56 1166 367.5Z" fill="white"/>
<path d="M724.5 398L822 427V471.5L768.5 458.5L701 435L724.5 398Z" fill="white"/>
<path d="M881.5 412L867.5 404.5L845.5 398L799 404.5H712L644.5 384H631.5" stroke="black" stroke-width="5"/>
<path d="M855 470.5H822.5C822.5 470.5 790.353 460.1 769 458C753.065 456.433 718.341 439.83 702.5 437.5" stroke="black" stroke-width="7"/>
<path d="M893.5 608L882.5 649.5L893.5 712.5L882.5 772L683.5 684.5L738.5 626.5L792 567.5L807 540.5L816.5 511L801.5 498.5L792 474.5L801.5 445.5L816.5 431L848 419L931.5 406L994 385L1045 352.5L1081 373.5L1089.5 406L1045 427H1075.5L1097.5 455.5L1068 502.5L1032 521.5L994 540.5L966.5 572H939L893.5 608Z" fill="white"/>
<path d="M889.5 749C889.5 749 894.399 726.274 894.5 711.5C894.663 687.605 877.903 674.949 882.5 651.5C885.592 635.732 890.883 619.873 900.5 607C918.426 583.004 960.5 569.5 960.5 569.5C960.5 569.5 982.425 551.329 996 540C1020.61 519.465 1069 502.5 1069 502.5L1097 456L1078.5 428H1045.5L1089 406.5C1089 406.5 1089.94 385.422 1083.5 374.5C1074.74 359.644 1045.5 352 1045.5 352C1045.5 352 1016.76 374.566 996 385C972.773 396.675 958.24 400.277 933 406.5C901.63 414.235 851 417.5 851 417.5C851 417.5 828.886 420.363 817.5 428C807.857 434.468 801.445 439.08 797.5 450C793.984 459.733 796.268 466.225 797.5 476.5C799.118 490.002 805.53 496.481 807 510C807.95 518.735 808.146 523.788 807 532.5C805.421 544.5 802.964 551.2 797.5 562C790.534 575.769 773 593 773 593L705 662" stroke="black" stroke-width="5"/>
<path d="M1329 394.5L1295 403.5L1278.5 431.5L1286.5 445.5L1307.5 454.5C1307.5 454.5 1341.06 459.362 1363.5 458.5C1412.85 456.605 1464.5 439 1464.5 439L1508.5 445.5H1528.5L1537.5 416.5H1490.5L1417 409L1368.5 399.5L1329 394.5Z" fill="white"/>
<path d="M1288.5 451.5C1288.5 451.5 1308.16 456.609 1321 458.5C1349.4 462.682 1365.87 460.591 1394.5 458.5C1431.03 455.831 1451.37 434.494 1487 443C1496.67 445.309 1515 448.5 1515 448.5" fill="white"/>
<path d="M1292 401.5C1292 401.5 1304.9 399.286 1317 396.5C1357.83 387.098 1386.38 402.751 1428 407.5C1457.98 410.921 1474.83 413.256 1505 414C1517.49 414.308 1537 414 1537 414" fill="white"/>
<path d="M1288.5 451.5C1288.5 451.5 1308.16 456.609 1321 458.5C1349.4 462.682 1365.87 460.591 1394.5 458.5C1431.03 455.831 1451.37 434.494 1487 443C1496.67 445.309 1515 448.5 1515 448.5M1292 401.5C1292 401.5 1304.9 399.286 1317 396.5C1357.83 387.098 1386.38 402.751 1428 407.5C1457.98 410.921 1474.83 413.256 1505 414C1517.49 414.308 1537 414 1537 414M1329 394.5L1295 403.5L1278.5 431.5L1286.5 445.5L1307.5 454.5C1307.5 454.5 1341.06 459.362 1363.5 458.5C1412.85 456.605 1464.5 439 1464.5 439L1508.5 445.5H1528.5L1537.5 416.5H1490.5L1417 409L1368.5 399.5L1329 394.5Z" stroke="black" stroke-width="6"/>
<path d="M1535.5 413.5L1554 425L1579 463L1589.5 470L1604 475.5H1613.5L1626.5 478L1641.5 487L1649.5 492L1623 481.5L1598 488.5L1600.5 492L1617 506L1630 528.5L1635 542.5L1617 520.5L1604 511L1587.5 503L1609 522.5L1613.5 556L1605.5 533.5L1577.5 511V523L1573 531.5L1562 537L1532.5 547L1556 531.5L1564.5 524.5V508L1547 490L1539 488.5L1535.5 492V520.5L1532.5 530L1526 537L1522.5 511V506L1516 495V483V472.5V456L1514 450.5" stroke="black" stroke-width="6"/>
<path d="M1566.5 448.5L1552.5 427.5L1537.5 416.5L1521 421L1514.5 438.5L1518 451.5L1519.5 463L1518 484.5L1519.5 496L1524.5 504.5L1528.5 531L1534 522L1533 500.5V491L1537.5 484.5L1548.5 487L1566.5 507L1567.25 515.75L1568 524.5L1556.5 535.5L1568 532.5L1574.5 523V514.5V504.5L1607.5 532.5V524.5L1586 504.5L1587.5 500.5L1605.5 509.5L1623.5 523L1614 507L1597.5 492.5L1595.5 487L1614 482.5L1622 479L1603.5 477.5L1587.5 472.5L1577.5 466L1566.5 448.5Z" fill="white"/>
<path d="M1078.5 422.5C1068.85 423.4 1062.5 421.832 1054 426.5C1047.34 430.157 1043.52 433.27 1040 440C1034.84 449.863 1036.86 457.822 1040 468.5C1044.46 483.659 1051.58 493.031 1066 499.5C1079.54 505.576 1104 499.5 1104 499.5C1104 499.5 1129.29 488.778 1146.5 487C1156.21 485.997 1161.75 487.58 1171.5 487C1184.29 486.238 1191.51 485.36 1204 482.5C1216.4 479.66 1223.06 476.888 1235 472.5C1257.15 464.362 1272.81 461.381 1294 451C1299.88 448.118 1310.5 451 1310.5 451L1305 422.5L1294 402.5L1279 406.5C1279 406.5 1238.83 423.488 1211.5 426.5C1194.61 428.361 1184.99 426.5 1168 426.5C1155.7 426.5 1148.8 426.798 1136.5 426.5C1113.8 425.951 1101.11 420.392 1078.5 422.5Z" fill="white"/>
<path d="M1146.5 249.5C1152.52 248.881 1162 249.5 1162 249.5C1162 249.5 1147.01 261.96 1142.5 273C1138.85 281.948 1139.73 287.862 1139 297.5C1138.18 308.404 1136.81 314.786 1139 325.5C1141.26 336.553 1146.07 341.626 1150.5 352C1155.66 364.072 1163.5 383 1163.5 383L1156.5 389C1156.5 389 1132.06 398.991 1115.5 401C1103.29 402.481 1096.13 403.061 1084 401C1070.66 398.733 1063.11 395.947 1051.5 389C1043.62 384.286 1036.71 382.898 1033 374.5C1028.41 364.094 1034.43 356.799 1038 346C1042.96 330.992 1048.12 322.725 1057.5 310C1065.04 299.771 1070.26 294.654 1080 286.5C1086.98 280.659 1099 273 1099 273C1099 273 1125.91 251.615 1146.5 249.5Z" fill="white" stroke="black" stroke-width="5"/>
<path d="M1069 331C1069 331 1068.48 339.082 1067 344C1065.96 347.437 1064.6 349.024 1065.5 352.5C1066.26 355.441 1067.16 355.586 1069 358C1071.28 360.985 1070.44 363.317 1073.5 365.5C1075.66 367.044 1077.55 367.481 1080 368.5C1083.56 369.977 1085.18 371.544 1088.5 373.5C1092.8 376.034 1099.5 380 1099.5 380L1094 371C1094 371 1089 366.104 1088 362C1087.31 359.154 1089.51 357.012 1088 354.5C1086.69 352.317 1083.51 353.339 1082.5 351C1082.5 351 1084.04 347.388 1083 345.5C1081.95 343.588 1078 343 1078 343C1078 343 1074.94 341.901 1073.5 340.5C1073.5 340.5 1071.83 338.146 1071 336.5C1069.98 334.457 1069 331 1069 331Z" fill="black"/>
<path d="M1090.5 349C1092.84 351.591 1100.5 352.5 1100.5 352.5V351C1100.5 348 1094.8 347.448 1094 346C1092.58 343.44 1094 338.5 1094 338.5C1094 338.5 1093.16 335.231 1091.5 335C1090.2 334.82 1087.39 340.5 1088.5 338.5C1090.3 335.259 1088.5 344.5 1088.5 344.5C1088.5 344.5 1089.56 347.956 1090.5 349Z" fill="black"/>
<path d="M1138.5 350.5C1136.75 346.675 1134 340 1134 340C1134 340 1132.86 344.535 1132.5 347.5C1131.94 352.152 1131.15 355.011 1132.5 359.5C1133.76 363.703 1135.11 366.209 1138.5 369C1141.61 371.561 1144.02 372.384 1148 373C1150.51 373.388 1154.5 373 1154.5 373C1154.5 373 1150.16 368.904 1148 367C1145.68 364.961 1142.63 360.122 1141 357.5C1138.56 353.569 1140.43 354.709 1138.5 350.5Z" fill="black"/>
<path d="M1102.5 287C1104.35 283.605 1109.5 280 1109.5 280C1109.5 280 1109.84 286.241 1109.5 288.5C1108.9 292.437 1110.63 295.261 1112 299C1113.38 302.775 1115.6 303.278 1118 306.5C1119.74 308.826 1121.37 309.598 1123 312C1123.64 312.942 1124.5 314.5 1124.5 314.5V315.5C1124.5 315.5 1120.02 316.556 1118 315.5C1114.82 313.835 1112.48 314.007 1109.5 312C1106.18 309.76 1104.33 308.065 1102.5 304.5C1101.2 301.97 1100.76 300.332 1100.5 297.5C1100.12 293.343 1100.5 290.666 1102.5 287Z" fill="black"/>
<path d="M686 747C697.492 713.151 705 692 705 692C705 692 774.805 676.096 814.5 692C849.574 706.053 887.5 755.5 887.5 755.5C887.5 755.5 882.416 817.4 867.5 853.5C852.796 889.088 838.315 906.556 813.5 936C794.102 959.017 811.281 973.977 792.5 997.5C781.551 1011.21 792.5 1027 792.5 1027C792.5 1027 781.055 1057.29 780.5 1077C779.828 1100.86 777.011 1116.03 770.5 1139C756.96 1186.76 719 1286.5 719 1286.5L639 1381L622.5 1462L598 1500L550 1524H509.5L538.5 1460.5L564 1400.5L613 1277.5L637.5 1155L650.5 1027C650.5 1027 662.517 966.238 675 932.5C686.057 902.618 677.32 877.157 686 846.5C696.479 809.493 673.635 783.42 686 747Z" fill="white" stroke="white" stroke-width="5"/>
<path d="M615 1424C622.165 1416.14 637.5 1404 637.5 1404L626.5 1459.5C626.5 1459.5 614.543 1487.83 600.5 1501C586.043 1514.56 555 1523.5 555 1523.5C555 1523.5 508.632 1543.94 506.5 1526.5C506.239 1524.37 506.5 1520 506.5 1520L534.5 1467C534.5 1467 530.791 1487.09 538.5 1495C550.875 1507.7 579.5 1475.5 579.5 1475.5C579.5 1475.5 598.54 1442.05 615 1424Z" fill="black"/>
<path d="M509 1520.5L534 1468.5L611.5 1275L632.5 1155" stroke="black" stroke-width="4"/>
<path d="M989.5 731C964.912 705.272 961.505 680.806 933 659.5C925.191 653.663 921.155 649.351 912 646C902.037 642.353 885 643 885 643C885 643 889.735 618.084 898.5 605C913.895 582.019 938.336 586.811 959.5 569C974.827 556.101 994.5 531.5 994.5 531.5C994.5 531.5 975.262 477.339 948.5 455C929.729 439.332 916.514 431.602 892.5 427C875.816 423.803 858.656 417.161 842 420.5C827.636 423.379 819.853 426.135 809.5 436.5C799.404 446.608 796.774 448.716 796.5 463C796.212 478.012 809.5 513 809.5 513L800.5 564L746 619.5L685.5 687.5L649.5 762L615.5 897.5L649.5 1022C649.5 1022 712.464 1140.17 695 1216C688.302 1245.08 674.451 1258.03 665.5 1286.5C656.69 1314.52 649.5 1360 649.5 1360C649.5 1360 664.96 1356.37 671.5 1362C676.75 1366.52 676.382 1371.77 678 1378.5C681.335 1392.38 676 1415 676 1415L674 1441.5C674 1441.5 674.699 1467.56 684 1480C689.643 1487.55 694.024 1491.38 702.5 1495.5C709.91 1499.1 714.771 1500.07 723 1500.5C742.229 1501.51 749.98 1486.77 768.5 1481.5C779.44 1478.39 786.219 1479.13 797 1475.5C811.404 1470.66 831.5 1457.5 831.5 1457.5C831.5 1457.5 854.268 1441.08 868 1429.5C881.625 1418.01 901.5 1398.5 901.5 1398.5L928.5 1372C928.5 1372 938.426 1377.77 945.5 1379C957.916 1381.16 965.18 1376.37 977 1372C1006.01 1361.28 1015.93 1343.16 1038 1321.5C1063.63 1296.36 1074.6 1279.05 1097 1251C1125.8 1214.93 1168 1156.5 1168 1156.5L1213 1101L1262.5 1046L1325 980.5L1394.5 919.5C1394.5 919.5 1390.44 915.012 1387.5 912.5C1375.92 902.604 1362.84 907.664 1351.5 897.5C1343.99 890.774 1338.6 886.357 1336.5 876.5C1335.4 871.344 1335.67 868.206 1336.5 863C1337.55 856.41 1339.67 853.042 1342.5 847C1351.85 827.056 1365.27 821.222 1379 804C1409.63 765.589 1424.55 742.216 1450.5 700.5C1473.59 663.378 1505.5 603 1505.5 603L1525 562C1525 562 1531.01 551.466 1525 546.5C1512.35 536.049 1509.52 566.913 1499 579.5C1481.1 600.914 1470.26 612.287 1450.5 632C1431.33 651.128 1420.96 662.471 1399.5 679C1379.25 694.601 1366.01 700.685 1344.5 714.5C1307.49 738.27 1249.5 775 1249.5 775C1249.5 775 1223.88 789.766 1206 795.5C1180.52 803.672 1138 804 1138 804C1138 804 1114.88 803.567 1100.5 800.5C1084.07 796.997 1075.12 793.324 1060 786C1044.2 778.347 1035.84 772.797 1022 762C1008.17 751.21 1001.62 743.68 989.5 731Z" fill="url(#paint3_linear_6_113)" stroke="black"/>
<path d="M448 196.5L470.5 190L595 157C595 157 604.918 153.763 611.5 153.5C613.061 153.438 613.953 153.72 615.5 153.5C618.7 153.045 620.396 151.915 623 150C625.002 148.528 625.632 147.139 627.5 145.5C629.701 143.568 633.5 141 633.5 141C633.5 141 634.657 140.254 635 139.5C635.914 137.489 632.767 136.825 631 135.5C627.048 132.536 623.679 133.084 619 131.5C613.326 129.579 609.907 129.077 604.5 126.5C598.876 123.82 594.884 122.871 591 118C588.55 114.927 588.031 112.619 586.5 109C582.663 99.9273 580.5 84.5 580.5 84.5L572 43L565 7.99997C565 7.99997 564.242 4.69741 563 2.99997C558.965 -2.51614 552.318 2.52745 545.5 2.99997C534.611 3.75468 528.733 6.0111 518 7.99997C507.645 9.91887 501.766 10.6495 491.5 13C483.236 14.8921 478.591 15.9679 470.5 18.5C462.364 21.0461 458.052 23.2005 450 26C443.584 28.2305 437.128 25.7577 433.5 31.5C432.279 33.4322 431.387 34.7173 431.5 37C431.634 39.7093 435 43 435 43L444 74L454 106C454 106 457.66 118.347 458.5 126.5C459.26 133.881 458.5 138.08 458.5 145.5C458.5 150.967 460.047 154.256 458.5 159.5C456.83 165.162 453.296 167.103 450 172C446.855 176.672 445.859 179.897 442 184C439.054 187.132 433.951 186.724 433.5 191C433.266 193.214 433.689 194.701 435 196.5C435.898 197.732 436.627 198.337 438 199C441.625 200.75 448 196.5 448 196.5Z" fill="black"/>
<path d="M602.5 147L591 140L546.5 130L498.5 143.5L474 163.5C474 163.5 468.195 175.63 467.5 184C467.242 187.113 467.277 188.884 467.5 192C467.869 197.157 468.684 200 470 205C471.257 209.777 471.975 212.494 474 217C475.361 220.028 476.235 221.688 478 224.5C480.076 227.808 481.495 229.504 484 232.5C486.57 235.573 488.53 236.845 491 240C493.17 242.772 493.814 244.741 496 247.5C497.803 249.775 499.066 250.835 501 253C504.782 257.233 508.002 258.903 510.5 264C513.538 270.199 513 281.5 513 281.5L591 275C591 275 591 271.648 591 269.5C591 268.524 591 267 591 267C591 267 594.154 264.696 596.5 264C599.682 263.056 601.681 264 605 264C609.101 264 611.442 264.586 615.5 264C619.11 263.479 624.5 261.5 624.5 261.5C624.5 261.5 628.096 260.232 630.5 260C634.431 259.621 640.5 261.5 640.5 261.5C640.5 261.5 647.563 262.802 652 264C655.756 265.014 661.5 267 661.5 267L667.5 269.5C667.5 269.5 671.147 271.036 672 269.5C672.474 268.647 672 267 672 267C672 267 669.145 265.325 667.5 264C664.809 261.833 661.5 257.5 661.5 257.5C661.5 257.5 659.745 254.706 658.5 253C656.864 250.758 655.858 249.562 654 247.5C651.967 245.243 650.576 244.217 648.5 242C645.185 238.459 643.316 236.449 640.5 232.5C638.361 229.501 637.339 227.693 635.5 224.5C633.843 221.623 632.227 220.239 631.5 217C630.901 214.333 631.5 212.734 631.5 210C631.5 207.071 631.5 202.5 631.5 202.5C631.5 202.5 633.852 200.547 635.5 199.5C638.229 197.768 640.06 197.342 643 196C646.499 194.403 648.847 194.203 652 192C653.927 190.653 656.5 188 656.5 188C656.5 188 657.009 185.477 656.5 184C655.734 181.777 654.27 180.611 652 180C650.68 179.645 648.5 180 648.5 180H643C641.047 180 639.922 180.344 638 180C635.248 179.507 631.5 177 631.5 177C631.5 177 627.044 174.855 624.5 173C621.932 171.127 620.755 169.74 618.5 167.5C616.049 165.066 614.408 163.88 612.5 161C611.053 158.816 610.896 157.216 609.5 155C607.287 151.488 602.5 147 602.5 147Z" fill="black" stroke="black"/>
<path d="M550 892.5V807L613 729L697.5 807L688 876L676.5 960L658 1050L643.5 1134L624 1191.5H597.5L568 1180L550 1165H525.5L517 1180L507.5 1209.5L489 1247L484.5 1280L476 1322.5L484.5 1344L476 1363.5L484.5 1386.5L496 1411L507.5 1435.5L517 1454L525.5 1472L507.5 1463.5H496L489 1472L484.5 1486.5L489 1501.5L484.5 1521L471 1509.5L450 1486.5L432 1472L412 1454V1435.5V1411L399 1386.5L412 1355.5L423.5 1322.5L432 1294.5V1247L441.5 1180L432 1134V1089.5L450 1066.5L471 1050H496L517 1078H550L584.5 1066.5V1050V1037L568 969.5L550 920.5V892.5Z" fill="black"/>
<path d="M695.5 832L552.5 841.5C552.5 841.5 537.029 816.197 530.5 798.5C525.941 786.144 523.391 779.033 521.5 766C519.341 751.121 518.377 742.207 521.5 727.5C524.803 711.945 530.954 704.497 538.5 690.5C543.569 681.097 547.227 676.291 552.5 667C558.838 655.832 565.88 650.665 568 638C569.096 631.452 568 627.639 568 621C568 621 570.231 609.077 568 602C565.166 593.011 552.5 583.5 552.5 583.5C552.5 583.5 544.15 560.879 538.5 546.5C532.095 530.199 532.113 518.932 521.5 505C514.551 495.878 508.045 493.172 500 485C485.512 470.284 477.719 461.503 466 444.5C454.688 428.088 451.768 416.774 441 400C427.963 379.69 418.306 369.937 404 350.5C392.98 335.527 387.474 326.628 376 312C360.196 291.853 333 262.5 333 262.5L367 182L387 197.5L424 234.5L449 262.5L512 329V312V290V262.5H581.5L592.5 276C592.5 276 589.938 302.21 600.5 312L614 319.5C614 319.5 637.326 328.782 653 329C669.624 329.231 677.965 321.236 694.5 319.5C708.87 317.991 717.653 315.37 731.5 319.5C743.759 323.156 748.389 330.161 759.5 336.5C769.517 342.215 774.799 346.201 785.5 350.5C799.475 356.114 808.529 355.327 823 359.5C834.451 362.802 840.553 365.685 852 369C866.284 373.137 876.734 369.593 889 378C898.26 384.346 907.5 400 907.5 400C907.5 400 908.884 443.924 889 454C876.111 460.531 866.449 454 852 454C840.675 454 834.261 455.201 823 454C807.978 452.398 785.5 444.5 785.5 444.5C785.5 444.5 769.664 438.983 759.5 435.5C745.072 430.555 722.5 423 722.5 423C722.5 423 716.805 430.183 714.5 435.5C708.753 448.757 714.5 472.5 714.5 472.5L722.5 505C722.5 505 722.5 530.293 722.5 546.5C722.5 568.174 722.5 602 722.5 602C722.5 602 716.633 630.198 714.5 648.5C709.957 687.484 714.5 749 714.5 749L695.5 832Z" fill="black"/>
<path d="M583 166.5V177C583 177 575.671 180.052 573 184C572.021 185.446 571.489 186.323 571 188C570.235 190.624 571 192.266 571 195C571 203.982 570.527 209.03 571 218C571.341 224.461 572.169 228.038 572.5 234.5C572.93 242.885 572.5 247.604 572.5 256C572.5 264.592 573.118 269.431 572.5 278C572.132 283.097 571.763 285.947 571 291C570.348 295.317 570.107 297.776 569 302C567.575 307.438 566.381 310.407 564 315.5C562.112 319.537 560.793 321.678 558.5 325.5C555.1 331.166 552.893 334.161 549 339.5C545.801 343.886 544.211 346.537 540.5 350.5C535.955 355.355 527.5 361.5 527.5 361.5L521.5 368.5L527.5 365C527.5 365 535.701 359.242 540.5 355C544.845 351.16 547.281 348.949 551 344.5C555.515 339.098 557.595 335.662 561 329.5C563.408 325.143 564.487 322.553 566.5 318C568.376 313.755 569.492 311.389 571 307C572.386 302.967 572.999 300.645 574 296.5C575.628 289.76 576.385 285.906 577 279C577.676 271.415 577 259.5 577 259.5C577 259.5 577 242.13 577 231C577 221.627 577 216.373 577 207C577 200.556 573.07 195.606 577 190.5C579.247 187.58 581.356 186.045 585 185.5C586.352 185.298 587.185 185.126 588.5 185.5C590.116 185.96 590.701 186.935 592 188C593.922 189.576 594.243 191.459 596.5 192.5C600.291 194.248 603.574 192.885 607 190.5C610.38 188.146 611.589 185.517 612.5 181.5C613.644 176.458 611.86 173.324 610 168.5C608.011 163.344 606.94 159.791 602.5 156.5C600.395 154.94 599.037 154.155 596.5 153.5C593.475 152.719 591.398 152.332 588.5 153.5C585.808 154.585 584.217 155.865 583 158.5C581.69 161.336 583 166.5 583 166.5Z" fill="white"/>
<path d="M347 272.5L367 247L375.5 218.5L397 207C397 207 380.851 186.093 367 177C349.14 165.275 335.515 165.966 315 160C289.125 152.475 273.892 150.966 248 143.5C214.061 133.713 162.5 114 162.5 114C162.5 114 137.286 112.237 131.5 123.5L129 134C129 134 128.407 147.85 130 156.5L132.5 166.5C132.5 166.5 134.426 172.975 136 177C137.401 180.582 140 186 140 186C154.471 194.302 163.94 197.48 180.5 199.5C189.028 200.54 202.961 206.047 211.5 207C226.353 208.657 248 218.5 248 218.5L273.5 232L302 247L347 272.5Z" fill="black"/>
<path d="M101.5 189.5C111.513 179.339 133 171 133 171L114.5 161C114.5 161 110.299 159.925 108 161C106.619 161.646 106.146 162.494 105 163.5C100.223 167.695 97.7011 170.331 94 175.5C90.4888 180.404 88.228 183.222 86.5 189C85.2578 193.154 84.9064 195.665 85 200C85.0943 204.365 87 211 87 211C87 211 94.3916 196.713 101.5 189.5Z" fill="white" stroke="black" stroke-width="5"/>
<path d="M102.5 135L113 161L142 185L131.5 161L129.5 142L131.5 124.5L160 116.5C160 116.5 118.74 107.678 96.5 93.5C83.4084 85.1544 79.6263 75.4408 66 68C57.694 63.4644 43.5 59 43.5 59L49 68L51 76.5L40 71H31C31 71 36.0218 78.1295 40 82C44.7024 86.5752 48.1461 88.2077 53.5 92C58.3172 95.4122 66 100.5 66 100.5L69.5 107.5C69.5 107.5 60.9671 108.412 55.5 109C48.2749 109.777 44.1696 109.816 37 111C26.0663 112.806 9.5 118 9.5 118C9.5 118 19.0316 120.694 24.5 122C31.361 123.638 34.3022 124.091 41 124.5C54.7317 125.339 59.7461 122.694 73.5 123C80.1631 123.148 84.3997 121.816 90.5 124.5C96.1997 127.008 102.5 135 102.5 135Z" fill="white" stroke="black" stroke-width="5"/>
<path d="M979.5 507.5C966.366 487.035 957.999 476.226 944.5 456C934.248 440.639 918.5 416.5 918.5 416.5L905 396C905 396 896.161 381.86 887 378C874.454 372.714 861.885 373.138 852.5 383C845.251 390.617 845.5 409 845.5 409C845.5 409 850.632 442.234 861 460.5C866.244 469.739 870.926 473.785 877 482.5C884.494 493.252 887.269 500.302 895.5 510.5C904.692 521.889 912.507 525.861 922 537C932.999 549.905 931.801 564.983 947 572.5C958.425 578.15 966.903 577.442 979.5 575.5C984.274 574.764 987.654 575.423 991.5 572.5C995.126 569.744 995.668 566.67 997.5 562.5C999.539 557.859 1000.84 555.067 1001 550C1001.24 542.346 997.679 538.467 994.5 531.5C989.911 521.445 985.47 516.802 979.5 507.5Z" fill="black" stroke="black"/>
<path d="M515.315 268.216C515.315 268.216 504.168 269.284 497 270C479.43 271.754 458.818 285.14 458.818 285.14C458.818 285.14 450.819 285.533 445.785 284.765C439.924 283.87 435.005 282.203 429.5 280C423.474 277.588 419.133 275.055 412.933 273.132C404.234 270.434 389.645 271.847 389.645 271.847C389.645 271.847 406.922 277.629 416.177 284.389C420.949 287.875 427.473 294.459 427.473 294.459C427.473 294.459 421.639 296.421 418.5 297.5C412.553 299.543 404.439 299.116 398.306 300.5C390.628 302.233 385.768 307.875 385.768 307.875L428.219 305.836C428.219 305.836 426.827 308.287 425.091 311C419.287 320.071 405.547 310.814 398.306 318.786C396.599 320.665 394.66 324.167 394.66 324.167L432.944 322.93C432.944 322.93 426.305 329.189 425.091 334.519C424.163 338.594 424.683 341.15 425.704 345.202C427.327 351.643 434.609 359.692 434.609 359.692C434.609 359.692 430.863 348.701 432.248 341.785C433.556 335.25 435.603 331.344 440.542 326.87C448.524 319.64 457.073 319.506 467.624 321.665C471.382 322.434 476.891 324.924 476.891 324.924L477.678 330.893C477.678 330.893 468.129 342.246 464.215 350.762C461.325 357.05 458.818 367.64 458.818 367.64C458.818 367.64 468.608 353.71 477.956 349.201C481.473 347.504 491.15 333.564 494 330.893C502.5 322.93 500.06 320.664 510 311C516.997 304.197 527.543 301.869 527.543 301.869" stroke="black" stroke-width="6"/>
<path d="M487.5 272.5C493.879 271.757 514 269.47 514 269.47L524.926 299.492C524.926 299.492 511.798 307.858 504.841 314.872C495.352 324.438 497.488 337.307 485.488 343.433C482.01 345.209 479.902 345.675 476.5 347.593C470.655 350.889 464.428 359.362 464.428 359.362C464.428 359.362 465.978 353.865 467.407 350.509C470.925 342.245 479.457 340.966 480 332C480.226 328.276 481.148 324.969 478.854 322.027C476.232 318.664 468.479 318.62 468.479 318.62C468.479 318.62 446.781 316.226 438.339 324.773C433.488 329.685 434.5 326.703 433.295 333.5C432.821 336.171 430.124 347.593 430.124 347.593C430.124 347.593 428.453 345.361 427.934 343.694C426.948 340.524 425.834 332.212 426.672 329C428.546 321.821 435 318.62 435 318.62C435 318.62 442.684 309.752 430.592 314.872C418.5 319.993 402 323 402 323C402 323 403.7 314.872 423.5 311C428.233 310.074 429.208 303.486 429.208 303.486L413.573 305.459H392C392 305.459 397.722 302.458 401 301.5C406.927 299.767 414.523 301.042 420.5 299.492C426.081 298.043 433.295 294.78 433.295 294.78C433.295 294.78 429.223 292.096 426.672 290.293C421.4 286.567 419.24 283.302 413.573 280.209C408.46 277.418 399.606 274.973 399.606 274.973C399.606 274.973 407.508 274.594 412.359 275.762C419.235 277.418 416.874 277.736 423.5 280.209C428.939 282.239 430.753 285.678 436.5 286.5C441.971 287.282 447.489 286.914 453 286.5C470.465 285.188 470.104 274.525 487.5 272.5Z" fill="white"/>
<path d="M838.5 1044.5C797.801 1086.32 742.5 1159 742.5 1159C742.5 1159 769.553 1107.92 790.5 1077.5C824.948 1027.47 851.985 1005.31 893 960.5C905.408 946.945 911.853 938.839 925 926C936.079 915.18 940.329 905.745 954.5 899.5C961.348 896.482 965.624 893.235 973 894.5C982.935 896.204 991.5 912.5 991.5 912.5C991.5 912.5 1002.61 901.356 1010 894.5C1029.94 875.999 1040.62 864.41 1064 850.5C1084.82 838.111 1097.61 819.671 1121 826C1125.9 827.326 1128.43 828.779 1133 831C1142.4 835.573 1155.5 845.5 1155.5 845.5C1155.5 845.5 1186.35 837.814 1205.5 831C1228.81 822.707 1241.9 817.565 1263.5 805.5C1283.5 794.329 1293.1 785.448 1312 772.5C1345.92 749.264 1398.5 712.5 1398.5 712.5C1398.5 712.5 1347.16 767.246 1312 800C1274.81 834.649 1256.41 858.056 1213 884.5C1179.34 905.005 1157.6 940.63 1121 926C1103.79 919.12 1085.5 894.5 1085.5 894.5C1085.5 894.5 1046.49 918.564 1021.5 934C995.914 949.806 967.155 1002.43 956 974.5C951.799 963.983 956 945.5 956 945.5C956 945.5 944.906 951.064 938 955C892.593 980.878 874.953 1007.05 838.5 1044.5Z" fill="#594949" fill-opacity="0.51" stroke="black"/>
<path d="M718 1237.5C690.359 1269.12 664 1330.5 664 1330.5C664 1330.5 680.365 1326.07 689.5 1320.5C703.3 1312.09 718 1290.5 718 1290.5L764 1258L781.5 1250V1258V1268.5C781.5 1268.5 786.268 1274.11 790.5 1275.5H801C801 1275.5 828.328 1253.22 844.5 1237.5C859.06 1223.34 865.947 1214.16 880 1199.5C896.912 1181.86 907.83 1173.32 924 1155C941.677 1134.97 949.718 1122.18 966 1101C979.162 1083.88 983.632 1071.65 999.5 1057C1013.03 1044.51 1020.17 1032.28 1038.5 1030.5H1048C1048 1030.5 1050.49 1041.07 1054.5 1046.5C1058.29 1051.63 1061.2 1054.35 1067 1057C1076.06 1061.14 1082.67 1058.62 1092.5 1057C1107.68 1054.49 1115.01 1048.39 1128.5 1041C1152.58 1027.81 1163.89 1016.64 1184.5 998.5C1222 965.483 1236.69 940.531 1268.5 902C1313.72 847.215 1379 757.5 1379 757.5C1379 757.5 1311.33 845.193 1263.5 897.5C1244.21 918.598 1234.78 931.983 1213 950.5C1186.88 972.704 1171.18 985.399 1139.5 998.5C1126.03 1004.07 1116.43 1017.61 1104 1010C1097.02 1005.73 1098.94 997.537 1092.5 992.5C1084.4 986.17 1077.28 985.894 1067 986C1053.22 986.142 1046.42 992.528 1034 998.5C1019.79 1005.33 999.5 1019.5 999.5 1019.5L980 1041L951.5 1081.5L906.5 1141C906.5 1141 874.322 1195.22 840 1199.5C832.443 1200.44 827.507 1202.48 820.5 1199.5C807.756 1194.07 817.024 1176.56 807.5 1166.5C801.989 1160.68 798.285 1156.91 790.5 1155C769.709 1149.91 772.609 1183.4 758.5 1199.5C744.204 1215.81 732.274 1221.17 718 1237.5Z" fill="#594949" fill-opacity="0.31" stroke="black"/>
<path d="M996 563L967 569L948 575L940.5 580L983 583C983 583 1007.89 572.786 1001 566C999.378 564.402 996 563 996 563Z" fill="white" stroke="black" stroke-width="5"/>
<path d="M737.5 1343.5C724.01 1345.57 712.645 1344.05 704.5 1355C700.626 1360.21 700.47 1364.32 698.5 1370.5C694.815 1382.07 693.755 1388.93 692.5 1401C691.067 1414.79 685.876 1424.32 692.5 1436.5C697.327 1445.38 702.53 1449.98 712 1453.5C721.335 1456.97 727.797 1455.74 737.5 1453.5C752.855 1449.95 760.343 1442.61 771 1431C786.206 1414.44 793.5 1378 793.5 1378C793.5 1378 844.32 1391.18 872 1378C888.389 1370.2 907.5 1348 907.5 1348C907.5 1348 930.496 1316.62 944.5 1296C956.55 1278.26 962.273 1267.62 974.5 1250C987.235 1231.65 998.456 1223.95 1008.5 1204C1022.81 1175.57 1003.37 1146.37 1026.5 1124.5C1032.41 1118.92 1036.21 1116.09 1043.5 1112.5C1064 1102.42 1080.59 1120.46 1102 1112.5C1118.51 1106.36 1125.41 1097.79 1138.5 1086C1163.08 1063.86 1189 1018 1189 1018C1189 1018 1158.78 1044 1138.5 1059.5C1124.5 1070.19 1102 1086 1102 1086C1102 1086 1070.12 1096 1054.5 1086C1043.78 1079.13 1048.23 1059.81 1035.5 1059.5C1022.54 1059.18 1022.16 1074.88 1015.5 1086C1001.48 1109.42 1006.84 1128.42 994 1152.5C982.074 1174.87 969.76 1183.76 954.5 1204C938.7 1224.95 931.65 1238.13 914.5 1258C894.558 1281.1 885.362 1298.02 858.5 1312.5C841.65 1321.58 830.139 1321.89 812 1328C794.212 1334 766.5 1343.5 766.5 1343.5C766.5 1343.5 748.695 1341.79 737.5 1343.5Z" fill="#594949" fill-opacity="0.46" stroke="black"/>
<g filter="url(#filter2_d_6_113)">
<path d="M1404.88 799.562C1410.69 799.562 1419.03 799.094 1429.91 798.156C1440.97 797.219 1449.31 796.75 1454.94 796.75C1475.75 796.75 1491.69 800.594 1502.75 808.281C1514.56 816.906 1520.47 827.969 1520.47 841.469C1520.47 850.281 1517.94 858.625 1512.88 866.5C1507.81 874.375 1501.25 880.844 1493.19 885.906L1492.34 886.75C1492.34 886.938 1492.72 887.219 1493.47 887.594C1504.72 889.656 1514.19 895.375 1521.88 904.75C1529.56 914.125 1533.41 925.094 1533.41 937.656C1533.41 950.406 1529.75 961.656 1522.44 971.406C1515.12 980.969 1506.59 987.906 1496.84 992.219C1487.28 996.531 1475.75 998.688 1462.25 998.688C1457.75 998.688 1451.19 998.406 1442.56 997.844C1433.94 997.281 1427.38 997 1422.88 997C1419.69 997 1414.53 997.094 1407.41 997.281C1400.28 997.469 1394.47 997.562 1389.97 997.562H1389.41C1388.28 997.562 1387.34 997.469 1386.59 997.281C1386.03 997.094 1385.38 996.438 1384.62 995.312C1384.06 994.188 1383.78 992.594 1383.78 990.531C1383.78 988.281 1384.44 986.875 1385.75 986.312C1387.25 985.75 1390.72 985.188 1396.16 984.625C1397.84 984.438 1399.16 984.25 1400.09 984.062C1401.41 983.875 1402.34 983.688 1402.91 983.5C1403.66 983.125 1404.31 982.562 1404.88 981.812C1405.62 980.875 1406 979.656 1406 978.156V820.656C1406 817.094 1404.97 814.844 1402.91 813.906C1401.03 812.781 1397.56 812.031 1392.5 811.656C1391.94 811.656 1391.47 811.656 1391.09 811.656C1387.72 811.656 1386.03 809.219 1386.03 804.344C1386.03 800.969 1387.72 799.281 1391.09 799.281C1391.28 799.281 1391.94 799.375 1393.06 799.562C1394.19 799.562 1395.78 799.562 1397.84 799.562C1400.09 799.562 1402.44 799.562 1404.88 799.562ZM1494.88 847.656C1494.88 843.719 1494.22 839.781 1492.91 835.844C1491.59 831.719 1489.44 827.594 1486.44 823.469C1483.44 819.344 1478.94 815.969 1472.94 813.344C1467.12 810.719 1460.28 809.406 1452.41 809.406C1441.72 809.406 1434.97 810.531 1432.16 812.781C1431.22 813.531 1430.75 814.75 1430.75 816.438V817V878.594C1430.75 881.031 1431.78 882.25 1433.84 882.25H1446.78H1450.44C1470.69 882.25 1484.09 876.156 1490.66 863.969C1493.47 858.344 1494.88 852.906 1494.88 847.656ZM1452.97 985.188C1468.16 985.188 1481.09 981.156 1491.78 973.094C1502.47 964.844 1507.81 953.5 1507.81 939.062C1507.81 929.5 1505 920.688 1499.38 912.625C1493.94 904.375 1485.41 899.031 1473.78 896.594C1467.59 895.281 1459.53 894.625 1449.59 894.625H1434.97C1432.16 894.625 1430.75 896.125 1430.75 899.125V973.375C1430.75 975.438 1430.84 977.031 1431.03 978.156C1431.41 979.281 1432.25 980.5 1433.56 981.812C1434.88 982.938 1436.84 983.688 1439.47 984.062C1445.09 984.812 1449.59 985.188 1452.97 985.188ZM1547.75 937.656C1547.75 918.156 1552.91 902.5 1563.22 890.688C1573.53 878.875 1586.09 872.969 1600.91 872.969C1610.47 872.969 1619.66 875.594 1628.47 880.844C1637.28 886.094 1644.59 892.656 1650.41 900.531C1651.91 902.406 1652.66 904.469 1652.66 906.719V907.281C1652.66 908.969 1652.19 910.469 1651.25 911.781C1650.31 913.094 1648.81 914.312 1646.75 915.438C1644.69 916.375 1642.91 917.125 1641.41 917.688C1639.91 918.25 1637.66 919 1634.66 919.938C1631.84 920.875 1630.06 921.438 1629.31 921.625C1590.12 935.125 1570.06 942.156 1569.12 942.719C1568.38 943.094 1568 943.656 1568 944.406C1568 945.531 1568.28 947.406 1568.84 950.031C1569.41 952.656 1570.62 956.125 1572.5 960.438C1574.56 964.75 1577 968.781 1579.81 972.531C1582.81 976.094 1587.03 979.281 1592.47 982.094C1597.91 984.719 1604 986.031 1610.75 986.031C1623.88 986.031 1635.31 981.344 1645.06 971.969C1647.69 969.344 1649.84 968.031 1651.53 968.031C1654.72 968.031 1656.31 969.438 1656.31 972.25C1656.31 973.375 1655.56 974.875 1654.06 976.75C1648.06 984.625 1640.56 990.906 1631.56 995.594C1622.56 1000.09 1613.09 1002.34 1603.16 1002.34C1596.78 1002.34 1590.5 1001.22 1584.31 998.969C1578.31 996.719 1572.41 993.25 1566.59 988.562C1560.97 983.875 1556.38 977.125 1552.81 968.312C1549.44 959.5 1547.75 949.281 1547.75 937.656ZM1624.81 907.844C1624.81 905.406 1621.53 901.656 1614.97 896.594C1608.41 891.344 1601.56 888.719 1594.44 888.719C1586 888.719 1579.25 892.375 1574.19 899.688C1569.31 907 1566.88 917.031 1566.88 929.781C1566.88 931.281 1567.34 932.031 1568.28 932.031C1568.66 932.031 1577.56 928.656 1595 921.906C1612.62 914.969 1621.72 911.406 1622.28 911.219C1623.97 910.281 1624.81 909.156 1624.81 907.844ZM1667.84 908.125C1667.84 899.125 1671.59 891.25 1679.09 884.5C1686.78 877.562 1696.81 874.094 1709.19 874.094C1711.81 874.094 1714.16 874.281 1716.22 874.656C1718.47 874.844 1720.16 875.031 1721.28 875.219C1722.59 875.406 1723.34 875.5 1723.53 875.5C1724.28 875.5 1725.41 875.031 1726.91 874.094C1728.41 873.156 1729.72 872.688 1730.84 872.688C1733.09 872.688 1734.59 874.469 1735.34 878.031C1735.91 880.844 1736.66 884.781 1737.59 889.844C1738.53 894.906 1739.28 899.219 1739.84 902.781C1740.59 906.156 1740.97 908.031 1740.97 908.406C1740.97 911.406 1738.72 912.906 1734.22 912.906C1732.34 912.906 1730.94 912.25 1730 910.938C1729.25 909.438 1728.5 907.375 1727.75 904.75C1727 902.125 1726.16 900.156 1725.22 898.844C1723.16 896.031 1719.78 893.5 1715.09 891.25C1710.59 888.812 1706.09 887.594 1701.59 887.594C1696.53 887.594 1692.22 889 1688.66 891.812C1685.09 894.625 1683.31 898.281 1683.31 902.781C1683.31 912.344 1690.91 919.281 1706.09 923.594C1707.97 924.156 1710.78 924.906 1714.53 925.844C1718.28 926.594 1721.19 927.25 1723.25 927.812C1725.31 928.375 1727.75 929.219 1730.56 930.344C1733.56 931.469 1736.19 932.875 1738.44 934.562C1740.69 936.25 1742.84 938.312 1744.91 940.75C1750.72 947.5 1753.62 955.094 1753.62 963.531C1753.62 973.656 1749.59 982.656 1741.53 990.531C1733.66 998.406 1723.06 1002.34 1709.75 1002.34C1702.44 1002.34 1694.94 1001.12 1687.25 998.688C1679.75 996.25 1674.03 992.688 1670.09 988C1667.84 985.562 1666.72 982.281 1666.72 978.156C1666.72 975.156 1666.62 971.781 1666.44 968.031C1666.44 964.281 1666.44 961.938 1666.44 961C1666.44 957.25 1666.72 954.812 1667.28 953.688C1668.03 952.562 1669.44 952 1671.5 952C1673.56 952 1674.88 952.844 1675.44 954.531C1676 956.219 1676.38 958.75 1676.56 962.125C1676.75 965.312 1677.31 967.938 1678.25 970C1679.94 973.75 1683.88 977.5 1690.06 981.25C1696.44 985 1703.38 986.875 1710.88 986.875C1717.44 986.875 1722.97 985.094 1727.47 981.531C1731.97 977.969 1734.22 973.375 1734.22 967.75C1734.22 964.188 1733.38 961.094 1731.69 958.469C1730.19 955.656 1727.75 953.406 1724.38 951.719C1721 949.844 1718.28 948.531 1716.22 947.781C1714.16 946.844 1710.88 945.812 1706.38 944.688L1699.62 943.281C1678.44 937.094 1667.84 925.375 1667.84 908.125ZM1767.69 891.812C1763.75 891.812 1761.78 890.594 1761.78 888.156C1761.78 887.031 1763.09 885.344 1765.72 883.094C1768.53 880.656 1772.47 876.719 1777.53 871.281C1782.59 865.656 1787.38 859.094 1791.88 851.594C1793.94 848.031 1795.81 846.25 1797.5 846.25C1800.12 846.25 1801.44 847.844 1801.44 851.031C1801.44 852.344 1801.34 855.719 1801.16 861.156C1801.16 866.594 1801.16 869.969 1801.16 871.281C1801.16 875.031 1803.03 876.906 1806.78 876.906H1832.66C1833.03 876.906 1833.5 877 1834.06 877.188C1834.62 877.188 1835 877.188 1835.19 877.188C1840.06 877.188 1842.5 878.969 1842.5 882.531C1842.5 886.094 1841.66 888.906 1839.97 890.969C1839.03 891.906 1837.34 892.375 1834.91 892.375H1801.16C1799.28 892.375 1798.34 893.312 1798.34 895.188C1798.34 910.75 1798.25 923.688 1798.06 934C1798.06 944.312 1797.97 951.25 1797.78 954.812C1797.78 958.375 1797.78 960.906 1797.78 962.406C1797.78 976.656 1802.75 983.781 1812.69 983.781C1816.62 983.781 1820.75 982.375 1825.06 979.562C1829.38 976.562 1833.12 973.656 1836.31 970.844C1839.69 967.844 1842.22 966.344 1843.91 966.344C1845.41 966.344 1846.62 966.906 1847.56 968.031C1848.69 969.156 1849.25 970.375 1849.25 971.688C1849.25 972.812 1848.59 974.406 1847.28 976.469C1832.09 993.719 1818.69 1002.34 1807.06 1002.34C1800.12 1002.34 1793.75 999.625 1787.94 994.188C1782.31 988.562 1779.03 979.656 1778.09 967.469C1777.91 965.406 1777.81 962.312 1777.81 958.188C1777.81 953.5 1778 942.156 1778.38 924.156C1778.75 905.969 1778.94 896.031 1778.94 894.344C1778.94 892.656 1778.28 891.812 1776.97 891.812H1767.69ZM2066.09 998.688L2060.47 998.125C2056.91 997.938 2051.94 997.656 2045.56 997.281C2039.38 997.094 2033.19 997 2027 997C2023.06 997 2019.03 997 2014.91 997C2010.97 997.188 2007.41 997.375 2004.22 997.562C2001.22 997.75 1998.5 997.938 1996.06 998.125C1993.62 998.312 1991.66 998.406 1990.16 998.406C1988.66 998.594 1987.81 998.688 1987.62 998.688C1983.88 998.688 1982 996.25 1982 991.375C1982 988.375 1982.75 986.5 1984.25 985.75C1985.94 985 1989.69 984.438 1995.5 984.062C1998.69 983.875 2001.22 983.688 2003.09 983.5C2007.03 983.125 2009.56 982.094 2010.69 980.406C2012 978.719 2012.66 976.188 2012.66 972.812V826.844C2012.66 824.969 2012.56 823.562 2012.38 822.625C2012.19 821.688 2011.44 820.656 2010.12 819.531C2009 818.406 2007.31 817.844 2005.06 817.844H1962.03C1958.47 817.844 1956.03 818.312 1954.72 819.25C1953.41 820 1952.19 821.5 1951.06 823.75C1943.19 839.312 1938.97 847.469 1938.41 848.219C1937.09 849.719 1935.5 850.469 1933.62 850.469C1931.75 850.469 1930.16 849.812 1928.84 848.5C1927.72 847 1927.16 845.219 1927.16 843.156V842.875C1927.16 842.125 1929.97 828.906 1935.59 803.219C1936.16 800.219 1938.12 798.719 1941.5 798.719H2109.41C2112.59 798.719 2114.56 800.969 2115.31 805.469C2120 829.844 2122.34 842.125 2122.34 842.312C2122.34 844 2121.78 845.5 2120.66 846.812C2119.53 848.125 2118.22 848.781 2116.72 848.781C2114.47 848.781 2112.31 846.906 2110.25 843.156C2109.12 841.281 2107.91 839.219 2106.59 836.969C2105.28 834.531 2104.25 832.75 2103.5 831.625C2102.94 830.312 2102.19 828.906 2101.25 827.406C2100.5 825.719 2099.84 824.594 2099.28 824.031C2098.72 823.281 2098.16 822.531 2097.59 821.781C2097.03 820.844 2096.47 820.281 2095.91 820.094C2095.53 819.719 2095.06 819.344 2094.5 818.969C2093.94 818.594 2093.28 818.406 2092.53 818.406C2091.97 818.219 2091.31 818.125 2090.56 818.125C2090 817.938 2089.25 817.844 2088.31 817.844H2045.84C2043.97 817.844 2042.47 818.312 2041.34 819.25C2040.41 820.188 2039.84 821.125 2039.66 822.062C2039.66 822.812 2039.66 824.031 2039.66 825.719V976.469C2039.66 979.469 2040.5 981.344 2042.19 982.094C2044.06 982.844 2048.84 983.5 2056.53 984.062C2060.47 984.438 2063.56 984.719 2065.81 984.906C2067.88 985.094 2069.19 985.75 2069.75 986.875C2070.5 988 2070.88 990.062 2070.88 993.062C2070.88 996.812 2069.28 998.688 2066.09 998.688ZM2149.91 962.125C2149.91 952.375 2149.91 943.281 2149.91 934.844C2149.91 926.406 2149.91 919.844 2149.91 915.156C2150.09 910.281 2150.19 907.375 2150.19 906.438C2150.19 904.375 2149.44 902.969 2147.94 902.219C2146.62 901.281 2140.91 898.75 2130.78 894.625C2128.34 893.688 2127.12 892.469 2127.12 890.969C2127.12 890.406 2127.22 889.844 2127.41 889.281C2127.78 888.719 2128.25 888.25 2128.81 887.875C2129.56 887.5 2130.22 887.219 2130.78 887.031C2131.34 886.656 2132.09 886.281 2133.03 885.906C2133.97 885.531 2134.62 885.25 2135 885.062C2156 874.938 2166.59 869.875 2166.78 869.875H2167.06C2169.69 869.875 2171 871.469 2171 874.656L2170.72 883.938C2170.34 890.125 2169.97 898.469 2169.59 908.969C2169.41 919.281 2169.31 929.594 2169.31 939.906V949.469C2169.31 967.281 2169.59 977.781 2170.16 980.969C2170.72 984.156 2172.59 985.938 2175.78 986.312C2181.41 987.062 2184.97 987.719 2186.47 988.281C2187.97 988.844 2188.72 990.25 2188.72 992.5C2188.72 996.625 2187.59 998.688 2185.34 998.688C2185.16 998.688 2184.59 998.594 2183.66 998.406C2182.72 998.406 2181.41 998.312 2179.72 998.125C2178.03 997.938 2176.16 997.75 2174.09 997.562C2172.03 997.375 2169.59 997.188 2166.78 997C2164.16 997 2161.53 997 2158.91 997C2156.28 997 2153.56 997 2150.75 997C2147.94 997.188 2145.5 997.375 2143.44 997.562C2141.56 997.75 2139.78 997.938 2138.09 998.125C2136.41 998.312 2135.09 998.406 2134.16 998.406C2133.22 998.594 2132.66 998.688 2132.47 998.688C2129.47 998.688 2127.97 997.094 2127.97 993.906C2127.97 990.719 2128.53 988.844 2129.66 988.281C2130.97 987.719 2135.19 986.969 2142.31 986.031C2145.69 985.469 2147.75 984.438 2148.5 982.938C2149.44 981.25 2149.91 978.812 2149.91 975.625V962.125ZM2152.72 818.969C2152.72 815.219 2154.12 812.031 2156.94 809.406C2159.75 806.781 2163.03 805.469 2166.78 805.469C2170.53 805.469 2173.72 806.781 2176.34 809.406C2179.16 812.031 2180.56 815.125 2180.56 818.688C2180.56 822.625 2179.16 825.906 2176.34 828.531C2173.72 831.156 2170.44 832.469 2166.5 832.469C2162.56 832.469 2159.28 831.25 2156.66 828.812C2154.03 826.188 2152.72 822.906 2152.72 818.969ZM2233.44 888.156C2233.62 888.156 2235.12 887.125 2237.94 885.062C2240.75 882.812 2244.59 880.656 2249.47 878.594C2254.53 876.531 2259.59 875.5 2264.66 875.5C2267.28 875.5 2269.81 875.781 2272.25 876.344C2274.69 876.906 2276.94 877.656 2279 878.594C2281.06 879.531 2282.94 880.562 2284.62 881.688C2286.5 882.812 2288.09 883.938 2289.41 885.062C2290.72 886.188 2291.84 887.219 2292.78 888.156C2293.72 888.906 2294.47 889.562 2295.03 890.125L2295.88 891.25C2296.06 891.438 2296.44 891.531 2297 891.531C2297.56 891.531 2298.03 891.438 2298.41 891.25C2298.78 891.062 2299.16 890.781 2299.53 890.406C2300.09 889.844 2301.22 889 2302.91 887.875C2304.59 886.75 2306.66 885.438 2309.09 883.938C2318.66 878.312 2327.94 875.5 2336.94 875.5C2345.38 875.5 2353.16 878.031 2360.28 883.094C2367.41 887.969 2372.56 895.844 2375.75 906.719C2378 914.781 2379.12 926.031 2379.12 940.469V977.031C2379.12 978.344 2379.12 979.469 2379.12 980.406C2379.31 981.344 2379.59 982.188 2379.97 982.938C2380.53 983.5 2380.91 983.969 2381.09 984.344C2381.28 984.719 2381.84 985.094 2382.78 985.469C2383.91 985.844 2384.66 986.125 2385.03 986.312C2385.59 986.312 2386.81 986.5 2388.69 986.875C2390.56 987.25 2391.97 987.531 2392.91 987.719C2395.53 988.094 2396.84 989.875 2396.84 993.062C2396.84 996.812 2395.44 998.688 2392.62 998.688C2392.25 998.688 2391.03 998.5 2388.97 998.125C2386.91 997.938 2384 997.656 2380.25 997.281C2376.5 997.094 2372.56 997 2368.44 997C2364.12 997 2360.09 997.094 2356.34 997.281C2352.78 997.656 2349.88 997.938 2347.62 998.125C2345.56 998.5 2344.34 998.688 2343.97 998.688C2342.84 998.688 2341.72 998.312 2340.59 997.562C2339.66 996.812 2339.19 995.594 2339.19 993.906C2339.19 991.281 2339.75 989.688 2340.88 989.125C2342.19 988.562 2346.12 987.625 2352.69 986.312C2356.62 985.75 2358.59 983.125 2358.59 978.438V938.5C2358.59 917.5 2354.66 903.531 2346.78 896.594C2341.34 892.281 2335.34 890.125 2328.78 890.125C2322.97 890.125 2317.16 891.719 2311.34 894.906C2305.53 898.094 2302.62 900.906 2302.62 903.344L2302.91 904.188C2302.91 904.75 2303 905.594 2303.19 906.719C2303.38 907.844 2303.56 909.156 2303.75 910.656C2303.94 912.156 2304.03 914.031 2304.03 916.281C2304.22 918.344 2304.31 920.5 2304.31 922.75V978.156C2304.31 978.344 2304.22 978.719 2304.03 979.281C2304.03 979.844 2304.03 980.312 2304.03 980.688V980.969C2304.03 984.156 2307.31 986.031 2313.88 986.594C2315.56 986.781 2316.97 986.969 2318.09 987.156C2321.84 987.719 2323.72 989.594 2323.72 992.781C2323.72 996.719 2322.5 998.688 2320.06 998.688C2319.88 998.688 2319.22 998.594 2318.09 998.406C2317.16 998.406 2315.84 998.312 2314.16 998.125C2312.47 997.938 2310.59 997.75 2308.53 997.562C2306.47 997.375 2304.03 997.188 2301.22 997C2298.41 997 2295.69 997 2293.06 997C2290.44 997 2287.72 997 2284.91 997C2282.09 997.188 2279.66 997.375 2277.59 997.562C2275.53 997.75 2273.66 997.938 2271.97 998.125C2270.28 998.312 2268.97 998.5 2268.03 998.688H2266.34C2263.72 998.688 2262.41 996.625 2262.41 992.5C2262.41 989.875 2265.97 988.094 2273.09 987.156C2275.16 986.781 2276.75 986.5 2277.88 986.312C2281.06 985.75 2283.12 984.719 2284.06 983.219C2285 981.719 2285.47 979.094 2285.47 975.344V922.188C2285.47 910.188 2282.38 901.844 2276.19 897.156C2270 892.469 2263.25 890.125 2255.94 890.125C2250.5 890.125 2245.81 891.438 2241.88 894.062C2237.94 896.5 2235.31 898.938 2234 901.375C2233.25 903.25 2232.88 905.781 2232.88 908.969V978.156C2232.88 979.094 2232.88 979.938 2232.88 980.688C2233.06 981.25 2233.16 981.812 2233.16 982.375C2233.34 982.75 2233.53 983.219 2233.72 983.781C2234.09 984.156 2234.38 984.531 2234.56 984.906C2234.75 985.094 2235.12 985.281 2235.69 985.469C2236.44 985.656 2237 985.844 2237.38 986.031C2237.75 986.219 2238.41 986.406 2239.34 986.594C2240.47 986.781 2241.31 986.969 2241.88 987.156C2242.44 987.156 2243.38 987.25 2244.69 987.438C2246.19 987.625 2247.41 987.812 2248.34 988C2250.97 988.375 2252.28 990.438 2252.28 994.188C2252.28 997.188 2251.06 998.688 2248.62 998.688L2244.97 998.125C2242.72 997.938 2239.62 997.656 2235.69 997.281C2231.94 997.094 2228.09 997 2224.16 997C2220.41 997 2216.94 997.094 2213.75 997.281C2210.56 997.469 2208.03 997.656 2206.16 997.844C2204.47 998.031 2203.44 998.125 2203.06 998.125C2200.44 998.125 2199.12 996.25 2199.12 992.5C2199.12 990.438 2199.88 989.031 2201.38 988.281C2203.06 987.531 2204.84 987.156 2206.72 987.156C2208.59 987.156 2210.38 986.594 2212.06 985.469C2213.94 984.344 2214.97 982.469 2215.16 979.844V908.406C2215.16 905.969 2214.69 904.188 2213.75 903.062C2213 901.938 2210.66 899.875 2206.72 896.875C2205.41 895.938 2204.38 895.188 2203.62 894.625C2201.94 893.5 2201.09 892.375 2201.09 891.25C2201.09 890.312 2201.56 889.469 2202.5 888.719C2203.44 887.781 2206.25 885.906 2210.94 883.094C2216 879.906 2220.5 877.094 2224.44 874.656C2227.62 872.969 2229.41 872.125 2229.78 872.125C2231.47 872.125 2232.31 873.25 2232.31 875.5V886.469C2232.31 887.594 2232.69 888.156 2233.44 888.156ZM2407.25 937.656C2407.25 918.156 2412.41 902.5 2422.72 890.688C2433.03 878.875 2445.59 872.969 2460.41 872.969C2469.97 872.969 2479.16 875.594 2487.97 880.844C2496.78 886.094 2504.09 892.656 2509.91 900.531C2511.41 902.406 2512.16 904.469 2512.16 906.719V907.281C2512.16 908.969 2511.69 910.469 2510.75 911.781C2509.81 913.094 2508.31 914.312 2506.25 915.438C2504.19 916.375 2502.41 917.125 2500.91 917.688C2499.41 918.25 2497.16 919 2494.16 919.938C2491.34 920.875 2489.56 921.438 2488.81 921.625C2449.62 935.125 2429.56 942.156 2428.62 942.719C2427.88 943.094 2427.5 943.656 2427.5 944.406C2427.5 945.531 2427.78 947.406 2428.34 950.031C2428.91 952.656 2430.12 956.125 2432 960.438C2434.06 964.75 2436.5 968.781 2439.31 972.531C2442.31 976.094 2446.53 979.281 2451.97 982.094C2457.41 984.719 2463.5 986.031 2470.25 986.031C2483.38 986.031 2494.81 981.344 2504.56 971.969C2507.19 969.344 2509.34 968.031 2511.03 968.031C2514.22 968.031 2515.81 969.438 2515.81 972.25C2515.81 973.375 2515.06 974.875 2513.56 976.75C2507.56 984.625 2500.06 990.906 2491.06 995.594C2482.06 1000.09 2472.59 1002.34 2462.66 1002.34C2456.28 1002.34 2450 1001.22 2443.81 998.969C2437.81 996.719 2431.91 993.25 2426.09 988.562C2420.47 983.875 2415.88 977.125 2412.31 968.312C2408.94 959.5 2407.25 949.281 2407.25 937.656ZM2484.31 907.844C2484.31 905.406 2481.03 901.656 2474.47 896.594C2467.91 891.344 2461.06 888.719 2453.94 888.719C2445.5 888.719 2438.75 892.375 2433.69 899.688C2428.81 907 2426.38 917.031 2426.38 929.781C2426.38 931.281 2426.84 932.031 2427.78 932.031C2428.16 932.031 2437.06 928.656 2454.5 921.906C2472.12 914.969 2481.22 911.406 2481.78 911.219C2483.47 910.281 2484.31 909.156 2484.31 907.844ZM1521.31 1390.69L1515.69 1390.12C1512.12 1389.94 1507.16 1389.66 1500.78 1389.28C1494.59 1389.09 1488.41 1389 1482.22 1389C1478.28 1389 1474.25 1389 1470.12 1389C1466.19 1389.19 1462.62 1389.38 1459.44 1389.56C1456.44 1389.75 1453.72 1389.94 1451.28 1390.12C1448.84 1390.31 1446.88 1390.41 1445.38 1390.41C1443.88 1390.59 1443.03 1390.69 1442.84 1390.69C1439.09 1390.69 1437.22 1388.25 1437.22 1383.38C1437.22 1380.38 1437.97 1378.5 1439.47 1377.75C1441.16 1377 1444.91 1376.44 1450.72 1376.06C1453.91 1375.88 1456.44 1375.69 1458.31 1375.5C1462.25 1375.12 1464.78 1374.09 1465.91 1372.41C1467.22 1370.72 1467.88 1368.19 1467.88 1364.81V1218.84C1467.88 1216.97 1467.78 1215.56 1467.59 1214.62C1467.41 1213.69 1466.66 1212.66 1465.34 1211.53C1464.22 1210.41 1462.53 1209.84 1460.28 1209.84H1417.25C1413.69 1209.84 1411.25 1210.31 1409.94 1211.25C1408.62 1212 1407.41 1213.5 1406.28 1215.75C1398.41 1231.31 1394.19 1239.47 1393.62 1240.22C1392.31 1241.72 1390.72 1242.47 1388.84 1242.47C1386.97 1242.47 1385.38 1241.81 1384.06 1240.5C1382.94 1239 1382.38 1237.22 1382.38 1235.16V1234.88C1382.38 1234.12 1385.19 1220.91 1390.81 1195.22C1391.38 1192.22 1393.34 1190.72 1396.72 1190.72H1564.62C1567.81 1190.72 1569.78 1192.97 1570.53 1197.47C1575.22 1221.84 1577.56 1234.12 1577.56 1234.31C1577.56 1236 1577 1237.5 1575.88 1238.81C1574.75 1240.12 1573.44 1240.78 1571.94 1240.78C1569.69 1240.78 1567.53 1238.91 1565.47 1235.16C1564.34 1233.28 1563.12 1231.22 1561.81 1228.97C1560.5 1226.53 1559.47 1224.75 1558.72 1223.62C1558.16 1222.31 1557.41 1220.91 1556.47 1219.41C1555.72 1217.72 1555.06 1216.59 1554.5 1216.03C1553.94 1215.28 1553.38 1214.53 1552.81 1213.78C1552.25 1212.84 1551.69 1212.28 1551.12 1212.09C1550.75 1211.72 1550.28 1211.34 1549.72 1210.97C1549.16 1210.59 1548.5 1210.41 1547.75 1210.41C1547.19 1210.22 1546.53 1210.12 1545.78 1210.12C1545.22 1209.94 1544.47 1209.84 1543.53 1209.84H1501.06C1499.19 1209.84 1497.69 1210.31 1496.56 1211.25C1495.62 1212.19 1495.06 1213.12 1494.88 1214.06C1494.88 1214.81 1494.88 1216.03 1494.88 1217.72V1368.47C1494.88 1371.47 1495.72 1373.34 1497.41 1374.09C1499.28 1374.84 1504.06 1375.5 1511.75 1376.06C1515.69 1376.44 1518.78 1376.72 1521.03 1376.91C1523.09 1377.09 1524.41 1377.75 1524.97 1378.88C1525.72 1380 1526.09 1382.06 1526.09 1385.06C1526.09 1388.81 1524.5 1390.69 1521.31 1390.69ZM1572.78 1330.22C1572.78 1310.91 1578.88 1295.16 1591.06 1282.97C1603.44 1270.78 1618.06 1264.69 1634.94 1264.69C1652.19 1264.69 1666.53 1270.88 1677.97 1283.25C1689.41 1295.44 1695.12 1311.09 1695.12 1330.22C1695.12 1349.91 1689.12 1365.56 1677.12 1377.19C1665.31 1388.62 1650.88 1394.34 1633.81 1394.34C1615.81 1394.34 1601.09 1388.16 1589.66 1375.78C1578.41 1363.41 1572.78 1348.22 1572.78 1330.22ZM1605.97 1365.94C1613.28 1375.5 1622.84 1380.28 1634.66 1380.28C1646.47 1380.28 1656.22 1375.5 1663.91 1365.94C1671.59 1356.19 1675.44 1344.66 1675.44 1331.34C1675.44 1316.34 1671.12 1303.78 1662.5 1293.66C1654.06 1283.34 1644.22 1278.19 1632.97 1278.19C1623.59 1278.19 1614.88 1282.31 1606.81 1290.56C1598.94 1298.81 1595 1311.56 1595 1328.81C1595 1343.81 1598.66 1356.19 1605.97 1365.94ZM1859.38 1375.22C1882.25 1375.22 1902.12 1368.38 1919 1354.69C1935.88 1340.81 1944.31 1321.88 1944.31 1297.88C1944.31 1283.62 1941.31 1269.94 1935.31 1256.81C1929.31 1243.5 1920.78 1232.72 1909.72 1224.47C1893.41 1212.66 1873.44 1206.75 1849.81 1206.75C1841.75 1206.75 1836.5 1207.31 1834.06 1208.44C1831.81 1209.56 1830.69 1212 1830.69 1215.75V1362.28C1830.69 1365.84 1831.44 1368.47 1832.94 1370.16C1834.44 1371.66 1837.16 1372.78 1841.09 1373.53C1847.28 1374.66 1853.38 1375.22 1859.38 1375.22ZM1776.12 1200.56C1776.12 1196.62 1778.28 1194.66 1782.59 1194.66H1834.91C1872.41 1194.66 1900.25 1198.88 1918.44 1207.31C1934 1214.62 1947.03 1225.5 1957.53 1239.94C1968.03 1254.38 1973.28 1271.16 1973.28 1290.28C1973.28 1314.47 1964.84 1335.66 1947.97 1353.84C1931.09 1372.03 1911.69 1383.19 1889.75 1387.31C1883 1388.44 1874.47 1389 1864.16 1389H1782.59C1778.09 1389 1775.84 1386.28 1775.84 1380.84C1775.84 1379.72 1775.94 1378.88 1776.12 1378.31C1776.31 1377.56 1776.69 1377 1777.25 1376.62C1778 1376.06 1778.66 1375.69 1779.22 1375.5C1779.97 1375.12 1781 1374.94 1782.31 1374.94C1783.81 1374.75 1785.12 1374.66 1786.25 1374.66C1787.38 1374.47 1789.06 1374.38 1791.31 1374.38C1793.56 1374.38 1795.53 1374.28 1797.22 1374.09C1800.41 1373.91 1802.47 1373.06 1803.41 1371.56C1804.53 1369.88 1805.09 1367.25 1805.09 1363.69V1218C1805.09 1213.31 1803.78 1210.41 1801.16 1209.28C1798.72 1208.16 1793.75 1207.5 1786.25 1207.31C1784.19 1207.31 1782.59 1207.31 1781.47 1207.31C1777.91 1207.31 1776.12 1205.06 1776.12 1200.56ZM1985.66 1289.72C1985.66 1284.09 1990.16 1278.47 1999.16 1272.84C2008.34 1267.03 2018.56 1264.12 2029.81 1264.12C2033.38 1264.12 2037.03 1264.5 2040.78 1265.25C2044.53 1266 2048.75 1267.31 2053.44 1269.19C2058.31 1271.06 2062.34 1274.34 2065.53 1279.03C2068.91 1283.53 2070.97 1289.06 2071.72 1295.62C2072.09 1300.12 2072.28 1303.59 2072.28 1306.03V1362.84C2072.28 1366.22 2072.94 1368.94 2074.25 1371C2075.56 1373.06 2076.88 1374.38 2078.19 1374.94C2079.5 1375.31 2080.81 1375.5 2082.12 1375.5C2084.75 1375.5 2086.81 1374.75 2088.31 1373.25C2089.81 1371.56 2090.94 1369.97 2091.69 1368.47C2092.62 1366.78 2093.66 1365.94 2094.78 1365.94C2096.47 1365.94 2097.31 1367.16 2097.31 1369.59C2097.31 1374.09 2095.25 1379.06 2091.12 1384.5C2087 1389.75 2081.66 1392.38 2075.09 1392.38C2072.66 1392.38 2070.31 1392 2068.06 1391.25C2065.81 1390.5 2063.94 1389.56 2062.44 1388.44C2060.94 1387.12 2059.53 1385.91 2058.22 1384.78C2057.09 1383.66 2056.16 1382.62 2055.41 1381.69L2054.56 1380.56C2054.38 1380.56 2054.28 1380.56 2054.28 1380.56C2054.28 1380.38 2054.19 1380.28 2054 1380.28C2053.62 1380.28 2053.34 1380.47 2053.16 1380.84C2052.97 1381.22 2052.31 1381.97 2051.19 1383.09C2050.06 1384.22 2048.47 1385.44 2046.41 1386.75C2037.97 1392 2029.06 1394.62 2019.69 1394.62C2009.94 1394.62 2001.97 1391.53 1995.78 1385.34C1989.78 1379.16 1986.78 1371.56 1986.78 1362.56V1362.28C1986.78 1351.41 1990.81 1342.88 1998.88 1336.69C2001.69 1334.44 2005.34 1332.47 2009.84 1330.78C2014.34 1328.91 2018.75 1327.5 2023.06 1326.56C2027.56 1325.62 2031.78 1324.88 2035.72 1324.31C2039.66 1323.56 2042.94 1323.09 2045.56 1322.91L2049.5 1322.62C2051 1322.25 2051.75 1320.94 2051.75 1318.69V1308.28C2051.75 1298.34 2049.5 1290.66 2045 1285.22C2040.31 1280.16 2034.69 1277.62 2028.12 1277.62C2018 1277.62 2009.75 1284 2003.38 1296.75C2001.69 1299 1999.62 1300.12 1997.19 1300.12C1994.19 1300.12 1991.47 1299.19 1989.03 1297.31C1986.78 1295.44 1985.66 1292.91 1985.66 1289.72ZM2026.44 1378.88C2030.75 1378.88 2034.78 1377.94 2038.53 1376.06C2042.47 1374.19 2045.19 1372.5 2046.69 1371C2048.19 1369.5 2049.41 1368.19 2050.34 1367.06C2051.47 1365.56 2052.03 1363.41 2052.03 1360.59V1353.56V1341.75C2052.03 1338.19 2051.84 1335.94 2051.47 1335C2051.28 1333.88 2050.53 1333.31 2049.22 1333.31C2044.53 1333.31 2038.62 1334.06 2031.5 1335.56C2024.56 1337.06 2019.03 1339.78 2014.91 1343.72C2010.41 1347.47 2008.16 1352.72 2008.16 1359.47C2008.16 1366.59 2010.12 1371.84 2014.06 1375.22C2016.69 1377.66 2020.81 1378.88 2026.44 1378.88ZM2139.5 1280.44C2139.5 1281.19 2139.78 1281.56 2140.34 1281.56H2140.62C2140.81 1281.56 2141.47 1281 2142.59 1279.88C2143.91 1278.75 2145.69 1277.34 2147.94 1275.66C2150.19 1273.97 2152.81 1272.28 2155.81 1270.59C2158.81 1268.91 2162.47 1267.5 2166.78 1266.38C2171.09 1265.06 2175.59 1264.41 2180.28 1264.41H2180.84C2184.78 1264.41 2188.62 1264.97 2192.38 1266.09C2196.31 1267.03 2200.44 1268.91 2204.75 1271.72C2209.25 1274.34 2213 1278.56 2216 1284.38C2219 1290.19 2220.88 1297.31 2221.62 1305.75C2222 1308.94 2222.19 1313.81 2222.19 1320.38C2222.19 1321.12 2222.19 1323 2222.19 1326C2222.19 1328.81 2222.09 1333.97 2221.91 1341.47C2221.91 1348.97 2221.91 1358.53 2221.91 1370.16V1370.72C2221.91 1371.66 2222 1372.59 2222.19 1373.53C2222.38 1374.28 2222.47 1374.94 2222.47 1375.5C2222.66 1375.88 2223.03 1376.34 2223.59 1376.91C2224.16 1377.28 2224.53 1377.56 2224.72 1377.75C2225.09 1377.94 2225.75 1378.22 2226.69 1378.59C2227.81 1378.78 2228.56 1378.88 2228.94 1378.88C2229.5 1378.88 2230.53 1378.97 2232.03 1379.16C2233.72 1379.34 2234.94 1379.53 2235.69 1379.72C2238.5 1380.09 2239.91 1381.88 2239.91 1385.06C2239.91 1388.81 2238.41 1390.69 2235.41 1390.69C2234.84 1390.69 2233.53 1390.5 2231.47 1390.12C2229.41 1389.94 2226.5 1389.66 2222.75 1389.28C2219.19 1389.09 2215.34 1389 2211.22 1389C2208.78 1389 2206.34 1389 2203.91 1389C2201.47 1389.19 2199.31 1389.38 2197.44 1389.56C2195.75 1389.75 2194.16 1389.94 2192.66 1390.12C2191.16 1390.31 2189.94 1390.5 2189 1390.69H2187.59C2184.97 1390.69 2183.66 1388.81 2183.66 1385.06C2183.66 1383 2184.22 1381.69 2185.34 1381.12C2186.47 1380.56 2189.47 1379.91 2194.34 1379.16C2196.03 1378.78 2197.44 1378.5 2198.56 1378.31C2200.44 1377.94 2201.66 1377.38 2202.22 1376.62C2202.97 1375.69 2203.34 1374 2203.34 1371.56V1326.84C2203.34 1312.78 2202.03 1302.38 2199.41 1295.62C2196.59 1289.25 2192.38 1284.84 2186.75 1282.41C2181.12 1279.78 2175.78 1278.47 2170.72 1278.47C2163.41 1278.47 2156.84 1280.72 2151.03 1285.22C2145.22 1289.72 2141.94 1293.66 2141.19 1297.03C2140.81 1298.53 2140.62 1299.84 2140.62 1300.97V1369.03V1369.88C2140.62 1374.75 2142.78 1377.47 2147.09 1378.03C2155.53 1379.34 2160.12 1380.38 2160.88 1381.12C2162 1382.06 2162.56 1383.66 2162.56 1385.91C2162.56 1389.28 2161.34 1390.97 2158.91 1390.97C2158.72 1390.97 2158.06 1390.88 2156.94 1390.69C2156 1390.69 2154.69 1390.59 2153 1390.41C2151.31 1390.22 2149.44 1389.94 2147.38 1389.56C2145.31 1389.38 2142.88 1389.19 2140.06 1389C2137.44 1389 2134.81 1389 2132.19 1389C2129.56 1389 2126.94 1389 2124.31 1389C2121.69 1389.19 2119.34 1389.38 2117.28 1389.56C2115.41 1389.75 2113.72 1389.94 2112.22 1390.12C2110.72 1390.31 2109.5 1390.41 2108.56 1390.41C2107.62 1390.59 2107.06 1390.69 2106.88 1390.69C2103.69 1390.69 2102.09 1389 2102.09 1385.62C2102.09 1383 2102.66 1381.41 2103.78 1380.84C2105.09 1380.09 2108.28 1379.34 2113.34 1378.59C2116.72 1378.03 2118.78 1377 2119.53 1375.5C2120.47 1374 2120.94 1371.75 2120.94 1368.75V1300.12C2120.94 1296.75 2120.47 1294.5 2119.53 1293.38C2118.59 1292.06 2114.75 1288.88 2108 1283.81C2106.88 1282.69 2106.31 1281.75 2106.31 1281V1280.72C2106.31 1279.78 2106.97 1278.94 2108.28 1278.19C2109.59 1277.25 2113.62 1275 2120.38 1271.44C2125.62 1268.62 2130.03 1266.28 2133.59 1264.41C2134.72 1263.66 2135.66 1263.28 2136.41 1263.28C2138.66 1263.28 2139.78 1264.69 2139.78 1267.5V1278.75C2139.78 1278.94 2139.69 1279.31 2139.5 1279.88V1280.44ZM2302.62 1394.06C2286.12 1394.06 2272.72 1388.25 2262.41 1376.62C2252.28 1365 2247.22 1350.19 2247.22 1332.19C2247.22 1312.5 2252.94 1296.56 2264.38 1284.38C2275.81 1272 2290.72 1265.81 2309.09 1265.81C2319.22 1265.81 2327.84 1267.97 2334.97 1272.28C2342.09 1276.59 2345.66 1281.56 2345.66 1287.19C2345.66 1290.38 2344.53 1293 2342.28 1295.06C2340.03 1296.94 2337.31 1297.88 2334.12 1297.88C2330 1297.88 2324.56 1295.06 2317.81 1289.44C2311.25 1283.62 2305.06 1280.72 2299.25 1280.72C2290.44 1280.72 2282.75 1285.12 2276.19 1293.94C2269.62 1302.75 2266.34 1313.16 2266.34 1325.16C2266.34 1338.84 2270.66 1350.75 2279.28 1360.88C2288.09 1370.81 2298.97 1375.78 2311.91 1375.78C2316.97 1375.78 2321.56 1375.03 2325.69 1373.53C2330 1371.84 2333.19 1370.06 2335.25 1368.19C2337.5 1366.12 2339.66 1364.34 2341.72 1362.84C2343.97 1361.16 2345.75 1360.31 2347.06 1360.31C2348.38 1360.31 2349.5 1360.78 2350.44 1361.72C2351.38 1362.66 2351.84 1363.78 2351.84 1365.09C2351.84 1366.59 2351.28 1368.09 2350.16 1369.59C2345.09 1376.53 2338.44 1382.34 2330.19 1387.03C2321.94 1391.72 2312.75 1394.06 2302.62 1394.06ZM2358.59 1329.66C2358.59 1310.16 2363.75 1294.5 2374.06 1282.69C2384.38 1270.88 2396.94 1264.97 2411.75 1264.97C2421.31 1264.97 2430.5 1267.59 2439.31 1272.84C2448.12 1278.09 2455.44 1284.66 2461.25 1292.53C2462.75 1294.41 2463.5 1296.47 2463.5 1298.72V1299.28C2463.5 1300.97 2463.03 1302.47 2462.09 1303.78C2461.16 1305.09 2459.66 1306.31 2457.59 1307.44C2455.53 1308.38 2453.75 1309.12 2452.25 1309.69C2450.75 1310.25 2448.5 1311 2445.5 1311.94C2442.69 1312.88 2440.91 1313.44 2440.16 1313.62C2400.97 1327.12 2380.91 1334.16 2379.97 1334.72C2379.22 1335.09 2378.84 1335.66 2378.84 1336.41C2378.84 1337.53 2379.12 1339.41 2379.69 1342.03C2380.25 1344.66 2381.47 1348.12 2383.34 1352.44C2385.41 1356.75 2387.84 1360.78 2390.66 1364.53C2393.66 1368.09 2397.88 1371.28 2403.31 1374.09C2408.75 1376.72 2414.84 1378.03 2421.59 1378.03C2434.72 1378.03 2446.16 1373.34 2455.91 1363.97C2458.53 1361.34 2460.69 1360.03 2462.38 1360.03C2465.56 1360.03 2467.16 1361.44 2467.16 1364.25C2467.16 1365.38 2466.41 1366.88 2464.91 1368.75C2458.91 1376.62 2451.41 1382.91 2442.41 1387.59C2433.41 1392.09 2423.94 1394.34 2414 1394.34C2407.62 1394.34 2401.34 1393.22 2395.16 1390.97C2389.16 1388.72 2383.25 1385.25 2377.44 1380.56C2371.81 1375.88 2367.22 1369.12 2363.66 1360.31C2360.28 1351.5 2358.59 1341.28 2358.59 1329.66ZM2435.66 1299.84C2435.66 1297.41 2432.38 1293.66 2425.81 1288.59C2419.25 1283.34 2412.41 1280.72 2405.28 1280.72C2396.84 1280.72 2390.09 1284.38 2385.03 1291.69C2380.16 1299 2377.72 1309.03 2377.72 1321.78C2377.72 1323.28 2378.19 1324.03 2379.12 1324.03C2379.5 1324.03 2388.41 1320.66 2405.84 1313.91C2423.47 1306.97 2432.56 1303.41 2433.12 1303.22C2434.81 1302.28 2435.66 1301.16 2435.66 1299.84Z" fill="#594949"/>
</g>
<defs>
<filter id="filter0_d_6_113" x="229.17" y="522.315" width="560.071" height="874.974" filterUnits="userSpaceOnUse" color-interpolation-filters="sRGB">
<feFlood flood-opacity="0" result="BackgroundImageFix"/>
<feColorMatrix in="SourceAlpha" type="matrix" values="0 0 0 0 0 0 0 0 0 0 0 0 0 0 0 0 0 0 127 0" result="hardAlpha"/>
<feOffset dy="60.67"/>
<feGaussianBlur stdDeviation="1.35572"/>
<feColorMatrix type="matrix" values="0 0 0 0 0 0 0 0 0 0 0 0 0 0 0 0 0 0 0.25 0"/>
<feBlend mode="normal" in2="BackgroundImageFix" result="effect1_dropShadow_6_113"/>
<feBlend mode="normal" in="SourceGraphic" in2="effect1_dropShadow_6_113" result="shape"/>
</filter>
<filter id="filter1_d_6_113" x="250.53" y="555.648" width="517.344" height="752.662" filterUnits="userSpaceOnUse" color-interpolation-filters="sRGB">
<feFlood flood-opacity="0" result="BackgroundImageFix"/>
<feColorMatrix in="SourceAlpha" type="matrix" values="0 0 0 0 0 0 0 0 0 0 0 0 0 0 0 0 0 0 127 0" result="hardAlpha"/>
<feOffset dy="4"/>
<feGaussianBlur stdDeviation="2"/>
<feColorMatrix type="matrix" values="0 0 0 0 0 0 0 0 0 0 0 0 0 0 0 0 0 0 0.25 0"/>
<feBlend mode="normal" in2="BackgroundImageFix" result="effect1_dropShadow_6_113"/>
<feBlend mode="normal" in="SourceGraphic" in2="effect1_dropShadow_6_113" result="shape"/>
</filter>
<filter id="filter2_d_6_113" x="1382.38" y="796.75" width="1157.44" height="621.875" filterUnits="userSpaceOnUse" color-interpolation-filters="sRGB">
<feFlood flood-opacity="0" result="BackgroundImageFix"/>
<feColorMatrix in="SourceAlpha" type="matrix" values="0 0 0 0 0 0 0 0 0 0 0 0 0 0 0 0 0 0 127 0" result="hardAlpha"/>
<feOffset dx="20" dy="20"/>
<feGaussianBlur stdDeviation="2"/>
<feComposite in2="hardAlpha" operator="out"/>
<feColorMatrix type="matrix" values="0 0 0 0 1 0 0 0 0 1 0 0 0 0 1 0 0 0 0.8 0"/>
<feBlend mode="normal" in2="BackgroundImageFix" result="effect1_dropShadow_6_113"/>
<feBlend mode="normal" in="SourceGraphic" in2="effect1_dropShadow_6_113" result="shape"/>
</filter>
<linearGradient id="paint0_linear_6_113" x1="491.393" y1="521.971" x2="529.599" y2="1318.65" gradientUnits="userSpaceOnUse">
<stop/>
<stop offset="0.5" stop-color="#404040"/>
<stop offset="1"/>
</linearGradient>
<linearGradient id="paint1_linear_6_113" x1="495.288" y1="559.817" x2="522.196" y2="1299.07" gradientUnits="userSpaceOnUse">
<stop/>
<stop offset="0.5" stop-color="#404040"/>
<stop offset="1"/>
</linearGradient>
<linearGradient id="paint2_linear_6_113" x1="510.012" y1="974.508" x2="496.01" y2="550.292" gradientUnits="userSpaceOnUse">
<stop stop-color="white" stop-opacity="0"/>
<stop offset="1" stop-color="white" stop-opacity="0.5"/>
</linearGradient>
<linearGradient id="paint3_linear_6_113" x1="1174" y1="1125" x2="697" y2="669" gradientUnits="userSpaceOnUse">
<stop offset="0.324692" stop-color="#FBABAB"/>
<stop offset="1" stop-color="white" stop-opacity="0"/>
</linearGradient>
</defs>
</svg>
