<svg width="1652" height="1534" viewBox="0 0 1652 1534" fill="none" xmlns="http://www.w3.org/2000/svg">
<g id="logo 1" clip-path="url(#clip0_6_16)">
<g id="Group" filter="url(#filter0_d_6_16)">
<path id="Vector" d="M524.517 1333.77C677.441 1328 794.556 1141.7 786.099 917.658C777.643 693.619 646.818 516.679 493.894 522.452C340.969 528.224 223.855 714.523 232.312 938.562C240.768 1162.6 371.593 1339.54 524.517 1333.77Z" fill="white"/>
<path id="Vector_2" d="M494.155 529.848C344.033 535.514 229.1 718.386 237.402 938.331C245.704 1158.27 374.093 1331.96 524.217 1326.3C674.337 1320.63 789.343 1137.75 781.042 917.811C772.744 697.866 644.274 524.181 494.155 529.848ZM490.917 533.749L494.525 543.48C446.95 545.314 403.022 565.553 365.774 599.462L364.791 588.687C401.57 556.09 444.482 536.347 490.917 533.749ZM497.969 533.588C544.353 532.743 588.539 549.117 627.585 578.767L627.717 589.889C587.963 558.742 542.566 541.723 494.885 543.466L497.969 533.588ZM494.804 547.039C638.438 541.617 761.304 707.817 769.247 918.256C777.19 1128.68 667.203 1303.68 523.568 1309.11C379.934 1314.53 257.068 1148.31 249.125 937.888C241.182 727.453 351.169 552.46 494.804 547.039ZM358.944 594.051L365.499 599.787C327.047 634.902 295.795 684.608 274.92 743.555L270.336 734.7C291.199 677.515 321.715 629.061 358.944 594.051ZM634.116 583.874C673.81 615.992 707.784 661.949 732.855 717.347L729.179 726.828C704.004 669.645 669.121 622.376 628.232 590.185L634.116 583.874ZM267.145 743.638L274.788 743.875C254.554 801.152 244.121 867.116 246.644 937.037L239.762 932.153C237.899 864.16 247.908 799.922 267.145 743.638ZM736.947 726.535C760.299 781.261 775.067 844.605 778.251 912.562L771.668 917.535C768.963 847.909 753.853 783.113 729.571 727.653L736.947 726.535ZM246.664 937.561C246.669 937.702 246.674 937.839 246.68 937.981C249.302 1007.46 264.36 1072.24 288.482 1127.66L281.106 1128.78C257.835 1073.94 243.132 1010.46 240.078 942.429L246.664 937.561ZM771.712 918.688L778.666 923.569C780.573 991.389 770.652 1055.56 751.559 1111.76L743.992 1111.62C764.083 1054.41 774.281 988.441 771.712 918.688ZM288.797 1128.39C313.863 1185.71 348.637 1232.98 389.469 1265.35L383.589 1271.77C343.979 1239.49 310.013 1193.46 285.054 1137.97L288.797 1128.39ZM743.536 1112.9L748.044 1121.65C727.22 1178.7 696.832 1227 659.712 1261.98L653.085 1256.24C691.419 1221.17 722.694 1171.68 743.536 1112.9ZM390.211 1265.96C429.888 1297.18 475.224 1314.27 522.84 1312.7L519.688 1322.69C473.383 1323.34 429.299 1306.81 390.343 1277.08L390.211 1265.96ZM652.25 1257.01L653.237 1267.89C616.505 1300.3 573.641 1319.96 527.315 1322.51L523.703 1312.67C571.186 1310.88 615.04 1290.76 652.25 1257.01Z" fill="url(#paint0_linear_6_16)"/>
<g id="Group_2" filter="url(#filter1_d_6_16)">
<path id="Vector_3" d="M471.142 557.485L471.284 561.259L471.316 562.098L471.454 565.766L474.043 565.669L474.978 565.633L482.602 607.335L478.321 646.546L477.386 646.582L474.868 646.677L475.007 650.345L475.039 651.184L475.181 654.958L477.698 654.863L484.818 654.594L487.335 654.499L487.193 650.725L487.161 649.887L487.023 646.218L484.65 646.307L486.518 629.021L489.612 646.12L487.167 646.212L487.305 649.881L487.337 650.72L487.479 654.493L489.996 654.398L497.188 654.127L499.418 654.043L499.706 654.032L501.935 653.948L509.055 653.679L509.127 653.676L511.572 653.584L511.644 653.581L520.994 653.228L523.511 653.133L523.368 649.36L523.337 648.521L523.198 644.852L520.681 644.947L520.178 644.966L517.123 564.043L517.626 564.024L520.144 563.929L520.005 560.26L519.973 559.421L519.831 555.648L517.314 555.743L507.964 556.095L507.893 556.098L505.447 556.19L505.375 556.193L496.673 556.522L496.026 556.546L494.084 556.619L493.509 556.641L486.892 556.891L485.526 556.942L484.375 556.986L483.008 557.037L473.731 557.388L471.142 557.485ZM483.465 565.313L484.688 565.267L485.838 565.223L487.061 565.177L485.73 577.614L483.465 565.313ZM493.462 564.936L493.821 564.922L494.397 564.9L496.338 564.827L496.77 564.811L499.825 645.735L499.393 645.751L499.105 645.762L498.17 645.797L489.725 599.508L493.462 564.936ZM505.185 564.493L505.688 564.474L505.76 564.472L508.205 564.379L508.277 564.377L508.708 564.36L511.763 645.284L511.331 645.3L511.26 645.303L508.814 645.395L508.743 645.398L508.239 645.417L505.185 564.493ZM385.916 596.918L383.825 598.781L375.956 605.902L374.984 606.883L374.357 607.432L368.298 612.909L367.187 614.001L365.096 615.864L357.231 623.089L355.14 624.953L356.557 628.153L356.873 628.876L358.214 631.975L360.376 630.109L361.14 629.345L381.905 660.473L391.68 698.104L390.844 698.87L388.754 700.734L390.099 703.937L390.415 704.66L391.832 707.861L393.918 705.893L399.905 700.418L401.996 698.554L400.651 695.351L400.335 694.628L398.99 691.425L396.971 693.286L392.67 676.652L401.076 689.457L399.058 691.317L400.475 694.518L400.718 695.244L402.136 698.444L404.294 696.473L412.16 689.248L414.318 687.277L420.237 681.91L422.324 679.942L420.982 676.843L420.667 676.12L419.25 672.92L417.163 674.888L416.744 675.218L386.484 606.239L386.903 605.908L389.062 603.937L387.644 600.737L387.329 600.014L385.916 596.918ZM618.121 597.076L616.949 600.374L616.689 601.119L615.513 604.312L617.814 606.115L618.185 606.416L593.211 677.48L592.839 677.18L590.543 675.482L589.439 678.673L589.179 679.417L588.007 682.716L590.308 684.518L598.62 691.028L600.921 692.83L602.02 689.535L602.28 688.79L603.452 685.492L601.156 683.794L600.78 683.388L625.754 612.324L626.126 612.624L628.426 614.427L629.526 611.131L629.786 610.387L630.962 607.193L628.662 605.391L620.349 598.881L618.121 597.076ZM379.381 612.701L409.641 681.68L409.086 682.226L408.318 682.885L385.265 648.379L376.667 615.217L377.431 614.454L379.381 612.701ZM371.304 620.039L374.42 631.993L368.314 622.881L370.332 621.02L371.304 620.039ZM288.651 733.38L287.479 736.678L284.228 745.934L283.128 749.229L282.472 750.934L278.316 762.952L277.144 766.251L279.441 767.949L279.888 768.352L282.189 770.154L283.289 766.859L283.749 765.687L312.08 777.844L333.231 803.918L332.771 805.09L331.671 808.386L333.9 810.192L334.419 810.592L336.716 812.29L337.82 809.099L341.075 799.948L342.175 796.653L339.946 794.847L339.427 794.447L337.202 792.746L336.094 795.832L326.729 784.324L338.298 789.346L337.194 792.537L339.495 794.339L340.014 794.74L342.239 796.44L343.415 793.247L347.639 781.12L348.811 777.822L346.582 776.017L346.063 775.616L343.762 773.814L342.662 777.109L342.202 778.281L310.795 764.771L292.14 741.856L292.524 740.582L293.7 737.388L291.399 735.586L290.88 735.185L288.651 733.38ZM715.038 718.545L712.879 720.516L712.392 720.955L710.305 722.923L711.647 726.021L711.882 726.537L665.583 768.804L665.348 768.288L664.002 765.085L661.844 767.056L661.356 767.494L659.27 769.463L660.611 772.561L665.733 784.23L665.813 784.437L667.154 787.535L672.276 799.204L673.693 802.404L675.78 800.436L676.267 799.998L678.426 798.027L677.012 794.931L676.773 794.31L723.072 752.043L723.311 752.664L724.725 755.76L726.815 753.896L727.303 753.458L729.461 751.487L728.044 748.286L722.922 736.618L721.581 733.519L721.505 733.417L716.383 721.749L715.038 718.545ZM289.209 750.049L295.93 758.299L287.585 754.73L288.692 751.644L289.209 750.049ZM716.533 737.174L716.768 737.69L716.844 737.792L718.19 740.995L718.425 741.511L672.122 783.674L671.891 783.262L670.545 780.059L670.47 779.957L670.234 779.441L716.533 737.174ZM315.354 904.632L315.492 908.301L315.543 909.664L284.127 920.717L260.4 914.16L260.349 912.797L260.21 909.128L257.693 909.223L257.118 909.245L254.529 909.343L254.667 913.011L255.067 923.599L255.138 925.485L255.205 927.267L255.28 929.259L255.751 941.733L255.795 942.886L255.894 945.507L255.937 946.66L256.408 959.134L256.547 962.803L259.136 962.705L259.711 962.683L262.228 962.588L262.09 958.919L262.066 958.29L317.3 956.205L317.324 956.834L317.462 960.503L319.98 960.408L320.555 960.386L323.072 960.291L322.934 956.623L322.443 943.625L322.419 942.996L322.305 939.956L322.277 939.222L321.909 929.473L321.77 925.805L319.253 925.9L318.678 925.921L316.161 926.016L316.291 929.475L304.43 926.249L316.018 922.243L316.153 925.807L318.67 925.712L319.245 925.69L321.763 925.595L321.624 921.926L321.102 908.089L320.963 904.421L318.446 904.516L317.871 904.537L315.354 904.632ZM695.303 894.07L695.445 897.843L695.96 911.471L695.964 911.575L696.102 915.244L696.106 915.349L696.62 928.976L696.624 929.08L696.763 932.749L696.767 932.854L697.281 946.481L697.42 950.15L699.937 950.055L700.512 950.033L703.029 949.938L702.891 946.269L702.867 945.64L758.101 943.555L758.125 944.184L758.264 947.853L760.781 947.758L761.356 947.736L763.873 947.641L763.735 943.973L763.22 930.345L763.217 930.241L763.078 926.572L763.074 926.467L762.56 912.84L762.556 912.736L762.417 909.067L762.413 908.962L761.899 895.335L761.757 891.562L759.239 891.657L758.664 891.678L756.147 891.773L756.289 895.547L756.309 896.071L701.075 898.156L701.055 897.632L700.913 893.858L698.395 893.953L697.82 893.975L695.303 894.07ZM260.756 923.594L269.27 925.897L260.954 928.835L260.887 927.053L260.82 925.271L260.756 923.594ZM701.546 910.63L756.78 908.545L756.804 909.174L756.808 909.279L756.946 912.947L756.95 913.052L756.97 913.576L701.736 915.661L701.716 915.137L701.712 915.032L701.573 911.363L701.569 911.259L701.546 910.63ZM289.713 931.318L316.639 938.7L316.667 939.434L316.695 940.167L316.81 943.207L316.833 943.836L261.599 945.921L261.476 942.672L261.433 941.519L261.425 941.309L289.713 931.318ZM702.206 928.135L757.441 926.051L757.464 926.679L757.468 926.784L757.607 930.453L757.611 930.558L757.631 931.082L702.396 933.167L702.377 932.642L702.373 932.538L702.234 928.869L702.23 928.764L702.206 928.135ZM335.064 1031.85L332.974 1033.71L332.486 1034.15L330.328 1036.12L331.745 1039.32L331.981 1039.84L285.681 1082.11L285.442 1081.49L284.029 1078.39L281.938 1080.25L281.451 1080.69L279.292 1082.66L280.71 1085.86L285.831 1097.53L285.835 1097.64L287.249 1100.73L292.371 1112.4L293.788 1115.6L293.792 1115.71L298.914 1127.38L300.331 1130.58L303.72 1138.32L305.137 1141.52L307.224 1139.55L307.711 1139.11L309.87 1137.14L308.456 1134.05L308.376 1133.84L331.304 1119.22L311.921 1141.9L311.77 1141.69L310.424 1138.49L308.266 1140.46L307.85 1140.89L305.688 1142.76L307.105 1145.96L312.227 1157.63L313.573 1160.83L315.731 1158.86L316.147 1158.43L318.305 1156.46L316.892 1153.36L316.496 1152.43L362.028 1099.38L363.827 1097.42L362.566 1094.53L361.935 1093.08L360.749 1090.3L358.711 1091.63L304.987 1126.1L304.52 1125.17L303.414 1122.59L349.713 1080.32L349.949 1080.84L351.294 1084.04L353.453 1082.07L353.94 1081.63L356.027 1079.66L354.681 1076.46L349.559 1064.79L349.484 1064.69L348.142 1061.59L343.02 1049.92L341.603 1046.72L341.599 1046.61L336.477 1034.95L335.064 1031.85ZM685.83 1032.36L684.658 1035.66L680.431 1047.68L679.259 1050.98L681.552 1052.57L682.071 1052.97L684.372 1054.78L685.476 1051.59L685.74 1050.95L735.301 1089.38L735.105 1089.92L733.933 1093.21L736.23 1094.91L736.749 1095.31L738.982 1097.22L740.154 1093.92L744.382 1081.9L745.558 1078.71L743.257 1076.91L742.738 1076.51L740.513 1074.81L739.337 1078L739.141 1078.53L689.58 1040.09L689.775 1039.56L690.875 1036.27L688.65 1034.56L688.135 1034.27L685.83 1032.36ZM336.631 1050.48L336.867 1050.99L336.871 1051.1L337.342 1052.13L338.208 1054.09L338.284 1054.19L338.524 1054.81L292.224 1097.08L291.985 1096.46L290.572 1093.36L290.564 1093.15L290.332 1092.74L336.631 1050.48ZM343.17 1065.35L343.406 1065.86L343.41 1065.97L344.827 1069.17L345.063 1069.68L298.763 1111.95L298.528 1111.43L298.452 1111.33L297.107 1108.13L296.871 1107.61L343.17 1065.35ZM674.631 1063.86L673.591 1066.83L673.071 1068.32L672.1 1071.2L673.901 1073.12L722.602 1125.03L722.354 1126.09L721.182 1129.39L723.403 1130.98L723.926 1131.49L726.227 1133.29L727.403 1130.1L730.515 1120.95L731.763 1117.76L729.39 1115.96L728.871 1115.56L726.714 1113.75L725.542 1117.05L725.474 1117.15L704.686 1094.95L728.406 1108.96L728.266 1109.07L727.166 1112.36L729.395 1114.17L729.914 1114.57L732.211 1116.27L733.391 1113.18L737.546 1101.16L738.718 1097.86L736.422 1096.16L735.898 1095.66L733.598 1093.86L732.494 1097.05L732.242 1098L676.773 1065.24L674.631 1063.86ZM401.72 1151.1L400.62 1154.4L400.36 1155.14L399.184 1158.34L401.485 1160.14L401.857 1160.44L376.883 1231.5L376.511 1231.2L374.214 1229.51L373.11 1232.7L372.85 1233.44L371.679 1236.74L373.979 1238.54L382.291 1245.05L384.592 1246.85H384.664L392.976 1253.36L394.166 1254.37L394.462 1254.56L400.773 1259.58L403.07 1261.27L404.246 1258.08L404.506 1257.33L405.606 1254.04L403.377 1252.23L403.233 1252.24L417.74 1222.51L409.017 1256.64L408.797 1256.54L406.568 1254.74L405.396 1258.04L405.136 1258.78L404.036 1262.08L406.261 1263.78L414.649 1270.39L416.874 1272.09L418.05 1268.9L418.31 1268.15L419.41 1264.86L417.181 1263.05L416.514 1262.55L437.188 1182.52L437.937 1179.44L435.932 1177.84L434.893 1177.04L432.892 1175.54L431.62 1178.11L397.665 1247.83L397.441 1247.63L395.512 1246.13L395.141 1245.83L420.115 1174.76L420.486 1175.06L422.711 1176.76L423.887 1173.57L424.147 1172.83L425.319 1169.53L423.018 1167.72L414.706 1161.21L414.63 1161.11L414.039 1160.72L412.405 1159.41L412.334 1159.42L404.021 1152.91L401.72 1151.1ZM409.426 1166.35L409.797 1166.65L412.098 1168.45H412.17L412.545 1168.85L387.571 1239.92L387.2 1239.62L387.124 1239.52L384.823 1237.71L384.456 1237.52L409.426 1166.35ZM614.22 1159.67L612.27 1161.42L611.295 1162.3L609.488 1164.04L610.39 1166.95L635.58 1246.62L634.956 1247.27L632.798 1249.24L634.211 1252.34L634.527 1253.06L635.872 1256.26L638.03 1254.29L643.946 1248.82L646.108 1246.96L644.691 1243.76L644.375 1243.03L643.03 1239.83L640.872 1241.8L640.804 1241.91L630.089 1207.99L646.164 1236.98L646.024 1237.09L643.937 1239.06L645.283 1242.26L645.598 1242.99L647.011 1246.08L649.102 1244.22L656.895 1237L659.058 1235.13L657.64 1231.93L657.325 1231.21L655.98 1228L653.821 1229.97L653.266 1230.52L615.618 1162.34L614.22 1159.67ZM499.898 1202.93L500.04 1206.7L500.072 1207.54L500.21 1211.21L502.799 1211.11L503.231 1211.09L506.286 1292.02L505.854 1292.03L503.265 1292.13L503.403 1295.8L503.435 1296.64L503.574 1300.31L506.163 1300.21L514.577 1299.89L515.44 1299.86L517.094 1299.8L518.029 1299.76L524.214 1299.53L526.804 1299.43L526.665 1295.76L526.633 1294.92L526.495 1291.26L523.906 1291.35L523.834 1291.36L525.977 1254.64L530.235 1291.11L530.019 1291.12L527.502 1291.22L527.64 1294.89L527.672 1295.72L527.811 1299.39L530.328 1299.3L539.677 1298.95L542.195 1298.85L542.056 1295.18L542.024 1294.34L541.886 1290.67L539.369 1290.77L538.65 1290.8L528.864 1205.19L528.522 1201.85L526.221 1201.93L525.07 1201.98L522.84 1202.06L522.675 1205.32L517.577 1291.59L516.786 1291.62L515.132 1291.68L514.772 1291.7L511.718 1210.77L512.077 1210.76L514.667 1210.66L514.528 1206.99L514.496 1206.16L514.354 1202.38L511.765 1202.48L502.487 1202.83L499.898 1202.93Z" fill="url(#paint1_linear_6_16)"/>
</g>
<path id="Vector_4" d="M468.057 534.451L464.094 535.219L465.388 547.031L465.776 550.587C467.095 550.319 468.425 550.064 469.744 549.826L469.354 546.27L468.057 534.451Z" fill="#010101"/>
<path id="Vector_5" d="M440.277 541.707L436.394 543.07L438.521 554.605L439.162 558.084C440.456 557.622 441.74 557.147 443.039 556.699L442.403 553.212L440.277 541.707Z" fill="#010101"/>
<path id="Vector_6" d="M413.255 553.175L409.505 555.134L412.422 566.283L413.312 569.662C414.552 568.994 415.807 568.342 417.058 567.707L416.176 564.318L413.255 553.175Z" fill="#010101"/>
<path id="Vector_7" d="M387.275 568.743L383.704 571.276L387.398 581.96L388.513 585.199C389.703 584.345 390.902 583.51 392.097 582.679L390.972 579.447L387.275 568.743Z" fill="#010101"/>
<path id="Vector_8" d="M339.615 611.501L336.504 615.089L341.638 624.539L343.186 627.386C344.214 626.181 345.25 624.98 346.297 623.795L344.747 620.951L339.615 611.501Z" fill="#010101"/>
<path id="Vector_9" d="M318.436 638.213L315.606 642.267L321.386 650.92L323.125 653.521C324.065 652.162 325.016 650.816 325.968 649.48L324.229 646.879L318.436 638.213Z" fill="#010101"/>
<path id="Vector_10" d="M299.356 668.106L296.835 672.571L303.184 680.323L305.1 682.659C305.931 681.157 306.766 679.654 307.616 678.17L305.707 675.848L299.356 668.106Z" fill="#010101"/>
<path id="Vector_11" d="M282.57 700.84L280.395 705.682L287.227 712.424L289.288 714.459C290.005 712.833 290.737 711.22 291.472 709.62L289.406 707.585L282.57 700.84Z" fill="#010101"/>
<path id="Vector_12" d="M256.605 773.389L255.183 778.831L262.747 783.359L265.037 784.734C265.51 782.915 265.974 781.101 266.464 779.292L264.169 777.924L256.605 773.389Z" fill="#010101"/>
<path id="Vector_13" d="M256.872 822.427C257.205 820.547 257.544 818.656 257.902 816.792L255.531 815.773L247.709 812.413L246.684 818.045L254.499 821.405L256.872 822.427Z" fill="#010101"/>
<path id="Vector_14" d="M251.49 861.3C251.684 859.361 251.902 857.441 252.12 855.515L249.692 854.871L241.673 852.711L241.074 858.498L249.062 860.645L251.49 861.3Z" fill="#010101"/>
<path id="Vector_15" d="M248.965 900.913C249.022 898.952 249.094 897.001 249.168 895.05L246.719 894.766L238.582 893.824L238.393 899.686L246.511 900.616L248.965 900.913Z" fill="#010101"/>
<path id="Vector_16" d="M252.376 980.539C252.156 978.599 251.942 976.659 251.744 974.708L249.314 975.169L241.288 976.735L241.93 982.555L249.958 981.003L252.376 980.539Z" fill="#010101"/>
<path id="Vector_17" d="M258.297 1019.73C257.939 1017.82 257.572 1015.92 257.233 1014.02L254.868 1014.85L247.051 1017.62L248.108 1023.33L255.929 1020.56L258.297 1019.73Z" fill="#010101"/>
<path id="Vector_18" d="M265.517 1052.37L263.232 1053.57L255.695 1057.52L257.159 1063.05L264.683 1059.12L266.971 1057.92C266.472 1056.06 265.992 1054.23 265.517 1052.37Z" fill="#010101"/>
<path id="Vector_19" d="M274.314 1090.9L267.113 1096L268.954 1101.3L276.134 1096.2L278.312 1094.66C277.694 1092.89 277.095 1091.13 276.491 1089.36L274.314 1090.9Z" fill="#010101"/>
<path id="Vector_20" d="M304.056 1159.8L297.759 1167.05L300.294 1171.7L306.594 1164.46L308.493 1162.28C307.644 1160.72 306.789 1159.18 305.953 1157.61L304.056 1159.8Z" fill="#010101"/>
<path id="Vector_21" d="M322.386 1190.62L316.644 1198.82L319.497 1203.08L325.224 1194.89L326.96 1192.42C325.999 1191.01 325.057 1189.57 324.114 1188.14L322.386 1190.62Z" fill="#010101"/>
<path id="Vector_22" d="M342.738 1218.59L337.636 1227.66L340.769 1231.46L345.872 1222.38L347.408 1219.66C346.365 1218.39 345.313 1217.13 344.275 1215.85L342.738 1218.59Z" fill="#010101"/>
<path id="Vector_23" d="M364.917 1243.38L360.515 1253.2L363.887 1256.5L368.285 1246.71L369.615 1243.76C368.49 1242.65 367.365 1241.55 366.25 1240.42L364.917 1243.38Z" fill="#010101"/>
<path id="Vector_24" d="M413.752 1282.41L410.878 1293.34L414.629 1295.57L417.499 1284.64L418.376 1281.32C417.12 1280.6 415.868 1279.86 414.62 1279.09L413.752 1282.41Z" fill="#010101"/>
<path id="Vector_25" d="M439.891 1296.17L437.83 1307.51L441.702 1309.15L443.767 1297.84L444.397 1294.39C443.104 1293.84 441.808 1293.29 440.519 1292.73L439.891 1296.17Z" fill="#010101"/>
<path id="Vector_26" d="M466.789 1305.86L465.556 1317.52L469.514 1318.58L470.751 1306.95L471.127 1303.43C469.798 1303.08 468.486 1302.7 467.165 1302.32L466.789 1305.86Z" fill="#010101"/>
<path id="Vector_27" d="M494.149 1311.4L493.754 1323.26L497.754 1323.72L498.157 1311.87L498.275 1308.28C496.94 1308.15 495.599 1307.98 494.272 1307.81L494.149 1311.4Z" fill="#010101"/>
<path id="Vector_28" d="M552.627 1305.64C551.307 1305.9 549.989 1306.16 548.666 1306.39L549.058 1309.96L550.363 1321.75L554.308 1320.97L553.015 1309.19L552.627 1305.64Z" fill="#010101"/>
<path id="Vector_29" d="M579.24 1298.14C577.951 1298.6 576.664 1299.07 575.37 1299.52L576.013 1303.02L578.137 1314.53L581.999 1313.14L579.884 1301.63L579.24 1298.14Z" fill="#010101"/>
<path id="Vector_30" d="M605.093 1286.56C603.856 1287.23 602.604 1287.88 601.351 1288.5L602.246 1291.9L605.165 1303.04L608.891 1301.06L605.979 1289.94L605.093 1286.56Z" fill="#010101"/>
<path id="Vector_31" d="M629.886 1271.03C628.703 1271.88 627.508 1272.71 626.314 1273.54L627.439 1276.79L631.133 1287.46L634.687 1284.92L631.013 1274.28L629.886 1271.03Z" fill="#010101"/>
<path id="Vector_32" d="M675.222 1228.84C674.196 1230.03 673.16 1231.24 672.119 1232.41L673.667 1235.26L678.803 1244.7L681.897 1241.12L676.77 1231.7L675.222 1228.84Z" fill="#010101"/>
<path id="Vector_33" d="M695.285 1202.7C694.35 1204.06 693.402 1205.4 692.454 1206.72L694.198 1209.33L699.985 1217.99L702.789 1213.94L697.031 1205.31L695.285 1202.7Z" fill="#010101"/>
<path id="Vector_34" d="M713.306 1173.57C712.482 1175.07 711.644 1176.56 710.796 1178.03L712.705 1180.36L719.056 1188.11L721.558 1183.63L715.221 1175.89L713.306 1173.57Z" fill="#010101"/>
<path id="Vector_35" d="M729.122 1141.78C728.409 1143.39 727.674 1144.99 726.944 1146.6L729.005 1148.62L735.844 1155.37L738.005 1150.53L731.183 1143.8L729.122 1141.78Z" fill="#010101"/>
<path id="Vector_36" d="M753.372 1071.49C752.91 1073.3 752.442 1075.12 751.955 1076.92L754.251 1078.29L761.813 1082.83L763.217 1077.39L755.664 1072.87L753.372 1071.49Z" fill="#010101"/>
<path id="Vector_37" d="M761.538 1033.79C761.213 1035.68 760.871 1037.55 760.52 1039.42L762.891 1040.44L770.705 1043.78L771.701 1038.16L763.913 1034.8L761.538 1033.79Z" fill="#010101"/>
<path id="Vector_38" d="M766.924 994.916C766.725 996.845 766.512 998.761 766.291 1000.68L768.713 1001.34L776.734 1003.49L777.325 997.725L769.348 995.577L766.924 994.916Z" fill="#010101"/>
<path id="Vector_39" d="M769.45 955.308C769.395 957.272 769.328 959.22 769.252 961.171L771.698 961.438L779.829 962.37L780.003 956.539L771.899 955.606L769.45 955.308Z" fill="#010101"/>
<path id="Vector_40" d="M766.032 875.668C766.25 877.608 766.466 879.548 766.668 881.482L769.094 881.017L777.134 879.461L776.463 873.658L768.452 875.2L766.032 875.668Z" fill="#010101"/>
<path id="Vector_41" d="M760.117 836.499C760.471 838.39 760.838 840.284 761.177 842.196L763.54 841.344L771.363 838.573L770.285 832.904L762.479 835.661L760.117 836.499Z" fill="#010101"/>
<path id="Vector_42" d="M752.886 803.832L755.178 802.633L762.713 798.674L761.242 793.167L753.727 797.099L751.442 798.297C751.933 800.132 752.417 801.978 752.886 803.832Z" fill="#010101"/>
<path id="Vector_43" d="M744.091 765.301L751.298 760.189L749.449 754.917L742.273 760.002L740.084 761.539C740.706 763.299 741.31 765.077 741.911 766.848L744.091 765.301Z" fill="#010101"/>
<path id="Vector_44" d="M711.812 691.753L709.914 693.934C710.763 695.474 711.617 697.024 712.448 698.591L714.354 696.403L720.653 689.145L718.111 684.515L711.812 691.753Z" fill="#010101"/>
<path id="Vector_45" d="M693.176 661.324L691.448 663.787C692.405 665.192 693.346 666.631 694.285 668.064L696.013 665.587L701.763 657.365L698.907 653.133L693.176 661.324Z" fill="#010101"/>
<path id="Vector_46" d="M672.534 633.819L670.996 636.545C672.044 637.808 673.089 639.069 674.126 640.343L675.66 637.618L680.77 628.534L677.638 624.752L672.534 633.819Z" fill="#010101"/>
<path id="Vector_47" d="M650.118 609.502L648.787 612.455C649.911 613.558 651.034 614.678 652.155 615.794L653.482 612.845L657.898 603.011L654.516 599.709L650.118 609.502Z" fill="#010101"/>
<path id="Vector_48" d="M626.146 588.673L625.041 591.818C626.242 592.744 627.43 593.693 628.619 594.646L629.726 591.497L633.389 581.029L629.802 578.259L626.146 588.673Z" fill="#010101"/>
<path id="Vector_49" d="M600.896 571.568L600.027 574.882C601.277 575.621 602.533 576.36 603.777 577.126L604.652 573.808L607.518 562.87L603.774 560.64L600.896 571.568Z" fill="#010101"/>
<path id="Vector_50" d="M574.637 558.373L574.009 561.816C575.306 562.355 576.597 562.914 577.891 563.49L578.513 560.05L580.584 548.682L576.706 547.052L574.637 558.373Z" fill="#010101"/>
<path id="Vector_51" d="M547.648 549.274L547.274 552.791C548.596 553.131 549.917 553.508 551.238 553.888L551.615 550.363L552.854 538.681L548.894 537.638L547.648 549.274Z" fill="#010101"/>
<path id="Vector_52" d="M521.101 566.99L520.98 570.559C522.319 570.7 523.654 570.861 524.996 571.026L525.11 567.451L525.5 555.555L521.504 555.121L521.101 566.99Z" fill="#010101"/>
<path id="Vector_53" d="M764.513 916.319C768.511 1022.24 630.91 931.651 499.987 933.922C375.481 936.086 257.541 1036.32 253.739 935.599C245.94 728.96 353.958 557.125 495.003 551.801C636.048 546.477 756.713 709.681 764.513 916.319Z" fill="url(#paint2_linear_6_16)"/>
</g>
<path id="Vector_54" d="M1566.5 448.5L1552.5 427.5L1537.5 416.5L1521 421L1514.5 438.5L1518 451.5L1519.5 463L1518 484.5L1519.5 496L1524.5 504.5L1528.5 531L1534 522L1533 500.5V491L1537.5 484.5L1548.5 487L1566.5 507L1567.25 515.75L1568 524.5L1556.5 535.5L1568 532.5L1574.5 523V514.5V504.5L1607.5 532.5V524.5L1586 504.5L1587.5 500.5L1605.5 509.5L1623.5 523L1614 507L1597.5 492.5L1595.5 487L1614 482.5L1622 479L1603.5 477.5L1587.5 472.5L1577.5 466L1566.5 448.5Z" fill="#BFA595" stroke="#BFA595"/>
<path id="Vector_55" d="M1535.5 413.5L1554 425L1579 463L1589.5 470L1604 475.5H1613.5L1626.5 478L1641.5 487L1649.5 492L1623 481.5L1598 488.5L1600.5 492L1617 506L1630 528.5L1635 542.5L1617 520.5L1604 511L1587.5 503L1609 522.5L1613.5 556L1605.5 533.5L1577.5 511V523L1573 531.5L1562 537L1532.5 547L1556 531.5L1564.5 524.5V508L1547 490L1539 488.5L1535.5 492V520.5L1532.5 530L1526 537L1522.5 511V506L1516 495V483V472.5V456L1514 450.5" stroke="#BFA595" stroke-width="6"/>
<path id="Vector_56" d="M991 361C989.855 369.885 984.5 383 984.5 383C984.5 383 1017.54 475.094 1048 529.5C1053.3 538.967 1056.44 544.18 1062 553.5C1067.38 562.532 1067.48 570.343 1076 576.5C1079.54 579.056 1081.64 581.266 1086 581.5C1090.89 581.762 1092.61 576.209 1097.5 576.5C1102.85 576.819 1104.45 581.163 1109 584C1116.28 588.536 1128 595 1128 595C1128 595 1152.04 589.231 1165.5 595C1173.4 598.387 1177.13 602.12 1183.11 608.105L1183.5 608.5C1187.62 612.622 1188.39 616.436 1193 620C1197.91 623.796 1201.61 624.544 1207.5 626.5C1216.15 629.373 1221.42 629.689 1230.5 630.5C1240.22 631.368 1245.89 632.25 1255.5 630.5C1268.82 628.073 1273.91 619.479 1287 616C1293.52 614.268 1297.41 611.592 1304 613C1310.73 614.437 1311.93 620.97 1318.5 623C1327.52 625.787 1333.13 621.215 1342.5 620C1354.03 618.504 1360.57 618.131 1372 616C1384.24 613.717 1391.28 612.708 1403 608.5C1419.28 602.655 1442 587.5 1442 587.5C1442 587.5 1424.7 587.053 1414 584.5C1397.94 580.665 1389.3 576.071 1375.5 567C1360.84 557.362 1353.63 550.064 1342.5 536.5C1331.05 522.549 1327.14 512.847 1318.5 497C1308.76 479.134 1301.64 469.551 1296 450C1288.73 424.804 1291.5 383 1291.5 383C1291.5 383 1288.64 336.462 1280.5 308C1277.21 296.482 1276.12 289.578 1270.5 279C1265.77 270.101 1262.54 265.208 1255.5 258C1244.29 246.527 1235.81 241.298 1220.5 236.5C1206.67 232.164 1183.5 233.5 1183.5 233.5C1183.5 233.5 1178.52 222.346 1172 220C1165.05 217.496 1160.53 221.719 1153.5 224C1137.92 229.053 1132.93 240.018 1117.5 245.5C1109.91 248.195 1105.47 249.359 1097.5 250.5C1086.48 252.078 1080.02 248.944 1069 250.5C1058.35 252.004 1052.35 253.692 1042.5 258C1034 261.716 1028.92 263.823 1022 270C1015.56 275.747 1012.99 280.127 1008.5 287.5C1003.91 295.037 1002.06 299.723 999 308C994.209 320.974 992.078 328.712 991 342.5C990.437 349.703 991.923 353.835 991 361Z" fill="black"/>
<path id="Vector_57" d="M1166 367.5C1164.32 352.627 1156.36 345.463 1156 330.5C1155.79 321.856 1155.99 316.775 1158.5 308.5C1160.5 301.896 1166 292.5 1166 292.5C1166 292.5 1161.78 306.693 1162 316C1162.2 324.154 1164.29 328.524 1166 336.5C1169.92 354.839 1178.34 364.249 1178 383C1177.86 390.676 1177.07 394.984 1175.5 402.5L1175.4 402.995C1174.01 409.65 1173.18 413.603 1170.5 420C1166.46 429.64 1156 442.5 1156 442.5L1152 464.5L1156 487L1142 464.5V450L1152 426C1152 426 1163.41 408.666 1166 396C1168.23 385.096 1167.25 378.56 1166 367.5Z" fill="white"/>
<path id="Vector_58" d="M724.5 398L822 427V471.5L768.5 458.5L701 435L724.5 398Z" fill="#BFA595"/>
<path id="Vector_59" d="M881.5 412L867.5 404.5L845.5 398L799 404.5H712L644.5 384H631.5" stroke="black" stroke-width="5"/>
<path id="Vector_60" d="M855 470.5H822.5C822.5 470.5 790.353 460.1 769 458C753.065 456.433 718.341 439.83 702.5 437.5" stroke="black" stroke-width="7"/>
<path id="Vector_61" d="M893.5 608L882.5 649.5L893.5 712.5L882.5 772L683.5 684.5L738.5 626.5L792 567.5L807 540.5L816.5 511L801.5 498.5L792 474.5L801.5 445.5L816.5 431L848 419L931.5 406L994 385L1045 352.5L1081 373.5L1089.5 406L1045 427H1075.5L1097.5 455.5L1068 502.5L1032 521.5L994 540.5L966.5 572H939L893.5 608Z" fill="#BFA595"/>
<path id="Vector_62" d="M889.5 749C889.5 749 894.399 726.274 894.5 711.5C894.663 687.605 877.903 674.949 882.5 651.5C885.592 635.732 890.883 619.873 900.5 607C918.426 583.004 960.5 569.5 960.5 569.5C960.5 569.5 982.425 551.329 996 540C1020.61 519.465 1069 502.5 1069 502.5L1097 456L1078.5 428H1045.5L1089 406.5C1089 406.5 1089.94 385.422 1083.5 374.5C1074.74 359.644 1045.5 352 1045.5 352C1045.5 352 1016.76 374.566 996 385C972.773 396.675 958.24 400.277 933 406.5C901.63 414.235 851 417.5 851 417.5C851 417.5 828.886 420.363 817.5 428C807.857 434.468 801.445 439.08 797.5 450C793.984 459.733 796.268 466.225 797.5 476.5C799.118 490.002 805.53 496.481 807 510C807.95 518.735 808.146 523.788 807 532.5C805.421 544.5 802.964 551.2 797.5 562C790.534 575.769 773 593 773 593L705 662" stroke="black" stroke-width="5"/>
<path id="Vector_63" d="M1329 394.5L1295 403.5L1278.5 431.5L1286.5 445.5L1307.5 454.5C1307.5 454.5 1341.06 459.362 1363.5 458.5C1412.85 456.605 1464.5 439 1464.5 439L1508.5 445.5H1528.5L1537.5 416.5H1490.5L1417 409L1368.5 399.5L1329 394.5Z" fill="#BFA595"/>
<path id="Vector_64" d="M1288.5 451.5C1288.5 451.5 1308.16 456.609 1321 458.5C1349.4 462.682 1365.87 460.591 1394.5 458.5C1431.03 455.831 1451.37 434.494 1487 443C1496.67 445.309 1515 448.5 1515 448.5" stroke="#BFA595" stroke-width="6"/>
<path id="Vector_65" d="M1292 401.5C1292 401.5 1304.9 399.286 1317 396.5C1357.83 387.098 1386.38 402.751 1428 407.5C1457.98 410.921 1474.83 413.256 1505 414C1517.49 414.308 1537 414 1537 414" stroke="#BFA595" stroke-width="6"/>
<path id="Vector_66" d="M1068.5 501C1068.5 501 1087.75 502.134 1100 501C1121.08 499.048 1131.44 489.672 1152.5 487.5C1167.07 485.997 1175.47 489.301 1190 487.5C1205.42 485.59 1213.71 482.255 1228.5 477.5C1260.69 467.152 1307 441 1307 441" stroke="black" stroke-width="5"/>
<path id="Vector_67" d="M1043.5 431.5C1043.5 431.5 1063.08 422.69 1076.5 421C1093.85 418.814 1103.54 425.004 1121 426C1139.13 427.035 1146.84 426 1165 426C1181.99 426 1194.31 429.15 1211 426C1237.5 421 1253.01 418.659 1275 404C1277.8 402.137 1282 399 1282 399" stroke="black" stroke-width="5"/>
<path id="Vector_68" d="M1078.5 422.5C1068.85 423.4 1062.5 421.832 1054 426.5C1047.34 430.157 1043.52 433.27 1040 440C1034.84 449.863 1036.86 457.822 1040 468.5C1044.46 483.659 1051.58 493.031 1066 499.5C1079.54 505.576 1104 499.5 1104 499.5C1104 499.5 1129.29 488.778 1146.5 487C1156.21 485.997 1161.75 487.58 1171.5 487C1184.29 486.238 1191.51 485.36 1204 482.5C1216.4 479.66 1223.06 476.888 1235 472.5C1257.15 464.362 1272.81 461.381 1294 451C1299.88 448.118 1310.5 451 1310.5 451L1305 422.5L1294 402.5L1279 406.5C1279 406.5 1238.83 423.488 1211.5 426.5C1194.61 428.361 1184.99 426.5 1168 426.5C1155.7 426.5 1148.8 426.798 1136.5 426.5C1113.8 425.951 1101.11 420.392 1078.5 422.5Z" fill="#BFA595"/>
<path id="Vector_69" d="M1146.5 249.5C1152.52 248.881 1162 249.5 1162 249.5C1162 249.5 1147.01 261.96 1142.5 273C1138.85 281.948 1139.73 287.862 1139 297.5C1138.18 308.404 1136.81 314.786 1139 325.5C1141.26 336.553 1146.07 341.626 1150.5 352C1155.66 364.072 1163.5 383 1163.5 383L1156.5 389C1156.5 389 1132.06 398.991 1115.5 401C1103.29 402.481 1096.13 403.061 1084 401C1070.66 398.733 1063.11 395.947 1051.5 389C1043.62 384.286 1036.71 382.898 1033 374.5C1028.41 364.094 1034.43 356.799 1038 346C1042.96 330.992 1048.12 322.725 1057.5 310C1065.04 299.771 1070.26 294.654 1080 286.5C1086.98 280.659 1099 273 1099 273C1099 273 1125.91 251.615 1146.5 249.5Z" fill="#BFA595" stroke="black" stroke-width="5"/>
<path id="Vector_70" d="M1069 331C1069 331 1068.48 339.082 1067 344C1065.96 347.437 1064.6 349.024 1065.5 352.5C1066.26 355.441 1067.16 355.586 1069 358C1071.28 360.985 1070.44 363.317 1073.5 365.5C1075.66 367.044 1077.55 367.481 1080 368.5C1083.56 369.977 1085.18 371.544 1088.5 373.5C1092.8 376.034 1099.5 380 1099.5 380L1094 371C1094 371 1089 366.104 1088 362C1087.31 359.154 1089.51 357.012 1088 354.5C1086.69 352.317 1083.51 353.339 1082.5 351C1082.5 351 1084.04 347.388 1083 345.5C1081.95 343.588 1078 343 1078 343C1078 343 1074.94 341.901 1073.5 340.5C1073.5 340.5 1071.83 338.146 1071 336.5C1069.98 334.457 1069 331 1069 331Z" fill="#F07E7E"/>
<path id="Vector_71" d="M1090.5 349C1092.84 351.591 1100.5 352.5 1100.5 352.5V351C1100.5 348 1094.8 347.448 1094 346C1092.58 343.44 1094 338.5 1094 338.5C1094 338.5 1093.16 335.231 1091.5 335C1090.2 334.82 1087.39 340.5 1088.5 338.5C1090.3 335.259 1088.5 344.5 1088.5 344.5C1088.5 344.5 1089.56 347.956 1090.5 349Z" fill="black"/>
<path id="Vector_72" d="M1138.5 350.5C1136.75 346.675 1134 340 1134 340C1134 340 1132.86 344.535 1132.5 347.5C1131.94 352.152 1131.15 355.011 1132.5 359.5C1133.76 363.703 1135.11 366.209 1138.5 369C1141.61 371.561 1144.02 372.384 1148 373C1150.51 373.388 1154.5 373 1154.5 373C1154.5 373 1150.16 368.904 1148 367C1145.68 364.961 1142.63 360.122 1141 357.5C1138.56 353.569 1140.43 354.709 1138.5 350.5Z" fill="black"/>
<path id="Vector_73" d="M1102.5 287C1104.35 283.605 1109.5 280 1109.5 280C1109.5 280 1109.84 286.241 1109.5 288.5C1108.9 292.437 1110.63 295.261 1112 299C1113.38 302.775 1115.6 303.278 1118 306.5C1119.74 308.826 1121.37 309.598 1123 312C1123.64 312.942 1124.5 314.5 1124.5 314.5V315.5C1124.5 315.5 1120.02 316.556 1118 315.5C1114.82 313.835 1112.48 314.007 1109.5 312C1106.18 309.76 1104.33 308.065 1102.5 304.5C1101.2 301.97 1100.76 300.332 1100.5 297.5C1100.12 293.343 1100.5 290.666 1102.5 287Z" fill="black"/>
<path id="Vector_74" d="M686 747C697.492 713.151 705 692 705 692C705 692 774.805 676.096 814.5 692C849.574 706.053 887.5 755.5 887.5 755.5C887.5 755.5 882.416 817.4 867.5 853.5C852.796 889.088 838.315 906.556 813.5 936C794.102 959.017 811.281 973.977 792.5 997.5C781.551 1011.21 792.5 1027 792.5 1027C792.5 1027 781.055 1057.29 780.5 1077C779.828 1100.86 777.011 1116.03 770.5 1139C756.96 1186.76 719 1286.5 719 1286.5L639 1381L622.5 1462L598 1500L550 1524H509.5L538.5 1460.5L564 1400.5L613 1277.5L637.5 1155L650.5 1027C650.5 1027 662.517 966.238 675 932.5C686.057 902.618 677.32 877.157 686 846.5C696.479 809.493 673.635 783.42 686 747Z" fill="#BFA595" stroke="white" stroke-width="5"/>
<path id="Vector_75" d="M615 1424C622.165 1416.14 637.5 1404 637.5 1404L626.5 1459.5C626.5 1459.5 614.543 1487.83 600.5 1501C586.043 1514.56 555 1523.5 555 1523.5C555 1523.5 508.632 1543.94 506.5 1526.5C506.239 1524.37 506.5 1520 506.5 1520L534.5 1467C534.5 1467 530.791 1487.09 538.5 1495C550.875 1507.7 579.5 1475.5 579.5 1475.5C579.5 1475.5 598.54 1442.05 615 1424Z" fill="black"/>
<path id="Vector_76" d="M509 1520.5L534 1468.5L611.5 1275L632.5 1155" stroke="black" stroke-width="4"/>
<path id="dress" d="M989.5 731C964.912 705.272 961.505 680.806 933 659.5C925.191 653.663 921.155 649.351 912 646C902.037 642.353 885 643 885 643C885 643 889.735 618.084 898.5 605C913.895 582.019 938.336 586.811 959.5 569C974.827 556.101 994.5 531.5 994.5 531.5C994.5 531.5 975.262 477.339 948.5 455C929.729 439.332 916.514 431.602 892.5 427C875.816 423.803 858.656 417.161 842 420.5C827.636 423.379 819.853 426.135 809.5 436.5C799.404 446.608 796.774 448.716 796.5 463C796.212 478.012 809.5 513 809.5 513L800.5 564L746 619.5L685.5 687.5L649.5 762L615.5 897.5L649.5 1022C649.5 1022 712.464 1140.17 695 1216C688.302 1245.08 674.451 1258.03 665.5 1286.5C656.69 1314.52 649.5 1360 649.5 1360C649.5 1360 664.96 1356.37 671.5 1362C676.75 1366.52 676.382 1371.77 678 1378.5C681.335 1392.38 676 1415 676 1415L674 1441.5C674 1441.5 674.699 1467.56 684 1480C689.643 1487.55 694.024 1491.38 702.5 1495.5C709.91 1499.1 714.771 1500.07 723 1500.5C742.229 1501.51 749.98 1486.77 768.5 1481.5C779.44 1478.39 786.219 1479.13 797 1475.5C811.404 1470.66 831.5 1457.5 831.5 1457.5C831.5 1457.5 854.268 1441.08 868 1429.5C881.625 1418.01 901.5 1398.5 901.5 1398.5L928.5 1372C928.5 1372 938.426 1377.77 945.5 1379C957.916 1381.16 965.18 1376.37 977 1372C1006.01 1361.28 1015.93 1343.16 1038 1321.5C1063.63 1296.36 1074.6 1279.05 1097 1251C1125.8 1214.93 1168 1156.5 1168 1156.5L1213 1101L1262.5 1046L1325 980.5L1394.5 919.5C1394.5 919.5 1390.44 915.012 1387.5 912.5C1375.92 902.604 1362.84 907.664 1351.5 897.5C1343.99 890.774 1338.6 886.357 1336.5 876.5C1335.4 871.344 1335.67 868.206 1336.5 863C1337.55 856.41 1339.67 853.042 1342.5 847C1351.85 827.056 1365.27 821.222 1379 804C1409.63 765.589 1424.55 742.216 1450.5 700.5C1473.59 663.378 1505.5 603 1505.5 603L1525 562C1525 562 1531.01 551.466 1525 546.5C1512.35 536.049 1509.52 566.913 1499 579.5C1481.1 600.914 1470.26 612.287 1450.5 632C1431.33 651.128 1420.96 662.471 1399.5 679C1379.25 694.601 1366.01 700.685 1344.5 714.5C1307.49 738.27 1249.5 775 1249.5 775C1249.5 775 1223.88 789.766 1206 795.5C1180.52 803.672 1138 804 1138 804C1138 804 1114.88 803.567 1100.5 800.5C1084.07 796.997 1075.12 793.324 1060 786C1044.2 778.347 1035.84 772.797 1022 762C1008.17 751.21 1001.62 743.68 989.5 731Z" fill="url(#paint3_linear_6_16)" stroke="black"/>
<path id="Vector_77" d="M718 1237.5C690.359 1269.12 664 1330.5 664 1330.5C664 1330.5 680.365 1326.07 689.5 1320.5C703.3 1312.09 718 1290.5 718 1290.5L764 1258L781.5 1250V1258V1268.5C781.5 1268.5 786.268 1274.11 790.5 1275.5H801C801 1275.5 828.328 1253.22 844.5 1237.5C859.06 1223.34 865.947 1214.16 880 1199.5C896.912 1181.86 907.83 1173.32 924 1155C941.677 1134.97 949.718 1122.18 966 1101C979.162 1083.88 983.632 1071.65 999.5 1057C1013.03 1044.51 1020.17 1032.28 1038.5 1030.5H1048C1048 1030.5 1050.49 1041.07 1054.5 1046.5C1058.29 1051.63 1061.2 1054.35 1067 1057C1076.06 1061.14 1082.67 1058.62 1092.5 1057C1107.68 1054.49 1115.01 1048.39 1128.5 1041C1152.58 1027.81 1163.89 1016.64 1184.5 998.5C1222 965.483 1236.69 940.531 1268.5 902C1313.72 847.215 1379 757.5 1379 757.5C1379 757.5 1311.33 845.193 1263.5 897.5C1244.21 918.598 1234.78 931.983 1213 950.5C1186.88 972.704 1171.18 985.399 1139.5 998.5C1126.03 1004.07 1116.43 1017.61 1104 1010C1097.02 1005.73 1098.94 997.537 1092.5 992.5C1084.4 986.17 1077.28 985.894 1067 986C1053.22 986.142 1046.42 992.528 1034 998.5C1019.79 1005.33 999.5 1019.5 999.5 1019.5L980 1041L951.5 1081.5L906.5 1141C906.5 1141 874.322 1195.22 840 1199.5C832.443 1200.44 827.507 1202.48 820.5 1199.5C807.756 1194.07 817.024 1176.56 807.5 1166.5C801.989 1160.68 798.285 1156.91 790.5 1155C769.709 1149.91 772.609 1183.4 758.5 1199.5C744.204 1215.81 732.274 1221.17 718 1237.5Z" fill="#594949" fill-opacity="0.31" stroke="black"/>
<path id="Vector_78" d="M737.5 1343.5C724.01 1345.57 712.645 1344.05 704.5 1355C700.626 1360.21 700.47 1364.32 698.5 1370.5C694.815 1382.07 693.755 1388.93 692.5 1401C691.067 1414.79 685.876 1424.32 692.5 1436.5C697.327 1445.38 702.53 1449.98 712 1453.5C721.335 1456.97 727.797 1455.74 737.5 1453.5C752.855 1449.95 760.343 1442.61 771 1431C786.206 1414.44 793.5 1378 793.5 1378C793.5 1378 844.32 1391.18 872 1378C888.389 1370.2 907.5 1348 907.5 1348C907.5 1348 930.496 1316.62 944.5 1296C956.55 1278.26 962.273 1267.62 974.5 1250C987.235 1231.65 998.456 1223.95 1008.5 1204C1022.81 1175.57 1003.37 1146.37 1026.5 1124.5C1032.41 1118.92 1036.21 1116.09 1043.5 1112.5C1064 1102.42 1080.59 1120.46 1102 1112.5C1118.51 1106.36 1125.41 1097.79 1138.5 1086C1163.08 1063.86 1189 1018 1189 1018C1189 1018 1158.78 1044 1138.5 1059.5C1124.5 1070.19 1102 1086 1102 1086C1102 1086 1070.12 1096 1054.5 1086C1043.78 1079.13 1048.23 1059.81 1035.5 1059.5C1022.54 1059.18 1022.16 1074.88 1015.5 1086C1001.48 1109.42 1006.84 1128.42 994 1152.5C982.074 1174.87 969.76 1183.76 954.5 1204C938.7 1224.95 931.65 1238.13 914.5 1258C894.558 1281.1 885.362 1298.02 858.5 1312.5C841.65 1321.58 830.139 1321.89 812 1328C794.212 1334 766.5 1343.5 766.5 1343.5C766.5 1343.5 748.695 1341.79 737.5 1343.5Z" fill="#594949" fill-opacity="0.46" stroke="black"/>
<path id="Vector_79" d="M838.5 1044.5C797.801 1086.32 742.5 1159 742.5 1159C742.5 1159 769.553 1107.92 790.5 1077.5C824.948 1027.47 851.985 1005.31 893 960.5C905.408 946.945 911.853 938.839 925 926C936.079 915.18 940.329 905.745 954.5 899.5C961.348 896.482 965.624 893.235 973 894.5C982.935 896.204 991.5 912.5 991.5 912.5C991.5 912.5 1002.61 901.356 1010 894.5C1029.94 875.999 1040.62 864.41 1064 850.5C1084.82 838.111 1097.61 819.671 1121 826C1125.9 827.326 1128.43 828.779 1133 831C1142.4 835.573 1155.5 845.5 1155.5 845.5C1155.5 845.5 1186.35 837.814 1205.5 831C1228.81 822.707 1241.9 817.565 1263.5 805.5C1283.5 794.329 1293.1 785.448 1312 772.5C1345.92 749.264 1398.5 712.5 1398.5 712.5C1398.5 712.5 1347.16 767.246 1312 800C1274.81 834.649 1256.41 858.056 1213 884.5C1179.34 905.005 1157.6 940.63 1121 926C1103.79 919.12 1085.5 894.5 1085.5 894.5C1085.5 894.5 1046.49 918.564 1021.5 934C995.914 949.806 967.155 1002.43 956 974.5C951.799 963.983 956 945.5 956 945.5C956 945.5 944.906 951.064 938 955C892.593 980.878 874.953 1007.05 838.5 1044.5Z" fill="#594949" fill-opacity="0.51" stroke="black"/>
<path id="Vector_80" d="M996 563L967 569L948 575L940.5 580L983 583C983 583 1007.89 572.786 1001 566C999.378 564.402 996 563 996 563Z" fill="#BFA595" stroke="black" stroke-width="5"/>
<path id="Vector_81" d="M602.5 147L591 140L546.5 130L498.5 143.5L474 163.5C474 163.5 468.195 175.63 467.5 184C467.242 187.113 467.277 188.884 467.5 192C467.869 197.157 468.684 200 470 205C471.257 209.777 471.975 212.494 474 217C475.361 220.028 476.235 221.688 478 224.5C480.076 227.808 481.495 229.504 484 232.5C486.57 235.573 488.53 236.845 491 240C493.17 242.772 493.814 244.741 496 247.5C497.803 249.775 499.066 250.835 501 253C504.782 257.233 508.002 258.903 510.5 264C513.538 270.199 513 281.5 513 281.5L591 275C591 275 591 271.648 591 269.5C591 268.524 591 267 591 267C591 267 594.154 264.696 596.5 264C599.682 263.056 601.681 264 605 264C609.101 264 611.442 264.586 615.5 264C619.11 263.479 624.5 261.5 624.5 261.5C624.5 261.5 628.096 260.232 630.5 260C634.431 259.621 640.5 261.5 640.5 261.5C640.5 261.5 647.563 262.802 652 264C655.756 265.014 661.5 267 661.5 267L667.5 269.5C667.5 269.5 671.147 271.036 672 269.5C672.474 268.647 672 267 672 267C672 267 669.145 265.325 667.5 264C664.809 261.833 661.5 257.5 661.5 257.5C661.5 257.5 659.745 254.706 658.5 253C656.864 250.758 655.858 249.562 654 247.5C651.967 245.243 650.576 244.217 648.5 242C645.185 238.459 643.316 236.449 640.5 232.5C638.361 229.501 637.339 227.693 635.5 224.5C633.843 221.623 632.227 220.239 631.5 217C630.901 214.333 631.5 212.734 631.5 210C631.5 207.071 631.5 202.5 631.5 202.5C631.5 202.5 633.852 200.547 635.5 199.5C638.229 197.768 640.06 197.342 643 196C646.499 194.403 648.847 194.203 652 192C653.927 190.653 656.5 188 656.5 188C656.5 188 657.009 185.477 656.5 184C655.734 181.777 654.27 180.611 652 180C650.68 179.645 648.5 180 648.5 180H643C641.047 180 639.922 180.344 638 180C635.248 179.507 631.5 177 631.5 177C631.5 177 627.044 174.855 624.5 173C621.932 171.127 620.755 169.74 618.5 167.5C616.049 165.066 614.408 163.88 612.5 161C611.053 158.816 610.896 157.216 609.5 155C607.287 151.488 602.5 147 602.5 147Z" fill="#BFA595" stroke="#BFA595"/>
<path id="Vector_82" d="M550 892.5V807L613 729L688 807V876L676.5 960L658 1050L643.5 1134L624 1191.5H597.5L568 1180L550 1165H525.5L517 1180L507.5 1209.5L489 1247L484.5 1280L476 1322.5L484.5 1344L476 1363.5L484.5 1386.5L496 1411L507.5 1435.5L517 1454L525.5 1472L507.5 1463.5H496L489 1472L484.5 1486.5L489 1501.5L484.5 1521L471 1509.5L450 1486.5L432 1472L412 1454V1435.5V1411L399 1386.5L412 1355.5L423.5 1322.5L432 1294.5V1247L441.5 1180L432 1134V1089.5L450 1066.5L471 1050H496L517 1078H550L584.5 1066.5V1050V1037L568 969.5L550 920.5V892.5Z" fill="#22209D"/>
<path id="Vector_83" d="M695.5 832L552.5 841.5C552.5 841.5 537.029 816.197 530.5 798.5C525.941 786.144 523.391 779.033 521.5 766C519.341 751.121 518.377 742.207 521.5 727.5C524.803 711.945 530.954 704.497 538.5 690.5C543.569 681.097 547.227 676.291 552.5 667C558.838 655.832 565.88 650.665 568 638C569.096 631.452 568 627.639 568 621C568 621 570.231 609.077 568 602C565.166 593.011 552.5 583.5 552.5 583.5C552.5 583.5 544.15 560.879 538.5 546.5C532.095 530.199 532.113 518.932 521.5 505C514.551 495.878 508.045 493.172 500 485C485.512 470.284 477.719 461.503 466 444.5C454.688 428.088 451.768 416.774 441 400C427.963 379.69 418.306 369.937 404 350.5C392.98 335.527 387.474 326.628 376 312C360.196 291.853 333 262.5 333 262.5L367 182L387 197.5L424 234.5L449 262.5L512 329V312V290V262.5H581.5L592.5 276C592.5 276 589.938 302.21 600.5 312L614 319.5C614 319.5 637.326 328.782 653 329C669.624 329.231 677.965 321.236 694.5 319.5C708.87 317.991 717.653 315.37 731.5 319.5C743.759 323.156 748.389 330.161 759.5 336.5C769.517 342.215 774.799 346.201 785.5 350.5C799.475 356.114 808.529 355.327 823 359.5C834.451 362.802 840.553 365.685 852 369C866.284 373.137 876.734 369.593 889 378C898.26 384.346 907.5 400 907.5 400C907.5 400 908.884 443.924 889 454C876.111 460.531 866.449 454 852 454C840.675 454 834.261 455.201 823 454C807.978 452.398 785.5 444.5 785.5 444.5C785.5 444.5 769.664 438.983 759.5 435.5C745.072 430.555 722.5 423 722.5 423C722.5 423 716.805 430.183 714.5 435.5C708.753 448.757 714.5 472.5 714.5 472.5L722.5 505C722.5 505 722.5 530.293 722.5 546.5C722.5 568.174 722.5 602 722.5 602C722.5 602 716.633 630.198 714.5 648.5C709.957 687.484 714.5 749 714.5 749L695.5 832Z" fill="#22209D"/>
<path id="Vector_84" d="M549 890.5C549 860.625 549 814 549 814L609 715.5L700.5 799.5L672 982L642 1129.5L634 1168.5L622 1191C622 1191 614.064 1191.36 609 1191C600.673 1190.41 595.966 1189.5 588 1187C579.828 1184.44 575.083 1182.82 568 1178C563.306 1174.81 557 1168.5 557 1168.5C557 1168.5 549.89 1165.07 545 1164C537.75 1162.42 526 1164 526 1164L517 1187C517 1187 505.516 1210.85 499 1226.5C494.888 1236.37 492.232 1241.8 489 1252C480.899 1277.56 479.5 1320 479.5 1320C479.5 1320 485.867 1334.83 484.5 1344.5C483.326 1352.8 475.5 1364 475.5 1364C475.5 1364 482.233 1385.71 489 1398.5C493.763 1407.5 498.944 1411.16 503 1420.5C506.397 1428.32 505.078 1433.93 509 1441.5C512.646 1448.54 517.864 1450.45 521.5 1457.5C523.795 1461.95 526 1469.5 526 1469.5L509 1463.5H499C499 1463.5 486.242 1470.18 484.5 1478C483.006 1484.7 488.523 1488.15 489 1495C489.65 1504.32 484.5 1518.5 484.5 1518.5C484.5 1518.5 460.936 1499.76 447.5 1486C439.287 1477.59 427.5 1463.5 427.5 1463.5C427.5 1463.5 415.266 1451.49 412 1441.5C408.542 1430.92 414.389 1423.87 412 1413C410.714 1407.15 409.888 1403.75 407 1398.5C404.383 1393.74 398.5 1387.5 398.5 1387.5C398.5 1387.5 409.868 1358.39 416.5 1339.5C423.373 1319.92 428.072 1309.15 433 1289C442.502 1250.14 445.333 1226.91 442.5 1187C440.888 1164.3 434.526 1152.21 433 1129.5C431.94 1113.72 427.375 1103.78 433 1089C436.602 1079.53 440.817 1075.11 447.5 1067.5C453.889 1060.23 457.154 1054.93 466 1051C477.776 1045.77 487.625 1044.94 499 1051C509.479 1056.58 505.365 1073.14 517 1075.5C520.444 1076.2 522.485 1075.5 526 1075.5C534.982 1075.5 540.081 1076.57 549 1075.5C565.003 1073.59 588 1062 588 1062C588 1062 585.188 1041.55 583 1028.5C578.248 1000.17 578.698 983.155 568 956.5C562.014 941.587 552.187 935.751 549 920C546.715 908.708 549 902.02 549 890.5Z" fill="#22209D"/>
<path id="Vector_85" d="M347 272.5L367 247L375.5 218.5L397 207C397 207 380.851 186.093 367 177C349.14 165.275 335.515 165.966 315 160C289.125 152.475 273.892 150.966 248 143.5C214.061 133.713 162.5 114 162.5 114C162.5 114 137.286 112.237 131.5 123.5L129 134C129 134 128.407 147.85 130 156.5L132.5 166.5C132.5 166.5 134.426 172.975 136 177C137.401 180.582 140 186 140 186C154.471 194.302 163.94 197.48 180.5 199.5C189.028 200.54 202.961 206.047 211.5 207C226.353 208.657 248 218.5 248 218.5L273.5 232L302 247L347 272.5Z" fill="#22209D"/>
<g id="Group_3" filter="url(#filter2_d_6_16)">
<path id="Vector_86" d="M101.5 189.5C111.513 179.339 133 171 133 171L114.5 161C114.5 161 110.299 159.925 108 161C106.619 161.646 106.146 162.494 105 163.5C100.223 167.695 97.7007 170.331 93.9996 175.5C90.4884 180.404 88.2276 183.222 86.4996 189C85.2574 193.154 84.906 195.665 84.9996 200C85.0939 204.365 86.9996 211 86.9996 211C86.9996 211 94.3912 196.713 101.5 189.5Z" fill="#BFA595" stroke="#BFA595" stroke-width="5"/>
</g>
<path id="Vector_87" d="M102.5 135L113 161L142 185L131.5 161L129.5 142L131.5 124.5L160 116.5C160 116.5 118.74 107.678 96.5 93.5C83.4084 85.1544 79.6263 75.4408 66 68C57.694 63.4644 43.5 59 43.5 59L49 68L51 76.5L40 71H31C31 71 36.0218 78.1295 40 82C44.7024 86.5752 48.1461 88.2077 53.5 92C58.3172 95.4122 66 100.5 66 100.5L69.5 107.5C69.5 107.5 60.9671 108.412 55.5 109C48.2749 109.777 44.1696 109.816 37 111C26.0663 112.806 9.5 118 9.5 118C9.5 118 19.0316 120.694 24.5 122C31.361 123.638 34.3022 124.091 41 124.5C54.7317 125.339 59.7461 122.694 73.5 123C80.1631 123.148 84.3997 121.816 90.5 124.5C96.1997 127.008 102.5 135 102.5 135Z" fill="#BFA595" stroke="#BFA595" stroke-width="5"/>
<path id="Vector_88" d="M979.5 507.5C966.366 487.035 957.999 476.226 944.5 456C934.248 440.639 918.5 416.5 918.5 416.5L905 396C905 396 896.161 381.86 887 378C874.454 372.714 861.885 373.138 852.5 383C845.251 390.617 845.5 409 845.5 409C845.5 409 850.632 442.234 861 460.5C866.244 469.739 870.926 473.785 877 482.5C884.494 493.252 887.269 500.302 895.5 510.5C904.692 521.889 912.507 525.861 922 537C932.999 549.905 931.801 564.983 947 572.5C958.425 578.15 966.903 577.442 979.5 575.5C984.274 574.764 987.654 575.423 991.5 572.5C995.126 569.744 995.668 566.67 997.5 562.5C999.539 557.859 1000.84 555.067 1001 550C1001.24 542.346 997.679 538.467 994.5 531.5C989.911 521.445 985.47 516.802 979.5 507.5Z" fill="#22209D" stroke="#22209D"/>
<path id="Vector_89" d="M515.315 268.216C515.315 268.216 504.168 269.284 497 270C479.43 271.754 458.818 285.14 458.818 285.14C458.818 285.14 450.819 285.533 445.785 284.765C439.924 283.87 435.005 282.203 429.5 280C423.474 277.588 419.133 275.055 412.933 273.132C404.234 270.434 389.645 271.847 389.645 271.847C389.645 271.847 406.922 277.629 416.177 284.389C420.949 287.875 427.473 294.459 427.473 294.459C427.473 294.459 421.639 296.421 418.5 297.5C412.553 299.543 404.439 299.116 398.306 300.5C390.628 302.233 385.768 307.875 385.768 307.875L428.219 305.836C428.219 305.836 426.827 308.287 425.091 311C419.287 320.071 405.547 310.814 398.306 318.786C396.599 320.665 394.66 324.167 394.66 324.167L432.944 322.93C432.944 322.93 426.305 329.189 425.091 334.519C424.163 338.594 424.683 341.15 425.704 345.202C427.327 351.643 434.609 359.692 434.609 359.692C434.609 359.692 430.863 348.701 432.248 341.785C433.556 335.25 435.603 331.344 440.542 326.87C448.524 319.64 457.073 319.506 467.624 321.665C471.382 322.434 476.891 324.924 476.891 324.924L477.678 330.893C477.678 330.893 468.129 342.246 464.215 350.762C461.325 357.05 458.818 367.64 458.818 367.64C458.818 367.64 468.608 353.71 477.956 349.201C481.473 347.504 491.15 333.564 494 330.893C502.5 322.93 500.06 320.664 510 311C516.997 304.197 527.543 301.869 527.543 301.869" stroke="black" stroke-width="6"/>
<path id="Vector_90" d="M487.5 272.5L487.558 272.996C479.141 273.976 474.966 276.994 470.791 280.012C470.717 280.065 470.643 280.119 470.569 280.172C466.273 283.276 461.906 286.332 453.037 286.998C447.532 287.412 441.962 287.785 436.429 286.995L436.429 286.995C433.451 286.569 431.488 285.459 429.61 284.225C429.316 284.032 429.025 283.837 428.733 283.641C427.161 282.586 425.563 281.512 423.325 280.677C420.452 279.605 419.237 278.927 418.259 278.38C418.096 278.29 417.941 278.203 417.785 278.118C416.739 277.551 415.656 277.07 412.242 276.248C409.872 275.677 406.729 275.48 404.153 275.429C403.686 275.42 403.239 275.415 402.82 275.414C403.433 275.608 404.112 275.828 404.832 276.07C407.689 277.032 411.216 278.352 413.813 279.77C416.692 281.342 418.68 282.958 420.6 284.637C420.94 284.934 421.277 285.233 421.616 285.534C423.193 286.931 424.814 288.367 426.961 289.884L426.672 290.293L426.961 289.884C428.231 290.782 429.882 291.901 431.219 292.797C431.886 293.245 432.474 293.636 432.895 293.916C433.106 294.055 433.275 294.167 433.391 294.244L433.524 294.332L433.559 294.355L433.567 294.36L433.569 294.362L433.57 294.362L433.57 294.362L433.295 294.78M487.5 272.5L429.738 347.05C429.212 346.285 428.295 344.853 427.934 343.694C426.948 340.524 425.834 332.212 426.672 329L427.156 329.126C427.156 329.126 427.156 329.126 427.156 329.126C428.061 325.657 430.076 323.141 431.877 321.486C432.777 320.659 433.619 320.051 434.235 319.651C434.542 319.451 434.793 319.304 434.965 319.207C435.05 319.158 435.117 319.123 435.16 319.1C435.182 319.088 435.199 319.08 435.209 319.074L435.22 319.069L435.222 319.068L435.222 319.068L435.222 319.068L435.223 319.067L435.312 319.023L435.378 318.947L435 318.62C435.378 318.947 435.378 318.947 435.378 318.947L435.379 318.946L435.38 318.945L435.385 318.939L435.402 318.919C435.417 318.901 435.439 318.875 435.467 318.842C435.522 318.776 435.601 318.681 435.697 318.562C435.888 318.323 436.147 317.989 436.42 317.603C436.953 316.849 437.585 315.836 437.814 314.951C437.928 314.513 437.969 314.01 437.744 313.577C437.502 313.111 437.03 312.868 436.439 312.801C435.859 312.735 435.098 312.825 434.127 313.079C433.148 313.335 431.922 313.766 430.397 314.411L430.397 314.411C424.387 316.957 417.269 318.981 411.642 320.371C408.83 321.065 406.396 321.599 404.665 321.96C403.886 322.123 403.25 322.25 402.785 322.341C402.847 322.213 402.921 322.071 403.009 321.917C403.45 321.144 404.245 320.051 405.653 318.829C408.469 316.386 413.756 313.415 423.596 311.49L423.596 311.49C426.195 310.982 427.72 308.927 428.581 307.11C429.015 306.192 429.295 305.309 429.465 304.656C429.551 304.329 429.61 304.058 429.647 303.867C429.666 303.772 429.68 303.697 429.689 303.644C429.693 303.618 429.697 303.598 429.699 303.583L429.701 303.566L429.702 303.561L429.702 303.56L429.703 303.559C429.703 303.559 429.703 303.559 429.208 303.486L429.703 303.559L429.799 302.907L429.145 302.99L413.542 304.959H394.099C394.517 304.753 394.986 304.526 395.484 304.291C397.324 303.421 399.543 302.447 401.14 301.98L401.14 301.98C404.031 301.134 407.346 301.019 410.745 300.927C410.858 300.924 410.972 300.921 411.086 300.918C414.347 300.83 417.674 300.741 420.626 299.976L420.626 299.976C423.447 299.243 426.669 298.056 429.175 297.057C430.431 296.556 431.511 296.101 432.278 295.772C432.662 295.607 432.967 295.473 433.176 295.38C433.281 295.334 433.362 295.298 433.417 295.273L433.479 295.245L433.495 295.238L433.5 295.236L433.501 295.236L433.501 295.235C433.501 295.235 433.501 295.235 433.295 294.78M487.5 272.5L487.558 272.996C490.747 272.625 497.371 271.868 503.199 271.203C506.113 270.871 508.827 270.561 510.813 270.335L513.179 270.066L513.665 270.011L524.32 299.287C524.249 299.333 524.167 299.386 524.076 299.446C523.702 299.689 523.16 300.045 522.488 300.493C521.146 301.389 519.283 302.657 517.202 304.145C513.046 307.116 507.996 310.981 504.486 314.52C500.286 318.754 498.319 323.635 496.474 328.213C496.197 328.9 495.923 329.58 495.644 330.25C493.503 335.403 491.095 340.009 485.261 342.987L485.488 343.433L485.261 342.987C483.722 343.773 482.457 344.298 481.21 344.816C481.064 344.877 480.919 344.937 480.773 344.998C479.38 345.579 477.981 346.184 476.254 347.157L476.492 347.579L476.254 347.157C473.258 348.847 470.195 351.84 467.901 354.378C467.034 355.337 466.272 356.237 465.658 356.987M487.5 272.5L465.658 356.987M433.295 294.78L433.57 294.362L434.328 294.861L433.501 295.235L433.295 294.78ZM429.894 346.386C429.815 346.266 429.732 346.137 429.647 346.002C429.168 345.242 428.65 344.313 428.411 343.545L429.894 346.386ZM429.894 346.386C429.945 346.168 430.003 345.922 430.066 345.652C430.326 344.54 430.678 343.03 431.044 341.436C431.779 338.24 432.568 334.732 432.803 333.412C432.803 333.412 432.803 333.412 432.803 333.412L433.295 333.5C433.884 330.179 433.943 329.193 434.416 328.479C434.91 327.732 435.858 327.285 438.339 324.773L429.894 346.386ZM465.658 356.987C465.722 356.78 465.789 356.565 465.858 356.344C466.424 354.553 467.162 352.359 467.867 350.705L467.407 350.509L467.867 350.705C469.354 347.212 471.753 345.013 474.114 342.849C474.465 342.527 474.815 342.206 475.161 341.882C477.827 339.385 480.216 336.71 480.499 332.03C480.541 331.34 480.607 330.667 480.672 329.998C480.694 329.775 480.716 329.553 480.737 329.331C480.819 328.448 480.886 327.571 480.872 326.712C480.843 324.981 480.482 323.302 479.248 321.719C478.522 320.788 477.464 320.112 476.326 319.617C475.185 319.12 473.932 318.791 472.777 318.571C471.62 318.351 470.549 318.238 469.768 318.181C469.377 318.152 469.058 318.137 468.835 318.129C468.724 318.125 468.637 318.122 468.577 318.121L468.508 318.12L468.508 318.12L465.658 356.987ZM430.592 314.872C419.808 319.439 405.517 322.325 402.552 322.895L430.592 314.872ZM402.185 322.457C402.967 320.574 406.779 314.27 423.5 311C427.424 310.232 428.765 305.573 429.109 304.002L402.185 322.457Z" fill="#BFA595" stroke="#BFA595"/>
<path id="Vector_91" d="M455.863 239.255L473.77 224.161L574.068 143.355C574.068 143.355 581.81 136.362 587.716 133.444C589.117 132.752 590.046 132.646 591.37 131.816C594.108 130.098 595.197 128.376 596.796 125.567C598.026 123.407 598.036 121.882 599.076 119.625C600.3 116.965 602.725 113.073 602.725 113.073C602.725 113.073 603.479 111.921 603.485 111.092C603.502 108.883 600.357 109.557 598.204 109.066C593.388 107.967 590.533 109.838 585.614 110.295C579.65 110.85 576.322 111.782 570.335 111.629C564.107 111.469 560.074 112.227 554.544 109.358C551.056 107.547 549.642 105.65 546.771 102.968C539.574 96.2414 531.321 83.0293 531.321 83.0293L506.669 48.5795L486.032 19.4568C486.032 19.4568 483.996 16.7485 482.171 15.7033C476.24 12.3065 472.221 19.6185 466.185 22.8245C456.546 27.9449 452.094 32.398 443.1 38.5823C434.422 44.5488 429.349 47.6085 420.928 53.9331C414.149 59.0243 410.343 61.8972 403.983 67.5026C397.587 73.1391 394.525 76.8617 388.309 82.6955C383.356 87.3438 376.452 87.7121 375.475 94.4338C375.146 96.6956 374.854 98.2325 375.886 100.272C377.111 102.692 381.525 104.328 381.525 104.328L402.36 128.983L424.517 154.145C424.517 154.145 432.884 163.934 436.969 171.04C440.667 177.473 441.681 181.617 444.701 188.395C446.925 193.389 449.677 195.764 450.398 201.184C451.176 207.035 448.738 210.246 447.72 216.061C446.748 221.608 447.151 224.96 445.295 230.278C443.879 234.338 439.051 236.041 440.379 240.131C441.067 242.249 442.058 243.435 443.988 244.545C445.309 245.305 446.221 245.561 447.745 245.607C451.769 245.731 455.863 239.255 455.863 239.255Z" fill="#22209D"/>
<path id="neck" d="M516.863 272.005L519.363 321.005C519.363 321.005 613.487 344.259 607.363 321.005L594.863 276.505C588.863 253.505 577.247 236.576 560.363 235.005C550.235 234.803 532.565 240.764 526.863 245.005C522.63 248.154 510.362 256.505 516.863 272.005Z" fill="#BFA595" stroke="#BFA595"/>
<path id="Vector_92" d="M583 166.5V177C583 177 575.671 180.052 573 184C572.021 185.446 571.489 186.323 571 188C570.235 190.624 571 192.266 571 195C571 203.982 570.527 209.03 571 218C571.341 224.461 572.169 228.038 572.5 234.5C572.93 242.885 572.5 247.604 572.5 256C572.5 264.592 573.118 269.431 572.5 278C572.132 283.097 571.763 285.947 571 291C570.348 295.317 570.107 297.776 569 302C567.575 307.438 566.381 310.407 564 315.5C562.112 319.537 560.793 321.678 558.5 325.5C555.1 331.166 552.893 334.161 549 339.5C545.801 343.886 544.211 346.537 540.5 350.5C535.955 355.355 527.5 361.5 527.5 361.5L521.5 368.5L527.5 365C527.5 365 535.701 359.242 540.5 355C544.845 351.16 547.281 348.949 551 344.5C555.515 339.098 557.595 335.662 561 329.5C563.408 325.143 564.487 322.553 566.5 318C568.376 313.755 569.492 311.389 571 307C572.386 302.967 572.999 300.645 574 296.5C575.628 289.76 576.385 285.906 577 279C577.676 271.415 577 259.5 577 259.5C577 259.5 577 242.13 577 231C577 221.627 577 216.373 577 207C577 200.556 573.07 195.606 577 190.5C579.247 187.58 581.356 186.045 585 185.5C586.352 185.298 587.185 185.126 588.5 185.5C590.116 185.96 590.701 186.935 592 188C593.922 189.576 594.243 191.459 596.5 192.5C600.291 194.248 603.574 192.885 607 190.5C610.38 188.146 611.589 185.517 612.5 181.5C613.644 176.458 611.86 173.324 610 168.5C608.011 163.344 606.94 159.791 602.5 156.5C600.395 154.94 599.037 154.155 596.5 153.5C593.475 152.719 591.398 152.332 588.5 153.5C585.808 154.585 584.217 155.865 583 158.5C581.69 161.336 583 166.5 583 166.5Z" fill="white"/>
</g>
<defs>
<filter id="filter0_d_6_16" x="229.169" y="522.314" width="560.071" height="874.974" filterUnits="userSpaceOnUse" color-interpolation-filters="sRGB">
<feFlood flood-opacity="0" result="BackgroundImageFix"/>
<feColorMatrix in="SourceAlpha" type="matrix" values="0 0 0 0 0 0 0 0 0 0 0 0 0 0 0 0 0 0 127 0" result="hardAlpha"/>
<feOffset dy="60.67"/>
<feGaussianBlur stdDeviation="1.35572"/>
<feColorMatrix type="matrix" values="0 0 0 0 0 0 0 0 0 0 0 0 0 0 0 0 0 0 0.25 0"/>
<feBlend mode="normal" in2="BackgroundImageFix" result="effect1_dropShadow_6_16"/>
<feBlend mode="normal" in="SourceGraphic" in2="effect1_dropShadow_6_16" result="shape"/>
</filter>
<filter id="filter1_d_6_16" x="250.529" y="555.648" width="517.344" height="752.662" filterUnits="userSpaceOnUse" color-interpolation-filters="sRGB">
<feFlood flood-opacity="0" result="BackgroundImageFix"/>
<feColorMatrix in="SourceAlpha" type="matrix" values="0 0 0 0 0 0 0 0 0 0 0 0 0 0 0 0 0 0 127 0" result="hardAlpha"/>
<feOffset dy="4"/>
<feGaussianBlur stdDeviation="2"/>
<feColorMatrix type="matrix" values="0 0 0 0 0 0 0 0 0 0 0 0 0 0 0 0 0 0 0.25 0"/>
<feBlend mode="normal" in2="BackgroundImageFix" result="effect1_dropShadow_6_16"/>
<feBlend mode="normal" in="SourceGraphic" in2="effect1_dropShadow_6_16" result="shape"/>
</filter>
<filter id="filter2_d_6_16" x="78.4854" y="158.022" width="64.4619" height="67.7095" filterUnits="userSpaceOnUse" color-interpolation-filters="sRGB">
<feFlood flood-opacity="0" result="BackgroundImageFix"/>
<feColorMatrix in="SourceAlpha" type="matrix" values="0 0 0 0 0 0 0 0 0 0 0 0 0 0 0 0 0 0 127 0" result="hardAlpha"/>
<feOffset dy="4"/>
<feGaussianBlur stdDeviation="2"/>
<feColorMatrix type="matrix" values="0 0 0 0 0 0 0 0 0 0 0 0 0 0 0 0 0 0 0.25 0"/>
<feBlend mode="normal" in2="BackgroundImageFix" result="effect1_dropShadow_6_16"/>
<feBlend mode="normal" in="SourceGraphic" in2="effect1_dropShadow_6_16" result="shape"/>
</filter>
<linearGradient id="paint0_linear_6_16" x1="491.392" y1="521.971" x2="529.598" y2="1318.65" gradientUnits="userSpaceOnUse">
<stop/>
<stop offset="0.5" stop-color="#404040"/>
<stop offset="1"/>
</linearGradient>
<linearGradient id="paint1_linear_6_16" x1="495.287" y1="559.817" x2="522.195" y2="1299.07" gradientUnits="userSpaceOnUse">
<stop/>
<stop offset="0.5" stop-color="#404040"/>
<stop offset="1"/>
</linearGradient>
<linearGradient id="paint2_linear_6_16" x1="510.012" y1="974.508" x2="496.01" y2="550.292" gradientUnits="userSpaceOnUse">
<stop stop-color="white" stop-opacity="0"/>
<stop offset="1" stop-color="white" stop-opacity="0.5"/>
</linearGradient>
<linearGradient id="paint3_linear_6_16" x1="819" y1="410.5" x2="1037" y2="1217" gradientUnits="userSpaceOnUse">
<stop offset="0.388231" stop-color="white"/>
<stop offset="0.721875" stop-color="#FBABAB"/>
</linearGradient>
<clipPath id="clip0_6_16">
<rect width="1652" height="1534" fill="white"/>
</clipPath>
</defs>
</svg>
