<svg width="3192" height="1534" viewBox="0 0 3192 1534" fill="none" xmlns="http://www.w3.org/2000/svg">
<g filter="url(#filter0_d_1106_283)">
<path d="M524.517 1333.77C677.441 1328 794.556 1141.7 786.099 917.658C777.643 693.619 646.818 516.679 493.894 522.452C340.969 528.224 223.855 714.523 232.312 938.562C240.768 1162.6 371.593 1339.54 524.517 1333.77Z" fill="white"/>
<path d="M494.156 529.848C344.034 535.514 229.101 718.386 237.403 938.331C245.705 1158.27 374.094 1331.96 524.218 1326.3C674.338 1320.63 789.344 1137.75 781.043 917.811C772.745 697.866 644.275 524.181 494.156 529.848ZM490.918 533.749L494.526 543.48C446.951 545.314 403.023 565.553 365.775 599.462L364.792 588.687C401.571 556.09 444.483 536.347 490.918 533.749ZM497.97 533.588C544.354 532.743 588.54 549.117 627.586 578.767L627.718 589.889C587.964 558.742 542.567 541.723 494.886 543.467L497.97 533.588ZM494.805 547.039C638.439 541.617 761.305 707.817 769.248 918.256C777.191 1128.68 667.204 1303.68 523.569 1309.11C379.935 1314.53 257.069 1148.31 249.126 937.888C241.183 727.453 351.17 552.46 494.805 547.039ZM358.945 594.051L365.5 599.787C327.048 634.902 295.796 684.608 274.921 743.555L270.337 734.7C291.2 677.515 321.716 629.061 358.945 594.051L358.945 594.051ZM634.117 583.874C673.811 615.992 707.785 661.949 732.856 717.347L729.18 726.828C704.005 669.645 669.122 622.376 628.233 590.185L634.117 583.874ZM267.146 743.638L274.789 743.875C254.555 801.152 244.122 867.116 246.645 937.037L239.763 932.153C237.9 864.16 247.909 799.922 267.146 743.638ZM736.948 726.535C760.3 781.262 775.068 844.605 778.252 912.562L771.669 917.535C768.964 847.909 753.854 783.114 729.572 727.653L736.948 726.535ZM246.665 937.561C246.67 937.703 246.675 937.839 246.681 937.981C249.303 1007.46 264.361 1072.24 288.483 1127.66L281.107 1128.78C257.836 1073.94 243.132 1010.46 240.079 942.429L246.665 937.561ZM771.713 918.688L778.667 923.569C780.574 991.389 770.653 1055.56 751.56 1111.76L743.993 1111.62C764.084 1054.42 774.282 988.441 771.713 918.688ZM288.798 1128.39C313.864 1185.71 348.638 1232.98 389.47 1265.35L383.59 1271.77C343.98 1239.49 310.014 1193.46 285.055 1137.97L288.798 1128.39ZM743.537 1112.9L748.044 1121.65C727.221 1178.7 696.833 1227 659.713 1261.98L653.086 1256.24C691.42 1221.17 722.695 1171.68 743.537 1112.9ZM390.212 1265.96C429.889 1297.18 475.225 1314.27 522.841 1312.7L519.689 1322.69C473.384 1323.34 429.3 1306.81 390.344 1277.08L390.212 1265.96ZM652.251 1257.01L653.238 1267.89C616.506 1300.3 573.642 1319.96 527.316 1322.51L523.704 1312.67C571.187 1310.88 615.041 1290.76 652.251 1257.01Z" fill="url(#paint0_linear_1106_283)"/>
<g filter="url(#filter1_d_1106_283)">
<path d="M471.143 557.485L471.285 561.259L471.317 562.098L471.455 565.767L474.044 565.669L474.979 565.633L482.603 607.335L478.322 646.546L477.387 646.582L474.869 646.677L475.008 650.345L475.04 651.184L475.182 654.958L477.699 654.863L484.819 654.594L487.336 654.499L487.194 650.725L487.162 649.887L487.024 646.218L484.651 646.307L486.519 629.021L489.613 646.12L487.168 646.212L487.306 649.881L487.338 650.72L487.48 654.494L489.997 654.398L497.189 654.127L499.419 654.043L499.707 654.032L501.936 653.948L509.056 653.679L509.128 653.676L511.573 653.584L511.645 653.581L520.995 653.228L523.512 653.133L523.369 649.36L523.338 648.521L523.199 644.852L520.682 644.947L520.179 644.966L517.124 564.043L517.627 564.024L520.145 563.929L520.006 560.26L519.974 559.421L519.832 555.648L517.315 555.743L507.965 556.096L507.894 556.098L505.448 556.191L505.376 556.193L496.674 556.522L496.027 556.546L494.085 556.619L493.51 556.641L486.893 556.891L485.527 556.943L484.376 556.986L483.009 557.038L473.732 557.388L471.143 557.485ZM483.466 565.313L484.689 565.267L485.839 565.224L487.062 565.177L485.731 577.614L483.466 565.313ZM493.463 564.936L493.822 564.922L494.398 564.901L496.339 564.827L496.771 564.811L499.826 645.735L499.394 645.751L499.106 645.762L498.171 645.797L489.726 599.508L493.463 564.936ZM505.186 564.493L505.689 564.474L505.761 564.472L508.206 564.379L508.278 564.377L508.709 564.36L511.764 645.284L511.332 645.3L511.261 645.303L508.815 645.395L508.744 645.398L508.24 645.417L505.186 564.493ZM385.917 596.918L383.826 598.781L375.957 605.902L374.985 606.883L374.358 607.432L368.299 612.909L367.188 614.001L365.097 615.864L357.232 623.089L355.141 624.953L356.558 628.153L356.874 628.876L358.215 631.975L360.377 630.109L361.141 629.345L381.906 660.473L391.681 698.104L390.845 698.871L388.755 700.734L390.1 703.937L390.416 704.66L391.833 707.861L393.919 705.893L399.906 700.418L401.997 698.555L400.652 695.351L400.336 694.628L398.991 691.425L396.972 693.286L392.671 676.652L401.077 689.457L399.059 691.317L400.476 694.518L400.719 695.244L402.137 698.444L404.295 696.473L412.161 689.248L414.319 687.277L420.238 681.91L422.325 679.942L420.983 676.843L420.668 676.12L419.251 672.92L417.164 674.888L416.745 675.219L386.485 606.239L386.904 605.908L389.063 603.937L387.645 600.737L387.33 600.014L385.917 596.918ZM618.122 597.076L616.95 600.374L616.69 601.119L615.514 604.313L617.815 606.115L618.186 606.416L593.212 677.48L592.84 677.18L590.544 675.482L589.44 678.673L589.18 679.417L588.008 682.716L590.309 684.518L598.621 691.028L600.922 692.831L602.021 689.535L602.281 688.79L603.453 685.492L601.157 683.794L600.781 683.388L625.755 612.324L626.127 612.625L628.427 614.427L629.527 611.132L629.787 610.387L630.963 607.193L628.663 605.391L620.35 598.881L618.122 597.076ZM379.382 612.701L409.642 681.68L409.087 682.226L408.319 682.885L385.266 648.379L376.668 615.217L377.432 614.454L379.382 612.701ZM371.305 620.039L374.421 631.993L368.315 622.881L370.333 621.02L371.305 620.039ZM288.652 733.38L287.48 736.678L284.229 745.934L283.129 749.229L282.473 750.934L278.317 762.952L277.145 766.251L279.442 767.949L279.889 768.352L282.19 770.154L283.29 766.859L283.75 765.687L312.081 777.844L333.232 803.919L332.772 805.091L331.672 808.386L333.901 810.192L334.42 810.592L336.717 812.29L337.821 809.099L341.076 799.948L342.176 796.653L339.947 794.847L339.428 794.447L337.203 792.746L336.095 795.833L326.73 784.324L338.299 789.346L337.195 792.537L339.496 794.339L340.015 794.74L342.24 796.44L343.416 793.247L347.64 781.12L348.812 777.822L346.583 776.017L346.064 775.616L343.763 773.814L342.663 777.109L342.203 778.281L310.796 764.771L292.141 741.856L292.525 740.582L293.701 737.388L291.4 735.586L290.881 735.185L288.652 733.38ZM715.039 718.545L712.88 720.516L712.393 720.955L710.306 722.923L711.648 726.021L711.883 726.537L665.584 768.804L665.349 768.289L664.003 765.085L661.845 767.056L661.357 767.494L659.271 769.463L660.612 772.561L665.734 784.23L665.814 784.437L667.155 787.535L672.277 799.204L673.694 802.405L675.781 800.436L676.268 799.998L678.427 798.027L677.013 794.931L676.774 794.31L723.073 752.043L723.312 752.664L724.726 755.76L726.816 753.897L727.304 753.458L729.462 751.487L728.045 748.287L722.923 736.618L721.582 733.519L721.506 733.418L716.384 721.749L715.039 718.545ZM289.21 750.05L295.931 758.299L287.586 754.73L288.693 751.644L289.21 750.05ZM716.534 737.174L716.769 737.69L716.845 737.792L718.191 740.995L718.426 741.511L672.123 783.674L671.892 783.263L670.546 780.059L670.471 779.957L670.235 779.441L716.534 737.174ZM315.355 904.632L315.493 908.301L315.544 909.664L284.128 920.717L260.401 914.16L260.35 912.797L260.211 909.128L257.694 909.223L257.119 909.245L254.53 909.343L254.668 913.011L255.068 923.599L255.139 925.485L255.206 927.267L255.281 929.259L255.752 941.733L255.796 942.886L255.895 945.507L255.938 946.66L256.409 959.134L256.548 962.803L259.137 962.705L259.712 962.683L262.229 962.588L262.091 958.919L262.067 958.29L317.301 956.206L317.325 956.834L317.463 960.503L319.981 960.408L320.556 960.387L323.073 960.292L322.935 956.623L322.444 943.625L322.42 942.996L322.306 939.956L322.278 939.222L321.91 929.473L321.771 925.805L319.254 925.9L318.679 925.921L316.162 926.016L316.292 929.476L304.431 926.249L316.019 922.243L316.154 925.807L318.671 925.712L319.246 925.69L321.764 925.595L321.625 921.926L321.103 908.089L320.964 904.421L318.447 904.516L317.872 904.537L315.355 904.632ZM695.304 894.07L695.446 897.844L695.961 911.471L695.965 911.575L696.103 915.244L696.107 915.349L696.621 928.976L696.625 929.08L696.764 932.749L696.768 932.854L697.282 946.481L697.421 950.15L699.938 950.055L700.513 950.033L703.03 949.938L702.892 946.269L702.868 945.64L758.102 943.555L758.126 944.184L758.265 947.853L760.782 947.758L761.357 947.736L763.874 947.641L763.736 943.973L763.221 930.346L763.218 930.241L763.079 926.572L763.075 926.468L762.561 912.84L762.557 912.736L762.418 909.067L762.414 908.962L761.9 895.335L761.758 891.562L759.24 891.657L758.665 891.678L756.148 891.773L756.29 895.547L756.31 896.071L701.076 898.156L701.056 897.632L700.914 893.858L698.396 893.953L697.821 893.975L695.304 894.07ZM260.757 923.594L269.271 925.897L260.955 928.835L260.888 927.053L260.821 925.271L260.757 923.594ZM701.547 910.63L756.781 908.545L756.805 909.174L756.809 909.279L756.947 912.947L756.951 913.052L756.971 913.576L701.737 915.661L701.717 915.137L701.713 915.032L701.574 911.364L701.57 911.259L701.547 910.63ZM289.714 931.319L316.64 938.7L316.668 939.434L316.696 940.168L316.811 943.207L316.834 943.836L261.6 945.921L261.477 942.672L261.434 941.519L261.426 941.309L289.714 931.319ZM702.207 928.135L757.442 926.051L757.465 926.68L757.469 926.784L757.608 930.453L757.612 930.558L757.632 931.082L702.397 933.167L702.378 932.643L702.374 932.538L702.235 928.869L702.231 928.764L702.207 928.135ZM335.065 1031.85L332.975 1033.71L332.487 1034.15L330.329 1036.12L331.746 1039.32L331.982 1039.84L285.682 1082.11L285.443 1081.49L284.03 1078.39L281.939 1080.25L281.452 1080.69L279.293 1082.66L280.711 1085.86L285.832 1097.53L285.836 1097.64L287.25 1100.73L292.372 1112.4L293.789 1115.6L293.793 1115.71L298.915 1127.38L300.332 1130.58L303.721 1138.32L305.138 1141.52L307.225 1139.55L307.712 1139.11L309.871 1137.14L308.457 1134.05L308.377 1133.84L331.305 1119.22L311.922 1141.9L311.771 1141.69L310.425 1138.49L308.267 1140.46L307.851 1140.89L305.689 1142.76L307.106 1145.96L312.228 1157.63L313.574 1160.83L315.732 1158.86L316.148 1158.43L318.306 1156.46L316.893 1153.36L316.497 1152.43L362.029 1099.38L363.828 1097.42L362.567 1094.53L361.936 1093.08L360.75 1090.3L358.712 1091.63L304.988 1126.1L304.521 1125.17L303.415 1122.59L349.714 1080.32L349.95 1080.84L351.295 1084.04L353.454 1082.07L353.941 1081.63L356.028 1079.66L354.682 1076.46L349.56 1064.79L349.485 1064.69L348.143 1061.59L343.021 1049.92L341.604 1046.72L341.6 1046.62L336.478 1034.95L335.065 1031.85ZM685.831 1032.36L684.659 1035.66L680.432 1047.68L679.26 1050.98L681.553 1052.57L682.072 1052.97L684.373 1054.78L685.477 1051.59L685.741 1050.95L735.302 1089.38L735.106 1089.92L733.934 1093.21L736.231 1094.91L736.75 1095.31L738.983 1097.22L740.155 1093.92L744.383 1081.9L745.559 1078.71L743.258 1076.91L742.739 1076.51L740.514 1074.81L739.338 1078L739.142 1078.53L689.581 1040.09L689.776 1039.56L690.876 1036.27L688.651 1034.56L688.136 1034.27L685.831 1032.36ZM336.632 1050.48L336.868 1050.99L336.872 1051.1L337.343 1052.13L338.209 1054.09L338.285 1054.19L338.525 1054.81L292.225 1097.08L291.986 1096.46L290.573 1093.36L290.565 1093.15L290.333 1092.74L336.632 1050.48ZM343.171 1065.35L343.407 1065.86L343.411 1065.97L344.828 1069.17L345.064 1069.68L298.764 1111.95L298.529 1111.43L298.453 1111.33L297.108 1108.13L296.872 1107.61L343.171 1065.35ZM674.632 1063.86L673.592 1066.83L673.072 1068.32L672.101 1071.2L673.902 1073.12L722.603 1125.03L722.355 1126.09L721.183 1129.39L723.404 1130.98L723.927 1131.49L726.228 1133.29L727.404 1130.1L730.516 1120.95L731.764 1117.76L729.391 1115.96L728.872 1115.56L726.715 1113.75L725.543 1117.05L725.475 1117.15L704.687 1094.95L728.407 1108.96L728.267 1109.07L727.167 1112.37L729.396 1114.17L729.915 1114.57L732.212 1116.27L733.392 1113.18L737.547 1101.16L738.719 1097.86L736.423 1096.16L735.899 1095.66L733.599 1093.86L732.495 1097.05L732.243 1098L676.774 1065.24L674.632 1063.86ZM401.721 1151.1L400.621 1154.4L400.361 1155.14L399.185 1158.34L401.486 1160.14L401.858 1160.44L376.884 1231.5L376.512 1231.2L374.215 1229.51L373.111 1232.7L372.851 1233.44L371.68 1236.74L373.98 1238.54L382.292 1245.05L384.593 1246.85L384.665 1246.85L392.977 1253.36L394.167 1254.37L394.463 1254.56L400.774 1259.58L403.071 1261.27L404.247 1258.08L404.507 1257.34L405.607 1254.04L403.378 1252.23L403.234 1252.24L417.741 1222.51L409.018 1256.64L408.798 1256.54L406.569 1254.74L405.397 1258.04L405.137 1258.78L404.037 1262.08L406.262 1263.78L414.65 1270.39L416.875 1272.09L418.051 1268.9L418.311 1268.15L419.411 1264.86L417.182 1263.05L416.515 1262.55L437.189 1182.52L437.938 1179.44L435.933 1177.84L434.894 1177.04L432.893 1175.54L431.621 1178.11L397.666 1247.83L397.442 1247.63L395.513 1246.13L395.142 1245.83L420.116 1174.76L420.487 1175.06L422.712 1176.76L423.888 1173.57L424.148 1172.83L425.32 1169.53L423.019 1167.72L414.707 1161.22L414.631 1161.11L414.04 1160.72L412.406 1159.41L412.335 1159.42L404.022 1152.91L401.721 1151.1ZM409.427 1166.35L409.798 1166.65L412.099 1168.45L412.171 1168.45L412.546 1168.85L387.572 1239.92L387.201 1239.62L387.125 1239.52L384.824 1237.71L384.457 1237.52L409.427 1166.35ZM614.221 1159.67L612.271 1161.42L611.296 1162.3L609.489 1164.04L610.391 1166.95L635.581 1246.62L634.957 1247.27L632.799 1249.24L634.212 1252.34L634.528 1253.06L635.873 1256.26L638.031 1254.29L643.947 1248.82L646.109 1246.96L644.692 1243.76L644.376 1243.03L643.031 1239.83L640.873 1241.8L640.805 1241.91L630.09 1207.99L646.165 1236.98L646.025 1237.09L643.938 1239.06L645.284 1242.26L645.599 1242.99L647.012 1246.08L649.103 1244.22L656.896 1237L659.059 1235.13L657.641 1231.93L657.326 1231.21L655.981 1228L653.822 1229.97L653.267 1230.52L615.619 1162.34L614.221 1159.67ZM499.899 1202.93L500.041 1206.7L500.073 1207.54L500.211 1211.21L502.8 1211.11L503.232 1211.09L506.287 1292.02L505.855 1292.03L503.266 1292.13L503.404 1295.8L503.436 1296.64L503.575 1300.31L506.164 1300.21L514.578 1299.89L515.441 1299.86L517.095 1299.8L518.03 1299.76L524.215 1299.53L526.805 1299.43L526.666 1295.76L526.634 1294.92L526.496 1291.26L523.907 1291.35L523.835 1291.36L525.978 1254.64L530.236 1291.11L530.02 1291.12L527.503 1291.22L527.641 1294.89L527.673 1295.72L527.812 1299.39L530.329 1299.3L539.678 1298.95L542.196 1298.85L542.057 1295.18L542.025 1294.34L541.887 1290.67L539.37 1290.77L538.651 1290.8L528.865 1205.19L528.523 1201.85L526.222 1201.93L525.071 1201.98L522.841 1202.06L522.676 1205.32L517.578 1291.59L516.787 1291.62L515.133 1291.68L514.773 1291.7L511.719 1210.77L512.078 1210.76L514.668 1210.66L514.529 1206.99L514.497 1206.16L514.355 1202.38L511.766 1202.48L502.488 1202.83L499.899 1202.93Z" fill="url(#paint1_linear_1106_283)"/>
</g>
<path d="M468.057 534.451L464.094 535.219L465.388 547.031L465.776 550.587C467.096 550.319 468.425 550.064 469.744 549.826L469.354 546.27L468.057 534.451V534.451Z" fill="#010101"/>
<path d="M440.277 541.707L436.393 543.07L438.521 554.605L439.161 558.084C440.456 557.622 441.74 557.147 443.039 556.698L442.403 553.212L440.277 541.707V541.707Z" fill="#010101"/>
<path d="M413.255 553.175L409.505 555.134L412.422 566.283L413.312 569.662C414.553 568.994 415.807 568.342 417.058 567.707L416.176 564.318L413.255 553.175V553.175Z" fill="#010101"/>
<path d="M387.276 568.743L383.705 571.276L387.399 581.96L388.515 585.199C389.704 584.345 390.903 583.51 392.098 582.679L390.973 579.447L387.276 568.743V568.743Z" fill="#010101"/>
<path d="M339.615 611.501L336.504 615.088L341.638 624.539L343.186 627.386C344.214 626.181 345.25 624.98 346.297 623.795L344.747 620.951L339.615 611.501V611.501Z" fill="#010101"/>
<path d="M318.436 638.213L315.607 642.266L321.387 650.92L323.126 653.521C324.065 652.162 325.017 650.816 325.969 649.48L324.23 646.879L318.436 638.213V638.213Z" fill="#010101"/>
<path d="M299.356 668.106L296.835 672.571L303.184 680.323L305.1 682.659C305.931 681.156 306.766 679.653 307.616 678.17L305.707 675.847L299.356 668.106V668.106Z" fill="#010101"/>
<path d="M282.569 700.84L280.394 705.681L287.226 712.424L289.288 714.459C290.005 712.833 290.737 711.22 291.472 709.62L289.406 707.585L282.569 700.84V700.84Z" fill="#010101"/>
<path d="M256.605 773.389L255.183 778.831L262.748 783.359L265.037 784.734C265.51 782.915 265.974 781.101 266.464 779.292L264.17 777.924L256.605 773.389V773.389Z" fill="#010101"/>
<path d="M256.873 822.427C257.205 820.547 257.544 818.656 257.902 816.792L255.531 815.773L247.709 812.413L246.684 818.045L254.499 821.404L256.873 822.427V822.427Z" fill="#010101"/>
<path d="M251.491 861.299C251.685 859.361 251.903 857.441 252.121 855.515L249.693 854.871L241.674 852.711L241.074 858.498L249.063 860.645L251.491 861.299Z" fill="#010101"/>
<path d="M248.965 900.913C249.022 898.952 249.094 897.001 249.168 895.05L246.719 894.766L238.582 893.824L238.393 899.686L246.511 900.616L248.965 900.913Z" fill="#010101"/>
<path d="M252.377 980.538C252.157 978.599 251.943 976.658 251.745 974.708L249.315 975.169L241.289 976.735L241.931 982.555L249.959 981.003L252.377 980.538V980.538Z" fill="#010101"/>
<path d="M258.297 1019.72C257.939 1017.82 257.572 1015.92 257.233 1014.02L254.868 1014.85L247.051 1017.62L248.108 1023.33L255.929 1020.56L258.297 1019.72V1019.72Z" fill="#010101"/>
<path d="M265.518 1052.37L263.233 1053.57L255.696 1057.52L257.16 1063.05L264.684 1059.12L266.972 1057.92C266.473 1056.06 265.993 1054.23 265.518 1052.37V1052.37Z" fill="#010101"/>
<path d="M274.315 1090.9L267.114 1096L268.955 1101.3L276.135 1096.2L278.313 1094.66C277.695 1092.89 277.096 1091.13 276.492 1089.36L274.315 1090.9Z" fill="#010101"/>
<path d="M304.056 1159.8L297.759 1167.05L300.294 1171.7L306.594 1164.46L308.494 1162.28C307.644 1160.72 306.789 1159.18 305.953 1157.61L304.056 1159.8V1159.8Z" fill="#010101"/>
<path d="M322.387 1190.62L316.644 1198.82L319.497 1203.08L325.224 1194.89L326.96 1192.42C325.999 1191.01 325.057 1189.57 324.114 1188.14L322.387 1190.62V1190.62Z" fill="#010101"/>
<path d="M342.738 1218.59L337.636 1227.66L340.769 1231.46L345.872 1222.38L347.408 1219.66C346.365 1218.39 345.312 1217.13 344.275 1215.85L342.738 1218.59Z" fill="#010101"/>
<path d="M364.917 1243.38L360.515 1253.2L363.887 1256.5L368.285 1246.71L369.615 1243.76C368.49 1242.65 367.365 1241.55 366.25 1240.42L364.917 1243.38V1243.38Z" fill="#010101"/>
<path d="M413.752 1282.41L410.878 1293.34L414.629 1295.57L417.499 1284.64L418.376 1281.32C417.12 1280.6 415.868 1279.86 414.62 1279.09L413.752 1282.41Z" fill="#010101"/>
<path d="M439.892 1296.17L437.831 1307.51L441.703 1309.15L443.768 1297.84L444.398 1294.39C443.105 1293.84 441.809 1293.29 440.52 1292.73L439.892 1296.17V1296.17Z" fill="#010101"/>
<path d="M466.789 1305.86L465.556 1317.52L469.514 1318.58L470.751 1306.95L471.127 1303.43C469.798 1303.08 468.486 1302.7 467.165 1302.32L466.789 1305.86V1305.86Z" fill="#010101"/>
<path d="M494.149 1311.4L493.754 1323.26L497.754 1323.72L498.157 1311.87L498.275 1308.28C496.94 1308.15 495.599 1307.98 494.272 1307.81L494.149 1311.4Z" fill="#010101"/>
<path d="M552.627 1305.64C551.307 1305.9 549.989 1306.16 548.666 1306.39L549.058 1309.96L550.363 1321.75L554.308 1320.97L553.015 1309.19L552.627 1305.64V1305.64Z" fill="#010101"/>
<path d="M579.241 1298.14C577.952 1298.6 576.665 1299.07 575.371 1299.52L576.014 1303.02L578.138 1314.53L582 1313.14L579.885 1301.63L579.241 1298.14Z" fill="#010101"/>
<path d="M605.094 1286.56C603.856 1287.23 602.604 1287.88 601.351 1288.5L602.246 1291.9L605.165 1303.04L608.892 1301.06L605.98 1289.94L605.094 1286.56V1286.56Z" fill="#010101"/>
<path d="M629.887 1271.03C628.704 1271.88 627.509 1272.71 626.314 1273.54L627.44 1276.79L631.133 1287.46L634.688 1284.92L631.014 1274.28L629.887 1271.03Z" fill="#010101"/>
<path d="M675.223 1228.84C674.197 1230.03 673.161 1231.24 672.12 1232.41L673.668 1235.26L678.804 1244.7L681.898 1241.12L676.771 1231.7L675.223 1228.84V1228.84Z" fill="#010101"/>
<path d="M695.285 1202.7C694.351 1204.06 693.403 1205.4 692.455 1206.72L694.199 1209.33L699.986 1217.99L702.79 1213.94L697.032 1205.31L695.285 1202.7V1202.7Z" fill="#010101"/>
<path d="M713.306 1173.57C712.482 1175.07 711.644 1176.55 710.796 1178.03L712.705 1180.36L719.056 1188.11L721.558 1183.63L715.221 1175.89L713.306 1173.57V1173.57Z" fill="#010101"/>
<path d="M729.123 1141.78C728.409 1143.39 727.675 1144.99 726.945 1146.6L729.006 1148.62L735.845 1155.37L738.006 1150.53L731.184 1143.8L729.123 1141.78V1141.78Z" fill="#010101"/>
<path d="M753.373 1071.49C752.911 1073.3 752.443 1075.12 751.956 1076.92L754.252 1078.29L761.814 1082.83L763.218 1077.39L755.665 1072.87L753.373 1071.49V1071.49Z" fill="#010101"/>
<path d="M761.538 1033.79C761.213 1035.68 760.871 1037.55 760.52 1039.42L762.891 1040.44L770.705 1043.78L771.701 1038.16L763.913 1034.8L761.538 1033.79V1033.79Z" fill="#010101"/>
<path d="M766.925 994.916C766.726 996.845 766.513 998.761 766.292 1000.68L768.714 1001.34L776.735 1003.49L777.326 997.725L769.349 995.577L766.925 994.916Z" fill="#010101"/>
<path d="M769.45 955.308C769.395 957.272 769.328 959.219 769.252 961.17L771.698 961.438L779.829 962.37L780.003 956.539L771.899 955.605L769.45 955.308V955.308Z" fill="#010101"/>
<path d="M766.033 875.668C766.251 877.608 766.467 879.548 766.669 881.482L769.095 881.017L777.135 879.461L776.464 873.658L768.453 875.2L766.033 875.668Z" fill="#010101"/>
<path d="M760.117 836.499C760.472 838.39 760.839 840.284 761.178 842.196L763.541 841.344L771.364 838.573L770.286 832.904L762.48 835.66L760.117 836.499V836.499Z" fill="#010101"/>
<path d="M752.887 803.831L755.179 802.633L762.713 798.674L761.242 793.167L753.728 797.098L751.443 798.296C751.934 800.132 752.418 801.978 752.887 803.831Z" fill="#010101"/>
<path d="M744.091 765.301L751.298 760.188L749.449 754.917L742.273 760.002L740.084 761.539C740.706 763.299 741.31 765.077 741.912 766.848L744.091 765.301V765.301Z" fill="#010101"/>
<path d="M711.813 691.753L709.915 693.934C710.764 695.474 711.618 697.024 712.449 698.591L714.355 696.403L720.654 689.145L718.112 684.515L711.813 691.753V691.753Z" fill="#010101"/>
<path d="M693.177 661.324L691.449 663.787C692.406 665.192 693.347 666.631 694.286 668.064L696.014 665.587L701.764 657.365L698.908 653.133L693.177 661.324Z" fill="#010101"/>
<path d="M672.535 633.819L670.997 636.544C672.045 637.808 673.09 639.069 674.127 640.343L675.661 637.618L680.771 628.534L677.639 624.752L672.535 633.819V633.819Z" fill="#010101"/>
<path d="M650.119 609.502L648.788 612.455C649.912 613.558 651.036 614.678 652.156 615.794L653.483 612.845L657.899 603.011L654.518 599.709L650.119 609.502V609.502Z" fill="#010101"/>
<path d="M626.147 588.673L625.042 591.818C626.243 592.744 627.431 593.693 628.62 594.646L629.727 591.497L633.39 581.029L629.803 578.259L626.147 588.673V588.673Z" fill="#010101"/>
<path d="M600.897 571.568L600.028 574.882C601.278 575.621 602.534 576.36 603.778 577.126L604.653 573.808L607.519 562.87L603.775 560.64L600.897 571.568V571.568Z" fill="#010101"/>
<path d="M574.637 558.372L574.009 561.816C575.306 562.355 576.597 562.914 577.891 563.49L578.513 560.05L580.584 548.682L576.706 547.052L574.637 558.372Z" fill="#010101"/>
<path d="M547.649 549.273L547.275 552.791C548.597 553.131 549.918 553.507 551.24 553.888L551.616 550.363L552.855 538.681L548.895 537.638L547.649 549.273V549.273Z" fill="#010101"/>
<path d="M521.102 566.99L520.981 570.559C522.319 570.7 523.655 570.861 524.996 571.026L525.11 567.451L525.5 555.555L521.505 555.121L521.102 566.99V566.99Z" fill="#010101"/>
<path d="M764.513 916.319C768.511 1022.24 630.909 931.651 499.987 933.922C375.481 936.086 257.541 1036.32 253.739 935.598C245.94 728.96 353.958 557.125 495.003 551.801C636.048 546.477 756.713 709.681 764.513 916.319Z" fill="url(#paint2_linear_1106_283)"/>
</g>
<path d="M1566.5 448.5L1552.5 427.5L1537.5 416.5L1521 421L1514.5 438.5L1518 451.5L1519.5 463L1518 484.5L1519.5 496L1524.5 504.5L1528.5 531L1534 522L1533 500.5V491L1537.5 484.5L1548.5 487L1566.5 507L1567.25 515.75L1568 524.5L1556.5 535.5L1568 532.5L1574.5 523V514.5V504.5L1607.5 532.5V524.5L1586 504.5L1587.5 500.5L1605.5 509.5L1623.5 523L1614 507L1597.5 492.5L1595.5 487L1614 482.5L1622 479L1603.5 477.5L1587.5 472.5L1577.5 466L1566.5 448.5Z" fill="white" stroke="black"/>
<path d="M1535.5 413.5L1554 425L1579 463L1589.5 470L1604 475.5H1613.5L1626.5 478L1641.5 487L1649.5 492L1623 481.5L1598 488.5L1600.5 492L1617 506L1630 528.5L1635 542.5L1617 520.5L1604 511L1587.5 503L1609 522.5L1613.5 556L1605.5 533.5L1577.5 511V523L1573 531.5L1562 537L1532.5 547L1556 531.5L1564.5 524.5V508L1547 490L1539 488.5L1535.5 492V520.5L1532.5 530L1526 537L1522.5 511V506L1516 495V483V472.5V456L1514 450.5" stroke="black" stroke-width="6"/>
<path d="M991 361C989.855 369.885 984.5 383 984.5 383C984.5 383 1017.54 475.094 1048 529.5C1053.3 538.968 1056.44 544.18 1062 553.5C1067.38 562.532 1067.48 570.344 1076 576.5C1079.54 579.056 1081.64 581.267 1086 581.5C1090.89 581.762 1092.61 576.209 1097.5 576.5C1102.85 576.819 1104.45 581.164 1109 584C1116.28 588.536 1128 595 1128 595C1128 595 1152.04 589.231 1165.5 595C1173.4 598.387 1177.13 602.12 1183.11 608.105L1183.5 608.5C1187.62 612.622 1188.39 616.437 1193 620C1197.91 623.796 1201.61 624.544 1207.5 626.5C1216.15 629.373 1221.42 629.689 1230.5 630.5C1240.22 631.368 1245.89 632.25 1255.5 630.5C1268.82 628.073 1273.91 619.479 1287 616C1293.52 614.268 1297.41 611.592 1304 613C1310.73 614.437 1311.93 620.97 1318.5 623C1327.52 625.787 1333.13 621.215 1342.5 620C1354.03 618.504 1360.57 618.131 1372 616C1384.24 613.717 1391.28 612.709 1403 608.5C1419.28 602.655 1442 587.5 1442 587.5C1442 587.5 1424.7 587.054 1414 584.5C1397.94 580.665 1389.3 576.071 1375.5 567C1360.84 557.362 1353.63 550.064 1342.5 536.5C1331.05 522.549 1327.14 512.847 1318.5 497C1308.76 479.134 1301.64 469.551 1296 450C1288.73 424.804 1291.5 383 1291.5 383C1291.5 383 1288.64 336.463 1280.5 308C1277.21 296.482 1276.12 289.578 1270.5 279C1265.77 270.101 1262.54 265.208 1255.5 258C1244.29 246.527 1235.81 241.298 1220.5 236.5C1206.67 232.164 1183.5 233.5 1183.5 233.5C1183.5 233.5 1178.52 222.346 1172 220C1165.05 217.496 1160.53 221.719 1153.5 224C1137.92 229.053 1132.93 240.018 1117.5 245.5C1109.91 248.195 1105.47 249.359 1097.5 250.5C1086.48 252.078 1080.02 248.944 1069 250.5C1058.35 252.004 1052.35 253.692 1042.5 258C1034 261.716 1028.92 263.823 1022 270C1015.56 275.747 1012.99 280.127 1008.5 287.5C1003.91 295.037 1002.06 299.723 999 308C994.209 320.974 992.078 328.712 991 342.5C990.437 349.703 991.923 353.835 991 361Z" fill="black"/>
<path d="M1166 367.5C1164.32 352.627 1156.36 345.463 1156 330.5C1155.79 321.856 1155.99 316.775 1158.5 308.5C1160.5 301.896 1166 292.5 1166 292.5C1166 292.5 1161.78 306.693 1162 316C1162.2 324.154 1164.29 328.524 1166 336.5C1169.92 354.839 1178.34 364.249 1178 383C1177.86 390.676 1177.07 394.984 1175.5 402.5L1175.4 402.995C1174.01 409.65 1173.18 413.603 1170.5 420C1166.46 429.64 1156 442.5 1156 442.5L1152 464.5L1156 487L1142 464.5V450L1152 426C1152 426 1163.41 408.666 1166 396C1168.23 385.096 1167.25 378.56 1166 367.5Z" fill="white"/>
<path d="M724.5 398L822 427V471.5L768.5 458.5L701 435L724.5 398Z" fill="white"/>
<path d="M881.5 412L867.5 404.5L845.5 398L799 404.5H712L644.5 384H631.5" stroke="black" stroke-width="5"/>
<path d="M855 470.5H822.5C822.5 470.5 790.353 460.1 769 458C753.065 456.433 718.341 439.83 702.5 437.5" stroke="black" stroke-width="7"/>
<path d="M893.5 608L882.5 649.5L893.5 712.5L882.5 772L683.5 684.5L738.5 626.5L792 567.5L807 540.5L816.5 511L801.5 498.5L792 474.5L801.5 445.5L816.5 431L848 419L931.5 406L994 385L1045 352.5L1081 373.5L1089.5 406L1045 427H1075.5L1097.5 455.5L1068 502.5L1032 521.5L994 540.5L966.5 572H939L893.5 608Z" fill="white"/>
<path d="M889.5 749C889.5 749 894.399 726.274 894.5 711.5C894.663 687.605 877.903 674.949 882.5 651.5C885.592 635.732 890.883 619.873 900.5 607C918.426 583.004 960.5 569.5 960.5 569.5C960.5 569.5 982.425 551.329 996 540C1020.61 519.465 1069 502.5 1069 502.5L1097 456L1078.5 428H1045.5L1089 406.5C1089 406.5 1089.94 385.422 1083.5 374.5C1074.74 359.644 1045.5 352 1045.5 352C1045.5 352 1016.76 374.566 996 385C972.773 396.675 958.24 400.277 933 406.5C901.63 414.235 851 417.5 851 417.5C851 417.5 828.886 420.363 817.5 428C807.857 434.468 801.445 439.08 797.5 450C793.984 459.733 796.268 466.225 797.5 476.5C799.118 490.002 805.53 496.481 807 510C807.95 518.735 808.146 523.788 807 532.5C805.421 544.5 802.964 551.2 797.5 562C790.534 575.769 773 593 773 593L705 662" stroke="black" stroke-width="5"/>
<path d="M1329 394.5L1295 403.5L1278.5 431.5L1286.5 445.5L1307.5 454.5C1307.5 454.5 1341.06 459.362 1363.5 458.5C1412.85 456.605 1464.5 439 1464.5 439L1508.5 445.5H1528.5L1537.5 416.5H1490.5L1417 409L1368.5 399.5L1329 394.5Z" fill="white"/>
<path d="M1288.5 451.5C1288.5 451.5 1308.16 456.609 1321 458.5C1349.4 462.682 1365.87 460.591 1394.5 458.5C1431.03 455.831 1451.37 434.494 1487 443C1496.67 445.309 1515 448.5 1515 448.5" stroke="black" stroke-width="6"/>
<path d="M1292 401.5C1292 401.5 1304.9 399.286 1317 396.5C1357.83 387.098 1386.38 402.751 1428 407.5C1457.98 410.921 1474.83 413.256 1505 414C1517.49 414.308 1537 414 1537 414" stroke="black" stroke-width="6"/>
<path d="M1068.5 501C1068.5 501 1087.75 502.134 1100 501C1121.08 499.048 1131.44 489.672 1152.5 487.5C1167.07 485.997 1175.47 489.301 1190 487.5C1205.42 485.59 1213.71 482.255 1228.5 477.5C1260.69 467.152 1307 441 1307 441" stroke="black" stroke-width="5"/>
<path d="M1043.5 431.5C1043.5 431.5 1063.08 422.69 1076.5 421C1093.85 418.814 1103.54 425.004 1121 426C1139.13 427.035 1146.84 426 1165 426C1181.99 426 1194.31 429.15 1211 426C1237.5 421 1253.01 418.659 1275 404C1277.8 402.137 1282 399 1282 399" stroke="black" stroke-width="5"/>
<path d="M1078.5 422.5C1068.85 423.4 1062.5 421.832 1054 426.5C1047.34 430.157 1043.52 433.27 1040 440C1034.84 449.863 1036.86 457.822 1040 468.5C1044.46 483.659 1051.58 493.031 1066 499.5C1079.54 505.576 1104 499.5 1104 499.5C1104 499.5 1129.29 488.778 1146.5 487C1156.21 485.997 1161.75 487.58 1171.5 487C1184.29 486.238 1191.51 485.36 1204 482.5C1216.4 479.66 1223.06 476.888 1235 472.5C1257.15 464.362 1272.81 461.381 1294 451C1299.88 448.118 1310.5 451 1310.5 451L1305 422.5L1294 402.5L1279 406.5C1279 406.5 1238.83 423.488 1211.5 426.5C1194.61 428.361 1184.99 426.5 1168 426.5C1155.7 426.5 1148.8 426.798 1136.5 426.5C1113.8 425.951 1101.11 420.392 1078.5 422.5Z" fill="white"/>
<path d="M1146.5 249.5C1152.52 248.881 1162 249.5 1162 249.5C1162 249.5 1147.01 261.96 1142.5 273C1138.85 281.948 1139.73 287.863 1139 297.5C1138.18 308.404 1136.81 314.787 1139 325.5C1141.26 336.553 1146.07 341.626 1150.5 352C1155.66 364.072 1163.5 383 1163.5 383L1156.5 389C1156.5 389 1132.06 398.991 1115.5 401C1103.29 402.481 1096.13 403.061 1084 401C1070.66 398.733 1063.11 395.948 1051.5 389C1043.62 384.286 1036.71 382.898 1033 374.5C1028.41 364.095 1034.43 356.8 1038 346C1042.96 330.992 1048.12 322.726 1057.5 310C1065.04 299.771 1070.26 294.654 1080 286.5C1086.98 280.659 1099 273 1099 273C1099 273 1125.91 251.616 1146.5 249.5Z" fill="white" stroke="black" stroke-width="5"/>
<path d="M1069 331C1069 331 1068.48 339.082 1067 344C1065.96 347.437 1064.6 349.024 1065.5 352.5C1066.26 355.441 1067.16 355.586 1069 358C1071.28 360.985 1070.44 363.317 1073.5 365.5C1075.66 367.044 1077.55 367.481 1080 368.5C1083.56 369.977 1085.18 371.545 1088.5 373.5C1092.8 376.034 1099.5 380 1099.5 380L1094 371C1094 371 1089 366.104 1088 362C1087.31 359.154 1089.51 357.012 1088 354.5C1086.69 352.317 1083.51 353.339 1082.5 351C1082.5 351 1084.04 347.388 1083 345.5C1081.95 343.588 1078 343 1078 343C1078 343 1074.94 341.901 1073.5 340.5C1073.5 340.5 1071.83 338.147 1071 336.5C1069.98 334.457 1069 331 1069 331Z" fill="black"/>
<path d="M1090.5 349C1092.84 351.591 1100.5 352.5 1100.5 352.5V351C1100.5 348 1094.8 347.448 1094 346C1092.58 343.44 1094 338.5 1094 338.5C1094 338.5 1093.16 335.231 1091.5 335C1090.2 334.82 1087.39 340.5 1088.5 338.5C1090.3 335.259 1088.5 344.5 1088.5 344.5C1088.5 344.5 1089.56 347.956 1090.5 349Z" fill="black"/>
<path d="M1138.5 350.5C1136.75 346.675 1134 340 1134 340C1134 340 1132.86 344.535 1132.5 347.5C1131.94 352.152 1131.15 355.011 1132.5 359.5C1133.76 363.703 1135.11 366.209 1138.5 369C1141.61 371.561 1144.02 372.384 1148 373C1150.51 373.388 1154.5 373 1154.5 373C1154.5 373 1150.16 368.904 1148 367C1145.68 364.961 1142.63 360.122 1141 357.5C1138.56 353.569 1140.43 354.709 1138.5 350.5Z" fill="black"/>
<path d="M1102.5 287C1104.35 283.605 1109.5 280 1109.5 280C1109.5 280 1109.84 286.241 1109.5 288.5C1108.9 292.437 1110.63 295.261 1112 299C1113.38 302.775 1115.6 303.278 1118 306.5C1119.74 308.826 1121.37 309.598 1123 312C1123.64 312.942 1124.5 314.5 1124.5 314.5V315.5C1124.5 315.5 1120.02 316.556 1118 315.5C1114.82 313.835 1112.48 314.007 1109.5 312C1106.18 309.76 1104.33 308.065 1102.5 304.5C1101.2 301.97 1100.76 300.332 1100.5 297.5C1100.12 293.343 1100.5 290.666 1102.5 287Z" fill="black"/>
<path d="M686 747C697.492 713.151 705 692 705 692C705 692 774.805 676.096 814.5 692C849.574 706.053 887.5 755.5 887.5 755.5C887.5 755.5 882.416 817.4 867.5 853.5C852.796 889.088 838.315 906.556 813.5 936C794.102 959.017 811.281 973.977 792.5 997.5C781.551 1011.21 792.5 1027 792.5 1027C792.5 1027 781.055 1057.29 780.5 1077C779.828 1100.86 777.011 1116.03 770.5 1139C756.96 1186.76 719 1286.5 719 1286.5L639 1381L622.5 1462L598 1500L550 1524H509.5L538.5 1460.5L564 1400.5L613 1277.5L637.5 1155L650.5 1027C650.5 1027 662.517 966.238 675 932.5C686.057 902.618 677.32 877.157 686 846.5C696.479 809.493 673.635 783.42 686 747Z" fill="white" stroke="white" stroke-width="5"/>
<path d="M615 1424C622.164 1416.14 637.5 1404 637.5 1404L626.5 1459.5C626.5 1459.5 614.543 1487.83 600.5 1501C586.043 1514.56 555 1523.5 555 1523.5C555 1523.5 508.632 1543.94 506.5 1526.5C506.239 1524.37 506.5 1520 506.5 1520L534.5 1467C534.5 1467 530.791 1487.09 538.5 1495C550.875 1507.7 579.5 1475.5 579.5 1475.5C579.5 1475.5 598.54 1442.05 615 1424Z" fill="black"/>
<path d="M509 1520.5L534 1468.5L611.5 1275L632.5 1155" stroke="black" stroke-width="4"/>
<path d="M989.5 731C964.912 705.272 961.505 680.807 933 659.5C925.191 653.663 921.155 649.351 912 646C902.037 642.353 885 643 885 643C885 643 889.735 618.084 898.5 605C913.895 582.019 938.336 586.811 959.5 569C974.827 556.101 994.5 531.5 994.5 531.5C994.5 531.5 975.262 477.339 948.5 455C929.729 439.332 916.514 431.602 892.5 427C875.816 423.803 858.656 417.161 842 420.5C827.636 423.379 819.853 426.135 809.5 436.5C799.404 446.608 796.774 448.716 796.5 463C796.212 478.012 809.5 513 809.5 513L800.5 564L746 619.5L685.5 687.5L649.5 762L615.5 897.5L649.5 1022C649.5 1022 712.464 1140.17 695 1216C688.302 1245.08 674.451 1258.03 665.5 1286.5C656.69 1314.52 649.5 1360 649.5 1360C649.5 1360 664.96 1356.37 671.5 1362C676.75 1366.52 676.382 1371.77 678 1378.5C681.335 1392.38 676 1415 676 1415L674 1441.5C674 1441.5 674.699 1467.56 684 1480C689.643 1487.55 694.024 1491.38 702.5 1495.5C709.91 1499.1 714.771 1500.07 723 1500.5C742.229 1501.51 749.98 1486.77 768.5 1481.5C779.44 1478.39 786.219 1479.13 797 1475.5C811.404 1470.66 831.5 1457.5 831.5 1457.5C831.5 1457.5 854.268 1441.08 868 1429.5C881.625 1418.01 901.5 1398.5 901.5 1398.5L928.5 1372C928.5 1372 938.426 1377.77 945.5 1379C957.916 1381.16 965.18 1376.37 977 1372C1006.01 1361.28 1015.93 1343.16 1038 1321.5C1063.63 1296.36 1074.6 1279.05 1097 1251C1125.8 1214.93 1168 1156.5 1168 1156.5L1213 1101L1262.5 1046L1325 980.5L1394.5 919.5C1394.5 919.5 1390.44 915.012 1387.5 912.5C1375.92 902.604 1362.84 907.664 1351.5 897.5C1343.99 890.774 1338.6 886.357 1336.5 876.5C1335.4 871.344 1335.67 868.206 1336.5 863C1337.55 856.41 1339.67 853.042 1342.5 847C1351.85 827.056 1365.27 821.223 1379 804C1409.63 765.589 1424.55 742.216 1450.5 700.5C1473.59 663.378 1505.5 603 1505.5 603L1525 562C1525 562 1531.01 551.466 1525 546.5C1512.35 536.049 1509.52 566.913 1499 579.5C1481.1 600.914 1470.26 612.287 1450.5 632C1431.33 651.128 1420.96 662.471 1399.5 679C1379.25 694.601 1366.01 700.685 1344.5 714.5C1307.49 738.27 1249.5 775 1249.5 775C1249.5 775 1223.88 789.766 1206 795.5C1180.52 803.672 1138 804 1138 804C1138 804 1114.88 803.567 1100.5 800.5C1084.07 796.997 1075.12 793.325 1060 786C1044.2 778.347 1035.84 772.797 1022 762C1008.17 751.21 1001.62 743.68 989.5 731Z" fill="url(#paint3_linear_1106_283)" stroke="black"/>
<path d="M718 1237.5C690.359 1269.12 664 1330.5 664 1330.5C664 1330.5 680.365 1326.07 689.5 1320.5C703.3 1312.09 718 1290.5 718 1290.5L764 1258L781.5 1250V1258V1268.5C781.5 1268.5 786.268 1274.11 790.5 1275.5H801C801 1275.5 828.328 1253.22 844.5 1237.5C859.06 1223.34 865.947 1214.16 880 1199.5C896.912 1181.86 907.83 1173.32 924 1155C941.677 1134.97 949.718 1122.18 966 1101C979.162 1083.88 983.632 1071.65 999.5 1057C1013.03 1044.51 1020.17 1032.28 1038.5 1030.5H1048C1048 1030.5 1050.49 1041.07 1054.5 1046.5C1058.29 1051.63 1061.2 1054.35 1067 1057C1076.06 1061.14 1082.67 1058.62 1092.5 1057C1107.68 1054.49 1115.01 1048.39 1128.5 1041C1152.58 1027.81 1163.89 1016.64 1184.5 998.5C1222 965.483 1236.69 940.531 1268.5 902C1313.72 847.215 1379 757.5 1379 757.5C1379 757.5 1311.33 845.193 1263.5 897.5C1244.21 918.598 1234.78 931.983 1213 950.5C1186.88 972.704 1171.18 985.399 1139.5 998.5C1126.03 1004.07 1116.43 1017.61 1104 1010C1097.02 1005.73 1098.94 997.537 1092.5 992.5C1084.4 986.17 1077.28 985.894 1067 986C1053.22 986.142 1046.42 992.528 1034 998.5C1019.79 1005.33 999.5 1019.5 999.5 1019.5L980 1041L951.5 1081.5L906.5 1141C906.5 1141 874.322 1195.22 840 1199.5C832.443 1200.44 827.507 1202.48 820.5 1199.5C807.756 1194.07 817.024 1176.56 807.5 1166.5C801.989 1160.68 798.285 1156.91 790.5 1155C769.709 1149.91 772.609 1183.4 758.5 1199.5C744.204 1215.81 732.274 1221.17 718 1237.5Z" fill="#594949" fill-opacity="0.31" stroke="black"/>
<path d="M737.5 1343.5C724.01 1345.57 712.645 1344.05 704.5 1355C700.626 1360.21 700.47 1364.32 698.5 1370.5C694.815 1382.07 693.755 1388.93 692.5 1401C691.067 1414.79 685.876 1424.32 692.5 1436.5C697.327 1445.38 702.53 1449.98 712 1453.5C721.335 1456.97 727.797 1455.74 737.5 1453.5C752.855 1449.95 760.343 1442.61 771 1431C786.206 1414.44 793.5 1378 793.5 1378C793.5 1378 844.32 1391.18 872 1378C888.389 1370.2 907.5 1348 907.5 1348C907.5 1348 930.496 1316.62 944.5 1296C956.55 1278.26 962.273 1267.62 974.5 1250C987.235 1231.65 998.456 1223.95 1008.5 1204C1022.81 1175.57 1003.37 1146.37 1026.5 1124.5C1032.41 1118.92 1036.21 1116.09 1043.5 1112.5C1064 1102.42 1080.59 1120.46 1102 1112.5C1118.51 1106.36 1125.41 1097.79 1138.5 1086C1163.08 1063.86 1189 1018 1189 1018C1189 1018 1158.78 1044 1138.5 1059.5C1124.5 1070.19 1102 1086 1102 1086C1102 1086 1070.12 1096 1054.5 1086C1043.78 1079.13 1048.23 1059.81 1035.5 1059.5C1022.54 1059.18 1022.16 1074.88 1015.5 1086C1001.48 1109.42 1006.84 1128.42 994 1152.5C982.074 1174.87 969.76 1183.76 954.5 1204C938.7 1224.95 931.65 1238.13 914.5 1258C894.558 1281.1 885.362 1298.02 858.5 1312.5C841.65 1321.58 830.139 1321.89 812 1328C794.212 1334 766.5 1343.5 766.5 1343.5C766.5 1343.5 748.695 1341.79 737.5 1343.5Z" fill="#594949" fill-opacity="0.46" stroke="black"/>
<path d="M838.5 1044.5C797.801 1086.32 742.5 1159 742.5 1159C742.5 1159 769.553 1107.92 790.5 1077.5C824.948 1027.47 851.985 1005.31 893 960.5C905.408 946.945 911.853 938.839 925 926C936.079 915.18 940.329 905.745 954.5 899.5C961.348 896.482 965.624 893.235 973 894.5C982.935 896.204 991.5 912.5 991.5 912.5C991.5 912.5 1002.61 901.356 1010 894.5C1029.94 875.999 1040.62 864.41 1064 850.5C1084.82 838.111 1097.61 819.671 1121 826C1125.9 827.326 1128.43 828.779 1133 831C1142.4 835.573 1155.5 845.5 1155.5 845.5C1155.5 845.5 1186.35 837.814 1205.5 831C1228.81 822.707 1241.9 817.565 1263.5 805.5C1283.5 794.329 1293.1 785.448 1312 772.5C1345.92 749.264 1398.5 712.5 1398.5 712.5C1398.5 712.5 1347.16 767.246 1312 800C1274.81 834.649 1256.41 858.056 1213 884.5C1179.34 905.005 1157.6 940.63 1121 926C1103.79 919.12 1085.5 894.5 1085.5 894.5C1085.5 894.5 1046.49 918.564 1021.5 934C995.914 949.806 967.155 1002.43 956 974.5C951.799 963.983 956 945.5 956 945.5C956 945.5 944.906 951.064 938 955C892.593 980.878 874.953 1007.05 838.5 1044.5Z" fill="#594949" fill-opacity="0.51" stroke="black"/>
<path d="M996 563L967 569L948 575L940.5 580L983 583C983 583 1007.89 572.786 1001 566C999.378 564.402 996 563 996 563Z" fill="white" stroke="black" stroke-width="5"/>
<path d="M448 196.5L470.5 190L595 157C595 157 604.918 153.763 611.5 153.5C613.061 153.438 613.953 153.72 615.5 153.5C618.7 153.045 620.396 151.915 623 150C625.002 148.528 625.632 147.139 627.5 145.5C629.701 143.568 633.5 141 633.5 141C633.5 141 634.657 140.254 635 139.5C635.914 137.489 632.767 136.825 631 135.5C627.048 132.536 623.679 133.084 619 131.5C613.326 129.579 609.907 129.077 604.5 126.5C598.876 123.82 594.884 122.871 591 118C588.55 114.927 588.03 112.619 586.5 109C582.663 99.9273 580.5 84.5 580.5 84.5L572 43L565 7.99997C565 7.99997 564.241 4.69741 563 2.99997C558.965 -2.51614 552.318 2.52745 545.5 2.99997C534.611 3.75468 528.733 6.0111 518 7.99997C507.645 9.91887 501.766 10.6495 491.5 13C483.236 14.8921 478.591 15.9679 470.5 18.5C462.364 21.0461 458.052 23.2005 450 26C443.584 28.2305 437.128 25.7577 433.5 31.5C432.279 33.4322 431.387 34.7173 431.5 37C431.634 39.7093 435 43 435 43L444 74L454 106C454 106 457.66 118.347 458.5 126.5C459.26 133.881 458.5 138.08 458.5 145.5C458.5 150.967 460.047 154.256 458.5 159.5C456.83 165.162 453.296 167.103 450 172C446.855 176.672 445.859 179.897 442 184C439.054 187.132 433.951 186.724 433.5 191C433.266 193.214 433.688 194.701 435 196.5C435.898 197.732 436.627 198.337 438 199C441.625 200.75 448 196.5 448 196.5Z" fill="black"/>
<path d="M602.5 147L591 140L546.5 130L498.5 143.5L474 163.5C474 163.5 468.195 175.63 467.5 184C467.242 187.113 467.277 188.884 467.5 192C467.869 197.157 468.684 200 470 205C471.257 209.777 471.975 212.494 474 217C475.361 220.028 476.235 221.688 478 224.5C480.076 227.808 481.494 229.504 484 232.5C486.57 235.573 488.53 236.845 491 240C493.17 242.772 493.814 244.741 496 247.5C497.803 249.775 499.066 250.835 501 253C504.782 257.233 508.002 258.903 510.5 264C513.538 270.199 513 281.5 513 281.5L591 275C591 275 591 271.648 591 269.5C591 268.524 591 267 591 267C591 267 594.154 264.696 596.5 264C599.682 263.056 601.68 264 605 264C609.1 264 611.442 264.586 615.5 264C619.11 263.479 624.5 261.5 624.5 261.5C624.5 261.5 628.096 260.232 630.5 260C634.431 259.621 640.5 261.5 640.5 261.5C640.5 261.5 647.563 262.802 652 264C655.756 265.014 661.5 267 661.5 267L667.5 269.5C667.5 269.5 671.146 271.036 672 269.5C672.474 268.647 672 267 672 267C672 267 669.145 265.325 667.5 264C664.809 261.833 661.5 257.5 661.5 257.5C661.5 257.5 659.745 254.706 658.5 253C656.864 250.758 655.857 249.562 654 247.5C651.967 245.243 650.576 244.217 648.5 242C645.185 238.459 643.316 236.449 640.5 232.5C638.361 229.501 637.339 227.693 635.5 224.5C633.843 221.623 632.227 220.239 631.5 217C630.901 214.333 631.5 212.734 631.5 210C631.5 207.071 631.5 202.5 631.5 202.5C631.5 202.5 633.851 200.547 635.5 199.5C638.229 197.768 640.06 197.342 643 196C646.499 194.403 648.847 194.203 652 192C653.927 190.653 656.5 188 656.5 188C656.5 188 657.009 185.477 656.5 184C655.734 181.777 654.27 180.611 652 180C650.68 179.645 648.5 180 648.5 180H643C641.047 180 639.922 180.344 638 180C635.248 179.507 631.5 177 631.5 177C631.5 177 627.044 174.855 624.5 173C621.932 171.127 620.755 169.74 618.5 167.5C616.049 165.066 614.408 163.88 612.5 161C611.053 158.816 610.896 157.216 609.5 155C607.287 151.488 602.5 147 602.5 147Z" fill="black" stroke="black"/>
<path d="M550 892.5V807L613 729L688 807V876L676.5 960L658 1050L643.5 1134L624 1191.5H597.5L568 1180L550 1165H525.5L517 1180L507.5 1209.5L489 1247L484.5 1280L476 1322.5L484.5 1344L476 1363.5L484.5 1386.5L496 1411L507.5 1435.5L517 1454L525.5 1472L507.5 1463.5H496L489 1472L484.5 1486.5L489 1501.5L484.5 1521L471 1509.5L450 1486.5L432 1472L412 1454V1435.5V1411L399 1386.5L412 1355.5L423.5 1322.5L432 1294.5V1247L441.5 1180L432 1134V1089.5L450 1066.5L471 1050H496L517 1078H550L584.5 1066.5V1050V1037L568 969.5L550 920.5V892.5Z" fill="black"/>
<path d="M695.5 832L552.5 841.5C552.5 841.5 537.029 816.197 530.5 798.5C525.941 786.144 523.391 779.033 521.5 766C519.341 751.121 518.377 742.207 521.5 727.5C524.803 711.945 530.954 704.497 538.5 690.5C543.569 681.097 547.227 676.291 552.5 667C558.838 655.832 565.88 650.665 568 638C569.096 631.452 568 627.639 568 621C568 621 570.231 609.077 568 602C565.166 593.011 552.5 583.5 552.5 583.5C552.5 583.5 544.15 560.879 538.5 546.5C532.095 530.199 532.113 518.932 521.5 505C514.551 495.878 508.045 493.172 500 485C485.512 470.284 477.719 461.503 466 444.5C454.688 428.088 451.768 416.774 441 400C427.963 379.69 418.306 369.937 404 350.5C392.98 335.527 387.474 326.628 376 312C360.196 291.853 333 262.5 333 262.5L367 182L387 197.5L424 234.5L449 262.5L512 329V312V290V262.5H581.5L592.5 276C592.5 276 589.938 302.21 600.5 312L614 319.5C614 319.5 637.326 328.782 653 329C669.624 329.231 677.965 321.236 694.5 319.5C708.87 317.991 717.653 315.37 731.5 319.5C743.759 323.156 748.389 330.161 759.5 336.5C769.517 342.215 774.799 346.201 785.5 350.5C799.475 356.114 808.529 355.327 823 359.5C834.451 362.802 840.553 365.685 852 369C866.284 373.137 876.734 369.593 889 378C898.26 384.346 907.5 400 907.5 400C907.5 400 908.884 443.924 889 454C876.111 460.532 866.449 454 852 454C840.675 454 834.261 455.201 823 454C807.978 452.398 785.5 444.5 785.5 444.5C785.5 444.5 769.664 438.983 759.5 435.5C745.072 430.555 722.5 423 722.5 423C722.5 423 716.805 430.183 714.5 435.5C708.752 448.757 714.5 472.5 714.5 472.5L722.5 505C722.5 505 722.5 530.293 722.5 546.5C722.5 568.174 722.5 602 722.5 602C722.5 602 716.633 630.198 714.5 648.5C709.957 687.484 714.5 749 714.5 749L695.5 832Z" fill="black"/>
<path d="M549 890.5C549 860.625 549 814 549 814L609 715.5L700.5 799.5L672 982L642 1129.5L634 1168.5L622 1191C622 1191 614.064 1191.36 609 1191C600.673 1190.41 595.966 1189.5 588 1187C579.828 1184.44 575.083 1182.82 568 1178C563.306 1174.81 557 1168.5 557 1168.5C557 1168.5 549.89 1165.07 545 1164C537.75 1162.42 526 1164 526 1164L517 1187C517 1187 505.516 1210.85 499 1226.5C494.888 1236.37 492.232 1241.8 489 1252C480.899 1277.56 479.5 1320 479.5 1320C479.5 1320 485.867 1334.83 484.5 1344.5C483.326 1352.8 475.5 1364 475.5 1364C475.5 1364 482.233 1385.71 489 1398.5C493.763 1407.5 498.944 1411.16 503 1420.5C506.397 1428.32 505.078 1433.93 509 1441.5C512.646 1448.54 517.864 1450.45 521.5 1457.5C523.795 1461.95 526 1469.5 526 1469.5L509 1463.5H499C499 1463.5 486.242 1470.18 484.5 1478C483.006 1484.7 488.523 1488.15 489 1495C489.65 1504.32 484.5 1518.5 484.5 1518.5C484.5 1518.5 460.936 1499.76 447.5 1486C439.287 1477.59 427.5 1463.5 427.5 1463.5C427.5 1463.5 415.266 1451.49 412 1441.5C408.542 1430.92 414.389 1423.87 412 1413C410.714 1407.15 409.888 1403.75 407 1398.5C404.383 1393.74 398.5 1387.5 398.5 1387.5C398.5 1387.5 409.868 1358.39 416.5 1339.5C423.373 1319.92 428.072 1309.15 433 1289C442.502 1250.14 445.333 1226.91 442.5 1187C440.888 1164.3 434.526 1152.21 433 1129.5C431.94 1113.72 427.375 1103.78 433 1089C436.602 1079.53 440.817 1075.11 447.5 1067.5C453.889 1060.23 457.154 1054.93 466 1051C477.776 1045.77 487.625 1044.94 499 1051C509.479 1056.58 505.365 1073.14 517 1075.5C520.444 1076.2 522.485 1075.5 526 1075.5C534.982 1075.5 540.081 1076.56 549 1075.5C565.003 1073.59 588 1062 588 1062C588 1062 585.188 1041.55 583 1028.5C578.248 1000.17 578.698 983.155 568 956.5C562.014 941.587 552.187 935.751 549 920C546.715 908.708 549 902.02 549 890.5Z" fill="black"/>
<path d="M583 166.5V177C583 177 575.671 180.052 573 184C572.021 185.446 571.489 186.323 571 188C570.235 190.624 571 192.266 571 195C571 203.982 570.527 209.03 571 218C571.341 224.461 572.169 228.038 572.5 234.5C572.93 242.885 572.5 247.604 572.5 256C572.5 264.592 573.118 269.431 572.5 278C572.132 283.097 571.763 285.947 571 291C570.348 295.317 570.107 297.776 569 302C567.575 307.438 566.381 310.407 564 315.5C562.112 319.537 560.793 321.678 558.5 325.5C555.1 331.166 552.893 334.161 549 339.5C545.801 343.886 544.211 346.537 540.5 350.5C535.955 355.355 527.5 361.5 527.5 361.5L521.5 368.5L527.5 365C527.5 365 535.701 359.242 540.5 355C544.845 351.16 547.281 348.949 551 344.5C555.515 339.098 557.595 335.662 561 329.5C563.408 325.143 564.487 322.553 566.5 318C568.376 313.755 569.492 311.389 571 307C572.386 302.967 572.999 300.645 574 296.5C575.628 289.76 576.385 285.906 577 279C577.676 271.415 577 259.5 577 259.5C577 259.5 577 242.13 577 231C577 221.627 577 216.373 577 207C577 200.556 573.07 195.606 577 190.5C579.247 187.58 581.356 186.045 585 185.5C586.352 185.298 587.185 185.126 588.5 185.5C590.116 185.96 590.701 186.935 592 188C593.922 189.576 594.243 191.459 596.5 192.5C600.291 194.248 603.574 192.885 607 190.5C610.38 188.146 611.589 185.517 612.5 181.5C613.644 176.458 611.86 173.324 610 168.5C608.011 163.344 606.94 159.791 602.5 156.5C600.395 154.94 599.037 154.155 596.5 153.5C593.475 152.719 591.398 152.332 588.5 153.5C585.808 154.585 584.217 155.865 583 158.5C581.69 161.336 583 166.5 583 166.5Z" fill="white"/>
<path d="M347 272.5L367 247L375.5 218.5L397 207C397 207 380.851 186.093 367 177C349.14 165.275 335.515 165.966 315 160C289.125 152.475 273.892 150.966 248 143.5C214.062 133.714 162.5 114 162.5 114C162.5 114 137.286 112.238 131.5 123.5L129 134C129 134 128.407 147.85 130 156.5L132.5 166.5C132.5 166.5 134.426 172.975 136 177C137.401 180.582 140 186 140 186C154.471 194.302 163.94 197.48 180.5 199.5C189.028 200.54 202.962 206.047 211.5 207C226.353 208.657 248 218.5 248 218.5L273.5 232L302 247L347 272.5Z" fill="black"/>
<g filter="url(#filter2_d_1106_283)">
<path d="M101.5 189.5C111.513 179.339 133 171 133 171L114.5 161C114.5 161 110.299 159.925 108 161C106.618 161.646 106.146 162.494 105 163.5C100.223 167.695 97.701 170.331 93.9999 175.5C90.4887 180.404 88.2278 183.222 86.4999 189C85.2577 193.154 84.9062 195.666 84.9999 200C85.0942 204.365 86.9999 211 86.9999 211C86.9999 211 94.3915 196.714 101.5 189.5Z" fill="white" stroke="black" stroke-width="5"/>
</g>
<path d="M102.5 135L113 161L142 185L131.5 161L129.5 142L131.5 124.5L160 116.5C160 116.5 118.74 107.678 96.5 93.5C83.4084 85.1544 79.6263 75.4408 66 68C57.694 63.4644 43.5 59 43.5 59L49 68L51 76.5L40 71H31C31 71 36.0218 78.1295 40 82C44.7024 86.5752 48.1461 88.2077 53.5 92C58.3172 95.4122 66 100.5 66 100.5L69.5 107.5C69.5 107.5 60.9671 108.412 55.5 109C48.2749 109.777 44.1696 109.816 37 111C26.0663 112.806 9.5 118 9.5 118C9.5 118 19.0316 120.694 24.5 122C31.361 123.638 34.3022 124.091 41 124.5C54.7317 125.339 59.7461 122.694 73.5 123C80.1631 123.148 84.3997 121.816 90.5 124.5C96.1997 127.008 102.5 135 102.5 135Z" fill="white" stroke="black" stroke-width="5"/>
<path d="M979.5 507.5C966.366 487.035 957.999 476.226 944.5 456C934.248 440.639 918.5 416.5 918.5 416.5L905 396C905 396 896.161 381.86 887 378C874.454 372.714 861.885 373.138 852.5 383C845.251 390.617 845.5 409 845.5 409C845.5 409 850.632 442.234 861 460.5C866.244 469.739 870.926 473.784 877 482.5C884.494 493.252 887.269 500.301 895.5 510.5C904.692 521.889 912.507 525.861 922 537C932.999 549.905 931.801 564.983 947 572.5C958.425 578.15 966.903 577.442 979.5 575.5C984.274 574.764 987.654 575.423 991.5 572.5C995.126 569.744 995.668 566.67 997.5 562.5C999.539 557.859 1000.84 555.067 1001 550C1001.24 542.346 997.679 538.466 994.5 531.5C989.911 521.445 985.47 516.802 979.5 507.5Z" fill="black" stroke="black"/>
<path d="M515.315 268.216C515.315 268.216 504.168 269.284 497 270C479.431 271.754 458.818 285.14 458.818 285.14C458.818 285.14 450.819 285.533 445.785 284.765C439.924 283.87 435.005 282.203 429.5 280C423.474 277.588 419.133 275.055 412.933 273.132C404.234 270.434 389.645 271.847 389.645 271.847C389.645 271.847 406.922 277.629 416.177 284.389C420.949 287.875 427.473 294.459 427.473 294.459C427.473 294.459 421.639 296.421 418.5 297.5C412.554 299.543 404.44 299.116 398.306 300.5C390.628 302.233 385.768 307.875 385.768 307.875L428.219 305.836C428.219 305.836 426.827 308.287 425.091 311C419.287 320.071 405.547 310.814 398.306 318.786C396.599 320.665 394.66 324.167 394.66 324.167L432.945 322.93C432.945 322.93 426.305 329.189 425.091 334.519C424.163 338.594 424.683 341.15 425.704 345.202C427.327 351.643 434.609 359.692 434.609 359.692C434.609 359.692 430.863 348.701 432.248 341.785C433.556 335.25 435.603 331.344 440.542 326.87C448.524 319.64 457.073 319.506 467.624 321.665C471.382 322.434 476.891 324.924 476.891 324.924L477.678 330.893C477.678 330.893 468.129 342.246 464.215 350.762C461.325 357.05 458.818 367.64 458.818 367.64C458.818 367.64 468.609 353.71 477.956 349.201C481.474 347.504 491.15 333.564 494 330.893C502.5 322.93 500.06 320.664 510 311C516.998 304.197 527.543 301.869 527.543 301.869" stroke="black" stroke-width="6"/>
<path d="M487.5 272.5C493.879 271.757 514 269.47 514 269.47L524.926 299.492C524.926 299.492 511.799 307.858 504.841 314.872C495.352 324.438 497.488 337.307 485.488 343.433C482.01 345.209 479.902 345.675 476.5 347.593C470.655 350.889 464.428 359.362 464.428 359.362C464.428 359.362 465.978 353.865 467.407 350.509C470.926 342.245 479.457 340.966 480 332C480.226 328.276 481.148 324.969 478.854 322.027C476.232 318.664 468.479 318.62 468.479 318.62C468.479 318.62 446.781 316.226 438.339 324.773C433.488 329.685 434.501 326.703 433.295 333.5C432.821 336.171 430.124 347.593 430.124 347.593C430.124 347.593 428.453 345.361 427.935 343.694C426.948 340.524 425.834 332.212 426.672 329C428.547 321.821 435 318.62 435 318.62C435 318.62 442.684 309.752 430.592 314.872C418.5 319.993 402 323 402 323C402 323 403.701 314.872 423.5 311C428.233 310.074 429.208 303.486 429.208 303.486L413.574 305.459L392 305.459C392 305.459 397.722 302.458 401 301.5C406.927 299.767 414.523 301.042 420.5 299.492C426.081 298.043 433.295 294.78 433.295 294.78C433.295 294.78 429.223 292.096 426.672 290.293C421.401 286.567 419.24 283.302 413.574 280.209C408.461 277.418 399.606 274.973 399.606 274.973C399.606 274.973 407.508 274.594 412.359 275.762C419.235 277.418 416.874 277.736 423.5 280.209C428.939 282.239 430.753 285.678 436.5 286.5C441.971 287.282 447.489 286.914 453 286.5C470.465 285.188 470.104 274.525 487.5 272.5Z" fill="white"/>
<path d="M1738.66 1318.34L1730.84 1317.56C1725.9 1317.3 1718.99 1316.91 1710.14 1316.39C1701.55 1316.13 1692.95 1316 1684.36 1316C1678.89 1316 1673.29 1316 1667.56 1316C1662.09 1316.26 1657.15 1316.52 1652.72 1316.78C1648.55 1317.04 1644.78 1317.3 1641.39 1317.56C1638.01 1317.82 1635.27 1317.95 1633.19 1317.95C1631.1 1318.21 1629.93 1318.34 1629.67 1318.34C1624.46 1318.34 1621.86 1314.96 1621.86 1308.19C1621.86 1304.02 1622.9 1301.42 1624.98 1300.38C1627.33 1299.33 1632.54 1298.55 1640.61 1298.03C1645.04 1297.77 1648.55 1297.51 1651.16 1297.25C1656.62 1296.73 1660.14 1295.3 1661.7 1292.95C1663.53 1290.61 1664.44 1287.09 1664.44 1282.41V1079.67C1664.44 1077.07 1664.31 1075.11 1664.05 1073.81C1663.79 1072.51 1662.74 1071.08 1660.92 1069.52C1659.36 1067.95 1657.02 1067.17 1653.89 1067.17H1594.12C1589.18 1067.17 1585.79 1067.82 1583.97 1069.12C1582.15 1070.17 1580.45 1072.25 1578.89 1075.38C1567.95 1096.99 1562.09 1108.32 1561.31 1109.36C1559.49 1111.44 1557.28 1112.48 1554.67 1112.48C1552.07 1112.48 1549.85 1111.57 1548.03 1109.75C1546.47 1107.67 1545.69 1105.19 1545.69 1102.33V1101.94C1545.69 1100.9 1549.59 1082.54 1557.41 1046.86C1558.19 1042.69 1560.92 1040.61 1565.61 1040.61H1798.81C1803.24 1040.61 1805.97 1043.73 1807.02 1049.98C1813.53 1083.84 1816.78 1100.9 1816.78 1101.16C1816.78 1103.5 1816 1105.58 1814.44 1107.41C1812.88 1109.23 1811.05 1110.14 1808.97 1110.14C1805.84 1110.14 1802.85 1107.54 1799.98 1102.33C1798.42 1099.72 1796.73 1096.86 1794.91 1093.73C1793.08 1090.35 1791.65 1087.88 1790.61 1086.31C1789.83 1084.49 1788.79 1082.54 1787.48 1080.45C1786.44 1078.11 1785.53 1076.55 1784.75 1075.77C1783.97 1074.72 1783.19 1073.68 1782.41 1072.64C1781.62 1071.34 1780.84 1070.56 1780.06 1070.3C1779.54 1069.78 1778.89 1069.26 1778.11 1068.73C1777.33 1068.21 1776.42 1067.95 1775.38 1067.95C1774.59 1067.69 1773.68 1067.56 1772.64 1067.56C1771.86 1067.3 1770.82 1067.17 1769.52 1067.17H1710.53C1707.93 1067.17 1705.84 1067.82 1704.28 1069.12C1702.98 1070.43 1702.2 1071.73 1701.94 1073.03C1701.94 1074.07 1701.94 1075.77 1701.94 1078.11V1287.48C1701.94 1291.65 1703.11 1294.26 1705.45 1295.3C1708.06 1296.34 1714.7 1297.25 1725.38 1298.03C1730.84 1298.55 1735.14 1298.94 1738.27 1299.2C1741.13 1299.46 1742.95 1300.38 1743.73 1301.94C1744.78 1303.5 1745.3 1306.36 1745.3 1310.53C1745.3 1315.74 1743.08 1318.34 1738.66 1318.34ZM1810.14 1234.36C1810.14 1207.54 1818.6 1185.66 1835.53 1168.73C1852.72 1151.81 1873.03 1143.34 1896.47 1143.34C1920.43 1143.34 1940.35 1151.94 1956.23 1169.12C1972.12 1186.05 1980.06 1207.8 1980.06 1234.36C1980.06 1261.7 1971.73 1283.45 1955.06 1299.59C1938.66 1315.48 1918.6 1323.42 1894.91 1323.42C1869.91 1323.42 1849.46 1314.83 1833.58 1297.64C1817.95 1280.45 1810.14 1259.36 1810.14 1234.36ZM1856.23 1283.97C1866.39 1297.25 1879.67 1303.89 1896.08 1303.89C1912.48 1303.89 1926.03 1297.25 1936.7 1283.97C1947.38 1270.43 1952.72 1254.41 1952.72 1235.92C1952.72 1215.09 1946.73 1197.64 1934.75 1183.58C1923.03 1169.26 1909.36 1162.09 1893.73 1162.09C1880.71 1162.09 1868.6 1167.82 1857.41 1179.28C1846.47 1190.74 1841 1208.45 1841 1232.41C1841 1253.24 1846.08 1270.43 1856.23 1283.97ZM2208.19 1296.86C2239.96 1296.86 2267.56 1287.35 2291 1268.34C2314.44 1249.07 2326.16 1222.77 2326.16 1189.44C2326.16 1169.65 2321.99 1150.64 2313.66 1132.41C2305.32 1113.92 2293.47 1098.94 2278.11 1087.48C2255.45 1071.08 2227.72 1062.88 2194.91 1062.88C2183.71 1062.88 2176.42 1063.66 2173.03 1065.22C2169.91 1066.78 2168.34 1070.17 2168.34 1075.38V1278.89C2168.34 1283.84 2169.39 1287.48 2171.47 1289.83C2173.55 1291.91 2177.33 1293.47 2182.8 1294.52C2191.39 1296.08 2199.85 1296.86 2208.19 1296.86ZM2092.56 1054.28C2092.56 1048.81 2095.56 1046.08 2101.55 1046.08H2174.2C2226.29 1046.08 2264.96 1051.94 2290.22 1063.66C2311.83 1073.81 2329.93 1088.92 2344.52 1108.97C2359.1 1129.02 2366.39 1152.33 2366.39 1178.89C2366.39 1212.48 2354.67 1241.91 2331.23 1267.17C2307.8 1292.43 2280.84 1307.93 2250.38 1313.66C2241 1315.22 2229.15 1316 2214.83 1316H2101.55C2095.3 1316 2092.17 1312.22 2092.17 1304.67C2092.17 1303.11 2092.3 1301.94 2092.56 1301.16C2092.82 1300.11 2093.34 1299.33 2094.12 1298.81C2095.17 1298.03 2096.08 1297.51 2096.86 1297.25C2097.9 1296.73 2099.33 1296.47 2101.16 1296.47C2103.24 1296.21 2105.06 1296.08 2106.62 1296.08C2108.19 1295.82 2110.53 1295.69 2113.66 1295.69C2116.78 1295.69 2119.52 1295.56 2121.86 1295.3C2126.29 1295.04 2129.15 1293.86 2130.45 1291.78C2132.02 1289.44 2132.8 1285.79 2132.8 1280.84V1078.5C2132.8 1071.99 2130.97 1067.95 2127.33 1066.39C2123.94 1064.83 2117.04 1063.92 2106.62 1063.66C2103.76 1063.66 2101.55 1063.66 2099.98 1063.66C2095.04 1063.66 2092.56 1060.53 2092.56 1054.28ZM2383.58 1178.11C2383.58 1170.3 2389.83 1162.48 2402.33 1154.67C2415.09 1146.6 2429.28 1142.56 2444.91 1142.56C2449.85 1142.56 2454.93 1143.08 2460.14 1144.12C2465.35 1145.17 2471.21 1146.99 2477.72 1149.59C2484.49 1152.2 2490.09 1156.76 2494.52 1163.27C2499.2 1169.52 2502.07 1177.2 2503.11 1186.31C2503.63 1192.56 2503.89 1197.38 2503.89 1200.77V1279.67C2503.89 1284.36 2504.8 1288.14 2506.62 1291C2508.45 1293.86 2510.27 1295.69 2512.09 1296.47C2513.92 1296.99 2515.74 1297.25 2517.56 1297.25C2521.21 1297.25 2524.07 1296.21 2526.16 1294.12C2528.24 1291.78 2529.8 1289.57 2530.84 1287.48C2532.15 1285.14 2533.58 1283.97 2535.14 1283.97C2537.48 1283.97 2538.66 1285.66 2538.66 1289.05C2538.66 1295.3 2535.79 1302.2 2530.06 1309.75C2524.33 1317.04 2516.91 1320.69 2507.8 1320.69C2504.41 1320.69 2501.16 1320.17 2498.03 1319.12C2494.91 1318.08 2492.3 1316.78 2490.22 1315.22C2488.14 1313.4 2486.18 1311.7 2484.36 1310.14C2482.8 1308.58 2481.49 1307.15 2480.45 1305.84L2479.28 1304.28C2479.02 1304.28 2478.89 1304.28 2478.89 1304.28C2478.89 1304.02 2478.76 1303.89 2478.5 1303.89C2477.98 1303.89 2477.59 1304.15 2477.33 1304.67C2477.07 1305.19 2476.16 1306.23 2474.59 1307.8C2473.03 1309.36 2470.82 1311.05 2467.95 1312.88C2456.23 1320.17 2443.86 1323.81 2430.84 1323.81C2417.3 1323.81 2406.23 1319.52 2397.64 1310.92C2389.31 1302.33 2385.14 1291.78 2385.14 1279.28V1278.89C2385.14 1263.79 2390.74 1251.94 2401.94 1243.34C2405.84 1240.22 2410.92 1237.48 2417.17 1235.14C2423.42 1232.54 2429.54 1230.58 2435.53 1229.28C2441.78 1227.98 2447.64 1226.94 2453.11 1226.16C2458.58 1225.11 2463.14 1224.46 2466.78 1224.2L2472.25 1223.81C2474.33 1223.29 2475.38 1221.47 2475.38 1218.34V1203.89C2475.38 1190.09 2472.25 1179.41 2466 1171.86C2459.49 1164.83 2451.68 1161.31 2442.56 1161.31C2428.5 1161.31 2417.04 1170.17 2408.19 1187.88C2405.84 1191 2402.98 1192.56 2399.59 1192.56C2395.43 1192.56 2391.65 1191.26 2388.27 1188.66C2385.14 1186.05 2383.58 1182.54 2383.58 1178.11ZM2440.22 1301.94C2446.21 1301.94 2451.81 1300.64 2457.02 1298.03C2462.48 1295.43 2466.26 1293.08 2468.34 1291C2470.43 1288.92 2472.12 1287.09 2473.42 1285.53C2474.98 1283.45 2475.77 1280.45 2475.77 1276.55V1266.78V1250.38C2475.77 1245.43 2475.51 1242.3 2474.98 1241C2474.72 1239.44 2473.68 1238.66 2471.86 1238.66C2465.35 1238.66 2457.15 1239.7 2447.25 1241.78C2437.61 1243.86 2429.93 1247.64 2424.2 1253.11C2417.95 1258.32 2414.83 1265.61 2414.83 1274.98C2414.83 1284.88 2417.56 1292.17 2423.03 1296.86C2426.68 1300.24 2432.41 1301.94 2440.22 1301.94ZM2597.25 1165.22C2597.25 1166.26 2597.64 1166.78 2598.42 1166.78H2598.81C2599.07 1166.78 2599.98 1166 2601.55 1164.44C2603.37 1162.88 2605.84 1160.92 2608.97 1158.58C2612.09 1156.23 2615.74 1153.89 2619.91 1151.55C2624.07 1149.2 2629.15 1147.25 2635.14 1145.69C2641.13 1143.86 2647.38 1142.95 2653.89 1142.95H2654.67C2660.14 1142.95 2665.48 1143.73 2670.69 1145.3C2676.16 1146.6 2681.89 1149.2 2687.88 1153.11C2694.12 1156.76 2699.33 1162.61 2703.5 1170.69C2707.67 1178.76 2710.27 1188.66 2711.31 1200.38C2711.83 1204.8 2712.09 1211.57 2712.09 1220.69C2712.09 1221.73 2712.09 1224.33 2712.09 1228.5C2712.09 1232.41 2711.96 1239.57 2711.7 1249.98C2711.7 1260.4 2711.7 1273.68 2711.7 1289.83V1290.61C2711.7 1291.91 2711.83 1293.21 2712.09 1294.52C2712.35 1295.56 2712.48 1296.47 2712.48 1297.25C2712.74 1297.77 2713.27 1298.42 2714.05 1299.2C2714.83 1299.72 2715.35 1300.11 2715.61 1300.38C2716.13 1300.64 2717.04 1301.03 2718.34 1301.55C2719.91 1301.81 2720.95 1301.94 2721.47 1301.94C2722.25 1301.94 2723.68 1302.07 2725.77 1302.33C2728.11 1302.59 2729.8 1302.85 2730.84 1303.11C2734.75 1303.63 2736.7 1306.1 2736.7 1310.53C2736.7 1315.74 2734.62 1318.34 2730.45 1318.34C2729.67 1318.34 2727.85 1318.08 2724.98 1317.56C2722.12 1317.3 2718.08 1316.91 2712.88 1316.39C2707.93 1316.13 2702.59 1316 2696.86 1316C2693.47 1316 2690.09 1316 2686.7 1316C2683.32 1316.26 2680.32 1316.52 2677.72 1316.78C2675.38 1317.04 2673.16 1317.3 2671.08 1317.56C2668.99 1317.82 2667.3 1318.08 2666 1318.34H2664.05C2660.4 1318.34 2658.58 1315.74 2658.58 1310.53C2658.58 1307.67 2659.36 1305.84 2660.92 1305.06C2662.48 1304.28 2666.65 1303.37 2673.42 1302.33C2675.77 1301.81 2677.72 1301.42 2679.28 1301.16C2681.89 1300.64 2683.58 1299.85 2684.36 1298.81C2685.4 1297.51 2685.92 1295.17 2685.92 1291.78V1229.67C2685.92 1210.14 2684.1 1195.69 2680.45 1186.31C2676.55 1177.46 2670.69 1171.34 2662.88 1167.95C2655.06 1164.31 2647.64 1162.48 2640.61 1162.48C2630.45 1162.48 2621.34 1165.61 2613.27 1171.86C2605.19 1178.11 2600.64 1183.58 2599.59 1188.27C2599.07 1190.35 2598.81 1192.17 2598.81 1193.73V1288.27V1289.44C2598.81 1296.21 2601.81 1299.98 2607.8 1300.77C2619.52 1302.59 2625.9 1304.02 2626.94 1305.06C2628.5 1306.36 2629.28 1308.58 2629.28 1311.7C2629.28 1316.39 2627.59 1318.73 2624.2 1318.73C2623.94 1318.73 2623.03 1318.6 2621.47 1318.34C2620.17 1318.34 2618.34 1318.21 2616 1317.95C2613.66 1317.69 2611.05 1317.3 2608.19 1316.78C2605.32 1316.52 2601.94 1316.26 2598.03 1316C2594.39 1316 2590.74 1316 2587.09 1316C2583.45 1316 2579.8 1316 2576.16 1316C2572.51 1316.26 2569.26 1316.52 2566.39 1316.78C2563.79 1317.04 2561.44 1317.3 2559.36 1317.56C2557.28 1317.82 2555.58 1317.95 2554.28 1317.95C2552.98 1318.21 2552.2 1318.34 2551.94 1318.34C2547.51 1318.34 2545.3 1316 2545.3 1311.31C2545.3 1307.67 2546.08 1305.45 2547.64 1304.67C2549.46 1303.63 2553.89 1302.59 2560.92 1301.55C2565.61 1300.77 2568.47 1299.33 2569.52 1297.25C2570.82 1295.17 2571.47 1292.04 2571.47 1287.88V1192.56C2571.47 1187.88 2570.82 1184.75 2569.52 1183.19C2568.21 1181.36 2562.88 1176.94 2553.5 1169.91C2551.94 1168.34 2551.16 1167.04 2551.16 1166V1165.61C2551.16 1164.31 2552.07 1163.14 2553.89 1162.09C2555.71 1160.79 2561.31 1157.67 2570.69 1152.72C2577.98 1148.81 2584.1 1145.56 2589.05 1142.95C2590.61 1141.91 2591.91 1141.39 2592.95 1141.39C2596.08 1141.39 2597.64 1143.34 2597.64 1147.25V1162.88C2597.64 1163.14 2597.51 1163.66 2597.25 1164.44V1165.22ZM2823.81 1323.03C2800.9 1323.03 2782.28 1314.96 2767.95 1298.81C2753.89 1282.67 2746.86 1262.09 2746.86 1237.09C2746.86 1209.75 2754.8 1187.61 2770.69 1170.69C2786.57 1153.5 2807.28 1144.91 2832.8 1144.91C2846.86 1144.91 2858.84 1147.9 2868.73 1153.89C2878.63 1159.88 2883.58 1166.78 2883.58 1174.59C2883.58 1179.02 2882.02 1182.67 2878.89 1185.53C2875.77 1188.14 2871.99 1189.44 2867.56 1189.44C2861.83 1189.44 2854.28 1185.53 2844.91 1177.72C2835.79 1169.65 2827.2 1165.61 2819.12 1165.61C2806.89 1165.61 2796.21 1171.73 2787.09 1183.97C2777.98 1196.21 2773.42 1210.66 2773.42 1227.33C2773.42 1246.34 2779.41 1262.88 2791.39 1276.94C2803.63 1290.74 2818.73 1297.64 2836.7 1297.64C2843.73 1297.64 2850.11 1296.6 2855.84 1294.52C2861.83 1292.17 2866.26 1289.7 2869.12 1287.09C2872.25 1284.23 2875.24 1281.76 2878.11 1279.67C2881.23 1277.33 2883.71 1276.16 2885.53 1276.16C2887.35 1276.16 2888.92 1276.81 2890.22 1278.11C2891.52 1279.41 2892.17 1280.97 2892.17 1282.8C2892.17 1284.88 2891.39 1286.96 2889.83 1289.05C2882.8 1298.68 2873.55 1306.76 2862.09 1313.27C2850.64 1319.78 2837.88 1323.03 2823.81 1323.03ZM2901.55 1233.58C2901.55 1206.49 2908.71 1184.75 2923.03 1168.34C2937.35 1151.94 2954.8 1143.73 2975.38 1143.73C2988.66 1143.73 3001.42 1147.38 3013.66 1154.67C3025.9 1161.96 3036.05 1171.08 3044.12 1182.02C3046.21 1184.62 3047.25 1187.48 3047.25 1190.61V1191.39C3047.25 1193.73 3046.6 1195.82 3045.3 1197.64C3043.99 1199.46 3041.91 1201.16 3039.05 1202.72C3036.18 1204.02 3033.71 1205.06 3031.62 1205.84C3029.54 1206.62 3026.42 1207.67 3022.25 1208.97C3018.34 1210.27 3015.87 1211.05 3014.83 1211.31C2960.4 1230.06 2932.54 1239.83 2931.23 1240.61C2930.19 1241.13 2929.67 1241.91 2929.67 1242.95C2929.67 1244.52 2930.06 1247.12 2930.84 1250.77C2931.62 1254.41 2933.32 1259.23 2935.92 1265.22C2938.79 1271.21 2942.17 1276.81 2946.08 1282.02C2950.24 1286.96 2956.1 1291.39 2963.66 1295.3C2971.21 1298.94 2979.67 1300.77 2989.05 1300.77C3007.28 1300.77 3023.16 1294.26 3036.7 1281.23C3040.35 1277.59 3043.34 1275.77 3045.69 1275.77C3050.11 1275.77 3052.33 1277.72 3052.33 1281.62C3052.33 1283.19 3051.29 1285.27 3049.2 1287.88C3040.87 1298.81 3030.45 1307.54 3017.95 1314.05C3005.45 1320.3 2992.3 1323.42 2978.5 1323.42C2969.65 1323.42 2960.92 1321.86 2952.33 1318.73C2943.99 1315.61 2935.79 1310.79 2927.72 1304.28C2919.91 1297.77 2913.53 1288.4 2908.58 1276.16C2903.89 1263.92 2901.55 1249.72 2901.55 1233.58ZM3008.58 1192.17C3008.58 1188.79 3004.02 1183.58 2994.91 1176.55C2985.79 1169.26 2976.29 1165.61 2966.39 1165.61C2954.67 1165.61 2945.3 1170.69 2938.27 1180.84C2931.49 1191 2928.11 1204.93 2928.11 1222.64C2928.11 1224.72 2928.76 1225.77 2930.06 1225.77C2930.58 1225.77 2942.95 1221.08 2967.17 1211.7C2991.65 1202.07 3004.28 1197.12 3005.06 1196.86C3007.41 1195.56 3008.58 1193.99 3008.58 1192.17Z" fill="#6A640D"/>
<path d="M1576.94 571.781C1585.01 571.781 1596.6 571.13 1611.7 569.828C1627.07 568.526 1638.66 567.875 1646.47 567.875C1675.38 567.875 1697.51 573.214 1712.88 583.891C1729.28 595.87 1737.48 611.234 1737.48 629.984C1737.48 642.224 1733.97 653.812 1726.94 664.75C1719.91 675.688 1710.79 684.672 1699.59 691.703L1698.42 692.875C1698.42 693.135 1698.94 693.526 1699.98 694.047C1715.61 696.911 1728.76 704.854 1739.44 717.875C1750.11 730.896 1755.45 746.13 1755.45 763.578C1755.45 781.286 1750.38 796.911 1740.22 810.453C1730.06 823.734 1718.21 833.37 1704.67 839.359C1691.39 845.349 1675.38 848.344 1656.62 848.344C1650.38 848.344 1641.26 847.953 1629.28 847.172C1617.3 846.391 1608.19 846 1601.94 846C1597.51 846 1590.35 846.13 1580.45 846.391C1570.56 846.651 1562.48 846.781 1556.23 846.781H1555.45C1553.89 846.781 1552.59 846.651 1551.55 846.391C1550.77 846.13 1549.85 845.219 1548.81 843.656C1548.03 842.094 1547.64 839.88 1547.64 837.016C1547.64 833.891 1548.55 831.938 1550.38 831.156C1552.46 830.375 1557.28 829.594 1564.83 828.812C1567.17 828.552 1568.99 828.292 1570.3 828.031C1572.12 827.771 1573.42 827.51 1574.2 827.25C1575.24 826.729 1576.16 825.948 1576.94 824.906C1577.98 823.604 1578.5 821.911 1578.5 819.828V601.078C1578.5 596.13 1577.07 593.005 1574.2 591.703C1571.6 590.141 1566.78 589.099 1559.75 588.578C1558.97 588.578 1558.32 588.578 1557.8 588.578C1553.11 588.578 1550.77 585.193 1550.77 578.422C1550.77 573.734 1553.11 571.391 1557.8 571.391C1558.06 571.391 1558.97 571.521 1560.53 571.781C1562.09 571.781 1564.31 571.781 1567.17 571.781C1570.3 571.781 1573.55 571.781 1576.94 571.781ZM1701.94 638.578C1701.94 633.109 1701.03 627.641 1699.2 622.172C1697.38 616.443 1694.39 610.714 1690.22 604.984C1686.05 599.255 1679.8 594.568 1671.47 590.922C1663.4 587.276 1653.89 585.453 1642.95 585.453C1628.11 585.453 1618.73 587.016 1614.83 590.141C1613.53 591.182 1612.88 592.875 1612.88 595.219V596V681.547C1612.88 684.932 1614.31 686.625 1617.17 686.625H1635.14H1640.22C1668.34 686.625 1686.96 678.161 1696.08 661.234C1699.98 653.422 1701.94 645.87 1701.94 638.578ZM1643.73 829.594C1664.83 829.594 1682.8 823.995 1697.64 812.797C1712.48 801.339 1719.91 785.583 1719.91 765.531C1719.91 752.25 1716 740.01 1708.19 728.812C1700.64 717.354 1688.79 709.932 1672.64 706.547C1664.05 704.724 1652.85 703.812 1639.05 703.812H1618.73C1614.83 703.812 1612.88 705.896 1612.88 710.062V813.188C1612.88 816.052 1613.01 818.266 1613.27 819.828C1613.79 821.391 1614.96 823.083 1616.78 824.906C1618.6 826.469 1621.34 827.51 1624.98 828.031C1632.8 829.073 1639.05 829.594 1643.73 829.594ZM1775.38 763.578C1775.38 736.495 1782.54 714.75 1796.86 698.344C1811.18 681.938 1828.63 673.734 1849.2 673.734C1862.48 673.734 1875.24 677.38 1887.48 684.672C1899.72 691.964 1909.88 701.078 1917.95 712.016C1920.04 714.62 1921.08 717.484 1921.08 720.609V721.391C1921.08 723.734 1920.43 725.818 1919.12 727.641C1917.82 729.464 1915.74 731.156 1912.88 732.719C1910.01 734.021 1907.54 735.062 1905.45 735.844C1903.37 736.625 1900.24 737.667 1896.08 738.969C1892.17 740.271 1889.7 741.052 1888.66 741.312C1834.23 760.062 1806.36 769.828 1805.06 770.609C1804.02 771.13 1803.5 771.911 1803.5 772.953C1803.5 774.516 1803.89 777.12 1804.67 780.766C1805.45 784.411 1807.15 789.229 1809.75 795.219C1812.61 801.208 1816 806.807 1819.91 812.016C1824.07 816.964 1829.93 821.391 1837.48 825.297C1845.04 828.943 1853.5 830.766 1862.88 830.766C1881.1 830.766 1896.99 824.255 1910.53 811.234C1914.18 807.589 1917.17 805.766 1919.52 805.766C1923.94 805.766 1926.16 807.719 1926.16 811.625C1926.16 813.188 1925.11 815.271 1923.03 817.875C1914.7 828.812 1904.28 837.536 1891.78 844.047C1879.28 850.297 1866.13 853.422 1852.33 853.422C1843.47 853.422 1834.75 851.859 1826.16 848.734C1817.82 845.609 1809.62 840.792 1801.55 834.281C1793.73 827.771 1787.35 818.396 1782.41 806.156C1777.72 793.917 1775.38 779.724 1775.38 763.578ZM1882.41 722.172C1882.41 718.786 1877.85 713.578 1868.73 706.547C1859.62 699.255 1850.11 695.609 1840.22 695.609C1828.5 695.609 1819.12 700.688 1812.09 710.844C1805.32 721 1801.94 734.932 1801.94 752.641C1801.94 754.724 1802.59 755.766 1803.89 755.766C1804.41 755.766 1816.78 751.078 1841 741.703C1865.48 732.068 1878.11 727.12 1878.89 726.859C1881.23 725.557 1882.41 723.995 1882.41 722.172ZM1942.17 722.562C1942.17 710.062 1947.38 699.125 1957.8 689.75C1968.47 680.115 1982.41 675.297 1999.59 675.297C2003.24 675.297 2006.49 675.557 2009.36 676.078C2012.48 676.339 2014.83 676.599 2016.39 676.859C2018.21 677.12 2019.26 677.25 2019.52 677.25C2020.56 677.25 2022.12 676.599 2024.2 675.297C2026.29 673.995 2028.11 673.344 2029.67 673.344C2032.8 673.344 2034.88 675.818 2035.92 680.766C2036.7 684.672 2037.74 690.141 2039.05 697.172C2040.35 704.203 2041.39 710.193 2042.17 715.141C2043.21 719.828 2043.73 722.432 2043.73 722.953C2043.73 727.12 2040.61 729.203 2034.36 729.203C2031.76 729.203 2029.8 728.292 2028.5 726.469C2027.46 724.385 2026.42 721.521 2025.38 717.875C2024.33 714.229 2023.16 711.495 2021.86 709.672C2018.99 705.766 2014.31 702.25 2007.8 699.125C2001.55 695.74 1995.3 694.047 1989.05 694.047C1982.02 694.047 1976.03 696 1971.08 699.906C1966.13 703.812 1963.66 708.891 1963.66 715.141C1963.66 728.422 1974.2 738.057 1995.3 744.047C1997.9 744.828 2001.81 745.87 2007.02 747.172C2012.22 748.214 2016.26 749.125 2019.12 749.906C2021.99 750.688 2025.38 751.859 2029.28 753.422C2033.45 754.984 2037.09 756.938 2040.22 759.281C2043.34 761.625 2046.34 764.49 2049.2 767.875C2057.28 777.25 2061.31 787.797 2061.31 799.516C2061.31 813.578 2055.71 826.078 2044.52 837.016C2033.58 847.953 2018.86 853.422 2000.38 853.422C1990.22 853.422 1979.8 851.729 1969.12 848.344C1958.71 844.958 1950.77 840.01 1945.3 833.5C1942.17 830.115 1940.61 825.557 1940.61 819.828C1940.61 815.661 1940.48 810.974 1940.22 805.766C1940.22 800.557 1940.22 797.302 1940.22 796C1940.22 790.792 1940.61 787.406 1941.39 785.844C1942.43 784.281 1944.39 783.5 1947.25 783.5C1950.11 783.5 1951.94 784.672 1952.72 787.016C1953.5 789.359 1954.02 792.875 1954.28 797.562C1954.54 801.99 1955.32 805.635 1956.62 808.5C1958.97 813.708 1964.44 818.917 1973.03 824.125C1981.89 829.333 1991.52 831.938 2001.94 831.938C2011.05 831.938 2018.73 829.464 2024.98 824.516C2031.23 819.568 2034.36 813.188 2034.36 805.375C2034.36 800.427 2033.19 796.13 2030.84 792.484C2028.76 788.578 2025.38 785.453 2020.69 783.109C2016 780.505 2012.22 778.682 2009.36 777.641C2006.49 776.339 2001.94 774.906 1995.69 773.344L1986.31 771.391C1956.89 762.797 1942.17 746.521 1942.17 722.562ZM2080.84 699.906C2075.38 699.906 2072.64 698.214 2072.64 694.828C2072.64 693.266 2074.46 690.922 2078.11 687.797C2082.02 684.411 2087.48 678.943 2094.52 671.391C2101.55 663.578 2108.19 654.464 2114.44 644.047C2117.3 639.099 2119.91 636.625 2122.25 636.625C2125.9 636.625 2127.72 638.839 2127.72 643.266C2127.72 645.089 2127.59 649.776 2127.33 657.328C2127.33 664.88 2127.33 669.568 2127.33 671.391C2127.33 676.599 2129.93 679.203 2135.14 679.203H2171.08C2171.6 679.203 2172.25 679.333 2173.03 679.594C2173.81 679.594 2174.33 679.594 2174.59 679.594C2181.36 679.594 2184.75 682.068 2184.75 687.016C2184.75 691.964 2183.58 695.87 2181.23 698.734C2179.93 700.036 2177.59 700.688 2174.2 700.688H2127.33C2124.72 700.688 2123.42 701.99 2123.42 704.594C2123.42 726.208 2123.29 744.177 2123.03 758.5C2123.03 772.823 2122.9 782.458 2122.64 787.406C2122.64 792.354 2122.64 795.87 2122.64 797.953C2122.64 817.745 2129.54 827.641 2143.34 827.641C2148.81 827.641 2154.54 825.688 2160.53 821.781C2166.52 817.615 2171.73 813.578 2176.16 809.672C2180.84 805.505 2184.36 803.422 2186.7 803.422C2188.79 803.422 2190.48 804.203 2191.78 805.766C2193.34 807.328 2194.12 809.021 2194.12 810.844C2194.12 812.406 2193.21 814.62 2191.39 817.484C2170.3 841.443 2151.68 853.422 2135.53 853.422C2125.9 853.422 2117.04 849.646 2108.97 842.094C2101.16 834.281 2096.6 821.911 2095.3 804.984C2095.04 802.12 2094.91 797.823 2094.91 792.094C2094.91 785.583 2095.17 769.828 2095.69 744.828C2096.21 719.568 2096.47 705.766 2096.47 703.422C2096.47 701.078 2095.56 699.906 2093.73 699.906H2080.84ZM2495.3 848.344L2487.48 847.562C2482.54 847.302 2475.64 846.911 2466.78 846.391C2458.19 846.13 2449.59 846 2441 846C2435.53 846 2429.93 846 2424.2 846C2418.73 846.26 2413.79 846.521 2409.36 846.781C2405.19 847.042 2401.42 847.302 2398.03 847.562C2394.65 847.823 2391.91 847.953 2389.83 847.953C2387.74 848.214 2386.57 848.344 2386.31 848.344C2381.1 848.344 2378.5 844.958 2378.5 838.188C2378.5 834.021 2379.54 831.417 2381.62 830.375C2383.97 829.333 2389.18 828.552 2397.25 828.031C2401.68 827.771 2405.19 827.51 2407.8 827.25C2413.27 826.729 2416.78 825.297 2418.34 822.953C2420.17 820.609 2421.08 817.094 2421.08 812.406V609.672C2421.08 607.068 2420.95 605.115 2420.69 603.812C2420.43 602.51 2419.39 601.078 2417.56 599.516C2416 597.953 2413.66 597.172 2410.53 597.172H2350.77C2345.82 597.172 2342.43 597.823 2340.61 599.125C2338.79 600.167 2337.09 602.25 2335.53 605.375C2324.59 626.99 2318.73 638.318 2317.95 639.359C2316.13 641.443 2313.92 642.484 2311.31 642.484C2308.71 642.484 2306.49 641.573 2304.67 639.75C2303.11 637.667 2302.33 635.193 2302.33 632.328V631.938C2302.33 630.896 2306.23 612.536 2314.05 576.859C2314.83 572.693 2317.56 570.609 2322.25 570.609H2555.45C2559.88 570.609 2562.61 573.734 2563.66 579.984C2570.17 613.839 2573.42 630.896 2573.42 631.156C2573.42 633.5 2572.64 635.583 2571.08 637.406C2569.52 639.229 2567.69 640.141 2565.61 640.141C2562.48 640.141 2559.49 637.536 2556.62 632.328C2555.06 629.724 2553.37 626.859 2551.55 623.734C2549.72 620.349 2548.29 617.875 2547.25 616.312C2546.47 614.49 2545.43 612.536 2544.12 610.453C2543.08 608.109 2542.17 606.547 2541.39 605.766C2540.61 604.724 2539.83 603.682 2539.05 602.641C2538.27 601.339 2537.48 600.557 2536.7 600.297C2536.18 599.776 2535.53 599.255 2534.75 598.734C2533.97 598.214 2533.06 597.953 2532.02 597.953C2531.23 597.693 2530.32 597.562 2529.28 597.562C2528.5 597.302 2527.46 597.172 2526.16 597.172H2467.17C2464.57 597.172 2462.48 597.823 2460.92 599.125C2459.62 600.427 2458.84 601.729 2458.58 603.031C2458.58 604.073 2458.58 605.766 2458.58 608.109V817.484C2458.58 821.651 2459.75 824.255 2462.09 825.297C2464.7 826.339 2471.34 827.25 2482.02 828.031C2487.48 828.552 2491.78 828.943 2494.91 829.203C2497.77 829.464 2499.59 830.375 2500.38 831.938C2501.42 833.5 2501.94 836.365 2501.94 840.531C2501.94 845.74 2499.72 848.344 2495.3 848.344ZM2611.7 797.562C2611.7 784.021 2611.7 771.391 2611.7 759.672C2611.7 747.953 2611.7 738.839 2611.7 732.328C2611.96 725.557 2612.09 721.521 2612.09 720.219C2612.09 717.354 2611.05 715.401 2608.97 714.359C2607.15 713.057 2599.2 709.542 2585.14 703.812C2581.76 702.51 2580.06 700.818 2580.06 698.734C2580.06 697.953 2580.19 697.172 2580.45 696.391C2580.97 695.609 2581.62 694.958 2582.41 694.438C2583.45 693.917 2584.36 693.526 2585.14 693.266C2585.92 692.745 2586.96 692.224 2588.27 691.703C2589.57 691.182 2590.48 690.792 2591 690.531C2620.17 676.469 2634.88 669.438 2635.14 669.438H2635.53C2639.18 669.438 2641 671.651 2641 676.078L2640.61 688.969C2640.09 697.562 2639.57 709.151 2639.05 723.734C2638.79 738.057 2638.66 752.38 2638.66 766.703V779.984C2638.66 804.724 2639.05 819.307 2639.83 823.734C2640.61 828.161 2643.21 830.635 2647.64 831.156C2655.45 832.198 2660.4 833.109 2662.48 833.891C2664.57 834.672 2665.61 836.625 2665.61 839.75C2665.61 845.479 2664.05 848.344 2660.92 848.344C2660.66 848.344 2659.88 848.214 2658.58 847.953C2657.28 847.953 2655.45 847.823 2653.11 847.562C2650.77 847.302 2648.16 847.042 2645.3 846.781C2642.43 846.521 2639.05 846.26 2635.14 846C2631.49 846 2627.85 846 2624.2 846C2620.56 846 2616.78 846 2612.88 846C2608.97 846.26 2605.58 846.521 2602.72 846.781C2600.11 847.042 2597.64 847.302 2595.3 847.562C2592.95 847.823 2591.13 847.953 2589.83 847.953C2588.53 848.214 2587.74 848.344 2587.48 848.344C2583.32 848.344 2581.23 846.13 2581.23 841.703C2581.23 837.276 2582.02 834.672 2583.58 833.891C2585.4 833.109 2591.26 832.068 2601.16 830.766C2605.84 829.984 2608.71 828.552 2609.75 826.469C2611.05 824.125 2611.7 820.74 2611.7 816.312V797.562ZM2615.61 598.734C2615.61 593.526 2617.56 589.099 2621.47 585.453C2625.38 581.807 2629.93 579.984 2635.14 579.984C2640.35 579.984 2644.78 581.807 2648.42 585.453C2652.33 589.099 2654.28 593.396 2654.28 598.344C2654.28 603.812 2652.33 608.37 2648.42 612.016C2644.78 615.661 2640.22 617.484 2634.75 617.484C2629.28 617.484 2624.72 615.792 2621.08 612.406C2617.43 608.76 2615.61 604.203 2615.61 598.734ZM2727.72 694.828C2727.98 694.828 2730.06 693.396 2733.97 690.531C2737.88 687.406 2743.21 684.411 2749.98 681.547C2757.02 678.682 2764.05 677.25 2771.08 677.25C2774.72 677.25 2778.24 677.641 2781.62 678.422C2785.01 679.203 2788.14 680.245 2791 681.547C2793.86 682.849 2796.47 684.281 2798.81 685.844C2801.42 687.406 2803.63 688.969 2805.45 690.531C2807.28 692.094 2808.84 693.526 2810.14 694.828C2811.44 695.87 2812.48 696.781 2813.27 697.562L2814.44 699.125C2814.7 699.385 2815.22 699.516 2816 699.516C2816.78 699.516 2817.43 699.385 2817.95 699.125C2818.47 698.865 2818.99 698.474 2819.52 697.953C2820.3 697.172 2821.86 696 2824.2 694.438C2826.55 692.875 2829.41 691.052 2832.8 688.969C2846.08 681.156 2858.97 677.25 2871.47 677.25C2883.19 677.25 2893.99 680.766 2903.89 687.797C2913.79 694.568 2920.95 705.505 2925.38 720.609C2928.5 731.807 2930.06 747.432 2930.06 767.484V818.266C2930.06 820.089 2930.06 821.651 2930.06 822.953C2930.32 824.255 2930.71 825.427 2931.23 826.469C2932.02 827.25 2932.54 827.901 2932.8 828.422C2933.06 828.943 2933.84 829.464 2935.14 829.984C2936.7 830.505 2937.74 830.896 2938.27 831.156C2939.05 831.156 2940.74 831.417 2943.34 831.938C2945.95 832.458 2947.9 832.849 2949.2 833.109C2952.85 833.63 2954.67 836.104 2954.67 840.531C2954.67 845.74 2952.72 848.344 2948.81 848.344C2948.29 848.344 2946.6 848.083 2943.73 847.562C2940.87 847.302 2936.83 846.911 2931.62 846.391C2926.42 846.13 2920.95 846 2915.22 846C2909.23 846 2903.63 846.13 2898.42 846.391C2893.47 846.911 2889.44 847.302 2886.31 847.562C2883.45 848.083 2881.76 848.344 2881.23 848.344C2879.67 848.344 2878.11 847.823 2876.55 846.781C2875.24 845.74 2874.59 844.047 2874.59 841.703C2874.59 838.057 2875.38 835.844 2876.94 835.062C2878.76 834.281 2884.23 832.979 2893.34 831.156C2898.81 830.375 2901.55 826.729 2901.55 820.219V764.75C2901.55 735.583 2896.08 716.182 2885.14 706.547C2877.59 700.557 2869.26 697.562 2860.14 697.562C2852.07 697.562 2843.99 699.776 2835.92 704.203C2827.85 708.63 2823.81 712.536 2823.81 715.922L2824.2 717.094C2824.2 717.875 2824.33 719.047 2824.59 720.609C2824.85 722.172 2825.11 723.995 2825.38 726.078C2825.64 728.161 2825.77 730.766 2825.77 733.891C2826.03 736.755 2826.16 739.75 2826.16 742.875V819.828C2826.16 820.089 2826.03 820.609 2825.77 821.391C2825.77 822.172 2825.77 822.823 2825.77 823.344V823.734C2825.77 828.161 2830.32 830.766 2839.44 831.547C2841.78 831.807 2843.73 832.068 2845.3 832.328C2850.51 833.109 2853.11 835.714 2853.11 840.141C2853.11 845.609 2851.42 848.344 2848.03 848.344C2847.77 848.344 2846.86 848.214 2845.3 847.953C2843.99 847.953 2842.17 847.823 2839.83 847.562C2837.48 847.302 2834.88 847.042 2832.02 846.781C2829.15 846.521 2825.77 846.26 2821.86 846C2817.95 846 2814.18 846 2810.53 846C2806.89 846 2803.11 846 2799.2 846C2795.3 846.26 2791.91 846.521 2789.05 846.781C2786.18 847.042 2783.58 847.302 2781.23 847.562C2778.89 847.823 2777.07 848.083 2775.77 848.344H2773.42C2769.78 848.344 2767.95 845.479 2767.95 839.75C2767.95 836.104 2772.9 833.63 2782.8 832.328C2785.66 831.807 2787.88 831.417 2789.44 831.156C2793.86 830.375 2796.73 828.943 2798.03 826.859C2799.33 824.776 2799.98 821.13 2799.98 815.922V742.094C2799.98 725.427 2795.69 713.839 2787.09 707.328C2778.5 700.818 2769.12 697.562 2758.97 697.562C2751.42 697.562 2744.91 699.385 2739.44 703.031C2733.97 706.417 2730.32 709.802 2728.5 713.188C2727.46 715.792 2726.94 719.307 2726.94 723.734V819.828C2726.94 821.13 2726.94 822.302 2726.94 823.344C2727.2 824.125 2727.33 824.906 2727.33 825.688C2727.59 826.208 2727.85 826.859 2728.11 827.641C2728.63 828.161 2729.02 828.682 2729.28 829.203C2729.54 829.464 2730.06 829.724 2730.84 829.984C2731.89 830.245 2732.67 830.505 2733.19 830.766C2733.71 831.026 2734.62 831.286 2735.92 831.547C2737.48 831.807 2738.66 832.068 2739.44 832.328C2740.22 832.328 2741.52 832.458 2743.34 832.719C2745.43 832.979 2747.12 833.24 2748.42 833.5C2752.07 834.021 2753.89 836.885 2753.89 842.094C2753.89 846.26 2752.2 848.344 2748.81 848.344L2743.73 847.562C2740.61 847.302 2736.31 846.911 2730.84 846.391C2725.64 846.13 2720.3 846 2714.83 846C2709.62 846 2704.8 846.13 2700.38 846.391C2695.95 846.651 2692.43 846.911 2689.83 847.172C2687.48 847.432 2686.05 847.562 2685.53 847.562C2681.89 847.562 2680.06 844.958 2680.06 839.75C2680.06 836.885 2681.1 834.932 2683.19 833.891C2685.53 832.849 2688.01 832.328 2690.61 832.328C2693.21 832.328 2695.69 831.547 2698.03 829.984C2700.64 828.422 2702.07 825.818 2702.33 822.172V722.953C2702.33 719.568 2701.68 717.094 2700.38 715.531C2699.33 713.969 2696.08 711.104 2690.61 706.938C2688.79 705.635 2687.35 704.594 2686.31 703.812C2683.97 702.25 2682.8 700.688 2682.8 699.125C2682.8 697.823 2683.45 696.651 2684.75 695.609C2686.05 694.307 2689.96 691.703 2696.47 687.797C2703.5 683.37 2709.75 679.464 2715.22 676.078C2719.65 673.734 2722.12 672.562 2722.64 672.562C2724.98 672.562 2726.16 674.125 2726.16 677.25V692.484C2726.16 694.047 2726.68 694.828 2727.72 694.828ZM2969.12 763.578C2969.12 736.495 2976.29 714.75 2990.61 698.344C3004.93 681.938 3022.38 673.734 3042.95 673.734C3056.23 673.734 3068.99 677.38 3081.23 684.672C3093.47 691.964 3103.63 701.078 3111.7 712.016C3113.79 714.62 3114.83 717.484 3114.83 720.609V721.391C3114.83 723.734 3114.18 725.818 3112.88 727.641C3111.57 729.464 3109.49 731.156 3106.62 732.719C3103.76 734.021 3101.29 735.062 3099.2 735.844C3097.12 736.625 3093.99 737.667 3089.83 738.969C3085.92 740.271 3083.45 741.052 3082.41 741.312C3027.98 760.062 3000.11 769.828 2998.81 770.609C2997.77 771.13 2997.25 771.911 2997.25 772.953C2997.25 774.516 2997.64 777.12 2998.42 780.766C2999.2 784.411 3000.9 789.229 3003.5 795.219C3006.36 801.208 3009.75 806.807 3013.66 812.016C3017.82 816.964 3023.68 821.391 3031.23 825.297C3038.79 828.943 3047.25 830.766 3056.62 830.766C3074.85 830.766 3090.74 824.255 3104.28 811.234C3107.93 807.589 3110.92 805.766 3113.27 805.766C3117.69 805.766 3119.91 807.719 3119.91 811.625C3119.91 813.188 3118.86 815.271 3116.78 817.875C3108.45 828.812 3098.03 837.536 3085.53 844.047C3073.03 850.297 3059.88 853.422 3046.08 853.422C3037.22 853.422 3028.5 851.859 3019.91 848.734C3011.57 845.609 3003.37 840.792 2995.3 834.281C2987.48 827.771 2981.1 818.396 2976.16 806.156C2971.47 793.917 2969.12 779.724 2969.12 763.578ZM3076.16 722.172C3076.16 718.786 3071.6 713.578 3062.48 706.547C3053.37 699.255 3043.86 695.609 3033.97 695.609C3022.25 695.609 3012.88 700.688 3005.84 710.844C2999.07 721 2995.69 734.932 2995.69 752.641C2995.69 754.724 2996.34 755.766 2997.64 755.766C2998.16 755.766 3010.53 751.078 3034.75 741.703C3059.23 732.068 3071.86 727.12 3072.64 726.859C3074.98 725.557 3076.16 723.995 3076.16 722.172Z" fill="#6A640D"/>
<defs>
<filter id="filter0_d_1106_283" x="229.17" y="522.314" width="560.071" height="874.973" filterUnits="userSpaceOnUse" color-interpolation-filters="sRGB">
<feFlood flood-opacity="0" result="BackgroundImageFix"/>
<feColorMatrix in="SourceAlpha" type="matrix" values="0 0 0 0 0 0 0 0 0 0 0 0 0 0 0 0 0 0 127 0" result="hardAlpha"/>
<feOffset dy="60.67"/>
<feGaussianBlur stdDeviation="1.35572"/>
<feColorMatrix type="matrix" values="0 0 0 0 0 0 0 0 0 0 0 0 0 0 0 0 0 0 0.25 0"/>
<feBlend mode="normal" in2="BackgroundImageFix" result="effect1_dropShadow_1106_283"/>
<feBlend mode="normal" in="SourceGraphic" in2="effect1_dropShadow_1106_283" result="shape"/>
</filter>
<filter id="filter1_d_1106_283" x="250.53" y="555.648" width="517.345" height="752.661" filterUnits="userSpaceOnUse" color-interpolation-filters="sRGB">
<feFlood flood-opacity="0" result="BackgroundImageFix"/>
<feColorMatrix in="SourceAlpha" type="matrix" values="0 0 0 0 0 0 0 0 0 0 0 0 0 0 0 0 0 0 127 0" result="hardAlpha"/>
<feOffset dy="4"/>
<feGaussianBlur stdDeviation="2"/>
<feColorMatrix type="matrix" values="0 0 0 0 0 0 0 0 0 0 0 0 0 0 0 0 0 0 0.25 0"/>
<feBlend mode="normal" in2="BackgroundImageFix" result="effect1_dropShadow_1106_283"/>
<feBlend mode="normal" in="SourceGraphic" in2="effect1_dropShadow_1106_283" result="shape"/>
</filter>
<filter id="filter2_d_1106_283" x="78.4856" y="158.021" width="64.4624" height="67.7097" filterUnits="userSpaceOnUse" color-interpolation-filters="sRGB">
<feFlood flood-opacity="0" result="BackgroundImageFix"/>
<feColorMatrix in="SourceAlpha" type="matrix" values="0 0 0 0 0 0 0 0 0 0 0 0 0 0 0 0 0 0 127 0" result="hardAlpha"/>
<feOffset dy="4"/>
<feGaussianBlur stdDeviation="2"/>
<feColorMatrix type="matrix" values="0 0 0 0 0 0 0 0 0 0 0 0 0 0 0 0 0 0 0.25 0"/>
<feBlend mode="normal" in2="BackgroundImageFix" result="effect1_dropShadow_1106_283"/>
<feBlend mode="normal" in="SourceGraphic" in2="effect1_dropShadow_1106_283" result="shape"/>
</filter>
<linearGradient id="paint0_linear_1106_283" x1="491.393" y1="521.971" x2="529.599" y2="1318.65" gradientUnits="userSpaceOnUse">
<stop/>
<stop offset="0.5" stop-color="#404040"/>
<stop offset="1"/>
</linearGradient>
<linearGradient id="paint1_linear_1106_283" x1="495.288" y1="559.817" x2="522.196" y2="1299.07" gradientUnits="userSpaceOnUse">
<stop/>
<stop offset="0.5" stop-color="#404040"/>
<stop offset="1"/>
</linearGradient>
<linearGradient id="paint2_linear_1106_283" x1="510.012" y1="974.508" x2="496.01" y2="550.292" gradientUnits="userSpaceOnUse">
<stop stop-color="white" stop-opacity="0"/>
<stop offset="1" stop-color="white" stop-opacity="0.5"/>
</linearGradient>
<linearGradient id="paint3_linear_1106_283" x1="1209" y1="987" x2="615" y2="545" gradientUnits="userSpaceOnUse">
<stop stop-color="#6A640D"/>
<stop offset="1" stop-color="white"/>
</linearGradient>
</defs>
</svg>
