<svg width="101" height="101" viewBox="0 0 101 101" fill="none" xmlns="http://www.w3.org/2000/svg">
<path d="M12.0676 58.4925C11.9095 58.5123 11.3259 58.622 10.7916 58.7318C6.03363 59.729 2.087 63.3191 0.60321 67.9963C0.098868 69.592 0 70.2603 0 72.0852C0 73.5812 0.0296219 73.8205 0.276984 74.7281C1.43416 78.867 4.83683 84.8308 10.0795 91.8814C11.039 93.178 13.3041 96.1199 13.6011 96.4489C13.7199 96.5885 17.4388 91.722 19.7536 88.391C23.8779 82.457 26.5093 77.371 27.2017 73.9803C27.6668 71.7466 27.1621 68.5153 26.0146 66.1916C23.6009 61.3347 18.8434 58.3726 13.5514 58.4424C12.8986 58.4424 12.2358 58.4723 12.0676 58.4925ZM15.5396 64.7053C17.6958 65.2638 19.4862 66.6997 20.5249 68.6945C22.5034 72.544 20.9504 77.321 17.1122 79.2157C15.9747 79.7742 15.2822 79.9635 14.0458 80.0333C10.2869 80.2528 6.86458 77.5897 6.07326 73.8302C5.88514 72.9226 5.93476 71.2869 6.17212 70.3398C6.90421 67.4979 9.18932 65.2638 11.9688 64.6556C12.9182 64.4462 14.6197 64.466 15.5396 64.7053Z" fill="white"/>
<path d="M85.6938 0.0512434C85.5357 0.0710245 84.9521 0.180791 84.4178 0.290556C79.6598 1.28775 75.7132 4.87782 74.2294 9.55507C73.725 11.1507 73.6262 11.819 73.6262 13.6439C73.6262 15.1399 73.6558 15.3792 73.9032 16.2868C75.0603 20.4257 78.463 26.3895 83.7057 33.4401C84.6651 34.7368 86.9302 37.6787 87.2272 38.0076C87.3461 38.1472 91.065 33.2807 93.3797 29.9497C97.5041 24.0158 100.135 18.9297 100.828 15.539C101.293 13.3053 100.788 10.074 99.6407 7.75034C97.2271 2.89351 92.4695 -0.0686081 87.1776 0.00120746C86.5248 0.00120746 85.8619 0.0310745 85.6938 0.0512434ZM89.1657 6.26405C91.322 6.82257 93.1124 8.25845 94.1511 10.2532C96.1296 14.1028 94.5765 18.8797 90.7384 20.7744C89.6008 21.333 88.9084 21.5222 87.6719 21.592C83.913 21.8116 80.4908 19.1485 79.6994 15.3889C79.5113 14.4813 79.5609 12.8457 79.7983 11.8985C80.5304 9.05667 82.8155 6.82257 85.5949 6.2144C86.5444 6.00496 88.2459 6.02474 89.1657 6.26405Z" fill="white"/>
<path d="M43.7496 97.1335C43.5897 96.3208 42.7158 95.5776 41.3591 95.0883C40.2031 94.6726 38.101 94.4253 37.1467 94.5891C36.6359 94.681 35.1155 95.2586 34.752 95.5048C34.6582 95.5676 34.5928 95.6575 34.5672 95.7464C34.5204 95.9379 34.5007 99.6927 34.5477 99.826C34.569 99.8812 34.6188 99.9587 34.6595 99.9993C34.7531 100.085 35.6585 100.498 36.2246 100.711C36.9834 100.993 37.171 101.021 38.1605 100.99C39.4601 100.957 40.3622 100.766 41.4994 100.296C42.125 100.034 43.0341 99.4955 43.2703 99.2436C43.7195 98.7678 43.9054 97.9415 43.7496 97.1335Z" fill="white"/>
<path d="M38.3783 87.2064C38.1717 86.5899 37.8811 86.2632 37.2117 85.8999C35.7881 85.1246 34.3481 84.7996 32.5797 84.8547C31.7371 84.881 31.6617 84.8876 31.2913 85.0179C30.8498 85.1684 29.8438 85.6445 29.4363 85.8918C29.2247 86.018 29.1627 86.08 29.1339 86.1966C29.0796 86.4067 29.2845 90.0814 29.3571 90.2793C29.4378 90.4813 29.6515 90.5919 30.6303 90.924C31.7737 91.3167 31.8055 91.3205 32.7037 91.2927C33.3276 91.272 33.617 91.2413 34.1907 91.1244C35.4649 90.8688 36.0486 90.6821 36.7822 90.2872C37.5198 89.8922 38.1992 89.2343 38.3696 88.7473C38.4845 88.4057 38.4904 87.5469 38.3783 87.2064Z" fill="white"/>
<path d="M32.8292 95.2851C32.7106 95.1537 31.9682 94.8943 31.5172 94.8272C31.0541 94.7603 30.3002 94.8261 29.9538 94.9649C29.5443 95.1287 29.2552 95.3357 29.0242 95.6339C28.6468 96.1171 28.5047 96.6313 28.5253 97.4428C28.5463 98.2683 28.7619 98.9264 29.1761 99.4168C29.5572 99.8617 30.0574 100.136 30.6844 100.236C31.0277 100.293 32.558 100.258 32.7036 100.189C32.9157 100.086 32.9193 100.072 32.9292 97.9649C32.9461 95.3471 32.948 95.4214 32.8292 95.2851Z" fill="white"/>
<path d="M27.6167 88.3055L27.4945 86.1555L27.388 86.0375C27.2856 85.9241 27.2498 85.9204 26.7323 85.9012C26.0954 85.876 25.282 85.9525 24.927 86.0685C23.8738 86.4113 23.2577 87.36 23.2238 88.688C23.1874 90.0718 23.7598 90.9992 24.8538 91.319C25.1823 91.4126 25.9383 91.4256 26.3457 91.3455C26.6703 91.2814 27.3008 91.0564 27.5516 90.9106C27.6456 90.857 27.6877 90.7909 27.7163 90.6651C27.7339 90.5718 27.7475 90.4879 27.7472 90.4741C27.7431 90.4601 27.6824 89.4826 27.6167 88.3055Z" fill="white"/>
<path d="M66.2773 88.0452C65.7695 87.3932 64.6561 87.1286 63.2263 87.3102C62.0086 87.466 60.0228 88.2029 59.2453 88.7837C58.8312 89.0983 57.7349 90.3059 57.5214 90.6911C57.466 90.7898 57.448 90.8997 57.4652 90.9907C57.5095 91.1828 59.1794 94.5402 59.2812 94.6377C59.3251 94.6772 59.4043 94.7236 59.4589 94.7413C59.5809 94.7752 60.5739 94.7311 61.1744 94.663C61.9779 94.569 62.1576 94.5082 63.0264 94.0304C64.1702 93.4086 64.8892 92.828 65.692 91.8906C66.1321 91.3718 66.7008 90.4775 66.7982 90.1453C66.985 89.5164 66.7794 88.6948 66.2773 88.0452Z" fill="white"/>
<path d="M57.0257 81.6388C56.5644 81.1832 56.1584 81.0242 55.3981 81.0051C53.7801 80.9621 52.3499 81.3282 50.7976 82.1828C50.0581 82.5901 49.9938 82.6303 49.722 82.9152C49.3959 83.2506 48.7127 84.1333 48.4605 84.5395C48.3285 84.7484 48.3011 84.8319 48.3278 84.949C48.3738 85.1611 50.2081 88.3449 50.3617 88.4883C50.5245 88.6317 50.7648 88.633 51.7869 88.4833C52.983 88.3127 53.0132 88.3016 53.8017 87.8677C54.3487 87.5651 54.593 87.4058 55.0521 87.0403C56.0735 86.232 56.5102 85.7996 56.987 85.1133C57.4672 84.4251 57.7773 83.5289 57.7104 83.017C57.6594 82.66 57.2788 81.8915 57.0257 81.6388Z" fill="white"/>
<path d="M55.7079 91.3709C55.543 91.3077 54.7644 91.4146 54.332 91.5601C53.889 91.7115 53.2463 92.1135 52.9997 92.3951C52.7082 92.7277 52.5434 93.0439 52.4714 93.4152C52.352 94.0179 52.4563 94.5412 52.8395 95.2554C53.2292 95.9821 53.7172 96.4708 54.307 96.7194C54.8468 96.9426 55.4164 96.9599 56.0204 96.7634C56.3519 96.657 57.7009 95.9289 57.7998 95.8013C57.9427 95.6129 57.9397 95.5989 57.0015 93.7152C55.84 91.3729 55.8751 91.4384 55.7079 91.3709Z" fill="white"/>
<path d="M47.9226 87.5208L46.8473 85.6591L46.6994 85.6024C46.557 85.5478 46.5234 85.5609 46.0533 85.7796C45.474 86.0471 44.783 86.4859 44.5186 86.751C43.7334 87.5364 43.6103 88.663 44.1769 89.8628C44.7664 91.1135 45.6937 91.6798 46.813 91.4667C47.148 91.4006 47.8281 91.0677 48.1554 90.8108C48.416 90.6058 48.8772 90.1179 49.0353 89.8736C49.095 89.7831 49.1029 89.705 49.0719 89.5797C49.0456 89.4885 49.0201 89.4074 49.0135 89.3953C49.0036 89.3847 48.5102 88.5406 47.9226 87.5208Z" fill="white"/>
<path d="M71.9466 62.2833C71.1355 62.4234 70.3751 63.2839 69.8544 64.6367C69.412 65.7895 69.1126 67.8986 69.2508 68.8632C69.329 69.3796 69.8636 70.9246 70.0988 71.2967C70.1587 71.3926 70.2463 71.4608 70.3339 71.4888C70.5229 71.5409 74.2508 71.6569 74.3844 71.613C74.4398 71.5929 74.518 71.5448 74.5594 71.5049C74.647 71.4129 75.0803 70.5123 75.3061 69.948C75.6057 69.1917 75.638 69.0035 75.6332 68.0069C75.6332 66.6982 75.4673 65.7855 75.0295 64.629C74.7852 63.9926 74.2737 63.064 74.0296 62.8198C73.5687 62.3555 72.753 62.1472 71.9466 62.2833Z" fill="white"/>
<path d="M61.9513 67.4345C61.3339 67.6267 61.0019 67.9108 60.624 68.5752C59.8177 69.988 59.4581 71.4288 59.4675 73.21C59.472 74.0585 59.4766 74.1346 59.5965 74.5107C59.7346 74.959 60.1816 75.9835 60.4168 76.4C60.5367 76.6162 60.5966 76.6801 60.7117 76.7121C60.9189 76.7721 64.5732 76.6601 64.7715 76.5921C64.9742 76.516 65.0895 76.3038 65.4443 75.3273C65.8636 74.1867 65.8682 74.1547 65.8636 73.2501C65.859 72.6217 65.8359 72.3296 65.7346 71.7493C65.5134 70.4604 65.343 69.8682 64.9697 69.1198C64.5963 68.3674 63.9604 67.6668 63.4812 67.4828C63.1449 67.3584 62.2923 67.3304 61.9513 67.4345Z" fill="white"/>
<path d="M69.8313 73.2261C69.6977 73.3421 69.4212 74.0826 69.3429 74.5348C69.2647 74.9991 69.3107 75.7594 69.4397 76.1117C69.5918 76.5279 69.7899 76.8242 70.0802 77.0644C70.5503 77.4566 71.0572 77.6127 71.8636 77.6127C72.6839 77.6127 73.3429 77.4127 73.8404 77.0083C74.292 76.6362 74.5777 76.1399 74.693 75.5115C74.7575 75.1674 74.7621 73.6264 74.6976 73.4782C74.6008 73.262 74.5871 73.2581 72.4949 73.1941C69.8958 73.11 69.9697 73.11 69.8313 73.2261Z" fill="white"/>
<path d="M62.767 78.293L60.6289 78.3609L60.509 78.4651C60.3937 78.5652 60.3891 78.6011 60.3569 79.1215C60.3155 79.7618 60.3706 80.5824 60.4767 80.9426C60.7901 82.0113 61.7163 82.6556 63.0342 82.7238C64.4074 82.7959 65.343 82.2436 65.6886 81.1508C65.79 80.8226 65.8222 80.0621 65.7531 79.65C65.6978 79.3218 65.4905 78.6814 65.3521 78.4253C65.3013 78.3294 65.2368 78.2853 65.1126 78.2533C65.0204 78.2332 64.9374 78.2173 64.9237 78.2173C64.9097 78.2211 63.9375 78.257 62.767 78.293Z" fill="white"/>
<path d="M60.7454 42.8753C60.0107 43.2487 59.5345 44.2958 59.4308 45.7428C59.3437 46.9755 59.6718 49.0804 60.0849 49.9618C60.3101 50.4323 61.2712 51.7515 61.6045 52.0378C61.6897 52.1119 61.7933 52.1512 61.8852 52.1521C62.081 52.1461 65.6789 51.1564 65.7938 51.075C65.8409 51.0395 65.9017 50.9704 65.9296 50.92C65.9866 50.8062 66.1385 49.8173 66.19 49.2112C66.2561 48.3996 66.2321 48.2102 65.9372 47.2588C65.556 46.0077 65.1316 45.184 64.3761 44.2076C63.9571 43.6713 63.1976 42.9345 62.8931 42.7732C62.3172 42.4653 61.4767 42.5071 60.7454 42.8753Z" fill="white"/>
<path d="M52.6901 50.7509C52.1558 51.1169 51.9213 51.4865 51.7535 52.2332C51.3942 53.822 51.4701 55.3056 51.998 57.0057C52.2495 57.8156 52.2761 57.887 52.5002 58.2112C52.7629 58.5989 53.4887 59.4465 53.8348 59.7752C54.0124 59.9465 54.0883 59.9899 54.2076 59.9865C54.4232 59.9827 57.8842 58.7967 58.0541 58.6732C58.2256 58.5406 58.2741 58.3037 58.3288 57.2654C58.3974 56.0511 58.3924 56.0192 58.1246 55.1557C57.9371 54.5563 57.83 54.2839 57.564 53.759C56.9771 52.5921 56.6416 52.0762 56.0667 51.4709C55.4906 50.8618 54.6786 50.3798 54.1668 50.3454C53.8091 50.3258 52.9859 50.5507 52.6901 50.7509Z" fill="white"/>
<path d="M61.9108 53.9614C61.8169 54.1117 61.7682 54.9013 61.8251 55.3567C61.8856 55.8237 62.151 56.5371 62.377 56.8357C62.6437 57.1888 62.9194 57.4135 63.2669 57.5574C63.8305 57.7936 64.3607 57.7932 65.1316 57.5552C65.9158 57.313 66.4876 56.9272 66.8455 56.3937C67.1688 55.9047 67.2974 55.3458 67.2245 54.711C67.1859 54.363 66.7414 52.8884 66.6366 52.7657C66.4811 52.5876 66.4668 52.5879 64.448 53.1444C61.9387 53.8314 62.0093 53.8096 61.9108 53.9614Z" fill="white"/>
<path d="M56.6331 60.8911L54.6088 61.5873L54.5245 61.7222C54.4434 61.852 54.4495 61.8877 54.5703 62.3947C54.7172 63.0192 55.009 63.7874 55.2154 64.1004C55.8263 65.0296 56.8995 65.3721 58.1793 65.0482C59.5131 64.7118 60.2467 63.9075 60.2588 62.7607C60.2601 62.417 60.0693 61.6804 59.8833 61.3069C59.7347 61.0094 59.3501 60.4584 59.1431 60.2544C59.0666 60.1777 58.9921 60.1546 58.864 60.1606C58.7701 60.1687 58.686 60.178 58.6729 60.182C58.6607 60.1898 57.7417 60.5112 56.6331 60.8911Z" fill="white"/>
<path d="M78.9575 32.6601C78.4731 31.9902 77.3699 31.6856 75.9345 31.8155C74.712 31.9274 72.7013 32.5923 71.9037 33.1446C71.4787 33.4442 70.3401 34.6115 70.1131 34.9887C70.0542 35.0853 70.0323 35.1946 70.0463 35.2861C70.0837 35.4797 71.6332 38.8951 71.7315 38.9962C71.7739 39.0372 71.8514 39.0865 71.9053 39.1062C72.026 39.1444 73.02 39.1361 73.6225 39.0897C74.4288 39.0248 74.6106 38.9704 75.4958 38.5243C76.6611 37.944 77.4002 37.3897 78.2358 36.4819C78.6941 35.9793 79.2942 35.106 79.4034 34.7775C79.6124 34.1557 79.4362 33.3273 78.9575 32.6601Z" fill="white"/>
<path d="M69.9395 25.9244C69.4948 25.4524 69.0946 25.2789 68.3355 25.2324C66.7201 25.1312 65.2778 25.4455 63.6961 26.2437C62.9426 26.624 62.8769 26.6619 62.5951 26.9368C62.2573 27.2602 61.5432 28.1178 61.2767 28.5146C61.1374 28.7186 61.107 28.8011 61.1295 28.9191C61.168 29.1327 62.8879 32.3805 63.0363 32.5294C63.1939 32.6785 63.434 32.6885 64.4607 32.5757C65.6622 32.4484 65.6927 32.4383 66.4961 32.0331C67.0536 31.7504 67.3034 31.6 67.7752 31.2513C68.8247 30.4803 69.2764 30.0639 69.7773 29.3952C70.2817 28.7248 70.6235 27.8403 70.5748 27.3263C70.5365 26.9677 70.1835 26.186 69.9395 25.9244Z" fill="white"/>
<path d="M68.2766 35.6028C68.1141 35.5337 67.3322 35.6124 66.8949 35.7423C66.4468 35.8776 65.7902 36.2561 65.5337 36.5287C65.2305 36.8506 65.0546 37.1606 64.9694 37.5291C64.8287 38.1272 64.9144 38.6538 65.2719 39.3815C65.6356 40.1217 66.1059 40.6277 66.6865 40.8974C67.218 41.1399 67.7865 41.1776 68.3972 41.0031C68.7322 40.9087 70.1062 40.2296 70.2096 40.1057C70.3592 39.9226 70.3566 39.9084 69.486 37.9921C68.4085 35.6095 68.4413 35.6762 68.2766 35.6028Z" fill="white"/>
<path d="M60.6332 31.4746L59.6247 29.5754L59.4789 29.5133C59.3386 29.4537 59.3046 29.4655 58.827 29.6671C58.2385 29.9137 57.5323 30.3272 57.2587 30.5827C56.4461 31.3393 56.283 32.4607 56.8066 33.6801C57.3512 34.9512 58.2578 35.5506 59.384 35.378C59.7211 35.324 60.4126 35.0159 60.7489 34.7708C61.0166 34.5754 61.4948 34.1045 61.6615 33.866C61.7244 33.7777 61.7351 33.6999 61.7085 33.5736C61.6855 33.4815 61.6628 33.3996 61.6567 33.3872C61.6472 33.3763 61.1842 32.5149 60.6332 31.4746Z" fill="white"/>
</svg>
