<svg width="80" height="100" viewBox="0 0 80 100" fill="none" xmlns="http://www.w3.org/2000/svg">
<path d="M36.1593 0.330395C30.3466 1.31922 24.5976 4.30819 18.8699 9.36471C9.28113 17.8372 2.51386 29.6133 0.477315 41.4567C-0.159105 45.1424 -0.159105 51.0754 0.477315 54.8284C1.05009 58.1545 2.38658 62.8514 3.55335 65.5932C4.8474 68.6945 7.83858 73.8859 10.1933 77.212C13.036 81.2347 15.6453 84.1113 18.9759 86.9429C24.0037 91.2129 28.3101 93.64 33.253 94.9435C35.5653 95.5503 39.3414 96.1795 40.7203 96.1795C41.0597 96.1795 41.1234 96.8088 40.9112 97.6852L40.7839 98.2021H21.0761H1.3683V99.1011V100H39.9354H78.4812L78.5449 99.1011L78.5873 98.2021H60.6827H42.7781L42.6508 97.6852C42.2901 96.2469 42.4174 96.1121 44.4327 95.8424C45.0692 95.7525 46.7663 95.3255 48.2088 94.921C58.2006 91.9995 67.1105 83.8866 73.6444 71.706C75.2779 68.6496 77.1872 64.2897 77.5478 62.8065C77.6327 62.4244 77.9509 61.2783 78.2479 60.2221C80.3481 52.7159 80.5602 45.6818 78.8843 38.5352C77.76 33.7484 76.5508 30.5347 74.0899 25.7703C72.4989 22.669 71.9049 21.7476 69.1683 17.9496C62.8465 9.18492 55.4428 3.38678 47.6997 1.13944C43.6478 -0.0291801 39.9354 -0.298861 36.1593 0.330395ZM45.7056 2.4429C53.1941 4.1284 60.0463 8.62309 65.1164 15.1404C66.8347 17.3428 69.4865 21.5678 69.1683 21.5678C69.1046 21.5678 68.8925 21.2307 68.7016 20.8262C68.5106 20.4441 67.6621 19.1406 66.8347 17.972C62.7192 12.1289 57.3309 7.58931 51.7728 5.27455C46.0662 2.89236 41.2506 2.19569 36.0532 3.0272C33.9318 3.36431 30.4315 4.39808 28.8404 5.16218C28.3737 5.38691 27.4615 5.81391 26.8251 6.10606C24.1309 7.36457 19.9306 10.6682 17.3637 13.5223C15.709 15.3876 11.9965 20.6014 10.3418 23.4106C9.11142 25.5006 7.03244 29.7032 6.79909 30.5571C6.71423 30.8718 7.39308 29.7481 8.30528 28.0851C16.1333 13.8369 24.0249 6.73532 34.7592 4.33066C36.9442 3.83625 42.9902 3.7913 45.1752 4.24077C47.6148 4.73518 51.3909 6.01617 53.2153 6.96005C57.7764 9.29729 62.3374 13.2301 65.6255 17.6349C67.5136 20.1519 68.8289 22.1071 68.8289 22.3543C68.8289 22.4218 69.2107 23.1184 69.6986 23.8825C70.5472 25.2309 72.2231 28.5795 72.2231 28.9166C72.2231 29.0065 71.8625 28.4446 71.417 27.6356C70.3351 25.6579 67.4075 20.9385 66.7287 20.0621C66.4317 19.68 65.7528 18.7811 65.2225 18.0619C61.6161 13.2077 56.0156 9.00513 50.2454 6.89263C43.6903 4.48798 36.9442 4.42056 30.6436 6.6679C26.9524 7.99383 22.4975 10.803 19.4002 13.747C16.4939 16.5113 12.6966 21.1857 11.3601 23.6353C11.148 24.0398 10.1721 25.7478 9.21749 27.4109C7.18094 30.9841 6.41724 32.5573 6.60816 32.8719C6.69302 33.0067 6.62938 33.0292 6.45967 32.9168C6.24753 32.782 6.2051 32.827 6.31117 33.1191C6.39602 33.3214 6.37481 33.4562 6.26874 33.3888C6.16267 33.3214 6.01417 33.4113 5.95053 33.6135C5.86567 33.8158 5.9081 33.9057 6.0566 33.7933C6.2051 33.7034 6.26874 33.7708 6.2051 33.9506C6.14146 34.1304 6.01417 34.2428 5.9081 34.2203C5.80203 34.1978 5.69596 34.49 5.67475 34.8496C5.56868 36.2429 5.50504 36.58 5.37775 36.4901C5.2929 36.4452 5.05954 37.052 4.8474 37.8385C4.63526 38.6476 4.38069 39.2319 4.29584 39.1869C4.21098 39.1195 4.18977 39.2094 4.25341 39.3892C4.35948 39.6813 3.9352 42.3107 3.44728 44.221C3.29878 44.8952 3.15028 45.0974 3.04421 44.8952C2.89571 44.6704 2.85328 44.6929 2.85328 44.9851C2.85328 45.2098 2.93814 45.3896 3.023 45.3896C3.10785 45.3896 3.15028 45.7716 3.10785 46.2211C3.023 46.9403 2.98057 47.0077 2.81086 46.6256C2.66236 46.2661 2.66236 46.2885 2.76843 46.738C2.85328 47.0526 2.91693 47.6594 2.89571 48.0864C2.81086 52.9631 2.81086 55.9296 2.89571 56.0869C2.98057 56.2667 3.08664 57.3904 3.15028 58.8062C3.17149 59.0534 3.23514 59.2332 3.31999 59.1883C3.46849 59.0759 3.7867 60.5142 3.74427 61.1659C3.74427 61.3907 3.82913 61.5705 3.9352 61.5705C4.06248 61.5705 4.10491 61.6604 4.02005 61.7952C3.95641 61.9076 4.04127 62.357 4.21098 62.784C4.48676 63.4582 4.48676 63.683 4.25341 64.1549C3.99884 64.6493 3.95641 64.6718 3.85034 64.3347C3.7867 64.11 3.4897 63.211 3.17149 62.357C2.70479 61.0536 1.8138 57.5702 1.45316 55.6375C0.477315 50.4012 0.583385 44.6704 1.8138 38.8274C1.94108 38.2206 2.11079 37.7936 2.17444 37.8385C2.25929 37.8835 2.34415 37.5014 2.36536 36.9621C2.429 35.6586 3.6382 32.1977 5.35654 28.5345C6.8203 25.3658 9.13263 21.0958 9.85391 20.1969C10.2782 19.6575 9.00535 22.2195 7.98707 23.9275C6.69302 26.1074 3.31999 33.6135 3.55335 33.8383C3.59577 33.8832 3.85034 33.3438 4.12612 32.6247C5.20804 29.8155 8.81442 23.0285 11.1904 19.3879C13.1421 16.3539 12.8239 17.2304 10.4903 21.2981C9.19627 23.5454 8.15679 25.4781 8.15679 25.613C8.15679 25.7254 8.05072 25.8377 7.90222 25.8377C7.77493 25.8377 7.73251 25.9051 7.79615 25.995C7.881 26.0625 7.77493 26.2647 7.56279 26.4445C7.37187 26.6243 7.32944 26.6917 7.47794 26.6243C7.69008 26.5119 7.66886 26.6692 7.43551 27.2985C7.24458 27.7704 7.09609 28.175 7.09609 28.2424C7.09609 28.2873 7.01123 28.2873 6.90516 28.2199C6.79909 28.1525 6.41724 28.6244 6.07781 29.2762C5.2929 30.7594 3.6382 34.8271 3.76549 34.9844C3.82913 35.0294 3.9352 34.8496 4.02005 34.5574C4.31705 33.5686 6.75666 28.2649 6.84152 28.4896C6.86273 28.602 6.65059 29.2986 6.3536 29.9953C6.0566 30.7145 5.84446 31.3437 5.9081 31.3887C5.95053 31.4336 6.18388 30.9841 6.41724 30.3774C9.13263 23.7027 13.0572 17.5001 17.7031 12.5784C23.2612 6.71285 29.2223 3.31936 36.1169 2.12827C38.5565 1.70127 43.0326 1.85859 45.7056 2.4429ZM45.748 6.53306C51.1788 7.6792 56.7793 10.6682 61.3403 14.8033C64.9891 18.1293 68.9349 23.5454 71.6291 28.9391C72.2655 30.1976 72.8595 31.1639 72.9656 31.074C73.0504 30.9617 73.0504 31.1414 72.9656 31.4336C72.8807 31.7707 72.9019 31.9055 73.0292 31.8157C73.2414 31.6808 74.2596 34.2877 74.4506 35.5462C74.5142 35.9058 74.7051 36.4901 74.8536 36.8272C75.0233 37.1419 75.2143 37.9284 75.2991 38.5352C75.4052 39.1645 75.6386 40.1758 75.8507 40.8275C76.0416 41.4567 76.1689 42.0411 76.1053 42.1085C76.0204 42.1759 76.084 42.2433 76.2113 42.2433C76.3598 42.2433 76.4659 42.4456 76.4659 42.7153C76.4659 42.9625 76.572 43.3895 76.6993 43.6367C76.8478 43.9513 76.869 44.1536 76.7205 44.3109C76.572 44.4682 76.6144 44.7379 76.8478 45.1199C77.0599 45.457 77.0811 45.6368 76.9538 45.5469C76.7629 45.4121 76.678 45.5244 76.678 45.884C76.678 46.2436 76.7417 46.311 76.869 46.1087C76.975 45.929 77.0387 46.2211 77.0387 46.8953C77.0387 47.4796 77.0599 48.9853 77.0599 50.2214C77.1023 54.5138 76.1689 59.2107 74.1324 64.9639C72.7322 68.9193 72.308 69.8631 70.6108 72.8521C68.744 76.1332 67.6197 77.6839 65.4346 80.0886C62.8677 82.8977 60.1948 85.1675 57.3733 86.9654C54.3397 88.9206 52.5365 89.7521 49.5029 90.6735C47.0633 91.4152 43.4781 92.1793 43.3084 91.977C43.266 91.932 43.3084 91.4152 43.4357 90.8084L43.6266 89.7072L44.7297 89.5499C48.9938 88.9656 54.8488 86.6957 58.6461 84.1562C64.1618 80.4706 69.4865 74.5151 72.011 69.2114C74.6839 63.5706 76.9538 54.9183 76.869 50.7383C76.8478 49.727 76.8053 49.8393 76.6568 51.4349C76.275 55.1655 75.5537 58.2444 73.7081 63.7054C72.0534 68.6496 69.1683 73.3465 65.3073 77.3018C60.3857 82.3359 55.3792 85.5046 49.3968 87.3924C48.1876 87.7745 44.5812 88.5386 44.0085 88.5386C43.8812 88.5386 44.157 86.2912 44.3055 86.1339C44.3267 86.089 45.451 85.8642 46.7875 85.617C56.652 83.8191 66.4741 76.1557 71.5018 66.3798C73.7505 61.9975 75.5749 56.042 76.1265 51.3451C76.275 49.8843 75.9143 51.1203 75.5325 53.3677C75.0446 56.042 73.2626 61.6154 72.0534 64.1549C67.0469 74.7624 56.6096 82.8977 45.5571 84.8304C44.6873 84.9653 44.6449 84.9653 44.6449 84.4034C44.6449 83.954 44.7722 83.7967 45.2389 83.6843C49.4605 82.673 53.6396 81.0324 56.4187 79.302C61.4676 76.1557 65.774 71.9532 69.0622 66.9641C72.2019 62.2222 74.8536 55.5251 75.2779 51.3451L75.384 50.2214L75.1718 51.2327C74.7051 53.48 72.9656 58.6714 71.9897 60.7839C69.0622 67.1439 64.2466 72.942 58.6886 76.785C55.0822 79.2795 51.8152 80.7403 47.4451 81.819C45.0055 82.4258 45.0692 82.4483 45.0692 81.1223C45.0692 80.0211 45.0692 80.0211 45.8753 79.8638C55.0185 78.2008 64.0133 71.8183 69.4653 63.1211C71.714 59.5254 72.8171 57.1881 73.899 53.6598C75.0658 49.8393 75.0021 49.255 73.8141 52.8732C72.011 58.3792 69.4016 63.0312 65.7528 67.2562C63.3769 69.998 59.8129 73.0544 56.8429 74.8972C54.1488 76.5602 48.9513 78.4929 45.8753 78.9874C44.8995 79.1447 44.857 79.1222 44.857 78.5828C44.857 78.2907 44.7085 77.6165 44.5388 77.0996C44.1994 76.0433 44.1145 76.0883 46.4481 75.8411C47.1481 75.7737 48.4846 75.504 49.418 75.2568C58.2643 72.8746 65.2649 67.6383 70.0805 59.7726C71.82 56.9409 72.7322 54.9183 73.9626 51.1203C74.5142 49.3899 74.9809 48.1314 75.0021 48.3111C75.0233 48.4909 75.1082 47.9965 75.1931 47.1875C75.3203 45.9964 75.2567 45.3222 74.8536 43.6142C74.5779 42.4681 74.4081 41.4118 74.493 41.277C74.5566 41.1421 74.5142 41.1196 74.3869 41.2095C74.2384 41.2994 74.0899 41.0522 74.0051 40.5129C73.9202 40.0409 73.8566 39.6139 73.8566 39.5465C73.8778 39.4791 73.6869 39.0521 73.4747 38.5802C73.2414 38.1307 73.1141 37.7486 73.1777 37.7486C73.3687 37.7486 72.2231 35.2091 71.2048 33.3663C70.6745 32.3775 69.2531 30.1976 68.0652 28.5345C63.1435 21.5902 57.2248 16.9832 50.5848 14.9381C49.1423 14.5111 47.9331 14.1066 47.9118 14.0841C47.8906 14.0617 47.8058 13.6571 47.7209 13.2077L47.5724 12.3537L48.6968 12.7132C54.7215 14.6235 60.4069 18.399 64.9043 23.478C66.0498 24.8039 67.1529 26.0849 67.3227 26.3546C67.8318 27.1412 68.6167 27.9952 68.6167 27.7704C68.6167 27.4783 66.8772 25.1186 65.6255 23.7027C65.0952 23.0735 64.3315 22.197 63.9496 21.7251C62.9526 20.5115 59.8978 17.7922 58.0097 16.4663C55.8035 14.9156 51.497 12.7357 49.1635 11.9941C47.6148 11.4772 47.1694 11.2525 46.8936 10.7581C45.9602 9.09503 43.669 8.71298 41.6113 9.85912C40.5718 10.4434 40.2324 10.5109 38.2595 10.5333C34.4409 10.6007 31.1316 11.5446 26.422 13.9718C22.455 15.9944 18.8699 18.6238 15.6029 21.8824L14.4361 23.0285L15.5393 21.6577C16.1333 20.8936 17.3637 19.5901 18.2759 18.7361C19.1669 17.8821 20.1427 16.9607 20.4185 16.691C21.2883 15.8371 26.2311 12.4436 27.801 11.6121C29.6042 10.6457 33.7197 9.34223 36.0956 8.98266C37.1563 8.82535 39.2141 8.75793 41.3991 8.82535C44.751 8.91524 45.1328 8.96019 47.6997 9.76923C55.167 12.084 61.5949 16.6011 66.6862 23.1409C67.3227 23.95 67.8954 24.6466 67.9591 24.7141C68.0439 24.7815 68.4046 25.2759 68.744 25.8377C70.7381 28.984 72.2443 31.1864 71.6715 30.1077C69.8471 26.6692 65.5619 20.8262 62.8677 18.0619C57.246 12.3312 49.8847 8.62309 42.6083 7.83652C37.4958 7.29715 30.6861 8.82535 26.1887 11.5222C22.943 13.4773 18.5092 17.118 16.112 19.8148C14.521 21.5678 11.6571 25.141 11.0843 26.0625C10.8722 26.3771 10.4267 26.9839 10.066 27.4109C9.00535 28.7143 11.9965 23.5679 13.5876 21.388C15.7726 18.399 20.27 13.8144 22.8369 11.9716C27.5676 8.57814 32.9348 6.44316 37.8564 5.97122C39.6808 5.81391 43.7115 6.08359 45.748 6.53306ZM39.405 11.23C38.111 12.0615 37.7715 13.5897 38.514 15.4325C38.7686 16.1067 38.7474 16.2191 38.3231 16.8259L37.8564 17.5001L38.3019 17.7473C38.5989 17.9271 38.705 18.1518 38.6413 18.444C38.5565 18.7586 38.6413 18.871 38.9383 18.871C39.1929 18.871 39.2777 18.9833 39.2141 19.2081C39.1292 19.3879 39.2353 19.5901 39.4262 19.68C39.6172 19.7474 39.7657 19.9497 39.7657 20.107C39.7657 20.6688 40.4445 20.6688 41.0809 20.107C42.8417 18.5339 43.7751 19.5227 43.7963 22.9387C43.7963 23.905 43.7115 24.2871 43.372 24.6017C42.7144 25.2309 40.9112 24.9388 38.7262 23.7926C36.2866 22.5341 35.3107 22.5341 30.283 23.9275C20.6943 26.5569 17.3425 28.2649 10.9358 33.7708C9.15385 35.3215 8.15679 36.8048 8.15679 37.9059C8.15679 38.67 8.72957 40.1308 8.94171 39.9286C8.98413 39.8611 8.92049 39.5915 8.79321 39.3218C8.45378 38.6251 8.60228 37.2093 9.04778 37.1194C9.32356 37.0744 9.36599 37.1643 9.28113 37.5464C9.19627 37.8835 9.21749 37.9958 9.3872 37.8835C9.5357 37.7936 9.64177 37.434 9.64177 37.0744C9.64177 36.7149 9.74784 36.3553 9.85391 36.2879C9.98119 36.198 10.3206 35.6586 10.5964 35.0518C11.2328 33.7259 11.7632 33.1641 13.036 32.4674C14.4998 31.6808 17.9152 30.3774 20.2063 29.7256C21.3307 29.411 22.349 29.0289 22.4762 28.8716C22.5823 28.7143 23.2612 28.5121 23.9612 28.4446C27.4615 28.0176 32.2347 27.6356 33.9742 27.6356H35.9471L36.2441 28.3997C36.4563 28.9615 36.7533 29.2312 37.3261 29.4335L38.111 29.7032L37.5382 30.1077C36.4351 30.8718 36.0108 32.0629 36.4775 33.0517C36.6472 33.3888 36.9866 33.7259 37.22 33.8158C37.4533 33.8832 37.6443 34.0405 37.6443 34.1529C37.6443 34.2653 36.6472 35.4339 35.438 36.7823C32.0225 40.5803 30.7073 43.1872 30.8982 45.9065C31.0255 47.592 31.3861 48.1089 33.8682 49.8843C36.6048 51.8619 37.4321 52.671 38.4716 54.3565C39.9354 56.7836 40.6567 59.9748 41.187 66.4022L41.3567 68.4248L41.6325 65.0538C41.781 63.1885 41.9931 60.8288 42.0992 59.7726C42.5447 55.4577 42.5871 52.9631 42.2265 51.2776C41.8234 49.1876 41.3143 48.3336 39.8081 47.12C36.7533 44.6704 36.9018 43.2097 40.593 39.0071C46.0874 32.7595 46.7451 31.2089 46.7875 24.377V21.2307L47.2118 22.7589C47.4239 23.5904 47.7846 24.5567 47.9967 24.8938C48.2301 25.2759 48.2513 25.4107 48.0603 25.2984C47.8482 25.141 47.827 25.2309 47.9543 25.6355C48.4422 27.2535 47.9118 30.3774 46.7451 32.8944C46.2784 33.8832 46.2147 34.1529 46.4905 33.8832C47.8058 32.6921 48.1028 33.1416 49.3756 38.1981C50.0545 40.8724 50.7333 43.0074 51.0939 43.6591C51.8152 44.9401 55.0185 49.5472 57.4794 52.8508C59.7493 55.8622 59.8341 56.0869 59.4098 57.1657C59.1128 57.9298 59.1128 58.1096 59.3886 58.7388C59.5583 59.1209 59.728 59.84 59.7705 60.3344C59.8129 61.076 59.728 61.2783 59.3462 61.4581C58.7522 61.7278 58.7098 62.0199 59.2613 61.8626C60.0887 61.6379 60.4281 60.9412 60.513 59.3681C60.5766 58.0871 60.4918 57.6151 59.9402 56.1768C59.1553 54.1318 54.5094 44.3333 53.4487 42.4456C52.5153 40.85 52.388 39.996 52.091 33.5461C51.8576 28.6244 51.7304 28.1974 50.2666 27.276C49.312 26.6917 49.0362 26.3996 49.6514 26.6692C49.906 26.7591 49.8635 26.5344 49.4393 25.6355C48.6755 24.0398 48.2513 21.9948 48.0603 18.7811C47.9755 17.2978 47.9331 16.0168 47.9543 15.9719C48.2937 15.5224 55.952 19.1406 58.5401 20.9835C64.0345 24.8714 69.0622 30.8493 71.9049 36.8497C73.1565 39.4566 74.5354 44.0861 74.6839 46.0638C74.79 47.3673 74.7051 47.8167 73.9414 50.154C72.8595 53.48 71.523 56.2892 69.635 59.2557C68.15 61.6154 64.6709 65.6831 63.3132 66.6494C62.9101 66.9416 61.6161 67.8855 60.4493 68.762C56.9702 71.3239 51.5819 73.6836 47.0845 74.605C44.3479 75.1669 43.8175 75.1669 43.4357 74.65C42.7568 73.7286 42.078 71.9981 41.2506 69.0766C40.0627 64.7617 39.6596 63.638 38.2595 60.6041C36.923 57.7724 36.0532 56.5139 33.2742 53.4126C31.471 51.4125 30.7921 50.3113 30.3254 48.6482L30.0496 47.7493L29.9011 49.4798C29.689 51.9294 30.0921 55.1431 30.9618 57.9298C31.6619 60.1322 34.1439 65.7505 34.7592 66.5146C34.9077 66.6944 35.7774 68.1552 36.6472 69.7508C38.217 72.5375 39.2777 74.9871 39.0232 75.2343C38.8322 75.4366 34.0379 74.65 31.7892 74.0432C27.0797 72.7847 22.8793 70.7846 19.2941 68.0877C16.6636 66.1101 16.303 65.7505 13.4179 62.5143C12.2723 61.2334 11.3389 60.267 11.3389 60.3794C11.3389 60.5816 12.4632 61.9076 14.6907 64.3572C20.4609 70.6497 28.9253 74.9421 37.8776 76.0658L38.8535 76.2007L38.5565 77.594C38.3443 78.4705 38.2807 79.5042 38.3655 80.3807C38.4928 82.0662 38.6625 82.0213 35.3319 81.2347C27.2918 79.302 19.0396 73.2117 14.0331 65.5033C12.2935 62.829 11.1267 60.5816 11.254 60.1546C11.3389 59.885 11.2965 59.7726 11.1692 59.8625C11.0419 59.9299 10.8722 59.885 10.7873 59.7501C10.7025 59.5703 10.7237 59.5478 10.8722 59.6377C11.2752 59.885 11.1692 59.6377 10.3843 58.3343C9.49327 56.8735 7.94465 52.8957 7.30823 50.5585C6.71423 48.2887 6.24753 44.8502 6.24753 42.8726C6.26874 39.4341 7.05366 37.2317 9.85391 32.7595C14.9028 24.759 21.8823 18.7586 29.689 15.7247C31.1528 15.1404 34.9289 14.219 36.5411 14.0392C37.7079 13.9043 37.8564 13.8369 37.8564 13.3875C37.8564 12.893 37.814 12.893 36.4351 13.0728C33.1045 13.4773 28.6283 14.8707 25.5947 16.4438C23.6854 17.4327 19.1244 20.6014 16.8545 22.5117L15.4756 23.6803L16.5363 22.4892C17.1303 21.8375 18.5729 20.4666 19.7609 19.4553C24.8946 15.1179 30.6861 12.3761 36.4775 11.5446C37.8776 11.3424 39.1717 11.0952 39.3414 10.9828C39.999 10.6007 40.0627 10.803 39.405 11.23ZM13.4603 16.4888C13.4603 16.5337 13.2906 16.7135 13.0997 16.8708C12.7602 17.163 12.739 17.1405 13.0148 16.7809C13.2906 16.4214 13.4603 16.309 13.4603 16.4888ZM75.6173 29.6582C75.7446 29.9054 75.7871 30.1976 75.7234 30.3099C75.6598 30.4223 75.7234 30.5571 75.8507 30.6021C75.9992 30.647 75.9992 30.7819 75.7871 30.9392C75.5537 31.1414 75.4901 31.119 75.4688 30.8268C75.4052 29.9504 75.2779 29.5458 75.087 29.3885C74.9597 29.2762 74.9809 29.2087 75.1294 29.2087C75.2779 29.2087 75.4901 29.411 75.6173 29.6582ZM76.084 31.2763C75.7234 31.6583 75.7658 32.0179 76.1477 31.6808C76.4235 31.4336 76.4447 31.4561 76.3386 31.7932C76.2325 32.0629 76.2538 32.1528 76.4235 32.0404C76.6993 31.8606 76.975 32.6921 76.7629 33.0517C76.6568 33.2315 76.6993 33.254 76.8902 33.1416C77.0811 33.0067 77.1023 33.0966 76.9962 33.4787C76.8902 33.8158 76.9326 33.9282 77.0599 33.8383C77.2932 33.6809 77.6539 34.5349 77.4417 34.7597C77.3781 34.8271 77.463 35.1642 77.6327 35.5013C77.8024 35.8384 77.866 36.3328 77.8024 36.625C77.7175 36.9845 77.7387 37.0969 77.9297 36.9845C78.1206 36.8497 78.1418 36.9845 78.057 37.4565C77.9509 37.9509 77.9721 38.0183 78.163 37.7486C78.3539 37.479 78.3752 37.5913 78.2691 38.1981C78.163 38.8049 78.1842 38.9173 78.3752 38.6476C78.5661 38.3779 78.5873 38.4903 78.4812 39.0746C78.3752 39.6139 78.3964 39.7937 78.5873 39.6589C78.757 39.5465 78.7994 39.7263 78.6934 40.378C78.5873 41.0298 78.6085 41.1646 78.7994 40.8949C78.9692 40.6477 79.0116 40.8275 78.9055 41.6815C78.8207 42.4905 78.8419 42.6928 79.0116 42.3557C79.1601 42.0186 79.1813 42.2433 79.1177 43.1423C79.054 43.8165 79.0752 44.1985 79.1601 43.9962C79.2661 43.7715 79.3298 45.4121 79.3298 47.6145C79.3298 49.8393 79.2661 51.5248 79.1601 51.39C79.0752 51.2327 79.054 51.6822 79.1389 52.3564C79.2237 53.2778 79.2025 53.5025 79.0328 53.2553C78.8419 53.0081 78.8207 53.1654 78.9055 53.9295C78.9904 54.6936 78.9692 54.8284 78.7994 54.4913C78.6297 54.1542 78.6085 54.2666 78.7146 54.9857C78.7994 55.615 78.757 55.9521 78.6085 55.9521C78.4812 55.9521 78.4388 56.2443 78.5024 56.6713C78.6085 57.278 78.5661 57.3455 78.3752 57.0758C78.1842 56.8061 78.163 56.851 78.2479 57.3455C78.3327 57.7275 78.2903 57.9747 78.163 57.9747C78.0145 57.9747 77.9721 58.1545 78.057 58.4467C78.1418 58.7388 78.1206 58.8736 78.0145 58.8062C77.8872 58.7163 77.8024 58.9411 77.7812 59.2782C77.7387 60.3569 77.6751 60.649 77.463 60.5142C77.3357 60.4243 77.3145 60.6041 77.3993 60.9861C77.5266 61.5255 77.5054 61.5705 77.2296 61.3008C77.0175 61.076 76.9962 60.8963 77.166 60.5592C77.2932 60.3119 77.3569 60.1097 77.3357 60.1097C77.3145 60.1097 77.3357 59.9524 77.3781 59.7726C77.5478 59.1658 77.9509 56.3342 78.0782 54.8284C78.1418 54.0194 78.2691 52.8508 78.3964 52.2215C78.8631 49.6146 78.7358 43.4794 78.163 42.131C77.9721 41.6815 77.8872 41.1421 77.5478 38.4228C77.4417 37.6138 77.2084 36.4002 77.0175 35.726C76.8478 35.0518 76.6356 34.2653 76.5508 33.9956C76.4871 33.7034 76.3386 33.5461 76.2325 33.6135C76.0204 33.7484 76.2113 33.0742 76.5508 32.5797C76.7205 32.3101 76.7205 32.2876 76.4659 32.5123C76.1689 32.8045 75.6386 32.9393 75.8931 32.6696C75.9568 32.5797 75.9355 32.3325 75.8083 32.0853C75.5961 31.6808 75.8507 31.0066 76.2113 31.0066C76.275 31.0066 76.2325 31.119 76.084 31.2763ZM79.5844 48.3561C79.5419 48.8954 79.4995 48.4685 79.4995 47.4122C79.4995 46.356 79.5419 45.929 79.5844 46.4458C79.6268 46.9852 79.6268 47.8392 79.5844 48.3561ZM6.54452 54.8734C7.18094 58.1994 7.98707 60.6266 9.3872 63.5931C10.6176 66.2 12.8875 69.8631 14.2664 71.4812C14.818 72.1554 15.5393 73.0768 15.8575 73.5263C16.5363 74.4927 20.5033 77.9761 22.7732 79.6166C25.0007 81.2122 29.3072 83.4146 32.0013 84.3585C33.2954 84.808 35.4168 85.3249 36.8169 85.5271C38.3019 85.7519 39.3626 86.0215 39.4262 86.1788C39.4687 86.3362 39.5747 86.9205 39.6596 87.4598L39.8081 88.4711L38.2383 88.2689C35.9259 87.9992 33.8045 87.4598 30.9831 86.4935C27.3767 85.2125 25.7008 84.2686 21.2034 81.0324C20.7367 80.6953 19.4002 79.4818 18.2334 78.3356C16.0696 76.2007 12.7602 71.706 10.8934 68.3799C9.6842 66.2 7.881 62.1548 7.32944 60.4243C6.43845 57.5477 5.61111 52.626 5.50504 49.5472L5.42018 46.6256L5.69596 49.3224C5.86567 50.8057 6.22631 53.3002 6.54452 54.8734ZM5.50504 55.1206C6.50209 60.3344 7.81736 64.1549 9.98119 67.9979C10.66 69.2339 11.3389 70.4475 11.4874 70.7396C11.6359 71.0318 11.9541 71.5262 12.1874 71.8633C12.442 72.2004 13.0784 73.1218 13.6088 73.9308L14.5846 75.3916L13.5664 74.3803C11.7844 72.56 8.83564 67.6383 7.49915 64.1998C6.75666 62.3121 5.54746 57.9972 5.20804 56.0645C4.78376 53.7272 4.52919 50.5135 4.6989 49.682C4.82619 49.0303 4.88983 49.3 5.01711 51.0754C5.10197 52.2889 5.31411 54.1093 5.50504 55.1206ZM8.77199 59.4355C11.6995 67.0989 16.8545 73.5713 23.7915 78.2682C27.4828 80.7628 32.659 82.8303 36.7533 83.3921C39.1505 83.7292 39.1292 83.7068 39.1292 84.336C39.1292 84.9428 39.2565 84.9428 36.2654 84.336C33.2317 83.7292 28.3525 81.864 25.6583 80.2908C22.4126 78.3806 17.894 74.65 15.7726 72.1105C14.1179 70.0879 11.5722 66.5371 11.0843 65.5033C10.9146 65.1213 10.2994 63.8178 9.70541 62.5818C8.6235 60.3344 7.24458 56.1993 7.01123 54.4913C6.92637 53.9969 7.13851 54.4913 7.47794 55.615C7.81736 56.7162 8.39014 58.4467 8.77199 59.4355ZM77.1023 61.975C76.9962 62.0199 76.975 62.2222 77.0387 62.4244C77.1447 62.7166 77.1023 62.7391 76.8902 62.5593C76.7417 62.402 76.6993 62.0873 76.7841 61.7952C76.9114 61.3907 76.975 61.3457 77.1235 61.5929C77.2296 61.7727 77.2084 61.93 77.1023 61.975ZM76.8902 63.1885C76.8902 63.3009 76.7841 63.3234 76.6356 63.2335C76.4659 63.1211 76.4447 63.1885 76.5295 63.4358C76.6993 63.9077 76.4871 64.5369 76.2325 64.3572C76.1265 64.2897 76.0416 64.1324 76.0416 64.0201C76.0416 63.8852 76.1265 63.8403 76.2325 63.9077C76.3386 63.9976 76.4023 63.683 76.381 63.256C76.3174 62.6042 76.3598 62.5143 76.5932 62.7166C76.7629 62.8514 76.8902 63.0762 76.8902 63.1885ZM9.45084 69.6609C11.0419 72.4026 12.4632 74.3129 13.6724 75.3916C14.3937 75.9984 15.709 77.2569 16.6 78.1783C21.0761 82.7629 25.6583 85.7294 31.3861 87.7745C33.6772 88.606 37.3685 89.4375 38.7686 89.4375C39.2565 89.4375 39.7657 89.5274 39.9142 89.6173C40.1475 89.7746 40.7203 91.8871 40.5718 92.0219C40.4021 92.1343 36.3078 91.6624 35.0986 91.3927C32.3832 90.741 29.7526 89.9094 28.2465 89.1678C22.6247 86.4485 17.6607 82.246 13.4179 76.6052C12.1238 74.8972 11.1267 73.4814 11.1267 73.369C11.1267 73.3241 10.66 72.5375 10.1085 71.6161C8.92049 69.6834 6.94759 65.5707 6.75666 64.6044C6.69302 64.2223 7.09609 64.9415 7.69008 66.1775C8.26286 67.4135 9.04778 68.9867 9.45084 69.6609ZM75.8507 65.773C75.5961 66.2225 75.5537 66.0876 75.7446 65.5033C75.8295 65.301 75.9355 65.1887 75.978 65.2561C76.0416 65.301 75.978 65.5483 75.8507 65.773ZM12.9936 77.6839C16.006 81.7066 18.7001 84.336 22.4762 86.9654C27.8646 90.7185 32.5317 92.404 39.596 93.1681C40.7839 93.2804 40.8051 93.3029 40.9536 94.067C41.0173 94.494 41.0597 94.8985 41.0173 94.9435C40.8688 95.0783 36.1381 94.6289 34.8864 94.3592C31.1952 93.5501 26.2948 91.2578 22.752 88.6509C20.6943 87.1452 16.6424 83.1449 14.9241 80.9425C13.9694 79.729 11.2965 75.7287 11.4237 75.7287C11.4662 75.7287 12.1662 76.6052 12.9936 77.6839ZM68.3834 78.4255C66.2407 81.6617 61.5525 86.4485 58.0309 88.988C53.9366 91.9545 46.7663 94.8311 43.4993 94.8311C42.7568 94.8311 42.7568 94.8086 42.8841 94.0895C42.9478 93.7074 43.0326 93.3479 43.0538 93.3254C43.075 93.2804 43.8812 93.1231 44.8782 92.9209C52.7699 91.4601 59.0916 87.9992 64.9679 81.9089C66.4105 80.4257 67.9379 78.7401 68.3409 78.1334C69.4016 76.6052 69.4441 76.8299 68.3834 78.4255Z" fill="white"/>
<path d="M6.26873 31.8381C6.05659 32.4224 6.05659 32.4449 6.35358 32.0404C6.52329 31.7932 6.67179 31.5235 6.67179 31.4111C6.67179 31.074 6.52329 31.2313 6.26873 31.8381Z" fill="white"/>
<path d="M5.12319 32.9169C4.61406 34.0405 4.69891 34.2203 5.20805 33.1865C5.4414 32.6921 5.61111 32.2651 5.56869 32.2202C5.50504 32.1752 5.31412 32.4899 5.12319 32.9169Z" fill="white"/>
<path d="M5.73843 32.9618C5.61114 33.2765 5.63236 33.2989 5.8445 33.0967C5.993 32.9394 6.05664 32.7596 5.993 32.6921C5.92935 32.6247 5.80207 32.7371 5.73843 32.9618Z" fill="white"/>
<path d="M5.31411 33.8607C5.18683 34.1754 5.20804 34.1978 5.42018 33.9956C5.56868 33.8382 5.63232 33.6585 5.56868 33.591C5.50504 33.5236 5.37775 33.636 5.31411 33.8607Z" fill="white"/>
<path d="M3.08668 34.8496C2.9594 35.2541 2.85333 35.6811 2.87454 35.816C2.87454 35.9508 3.02304 35.6586 3.19275 35.1867C3.36247 34.6923 3.44732 34.2653 3.40489 34.2203C3.36247 34.1754 3.21397 34.4451 3.08668 34.8496Z" fill="white"/>
<path d="M5.31409 34.9395C5.12316 35.5238 5.16559 35.6586 5.42016 35.2091C5.54744 34.9844 5.61108 34.7372 5.54744 34.6923C5.50501 34.6248 5.39894 34.7372 5.31409 34.9395Z" fill="white"/>
<path d="M3.72303 36.7598C3.72303 37.007 3.78668 37.0744 3.85032 36.8946C3.91396 36.7373 3.89275 36.5351 3.8291 36.4676C3.76546 36.3778 3.70182 36.5126 3.72303 36.7598Z" fill="white"/>
<path d="M3.91406 37.9509C3.91406 38.0858 3.99892 38.2431 4.1262 38.3105C4.25349 38.3779 4.2747 38.288 4.21106 38.1082C4.06256 37.7037 3.91406 37.6363 3.91406 37.9509Z" fill="white"/>
<path d="M2.66236 38.5577C2.66236 38.8049 2.72601 38.8723 2.78965 38.6925C2.85329 38.5352 2.83208 38.3329 2.76843 38.2655C2.70479 38.1756 2.64115 38.3104 2.66236 38.5577Z" fill="white"/>
<path d="M3.7019 38.6475C3.7019 38.7599 3.80797 38.8723 3.93526 38.8723C4.04133 38.8723 4.08376 38.7599 4.02011 38.6475C3.95647 38.5127 3.8504 38.4228 3.78676 38.4228C3.74433 38.4228 3.7019 38.5127 3.7019 38.6475Z" fill="white"/>
<path d="M2.04712 39.3218C2.04712 39.6364 2.08955 39.7488 2.15319 39.5915C2.19562 39.4566 2.19562 39.187 2.15319 39.0296C2.08955 38.8948 2.04712 39.0072 2.04712 39.3218Z" fill="white"/>
<path d="M2.87452 40.1308C2.87452 40.378 2.93816 40.4454 3.00181 40.2656C3.06545 40.1083 3.04423 39.9061 2.98059 39.8386C2.91695 39.7488 2.85331 39.8836 2.87452 40.1308Z" fill="white"/>
<path d="M1.83496 40.5579C1.83496 40.9174 1.87739 41.0523 1.94103 40.8275C1.98346 40.6253 1.98346 40.3106 1.94103 40.1533C1.87739 40.0185 1.83496 40.1758 1.83496 40.5579Z" fill="white"/>
<path d="M3.29884 40.5803C3.29884 40.8275 3.36248 40.8949 3.42612 40.7151C3.48977 40.5578 3.46855 40.3556 3.40491 40.2881C3.34127 40.1982 3.27762 40.3331 3.29884 40.5803Z" fill="white"/>
<path d="M2.66236 41.2545C2.66236 41.5017 2.72601 41.5691 2.78965 41.3893C2.85329 41.232 2.83208 41.0298 2.76843 40.9623C2.70479 40.8724 2.64115 41.0073 2.66236 41.2545Z" fill="white"/>
<path d="M3.08668 41.704C3.08668 41.9512 3.15032 42.0186 3.21396 41.8388C3.27761 41.6815 3.25639 41.4792 3.19275 41.4118C3.12911 41.3219 3.06547 41.4567 3.08668 41.704Z" fill="white"/>
<path d="M1.6228 42.0185C1.6228 42.3332 1.66523 42.4455 1.72887 42.2882C1.7713 42.1534 1.7713 41.8837 1.72887 41.7264C1.66523 41.5916 1.6228 41.7039 1.6228 42.0185Z" fill="white"/>
<path d="M2.04712 42.8052C2.04712 43.1648 2.08955 43.2996 2.15319 43.0749C2.19562 42.8726 2.19562 42.558 2.15319 42.4007C2.08955 42.2658 2.04712 42.4232 2.04712 42.8052Z" fill="white"/>
<path d="M2.45021 42.6029C2.45021 42.8501 2.51385 42.9175 2.57749 42.7377C2.64113 42.5804 2.61992 42.3782 2.55628 42.3108C2.49263 42.2209 2.42899 42.3557 2.45021 42.6029Z" fill="white"/>
<path d="M1.41077 43.4794C1.41077 43.8389 1.45319 43.9738 1.51684 43.749C1.55926 43.5468 1.55926 43.2322 1.51684 43.0748C1.45319 42.94 1.41077 43.0973 1.41077 43.4794Z" fill="white"/>
<path d="M1.83496 44.266C1.83496 44.5806 1.87739 44.6929 1.94103 44.5356C1.98346 44.4008 1.98346 44.1311 1.94103 43.9738C1.87739 43.839 1.83496 43.9513 1.83496 44.266Z" fill="white"/>
<path d="M1.21973 45.9514C1.21973 46.8054 1.26215 47.1425 1.30458 46.6706C1.34701 46.2211 1.34701 45.502 1.30458 45.0974C1.26215 44.7154 1.21973 45.075 1.21973 45.9514Z" fill="white"/>
<path d="M1.6228 47.1875C1.6228 47.6145 1.66523 47.7943 1.72887 47.5695C1.7713 47.3673 1.7713 47.0077 1.72887 46.783C1.66523 46.5807 1.6228 46.7605 1.6228 47.1875Z" fill="white"/>
<path d="M1.64407 49.0977C1.64407 49.5921 1.6865 49.7719 1.72892 49.4797C1.77135 49.2101 1.77135 48.8055 1.72892 48.5808C1.66528 48.3785 1.62285 48.6033 1.64407 49.0977Z" fill="white"/>
<path d="M1.21973 50.2214C1.21973 51.2102 1.26215 51.5923 1.30458 51.0529C1.34701 50.536 1.34701 49.727 1.30458 49.255C1.26215 48.8056 1.21973 49.2326 1.21973 50.2214Z" fill="white"/>
<path d="M1.6228 50.7832C1.6228 51.0978 1.66523 51.2102 1.72887 51.0529C1.7713 50.918 1.7713 50.6484 1.72887 50.491C1.66523 50.3562 1.6228 50.4686 1.6228 50.7832Z" fill="white"/>
<path d="M1.41077 53.0305C1.41077 53.4575 1.45319 53.6373 1.51684 53.4126C1.55926 53.2103 1.55926 52.8507 1.51684 52.626C1.45319 52.4237 1.41077 52.6035 1.41077 53.0305Z" fill="white"/>
<path d="M1.6228 54.6037C1.6228 55.0307 1.66523 55.2105 1.72887 54.9857C1.7713 54.7835 1.7713 54.4239 1.72887 54.1992C1.66523 53.9969 1.6228 54.1767 1.6228 54.6037Z" fill="white"/>
<path d="M1.83496 55.9521C1.83496 56.2668 1.87739 56.3791 1.94103 56.2218C1.98346 56.087 1.98346 55.8173 1.94103 55.66C1.87739 55.5251 1.83496 55.6375 1.83496 55.9521Z" fill="white"/>
<path d="M2.02589 56.9859C2.02589 57.2331 2.08953 57.3005 2.15317 57.1207C2.21682 56.9634 2.1956 56.7612 2.13196 56.6937C2.06832 56.6039 2.00468 56.7387 2.02589 56.9859Z" fill="white"/>
<path d="M2.49268 59.2108C2.49268 59.3906 2.57753 59.4805 2.6836 59.413C2.78967 59.3456 2.81089 59.1883 2.74724 59.0759C2.55632 58.7838 2.49268 58.8287 2.49268 59.2108Z" fill="white"/>
<path d="M2.64111 60.1097C2.64111 60.2895 2.68354 60.4468 2.72597 60.4468C2.7684 60.4468 2.85325 60.2895 2.93811 60.1097C3.00175 59.9299 2.95932 59.7726 2.85325 59.7726C2.72597 59.7726 2.64111 59.9299 2.64111 60.1097Z" fill="white"/>
<path d="M2.98061 60.8289C2.85333 61.1435 2.87454 61.166 3.08668 60.9637C3.23518 60.8064 3.29883 60.6266 3.23518 60.5592C3.17154 60.4918 3.04426 60.6041 2.98061 60.8289Z" fill="white"/>
<path d="M3.61692 62.4469C3.44721 62.7391 3.91391 64.065 4.14727 63.9077C4.25334 63.8403 4.33819 63.683 4.33819 63.5706C4.33819 63.4358 4.23212 63.4133 4.08363 63.5032C3.91391 63.6156 3.8927 63.5481 3.97756 63.3009C4.06241 63.0762 4.01998 62.9189 3.8927 62.9189C3.76542 62.9189 3.70177 62.7616 3.78663 62.5818C3.91391 62.2222 3.80784 62.1323 3.61692 62.4469Z" fill="white"/>
<path d="M69.3805 28.13C69.4654 28.2873 69.826 28.8716 70.1866 29.4334C70.5473 29.9953 71.0988 30.9391 71.4171 31.5684C72.0535 32.782 72.2444 32.8044 71.6716 31.6133C71.2473 30.7369 69.4442 27.8603 69.3169 27.8603C69.2744 27.8603 69.2957 27.9951 69.3805 28.13Z" fill="white"/>
<path d="M69.1683 29.1413C70.3987 31.1864 71.0139 32.1303 71.0988 32.1303C71.2049 32.1303 71.0988 31.928 69.932 30.0403C69.4229 29.2087 68.9562 28.5345 68.8925 28.5345C68.8289 28.5345 68.9562 28.8042 69.1683 29.1413Z" fill="white"/>
<path d="M72.011 31.119C72.011 31.2314 72.1171 31.5011 72.2231 31.6809C72.3292 31.8607 72.4353 31.9056 72.4353 31.7932C72.4353 31.6584 72.3292 31.4112 72.2231 31.2314C72.1171 31.0516 72.011 30.9842 72.011 31.119Z" fill="white"/>
<path d="M71.5867 33.254C71.82 33.7484 72.0746 34.1529 72.117 34.1529C72.1806 34.1529 72.0321 33.7484 71.7988 33.254C71.5654 32.7595 71.3109 32.355 71.2684 32.355C71.2048 32.355 71.3533 32.7595 71.5867 33.254Z" fill="white"/>
<path d="M75.4689 49.0977C75.4689 49.5921 75.5113 49.7719 75.5538 49.4797C75.5962 49.2101 75.5962 48.8055 75.5538 48.5808C75.4901 48.3785 75.4477 48.6033 75.4689 49.0977Z" fill="white"/>
<path d="M76.1052 49.5472C76.1052 50.0416 76.1477 50.2214 76.1901 49.9292C76.2325 49.6596 76.2325 49.255 76.1901 49.0303C76.1265 48.828 76.084 49.0528 76.1052 49.5472Z" fill="white"/>
<path d="M74.8113 49.4348C74.8113 49.7495 74.8537 49.8618 74.9173 49.7045C74.9598 49.5697 74.9598 49.3 74.9173 49.1427C74.8537 49.0078 74.8113 49.1202 74.8113 49.4348Z" fill="white"/>
</svg>
