<svg width="86" height="96" viewBox="0 0 86 96" fill="none" xmlns="http://www.w3.org/2000/svg">
<path d="M42.4433 70.1731C42.1571 70.4124 41.8361 70.5888 41.4892 70.6895C41.1422 70.7903 40.7779 70.8281 40.4136 70.8155V73.5111H42.8943V82.7188H45.5573V67.7043H43.4668C43.4408 68.2963 43.328 68.7875 43.1459 69.1906C42.9637 69.5937 42.7295 69.9212 42.4433 70.1731Z" fill="white"/>
<path d="M6.39406 47.034C6.39406 47.034 7.47831 43.6079 5.82157 39.9172C4.16483 36.2265 1.57129 35.496 1.57129 35.496C1.57129 35.496 0.374278 39.5519 1.99632 43.1418C3.60969 46.7443 6.39406 47.034 6.39406 47.034Z" fill="white"/>
<path d="M11.0346 47.626C11.0346 47.626 13.6889 46.3916 14.6777 42.3357C15.6579 38.2797 13.8363 34.7528 13.8363 34.7528C13.8363 34.7528 11.4423 36.3525 10.4274 40.5092C9.42125 44.6785 11.0346 47.626 11.0346 47.626Z" fill="white"/>
<path d="M12.0582 52.1858C11.4336 56.4937 13.2986 59.1263 13.2986 59.1263C13.2986 59.1263 15.8227 57.388 16.4386 53.1935C17.0457 48.999 14.9206 45.8374 14.9206 45.8374C14.9206 45.8374 12.6827 47.878 12.0582 52.1858Z" fill="white"/>
<path d="M17.9478 66.6714C17.9478 66.6714 20.3505 64.6056 20.6801 60.3355C21.0184 56.0654 18.6938 53.2187 18.6938 53.2187C18.6938 53.2187 16.6033 55.549 16.2564 59.9324C15.9094 64.3159 17.9478 66.6714 17.9478 66.6714Z" fill="white"/>
<path d="M24.089 73.7756C24.089 73.7756 25.98 70.7777 25.4595 66.558C24.9304 62.3383 22.1461 60.5749 22.1461 60.5749C22.1461 60.5749 20.6108 63.6861 21.1486 68.0192C21.6777 72.3648 24.089 73.7756 24.089 73.7756Z" fill="white"/>
<path d="M8.59722 38.0908C8.59722 38.0908 10.8091 36.1132 10.8351 31.7045C10.8611 27.2959 8.98755 24.6129 8.98755 24.6129C8.98755 24.6129 6.44606 27.0188 6.41136 31.3266C6.38534 35.6093 8.59722 38.0908 8.59722 38.0908Z" fill="white"/>
<path d="M7.82524 55.8891C7.82524 55.8891 8.16352 52.1481 5.83021 49.3391C3.49689 46.5302 0.87733 46.9333 0.87733 46.9333C0.87733 46.9333 0.565065 51.3167 2.82899 54.0627C5.10159 56.796 7.82524 55.8891 7.82524 55.8891Z" fill="white"/>
<path d="M11.2862 64.2907C11.2862 64.2907 11.0433 60.5245 8.33704 58.5469C5.63074 56.5567 3.1413 57.8163 3.1413 57.8163C3.1413 57.8163 3.50561 62.1997 6.14251 64.1395C8.77074 66.0541 11.2862 64.2907 11.2862 64.2907Z" fill="white"/>
<path d="M11.5204 66.5706C8.52784 65.8526 6.41138 68.1451 6.41138 68.1451C6.41138 68.1451 7.66911 72.1507 10.5836 72.8561C13.4981 73.5489 15.5278 70.7525 15.5278 70.7525C15.5278 70.7525 14.5129 67.276 11.5204 66.5706Z" fill="white"/>
<path d="M17.358 73.4103C14.3307 73.2214 12.4138 75.854 12.4138 75.854C12.4138 75.854 13.9924 79.6328 16.9503 79.8091C19.8995 79.9855 21.6863 76.8616 21.6863 76.8616C21.6863 76.8616 20.3852 73.5992 17.358 73.4103Z" fill="white"/>
<path d="M9.29115 40.4714L7.87728 40.0054C7.84258 40.2321 4.58982 62.5021 26.5265 78.9274L27.1857 77.0632C6.31595 61.4188 9.16104 41.3154 9.29115 40.4714Z" fill="white"/>
<path d="M57.4928 85.9183H56.1049V63.3586H57.4928V60.0584H55.81V57.7659C55.81 57.7659 44.6639 54.7555 44.6639 48.0543C44.6639 45.8626 46.043 43.4441 47.8559 40.2951L48.3069 42.1341L51.2821 40.5722L51.1 39.829C55.9748 40.2447 60.0082 38.3679 63.1482 34.2238C70.9549 23.8949 70.0961 3.28767 70.0528 2.41853L69.9574 0.277193H60.8583L61.3354 3.11132C61.5349 4.34574 61.4481 5.35343 61.0318 6.29814C60.0516 8.54025 57.5188 9.73689 56.6167 10.0014H56.608C56.6167 9.14487 56.6167 8.26314 56.5993 7.36881H58.7765V3.72853H43.3627V3.70334H27.949V7.34362H30.1262C30.1088 8.23795 30.1088 9.11968 30.1175 9.97621H30.1088C29.2154 9.71169 26.6739 8.51506 25.6937 6.27295C25.286 5.32824 25.1906 4.32055 25.3901 3.08613L25.8585 0.252001H16.7768L16.6814 2.39334C16.638 3.26248 15.7793 23.8697 23.5859 34.1986C26.7173 38.3427 30.7594 40.2195 35.6342 39.8038L35.452 40.547L38.4272 42.1089L38.8783 40.2699C40.6911 43.4189 42.0703 45.8374 42.0703 48.0291C42.0703 54.7303 30.9242 57.7407 30.9242 57.7407V60.0458H29.2414V63.346H30.6293V85.9057H29.2414V89.6467H28.2526V95.2268H43.3627V95.252H58.4816V89.6593H57.4928V85.9183ZM56.3131 15.7704H58.5076V13.9818C59.9996 13.2764 62.3762 11.7397 63.6947 8.75439C64.2151 7.55776 64.5187 6.24776 64.5795 4.84959H66.9301C66.9214 10.1148 66.3576 23.7564 61.0144 30.8102C58.4122 34.2364 54.9426 35.6723 50.675 35.1433C53.069 30.4071 55.463 24.2602 56.3131 15.7704ZM25.7111 30.7976C20.3679 23.7312 19.804 10.1022 19.7954 4.8244H22.146C22.2068 6.20997 22.5103 7.53256 23.0308 8.7292C24.3406 11.7019 26.7259 13.2386 28.2092 13.944V15.7452H30.4124C31.2625 24.235 33.6565 30.3819 36.0505 35.1181C31.7829 35.6597 28.3133 34.2238 25.7111 30.7976ZM53.7282 85.9183H43.3627V85.8931H32.9886V64.2025H43.3541V64.2277H53.7282V85.9183Z" fill="white"/>
<path d="M80.3315 47.0592C80.3315 47.0592 83.1159 46.7695 84.7293 43.1796C86.3426 39.5897 85.1543 35.5338 85.1543 35.5338C85.1543 35.5338 82.5608 36.2643 80.904 39.955C79.2473 43.6331 80.3315 47.0592 80.3315 47.0592Z" fill="white"/>
<path d="M75.691 47.6512C75.691 47.6512 77.3043 44.6911 76.2981 40.547C75.2919 36.3903 72.8892 34.7906 72.8892 34.7906C72.8892 34.7906 71.0677 38.3175 72.0565 42.3734C73.0367 46.4168 75.691 47.6512 75.691 47.6512Z" fill="white"/>
<path d="M73.427 59.1515C73.427 59.1515 75.2919 56.5189 74.6674 52.211C74.0429 47.9031 71.8136 45.8626 71.8136 45.8626C71.8136 45.8626 69.6885 49.0116 70.2957 53.2187C70.8942 57.4132 73.427 59.1515 73.427 59.1515Z" fill="white"/>
<path d="M68.0317 53.2439C68.0317 53.2439 65.7071 56.0906 66.0454 60.3607C66.3837 64.6182 68.7777 66.6966 68.7777 66.6966C68.7777 66.6966 70.8074 64.3411 70.4691 59.9702C70.1135 55.5742 68.0317 53.2439 68.0317 53.2439Z" fill="white"/>
<path d="M61.2746 66.5832C60.7455 70.8155 62.6365 73.8008 62.6365 73.8008C62.6365 73.8008 65.0479 72.39 65.5856 68.057C66.1234 63.7239 64.5881 60.6126 64.5881 60.6126C64.5881 60.6126 61.8038 62.3635 61.2746 66.5832Z" fill="white"/>
<path d="M78.1283 38.116C78.1283 38.116 80.3402 35.6345 80.3055 31.3392C80.2795 27.044 77.738 24.6255 77.738 24.6255C77.738 24.6255 75.8644 27.3211 75.8904 31.7171C75.9164 36.1384 78.1283 38.116 78.1283 38.116Z" fill="white"/>
<path d="M85.8482 46.9584C85.8482 46.9584 83.22 46.5554 80.8867 49.3643C78.5534 52.1858 78.8917 55.9143 78.8917 55.9143C78.8917 55.9143 81.6153 56.8338 83.8879 54.1004C86.1605 51.3419 85.8482 46.9584 85.8482 46.9584Z" fill="white"/>
<path d="M78.3885 58.5595C75.6822 60.5497 75.4393 64.3033 75.4393 64.3033C75.4393 64.3033 77.9548 66.0794 80.5917 64.127C83.2287 62.1872 83.593 57.8037 83.593 57.8037C83.593 57.8037 81.0862 56.5693 78.3885 58.5595Z" fill="white"/>
<path d="M75.2052 66.5958C72.2126 67.3138 71.1978 70.7777 71.1978 70.7777C71.1978 70.7777 73.2275 73.5741 76.142 72.8813C79.0564 72.1885 80.3142 68.1703 80.3142 68.1703C80.3142 68.1703 78.1977 65.8778 75.2052 66.5958Z" fill="white"/>
<path d="M65.0479 76.8869C65.0479 76.8869 66.826 80.0107 69.7752 79.8344C72.7243 79.658 74.3117 75.8792 74.3117 75.8792C74.3117 75.8792 72.3947 73.234 69.3675 73.4229C66.3403 73.6244 65.0479 76.8869 65.0479 76.8869Z" fill="white"/>
<path d="M78.8396 40.018L77.4257 40.484C77.5558 41.328 80.4096 61.4314 59.5225 77.0632L60.1817 78.9274C82.1271 62.5147 78.8743 40.2447 78.8396 40.018Z" fill="white"/>
</svg>
