<!-- Generator: Adobe Illustrator 19.2.1, SVG Export Plug-In . SVG Version: 6.00 Build 0)  -->
<svg version="1.1" id="Layer_1" xmlns="http://www.w3.org/2000/svg" xmlns:xlink="http://www.w3.org/1999/xlink" x="0px" y="0px" width="864px" height="864px" viewBox="0 0 864 864" enable-background="new 0 0 864 864" xml:space="preserve">

<polygon points="537.0745,383.1987 516.2739,383.1987 539.0525,410.1577 224.9595,410.1577 202.6017,383.1987 156.1442,383.1987   178.9226,410.1577 169.6934,410.1577 147.3357,383.1987 109.4305,383.1987 132.209,410.1577 121.1252,410.1577 98.7675,383.1987   52.3099,383.1987 80.5916,416.6709 52.3099,450.1431 98.7675,450.1431 121.1252,423.1841 132.209,423.1841 109.4305,450.1431   147.3357,450.1431 169.6934,423.1841 178.9226,423.1841 156.1442,450.1431 202.6017,450.1431 224.9595,423.1841 539.0525,423.1841   516.2739,450.1431 537.0745,450.1431 607.5956,416.6709 "/>
<path d="M803.1215,408.8276c-6.2742,13.0588-16.4008,29.0437-26.4401,38.6016l19.8245-5.1516  c-6.7185,22.5681-20.9205,41.9153-40.2839,54.467c-3.4459-8.0391-8.0024-15.7109-13.7449-22.814  c-19.1133-23.6426-55.8264-43.2642-85.8455-28.3369c-14.0867,7.0049-20.4532,22.3755-16.0139,37.4185  c5.0746,17.1963,21.0474,27.3657,37.5435,31.8252c25.0571,6.7734,52.4794,2.9304,75.2103-9.4023  c2.8182,7.9568,4.5686,16.3013,5.0912,24.7747c1.9496,31.6101-11.0581,66.6208-33.6694,88.978  c-17.7686,17.5688-42.0833,26.7673-66.4561,30.3809c-24.0444,3.5647-49.1228,2.1365-72.6833-3.7742  c-9.9756-2.5024-19.8252-5.824-28.964-10.582c-1.809-0.9419-3.6766-1.9648-5.5565-3.0657  c5.8372-6.7258,10.4434-14.5334,12.5228-23.0891c2.7894-11.4783,2.0468-26.7966-8.5342-34.2559  c-12.0699-8.509-26.4623-0.6335-32.277,11.3103c-7.2994,14.9941-0.2502,30.5554,11.3223,41.0674  c2.4734,2.2466,5.0808,4.3276,7.7952,6.2639c-13.1045,12.4004-31.531,19.8555-48.8323,21.4353  c-12.9277,1.1804-26.2119-0.501-38.1611-5.6987c-1.4712-0.6401-2.9495-1.355-4.4219-2.1191  c11.449-10.6863,20.7114-27.2661,15.4377-42.9924c-4.5632-13.6082-19.8118-24.4199-33.9741-17.532  c-14.106,6.8606-17.4067,25.012-11.688,38.4084c4.0171,9.4097,11.337,17.0903,19.8966,22.8936  c-20.3428,14.6104-48.9535,17.0125-71.8785,7.2051c-13.1384-5.6206-23.4336-15.21-30.4241-26.8782  c10.051-9.7056,18.3894-21.1392,24.8665-33.5129c3.9458-7.5378,7.2544-15.4204,10.0304-23.46  c2.6949-7.8052,5.642-16.2427,4.6656-24.6255c-1.9067-16.374-18.5872-19.064-30.8604-11.6777  c-13.507,8.1282-20.9169,24.3101-23.7659,39.2908c-3.4009,17.8813-0.6702,36.8252,7.531,52.8408  c-1.4576,1.3064-2.9417,2.583-4.4653,3.812c-14.7788,11.9197-29.8706,18.7251-48.4952,20.8506  c-18.9918,2.1675-38.3446,1.6702-57.3358-0.2173c-41.3177-4.1062-86.8708-15.3264-119.558-42.5305  c-0.5214-8.5601,0.2123-17.293,3.1725-25.312l-3.4404-4.2351c-2.7063,8.2915-4.1404,17.1008-3.932,25.8862  c-0.5499-0.4993-1.1068-0.9897-1.6483-1.4988c-0.7124-0.6697-1.405-1.3567-2.0974-2.0437  c-0.8737-9.4548-0.342-19.2537,2.9534-28.1597l-3.4434-4.2388c-2.9036,8.907-4.3263,18.4041-3.8416,27.8276  c-1.2859-1.4399-2.5376-2.9075-3.7378-4.416c-1.0151-9.783-0.5652-19.9851,2.8521-29.2312l-3.4463-4.2424  c-2.8577,8.7776-4.2827,18.1248-3.8618,27.4099c-1.384-2.0415-2.6898-4.1411-3.9207-6.2947  c-0.7178-9.0728-0.0918-18.4075,3.0608-26.9275l-3.4462-4.2427c-3.048,9.3628-4.4801,19.3696-3.7606,29.2646  c-0.2649,0.1233-0.5195,0.271-0.7457,0.457c-9.4281-2.7368-19.2535-3.2424-29.2277-2.2036l3.3901,4.1733  c8.4348-0.9973,17.0756-0.1577,25.3035,2.0459c0.8861,1.5713,1.8142,3.106,2.7717,4.6147  c-7.5889-1.4495-15.395-1.5984-23.2949-0.7759l3.3875,4.1699c7.7285-0.9109,15.6324-0.2942,23.2288,1.5066  c1.2146,1.6941,2.4747,3.3469,3.7786,4.9587c-7.2517-1.2646-14.6956-1.3608-22.2239-0.5767l3.3873,4.1697  c7.713-0.9089,15.6006-0.2957,23.183,1.4968c1.6436,1.7979,3.3608,3.5229,5.1133,5.2122  c-7.6589-1.4902-15.5381-1.6526-23.5187-0.8276l3.3873,4.1697c8.8369-1.0415,17.9044-0.0737,26.4785,2.3706  c29.6008,24.8113,71.0852,36.6968,107.9603,42.0659c23.4611,3.4163,47.5571,4.7983,71.1893,2.3579  c8.0334-0.8296,16.2274-1.9719,23.9075-4.5667c12.1672-4.1108,23.5597-12.0725,33.2394-20.3518  c0.2341-0.2004,0.4537-0.4167,0.6862-0.6189c5.9534,9.6587,14.0503,17.9753,24.1531,23.9287  c26.8989,15.8506,63.3296,13.9341,88.1343-5.0715c3.2915,1.8381,6.6882,3.4297,10.099,4.7449  c27.276,10.5168,60.1871,5.0676,83.3116-12.5347c2.6843-2.0432,5.2993-4.2893,7.7754-6.7083  c18.6635,11.6104,41.5732,17.0374,62.8934,19.4478c28.6451,3.2383,58.9023,0.7476,85.6185-10.6006  c30.1824-12.8203,50.5948-37.4558,61.7543-68.0166c8.9746-24.5771,9.8497-51.1802,1.3545-75.0376  c7.5358-4.6675,14.4619-10.3062,20.4813-16.8508c11.2671-12.2498,19.2444-27.1072,23.7104-43.0769l19.3223,9.0952  C813.8804,440.4014,806.8802,422.821,803.1215,408.8276z M733.5891,507.439c-15.8467,5.042-33.0173,6.2104-49.3188,2.7271  c-16.0034-3.4199-32.8748-11.9446-37.8867-28.7434c-5.0054-16.7769,6.062-30.1223,22.0908-33.6599  c14.3781-3.1736,29.5298,0.6609,42.3015,7.4617c18.2075,9.6956,32.3479,25.8062,40.3936,44.573  C745.6606,502.8943,739.7861,505.4673,733.5891,507.439z M327.4661,585.4009c0.7373-13.96,5.4458-29.8752,15.5026-40.0566  c4.9252-4.9863,13.1068-10.4346,20.5138-8.4792c9.5786,2.5286,8.8359,14.2825,6.949,21.7927  c-5.9635,23.7344-18.0688,46.6323-35.4841,64.0259C329.4086,611.303,326.7808,598.3779,327.4661,585.4009z M445.1121,643.9331  c-9.9817-6.3696-18.7229-15.5959-21.144-27.0647c-3.3069-15.6667,11.5156-34.2334,27.438-23.0793  c16.1947,11.3445,9.9075,32.6924-1.1868,45.0964C448.6125,640.6816,446.8999,642.356,445.1121,643.9331z M546.1802,629.0537  c-9.9331-6.6318-19.0654-15.6313-20.4199-27.45c-1.4834-12.947,12.2032-31.6765,26.0094-21.8386  c10.1813,7.2549,8.2343,24.1677,4.0131,34.1401C553.4243,619.4766,550.137,624.533,546.1802,629.0537z"/>
<path d="M776.1938,754.3591v-1.1233c18.3218-12.7046,33.7863-29.375,45.7876-47.9692h-12.1743  c-10.9358,18.459-27.4409,33.2888-45.3164,45.1506h-13.303c16.6278-12.3132,30.7676-27.8909,41.9128-45.1506h-12.1799  c-10.936,18.459-27.4412,33.2888-45.3225,45.1506h-13.7836c12.5687-9.5139,23.2782-21.4333,31.7679-34.5876h-9.5243  c-8.3263,14.0542-20.7736,25.4333-34.3245,34.5876h-10.522c12.5736-9.5139,23.2814-21.4333,31.7755-34.5876h-9.5294  c-8.3264,14.0542-20.7731,25.4333-34.328,34.5876H215.4314c-1.4429-4.658-5.7843-8.0417-10.9165-8.0417  c-5.1321,0-9.4736,3.3838-10.9165,8.0417h-7.6426c-1.5432-6.8533-7.6558-11.9768-14.9753-11.9768  c-7.3195,0-13.432,5.1235-14.9753,11.9768h-7.6426c-1.4426-4.658-5.7842-8.0417-10.9164-8.0417  c-5.1324,0-9.4736,3.3838-10.9165,8.0417h-11.3815c1.9966-1.0364,3.6621-2.0828,4.7549-2.8411  c6.105-4.1558,11.8105-13.7339-1.3217-22.6733c-17.6254-11.9885-34.4738-0.2104-49.9072,13.0059  c-15.6853,13.2161-26.6556,15.8984-26.6556,15.8984s11.2495,2.6655,26.6172,15.917c15.5925,13.207,32.4817,24.9758,50.1455,12.9519  c13.1073-8.9319,7.3608-18.5083,1.2833-22.6379c-1.2209-0.8311-2.7799-1.8528-4.5593-2.8508h11.0244  c1.4429,4.658,5.7841,8.0417,10.9165,8.0417c5.1322,0,9.4738-3.3838,10.9164-8.0417h7.6426  c1.5433,6.8533,7.6559,11.9768,14.9753,11.9768c7.3196,0,13.4321-5.1235,14.9753-11.9768h7.6426  c1.4429,4.658,5.7844,8.0417,10.9165,8.0417c5.1322,0,9.4736-3.3838,10.9165-8.0417H687.196  c13.5364,9.1245,25.5342,20.8245,34.2618,34.5876h9.371c-8.7473-13.3987-19.097-25.2097-31.5634-34.5876h10.5376  c13.5365,9.1245,25.5272,20.8245,34.2551,34.5876h9.3707c-8.7477-13.3987-19.0991-25.2097-31.5607-34.5876h13.7977  c17.8942,11.7976,33.7881,27.0696,45.2546,45.1506h11.9774c-11.4822-17.5874-25.1404-33.0151-41.6552-45.1506h13.318  c17.8953,11.7976,33.7802,27.0696,45.2462,45.1506h11.9775C809.3976,783.364,794.498,766.8762,776.1938,754.3591z"/>
<path d="M571.0875,113.6938c18.248-7.1367,28.3218-23.499,30.8387-42.5884h-70.9104c-1.0516,10.6978-6.7161,23.499-14.6869,30.2078  c-0.7816,0.6848-1.5831,1.3096-2.3987,1.8904c-3.3488-4.8752-8.9611-8.0742-15.3225-8.0742  c-8.1456,0-15.0621,5.2446-17.5693,12.5396c-2.3732-5.7371-8.0226-9.7747-14.6171-9.7747c-6.825,0-12.64,4.3235-14.856,10.3806  c-2.0386-4.3105-6.425-7.2935-11.5099-7.2935c-5.725,0-10.566,3.7805-12.1654,8.981H126.2115  c0.0636-14.8184,2.7892-30.5837,9.8715-47.8997l-89.4424,51.6506l89.4424,51.6404c-4.6692-15.4719-8.7714-31.1455-9.6849-47.9539  h301.4766c1.5824,5.228,6.4363,9.0352,12.1809,9.0352c5.0848,0,9.4713-2.9829,11.5099-7.2937  c2.2159,6.0576,8.031,10.3811,14.856,10.3811c6.5945,0,12.2439-4.0378,14.6171-9.7749c2.5072,7.2949,9.4237,12.5396,17.5693,12.5396  c6.3727,0,11.994-3.21,15.3407-8.0996c8.766,6.6992,15.8386,21.2061,17.0674,32.0874h70.9104  C600.2434,137.8164,589.1254,120.1924,571.0875,113.6938z"/>
<path d="M748.0696,136.4834c-13.4382-1.5959-34.2885-6.5552-45.7214,3.3179c-8.2869,7.1563-8.0923,19.5801-3.3228,28.6592  c6.187,11.7771,18.9124,16.177,31.283,18.7642c-96.5657,39.3545-213.3516,60.4976-295.5864,71.377  c-77.1515,10.207-138.6328,13.4709-157.1545,14.2803c-2.605,0.0322-5.2095,0.052-7.8135,0.0518  c-0.1135-0.1289-0.2217-0.261-0.3381-0.3884c4.3429-9.6409,3.4224-22.938-1.7131-31.4846  c-5.082-8.4575-18.5275-17.6929-28.1631-10.3188c-9.0354,6.9141-4.3651,21.9956,0.3423,30.0027  c2.4905,4.2361,6.0448,8.5103,10.2578,11.8259c-11.5474-0.4521-23.1204-1.3528-34.7681-2.8997  c-3.2234-0.4282-6.4293-0.9377-9.6379-1.4351c1.2905-12.001,1.7307-26.9978-2.8226-37.9907  c-3.4032-8.2163-13.2736-15.3435-22.0363-10.2056c-9.6185,5.6401-8.0858,18.5334-4.4172,27.3188  c2.7893,6.6792,7.4297,13.4929,13.4261,18.1536c-9.9236-1.8926-19.7806-4.0754-29.5609-6.5698  c-1.3127-14.3174-8.1372-65.0737-30.6997-50.6846c-9.2942,5.9277-7.9927,17.8845-3.7717,26.4365  c3.572,7.2378,8.9733,13.8167,15.4238,18.97c-10.3938-3.0637-20.7068-6.4272-30.9373-10.0698  c-0.0055-0.5747-0.2156-1.1826-0.7493-1.7781c-9.3091-10.3906-23.0781-20.5962-37.3428-22.3103  c-8.9222-1.0725-18.9436,2.9448-19.4485,13.113c-1.1853,23.8611,37.1527,25.2202,52.1205,14.5969  c13.5381,5.8787,27.4086,10.9324,41.5187,15.1963c-16.95,5.656-43.8206,25.7993-30.168,41.156  c6.7424,7.584,17.6509,4.2727,23.822-2.0974c9.1821-9.478,13.8468-23.5095,15.6404-36.376  c12.478,3.439,25.1228,6.2788,37.8799,8.5122c-8.1572,6.1946-15.153,14.4165-18.4446,24.1108  c-2.9269,8.6199-1.0989,19.8115,8.615,23.1394c20.4824,7.0171,25.8228-28.583,24.2644-44.9834  c2.144,0.2986,4.29,0.5859,6.4382,0.8521c14.4148,1.7847,29.2361,3.072,44.1318,3.5603  c-7.4811,8.4958-12.4282,19.2312-14.4735,30.3474c-1.6642,9.0432-0.3717,22.4705,12.0919,21.4009  c11.8987-1.0205,16.7469-16.4678,19.1172-25.9063c2.1232-8.4553,2.3612-17.5698-0.7955-25.3811  c13.2721-0.5227,78.1885-3.5039,161.0917-14.468c81.4226-10.7676,196.5632-31.5566,293.0071-70.0496  c-7.1089,9.251-13.0315,19.3035-10.4507,31.1934c2.603,11.9927,13.9285,20.2695,26.0852,16.25  c15.4561-5.1099,26.7064-24.1575,35.5493-36.5857c11.7178-16.4702,20.3352-34.7761,30.3132-52.345  C819.4514,138.3669,766.0183,138.615,748.0696,136.4834z"/>
</svg>