<svg width="32" height="58" viewBox="0 0 32 58" fill="none" xmlns="http://www.w3.org/2000/svg">
<path fill-rule="evenodd" clip-rule="evenodd" d="M14.7185 39.3405L17.8579 40.226C17.6839 40.0943 17.2668 39.8016 17.0361 39.6572C16.6164 39.3941 16.4862 39.4814 16.1456 39.2098C15.3584 38.5821 14.4456 38.7256 13.9403 38.1817L14.5387 38.1821C15.5292 38.7415 17.0229 38.3233 18.9128 40.637C19.1986 40.9869 19.0373 40.9113 19.2426 41.2433C18.0577 40.4383 15.5436 40.3593 14.2447 39.9344C13.5098 39.694 13.4241 39.5182 12.923 39.1686C13.122 39.1872 14.4469 39.5826 14.6373 39.6434C15.3911 39.8844 15.738 39.973 16.6399 40.0128L16.102 39.9054C16.0678 39.8975 15.9746 39.8671 15.9418 39.8601C15.4254 39.7503 15.3581 39.9779 14.6178 39.6292L14.0118 39.2117L14.7185 39.3405Z" fill="white"/>
<path fill-rule="evenodd" clip-rule="evenodd" d="M23.5448 26.4251C22.7533 26.5563 21.1305 26.4806 20.6948 26.3288C20.8509 25.8872 20.7078 26.3807 20.8811 26.07C21.0492 25.769 20.8944 25.7461 21.0847 25.4997C21.0961 25.4849 21.1312 25.4561 21.1417 25.4443C21.153 25.4315 21.2002 25.4256 21.2085 25.3893C21.2175 25.3515 21.2581 25.3539 21.2816 25.3349L20.9858 25.1223C20.7894 24.8849 20.7797 24.2251 20.8327 24.1115L20.826 23.0597C20.7037 23.1811 20.7367 23.0265 20.7672 23.3052C20.796 23.57 20.8645 23.6118 20.8681 23.6213C21.1715 24.3926 21.1122 24.03 21.1411 24.8116C21.1529 25.1281 21.1109 24.9457 21.1864 25.1048C21.3786 25.5097 21.1853 25.2669 21.5599 25.535C21.6058 25.205 21.432 25.3543 21.9109 25.3061C21.5795 24.9295 21.7103 24.8916 21.2113 24.8209L21.3407 24.6087C21.6682 24.0347 21.4421 24.3718 21.3732 24.0675C21.9926 24.3164 22.0753 24.3947 22.3545 25.0015C22.1414 24.935 22.2249 24.9632 22.064 24.8619C22.0379 24.8454 21.961 24.7887 21.9361 24.7704L21.8122 24.6708C21.7992 24.6604 21.7722 24.6357 21.7513 24.6191C21.8039 25.2 21.8392 24.7858 22.2903 25.5773C22.3212 25.5743 22.3634 25.5267 22.3792 25.5518C22.6302 25.9489 22.2646 25.2628 23.0437 25.5716C23.6384 25.8074 22.6807 25.6964 23.1835 25.6465C23.3136 23.6694 23.603 21.9198 23.7338 19.9509L24.0629 14.3778C24.0718 14.3447 24.0801 14.3191 24.0908 14.2889L24.2172 14.0594C24.3532 14.6971 24.1157 16.3682 24.127 16.9162C24.4822 16.6389 24.4274 16.7183 24.4551 16.0789C24.5232 14.4978 24.2057 13.7994 24.6165 13.3296C24.6885 13.3576 25.0297 13.2953 24.9912 14.0356L24.5656 18.1428C24.5723 18.3186 24.6587 18.6679 24.598 18.9934C24.4389 19.8473 24.488 20.5689 24.3907 21.4363L24.1097 23.8171C23.8184 25.4953 23.9586 25.2068 23.8529 26.316L23.5448 26.4251Z" fill="white"/>
<path fill-rule="evenodd" clip-rule="evenodd" d="M31.7042 12.7404C31.7488 12.9086 32.4288 13.4379 31.3932 14.1454C30.506 14.0088 30.7171 13.8842 30.6531 13.1989L31.1154 13.0432C30.4342 12.9679 30.0709 13.1707 29.9152 13.6584C29.7095 14.3032 30.1422 14.5994 30.3832 14.9542C29.2463 18.0198 27.3283 22.017 26.5543 25.2191C26.5543 25.2191 25.54 25.4923 26.0436 26.0126C26.5013 25.859 26.2196 25.7365 26.7291 25.4456C27.1239 25.8051 27.0582 25.9667 26.8454 26.4181C26.1074 26.5603 25.4712 26.3306 25.5329 25.713C25.6238 25.4826 25.4893 25.3911 25.3776 25.2555C25.3646 25.2842 25.3466 25.2981 25.34 25.3426L25.1763 25.6178C25.3068 25.2338 25.4439 24.89 25.559 24.5183C25.7072 24.0391 25.6819 23.7567 26.0278 23.4305L25.656 24.8878L26.4506 24.5005L29.1876 16.8465C29.3655 16.3713 29.5296 16.0149 29.686 15.5489C29.8868 14.9504 29.903 14.7454 29.4445 14.3139L27.1081 20.7988C27.0966 20.771 27.0674 20.7096 27.0514 20.7262L26.8559 20.5665C26.8187 20.5394 26.7595 20.5145 26.7183 20.4806C27.1138 20.8914 26.293 20.3116 26.8344 20.5808C26.9585 20.2237 27.0724 19.9118 27.1891 19.5237C27.34 19.0222 27.5005 18.8951 27.4444 18.2019L26.5963 20.1741C26.7392 20.0705 26.7241 20.2412 26.6451 19.9073C26.6373 19.2616 27.4438 17.1449 27.6732 16.4585C27.8755 15.8531 28.7375 13.3933 28.7023 12.9727L26.0056 12.9186C25.1422 12.7986 25.6258 13.3206 25.0492 12.9901C25.2074 12.7208 25.0425 12.8077 25.3781 12.7586C25.6088 12.7248 25.8483 12.8152 26.0752 12.8341C26.5313 12.8719 26.9546 12.7534 27.4544 12.744C27.2594 12.536 27.405 12.4367 26.5218 12.4402C26.1697 12.4412 26.1103 12.4297 25.8696 12.3598C26.0611 12.3191 26.0495 12.3165 26.1417 12.2545C25.9671 12.1535 25.2943 12.0555 25.2489 11.9344C25.237 11.9027 25.2051 11.9005 25.1808 11.8867L25.3865 11.8047C25.9371 11.6354 26.1182 11.7133 26.4871 11.8609C27.153 12.1272 27.2738 11.7899 27.7716 12.0178C27.3287 12.1693 26.7013 12.1055 26.3512 12.3565L31.4615 12.1608C31.9561 12.8266 30.7793 11.9287 31.7042 12.7404Z" fill="white"/>
<path fill-rule="evenodd" clip-rule="evenodd" d="M7.15555 41.386C8.2114 40.3176 7.04935 39.6899 5.95196 39.6121C3.55013 39.442 2.6779 44.5955 7.65377 43.7625C8.40081 43.6374 8.34632 43.398 8.76546 43.0231C9.54578 42.3248 10.0884 41.7819 10.0756 40.4551C10.0547 38.2993 9.09961 37.6535 7.73319 36.4744C7.26624 36.0714 7.98703 36.6329 7.61066 36.3721C7.59123 36.3586 7.56387 36.3408 7.54343 36.3287L6.88652 36.0245C6.5899 35.7826 6.83381 35.9324 6.62753 35.7205C6.36921 35.4552 6.35637 35.6104 6.07795 35.2921C5.1999 34.2885 5.83292 35.1274 5.33594 34.6129C5.07851 34.3466 5.28612 34.3756 5.03137 34.0832C3.57404 34.9308 3.65054 37.9625 3.4991 39.7063C4.48458 39.4971 4.02132 39.2112 4.78567 38.9087C5.6722 38.5577 6.94694 38.8106 7.71308 39.5527C8.05918 39.8879 8.26422 40.3155 8.2774 40.8208C8.31571 42.2946 6.242 42.0747 5.85714 41.588C5.42996 41.0479 5.98088 40.5467 6.37523 40.4811C7.20257 40.3437 6.99685 41.1404 7.15555 41.386ZM8.06711 34.6696C8.1664 34.1507 8.09269 34.4898 8.50245 34.2132C8.94694 33.9128 8.42952 34.3004 8.76188 33.8356C7.12965 33.7796 7.2993 34.6188 7.26278 34.7115C7.47665 34.5776 7.20817 34.6333 7.55361 34.618C7.56835 34.6173 8.02032 34.6657 8.06711 34.6696ZM6.88184 34.3644C7.22638 34.1382 7.33951 34.038 7.32812 33.6367L8.14329 33.4904C7.98727 32.7699 5.84765 33.9595 6.49641 34.4701C6.741 34.6627 6.52211 34.6002 6.88184 34.3644ZM6.26992 32.9997C6.14919 33.4029 5.94147 33.2873 5.91802 33.8719C6.58219 33.7771 6.27651 33.7327 6.73351 33.3112L6.38261 33.0487C6.36251 32.9999 6.30733 33.0165 6.26992 32.9997ZM14.4987 36.0463C15.2045 35.8259 14.5739 36.0352 15.0796 35.7476C15.0988 35.7366 15.1241 35.7213 15.1428 35.7109C15.162 35.7004 15.1905 35.6866 15.2101 35.6761C16.3614 35.0615 17.2963 33.151 18.5951 33.0636C17.5129 32.9377 16.6354 33.3394 16.1329 34.0371C15.6165 34.754 15.1722 34.7963 14.8128 35.3097L14.4987 36.0463ZM8.77618 29.713C9.16606 30.5407 9.45028 30.6229 9.20682 30.9143C8.41767 29.8585 7.7754 29.1297 8.47799 27.5447C8.71911 27.0004 9.15779 26.7372 9.61736 26.3071C10.2824 25.6849 10.5005 25.9722 11.1263 25.5066C9.94403 24.9483 9.34686 24.8529 8.4055 24.0726C7.35915 23.2055 7.40886 22.4684 7.83426 21.2446L7.47922 21.1576C7.44773 21.1506 7.416 21.146 7.38428 21.1378C7.16963 21.0831 7.19075 21.1102 7.04065 21.0263C6.76312 20.8711 6.73386 20.6947 6.73296 20.3451L6.67945 20.4715C6.50612 20.7601 6.46861 20.6334 6.17723 21.1332C4.36586 24.2388 2.91142 28.1103 5.32196 31.2744C6.30499 32.5648 6.55037 32.3879 7.09649 32.5518C7.47922 32.6667 7.03417 32.4965 7.33214 32.6516L7.68147 32.8629C7.70358 32.8737 7.73352 32.8865 7.75619 32.8966C8.76323 33.3415 8.11713 33.1708 8.59011 33.4668C9.14919 33.8169 9.18828 33.3374 9.16203 34.1664C9.93386 34.1945 9.52533 34.2751 10.0472 34.5162C10.8385 34.8819 12.2354 34.8074 13.0822 34.636C14.6187 34.3252 15.1585 33.9136 15.8984 33.0174C18.397 29.9909 15.613 25.0131 11.5019 26.5009C10.8029 26.7539 9.16885 26.6239 9.07883 28.5268C9.03528 29.4489 9.68069 30.8735 11.4018 30.4892C12.0478 30.3449 12.6502 30.1391 12.8134 29.6352C12.9465 29.2245 12.7525 28.611 11.7774 28.5975L11.4952 29.103C11.6804 29.2223 11.4031 29.108 11.6913 29.1439C12.134 29.1986 11.7294 29.0025 12.1525 29.1935L12.1447 29.7003C10.9575 30.3096 10.2966 28.7905 11.17 28.2334C12.0935 27.6444 13.1718 28.2327 13.5669 28.9285C14.6949 30.9152 11.5085 32.2025 9.99363 31.2042C9.71197 31.0185 9.91588 31.2379 9.67365 30.9082C10.4305 30.9522 10.2716 31.1213 11.1343 31.011C9.46112 30.7534 9.16562 29.8815 8.77618 29.713ZM6.77819 16.1336C6.44192 15.8329 6.71776 16.1125 6.09882 15.9095C7.63702 17.7459 7.01105 16.8856 6.82857 17.9874L7.16327 18.1257L6.78947 18.7933C6.99273 18.8789 6.50625 18.7516 6.93511 18.7451L7.14552 18.7806C7.15557 18.7564 7.20437 18.7908 7.22726 18.8068C6.94114 19.002 6.64373 19.2312 6.75597 19.4817C6.93634 19.2533 7.05361 19.1263 7.2151 18.9134C7.77027 18.1817 8.60464 17.4385 8.61759 17.4205C8.41031 16.8701 8.42583 17.0861 8.0432 16.8298C7.73697 16.6245 7.7592 16.4951 7.4858 16.3271C7.47687 16.3422 7.48357 16.3706 7.48246 16.3788C7.40104 16.8197 7.62776 16.4791 7.3289 16.7664L6.77819 16.1336ZM19.0316 32.9064C19.0638 32.9238 19.1054 32.9405 19.1324 32.9512C19.1588 32.9614 19.199 32.9811 19.2308 32.9928C19.775 33.1929 20.1204 33.2148 20.6075 33.133C20.4408 33.14 20.554 33.2714 20.8456 32.8529L21.8884 30.0283C22.1358 28.8428 21.0933 30.0401 21.5632 28.8106L21.5621 28.8776C21.4893 28.8816 21.3578 28.8747 21.2115 28.5084L22.1713 28.812C22.1706 28.819 22.1511 28.8448 22.148 28.8518C22.1139 28.9305 21.771 28.8567 22.0851 29.0759L22.6061 29.2018L22.419 30.0147C22.2937 30.9334 22.4735 30.3278 22.1216 31.3491C21.7483 32.4322 20.5397 33.8833 19.6881 34.6777L19.354 34.939C18.7958 35.2047 19.6176 34.6765 19.154 34.9857C18.8931 35.1595 19.1384 35.4016 18.7142 35.5711C18.341 35.7203 18.658 35.6233 18.4065 35.5986C18.0035 35.5588 18.2926 35.6192 18.044 35.4657C18.3035 35.1029 18.473 35.2764 18.4864 34.7417L19.4037 34.7189L18.7063 34.3212C19.177 34.3019 19.5956 34.143 19.747 33.7718L19.8147 33.3143C19.0251 33.488 18.9115 33.5059 18.7001 34.0856C18.5258 33.9255 18.3008 34.4207 18.6557 33.7794C18.6737 33.441 18.62 33.8231 18.7809 33.4084C17.8504 33.6686 16.9211 34.3584 16.542 34.972C16.2982 35.3664 16.1252 35.4453 16.0147 35.7991C15.8081 36.4611 15.4354 36.405 15.0585 36.9545C16.8483 36.6282 17.4431 35.1686 18.0069 34.8769C18.146 35.3917 18.0451 35.2435 18.0472 35.774C17.7026 35.8863 17.5339 35.7859 17.4808 35.9912C17.4607 35.9683 17.1109 35.8128 17.5937 35.9515C17.9965 36.0672 17.576 35.8309 17.8272 36.0875L17.1195 36.5463C16.5533 36.7419 16.3061 36.996 15.8223 37.1932C15.3248 37.3962 14.4419 37.4467 14.1177 37.599L15.2312 37.9709C15.3928 38.3974 15.4414 38.0433 15.2379 38.2672C15.007 38.0895 14.8309 37.9989 14.5225 37.9548C13.9567 37.8738 14.1815 37.9123 13.7822 38.0667L13.1838 38.0663C13.6892 38.6101 14.602 38.4667 15.3891 39.0944C15.7297 39.3659 15.8599 39.2787 16.2796 39.5418C16.5104 39.6862 16.9274 39.979 17.1014 40.1107L13.9621 39.2251L13.5634 38.9981C12.5296 38.5452 13.3743 39.1949 11.8784 38.3652C11.8563 38.3529 11.8281 38.3362 11.8054 38.3248L11.5757 38.2301C11.3217 38.1487 11.5735 38.1916 11.2581 38.1682C11.33 38.4154 11.2315 38.3128 11.6103 38.6589C11.925 38.9465 11.7373 39.1754 11.7345 39.1637C11.7301 39.1462 11.7206 39.2286 11.7005 39.2552C11.2942 38.891 11.614 38.9846 11.123 38.8454C11.4541 39.102 11.2336 39.16 11.4692 39.424C12.1928 40.2355 12.3354 40.837 12.3184 41.9566C12.0719 41.776 11.9917 41.8553 11.9773 41.2428C12.3481 41.3584 11.7055 42.0977 11.7601 42.3794C12.2898 42.5885 11.3939 42.6807 11.9439 42.2911C11.9672 42.2748 12.1059 42.195 12.1215 42.1479C12.1408 42.0899 12.1857 42.0852 12.2253 42.0623C12.2475 43.1458 11.8951 43.6503 11.5155 44.4412L10.9186 45.0717C10.9851 44.2715 11.1195 44.9125 11.2378 44.0371L10.6046 44.5272C10.4654 44.7725 10.4635 44.7272 10.4588 45.0759C10.317 44.805 10.4334 44.6843 10.6788 44.1732C10.9118 43.688 10.7362 43.7397 11.0939 43.1836C11.3537 42.7797 11.8499 41.8464 11.5323 41.2172C11.6538 42.0747 11.1635 41.8934 10.9531 42.2647C10.5189 43.0309 10.5378 43.6001 10.327 44.06C10.218 44.2974 10.0816 44.4688 10.0629 44.7724L10.1221 46.1196C10.0106 46.5248 10.2562 46.2863 9.85871 46.533C9.78601 44.7387 9.70069 44.2845 10.4117 42.8246C10.7375 42.1551 11.285 41.1213 11.2555 40.3314C11.2407 39.936 11.1379 39.7313 10.8808 39.506C10.8088 41.3496 11.2389 41.0223 10.267 42.5911C9.61558 43.6427 9.243 43.8195 8.11178 44.4767C7.04633 45.0955 6.5097 45.2223 5.61892 46.064C5.32866 46.3382 4.96302 46.8314 4.83838 47.214C4.76098 47.4515 4.72246 47.7296 4.90796 47.9643C5.03126 48.1203 4.73921 48.1772 5.8606 48.1761C5.84285 48.1529 5.80543 48.0973 5.79482 48.1157L5.37781 47.6962C5.16829 47.2073 5.87346 46.4866 7.17802 47.3967C7.33694 48.9215 5.79025 49.3906 4.65902 48.5042C4.27472 48.2031 4.34476 48.0655 4.08655 47.6378C3.2295 47.8 3.63869 47.5563 3.40986 48.1728C3.22 47.8202 3.43443 47.7844 3.04712 47.634C3.04153 48.5115 3.07503 49.396 3.05605 50.2695C3.03639 51.1407 2.72961 51.6912 2.83582 52.6367C2.90551 53.2571 3.06834 54.4507 2.98146 55.0964C2.9236 55.5268 2.7688 55.8101 2.76512 56.2448C2.76177 56.6462 2.87256 56.9395 2.88887 57.4296C2.83459 56.6969 2.7086 57.3387 2.57246 55.5196C2.50032 54.5542 2.06388 54.7129 2.00323 53.6459L2.20783 54.0576C2.28154 54.2176 2.25138 54.2097 2.37591 54.377L2.30454 49.9701C2.26512 48.291 2.45643 47.3757 2.42315 46.2612C2.41645 46.0375 2.36228 45.8187 2.36931 45.6393C2.3749 45.4859 2.34911 45.5131 2.41824 45.3677C2.57057 45.0478 2.42494 45.2728 2.69845 45.0682C2.75664 45.9905 2.55404 46.0412 3.0814 46.2614L4.03853 46.2397L4.39401 46.7258C4.70404 46.3075 4.8692 45.9048 5.19688 45.5999C5.52947 45.2906 6.04835 45.0319 6.35269 44.7465C6.32387 44.7308 6.27617 44.6866 6.25942 44.7119C6.24256 44.7372 6.18963 44.6859 6.16506 44.6799C5.5105 44.5164 5.41701 44.6508 4.68092 44.2811C4.109 43.9937 3.9398 43.8492 3.58041 43.3747C3.4016 43.0164 3.30398 43.0624 3.11189 42.7632C3.07626 42.7076 3.11189 42.7632 2.96157 42.4445C2.66896 41.4648 2.84273 41.4444 2.8204 40.4811C2.8204 39.9811 2.98559 39.3612 2.8204 36.1581C2.85155 35.6608 2.82006 34.9166 2.8204 34.3696C2.82085 33.8804 2.72302 34.0044 2.56331 33.6826C2.32175 33.1957 2.29795 32.8429 2.64227 32.424C3.16025 31.794 2.7888 32.5584 2.89088 32.1483C2.88418 31.6251 2.91087 30.5199 2.70515 30.0927L2.58911 30.1379C2.44035 30.2028 2.4867 30.5878 2.49876 30.0912C2.50435 29.8395 2.51138 29.6293 2.49954 29.3724C2.52601 29.7152 2.48368 29.7568 2.80968 29.8644L2.64685 20.5194C3.07571 20.821 3.07058 21.1505 3.04054 21.9097C3.00636 22.7722 2.97977 25.6694 3.10541 26.2366C3.59134 25.5067 3.23161 25.6684 3.3013 25.0476C3.31995 24.8819 3.57392 24.1634 3.64729 23.8776C3.64506 23.4819 3.78467 23.2687 3.95487 22.9588C4.09358 22.7065 4.19466 22.4429 4.29394 22.1389C4.50044 21.5062 4.66841 20.9962 4.95007 20.3915C6.13714 17.8426 6.66003 18.4132 6.22871 17.0768C5.9437 16.1941 4.8032 14.8117 4.36005 13.9826C4.2277 13.7349 4.11915 13.2665 3.99674 13.0285C3.88327 12.8083 3.72123 12.5204 3.60754 12.2615C3.48256 11.9764 3.00032 10.8185 2.87379 10.6449C2.72011 10.9304 2.74144 12.8601 2.78746 13.2893L2.50624 13.815C2.49128 13.7968 2.46392 13.8878 2.43254 13.9167C2.42807 13.2841 2.58052 11.6053 1.9647 11.2917C2.12653 10.7811 1.72626 10.1886 1.52233 9.83217C1.6167 9.35661 1.30913 9.6504 1.66975 9.53412L2.2066 10.5477C2.17779 9.67916 1.92964 9.71271 2.12586 8.8685C2.26815 8.25585 2.15579 7.51926 1.85738 7.07774L1.65624 6.754C1.65289 6.74803 1.45945 6.43473 1.45699 6.42935C1.33503 6.15896 1.39244 6.01084 1.19108 5.58077C0.892665 4.94324 0.681362 4.61541 0.834813 4.07961C0.765124 4.22854 1.18504 5.17281 1.29203 5.44787C1.39567 5.71467 1.56388 5.95021 1.66127 6.1975C1.95532 6.94364 1.66349 6.66898 2.09693 6.93857L1.9312 6.26529C1.75329 5.3515 1.62307 5.58774 1.88686 5.52054C1.89468 5.51855 1.94895 5.53189 1.95487 5.51009C1.96157 5.4852 2.0087 5.5092 2.03215 5.49894C1.85558 4.89476 1.70705 4.47085 1.6999 3.89116C1.8471 4.00475 1.98313 3.80147 1.83582 4.09107L1.14819 1.88217L1.59179 2.48169C1.68236 1.66635 1.48681 1.3871 1.41366 0.655187C1.82576 0.740603 1.64864 0.733927 2.01998 0.810981C2.70884 3.28278 2.32622 7.31548 3.80779 10.5964C4.42651 11.9668 5.11224 13.0412 5.97945 14.2497C6.19064 14.5439 6.3348 14.8661 6.52008 15.106C6.79773 15.4656 8.43141 16.7564 8.60273 16.8403C8.61457 16.8463 9.77094 16.971 8.89032 17.8156L7.74904 19.0591C7.56766 19.2768 7.36754 19.5143 7.2151 19.7297C7.87782 19.7585 8.01171 19.9151 8.3845 20.3097C8.65209 20.1761 8.91767 19.9426 9.30242 19.9222C9.52846 19.9103 9.45766 19.9301 9.57291 19.9396L9.77104 19.9618C10.2756 19.9988 11.7921 19.9221 11.8053 21.2533C11.8109 21.8862 11.3766 22.6391 10.729 22.7317C9.82878 22.8607 9.12362 22.1904 9.35726 21.435C9.78835 21.2075 10.4895 21.2037 10.5626 21.7721C10.1692 21.8224 10.0807 21.8033 9.59413 21.545C9.43398 22.4722 10.642 22.3228 11.1384 21.8761C11.2938 21.595 10.9132 19.8085 9.25351 20.9495L8.77819 21.2547C8.27518 21.6116 7.99999 23.0901 9.22145 23.9398C10.7132 24.9776 11.7273 25.2397 13.9131 25.6742C15.8308 26.0555 16.6955 26.8497 17.354 28.4271C17.8951 29.7237 17.7254 29.6058 17.662 30.9423C17.5847 32.5718 17.496 31.8186 16.8443 33.1323C17.2669 33.0718 18.4031 32.4717 19.0327 32.9064H19.0316Z" fill="white"/>
<path fill-rule="evenodd" clip-rule="evenodd" d="M18.3388 26.2204C18.5166 25.7957 16.0744 20.6584 15.5709 19.5037L13.7427 15.4043C13.3619 15.5887 13.6899 15.4534 13.3651 15.7639C13.1747 15.9459 13.3083 15.8944 12.955 15.9919C13.51 16.3777 13.4614 16.5444 13.7819 17.0713C14.4907 18.237 15.1969 19.7663 15.7971 20.9598C16.0805 21.5237 16.1289 21.7099 16.3242 22.3685C16.4705 22.8615 16.682 23.2198 16.9043 23.736C17.4338 24.9655 17.1727 25.402 18.3388 26.2204ZM13.8205 14.0664C13.9358 14.4777 14.0357 14.405 14.2481 14.7633L14.5448 15.4185C15.3211 16.7579 15.342 16.5713 15.8624 18.4263L17.6886 22.9921C18.09 24.01 18.4416 25.2199 19.0116 25.975C19.2073 25.9645 18.9341 26.0443 19.1216 25.8907C19.3275 25.722 19.0908 25.8127 19.3604 25.6964C19.6615 25.961 19.5506 25.9534 19.978 26.0711C19.7417 25.4003 19.5539 26.0791 19.3765 24.9962C19.0589 23.0599 19.0605 22.9081 18.421 20.8411L17.3119 16.9351C17.0991 16.4255 17.1948 16.0259 16.7432 15.7985L17.2676 15.656L16.9424 15.3965C17.4583 15.0799 17.2217 14.3061 16.2857 14.2151C16.5904 14.9606 16.5903 14.221 16.7809 14.8581C16.5055 15.1002 16.168 15.263 15.8441 14.8253C15.5447 14.4205 15.7382 14.2715 15.9632 13.9893C14.5588 14.0399 13.2254 13.7872 11.7188 13.8469C11.9838 13.9917 12.3112 13.861 12.7549 14.0508C13.1876 14.2359 12.6536 14.3545 13.8205 14.0664ZM24.0659 9.40057C24.1087 8.75856 23.7217 8.64706 23.2532 8.36622L23.2987 8.15885C23.3953 7.83252 22.5054 7.36453 21.8459 7.36483L22.5087 8.39718C22.761 8.85333 22.7526 9.06678 23.1138 9.45035C23.2636 9.40197 23.4632 9.51983 23.302 9.21092C23.3009 9.20893 23.2776 9.1933 23.2652 9.19739C23.5566 9.38654 23.7205 9.34144 24.0659 9.40057ZM20.6316 1.81157C20.5545 2.22491 20.5094 2.07847 20.6427 2.43487L20.6638 2.85686C20.961 2.76368 20.7472 2.83049 20.9424 2.66991C21.7488 2.00689 20.366 2.96877 21.1496 2.48285C21.1385 2.5157 21.0664 2.66144 21.0606 2.69171C20.9341 3.34 20.8158 2.41007 21.0685 2.90874L21.3906 3.19295C20.821 3.25159 21.1744 3.0724 20.6826 3.16717C20.6556 3.17215 20.6038 3.24561 20.5831 3.21704C20.561 3.18638 20.5132 3.25547 20.4819 3.27907C20.5078 3.29569 20.5403 3.31879 20.5604 3.32775C20.58 3.33671 20.6151 3.36249 20.6403 3.37205C20.6655 3.382 20.6977 3.39793 20.7269 3.40659C21.0022 3.48852 21.3436 3.42552 21.5826 3.41656L21.0775 4.03975L20.9736 5.14697C21.2373 4.88545 21.733 3.85338 21.99 3.45676C21.7697 3.17165 21.6187 3.19564 21.4438 2.73998C21.3065 2.38209 21.3557 2.32108 21.1489 1.94735L20.8348 2.18986L20.6316 1.81157ZM25.1462 8.44228C25.2918 8.67563 25.3144 8.72511 25.485 8.86897L25.8625 9.1478C26.4907 9.65612 26.4058 9.44119 26.6195 9.90929C25.8612 9.67684 25.4097 9.19141 24.894 9.04866C24.8254 8.91077 24.9822 8.86945 24.3588 8.66298L24.3229 8.96136C24.3262 8.97031 24.3407 8.99669 24.345 9.00515L24.735 9.44458C25.0095 9.64886 24.5304 9.58643 25.1837 9.57399C25.1455 9.60296 25.0833 9.58096 25.0615 9.65204C24.9628 9.97409 24.8316 9.5287 24.74 10.1992C24.9666 10.269 25.2394 10.3687 25.5432 10.184C25.8514 10.5281 25.1285 10.1122 25.7686 10.812C25.7956 10.8417 25.8335 10.8709 25.8678 10.8985C25.3298 10.6927 25.607 10.6277 25.1358 10.8104L24.3925 10.6168C24.4092 10.5994 24.4295 10.5607 24.442 10.5452C24.4551 10.5293 24.4716 10.4938 24.4847 10.4675L24.5405 10.7568C25.1275 10.7172 25.1618 10.8019 25.5146 10.5969C25.4451 10.5154 25.4926 10.1971 25.0451 10.5584C25.031 10.5696 25.0106 10.605 24.9917 10.6272L24.4755 9.72154C24.2052 9.32522 24.3045 9.46329 24.0659 9.40057L24.4458 10.4645L23.812 10.4119C23.8874 10.2606 23.92 10.2672 23.96 10.2218C24.1701 9.98406 23.9578 10.3763 24.1303 10.0326C23.8779 10.0744 24.0074 10.075 23.7924 10.0603L23.6562 9.8434C23.3513 9.4182 23.8002 9.76186 23.3458 9.54722C23.2035 9.79272 23.2995 9.8867 23.3165 9.9299C23.3863 10.1077 23.8538 10.603 23.9964 11.0995C23.8942 11.3353 24.2665 11.4092 23.7142 11.2148L22.6711 11.3188C22.8862 11.1555 22.8111 11.2037 23.3831 11.1245L23.2337 10.8266C23.2293 10.8147 23.2194 10.7865 23.2148 10.7744L23.1562 10.609C23.0526 10.3151 23.021 10.4953 23.0294 10.1396C22.5936 10.1093 22.7838 10.1232 22.4861 10.2012C22.5724 9.95698 22.3596 10.242 22.5958 10.0677L22.8317 9.92681C22.5191 9.47474 22.451 9.04109 22.0603 8.60784C21.4778 9.49038 22.2742 9.47097 21.8614 9.84628C21.605 8.99938 21.5718 7.35705 20.4723 7.44227C20.439 8.27244 20.7602 7.16979 20.7464 7.99598C20.743 8.18214 20.6705 8.20863 20.5733 8.31943L20.4528 8.43591C20.2894 8.60645 20.418 8.39638 20.2678 8.6372C20.0366 8.93556 19.8176 9.19391 19.5152 9.53288C19.2771 9.79969 18.9931 10.2916 18.832 10.5567L17.8867 12.1826C17.7261 12.8158 17.8365 12.2487 18.0768 12.6349L17.8057 12.9384C17.5725 13.0284 17.7104 13.0471 17.4448 13.0459C17.194 13.0449 17.2237 13.0091 17.1201 12.9669L17.3206 12.6964C17.3472 12.6524 17.4232 12.5048 17.4368 12.4727C17.5194 12.2767 17.4942 12.2894 17.514 12.235C17.7332 11.6321 17.8074 11.9964 17.9797 11.4597C17.7064 11.2722 17.4886 11.2759 17.1809 11.3415L18.2775 11.2643C18.2631 10.7547 18.3682 11.0185 18.0906 10.8336C17.7632 10.6156 17.7366 10.8406 17.7339 10.8426C17.8695 10.8396 17.9658 10.8552 18.0985 10.8196C18.2887 10.7683 18.3276 10.7285 18.4063 10.6828C18.441 10.2644 18.6261 10.2908 18.0461 10.4288C18.649 10.3894 18.4862 10.5216 18.8348 9.97221C19.0984 9.55688 19.4726 8.97379 19.5708 8.49444L19.1952 8.65981C18.4589 9.0402 18.4691 8.55716 17.5746 9.17528L16.3948 10.0764C16.6172 9.74263 16.717 9.751 16.8854 9.41859C16.2769 9.67285 16.0591 10.0399 15.4788 10.3482C14.9688 10.6189 14.4455 10.8858 13.9007 11.1895L11.6817 12.4592C11.1013 12.7588 11.0391 12.4245 11.0557 13.1351C11.5761 13.4907 13.3953 13.2887 13.4464 13.272C13.8571 13.1384 13.6098 13.291 13.8811 13.0081L16.8736 12.9141C16.7089 12.8953 16.2494 12.9051 15.9767 12.9324C15.7 12.9603 15.5752 12.9641 15.3996 13.165L15.2535 13.222C15.1926 13.0637 15.2683 13.1706 15.1578 13.0471L14.6966 13.0763C14.854 13.1967 14.9045 13.1882 14.8824 13.3722C14.1567 13.3927 13.1567 13.1669 12.5868 13.539C14.9457 14.0237 15.5783 13.2855 17.332 13.9021C17.6235 14.0045 17.1963 14.0004 17.7067 13.9993C17.752 14.0545 17.904 14.4048 17.9435 14.5751C18.0777 15.1533 18.0087 14.9784 17.5057 15.1759C17.5191 15.7475 18.2698 18.7068 18.4799 19.1665C18.7864 19.8369 18.4311 19.5156 18.8654 20.8871C18.8983 20.9908 18.996 21.5556 19.0007 21.5847C19.04 21.8255 19.0404 21.9984 19.0999 22.2414L19.4881 23.4559C19.5558 23.7088 19.5365 23.9049 19.6053 24.186C19.7132 24.6269 19.9343 25.1912 20.1807 25.4592C20.2739 24.9013 20.0708 25.0677 20.2344 24.4966C20.1815 24.6103 20.1912 25.27 20.3876 25.5074L20.6834 25.72C20.6599 25.739 20.6192 25.7366 20.6103 25.7745C20.6025 25.8107 20.5548 25.8166 20.5434 25.8294C20.5334 25.8412 20.4979 25.87 20.4865 25.8848C20.2962 26.1312 20.451 26.1541 20.2829 26.4551C20.1096 26.7658 20.2527 26.2723 20.0966 26.7139C20.5323 26.8657 22.1551 26.9414 22.9466 26.8102C22.9641 27.5567 23.0043 27.0105 22.727 27.2172C22.1227 27.0415 20.1425 26.8491 19.1824 27.3327L18.8474 27.5545C18.5307 27.9237 18.6748 27.9005 18.264 27.9272C17.9066 27.5241 18.2889 27.2245 18.298 27.1991C18.3036 27.1824 18.3024 26.79 18.3091 26.4752C18.1116 27.3315 18.337 27.7136 17.9054 27.6919C17.3715 27.6651 18.0547 27.9376 17.5929 27.5573L17.9427 27.1212C17.6272 26.9409 17.1595 27.1065 16.8746 26.5126L17.2689 26.1361C18.0046 26.5836 17.1736 26.6784 17.8901 26.67C18.2306 25.9678 17.4394 26.0619 17.101 25.6437C16.9719 25.484 16.5775 24.5357 16.4607 24.2288C15.7217 22.2877 14.3346 19.0959 13.2079 17.3013C12.8788 16.7772 12.6389 16.4173 12.5131 15.7845C12.5341 15.7625 12.5703 15.7048 12.5818 15.7234L12.8238 15.4875C13.0081 15.2482 13.0459 14.9424 12.8819 14.6544L12.5466 14.3453C12.2124 14.829 12.5674 14.5586 12.5467 15.137C12.0174 15.2876 11.7733 15.1142 11.4003 14.9841C11.348 14.3759 11.4292 14.5187 11.5683 14.0036C9.97188 14.0525 9.78114 13.8337 9.75679 13.1434C10.3872 12.7618 10.344 12.9102 11.1001 12.485C11.5903 12.2093 11.875 12.0307 12.4178 11.7095C14.8699 10.2582 15.3285 9.83881 17.3625 8.49057C17.7682 8.22168 19.0022 7.32579 19.2801 6.93445L19.4845 6.53097C19.9369 6.50867 19.7561 6.45988 20.1094 6.60194C20.1249 5.62164 20.6284 6.49891 19.8754 5.06186C19.7422 4.808 19.1218 3.70097 19.1157 3.67887C19.0575 3.47428 19.1819 3.0497 19.2654 2.86543L20.4051 0.678851C20.3218 1.50554 20.0313 1.78 19.657 2.61226C20.1263 2.46084 20.2248 1.87019 20.4111 1.45526C20.6773 0.862319 20.6629 0.234547 20.8244 0C21.0909 0.54993 21.2069 1.14127 21.5075 1.75999C21.6322 2.01704 21.9169 2.40102 21.98 2.58141C22.1294 3.00779 21.8907 2.66951 22.0757 2.94218C22.1502 3.05179 22.6747 3.03447 22.1639 3.84672C21.9062 4.25678 21.8465 4.79187 21.7778 5.2302L21.6603 5.6312C21.6471 5.64972 21.6235 5.67262 21.6087 5.68905L21.4801 5.78969C21.4662 5.80104 21.429 5.81727 21.4079 5.83579C21.9913 6.73336 21.2168 6.35844 23.1127 7.30659C23.5943 7.5474 24.8444 8.43491 25.1462 8.44228Z" fill="white"/>
</svg>
