<?xml version="1.0" encoding="utf-8"?>
<!-- Generator: Adobe Illustrator 23.0.3, SVG Export Plug-In . SVG Version: 6.00 Build 0)  -->
<svg version="1.1" id="Layer_1" xmlns="http://www.w3.org/2000/svg" xmlns:xlink="http://www.w3.org/1999/xlink" x="0px" y="0px"
	 viewBox="0 0 864 864" style="enable-background:new 0 0 864 864;" xml:space="preserve">
<path d="M264.82,36.5c7.39-2.84,11.49-9.43,12.55-17.13l-28.64-0.16c-0.45,4.32-2.76,9.48-6,12.17c-3.83,3.31-8.67,3.44-13.45,3.42
	l-145.88-0.8l5.71-9.28l-0.37-0.25l-17.66,6.9c-6.15,1.32-12.3,2.63-18.44,3.95c6.13,1.38,12.27,2.77,18.4,4.15l17.59,7.1L89,46.41
	l-5.62-9.4l144.91,0.8v0c4.23,0.02,9.66,0.08,13.2,2.64c3.63,2.64,6.56,8.68,7.05,13.17l28.64,0.16
	C276.55,46.31,272.1,39.17,264.82,36.5z"/>
<path d="M304.73,73.85l-23.32-0.12l-18.95,11.3L58.91,83.94c2.32-3.34,3.47-8.42,3.59-12.12c-4.33,5.75-9.94,10.76-16.71,13.55
	c6.74,2.74,12.05,8.11,16.57,13.72c-0.3-3.99-1.17-8.71-3.49-12.15l203.58,1.09l18.83,11.5l23.32,0.12l-12.83-12.97L304.73,73.85z"
	/>
<g>
	<path d="M48.19,132.91c5.83-4,10.74-9.29,14.53-15.19l-3.81,0.01c-3.74,6.33-9.56,11.32-15.76,15.19
		c6.27,3.8,11.87,8.95,15.81,15.15l3.74-0.01C58.77,142.05,54.04,136.83,48.19,132.91z"/>
	<path d="M316.89,146.61l3.41-0.01l-7.31-12.6l3.49-0.01l0-2.97l-3.49,0.01l7.27-12.63l-3.41,0.01l-7.27,12.63l-3.41,0.01
		l7.27-12.63l-3.42,0.01l-7.26,12.63l-3.41,0.01l7.26-12.63l-3.41,0.01l-7.26,12.61c0,0,0,0-0.01,0c0,0,0,0,0,0l-236.63,0.36
		c4.93-3.78,9.13-8.5,12.46-13.69l-3.81,0.01c-3.74,6.33-9.56,11.32-15.76,15.19c6.27,3.8,11.86,8.95,15.8,15.15l3.74-0.01
		c-3.46-5.27-7.53-9.94-12.42-13.65l236.61-0.36c0,0,0,0,0.01,0l7.3,12.59l3.41-0.01l-7.3-12.6l3.41-0.01l7.3,12.6l3.42-0.01
		l-7.3-12.6l3.41-0.01L316.89,146.61z"/>
</g>
<polygon points="347.07,187.07 61.35,182.23 81.86,171.76 80.44,166.11 43.59,184.93 80.31,204.27 81.77,198.64 61.33,187.88 "/>
<path d="M287.35,318.47c-8.89,7.46-17.93,13.23-26.88,17.16c-13.37,5.87-28.2,6.18-41.77,0.88c-5.48-2.15-10.47-5.11-14.84-8.77
	c0.9-2.58,1.71-5.16,2.4-7.74c7.76-28.81,2.16-46.26-4.99-52.45c-3.3-2.86-7.2-3.63-10.69-2.12c-5.58,2.41-9.04,9.9-9.49,20.55
	c-0.35,8.31,1.19,16.49,4.6,24.29c3.13,7.18,7.64,13.52,13.23,18.73c-9.66,25.69-29.04,51.32-46.19,70.68l-3.65-14.72l-0.61,0.13
	l-10.48,24.57c-4.74,7.48-9.48,14.96-14.22,22.45c7.44-4.8,14.88-9.6,22.33-14.4l24.49-10.68l0.18-0.55l-15.15-3.66
	c17.15-19.33,36.59-44.93,46.7-70.87c4.43,3.51,9.42,6.39,14.85,8.51c14.62,5.72,30.6,5.38,45.01-0.94
	c9.31-4.09,18.69-10.08,27.89-17.79c0.08-0.06,0.15-0.13,0.21-0.2c0.7-0.77,0.74-1.96,0.05-2.77
	C289.58,317.84,288.25,317.72,287.35,318.47z M189.57,308.58c-3.14-7.21-4.57-14.75-4.25-22.42c0.33-7.76,2.32-12.58,4.58-15.08
	c0.77-0.85,1.58-1.44,2.36-1.77c2.53-1.09,4.8,0.18,6.25,1.44c6.72,5.81,10.47,22.96,3.68,48.16c-0.51,1.9-1.09,3.81-1.72,5.72
	C195.91,320.06,192.21,314.65,189.57,308.58z"/>
<path d="M295.8,520.45l46.63-0.11l-25.85-25.74l25.73-25.86l-46.63,0.11l-37.72,22.89l-47.87,0.11c2.19-3.61,3.68-7.17,3.7-10.25
	c0.19-24.25-29.75-10.83-32.59,4.02c-0.23,1.22-2.4-13.58-15.86-17.12c-10.28-2.7-14.3,3.24-14.3,3.24
	c-2.74,3.44-5.27,10.85-0.6,20.25l-64.43,0.15c4.58-6.71,6.8-16.9,7-24.29c-8.57,11.57-19.72,21.67-33.22,27.35
	c13.53,5.38,24.23,16.03,33.35,27.19c-0.66-7.97-2.46-17.41-7.16-24.25l68.29-0.16c4.33,5.55,11.26,11.57,21.93,17.74
	c0.23,0.14,7.4,5.62,8.62,9.6c0,0,2.87-7.31,12.34-17.4c2.62-2.8,5.84-6.32,8.74-10.07l52.06-0.12L295.8,520.45z"/>
<path d="M573.89,793.14c-0.89,1.57,3.06-19.76-13.77-30.9c-12.85-8.51-21.13-2.24-21.13-2.24c-9.4,6.03-23.69,29.04,13.96,72.12
	c0.26,0.3,7.53,11.17,7.35,17.21c0,0,7.35-8.69,25.07-18.11c12.12-6.44,31.27-17.34,35.12-28.36
	C632.08,769.67,584.72,774.09,573.89,793.14z"/>
<path d="M774.3,338.22l1.03-9.87c0.42-4.05-4.14-13.19-5.45-15.36c-21.49-28.7-23.11-47.9-20.68-58.96
	c2.71-12.34,10.77-17.64,13.3-19.03c1.44-0.85,11.58-6.16,24.79,4.09c7.92,6.14,12.21,14.91,12.81,26.12
	c10.8-7.88,28.19-10.36,39.16-4.35c4.42,2.42,13.86,9.93,6.25,27.4c-4.95,11.36-23.41,20.64-38.94,27.47
	c-17.41,7.65-25.2,15.37-25.27,15.45L774.3,338.22z M772.13,239.91c-3.67-0.27-5.87,1-6.03,1.1l-0.19,0.11
	c-1.78,0.96-7.77,4.85-9.86,14.41c-2.12,9.64-0.45,26.73,19.53,53.38c0.06,0.08,3.98,6.59,5.83,13.1
	c4.37-3.26,11.67-7.99,22.35-12.68c7.63-3.35,30.85-13.55,35.34-23.85c3.9-8.95,2.83-15.17-3.2-18.47
	c-10.24-5.61-29.99-0.93-36.43,8.65l0,0c-0.94,1.39-2.6,1.96-4.15,1.43c-2.63-0.92-2.42-3.55-2.31-4.96
	c0.36-4.6,1.46-18.59-10.01-27.5C778.69,241.27,774.97,240.12,772.13,239.91z M793.67,271.74
	C793.66,271.74,793.66,271.74,793.67,271.74C793.66,271.75,793.66,271.75,793.67,271.74z"/>
<path d="M653.17,517.81l-25.26-24.85l-29.82-10.59l-14.26-14.03c0.01-0.01,0.01-0.01,0.02-0.02c8.49-8.71,21.7-23.08,21.97-33.42
	c0.28-10.57-4.01-15.64-9.95-16.99l27.32-27.38c0.24,5.45,3.16,10.36,6.11,14.02c0.41-9.7,1.92-20.07,7.18-29.84
	c-9.85,5.18-20.23,7.22-29.79,7.22c3.18,2.95,8.64,5.92,13.98,6.14l-29.43,29.49c-11.18,0.63-25.06,10.77-27.37,21.74
	c-0.33,1.57-2.76-17.49-19.96-22.35c-5.45-1.54-9.55-1.14-12.48-0.15l-26.48-26.05c5.24-0.35,10.64-3.42,13.79-6.4
	c-9.4,0.25-19.59-1.49-29.23-6.32c5.1,9.47,6.5,19.63,6.83,29.15c2.93-3.68,5.84-8.57,6.12-13.94l25.62,25.2
	c-1.78,1.18-2.6,2.34-2.6,2.34c-5.44,6.58-10.53,24.84,16.12,46.55l-16.43,16.46l-30.43,11.57l-25.9,25.96l25.02-3.66l-3.63,25.06
	l25.9-25.96l11.54-30.49l16.72-16.75c3.59,2.73,7.69,5.52,12.36,8.33c0.3,0.18,9.37,7.39,10.85,12.53c0,0,3.34-8.08,13.82-19.48
	l14.21,13.98l11.1,29.68l25.26,24.85l-3.38-24.54L653.17,517.81z"/>
<path d="M297.7,606.85l6.83-0.02l-14.63-25.2l6.98-0.02l-0.01-5.95l-6.98,0.02l14.51-25.27l-6.83,0.02l-14.51,25.27l-6.83,0.02
	l14.51-25.27l-6.83,0.02l-14.51,25.27l-6.83,0.02l14.51-25.27l-6.83,0.02l-14.51,25.27l0,1.83l0-1.86l-49.06,0.12
	c2.19-3.61,3.68-7.17,3.7-10.25c0.19-24.25-29.75-10.83-32.59,4.02c-0.23,1.22-2.4-13.58-15.86-17.12
	c-10.28-2.7-14.3,3.24-14.3,3.24c-2.74,3.44-5.27,10.85-0.6,20.25l-64.43,0.15c4.58-6.71,6.8-16.9,7-24.29
	c-8.57,11.57-19.72,21.67-33.22,27.35c13.53,5.38,24.23,16.03,33.35,27.19c-0.66-7.97-2.46-17.41-7.16-24.25l68.29-0.16
	c4.33,5.55,11.26,11.57,21.94,17.74c0.23,0.14,7.4,5.62,8.62,9.6c0,0,2.87-7.31,12.34-17.4c2.62-2.8,5.84-6.32,8.74-10.07
	l53.26-0.13l0-0.02l14.63,25.2l6.83-0.02l-14.63-25.2l6.83-0.02l14.63,25.2l6.83-0.02l-14.63-25.2l6.83-0.02L297.7,606.85z"/>
<g>
	<path d="M48,657.4c7.66-5.49,14.05-12.68,18.95-20.65l-5.07,0.11c-4.81,8.55-12.44,15.35-20.59,20.69
		c8.46,4.89,16.07,11.6,21.49,19.76l4.99-0.11C62.36,669.29,55.9,662.46,48,657.4z"/>
	<path d="M327.96,670.01l4.55-0.1l-10.08-16.6l4.66-0.1l-0.09-3.96l-4.66,0.1l9.34-17.03l-4.55,0.1l-9.34,17.03l-4.55,0.1
		l9.34-17.03l-4.55,0.1l-9.34,17.03l-4.55,0.1l9.34-17.03l-4.55,0.1l-9.33,17.01c0,0-0.01,0-0.01,0l-83.93,1.86
		c2.71-4.09,4.66-8.2,4.71-11.69c0.35-24.25-29.68-11.02-32.61,3.81c-0.24,1.22-2.31-13.59-15.75-17.22
		c-10.26-2.77-14.32,3.15-14.32,3.15c-3.05,3.77-5.88,12.38,0.93,23.22l-95.85,2.12c6.46-5.18,11.93-11.58,16.24-18.59l-5.07,0.11
		c-4.81,8.55-12.44,15.35-20.59,20.69c8.46,4.89,16.06,11.6,21.49,19.76l4.99-0.11c-4.75-6.94-10.31-13.04-16.94-17.86l98.58-2.18
		c4.33,5.33,11.03,11.08,21.1,16.99c0.23,0.14,7.36,5.66,8.56,9.66c0,0,2.91-7.29,12.45-17.32c2.75-2.89,6.14-6.57,9.15-10.46
		l86.96-1.93c0,0,0.01,0,0.01,0l10.07,16.59l4.55-0.1l-10.08-16.6l4.55-0.1l10.08,16.6l4.55-0.1l-10.08-16.6l4.55-0.1L327.96,670.01
		z"/>
</g>
<path d="M588.27,549.88l3.9-2.23c7.55,4.29,16.44,5.97,25.06,6.29c-4.19,7.57-6.89,16.13-7.29,24.79l-3.84,2.19
	c0.5-8.46,2.28-16.59,5.96-24.03C603.75,556.23,595.62,553.69,588.27,549.88z M393.85,531.26l2.56,3.6
	c3.09-7.89,4.88-16.02,4.66-24.32c7.83,2.88,16.28,3.98,24.55,3.61l-2.61-3.66c-8.65,0.73-17.42-1.47-25.39-4.79
	C398.25,514.33,397.12,523.23,393.85,531.26z M576.03,727.53l-17.12,1.63l-2.34-3.28l17.12-1.63l-2.34-3.28l-17.11,1.64l-2.34-3.28
	l17.11-1.64l-2.34-3.28l-17.1,1.63c0,0,0-0.01,0-0.01l-48.33-67.86c9.22-6.32,23.63-16.84,25.74-26.07
	c1.42-6.23,0.62-10.67-1.54-13.64l76.1-43.51c-2.83,6.68-4.26,13.84-4.7,21.27l3.84-2.19c0.39-8.66,3.1-17.22,7.28-24.79
	c-8.62-0.33-17.51-2.01-25.06-6.3l-3.9,2.23c6.47,3.35,13.53,5.71,20.8,6.69l-77.05,44.06c-9.41-6.2-29.43,1.08-34.35,12.56
	c-0.58,1.35,0.68-16.26-13.95-23.75c-5.54-2.84-9.84-2.83-12.77-2.1l-51.59-72.44c7.01,2.16,14.41,2.98,21.69,2.64l-2.61-3.66
	c-8.65,0.73-17.42-1.47-25.39-4.79c0.63,8.63-0.51,17.53-3.78,25.56l2.56,3.6c2.72-6.93,4.42-14.03,4.65-21.28L458.33,594
	c-0.77,0.47-1.16,0.84-1.16,0.84c-6.11,4.96-13.99,20.55,6.26,45.01l-72.33,41.36c0,0,0,0-0.01,0.01l-14.84-8.65l-3.5,2l14.85,8.66
	l-3.5,2l-14.85-8.66l-3.5,2l14.86,8.66l-3.5,2l-14.86-8.66l-3.5,2l14.86,8.66l-3.58,2.05l1.74,3.05l3.58-2.05l-0.07,17.19l3.5-2
	l0.07-17.19l3.5-2l-0.07,17.19l3.5-2l0.07-17.19l3.5-2l-0.07,17.19l3.5-2l0.07-17.18c0,0,0,0,0.01,0l72.92-41.7
	c2.66,2.99,5.71,6.09,9.25,9.33c0.24,0.22,7.11,8.35,7.51,13.25c0,0,4.44-6.62,15.84-14.95l48.33,67.87c0,0,0,0,0.01,0.01
	l-7.14,15.63l2.34,3.28l7.14-15.64l2.34,3.28l-7.14,15.64l2.34,3.28l7.14-15.64l2.34,3.28l-7.14,15.64l2.34,3.28l7.14-15.64
	l2.39,3.36l2.86-2.04l-2.39-3.36l17.12-1.63L576.03,727.53z"/>
<polygon points="292.08,274.03 338.71,273.92 312.86,248.18 338.59,222.32 291.96,222.43 254.24,245.32 89.32,245.71 89.28,231.28 
	24.28,248.87 89.37,266.15 89.33,251.71 254.24,251.32 "/>
<path d="M341.03,313.61c-1.87,1.41-45.87,34.75-54.44,60.47c-1.62,4.85-2.06,9.89-1.62,14.88c-15.46,6.22-28.05,15.05-37.16,22.79
	c-1.26-6.83-5.79-13.46-10.13-18.55c1.23,11.94,1.24,24.53-3.54,35.68c11.29-4.64,23.81-5.28,35.68-3.54
	c-4.46-4.21-11.73-8.86-18.37-10.13c8.53-7.19,20.13-15.3,34.26-21.16c2.05,9.95,7.32,19.32,13.43,26
	c9.52,10.41,20.97,14.96,31.42,12.48c11.26-2.67,17.53-14.52,14.57-27.56c-3.3-14.57-17.55-26.92-41.93-21.64
	c-4.61,1-9.05,2.28-13.29,3.76c-0.21-4.04,0.24-7.92,1.41-11.44c8.08-24.26,52.26-57.72,52.71-58.05c1.11-0.83,1.32-2.4,0.49-3.5
	C343.7,313,342.13,312.78,341.03,313.61z M290.52,392.18c4.37-1.58,8.96-2.93,13.74-3.97c22.48-4.86,33.44,6.58,35.99,17.86
	c1.33,5.87,0.36,12.54-3.35,16.99c-1.82,2.19-4.3,3.84-7.5,4.6c-8.63,2.05-18.31-1.96-26.57-10.99
	C296.37,409.61,292.07,400.77,290.52,392.18z"/>
<path d="M504.3,692.9c-10.97,14.58-27.42,31.83-42.17,41.16l24.44-1.4c-0.24,0.53-0.49,1.08-0.76,1.64
	c-1.4,2.77-3.56,6.45-6.72,11.31c-0.33,0.56-7.91,12.83-9.45,15.8c-0.79,1.56-1.64,3.02-2.23,4.48c-4.02,1.17-8.43,2.8-13.17,4.73
	c-4.94,2.04-10.55,4.45-16.89,7.37c-0.93,0.38-8.68,4.19-10.39,4.99c-1.71,0.8-6.78,3.04-7.62,3.36c-0.73,0.27-1.41,0.64-2.2,0.81
	c0.25-1.39,0.86-2.6,1.55-4.11c0,0,1.81-3.87,2.32-5.03c0.6-1.21,0.97-2.16,1.2-2.66c1.98-4.72,3.29-8.57,4.08-11.77
	c0.85-4.24,0.94-7.8,0.01-10.45c-1.42-4.02-4.61-6.44-9.44-7.22c-2.19-0.33-4.94,0.41-7.96,2.04c-2.19,1.31-3.73,2.64-5.02,3.97
	c-2.63,2.81-4.82,5.75-6.14,9.11c-5.47-3.84-10.54-4.61-14.77-3.59c-2.95,0.59-5.47,2.21-7.38,4.49c-1.85,2.39-2.85,5.19-3.19,8.52
	c-0.54,6.21,1.28,12.14,5.66,17.44c4.9,6.03,11.54,9.48,20.04,10.55c3.13,0.44,6.26,0.64,9.32,0.49c1.03,4.23,3.2,7.32,5.85,9.67
	c3.27,3.01,7.12,4.33,11.52,4.09c4.35-0.34,7.26-1.91,9.21-4.6c1.51-2.33,1.88-4.66,0.72-7.05c-0.85-1.8-2.39-3.49-4.89-4.4
	c-1.21-0.61-2.54-0.51-3.86,0.07c-1.32,0.59-3.35,2.19-2,5.61c-1.33,0.09-2.64-0.46-3.66-1.42c-0.92-0.76-1.84-1.77-2.28-3.29
	c1.72-0.3,3.44-0.85,5.01-1.45c1.03-0.43,8.39-3.78,8.39-3.78c1.71-0.8,9.26-4.5,10.19-4.88c6.09-2.92,11.61-5.27,16.45-7.26
	c2.1-0.76,4.06-1.57,5.97-2.22c-1.58,9.41,3.64,16.27,12.84,22.12c3.38,2.07,7.32,2.84,11.99,1.94c4.73-0.8,8.43-2.8,11.05-5.85
	c3.2-3.62,5.1-7.79,5.79-12.32c0.92-6.91-0.19-12.22-3.18-15.89c-3.04-3.76-7.71-5.65-14.15-5.93c-2.18-0.08-4.71-0.1-7.66,0.49
	c1.08-1.97,7.21-11.32,7.21-11.32c3.35-5.21,5.69-9.49,7.23-12.46c0.58-1.16,1.09-2.3,1.54-3.41l20.33,15.04
	C509.8,734.54,505.49,711.11,504.3,692.9z M406.75,785.6l-0.55,2.94c-2.23,0.07-4.56-0.05-6.74-0.38c-5.82-0.75-10.2-3.04-13.29-6.9
	c-2.42-3.09-3.62-6.47-3.34-9.89c0.13-2.08,0.93-3.4,2.36-3.79c1.08-0.33,2.28,0.03,3.83,0.57c1.96,0.83,4.23,2.24,6.72,4.29
	c0.55,1.72,2.01,2.56,3.76,3c1.39,0.25,2.68,0.06,3.93-0.87c1.21-0.78,1.97-1.94,2.12-3.29c0.98-4.93,2.93-9.01,5.99-12.42
	c0.48-0.51,3.3-5.06,4.94-2.04c0.95,2,0.66,5.18-3.85,14.28c-0.23,0.5-0.65,1.36-1.16,2.51c-0.51,1.15-2.21,5.22-2.25,5.37
	C407.82,782,407.15,784.25,406.75,785.6z M488.12,772.55c2.92,0.06,5.07,0.53,6.2,1.93c1.34,1.54,1.67,4.25,1.15,7.93
	c-0.36,2.59-1.53,4.85-3.29,6.94c-1.1,1.22-2.81,2.02-4.82,2.48c-2.07,0.36-3.66,0.22-4.92-0.49c-3.39-2.32-5.79-4.67-6.97-7.3
	c-0.96-2.25-1.15-4.91-0.55-7.76c0.13-0.7,0.21-1.25,0.39-1.84C480.47,773.04,484.75,772.36,488.12,772.55z"/>
<path d="M730.05,292.07c-1.12-2.49-3.87-3.52-6.14-2.29c-15.64,8.47-39.98,12.18-72.35,11.01c-32.28-1.16-62.28-17.38-82.94-44.2
	c46.39-24.75,88.08-57.29,105.85-98.69c9.89-23.04,10.71-38.41,2.51-46.99c-9.1-9.52-27.82-8.38-57.24,3.49
	c-13.29,5.36-25.51,11.64-32.69,15.53c-0.6-21.81-4.45-80.1-28.19-97.02c-8.79-6.26-19.13-6.46-30.73-0.59
	c-13.84,6.99-23.1,18.8-27.51,35.1c-5.76,21.29-3.16,49.78,7.73,84.68c9.19,29.45,24.03,62.45,42.92,95.44
	c1.02,1.78,2.07,3.52,3.15,5.23c-17.96,9.04-37.68,17.57-59,25.52l9.15-34.77l-1.28-0.47l-46.37,38.19
	c-17.03,9.78-34.06,19.56-51.08,29.34c19.19-1.02,38.38-2.05,57.57-3.07l57.58,7.18l0.94-0.92l-24.44-25.62
	c20.45-7.6,41.87-16.6,62.6-27.13c22.36,30.2,55.49,48.53,91.2,49.82c3.92,0.14,7.74,0.21,11.44,0.21
	c28.31,0,50.23-4.11,65.26-12.26C730.24,297.58,731.17,294.56,730.05,292.07z M559.02,242.18
	c-40.88-71.38-59.43-135.64-49.62-171.89c3.67-13.58,11.05-23,22.55-28.81c4.38-2.21,8.37-3.32,12.03-3.32
	c3.6,0,6.88,1.07,9.88,3.21c20.39,14.52,24.32,74.71,24.12,96.67l-0.08,8.49l6.82-3.99c27.07-15.85,74.34-36.47,85.93-24.33
	c4.77,4.99,3.18,17.56-4.48,35.39c-12.45,29.02-39.22,56.35-79.55,81.25c-7.51,4.64-15.44,9.16-23.79,13.58
	C561.51,246.4,560.24,244.31,559.02,242.18z"/>
<path d="M798.53,499.67l-10.64,11.43l15.79-0.57c-4.13,2.76-8.82,5.54-14.1,8.3c-13.69,7.16-29.48,8.56-44.06,4.2
	c14.96-22.47,26.05-47.11,24.39-69.43c-0.38-5.14-1.54-20.77-12.47-23.52c-12.96-3.26-29.5,16.9-38.49,29.7
	c-7.27-11.28-21.94-30.83-36.89-31.73c-4.64-0.28-11.39,1.08-17.23,9.18c-5.36,7.43-7.02,15.78-4.94,24.83
	c6.72,29.25,50.19,55.57,68.95,65.7c-13.87,18.67-29.47,35.02-39.87,45.23l0.78-18.14l-11.51,10.56l-1.12,25.99l25.99,1.12
	l11.51-10.56l-18.49-0.79c12.12-11.82,28.58-29.19,42.91-48.85c18.17,6.45,38.29,5.17,55.58-3.88c1.89-0.99,3.72-1.99,5.49-2.99
	c5.27-2.98,9.94-5.99,14.02-9.01l0.7,19.71l10.64-11.43l-0.93-25.99L798.53,499.67z M734.29,518.4
	c-35.44-19.09-59.9-41.61-63.84-58.76c-1.37-5.95-0.33-11.21,3.17-16.06c1.42-1.97,2.75-3.13,3.96-3.82
	c1.51-0.86,2.82-0.94,3.82-0.88c10.51,0.63,25.55,20.96,32.55,33.63l4.42,8l4.9-7.72c11.5-18.1,26.52-33.44,31.52-32.19
	c1.15,0.29,3.53,3.54,4.29,13.8c1.5,20.17-9.51,43.33-23.9,64.45C734.88,518.71,734.59,518.56,734.29,518.4z"/>
<path d="M451.15,251.03c-2.08,1.91-5.12,1.82-6.8-0.21c-41.63-50.5-37.77-127.23-16.15-180.84l-41.51-14.24
	c27.82-5.76,63.54-22.91,89.49-39.18c-10.81,29.26-20.7,68.59-21.16,97.85l-19.63-36.76c-18.96,50.44-21.5,120.14,16.5,166.24
	C453.56,245.91,453.23,249.11,451.15,251.03z"/>
<path d="M714.96,832.25c38.3,8.19,71.52-2.76,93.85-31.08c25.17-31.92,30.81-80.32,13.97-116.6l20.32-2.75l-46.57-26.82L811,706.77
	l7.7-19.05c15.51,34.53,10.01,80.16-13.82,110.37c-20.96,26.57-52.17,36.92-88.25,29.41l15.71-13.32l-53.68,2.5l40.07,35.8
	L714.96,832.25z"/>
<path d="M820.42,235.07l1.41-89.48l-4.85,2.56c-24.39,12.88-51.41,26.18-61.04,29.62c2.31-12.29,9.92-45.67,17.06-75.71l2.07-8.69
	l-6.65,3.52c-21.88,11.57-45.78,23.8-59.94,30.53c13.74-15.81,38.82-43.47,56.03-62.22l6.58-7.17l-84.82-11.59l15.82-29.25
	l-70.85,26.63l57.22,44.13l-4.03-31.96l69.14,9.44c-6.36,6.97-16.51,18.11-26.61,29.32c-34.37,38.17-34.59,39.58-34.99,42.14
	l-0.38,2.82l1.54,1.54c1.92,1.92,2.73,2.71,41.1-16.79c11.33-5.76,22.67-11.67,29.56-15.27c-11,46.52-16.38,71.79-16.01,75.17
	c0.16,1.44,0.82,2.63,1.81,3.28c1.79,1.17,3.63,2.39,37.5-14.37c10.62-5.25,21.13-10.68,27.04-13.76l-1.21,76.75
	c-0.03,2.1,1.01,3.72,2.5,4.12c0.37,0.1,0.77,0.12,1.19,0.06C818.66,240.1,820.38,237.7,820.42,235.07z"/>
<path d="M173.28,704.51h-61.07l-0.05-3.2c-0.1-7.18-7.95-11.56-14.11-7.88l-22.27,13.29L53.5,720.02
	c-6.17,3.68-6.04,12.66,0.23,16.16l22.65,12.64l22.65,12.64c6.27,3.5,13.98-1.1,13.88-8.28l-0.04-2.92h60.4
	c3.33,0,6.06-2.73,6.06-6.06v-33.63C179.34,707.23,176.61,704.51,173.28,704.51z"/>
<path d="M275.31,843.95c-2.14,0-4.29-0.55-6.26-1.65l-45.3-25.28c-4.05-2.26-6.51-6.38-6.58-11.02c-0.07-4.64,2.27-8.83,6.25-11.21
	l44.55-26.59c3.98-2.38,8.78-2.45,12.83-0.19c3.98,2.22,6.42,6.23,6.57,10.77h57.62c5.27,0,9.56,4.29,9.56,9.56v33.63
	c0,5.27-4.29,9.56-9.56,9.56h-56.87c-0.14,4.39-2.44,8.31-6.25,10.58C279.83,843.33,277.57,843.95,275.31,843.95z M274.55,773.38
	c-1.03,0-2.06,0.28-2.99,0.83l-44.55,26.59c-1.81,1.08-2.87,2.98-2.84,5.09c0.03,2.11,1.15,3.98,2.99,5.01l45.3,25.28
	c1.84,1.03,4.02,1,5.83-0.08c1.81-1.08,2.87-2.98,2.84-5.09l-0.09-6.48h63.95c1.41,0,2.56-1.15,2.56-2.56v-33.63
	c0-1.41-1.15-2.56-2.56-2.56h-64.52l-0.1-6.65c-0.03-2.11-1.15-3.98-2.99-5.01C276.5,773.63,275.52,773.38,274.55,773.38z"/>
<polygon points="326.57,709.55 272.01,709.55 271.85,694.47 243.53,711.22 215.2,727.96 243.87,744.12 272.53,760.28 272.38,745.2 
	326.57,745.2 "/>
<path d="M125.5,845.54l-69.4-39.12l68.58-40.54l0.19,18.04h54.61v43.66h-54.16L125.5,845.54z M72.1,806.25l45.26,25.51l-0.13-12.19
	h54.24v-27.66h-54.52l-0.13-12.11L72.1,806.25z"/>
<path d="M701.36,681.25l0.9,2.3c8.82,22.53,6.41,31.77,2.83,35.55c-5.72,6.04-17.74,2.16-17.86,2.12c-1.2-0.4-2.49,0.25-2.89,1.45
	c-0.4,1.2,0.25,2.5,1.45,2.89c0.6,0.2,14.89,4.84,22.62-3.3c6.55-6.89,5.92-20.48-1.88-40.38l-0.91-2.31
	c-9.28-23.6-15.98-40.64,9.06-60.75c20.71-16.63,40.27-8.84,55.98-2.58c13.05,5.2,25.39,10.11,31.99-3.85
	c7.86-16.62,15.83-29.29,23.74-37.76c-0.16,6.02,2.23,13.14,4.85,17.86c1.15-10.92,4.57-21.87,11.24-30.83
	c-10.97,1.7-22.13-1.15-32.44-4.96c3.59,5.08,8.55,10.71,14.45,13.32c-8.73,8.82-17.45,22.39-25.97,40.41
	c-4.55,9.63-12.1,7.16-26.16,1.56c-15.93-6.35-37.74-15.04-60.53,3.27C684.15,637.47,692.12,657.76,701.36,681.25z"/>
<path d="M824.48,368.01l-6.68-4.34l-30.28,15.44l-6.68-4.34l30.28-15.44l-6.69-4.34l-30.28,15.44l-6.68-4.33l30.28-15.44l-6.68-4.34
	l-30.16,15.38c-5.9-2.58-11.95-4.83-18.06-6.67c-21.09-6.34-34.53-5.51-48.76-4.63c-13.75,0.85-29.32,1.82-55.09-3.53
	c-14.58-3.03-25.88-6.73-34.96-9.7c-17.46-5.71-29-9.49-44.74-3.06c-9.77,3.99-16.37,10.09-21.67,14.98
	c-6.12,5.65-10.53,9.74-17.09,9.05c-8.36-0.88-13.39-8.82-18.26-16.49c-4.61-7.27-9.37-14.79-17.23-15.85
	c-12.87-1.75-26.89,14.59-43.88,51.2l-17.18-17.34l0.73,66.69l47.26-47.06l-24.3,0.33c19.64-42.14,31.15-47.59,36.43-46.88
	c4.63,0.63,8.33,6.47,12.26,12.66c5.49,8.66,11.71,18.48,23.44,19.71c9.71,1.02,15.96-4.76,22.57-10.87
	c5.14-4.75,10.97-10.13,19.57-13.65c13.36-5.45,23.36-2.18,39.91,3.23c9.24,3.02,20.75,6.79,35.71,9.9
	c26.68,5.54,42.76,4.55,56.94,3.67c14.18-0.88,26.42-1.63,46.31,4.35c5.46,1.64,10.88,3.63,16.17,5.9l-1.76,33.89l6.68,4.33
	l1.77-33.94l6.68,4.33l-1.77,33.94l6.69,4.34l1.76-33.95l6.68,4.33l-1.76,33.95l6.68,4.34l1.76-33.95l6.84,4.44l3.78-5.82
	l-6.84-4.44L824.48,368.01z"/>
<path d="M97.1,299.97c-8.28-4.5-16.42-10.08-21.52-18.11c-2.01,9.36-7.14,17.75-13.53,24.66c4.71-1.02,10.97-3.68,14.73-7.43
	c5.4,34.25,2.23,55.46-9.43,63.08c0,0-0.01,0.01-0.01,0.01c-5.23,3.41-11.07,3.32-16.71,3.24c-5.95-0.09-12.1-0.19-16.72,4.21
	c-8.61,8.21-6.64,26.74,6.04,56.64l-10.79,15.64l1.91,4.03l10.82-15.68l1.91,4.03l-10.82,15.68l1.92,4.03l10.81-15.68l1.91,4.03
	l-10.81,15.68l1.91,4.03l10.81-15.68l1.96,4.12l3.51-1.67l-1.96-4.12l18.99,1.53l-1.91-4.03l-18.99-1.53l-1.91-4.03l18.99,1.53
	l-1.92-4.03l-18.98-1.53l-1.91-4.03l18.98,1.53l-1.91-4.03l-18.98-1.53l0,0c-6.43-15.21-10.06-27.5-10.77-36.56
	c-0.57-7.29,0.74-12.52,3.9-15.54c3.46-3.3,8.32-3.22,13.95-3.13c5.94,0.09,12.68,0.2,18.92-3.87c0.01,0,0.01-0.01,0.02-0.01
	c7.47-4.88,11.94-14.34,13.29-28.1c1.02-10.38,0.29-23.5-2.17-39.05C85.6,300.51,91.9,300.52,97.1,299.97z"/>
<path d="M748.33,774.57c-68.61,0-126.56-52.23-135.15-120.27l10.79,9.95l-0.53-12.94l-15.87-14.62l-14.62,15.87l0.53,12.94
	l10.59-11.5c3.99,34.41,19.82,66.16,45.03,90c26.98,25.52,62.22,39.57,99.24,39.57c2.49,0,4.5-2.01,4.5-4.5
	S750.81,774.57,748.33,774.57z"/>
</svg>
