<svg width="30" height="21" viewBox="0 0 30 21" fill="none" xmlns="http://www.w3.org/2000/svg">
<g id="sign">
<g id="path4">
<mask id="path-1-inside-1_21_3190" fill="white">
<path fill-rule="evenodd" clip-rule="evenodd" d="M14.7868 19.3537C14.6739 19.7554 13.5688 19.718 13.782 18.8683C13.8101 18.7564 13.8794 18.6374 13.9627 18.5499C14.1546 18.3483 14.8317 18.2103 14.8317 18.9489C14.5348 18.9489 14.3085 18.9276 14.0015 18.9276C14.0015 19.6317 14.7323 19.358 14.7868 19.3537V19.3537ZM19.2745 18.5654C19.2745 18.751 19.2291 18.9074 19.0891 19.0285C18.773 19.3017 18.263 19.1821 18.1101 18.8188C17.8595 18.2235 18.4297 17.8123 18.9008 18.0041C19.0943 18.0828 19.2745 18.3114 19.2745 18.5654ZM15.3029 20.2272H15.2356C15.2334 20.1334 15.2132 20.1276 15.2132 20.0142C15.5094 20.0142 15.4991 20.0405 15.6543 19.6643C15.7049 19.5418 15.5993 19.3827 15.5039 19.2268L15.1543 18.6C15.1026 18.5126 15.0501 18.5037 14.9439 18.4801V18.4375C15.1914 18.4375 15.366 18.4162 15.5946 18.4162V18.4589C15.4864 18.4674 15.4912 18.501 15.3927 18.5228C15.3995 18.6003 15.6689 19.056 15.728 19.1631C15.7498 19.2027 15.7544 19.2294 15.7741 19.2685C15.8563 19.2113 16.0606 18.5609 16.0658 18.5015C15.92 18.4692 15.8891 18.4612 15.8639 18.3949H16.38C16.3301 18.436 16.3344 18.4328 16.2698 18.4608C16.1312 18.5208 16.1751 18.5334 16.0691 18.8028L15.774 19.5879C15.7397 19.6771 15.7064 19.755 15.6705 19.8519C15.6139 20.0046 15.4994 20.2272 15.3029 20.2272V20.2272ZM10.9723 18.5228C10.9723 18.6693 10.9812 18.799 11.1191 18.8947C11.3766 19.0735 11.5532 18.9944 11.6904 18.9915C11.3468 19.4368 10.35 18.9843 10.8379 18.246C11.1209 17.8179 11.825 17.8933 11.825 18.3523C11.825 18.5499 11.8128 18.4916 11.8025 18.608C11.6144 18.604 11.172 18.4302 10.9948 18.4162C10.983 18.464 10.9723 18.4652 10.9723 18.5228V18.5228ZM12.2064 18.2884C12.2683 18.2871 12.5482 18.2213 12.5879 18.2032V18.3736C12.6944 18.3652 12.6076 18.3723 12.7509 18.3154C13.6173 17.9709 13.6672 19.4602 12.8123 19.4602C12.6605 19.4602 12.5539 19.4235 12.4308 19.3963C12.4012 19.5171 12.3635 19.7438 12.3635 19.8863C12.4216 19.9233 12.5029 19.9622 12.543 20.0142C12.3448 20.01 12.113 19.9331 11.9147 19.929C11.9748 19.8511 12.0349 19.8952 12.0955 19.8449C12.1442 19.8044 12.2794 18.8205 12.3061 18.6813C12.3184 18.6174 12.3413 18.4983 12.3212 18.4542L12.2353 18.3463C12.2039 18.2978 12.22 18.313 12.2064 18.2884V18.2884ZM17.5019 18.331L17.6337 19.2072C17.6601 19.3264 17.6568 19.2652 17.7837 19.3204C17.8434 19.3464 17.8159 19.3351 17.8385 19.3537L17.255 19.4389C17.2758 19.3653 17.2927 19.3711 17.4121 19.3111C17.3771 19.1684 17.3606 19.0117 17.3382 18.8486C17.3176 18.6988 17.2775 18.5523 17.2775 18.3736C17.107 18.3736 17.0226 18.4162 16.8736 18.4162C16.8736 18.6626 17.076 19.5455 16.6268 19.5455C16.5377 19.5455 16.558 19.4392 16.537 19.3537C16.9598 19.3203 16.7608 18.6862 16.739 18.4375C16.6717 18.4227 16.6111 18.4008 16.537 18.3949V18.3523C16.7167 18.3523 16.9187 18.308 17.0941 18.2847L17.6589 18.2032C17.6324 18.2729 17.5924 18.2855 17.5019 18.331V18.331ZM20.1496 17.9688C20.3741 18.0711 20.8461 18.269 21.092 18.2884L20.8256 18.4213C20.6795 18.4784 20.7124 18.4238 20.5666 18.3612C20.4643 18.3173 20.3775 18.2854 20.2836 18.2464C20.1993 18.2114 20.0688 18.1414 19.9701 18.1393C20.2103 18.5704 20.076 18.5867 20.374 18.5867V18.6293C20.2141 18.6419 20.0077 18.8074 19.8355 18.8211L19.9701 18.6506C19.8947 18.5683 19.6269 17.9476 19.5437 17.7984H19.3418C19.4228 17.7316 19.767 17.5996 19.8803 17.5427C19.8656 17.7111 19.7241 17.6094 19.8077 17.801L19.9476 18.0966C20.0218 18.045 20.2038 17.6468 20.2618 17.5427C20.2556 17.5387 20.2376 17.5291 20.2335 17.527C20.2304 17.5254 20.2225 17.5216 20.2188 17.5196C20.1202 17.4683 20.1457 17.5021 20.1271 17.4362C20.2678 17.4051 20.4128 17.2968 20.5535 17.2657C20.5402 17.3129 20.4286 17.4381 20.3441 17.5995L20.1496 17.9688ZM9.42408 17.2444L10.1944 17.5783C10.2986 17.6244 10.604 17.7282 10.6582 17.7984C10.4772 17.7984 10.4654 17.7931 10.406 17.9211C10.3434 18.0561 10.0763 18.5742 10.0524 18.6719C10.0943 18.7313 10.1421 18.7625 10.1645 18.8424C10.0718 18.7958 9.68271 18.6602 9.62604 18.5867C9.79836 18.5867 9.82235 18.5885 9.88158 18.4671C9.94008 18.3473 10.2248 17.7729 10.2319 17.6918C10.1227 17.6677 10.0869 17.6426 9.99279 17.5993C9.90719 17.5599 9.83887 17.5394 9.76067 17.5001L9.50228 18.0217C9.47856 18.0703 9.46253 18.1028 9.43879 18.1532C9.4311 18.1695 9.41977 18.194 9.411 18.2122C9.28057 18.4826 9.39634 18.3443 9.44654 18.5228L8.98196 18.3247C8.93855 18.2956 8.94975 18.3177 8.93044 18.2671H9.13239C9.14607 18.2113 9.19658 18.1094 9.22244 18.0543C9.25708 17.9805 9.29913 17.9132 9.33119 17.838L9.53629 17.4149L9.45087 17.3042C9.42987 17.2679 9.43075 17.2565 9.42408 17.2444V17.2444ZM18.0853 15.3482C18.0853 15.1894 18.12 15.1564 18.2872 15.1564C18.4907 15.1564 18.6014 15.3022 18.6014 15.4973C18.7278 15.5 18.7719 15.5813 18.893 15.753C18.8564 15.805 18.8195 15.8536 18.7815 15.9028C18.7273 15.9728 18.7187 16.0062 18.6014 16.0087C18.6014 16.4161 18.0853 16.4443 18.0853 16.2004C18.0853 16.0335 18.1407 16.0991 18.3096 16.1365L18.3808 16.0546C18.3524 15.9513 18.3362 15.9717 18.2872 15.9022C18.4282 15.8664 18.4423 15.6432 18.2872 15.6039C18.3228 15.5534 18.4284 15.472 18.3361 15.409C18.2465 15.3479 18.0853 15.4919 18.0853 15.3482ZM17.5467 15.1138C18.001 15.2143 17.8907 15.4316 18.1077 15.5826C18.0292 15.6939 17.9403 15.7667 18.1301 15.9235C17.9997 15.9565 17.9589 16.2196 17.7547 16.3339C17.6812 16.3751 17.6328 16.3732 17.5467 16.3922C17.5574 16.5134 17.7307 16.8703 17.4747 17.1334C17.1324 17.4852 16.3126 17.445 16.3126 16.4987C16.2613 16.5164 16.2956 16.5054 16.2603 16.5343C16.2283 16.5604 16.259 16.5429 16.2137 16.5752C16.0761 16.6737 15.7665 16.6583 15.709 16.3475C15.6711 16.1427 15.6903 15.9874 15.46 15.9874C15.2792 15.9874 15.1614 16.2004 15.3478 16.2004C15.4703 16.2004 15.317 16.1276 15.5497 16.1791C15.5641 16.2363 15.5722 16.2193 15.5722 16.2643C15.5722 16.4988 15.0112 16.4798 15.0112 16.1791V16.0513H12.0269C11.9444 16.0513 11.9596 16.0968 11.9596 16.2004H11.4884C11.4884 15.9464 11.5075 15.9874 11.264 15.9874C11.2099 15.9107 11.1613 15.8301 11.107 15.753C11.1368 15.7204 11.116 15.7442 11.1443 15.7033C11.1635 15.6755 11.1682 15.6663 11.1878 15.638C11.2244 15.585 11.2348 15.5711 11.264 15.5186C11.5075 15.5186 11.4884 15.5596 11.4884 15.3056H11.9596V15.4547H12.2962C12.2962 15.0624 12.2289 15.5821 12.2289 14.986H12.3859V15.1777H12.6328V15.0286H13.0591V15.1777H13.3284V14.986H13.4854V15.2843C13.3824 15.2924 13.3957 15.2856 13.3957 15.4547H15.0112C15.0112 15.2445 15.021 15.0925 15.3702 15.0925C15.5819 15.0925 15.6438 15.3482 15.46 15.3482C15.4207 15.3482 15.258 15.2201 15.258 15.3908C15.258 15.4783 15.3814 15.5186 15.4824 15.5186C15.6826 15.5186 15.6786 15.3368 15.706 15.177C15.7216 15.0864 15.733 15.0386 15.7896 14.9794C15.8959 14.8682 16.0857 14.833 16.2204 14.9458C16.2238 14.9487 16.2282 14.9534 16.2317 14.9563C16.2854 15.0011 16.2514 14.9918 16.3126 15.0073C16.3126 13.796 17.7697 14.011 17.5958 14.926C17.5756 15.0321 17.5543 15.0275 17.5467 15.1138V15.1138ZM27.2177 16.4348H24.1212C24.0481 16.4348 24.0314 16.3841 24.0314 16.3283C24.0314 16.212 24.1974 16.2423 24.323 16.243L27.1055 16.2431C27.2079 16.0403 27.1344 15.7687 27.679 15.1046C28.1633 14.514 29.4726 13.9816 29.5991 14.1974C29.7494 14.4537 28.9883 14.2475 28.0964 14.9895L27.8137 15.275C27.6028 15.531 27.3946 15.9172 27.3364 16.2493C27.3206 16.3394 27.3152 16.4348 27.2177 16.4348V16.4348ZM3.00673 16.2431L5.76669 16.243C5.94132 16.2425 6.08079 16.2043 6.08079 16.3496C6.08079 16.3994 6.04356 16.4348 5.99103 16.4348H2.89455C2.77393 16.4348 2.78052 16.2231 2.71814 16.0483C2.60793 15.7396 2.53714 15.5789 2.3178 15.2993C2.26094 15.2268 2.2433 15.2139 2.18215 15.1511L2.02509 15.002C1.17121 14.2517 0.359579 14.4592 0.513055 14.1974C0.639782 13.9812 1.68659 14.4895 1.94603 14.6722C2.41445 15.0022 2.77672 15.4684 2.93968 16.0085C2.96124 16.0799 2.97635 16.1829 3.00673 16.2431V16.2431ZM4.44279 13.3028C4.60028 13.382 4.60625 13.3304 4.66718 13.4094H4.08378C4.10026 13.3958 4.08742 13.4031 4.12031 13.3802C4.2866 13.264 4.23671 13.3864 4.37892 13.0504L4.88509 11.8905C4.98075 11.6614 5.06593 11.5667 5.18969 11.8692L5.74355 13.133C5.8897 13.4531 5.88221 13.2683 5.99103 13.4094H5.29545C5.34879 13.3402 5.29247 13.3876 5.39263 13.3525C5.45937 13.3291 5.46586 13.3299 5.51984 13.3028C5.51508 13.2487 5.36904 12.8128 5.27301 12.8128H4.68961C4.60901 12.8128 4.59297 12.9245 4.54538 13.038C4.5132 13.1148 4.44921 13.2295 4.44279 13.3028V13.3028ZM12.7001 12.2162V11.7049H14.3381V12.2162C14.276 12.1949 14.3057 12.2223 14.2615 12.1398C14.0719 11.7863 14.2599 11.8327 13.7098 11.8327C13.6581 11.8327 13.6425 11.8476 13.6425 11.8967V13.1963C13.6425 13.3772 13.8469 13.2963 13.9342 13.4094H13.104C13.1315 13.3866 13.1338 13.3844 13.1711 13.3666C13.2085 13.3489 13.2032 13.3532 13.2515 13.3364C13.3228 13.3116 13.3957 13.3066 13.3957 13.2389V11.8327H12.9245C12.9048 11.9128 12.8659 11.9648 12.8273 12.0387C12.747 12.192 12.7761 12.1901 12.7001 12.2162V12.2162ZM2.3336 12.2162V11.7049H3.9716V12.2162C3.86972 12.1904 3.94443 12.2275 3.83697 12.0245C3.81675 11.9863 3.80819 11.9682 3.78722 11.9226C3.72998 11.7982 3.79608 11.8327 3.276 11.8327V13.2389C3.276 13.3193 3.37303 13.3116 3.48514 13.3599C3.53383 13.3809 3.53637 13.3835 3.5677 13.4094H2.73747L2.85181 13.3475C2.91411 13.3231 2.93463 13.3085 3.00673 13.3028V11.8327C2.42842 11.8327 2.60787 11.7591 2.41717 12.1251C2.37734 12.2016 2.37732 12.2012 2.3336 12.2162V12.2162ZM11.107 12.4506V12.6211C11.107 13.3487 11.8544 13.4465 12.152 13.2085C12.1908 13.1775 12.3281 12.9507 12.3411 12.898H12.3859C12.3831 13.0186 12.3411 13.2003 12.3411 13.3242C11.9547 13.4096 12.2727 13.4307 11.623 13.4307C11.3186 13.4307 11.0044 13.2191 10.8913 12.9536C10.6112 12.2959 11.2012 11.6836 11.7128 11.6836C11.9587 11.6836 12.139 11.6829 12.3411 11.8114V12.2375C12.2879 12.2193 12.3108 12.2299 12.2804 12.1886C12.1955 12.0732 12.1807 11.7901 11.7577 11.7901C11.3985 11.7901 11.107 12.1098 11.107 12.4506V12.4506ZM14.6522 11.7049C15.0512 11.7049 15.5679 11.651 15.8333 11.7979C16.0751 11.9317 16.0501 12.2379 15.8556 12.3788C15.824 12.4018 15.7933 12.4192 15.7577 12.435L15.6395 12.4932C15.8428 12.5093 16.0515 12.6095 16.1269 12.7549C16.2298 12.9532 16.134 13.1464 15.9928 13.2548C15.8199 13.3875 15.6092 13.4102 15.3927 13.4094C15.1385 13.4085 14.8841 13.4094 14.6298 13.4094L14.7226 13.3484C14.765 13.3289 14.809 13.3128 14.8541 13.3028V11.8327C14.6175 11.7138 14.7272 11.7976 14.6522 11.7049V11.7049ZM25.7367 11.7049H26.4547C26.4057 11.7685 26.3056 11.795 26.2304 11.8327V13.0046C26.3002 12.9601 26.4065 12.8136 26.4719 12.7439C26.5601 12.65 26.6222 12.5748 26.7083 12.4783C26.7518 12.4295 27.1728 11.9917 27.1728 11.9392C27.1728 11.7243 27.0525 11.8398 26.9484 11.7049H27.6664C27.5984 11.7931 27.442 11.7845 27.442 11.8753V13.2389C27.442 13.3297 27.5984 13.3212 27.6664 13.4094H26.9484C26.9927 13.352 27.0458 13.3453 27.1728 13.2815V12.1523C27.0846 12.1747 26.9861 12.3371 26.9203 12.4026L26.3255 13.0736C26.0684 13.322 26.3801 13.3127 26.4547 13.4094H25.7367C25.8048 13.3212 25.9611 13.3297 25.9611 13.2389V11.8753C25.9611 11.7845 25.8048 11.7931 25.7367 11.7049V11.7049ZM24.6597 11.7049H25.3777C25.3097 11.7931 25.1533 11.7845 25.1533 11.8753V13.2389C25.1533 13.3512 25.3067 13.3173 25.3777 13.4094H24.6597C24.7277 13.3212 24.8841 13.3297 24.8841 13.2389V11.8753C24.8841 11.762 24.7489 11.8314 24.6597 11.7049ZM22.8197 11.7049H23.6051L23.3134 11.8327V12.408C23.7326 12.408 24.368 12.3938 24.368 12.9193C24.368 13.1979 24.0967 13.3455 23.8396 13.3977C23.6526 13.4356 23.0546 13.4094 22.8197 13.4094C22.8878 13.3212 23.0441 13.3297 23.0441 13.2389V11.8753C23.0441 11.7845 22.8878 11.7931 22.8197 11.7049V11.7049ZM20.5759 11.7049H21.2715C21.189 11.8218 21.0696 11.7614 21.0696 11.8753V12.4719C22.1412 12.4719 21.9908 12.5478 21.9896 12.195C21.9892 12.0742 21.9895 11.9535 21.9895 11.8327C21.9136 11.8135 21.8094 11.7677 21.7651 11.7049H22.4607C22.4051 11.7837 22.348 11.7879 22.2588 11.8327V13.3028L22.4832 13.4094H21.7651C21.8332 13.3212 21.9895 13.3297 21.9895 13.2389V12.5997H21.0696V13.3028C21.1498 13.3206 21.2291 13.3544 21.2715 13.4094H20.5759C20.625 13.3457 20.7251 13.3193 20.8003 13.2815V11.8327C20.7243 11.8135 20.6202 11.7677 20.5759 11.7049ZM18.3096 11.7049H19.0277C18.9596 11.7931 18.8033 11.7845 18.8033 11.8753V12.4719H19.7233V11.8753C19.7233 11.7845 19.5669 11.7931 19.4989 11.7049H20.2169C20.1489 11.7931 19.9925 11.7845 19.9925 11.8753V13.2389C19.9925 13.3297 20.1489 13.3212 20.2169 13.4094H19.4989C19.5628 13.3265 19.7233 13.3349 19.7233 13.2389V12.5997H18.8033V13.2389C18.8033 13.3297 18.9596 13.3212 19.0277 13.4094H18.3096C18.3777 13.3212 18.534 13.3297 18.534 13.2389V11.8753C18.534 11.7845 18.3777 11.7931 18.3096 11.7049ZM16.4921 11.7049H17.8609V12.131C17.7823 12.104 17.8549 12.1617 17.7876 12.0728C17.5781 11.7963 17.9282 11.8327 16.9858 11.8327V12.4719C17.4625 12.4719 17.4293 12.5138 17.5243 12.3654C17.5572 12.314 17.5654 12.2769 17.6365 12.2588C17.6365 12.4212 17.6757 12.6909 17.6141 12.8128C17.5347 12.7576 17.5088 12.5997 17.4121 12.5997H16.9858V13.2815H17.6814C17.7815 13.2815 17.8278 13.0105 17.9282 12.9406V13.4094H16.4921C16.5602 13.3212 16.7165 13.3297 16.7165 13.2389V11.8753C16.7165 11.762 16.5814 11.8314 16.4921 11.7049V11.7049ZM8.549 11.7049H9.26703C9.19899 11.7931 9.04264 11.7845 9.04264 11.8753V12.4719H9.96261V11.8753C9.96261 11.7845 9.80626 11.7931 9.73822 11.7049H10.4563C10.3882 11.7931 10.2319 11.7845 10.2319 11.8753V13.2389C10.2319 13.3297 10.3882 13.3212 10.4563 13.4094H9.73822C9.80216 13.3265 9.96261 13.3349 9.96261 13.2389V12.5997H9.04264V13.2389C9.04264 13.3297 9.19899 13.3212 9.26703 13.4094H8.549C8.61703 13.3212 8.77338 13.3297 8.77338 13.2389V11.8753C8.77338 11.7845 8.61703 11.7931 8.549 11.7049V11.7049ZM6.75394 11.8327V12.9832C6.86732 12.9545 7.29362 12.4296 7.39177 12.3106L7.63635 12.0314C7.72196 11.939 7.71878 11.994 7.71878 11.8327C7.63327 11.8138 7.54042 11.7702 7.4944 11.7049L8.18998 11.7475C8.11796 11.7634 7.9656 11.7977 7.9656 11.8753V13.2389C7.9656 13.3297 8.12194 13.3212 8.18998 13.4094H7.4944C7.54348 13.3457 7.64358 13.3193 7.71878 13.2815V12.1523C7.64895 12.17 7.6208 12.2065 7.58065 12.2555L7.222 12.6607C7.15174 12.7433 6.75394 13.1381 6.75394 13.2389C6.75394 13.3297 6.91027 13.3212 6.97832 13.4094H6.2603L6.38427 13.3353C6.43768 13.3094 6.48468 13.2956 6.48468 13.2389V11.8753C6.48468 11.8126 6.44566 11.8125 6.39574 11.7894C6.3904 11.7869 6.34128 11.7668 6.33443 11.7623C6.29035 11.7338 6.30195 11.7553 6.28273 11.7049H6.97832C6.92923 11.7685 6.82912 11.795 6.75394 11.8327V11.8327ZM26.2528 11.1722H26.4772C26.4772 11.2582 26.4864 11.3258 26.527 11.3806C26.6263 11.5146 26.9484 11.535 26.9484 11.1722H27.1728C27.1728 11.6873 26.2528 11.6873 26.2528 11.1722ZM24.0314 9.27603C24.0314 9.22615 24.0686 9.1908 24.1212 9.1908H27.2177C27.3263 9.1908 27.3377 9.39187 27.3922 9.57904C27.4559 9.79834 27.5403 9.96894 27.662 10.1538L28.0669 10.6215C28.2607 10.768 28.4382 10.9048 28.6652 11.0122L29.1946 11.2126C29.5243 11.3047 29.5248 11.2171 29.6185 11.3853C29.5393 11.5275 29.5511 11.5317 29.0746 11.3905C28.7598 11.2972 28.7128 11.2612 28.4667 11.1367C28.387 11.0963 28.3537 11.0859 28.2815 11.0356C27.7736 10.6815 27.4895 10.4018 27.2463 9.82408C27.2159 9.7519 27.194 9.69423 27.1698 9.61972C27.1504 9.55961 27.1329 9.45819 27.1055 9.40387C26.6549 9.40387 24.2876 9.43425 24.0538 9.38256C24.0421 9.33477 24.0314 9.33358 24.0314 9.27603V9.27603ZM5.90128 9.40387H2.98431C2.97893 9.63267 2.77547 10.0314 2.67753 10.1992C2.51843 10.4717 2.25433 10.7304 2.00039 10.9198L1.45504 11.2329C1.26274 11.3177 0.819961 11.4918 0.560975 11.4918C0.550353 11.4768 0.361852 11.3175 0.65932 11.2656C1.04587 11.1983 1.37639 11.0669 1.70103 10.8699C2.05966 10.6522 2.35283 10.3509 2.54311 9.9863C2.65244 9.7768 2.72018 9.60989 2.77312 9.37378C2.79144 9.29198 2.80553 9.1908 2.89455 9.1908H5.99103C6.10046 9.1908 6.16499 9.40387 5.90128 9.40387V9.40387ZM15.9985 8.82861C15.4163 8.53608 15.4965 7.58907 16.1807 7.1054C16.4022 6.94889 16.8278 6.77767 17.2688 6.85539C17.983 6.98123 18.7364 7.42705 18.4897 8.23253C18.4475 8.37024 18.334 8.56222 18.2376 8.65371C17.8371 9.03379 17.0967 8.93689 16.7962 8.51862C16.6575 8.32565 16.609 7.96512 16.7891 7.76829C16.8691 7.68088 16.9341 7.70076 17.0307 7.65678C16.9971 7.77622 16.8869 7.82762 16.8559 8.00273C16.7852 8.40207 17.2135 8.79504 17.8057 8.62708C18.0058 8.57035 18.1573 8.44485 18.2468 8.27892C18.449 7.90396 18.2784 7.48686 18.014 7.31968C17.6984 7.12017 17.588 7.06143 17.1875 7.0599C16.8346 7.05856 16.5644 7.19819 16.3576 7.33724C16.1428 7.48157 15.9647 7.67792 15.8828 7.9517C15.8452 8.07725 15.8252 8.26579 15.8532 8.43393C15.8705 8.53738 15.8766 8.55584 15.9113 8.6344C15.9401 8.69966 15.9796 8.75142 15.9985 8.82861V8.82861ZM11.6679 7.82723C11.6679 8.15557 11.7165 8.40657 12.0877 8.57912C12.1849 8.62428 12.2447 8.63343 12.3731 8.65045C12.5737 8.67705 12.7965 8.59619 12.906 8.51276C13.1293 8.34261 13.2122 8.11225 13.082 7.84808C13.0469 7.77693 12.9919 7.73715 12.9693 7.65678C13.3261 7.68499 13.3928 8.12564 13.2471 8.41059C12.9822 8.92895 12.0735 9.11621 11.6136 8.45405C11.4589 8.23123 11.4057 7.91709 11.5076 7.63236C11.6776 7.15708 12.4068 6.82585 12.8572 6.82585C13.4691 6.82585 13.9849 7.07731 14.2445 7.59648C14.391 7.88944 14.4474 8.27705 14.2705 8.57271C14.1832 8.71868 14.0982 8.75993 13.9566 8.84992C13.9748 8.78531 14.0564 8.66302 14.0917 8.57333C14.2745 8.10751 14.0833 7.74843 13.7493 7.42756C13.3011 6.99707 12.5198 6.92087 12.004 7.29415C11.8653 7.39454 11.6679 7.60143 11.6679 7.82723V7.82723ZM9.67092 7.76331C9.2725 7.76331 9.1739 7.3798 8.99777 7.3798C8.84641 7.3798 8.86313 7.72246 8.86313 7.84854C8.86313 7.97112 8.99393 8.08798 9.08671 8.12628C9.16357 8.15799 9.20951 8.15474 9.30652 8.17322C9.39368 8.1898 9.41859 8.21676 9.49141 8.25335C9.44432 8.4208 8.99882 8.61384 8.83294 8.6934C8.38357 8.90891 7.99712 9.12689 7.40465 9.12689C6.578 9.12689 6.44035 8.51538 6.79801 8.27389C6.96162 8.16341 6.97462 8.16813 7.24757 8.16813C7.22256 8.25706 7.14513 8.2907 7.08502 8.35466C6.64407 8.82398 7.45471 9.00462 7.66154 8.71034C7.83332 8.46594 7.84584 8.09124 7.55814 7.91585C7.24882 7.72727 6.88081 7.71657 6.58364 7.92121C6.10017 8.25417 6.40681 8.57775 5.92433 8.57351L2.5131 8.55163C2.45249 8.55163 2.45124 8.5618 2.40091 8.57294C2.35817 8.65752 2.36593 8.66789 2.35223 8.78239C2.25964 9.55617 1.73579 10.225 0.968507 10.4939C0.722502 10.5802 0.286489 10.6596 0 10.6822V14.8369C0.255681 14.9533 1.07525 14.842 1.71105 15.4493C1.90449 15.634 2.06944 15.8681 2.16835 16.1443C2.24412 16.3558 2.29882 16.5955 2.32969 16.822C2.34158 16.9093 2.33472 17.0314 2.42335 17.0314C2.80351 17.0314 5.29185 17.0602 5.55523 17.0224C5.69817 17.0018 6.29943 16.9869 6.42768 17.0216C6.65326 17.0825 6.53977 17.5421 7.0006 18.1607L7.28574 18.5078C7.59633 18.8565 7.97014 19.1437 8.36949 19.3963C8.82808 19.6865 9.31882 19.9186 9.83441 20.1146C9.94898 20.1581 10.0419 20.1903 10.158 20.2335C10.8286 20.4827 11.5526 20.648 12.264 20.7691C12.4061 20.7933 12.5131 20.8095 12.6513 20.8275C12.7673 20.8427 12.9292 20.8739 13.0401 20.8844C13.889 20.9651 14.8567 21.0415 15.7304 20.9741C15.8024 20.9685 15.8805 20.9774 15.9524 20.9718C16.2999 20.945 16.7138 20.9265 17.0565 20.8696C17.3358 20.8233 17.632 20.7989 17.8879 20.7429C18.9617 20.5081 19.818 20.3202 20.8079 19.8509C21.3676 19.5855 21.9308 19.2678 22.3762 18.8473C22.4307 18.7958 22.4646 18.7847 22.5109 18.7408L22.8419 18.3734C22.8835 18.3219 22.9084 18.3008 22.9503 18.2419C23.1528 17.9576 23.3169 17.6585 23.4077 17.3127C23.5183 16.8916 23.481 17.01 24.5475 17.01C24.8866 17.01 25.1473 17.0314 25.4899 17.0314H27.644C27.644 16.4594 27.8758 15.8409 28.2887 15.4491C28.4691 15.278 28.7536 15.1134 29.0153 15.0311C29.1854 14.9776 29.2732 14.948 29.4775 14.916L30 14.8582V10.874C30 10.6507 29.8609 10.6534 29.6427 10.638C28.8641 10.583 28.1306 10.1379 27.8424 9.44978C27.754 9.23872 27.6801 9.00356 27.6406 8.76786C27.6192 8.64043 27.6439 8.55163 27.5093 8.55163C26.3629 8.55163 25.2855 8.56866 24.1435 8.57299C23.6362 8.57491 23.8439 8.48977 23.6802 8.20334C23.2891 7.51903 22.1915 7.72579 22.1915 8.33857C22.1915 8.54563 22.3349 8.7745 22.4986 8.83585C22.6915 8.90817 23.0441 8.80671 23.0441 8.61554C23.0441 8.38003 22.815 8.35258 22.73 8.23204C23.022 8.09901 23.3807 8.30322 23.3807 8.61554C23.3807 8.96597 22.9761 9.12689 22.6178 9.12689C21.9086 9.12689 21.2653 8.77361 20.7007 8.45447C20.6052 8.4005 20.5388 8.38213 20.5086 8.27466C20.6482 8.07671 21.1369 8.24711 21.1369 7.78461C21.1369 7.34957 21.0199 7.2493 20.7464 7.58431C20.5382 7.83939 20.1571 7.77023 19.9095 7.6504C19.8461 7.6197 19.7824 7.56586 19.7263 7.52602C19.5445 7.39676 19.2616 7.18416 19.1207 7.01453L18.8879 6.7668C18.678 6.56351 18.4228 6.3804 18.1493 6.25375C17.2848 5.85361 16.231 5.89443 15.5845 6.62447C15.4251 6.80443 15.2581 6.99473 15.1385 7.20238C15.0933 7.28092 15.0287 7.42165 14.9663 7.46504C14.9048 7.21431 14.6518 6.90547 14.4921 6.70091C13.8952 5.93636 12.8048 5.83865 11.9374 6.20823C11.4122 6.43203 11.2021 6.68172 10.8656 7.04408L10.6805 7.2305C10.4586 7.45295 10.0405 7.76331 9.67092 7.76331V7.76331Z"/>
</mask>
<path fill-rule="evenodd" clip-rule="evenodd" d="M14.7868 19.3537C14.6739 19.7554 13.5688 19.718 13.782 18.8683C13.8101 18.7564 13.8794 18.6374 13.9627 18.5499C14.1546 18.3483 14.8317 18.2103 14.8317 18.9489C14.5348 18.9489 14.3085 18.9276 14.0015 18.9276C14.0015 19.6317 14.7323 19.358 14.7868 19.3537V19.3537ZM19.2745 18.5654C19.2745 18.751 19.2291 18.9074 19.0891 19.0285C18.773 19.3017 18.263 19.1821 18.1101 18.8188C17.8595 18.2235 18.4297 17.8123 18.9008 18.0041C19.0943 18.0828 19.2745 18.3114 19.2745 18.5654ZM15.3029 20.2272H15.2356C15.2334 20.1334 15.2132 20.1276 15.2132 20.0142C15.5094 20.0142 15.4991 20.0405 15.6543 19.6643C15.7049 19.5418 15.5993 19.3827 15.5039 19.2268L15.1543 18.6C15.1026 18.5126 15.0501 18.5037 14.9439 18.4801V18.4375C15.1914 18.4375 15.366 18.4162 15.5946 18.4162V18.4589C15.4864 18.4674 15.4912 18.501 15.3927 18.5228C15.3995 18.6003 15.6689 19.056 15.728 19.1631C15.7498 19.2027 15.7544 19.2294 15.7741 19.2685C15.8563 19.2113 16.0606 18.5609 16.0658 18.5015C15.92 18.4692 15.8891 18.4612 15.8639 18.3949H16.38C16.3301 18.436 16.3344 18.4328 16.2698 18.4608C16.1312 18.5208 16.1751 18.5334 16.0691 18.8028L15.774 19.5879C15.7397 19.6771 15.7064 19.755 15.6705 19.8519C15.6139 20.0046 15.4994 20.2272 15.3029 20.2272V20.2272ZM10.9723 18.5228C10.9723 18.6693 10.9812 18.799 11.1191 18.8947C11.3766 19.0735 11.5532 18.9944 11.6904 18.9915C11.3468 19.4368 10.35 18.9843 10.8379 18.246C11.1209 17.8179 11.825 17.8933 11.825 18.3523C11.825 18.5499 11.8128 18.4916 11.8025 18.608C11.6144 18.604 11.172 18.4302 10.9948 18.4162C10.983 18.464 10.9723 18.4652 10.9723 18.5228V18.5228ZM12.2064 18.2884C12.2683 18.2871 12.5482 18.2213 12.5879 18.2032V18.3736C12.6944 18.3652 12.6076 18.3723 12.7509 18.3154C13.6173 17.9709 13.6672 19.4602 12.8123 19.4602C12.6605 19.4602 12.5539 19.4235 12.4308 19.3963C12.4012 19.5171 12.3635 19.7438 12.3635 19.8863C12.4216 19.9233 12.5029 19.9622 12.543 20.0142C12.3448 20.01 12.113 19.9331 11.9147 19.929C11.9748 19.8511 12.0349 19.8952 12.0955 19.8449C12.1442 19.8044 12.2794 18.8205 12.3061 18.6813C12.3184 18.6174 12.3413 18.4983 12.3212 18.4542L12.2353 18.3463C12.2039 18.2978 12.22 18.313 12.2064 18.2884V18.2884ZM17.5019 18.331L17.6337 19.2072C17.6601 19.3264 17.6568 19.2652 17.7837 19.3204C17.8434 19.3464 17.8159 19.3351 17.8385 19.3537L17.255 19.4389C17.2758 19.3653 17.2927 19.3711 17.4121 19.3111C17.3771 19.1684 17.3606 19.0117 17.3382 18.8486C17.3176 18.6988 17.2775 18.5523 17.2775 18.3736C17.107 18.3736 17.0226 18.4162 16.8736 18.4162C16.8736 18.6626 17.076 19.5455 16.6268 19.5455C16.5377 19.5455 16.558 19.4392 16.537 19.3537C16.9598 19.3203 16.7608 18.6862 16.739 18.4375C16.6717 18.4227 16.6111 18.4008 16.537 18.3949V18.3523C16.7167 18.3523 16.9187 18.308 17.0941 18.2847L17.6589 18.2032C17.6324 18.2729 17.5924 18.2855 17.5019 18.331V18.331ZM20.1496 17.9688C20.3741 18.0711 20.8461 18.269 21.092 18.2884L20.8256 18.4213C20.6795 18.4784 20.7124 18.4238 20.5666 18.3612C20.4643 18.3173 20.3775 18.2854 20.2836 18.2464C20.1993 18.2114 20.0688 18.1414 19.9701 18.1393C20.2103 18.5704 20.076 18.5867 20.374 18.5867V18.6293C20.2141 18.6419 20.0077 18.8074 19.8355 18.8211L19.9701 18.6506C19.8947 18.5683 19.6269 17.9476 19.5437 17.7984H19.3418C19.4228 17.7316 19.767 17.5996 19.8803 17.5427C19.8656 17.7111 19.7241 17.6094 19.8077 17.801L19.9476 18.0966C20.0218 18.045 20.2038 17.6468 20.2618 17.5427C20.2556 17.5387 20.2376 17.5291 20.2335 17.527C20.2304 17.5254 20.2225 17.5216 20.2188 17.5196C20.1202 17.4683 20.1457 17.5021 20.1271 17.4362C20.2678 17.4051 20.4128 17.2968 20.5535 17.2657C20.5402 17.3129 20.4286 17.4381 20.3441 17.5995L20.1496 17.9688ZM9.42408 17.2444L10.1944 17.5783C10.2986 17.6244 10.604 17.7282 10.6582 17.7984C10.4772 17.7984 10.4654 17.7931 10.406 17.9211C10.3434 18.0561 10.0763 18.5742 10.0524 18.6719C10.0943 18.7313 10.1421 18.7625 10.1645 18.8424C10.0718 18.7958 9.68271 18.6602 9.62604 18.5867C9.79836 18.5867 9.82235 18.5885 9.88158 18.4671C9.94008 18.3473 10.2248 17.7729 10.2319 17.6918C10.1227 17.6677 10.0869 17.6426 9.99279 17.5993C9.90719 17.5599 9.83887 17.5394 9.76067 17.5001L9.50228 18.0217C9.47856 18.0703 9.46253 18.1028 9.43879 18.1532C9.4311 18.1695 9.41977 18.194 9.411 18.2122C9.28057 18.4826 9.39634 18.3443 9.44654 18.5228L8.98196 18.3247C8.93855 18.2956 8.94975 18.3177 8.93044 18.2671H9.13239C9.14607 18.2113 9.19658 18.1094 9.22244 18.0543C9.25708 17.9805 9.29913 17.9132 9.33119 17.838L9.53629 17.4149L9.45087 17.3042C9.42987 17.2679 9.43075 17.2565 9.42408 17.2444V17.2444ZM18.0853 15.3482C18.0853 15.1894 18.12 15.1564 18.2872 15.1564C18.4907 15.1564 18.6014 15.3022 18.6014 15.4973C18.7278 15.5 18.7719 15.5813 18.893 15.753C18.8564 15.805 18.8195 15.8536 18.7815 15.9028C18.7273 15.9728 18.7187 16.0062 18.6014 16.0087C18.6014 16.4161 18.0853 16.4443 18.0853 16.2004C18.0853 16.0335 18.1407 16.0991 18.3096 16.1365L18.3808 16.0546C18.3524 15.9513 18.3362 15.9717 18.2872 15.9022C18.4282 15.8664 18.4423 15.6432 18.2872 15.6039C18.3228 15.5534 18.4284 15.472 18.3361 15.409C18.2465 15.3479 18.0853 15.4919 18.0853 15.3482ZM17.5467 15.1138C18.001 15.2143 17.8907 15.4316 18.1077 15.5826C18.0292 15.6939 17.9403 15.7667 18.1301 15.9235C17.9997 15.9565 17.9589 16.2196 17.7547 16.3339C17.6812 16.3751 17.6328 16.3732 17.5467 16.3922C17.5574 16.5134 17.7307 16.8703 17.4747 17.1334C17.1324 17.4852 16.3126 17.445 16.3126 16.4987C16.2613 16.5164 16.2956 16.5054 16.2603 16.5343C16.2283 16.5604 16.259 16.5429 16.2137 16.5752C16.0761 16.6737 15.7665 16.6583 15.709 16.3475C15.6711 16.1427 15.6903 15.9874 15.46 15.9874C15.2792 15.9874 15.1614 16.2004 15.3478 16.2004C15.4703 16.2004 15.317 16.1276 15.5497 16.1791C15.5641 16.2363 15.5722 16.2193 15.5722 16.2643C15.5722 16.4988 15.0112 16.4798 15.0112 16.1791V16.0513H12.0269C11.9444 16.0513 11.9596 16.0968 11.9596 16.2004H11.4884C11.4884 15.9464 11.5075 15.9874 11.264 15.9874C11.2099 15.9107 11.1613 15.8301 11.107 15.753C11.1368 15.7204 11.116 15.7442 11.1443 15.7033C11.1635 15.6755 11.1682 15.6663 11.1878 15.638C11.2244 15.585 11.2348 15.5711 11.264 15.5186C11.5075 15.5186 11.4884 15.5596 11.4884 15.3056H11.9596V15.4547H12.2962C12.2962 15.0624 12.2289 15.5821 12.2289 14.986H12.3859V15.1777H12.6328V15.0286H13.0591V15.1777H13.3284V14.986H13.4854V15.2843C13.3824 15.2924 13.3957 15.2856 13.3957 15.4547H15.0112C15.0112 15.2445 15.021 15.0925 15.3702 15.0925C15.5819 15.0925 15.6438 15.3482 15.46 15.3482C15.4207 15.3482 15.258 15.2201 15.258 15.3908C15.258 15.4783 15.3814 15.5186 15.4824 15.5186C15.6826 15.5186 15.6786 15.3368 15.706 15.177C15.7216 15.0864 15.733 15.0386 15.7896 14.9794C15.8959 14.8682 16.0857 14.833 16.2204 14.9458C16.2238 14.9487 16.2282 14.9534 16.2317 14.9563C16.2854 15.0011 16.2514 14.9918 16.3126 15.0073C16.3126 13.796 17.7697 14.011 17.5958 14.926C17.5756 15.0321 17.5543 15.0275 17.5467 15.1138V15.1138ZM27.2177 16.4348H24.1212C24.0481 16.4348 24.0314 16.3841 24.0314 16.3283C24.0314 16.212 24.1974 16.2423 24.323 16.243L27.1055 16.2431C27.2079 16.0403 27.1344 15.7687 27.679 15.1046C28.1633 14.514 29.4726 13.9816 29.5991 14.1974C29.7494 14.4537 28.9883 14.2475 28.0964 14.9895L27.8137 15.275C27.6028 15.531 27.3946 15.9172 27.3364 16.2493C27.3206 16.3394 27.3152 16.4348 27.2177 16.4348V16.4348ZM3.00673 16.2431L5.76669 16.243C5.94132 16.2425 6.08079 16.2043 6.08079 16.3496C6.08079 16.3994 6.04356 16.4348 5.99103 16.4348H2.89455C2.77393 16.4348 2.78052 16.2231 2.71814 16.0483C2.60793 15.7396 2.53714 15.5789 2.3178 15.2993C2.26094 15.2268 2.2433 15.2139 2.18215 15.1511L2.02509 15.002C1.17121 14.2517 0.359579 14.4592 0.513055 14.1974C0.639782 13.9812 1.68659 14.4895 1.94603 14.6722C2.41445 15.0022 2.77672 15.4684 2.93968 16.0085C2.96124 16.0799 2.97635 16.1829 3.00673 16.2431V16.2431ZM4.44279 13.3028C4.60028 13.382 4.60625 13.3304 4.66718 13.4094H4.08378C4.10026 13.3958 4.08742 13.4031 4.12031 13.3802C4.2866 13.264 4.23671 13.3864 4.37892 13.0504L4.88509 11.8905C4.98075 11.6614 5.06593 11.5667 5.18969 11.8692L5.74355 13.133C5.8897 13.4531 5.88221 13.2683 5.99103 13.4094H5.29545C5.34879 13.3402 5.29247 13.3876 5.39263 13.3525C5.45937 13.3291 5.46586 13.3299 5.51984 13.3028C5.51508 13.2487 5.36904 12.8128 5.27301 12.8128H4.68961C4.60901 12.8128 4.59297 12.9245 4.54538 13.038C4.5132 13.1148 4.44921 13.2295 4.44279 13.3028V13.3028ZM12.7001 12.2162V11.7049H14.3381V12.2162C14.276 12.1949 14.3057 12.2223 14.2615 12.1398C14.0719 11.7863 14.2599 11.8327 13.7098 11.8327C13.6581 11.8327 13.6425 11.8476 13.6425 11.8967V13.1963C13.6425 13.3772 13.8469 13.2963 13.9342 13.4094H13.104C13.1315 13.3866 13.1338 13.3844 13.1711 13.3666C13.2085 13.3489 13.2032 13.3532 13.2515 13.3364C13.3228 13.3116 13.3957 13.3066 13.3957 13.2389V11.8327H12.9245C12.9048 11.9128 12.8659 11.9648 12.8273 12.0387C12.747 12.192 12.7761 12.1901 12.7001 12.2162V12.2162ZM2.3336 12.2162V11.7049H3.9716V12.2162C3.86972 12.1904 3.94443 12.2275 3.83697 12.0245C3.81675 11.9863 3.80819 11.9682 3.78722 11.9226C3.72998 11.7982 3.79608 11.8327 3.276 11.8327V13.2389C3.276 13.3193 3.37303 13.3116 3.48514 13.3599C3.53383 13.3809 3.53637 13.3835 3.5677 13.4094H2.73747L2.85181 13.3475C2.91411 13.3231 2.93463 13.3085 3.00673 13.3028V11.8327C2.42842 11.8327 2.60787 11.7591 2.41717 12.1251C2.37734 12.2016 2.37732 12.2012 2.3336 12.2162V12.2162ZM11.107 12.4506V12.6211C11.107 13.3487 11.8544 13.4465 12.152 13.2085C12.1908 13.1775 12.3281 12.9507 12.3411 12.898H12.3859C12.3831 13.0186 12.3411 13.2003 12.3411 13.3242C11.9547 13.4096 12.2727 13.4307 11.623 13.4307C11.3186 13.4307 11.0044 13.2191 10.8913 12.9536C10.6112 12.2959 11.2012 11.6836 11.7128 11.6836C11.9587 11.6836 12.139 11.6829 12.3411 11.8114V12.2375C12.2879 12.2193 12.3108 12.2299 12.2804 12.1886C12.1955 12.0732 12.1807 11.7901 11.7577 11.7901C11.3985 11.7901 11.107 12.1098 11.107 12.4506V12.4506ZM14.6522 11.7049C15.0512 11.7049 15.5679 11.651 15.8333 11.7979C16.0751 11.9317 16.0501 12.2379 15.8556 12.3788C15.824 12.4018 15.7933 12.4192 15.7577 12.435L15.6395 12.4932C15.8428 12.5093 16.0515 12.6095 16.1269 12.7549C16.2298 12.9532 16.134 13.1464 15.9928 13.2548C15.8199 13.3875 15.6092 13.4102 15.3927 13.4094C15.1385 13.4085 14.8841 13.4094 14.6298 13.4094L14.7226 13.3484C14.765 13.3289 14.809 13.3128 14.8541 13.3028V11.8327C14.6175 11.7138 14.7272 11.7976 14.6522 11.7049V11.7049ZM25.7367 11.7049H26.4547C26.4057 11.7685 26.3056 11.795 26.2304 11.8327V13.0046C26.3002 12.9601 26.4065 12.8136 26.4719 12.7439C26.5601 12.65 26.6222 12.5748 26.7083 12.4783C26.7518 12.4295 27.1728 11.9917 27.1728 11.9392C27.1728 11.7243 27.0525 11.8398 26.9484 11.7049H27.6664C27.5984 11.7931 27.442 11.7845 27.442 11.8753V13.2389C27.442 13.3297 27.5984 13.3212 27.6664 13.4094H26.9484C26.9927 13.352 27.0458 13.3453 27.1728 13.2815V12.1523C27.0846 12.1747 26.9861 12.3371 26.9203 12.4026L26.3255 13.0736C26.0684 13.322 26.3801 13.3127 26.4547 13.4094H25.7367C25.8048 13.3212 25.9611 13.3297 25.9611 13.2389V11.8753C25.9611 11.7845 25.8048 11.7931 25.7367 11.7049V11.7049ZM24.6597 11.7049H25.3777C25.3097 11.7931 25.1533 11.7845 25.1533 11.8753V13.2389C25.1533 13.3512 25.3067 13.3173 25.3777 13.4094H24.6597C24.7277 13.3212 24.8841 13.3297 24.8841 13.2389V11.8753C24.8841 11.762 24.7489 11.8314 24.6597 11.7049ZM22.8197 11.7049H23.6051L23.3134 11.8327V12.408C23.7326 12.408 24.368 12.3938 24.368 12.9193C24.368 13.1979 24.0967 13.3455 23.8396 13.3977C23.6526 13.4356 23.0546 13.4094 22.8197 13.4094C22.8878 13.3212 23.0441 13.3297 23.0441 13.2389V11.8753C23.0441 11.7845 22.8878 11.7931 22.8197 11.7049V11.7049ZM20.5759 11.7049H21.2715C21.189 11.8218 21.0696 11.7614 21.0696 11.8753V12.4719C22.1412 12.4719 21.9908 12.5478 21.9896 12.195C21.9892 12.0742 21.9895 11.9535 21.9895 11.8327C21.9136 11.8135 21.8094 11.7677 21.7651 11.7049H22.4607C22.4051 11.7837 22.348 11.7879 22.2588 11.8327V13.3028L22.4832 13.4094H21.7651C21.8332 13.3212 21.9895 13.3297 21.9895 13.2389V12.5997H21.0696V13.3028C21.1498 13.3206 21.2291 13.3544 21.2715 13.4094H20.5759C20.625 13.3457 20.7251 13.3193 20.8003 13.2815V11.8327C20.7243 11.8135 20.6202 11.7677 20.5759 11.7049ZM18.3096 11.7049H19.0277C18.9596 11.7931 18.8033 11.7845 18.8033 11.8753V12.4719H19.7233V11.8753C19.7233 11.7845 19.5669 11.7931 19.4989 11.7049H20.2169C20.1489 11.7931 19.9925 11.7845 19.9925 11.8753V13.2389C19.9925 13.3297 20.1489 13.3212 20.2169 13.4094H19.4989C19.5628 13.3265 19.7233 13.3349 19.7233 13.2389V12.5997H18.8033V13.2389C18.8033 13.3297 18.9596 13.3212 19.0277 13.4094H18.3096C18.3777 13.3212 18.534 13.3297 18.534 13.2389V11.8753C18.534 11.7845 18.3777 11.7931 18.3096 11.7049ZM16.4921 11.7049H17.8609V12.131C17.7823 12.104 17.8549 12.1617 17.7876 12.0728C17.5781 11.7963 17.9282 11.8327 16.9858 11.8327V12.4719C17.4625 12.4719 17.4293 12.5138 17.5243 12.3654C17.5572 12.314 17.5654 12.2769 17.6365 12.2588C17.6365 12.4212 17.6757 12.6909 17.6141 12.8128C17.5347 12.7576 17.5088 12.5997 17.4121 12.5997H16.9858V13.2815H17.6814C17.7815 13.2815 17.8278 13.0105 17.9282 12.9406V13.4094H16.4921C16.5602 13.3212 16.7165 13.3297 16.7165 13.2389V11.8753C16.7165 11.762 16.5814 11.8314 16.4921 11.7049V11.7049ZM8.549 11.7049H9.26703C9.19899 11.7931 9.04264 11.7845 9.04264 11.8753V12.4719H9.96261V11.8753C9.96261 11.7845 9.80626 11.7931 9.73822 11.7049H10.4563C10.3882 11.7931 10.2319 11.7845 10.2319 11.8753V13.2389C10.2319 13.3297 10.3882 13.3212 10.4563 13.4094H9.73822C9.80216 13.3265 9.96261 13.3349 9.96261 13.2389V12.5997H9.04264V13.2389C9.04264 13.3297 9.19899 13.3212 9.26703 13.4094H8.549C8.61703 13.3212 8.77338 13.3297 8.77338 13.2389V11.8753C8.77338 11.7845 8.61703 11.7931 8.549 11.7049V11.7049ZM6.75394 11.8327V12.9832C6.86732 12.9545 7.29362 12.4296 7.39177 12.3106L7.63635 12.0314C7.72196 11.939 7.71878 11.994 7.71878 11.8327C7.63327 11.8138 7.54042 11.7702 7.4944 11.7049L8.18998 11.7475C8.11796 11.7634 7.9656 11.7977 7.9656 11.8753V13.2389C7.9656 13.3297 8.12194 13.3212 8.18998 13.4094H7.4944C7.54348 13.3457 7.64358 13.3193 7.71878 13.2815V12.1523C7.64895 12.17 7.6208 12.2065 7.58065 12.2555L7.222 12.6607C7.15174 12.7433 6.75394 13.1381 6.75394 13.2389C6.75394 13.3297 6.91027 13.3212 6.97832 13.4094H6.2603L6.38427 13.3353C6.43768 13.3094 6.48468 13.2956 6.48468 13.2389V11.8753C6.48468 11.8126 6.44566 11.8125 6.39574 11.7894C6.3904 11.7869 6.34128 11.7668 6.33443 11.7623C6.29035 11.7338 6.30195 11.7553 6.28273 11.7049H6.97832C6.92923 11.7685 6.82912 11.795 6.75394 11.8327V11.8327ZM26.2528 11.1722H26.4772C26.4772 11.2582 26.4864 11.3258 26.527 11.3806C26.6263 11.5146 26.9484 11.535 26.9484 11.1722H27.1728C27.1728 11.6873 26.2528 11.6873 26.2528 11.1722ZM24.0314 9.27603C24.0314 9.22615 24.0686 9.1908 24.1212 9.1908H27.2177C27.3263 9.1908 27.3377 9.39187 27.3922 9.57904C27.4559 9.79834 27.5403 9.96894 27.662 10.1538L28.0669 10.6215C28.2607 10.768 28.4382 10.9048 28.6652 11.0122L29.1946 11.2126C29.5243 11.3047 29.5248 11.2171 29.6185 11.3853C29.5393 11.5275 29.5511 11.5317 29.0746 11.3905C28.7598 11.2972 28.7128 11.2612 28.4667 11.1367C28.387 11.0963 28.3537 11.0859 28.2815 11.0356C27.7736 10.6815 27.4895 10.4018 27.2463 9.82408C27.2159 9.7519 27.194 9.69423 27.1698 9.61972C27.1504 9.55961 27.1329 9.45819 27.1055 9.40387C26.6549 9.40387 24.2876 9.43425 24.0538 9.38256C24.0421 9.33477 24.0314 9.33358 24.0314 9.27603V9.27603ZM5.90128 9.40387H2.98431C2.97893 9.63267 2.77547 10.0314 2.67753 10.1992C2.51843 10.4717 2.25433 10.7304 2.00039 10.9198L1.45504 11.2329C1.26274 11.3177 0.819961 11.4918 0.560975 11.4918C0.550353 11.4768 0.361852 11.3175 0.65932 11.2656C1.04587 11.1983 1.37639 11.0669 1.70103 10.8699C2.05966 10.6522 2.35283 10.3509 2.54311 9.9863C2.65244 9.7768 2.72018 9.60989 2.77312 9.37378C2.79144 9.29198 2.80553 9.1908 2.89455 9.1908H5.99103C6.10046 9.1908 6.16499 9.40387 5.90128 9.40387V9.40387ZM15.9985 8.82861C15.4163 8.53608 15.4965 7.58907 16.1807 7.1054C16.4022 6.94889 16.8278 6.77767 17.2688 6.85539C17.983 6.98123 18.7364 7.42705 18.4897 8.23253C18.4475 8.37024 18.334 8.56222 18.2376 8.65371C17.8371 9.03379 17.0967 8.93689 16.7962 8.51862C16.6575 8.32565 16.609 7.96512 16.7891 7.76829C16.8691 7.68088 16.9341 7.70076 17.0307 7.65678C16.9971 7.77622 16.8869 7.82762 16.8559 8.00273C16.7852 8.40207 17.2135 8.79504 17.8057 8.62708C18.0058 8.57035 18.1573 8.44485 18.2468 8.27892C18.449 7.90396 18.2784 7.48686 18.014 7.31968C17.6984 7.12017 17.588 7.06143 17.1875 7.0599C16.8346 7.05856 16.5644 7.19819 16.3576 7.33724C16.1428 7.48157 15.9647 7.67792 15.8828 7.9517C15.8452 8.07725 15.8252 8.26579 15.8532 8.43393C15.8705 8.53738 15.8766 8.55584 15.9113 8.6344C15.9401 8.69966 15.9796 8.75142 15.9985 8.82861V8.82861ZM11.6679 7.82723C11.6679 8.15557 11.7165 8.40657 12.0877 8.57912C12.1849 8.62428 12.2447 8.63343 12.3731 8.65045C12.5737 8.67705 12.7965 8.59619 12.906 8.51276C13.1293 8.34261 13.2122 8.11225 13.082 7.84808C13.0469 7.77693 12.9919 7.73715 12.9693 7.65678C13.3261 7.68499 13.3928 8.12564 13.2471 8.41059C12.9822 8.92895 12.0735 9.11621 11.6136 8.45405C11.4589 8.23123 11.4057 7.91709 11.5076 7.63236C11.6776 7.15708 12.4068 6.82585 12.8572 6.82585C13.4691 6.82585 13.9849 7.07731 14.2445 7.59648C14.391 7.88944 14.4474 8.27705 14.2705 8.57271C14.1832 8.71868 14.0982 8.75993 13.9566 8.84992C13.9748 8.78531 14.0564 8.66302 14.0917 8.57333C14.2745 8.10751 14.0833 7.74843 13.7493 7.42756C13.3011 6.99707 12.5198 6.92087 12.004 7.29415C11.8653 7.39454 11.6679 7.60143 11.6679 7.82723V7.82723ZM9.67092 7.76331C9.2725 7.76331 9.1739 7.3798 8.99777 7.3798C8.84641 7.3798 8.86313 7.72246 8.86313 7.84854C8.86313 7.97112 8.99393 8.08798 9.08671 8.12628C9.16357 8.15799 9.20951 8.15474 9.30652 8.17322C9.39368 8.1898 9.41859 8.21676 9.49141 8.25335C9.44432 8.4208 8.99882 8.61384 8.83294 8.6934C8.38357 8.90891 7.99712 9.12689 7.40465 9.12689C6.578 9.12689 6.44035 8.51538 6.79801 8.27389C6.96162 8.16341 6.97462 8.16813 7.24757 8.16813C7.22256 8.25706 7.14513 8.2907 7.08502 8.35466C6.64407 8.82398 7.45471 9.00462 7.66154 8.71034C7.83332 8.46594 7.84584 8.09124 7.55814 7.91585C7.24882 7.72727 6.88081 7.71657 6.58364 7.92121C6.10017 8.25417 6.40681 8.57775 5.92433 8.57351L2.5131 8.55163C2.45249 8.55163 2.45124 8.5618 2.40091 8.57294C2.35817 8.65752 2.36593 8.66789 2.35223 8.78239C2.25964 9.55617 1.73579 10.225 0.968507 10.4939C0.722502 10.5802 0.286489 10.6596 0 10.6822V14.8369C0.255681 14.9533 1.07525 14.842 1.71105 15.4493C1.90449 15.634 2.06944 15.8681 2.16835 16.1443C2.24412 16.3558 2.29882 16.5955 2.32969 16.822C2.34158 16.9093 2.33472 17.0314 2.42335 17.0314C2.80351 17.0314 5.29185 17.0602 5.55523 17.0224C5.69817 17.0018 6.29943 16.9869 6.42768 17.0216C6.65326 17.0825 6.53977 17.5421 7.0006 18.1607L7.28574 18.5078C7.59633 18.8565 7.97014 19.1437 8.36949 19.3963C8.82808 19.6865 9.31882 19.9186 9.83441 20.1146C9.94898 20.1581 10.0419 20.1903 10.158 20.2335C10.8286 20.4827 11.5526 20.648 12.264 20.7691C12.4061 20.7933 12.5131 20.8095 12.6513 20.8275C12.7673 20.8427 12.9292 20.8739 13.0401 20.8844C13.889 20.9651 14.8567 21.0415 15.7304 20.9741C15.8024 20.9685 15.8805 20.9774 15.9524 20.9718C16.2999 20.945 16.7138 20.9265 17.0565 20.8696C17.3358 20.8233 17.632 20.7989 17.8879 20.7429C18.9617 20.5081 19.818 20.3202 20.8079 19.8509C21.3676 19.5855 21.9308 19.2678 22.3762 18.8473C22.4307 18.7958 22.4646 18.7847 22.5109 18.7408L22.8419 18.3734C22.8835 18.3219 22.9084 18.3008 22.9503 18.2419C23.1528 17.9576 23.3169 17.6585 23.4077 17.3127C23.5183 16.8916 23.481 17.01 24.5475 17.01C24.8866 17.01 25.1473 17.0314 25.4899 17.0314H27.644C27.644 16.4594 27.8758 15.8409 28.2887 15.4491C28.4691 15.278 28.7536 15.1134 29.0153 15.0311C29.1854 14.9776 29.2732 14.948 29.4775 14.916L30 14.8582V10.874C30 10.6507 29.8609 10.6534 29.6427 10.638C28.8641 10.583 28.1306 10.1379 27.8424 9.44978C27.754 9.23872 27.6801 9.00356 27.6406 8.76786C27.6192 8.64043 27.6439 8.55163 27.5093 8.55163C26.3629 8.55163 25.2855 8.56866 24.1435 8.57299C23.6362 8.57491 23.8439 8.48977 23.6802 8.20334C23.2891 7.51903 22.1915 7.72579 22.1915 8.33857C22.1915 8.54563 22.3349 8.7745 22.4986 8.83585C22.6915 8.90817 23.0441 8.80671 23.0441 8.61554C23.0441 8.38003 22.815 8.35258 22.73 8.23204C23.022 8.09901 23.3807 8.30322 23.3807 8.61554C23.3807 8.96597 22.9761 9.12689 22.6178 9.12689C21.9086 9.12689 21.2653 8.77361 20.7007 8.45447C20.6052 8.4005 20.5388 8.38213 20.5086 8.27466C20.6482 8.07671 21.1369 8.24711 21.1369 7.78461C21.1369 7.34957 21.0199 7.2493 20.7464 7.58431C20.5382 7.83939 20.1571 7.77023 19.9095 7.6504C19.8461 7.6197 19.7824 7.56586 19.7263 7.52602C19.5445 7.39676 19.2616 7.18416 19.1207 7.01453L18.8879 6.7668C18.678 6.56351 18.4228 6.3804 18.1493 6.25375C17.2848 5.85361 16.231 5.89443 15.5845 6.62447C15.4251 6.80443 15.2581 6.99473 15.1385 7.20238C15.0933 7.28092 15.0287 7.42165 14.9663 7.46504C14.9048 7.21431 14.6518 6.90547 14.4921 6.70091C13.8952 5.93636 12.8048 5.83865 11.9374 6.20823C11.4122 6.43203 11.2021 6.68172 10.8656 7.04408L10.6805 7.2305C10.4586 7.45295 10.0405 7.76331 9.67092 7.76331V7.76331Z" fill="white" stroke="#FAFAFA" stroke-width="2" mask="url(#path-1-inside-1_21_3190)"/>
</g>
<g id="path6">
<mask id="path-2-inside-2_21_3190" fill="white">
<path fill-rule="evenodd" clip-rule="evenodd" d="M16.4473 16.3495C16.4473 16.5592 16.4842 16.7446 16.5584 16.8832C16.9325 17.5816 17.9502 16.8113 17.1165 16.2893C16.9935 16.2122 16.6682 16.0939 16.4697 16.0939C16.4697 16.2184 16.4473 16.2427 16.4473 16.3495V16.3495Z"/>
</mask>
<path fill-rule="evenodd" clip-rule="evenodd" d="M16.4473 16.3495C16.4473 16.5592 16.4842 16.7446 16.5584 16.8832C16.9325 17.5816 17.9502 16.8113 17.1165 16.2893C16.9935 16.2122 16.6682 16.0939 16.4697 16.0939C16.4697 16.2184 16.4473 16.2427 16.4473 16.3495V16.3495Z" fill="white" stroke="#FAFAFA" stroke-width="2" mask="url(#path-2-inside-2_21_3190)"/>
</g>
<g id="path8">
<mask id="path-3-inside-3_21_3190" fill="white">
<path fill-rule="evenodd" clip-rule="evenodd" d="M16.4473 15.1352L16.4697 15.4335C16.7477 15.4115 17.4121 15.1811 17.4121 14.8369V14.6878C17.4121 14.4682 16.9294 14.0993 16.5716 14.5928C16.4878 14.7084 16.4473 14.9447 16.4473 15.1352Z"/>
</mask>
<path fill-rule="evenodd" clip-rule="evenodd" d="M16.4473 15.1352L16.4697 15.4335C16.7477 15.4115 17.4121 15.1811 17.4121 14.8369V14.6878C17.4121 14.4682 16.9294 14.0993 16.5716 14.5928C16.4878 14.7084 16.4473 14.9447 16.4473 15.1352Z" fill="white" stroke="#FAFAFA" stroke-width="2" mask="url(#path-3-inside-3_21_3190)"/>
</g>
<g id="path10">
<mask id="path-4-inside-4_21_3190" fill="white">
<path fill-rule="evenodd" clip-rule="evenodd" d="M16.5594 15.753C16.6041 15.8109 16.8236 15.9661 16.8968 16.008C17.9192 16.5926 18.2191 15.3269 17.3672 15.3269C17.0872 15.3269 16.6497 15.6251 16.5594 15.753Z"/>
</mask>
<path fill-rule="evenodd" clip-rule="evenodd" d="M16.5594 15.753C16.6041 15.8109 16.8236 15.9661 16.8968 16.008C17.9192 16.5926 18.2191 15.3269 17.3672 15.3269C17.0872 15.3269 16.6497 15.6251 16.5594 15.753Z" fill="white" stroke="#FAFAFA" stroke-width="2" mask="url(#path-4-inside-4_21_3190)"/>
</g>
<g id="path12">
<mask id="path-5-inside-5_21_3190" fill="white">
<path fill-rule="evenodd" clip-rule="evenodd" d="M18.2871 18.3736C18.2871 18.7569 18.5554 19.1799 18.8772 19.0415C18.9287 19.0193 18.9688 18.9848 18.9968 18.941C19.1232 18.7435 18.993 18.4169 18.8842 18.2541C18.688 17.9605 18.2871 18.0337 18.2871 18.3736Z"/>
</mask>
<path fill-rule="evenodd" clip-rule="evenodd" d="M18.2871 18.3736C18.2871 18.7569 18.5554 19.1799 18.8772 19.0415C18.9287 19.0193 18.9688 18.9848 18.9968 18.941C19.1232 18.7435 18.993 18.4169 18.8842 18.2541C18.688 17.9605 18.2871 18.0337 18.2871 18.3736Z" fill="white" stroke="#FAFAFA" stroke-width="2" mask="url(#path-5-inside-5_21_3190)"/>
</g>
<g id="path14">
<mask id="path-6-inside-6_21_3190" fill="white">
<path fill-rule="evenodd" clip-rule="evenodd" d="M12.5654 18.4589L12.4532 19.2046C12.6144 19.3071 12.5894 19.3537 12.8571 19.3537C13.1505 19.3537 13.2791 18.7387 13.0761 18.5279C12.8974 18.3424 12.6788 18.4331 12.5654 18.4589Z"/>
</mask>
<path fill-rule="evenodd" clip-rule="evenodd" d="M12.5654 18.4589L12.4532 19.2046C12.6144 19.3071 12.5894 19.3537 12.8571 19.3537C13.1505 19.3537 13.2791 18.7387 13.0761 18.5279C12.8974 18.3424 12.6788 18.4331 12.5654 18.4589Z" fill="white" stroke="#FAFAFA" stroke-width="2" mask="url(#path-6-inside-6_21_3190)"/>
</g>
<g id="path16">
<mask id="path-7-inside-7_21_3190" fill="white">
<path fill-rule="evenodd" clip-rule="evenodd" d="M23.3134 13.2815H23.6948C23.9255 13.2815 24.125 13.0934 24.088 12.8672C24.047 12.6175 23.8717 12.5358 23.5826 12.5358H23.3134V13.2815Z"/>
</mask>
<path fill-rule="evenodd" clip-rule="evenodd" d="M23.3134 13.2815H23.6948C23.9255 13.2815 24.125 13.0934 24.088 12.8672C24.047 12.6175 23.8717 12.5358 23.5826 12.5358H23.3134V13.2815Z" fill="white" stroke="#FAFAFA" stroke-width="2" mask="url(#path-7-inside-7_21_3190)"/>
</g>
<g id="path18">
<mask id="path-8-inside-8_21_3190" fill="white">
<path fill-rule="evenodd" clip-rule="evenodd" d="M15.1234 12.6424V13.2815C15.366 13.2815 15.8863 13.342 15.8863 12.9406C15.8863 12.7884 15.8049 12.6863 15.6882 12.6387C15.6882 12.6387 15.1234 12.4849 15.1234 12.6424Z"/>
</mask>
<path fill-rule="evenodd" clip-rule="evenodd" d="M15.1234 12.6424V13.2815C15.366 13.2815 15.8863 13.342 15.8863 12.9406C15.8863 12.7884 15.8049 12.6863 15.6882 12.6387C15.6882 12.6387 15.1234 12.4849 15.1234 12.6424Z" fill="white" stroke="#FAFAFA" stroke-width="2" mask="url(#path-8-inside-8_21_3190)"/>
</g>
<g id="path20">
<mask id="path-9-inside-9_21_3190" fill="white">
<path fill-rule="evenodd" clip-rule="evenodd" d="M15.1234 12.472C15.3536 12.472 15.7293 12.4964 15.7293 12.1524C15.7293 12.0634 15.6966 11.9805 15.6462 11.933C15.5088 11.8036 15.3144 11.8328 15.1234 11.8328V12.472Z"/>
</mask>
<path fill-rule="evenodd" clip-rule="evenodd" d="M15.1234 12.472C15.3536 12.472 15.7293 12.4964 15.7293 12.1524C15.7293 12.0634 15.6966 11.9805 15.6462 11.933C15.5088 11.8036 15.3144 11.8328 15.1234 11.8328V12.472Z" fill="white" stroke="#FAFAFA" stroke-width="2" mask="url(#path-9-inside-9_21_3190)"/>
</g>
<g id="path22">
<mask id="path-10-inside-10_21_3190" fill="white">
<path fill-rule="evenodd" clip-rule="evenodd" d="M4.71204 12.6849H5.25056C5.24798 12.5752 5.17407 12.4609 5.13493 12.3686C5.09967 12.2855 5.02531 12.1337 5.00373 12.0458H4.95885C4.94766 12.1735 4.72431 12.5447 4.71204 12.6849Z"/>
</mask>
<path fill-rule="evenodd" clip-rule="evenodd" d="M4.71204 12.6849H5.25056C5.24798 12.5752 5.17407 12.4609 5.13493 12.3686C5.09967 12.2855 5.02531 12.1337 5.00373 12.0458H4.95885C4.94766 12.1735 4.72431 12.5447 4.71204 12.6849Z" fill="white" stroke="#FAFAFA" stroke-width="2" mask="url(#path-10-inside-10_21_3190)"/>
</g>
<g id="path24">
<mask id="path-11-inside-11_21_3190" fill="white">
<path fill-rule="evenodd" clip-rule="evenodd" d="M14.4952 18.8423H14.6074C14.6074 18.3324 14.0846 18.4128 14.0176 18.7554C13.9978 18.8565 14.0651 18.8127 14.1994 18.8248C14.2935 18.8333 14.3672 18.8423 14.4952 18.8423Z"/>
</mask>
<path fill-rule="evenodd" clip-rule="evenodd" d="M14.4952 18.8423H14.6074C14.6074 18.3324 14.0846 18.4128 14.0176 18.7554C13.9978 18.8565 14.0651 18.8127 14.1994 18.8248C14.2935 18.8333 14.3672 18.8423 14.4952 18.8423Z" fill="white" stroke="#FAFAFA" stroke-width="2" mask="url(#path-11-inside-11_21_3190)"/>
</g>
<g id="path26">
<mask id="path-12-inside-12_21_3190" fill="white">
<path fill-rule="evenodd" clip-rule="evenodd" d="M11.0397 18.331C11.2386 18.3352 11.4241 18.4546 11.6231 18.4588C11.6231 18.252 11.6485 18.054 11.3314 18.054C11.1871 18.054 11.0509 18.2023 11.0397 18.331V18.331Z"/>
</mask>
<path fill-rule="evenodd" clip-rule="evenodd" d="M11.0397 18.331C11.2386 18.3352 11.4241 18.4546 11.6231 18.4588C11.6231 18.252 11.6485 18.054 11.3314 18.054C11.1871 18.054 11.0509 18.2023 11.0397 18.331V18.331Z" fill="white" stroke="#FAFAFA" stroke-width="2" mask="url(#path-12-inside-12_21_3190)"/>
</g>
<g id="path28">
<mask id="path-13-inside-13_21_3190" fill="white">
<path fill-rule="evenodd" clip-rule="evenodd" d="M15.7965 15.753C15.7965 15.9584 16.178 16.0041 16.178 15.753C16.178 15.5033 15.7965 15.5419 15.7965 15.753Z"/>
</mask>
<path fill-rule="evenodd" clip-rule="evenodd" d="M15.7965 15.753C15.7965 15.9584 16.178 16.0041 16.178 15.753C16.178 15.5033 15.7965 15.5419 15.7965 15.753Z" fill="white" stroke="#FAFAFA" stroke-width="2" mask="url(#path-13-inside-13_21_3190)"/>
</g>
<g id="path30">
<mask id="path-14-inside-14_21_3190" fill="white">
<path fill-rule="evenodd" clip-rule="evenodd" d="M15.8414 15.4121C15.8414 15.4447 15.8626 15.4809 15.881 15.5024C16.0014 15.6433 16.2063 15.475 16.0936 15.3431C15.9704 15.1989 15.8414 15.3736 15.8414 15.4121Z"/>
</mask>
<path fill-rule="evenodd" clip-rule="evenodd" d="M15.8414 15.4121C15.8414 15.4447 15.8626 15.4809 15.881 15.5024C16.0014 15.6433 16.2063 15.475 16.0936 15.3431C15.9704 15.1989 15.8414 15.3736 15.8414 15.4121Z" fill="white" stroke="#FAFAFA" stroke-width="2" mask="url(#path-14-inside-14_21_3190)"/>
</g>
<g id="path32">
<mask id="path-15-inside-15_21_3190" fill="white">
<path fill-rule="evenodd" clip-rule="evenodd" d="M15.8639 16.0513V16.1578C15.9101 16.1872 15.9221 16.2217 15.9761 16.2217C16.138 16.2217 16.1758 16.122 16.0659 15.966C15.9915 15.966 15.8639 15.9562 15.8639 16.0513V16.0513Z"/>
</mask>
<path fill-rule="evenodd" clip-rule="evenodd" d="M15.8639 16.0513V16.1578C15.9101 16.1872 15.9221 16.2217 15.9761 16.2217C16.138 16.2217 16.1758 16.122 16.0659 15.966C15.9915 15.966 15.8639 15.9562 15.8639 16.0513V16.0513Z" fill="white" stroke="#FAFAFA" stroke-width="2" mask="url(#path-15-inside-15_21_3190)"/>
</g>
<path id="path663" fill-rule="evenodd" clip-rule="evenodd" d="M15.3177 4C15.3177 3.17375 15.3177 2.00001 15.3177 1.00001C15.3177 1.0848e-05 15.3177 0 15.3177 0C14.4999 1.5 15.3623 7.52364 14.9999 7.5L15.3177 4Z" fill="white"/>
</g>
</svg>
