<svg width="50" height="51" viewBox="0 0 50 51" fill="none" xmlns="http://www.w3.org/2000/svg">
<g id="sky">
<g id="two_trail">
<mask id="path-1-inside-1_5_2805" fill="white">
<path fill-rule="evenodd" clip-rule="evenodd" d="M15.1658 14.8683C15.6755 18.1558 16.1049 21.5003 16.7405 24.765C16.9997 26.1219 17.2797 27.3924 17.7955 28.6908C18.1692 29.6019 18.5684 30.3764 19.3952 31.0155C19.7638 31.2774 20.0785 31.422 20.5359 31.5133C21.0002 31.5914 21.3651 31.5685 21.8237 31.4754C22.9327 31.1935 23.7924 30.6453 24.6901 30.0054C27.4454 27.7538 29.6816 24.9269 31.7898 22.1692C29.7555 25.2038 27.7978 27.9486 25.1005 30.5249C24.1187 31.2667 23.2191 31.8627 21.9831 32.1966C21.4018 32.3222 20.9395 32.3471 20.3487 32.2518C19.7517 32.134 19.3308 31.9484 18.8492 31.6054C17.8764 30.8618 17.4165 30.0132 16.9811 28.9449C16.4529 27.593 16.1878 26.2862 15.9551 24.8713C15.3351 20.6621 15.2145 16.1553 14.9807 11.9033C15.2189 16.1579 15.3943 20.6444 16.135 24.847C16.3917 26.2493 16.6797 27.533 17.2378 28.8649C17.6672 29.874 18.1214 30.6882 19.0585 31.3793C19.5019 31.6837 19.8813 31.8476 20.426 31.9466C20.9712 32.0254 21.3783 31.9945 21.9114 31.8733C23.0783 31.5324 23.9381 30.939 24.8635 30.2249C27.5853 27.6426 29.9283 24.2065 31.9922 21.1653C30.1959 24.5408 28.1471 27.9071 24.9729 30.3636C24.0012 31.0281 23.0964 31.5619 21.8963 31.8023C21.382 31.8881 20.9776 31.8948 20.4662 31.7872C19.9678 31.6657 19.6261 31.4953 19.2355 31.1883C18.4236 30.4825 18.0602 29.6715 17.7243 28.7129C17.3223 27.4012 17.1119 26.0891 16.9216 24.7407C16.4915 21.2687 16.0582 18.3045 15.1814 14.8749C15.1758 14.8723 15.1715 14.871 15.1658 14.8684V14.8683Z"/>
</mask>
<path fill-rule="evenodd" clip-rule="evenodd" d="M15.1658 14.8683C15.6755 18.1558 16.1049 21.5003 16.7405 24.765C16.9997 26.1219 17.2797 27.3924 17.7955 28.6908C18.1692 29.6019 18.5684 30.3764 19.3952 31.0155C19.7638 31.2774 20.0785 31.422 20.5359 31.5133C21.0002 31.5914 21.3651 31.5685 21.8237 31.4754C22.9327 31.1935 23.7924 30.6453 24.6901 30.0054C27.4454 27.7538 29.6816 24.9269 31.7898 22.1692C29.7555 25.2038 27.7978 27.9486 25.1005 30.5249C24.1187 31.2667 23.2191 31.8627 21.9831 32.1966C21.4018 32.3222 20.9395 32.3471 20.3487 32.2518C19.7517 32.134 19.3308 31.9484 18.8492 31.6054C17.8764 30.8618 17.4165 30.0132 16.9811 28.9449C16.4529 27.593 16.1878 26.2862 15.9551 24.8713C15.3351 20.6621 15.2145 16.1553 14.9807 11.9033C15.2189 16.1579 15.3943 20.6444 16.135 24.847C16.3917 26.2493 16.6797 27.533 17.2378 28.8649C17.6672 29.874 18.1214 30.6882 19.0585 31.3793C19.5019 31.6837 19.8813 31.8476 20.426 31.9466C20.9712 32.0254 21.3783 31.9945 21.9114 31.8733C23.0783 31.5324 23.9381 30.939 24.8635 30.2249C27.5853 27.6426 29.9283 24.2065 31.9922 21.1653C30.1959 24.5408 28.1471 27.9071 24.9729 30.3636C24.0012 31.0281 23.0964 31.5619 21.8963 31.8023C21.382 31.8881 20.9776 31.8948 20.4662 31.7872C19.9678 31.6657 19.6261 31.4953 19.2355 31.1883C18.4236 30.4825 18.0602 29.6715 17.7243 28.7129C17.3223 27.4012 17.1119 26.0891 16.9216 24.7407C16.4915 21.2687 16.0582 18.3045 15.1814 14.8749C15.1758 14.8723 15.1715 14.871 15.1658 14.8684V14.8683Z" fill="white"/>
<path d="M15.1658 14.8683L16.154 14.7151L14.1658 14.8683H15.1658ZM16.7405 24.765L17.7227 24.5774L17.7221 24.5739L16.7405 24.765ZM17.7955 28.6908L16.8661 29.06L16.8703 29.0704L17.7955 28.6908ZM19.3952 31.0155L18.7836 31.8067L18.7996 31.8191L18.8161 31.8308L19.3952 31.0155ZM20.5359 31.5133L20.3402 32.494L20.3551 32.497L20.3702 32.4995L20.5359 31.5133ZM21.8237 31.4754L22.0227 32.4554L22.0466 32.4506L22.0701 32.4446L21.8237 31.4754ZM24.6901 30.0054L25.2705 30.8197L25.2973 30.8006L25.3228 30.7797L24.6901 30.0054ZM31.7898 22.1692L32.6204 22.7261L30.9954 21.5619L31.7898 22.1692ZM25.1005 30.5249L25.7034 31.3227L25.7495 31.2879L25.7912 31.248L25.1005 30.5249ZM21.9831 32.1966L22.1943 33.174L22.2193 33.1686L22.2439 33.162L21.9831 32.1966ZM20.3487 32.2518L20.1551 33.2328L20.1722 33.2362L20.1894 33.239L20.3487 32.2518ZM18.8492 31.6054L18.242 32.3999L18.2554 32.4101L18.2691 32.4199L18.8492 31.6054ZM16.9811 28.9449L16.0496 29.3088L16.0523 29.3156L16.055 29.3223L16.9811 28.9449ZM15.9551 24.8713L14.9658 25.0171L14.967 25.0253L14.9684 25.0336L15.9551 24.8713ZM14.9807 11.9033L15.9791 11.8474L13.9822 11.9582L14.9807 11.9033ZM16.135 24.847L15.1501 25.0206L15.1513 25.0272L16.135 24.847ZM17.2378 28.8649L16.3155 29.2514L16.3177 29.2564L17.2378 28.8649ZM19.0585 31.3793L18.465 32.1841L18.4786 32.1941L18.4925 32.2037L19.0585 31.3793ZM20.426 31.9466L20.2473 32.9305L20.2651 32.9337L20.2829 32.9363L20.426 31.9466ZM21.9114 31.8733L22.1331 32.8485L22.1627 32.8417L22.1919 32.8332L21.9114 31.8733ZM24.8635 30.2249L25.4744 31.0165L25.5148 30.9854L25.5518 30.9503L24.8635 30.2249ZM31.9922 21.1653L32.875 21.6351L31.1648 20.6038L31.9922 21.1653ZM24.9729 30.3636L25.5374 31.189L25.5617 31.1724L25.5849 31.1544L24.9729 30.3636ZM21.8963 31.8023L22.0609 32.7886L22.0769 32.786L22.0927 32.7828L21.8963 31.8023ZM20.4662 31.7872L20.2293 32.7588L20.2448 32.7625L20.2605 32.7658L20.4662 31.7872ZM19.2355 31.1883L18.5795 31.943L18.5981 31.9592L18.6175 31.9745L19.2355 31.1883ZM17.7243 28.7129L16.7682 29.0059L16.774 29.0249L16.7806 29.0437L17.7243 28.7129ZM16.9216 24.7407L15.9292 24.8636L15.9302 24.872L15.9314 24.8805L16.9216 24.7407ZM15.1814 14.8749L16.1503 14.6272L16.0319 14.1643L15.5975 13.9655L15.1814 14.8749ZM15.1658 14.8684H14.1658V15.5106L14.7498 15.7778L15.1658 14.8684ZM14.1776 15.0215C14.6818 18.2738 15.1185 21.6667 15.7589 24.9561L17.7221 24.5739C17.0913 21.3339 16.6692 18.0379 16.154 14.7151L14.1776 15.0215ZM15.7582 24.9526C16.0199 26.3224 16.3139 27.6698 16.8661 29.06L18.7248 28.3217C18.2455 27.115 17.9794 25.9213 17.7227 24.5774L15.7582 24.9526ZM16.8703 29.0704C17.2637 30.0294 17.7451 31.004 18.7836 31.8067L20.0067 30.2243C19.3917 29.7489 19.0747 29.1743 18.7207 28.3113L16.8703 29.0704ZM18.8161 31.8308C19.2899 32.1674 19.7337 32.373 20.3402 32.494L20.7317 30.5327C20.4232 30.4711 20.2377 30.3874 19.9742 30.2003L18.8161 31.8308ZM20.3702 32.4995C20.9805 32.6021 21.4718 32.5673 22.0227 32.4554L21.6247 30.4954C21.2585 30.5698 21.0199 30.5807 20.7017 30.5272L20.3702 32.4995ZM22.0701 32.4446C23.3673 32.1148 24.3523 31.4743 25.2705 30.8197L24.1096 29.1911C23.2326 29.8163 22.4981 30.2721 21.5773 30.5062L22.0701 32.4446ZM25.3228 30.7797C28.1792 28.4456 30.4783 25.5313 32.5843 22.7766L30.9954 21.5619C28.8849 24.3226 26.7115 27.0621 24.0573 29.2311L25.3228 30.7797ZM30.9592 21.6124C28.9324 24.6358 27.0243 27.3045 24.4098 29.8017L25.7912 31.248C28.5713 28.5927 30.5787 25.7718 32.6204 22.7261L30.9592 21.6124ZM24.4977 29.727C23.5452 30.4467 22.7696 30.9483 21.7223 31.2312L22.2439 33.162C23.6687 32.7771 24.6922 32.0867 25.7034 31.3227L24.4977 29.727ZM21.772 31.2191C21.2962 31.3219 20.9604 31.3375 20.508 31.2645L20.1894 33.239C20.9185 33.3566 21.5073 33.3224 22.1943 33.174L21.772 31.2191ZM20.5423 31.2707C20.0871 31.1809 19.7976 31.0531 19.4294 30.7909L18.2691 32.4199C18.8641 32.8437 19.4163 33.0871 20.1551 33.2328L20.5423 31.2707ZM19.4565 30.8109C18.6895 30.2246 18.3145 29.5668 17.9071 28.5674L16.055 29.3223C16.5186 30.4596 17.0633 31.4989 18.242 32.3999L19.4565 30.8109ZM17.9125 28.581C17.4231 27.3283 17.1712 26.1041 16.9419 24.7091L14.9684 25.0336C15.2043 26.4682 15.4827 27.8578 16.0496 29.3088L17.9125 28.581ZM16.9444 24.7256C16.3332 20.5758 16.2152 16.1417 15.9792 11.8484L13.9822 11.9582C14.2137 16.1689 14.337 20.7484 14.9658 25.0171L16.9444 24.7256ZM13.9823 11.9592C14.2188 16.1841 14.3966 20.7446 15.1501 25.0206L17.1198 24.6735C16.3921 20.5442 16.219 16.1317 15.9791 11.8474L13.9823 11.9592ZM15.1513 25.0272C15.4121 26.4511 15.7153 27.8191 16.3155 29.2514L18.1601 28.4784C17.6441 27.247 17.3714 26.0475 17.1186 24.6669L15.1513 25.0272ZM16.3177 29.2564C16.7748 30.3307 17.3167 31.3374 18.465 32.1841L19.652 30.5745C18.926 30.0391 18.5596 29.4173 18.158 28.4733L16.3177 29.2564ZM18.4925 32.2037C19.0457 32.5835 19.5561 32.8049 20.2473 32.9305L20.6048 30.9627C20.2065 30.8903 19.958 30.7839 19.6244 30.5549L18.4925 32.2037ZM20.2829 32.9363C20.969 33.0355 21.501 32.9921 22.1331 32.8485L21.6898 30.8982C21.2556 30.9969 20.9735 31.0153 20.5692 30.9569L20.2829 32.9363ZM22.1919 32.8332C23.5449 32.4379 24.5262 31.7483 25.4744 31.0165L24.2526 29.4332C23.3499 30.1298 22.6117 30.6269 21.631 30.9135L22.1919 32.8332ZM25.5518 30.9503C28.3658 28.2806 30.7677 24.7504 32.8197 21.7269L31.1648 20.6038C29.0889 23.6626 26.8048 27.0047 24.1752 29.4994L25.5518 30.9503ZM31.1095 20.6955C29.3228 24.0527 27.3561 27.2547 24.3609 29.5728L25.5849 31.1544C28.9381 28.5594 31.0689 25.0289 32.875 21.6351L31.1095 20.6955ZM24.4084 29.5382C23.4687 30.1808 22.6987 30.6217 21.6999 30.8218L22.0927 32.7828C23.494 32.5021 24.5337 31.8754 25.5374 31.189L24.4084 29.5382ZM21.7316 30.8159C21.3175 30.8851 21.0408 30.8862 20.672 30.8086L20.2605 32.7658C20.9145 32.9033 21.4466 32.8912 22.0609 32.7886L21.7316 30.8159ZM20.7032 30.8157C20.3466 30.7287 20.1343 30.6228 19.8534 30.402L18.6175 31.9745C19.1179 32.3678 19.5889 32.6026 20.2293 32.7588L20.7032 30.8157ZM19.8915 30.4335C19.2798 29.9018 18.9872 29.2929 18.668 28.3822L16.7806 29.0437C17.1333 30.0501 17.5675 31.0633 18.5795 31.943L19.8915 30.4335ZM18.6804 28.4199C18.3031 27.1889 18.1013 25.9436 17.9118 24.6009L15.9314 24.8805C16.1226 26.2346 16.3415 27.6136 16.7682 29.0059L18.6804 28.4199ZM17.914 24.6178C17.4823 21.1326 17.0429 18.1188 16.1503 14.6272L14.2126 15.1226C15.0735 18.4903 15.5007 21.4048 15.9292 24.8636L17.914 24.6178ZM15.5975 13.9655C15.5809 13.958 15.5666 13.9519 15.5555 13.9474C15.5502 13.9452 15.5457 13.9434 15.5426 13.9422C15.5397 13.9411 15.5372 13.9401 15.5368 13.94C15.5359 13.9396 15.5372 13.9401 15.5388 13.9407C15.5407 13.9415 15.5439 13.9428 15.548 13.9444C15.5565 13.9479 15.5681 13.9528 15.5818 13.9591L14.7498 15.7778C14.7663 15.7853 14.7806 15.7914 14.7917 15.7959C14.7971 15.7981 14.8016 15.7999 14.8047 15.8011C14.8075 15.8023 14.8101 15.8032 14.8104 15.8034C14.8113 15.8037 14.81 15.8032 14.8084 15.8026C14.8066 15.8019 14.8033 15.8006 14.7993 15.7989C14.7908 15.7954 14.7791 15.7905 14.7654 15.7843L15.5975 13.9655ZM16.1658 14.8684V14.8683H14.1658V14.8684H16.1658Z" fill="#FAFAFA" mask="url(#path-1-inside-1_5_2805)"/>
</g>
<g id="moon">
<mask id="path-3-inside-2_5_2805" fill="white">
<path fill-rule="evenodd" clip-rule="evenodd" d="M0.505249 0C2.05394 21.7211 2.66655 24.9908 17.3763 10.2846Z"/>
</mask>
<path fill-rule="evenodd" clip-rule="evenodd" d="M0.505249 0C2.05394 21.7211 2.66655 24.9908 17.3763 10.2846Z" fill="white"/>
<path d="M-0.492219 0.0711185C-0.106021 5.48771 0.225297 9.81355 0.738906 12.9978C0.995879 14.591 1.3051 15.9436 1.70827 17.0261C2.10705 18.0969 2.63441 19.005 3.39268 19.5929C4.19701 20.2164 5.14605 20.3923 6.16436 20.2037C7.13779 20.0235 8.18268 19.5121 9.30398 18.7704C11.5488 17.2857 14.4099 14.6644 18.0834 10.9918L16.6693 9.57743C12.9879 13.258 10.2563 15.7427 8.20067 17.1023C7.17178 17.7828 6.38956 18.128 5.80025 18.2371C5.25582 18.3379 4.90649 18.2358 4.61808 18.0122C4.28363 17.7529 3.9239 17.2447 3.5825 16.3281C3.2455 15.4233 2.96147 14.2175 2.71339 12.6794C2.21688 9.60111 1.89087 5.37283 1.50272 -0.0711185L-0.492219 0.0711185Z" fill="#FAFAFA" mask="url(#path-3-inside-2_5_2805)"/>
</g>
<g id="third trail">
<mask id="path-5-inside-3_5_2805" fill="white">
<path fill-rule="evenodd" clip-rule="evenodd" d="M32.5996 33.1227C33.1101 36.4083 33.537 39.7573 34.1747 43.0194C34.4315 44.3722 34.715 45.6512 35.2293 46.9451C35.6023 47.8544 36.003 48.633 36.8294 49.2699C37.1956 49.5317 37.5147 49.6771 37.9697 49.7677C38.434 49.8458 38.7989 49.8229 39.2575 49.7298C40.3665 49.4477 41.2262 48.8996 42.124 48.2598C44.8791 46.0082 47.1154 43.1813 49.2238 40.4236C47.1895 43.4582 45.2316 46.203 42.5343 48.7793C41.5525 49.521 40.6529 50.1171 39.4169 50.451C38.8351 50.5764 38.3732 50.6015 37.7826 50.5062C37.1859 50.3884 36.7638 50.2024 36.283 49.8597C35.3106 49.1164 34.8503 48.2672 34.415 47.1991C33.8871 45.8466 33.6211 44.5412 33.3889 43.1253C32.7705 38.9109 32.6487 34.4137 32.4149 30.1577C32.6531 34.4105 32.8277 38.9006 33.5687 43.101C33.8259 44.5033 34.1136 45.787 34.6716 47.1193C35.1025 48.128 35.5536 48.943 36.4927 49.6337C36.9348 49.9381 37.3158 50.1019 37.8598 50.201C38.4066 50.2798 38.811 50.2488 39.3456 50.1277C40.5132 49.786 41.3715 49.1937 42.2973 48.4791C45.0192 45.897 47.3621 42.4609 49.426 39.4197C47.6292 42.7955 45.5813 46.1611 42.4067 48.618C41.4354 49.2825 40.5298 49.8163 39.33 50.0567C38.8166 50.1424 38.411 50.1494 37.9004 50.0416C37.4028 49.9208 37.0592 49.7489 36.6693 49.4426C35.8565 48.7361 35.4948 47.9263 35.158 46.9672C34.7553 45.6526 34.5477 44.3461 34.3554 42.9951C33.9249 39.5209 33.4928 36.5611 32.6156 33.1293C32.6099 33.1267 32.6043 33.1254 32.5996 33.1228V33.1227Z"/>
</mask>
<path fill-rule="evenodd" clip-rule="evenodd" d="M32.5996 33.1227C33.1101 36.4083 33.537 39.7573 34.1747 43.0194C34.4315 44.3722 34.715 45.6512 35.2293 46.9451C35.6023 47.8544 36.003 48.633 36.8294 49.2699C37.1956 49.5317 37.5147 49.6771 37.9697 49.7677C38.434 49.8458 38.7989 49.8229 39.2575 49.7298C40.3665 49.4477 41.2262 48.8996 42.124 48.2598C44.8791 46.0082 47.1154 43.1813 49.2238 40.4236C47.1895 43.4582 45.2316 46.203 42.5343 48.7793C41.5525 49.521 40.6529 50.1171 39.4169 50.451C38.8351 50.5764 38.3732 50.6015 37.7826 50.5062C37.1859 50.3884 36.7638 50.2024 36.283 49.8597C35.3106 49.1164 34.8503 48.2672 34.415 47.1991C33.8871 45.8466 33.6211 44.5412 33.3889 43.1253C32.7705 38.9109 32.6487 34.4137 32.4149 30.1577C32.6531 34.4105 32.8277 38.9006 33.5687 43.101C33.8259 44.5033 34.1136 45.787 34.6716 47.1193C35.1025 48.128 35.5536 48.943 36.4927 49.6337C36.9348 49.9381 37.3158 50.1019 37.8598 50.201C38.4066 50.2798 38.811 50.2488 39.3456 50.1277C40.5132 49.786 41.3715 49.1937 42.2973 48.4791C45.0192 45.897 47.3621 42.4609 49.426 39.4197C47.6292 42.7955 45.5813 46.1611 42.4067 48.618C41.4354 49.2825 40.5298 49.8163 39.33 50.0567C38.8166 50.1424 38.411 50.1494 37.9004 50.0416C37.4028 49.9208 37.0592 49.7489 36.6693 49.4426C35.8565 48.7361 35.4948 47.9263 35.158 46.9672C34.7553 45.6526 34.5477 44.3461 34.3554 42.9951C33.9249 39.5209 33.4928 36.5611 32.6156 33.1293C32.6099 33.1267 32.6043 33.1254 32.5996 33.1228V33.1227Z" fill="white"/>
<path d="M32.5996 33.1227L33.5877 32.9691L31.5996 33.1227H32.5996ZM34.1747 43.0194L35.1572 42.8329L35.1561 42.8275L34.1747 43.0194ZM35.2293 46.9451L34.2999 47.3144L34.3041 47.3246L35.2293 46.9451ZM36.8294 49.2699L36.2189 50.062L36.2331 50.0729L36.2478 50.0834L36.8294 49.2699ZM37.9697 49.7677L37.7743 50.7484L37.7891 50.7514L37.8039 50.7539L37.9697 49.7677ZM39.2575 49.7298L39.4565 50.7098L39.4804 50.7049L39.504 50.6989L39.2575 49.7298ZM42.124 48.2598L42.7044 49.0741L42.7312 49.055L42.7567 49.0341L42.124 48.2598ZM49.2238 40.4236L50.0544 40.9804L48.4293 39.8163L49.2238 40.4236ZM42.5343 48.7793L43.1371 49.5772L43.1832 49.5423L43.225 49.5024L42.5343 48.7793ZM39.4169 50.451L39.6277 51.4285L39.6529 51.4231L39.6777 51.4164L39.4169 50.451ZM37.7826 50.5062L37.589 51.4872L37.6061 51.4906L37.6233 51.4934L37.7826 50.5062ZM36.283 49.8597L35.6758 50.6542L35.689 50.6643L35.7025 50.6739L36.283 49.8597ZM34.415 47.1991L33.4834 47.5627L33.4861 47.5697L33.4889 47.5766L34.415 47.1991ZM33.3889 43.1253L32.3995 43.2705L32.4007 43.2789L32.4021 43.2872L33.3889 43.1253ZM32.4149 30.1577L33.4134 30.1018L31.4164 30.2126L32.4149 30.1577ZM33.5687 43.101L32.5839 43.2748L32.5851 43.2814L33.5687 43.101ZM34.6716 47.1193L33.7492 47.5056L33.752 47.5121L34.6716 47.1193ZM36.4927 49.6337L35.9002 50.4393L35.9127 50.4485L35.9256 50.4573L36.4927 49.6337ZM37.8598 50.201L37.6806 51.1848L37.6988 51.1881L37.7171 51.1907L37.8598 50.201ZM39.3456 50.1277L39.5664 51.103L39.5967 51.0962L39.6265 51.0875L39.3456 50.1277ZM42.2973 48.4791L42.9083 49.2707L42.9486 49.2396L42.9855 49.2046L42.2973 48.4791ZM49.426 39.4197L50.3087 39.8896L48.5986 38.8582L49.426 39.4197ZM42.4067 48.618L42.9714 49.4433L42.9955 49.4267L43.0187 49.4088L42.4067 48.618ZM39.33 50.0567L39.4947 51.043L39.5106 51.0404L39.5265 51.0372L39.33 50.0567ZM37.9004 50.0416L37.6646 51.0134L37.6792 51.0169L37.6939 51.02L37.9004 50.0416ZM36.6693 49.4426L36.0132 50.1973L36.032 50.2137L36.0516 50.2291L36.6693 49.4426ZM35.158 46.9672L34.2019 47.2601L34.2078 47.2794L34.2145 47.2985L35.158 46.9672ZM34.3554 42.9951L33.3629 43.118L33.3641 43.127L33.3653 43.136L34.3554 42.9951ZM32.6156 33.1293L33.5845 32.8817L33.4661 32.4187L33.0316 32.2199L32.6156 33.1293ZM32.5996 33.1228H31.5996V33.7117L32.1146 33.9973L32.5996 33.1228ZM31.6114 33.2762C32.1162 36.5246 32.5507 39.9242 33.1933 43.2112L35.1561 42.8275C34.5232 39.5903 34.104 36.2919 33.5877 32.9691L31.6114 33.2762ZM33.1922 43.2058C33.4518 44.5733 33.7493 45.9288 34.3 47.3144L36.1586 46.5758C35.6808 45.3735 35.4111 44.1711 35.1571 42.8329L33.1922 43.2058ZM34.3041 47.3246C34.6964 48.281 35.1795 49.2609 36.2189 50.062L37.4398 48.4778C36.8265 48.0052 36.5082 47.4279 36.1544 46.5656L34.3041 47.3246ZM36.2478 50.0834C36.7222 50.4226 37.1717 50.6284 37.7743 50.7484L38.1651 48.787C37.8576 48.7257 37.669 48.6409 37.411 48.4564L36.2478 50.0834ZM37.8039 50.7539C38.4143 50.8565 38.9055 50.8217 39.4565 50.7098L39.0585 48.7498C38.6923 48.8242 38.4537 48.835 38.1355 48.7815L37.8039 50.7539ZM39.504 50.6989C40.8011 50.369 41.7859 49.7287 42.7044 49.0741L41.5435 47.4454C40.6664 48.0706 39.9319 48.5264 39.011 48.7607L39.504 50.6989ZM42.7567 49.0341C45.613 46.6999 47.9121 43.7856 50.0182 41.031L48.4293 39.8163C46.3187 42.577 44.1453 45.3165 41.4912 47.4854L42.7567 49.0341ZM48.3931 39.8668C46.3664 42.8901 44.4581 45.5589 41.8436 48.0561L43.225 49.5024C46.005 46.8471 48.0126 44.0262 50.0544 40.9804L48.3931 39.8668ZM41.9315 47.9814C40.979 48.701 40.2033 49.2027 39.1561 49.4856L39.6777 51.4164C41.1025 51.0315 42.126 50.341 43.1371 49.5772L41.9315 47.9814ZM39.2061 49.4734C38.7295 49.5762 38.394 49.5919 37.942 49.5189L37.6233 51.4934C38.3525 51.6111 38.9407 51.5766 39.6277 51.4285L39.2061 49.4734ZM37.9763 49.5251C37.5211 49.4352 37.2305 49.307 36.8635 49.0454L35.7025 50.6739C36.297 51.0978 36.8507 51.3415 37.589 51.4872L37.9763 49.5251ZM36.8903 49.0652C36.1237 48.4792 35.7482 47.8208 35.341 46.8217L33.4889 47.5766C33.9523 48.7135 34.4975 49.7536 35.6758 50.6542L36.8903 49.0652ZM35.3465 46.8355C34.8572 45.5817 34.6045 44.3584 34.3757 42.9635L32.4021 43.2872C32.6377 44.7239 32.917 46.1116 33.4834 47.5627L35.3465 46.8355ZM34.3783 42.9801C33.7685 38.8248 33.6494 34.3995 33.4134 30.1029L31.4164 30.2126C31.648 34.4279 31.7724 38.997 32.3995 43.2705L34.3783 42.9801ZM31.4165 30.2136C31.653 34.4363 31.8299 39.0008 32.5839 43.2748L34.5535 42.9273C33.8254 38.8004 33.6532 34.3846 33.4134 30.1018L31.4165 30.2136ZM32.5851 43.2814C32.8462 44.705 33.1492 46.073 33.7492 47.5056L35.594 46.7329C35.0781 45.5011 34.8056 44.3015 34.5523 42.9206L32.5851 43.2814ZM33.752 47.5121C34.2094 48.5827 34.7482 49.592 35.9002 50.4393L37.0851 48.8281C36.359 48.2941 35.9957 47.6733 35.5912 46.7264L33.752 47.5121ZM35.9256 50.4573C36.4791 50.8384 36.9914 51.0592 37.6806 51.1848L38.039 49.2171C37.6401 49.1445 37.3905 49.0378 37.0598 48.81L35.9256 50.4573ZM37.7171 51.1907C38.4047 51.2899 38.9337 51.2463 39.5664 51.103L39.1249 49.1524C38.6882 49.2512 38.4084 49.2697 38.0025 49.2112L37.7171 51.1907ZM39.6265 51.0875C40.9799 50.6914 41.9595 50.0031 42.9083 49.2707L41.6862 47.6875C40.7835 48.3843 40.0466 48.8807 39.0648 49.168L39.6265 51.0875ZM42.9855 49.2046C45.7997 46.535 48.2015 43.0048 50.2534 39.9813L48.5986 38.8582C46.5226 41.9171 44.2388 45.259 41.609 47.7536L42.9855 49.2046ZM48.5433 38.9499C46.7561 42.3074 44.7903 45.5087 41.7946 47.8271L43.0187 49.4088C46.3723 46.8134 48.5023 43.2835 50.3087 39.8896L48.5433 38.9499ZM41.842 47.7926C40.903 48.4351 40.1323 48.8761 39.1336 49.0762L39.5265 51.0372C40.9274 50.7565 41.9677 50.1299 42.9714 49.4433L41.842 47.7926ZM39.1653 49.0703C38.7514 49.1394 38.4739 49.1406 38.107 49.0632L37.6939 51.02C38.3481 51.1582 38.8818 51.1453 39.4947 51.043L39.1653 49.0703ZM38.1363 49.0698C37.7821 48.9839 37.5679 48.8768 37.2869 48.6562L36.0516 50.2291C36.5505 50.6209 37.0235 50.8578 37.6646 51.0134L38.1363 49.0698ZM37.3253 48.6879C36.7129 48.1555 36.4219 47.5482 36.1015 46.6358L34.2145 47.2985C34.5677 48.3044 35.0002 49.3167 36.0132 50.1973L37.3253 48.6879ZM36.1142 46.6743C35.7362 45.4406 35.5372 44.2015 35.3454 42.8541L33.3653 43.136C33.5582 44.4907 33.7744 45.8646 34.2019 47.2601L36.1142 46.6743ZM35.3478 42.8721C34.9157 39.3849 34.4775 36.3754 33.5845 32.8817L31.6467 33.3769C32.5081 36.7468 32.9341 39.6569 33.3629 43.118L35.3478 42.8721ZM33.0316 32.2199C33.0023 32.2065 32.978 32.1971 32.9638 32.1917C32.9566 32.189 32.9508 32.1869 32.948 32.1859C32.9466 32.1854 32.9454 32.185 32.9451 32.1849C32.9446 32.1847 32.9451 32.1849 32.9458 32.1851C32.947 32.1855 32.9638 32.1915 32.9851 32.2003C33.0073 32.2095 33.0428 32.2251 33.0845 32.2483L32.1146 33.9973C32.1587 34.0218 32.1966 34.0385 32.2214 34.0488C32.2453 34.0586 32.2647 34.0656 32.2687 34.067C32.27 34.0675 32.2712 34.0679 32.2713 34.068C32.2718 34.0681 32.2712 34.0679 32.2705 34.0677C32.2691 34.0672 32.2647 34.0656 32.259 34.0634C32.2475 34.0591 32.2261 34.0508 32.1996 34.0386L33.0316 32.2199ZM33.5996 33.1228V33.1227H31.5996V33.1228H33.5996Z" fill="#FAFAFA" mask="url(#path-5-inside-3_5_2805)"/>
</g>
<g id="one_trail">
<mask id="path-7-inside-4_5_2805" fill="white">
<path fill-rule="evenodd" clip-rule="evenodd" d="M8.69901 8.95439C9.20885 12.242 9.63807 15.5865 10.2738 18.8511C10.5333 20.2107 10.8126 21.4756 11.3284 22.777C11.7034 23.687 12.1004 24.4634 12.9285 25.1018C13.2967 25.3639 13.6116 25.5082 14.0687 25.5995C14.5331 25.6775 14.898 25.6547 15.3566 25.5616C16.4659 25.2796 17.3249 24.7314 18.2229 24.0916C20.9783 21.8397 23.2145 19.0131 25.3227 16.2554C23.2884 19.29 21.3307 22.0348 18.6334 24.6111C17.6505 25.3537 16.7536 25.9482 15.5165 26.2827C14.9338 26.4079 14.4735 26.4337 13.8816 26.3379C13.2785 26.2187 12.869 26.0357 12.3821 25.6916C11.4096 24.9464 10.9497 24.1004 10.514 23.031C9.9858 21.6736 9.72179 20.3775 9.48844 18.9572C8.86846 14.7486 8.74769 10.2408 8.51392 5.98944C8.75209 10.243 8.92752 14.7313 9.66829 18.9329C9.92492 20.3366 10.2131 21.6178 10.7707 22.9512C11.2012 23.9599 11.653 24.7746 12.5918 25.4655C13.0355 25.77 13.4133 25.9334 13.9589 26.0327C14.5048 26.1116 14.9108 26.0807 15.4448 25.9595C16.6112 25.6187 17.4714 25.0252 18.3964 24.311C21.1182 21.7286 23.461 18.2931 25.5251 15.2515C23.7283 18.6277 21.6803 21.9928 18.5058 24.4499C17.5345 25.1143 16.6288 25.6485 15.429 25.8885C14.9156 25.9743 14.5105 25.9813 13.9995 25.8734C13.4978 25.7512 13.1622 25.5822 12.7683 25.2744C11.9565 24.5669 11.5935 23.7596 11.2576 22.7991C10.8552 21.4866 10.6455 20.1761 10.4549 18.8268C10.0236 15.3538 9.59219 12.3921 8.71473 8.96103C8.70905 8.95843 8.70483 8.95713 8.69901 8.95453V8.95439Z"/>
</mask>
<path fill-rule="evenodd" clip-rule="evenodd" d="M8.69901 8.95439C9.20885 12.242 9.63807 15.5865 10.2738 18.8511C10.5333 20.2107 10.8126 21.4756 11.3284 22.777C11.7034 23.687 12.1004 24.4634 12.9285 25.1018C13.2967 25.3639 13.6116 25.5082 14.0687 25.5995C14.5331 25.6775 14.898 25.6547 15.3566 25.5616C16.4659 25.2796 17.3249 24.7314 18.2229 24.0916C20.9783 21.8397 23.2145 19.0131 25.3227 16.2554C23.2884 19.29 21.3307 22.0348 18.6334 24.6111C17.6505 25.3537 16.7536 25.9482 15.5165 26.2827C14.9338 26.4079 14.4735 26.4337 13.8816 26.3379C13.2785 26.2187 12.869 26.0357 12.3821 25.6916C11.4096 24.9464 10.9497 24.1004 10.514 23.031C9.9858 21.6736 9.72179 20.3775 9.48844 18.9572C8.86846 14.7486 8.74769 10.2408 8.51392 5.98944C8.75209 10.243 8.92752 14.7313 9.66829 18.9329C9.92492 20.3366 10.2131 21.6178 10.7707 22.9512C11.2012 23.9599 11.653 24.7746 12.5918 25.4655C13.0355 25.77 13.4133 25.9334 13.9589 26.0327C14.5048 26.1116 14.9108 26.0807 15.4448 25.9595C16.6112 25.6187 17.4714 25.0252 18.3964 24.311C21.1182 21.7286 23.461 18.2931 25.5251 15.2515C23.7283 18.6277 21.6803 21.9928 18.5058 24.4499C17.5345 25.1143 16.6288 25.6485 15.429 25.8885C14.9156 25.9743 14.5105 25.9813 13.9995 25.8734C13.4978 25.7512 13.1622 25.5822 12.7683 25.2744C11.9565 24.5669 11.5935 23.7596 11.2576 22.7991C10.8552 21.4866 10.6455 20.1761 10.4549 18.8268C10.0236 15.3538 9.59219 12.3921 8.71473 8.96103C8.70905 8.95843 8.70483 8.95713 8.69901 8.95453V8.95439Z" fill="white"/>
<path d="M8.69901 8.95439L9.68719 8.80114L7.69901 8.95439H8.69901ZM10.2738 18.8511L11.2561 18.6637L11.2554 18.66L10.2738 18.8511ZM11.3284 22.777L10.3987 23.1455L10.4038 23.158L11.3284 22.777ZM12.9285 25.1018L12.3179 25.8938L12.333 25.9054L12.3486 25.9165L12.9285 25.1018ZM14.0687 25.5995L13.8728 26.5801L13.8878 26.5831L13.9029 26.5857L14.0687 25.5995ZM15.3566 25.5616L15.5556 26.5416L15.5794 26.5367L15.603 26.5307L15.3566 25.5616ZM18.2229 24.0916L18.8032 24.906L18.8302 24.8868L18.8558 24.8659L18.2229 24.0916ZM25.3227 16.2554L26.1533 16.8122L24.5283 15.648L25.3227 16.2554ZM18.6334 24.6111L19.2362 25.4089L19.2823 25.3741L19.3241 25.3342L18.6334 24.6111ZM15.5165 26.2827L15.7265 27.2604L15.7522 27.2549L15.7775 27.2481L15.5165 26.2827ZM13.8816 26.3379L13.6876 27.319L13.7047 27.3223L13.7219 27.3251L13.8816 26.3379ZM12.3821 25.6916L11.7739 26.4853L11.7892 26.497L11.8049 26.5081L12.3821 25.6916ZM10.514 23.031L9.58201 23.3936L9.58489 23.401L9.58789 23.4084L10.514 23.031ZM9.48844 18.9572L8.49912 19.103L8.50033 19.1112L8.50167 19.1193L9.48844 18.9572ZM8.51392 5.98944L9.51235 5.93353L7.51542 6.04435L8.51392 5.98944ZM9.66829 18.9329L8.68346 19.1066L8.6846 19.1128L9.66829 18.9329ZM10.7707 22.9512L9.84815 23.337L9.851 23.3437L10.7707 22.9512ZM12.5918 25.4655L11.999 26.2709L12.0123 26.2806L12.0259 26.2899L12.5918 25.4655ZM13.9589 26.0327L13.7798 27.0166L13.7978 27.0199L13.816 27.0225L13.9589 26.0327ZM15.4448 25.9595L15.6661 26.9347L15.6959 26.928L15.7252 26.9194L15.4448 25.9595ZM18.3964 24.311L19.0075 25.1026L19.0478 25.0715L19.0847 25.0365L18.3964 24.311ZM25.5251 15.2515L26.4079 15.7213L24.6977 14.69L25.5251 15.2515ZM18.5058 24.4499L19.0704 25.2752L19.0946 25.2587L19.1179 25.2407L18.5058 24.4499ZM15.429 25.8885L15.5939 26.8748L15.6096 26.8722L15.6252 26.869L15.429 25.8885ZM13.9995 25.8734L13.7629 26.845L13.7778 26.8486L13.7929 26.8518L13.9995 25.8734ZM12.7683 25.2744L12.1114 26.0283L12.1315 26.0459L12.1526 26.0624L12.7683 25.2744ZM11.2576 22.7991L10.3015 23.0922L10.3072 23.1108L10.3136 23.1292L11.2576 22.7991ZM10.4549 18.8268L9.46254 18.9501L9.46358 18.9584L9.46475 18.9667L10.4549 18.8268ZM8.71473 8.96103L9.68355 8.71326L9.56518 8.25042L9.13075 8.05168L8.71473 8.96103ZM8.69901 8.95453H7.69901V9.60328L8.29143 9.8677L8.69901 8.95453ZM7.71082 9.10764C8.21517 12.3598 8.65169 15.753 9.29225 19.0423L11.2554 18.66C10.6244 15.4201 10.2025 12.1241 9.68719 8.80114L7.71082 9.10764ZM9.29154 19.0386C9.55361 20.4119 9.8468 21.7529 10.3987 23.1455L12.258 22.4086C11.7784 21.1983 11.5129 20.0096 11.2561 18.6637L9.29154 19.0386ZM10.4038 23.158C10.7971 24.1124 11.2764 25.0908 12.3179 25.8938L13.5391 24.3099C12.9244 23.836 12.6097 23.2616 12.253 22.396L10.4038 23.158ZM12.3486 25.9165C12.8231 26.2543 13.2675 26.4592 13.8728 26.5801L14.2646 24.6189C13.9558 24.5572 13.7703 24.4736 13.5084 24.2871L12.3486 25.9165ZM13.9029 26.5857C14.5134 26.6883 15.0046 26.6534 15.5556 26.5416L15.1576 24.5816C14.7914 24.6559 14.5528 24.6668 14.2344 24.6133L13.9029 26.5857ZM15.603 26.5307C16.9005 26.2009 17.8849 25.5603 18.8032 24.906L17.6427 23.2771C16.7649 23.9026 16.0312 24.3583 15.1103 24.5924L15.603 26.5307ZM18.8558 24.8659C21.7121 22.5314 24.0112 19.6174 26.1171 16.8627L24.5283 15.648C22.4178 18.4087 20.2444 21.148 17.5901 23.3173L18.8558 24.8659ZM24.4921 15.6986C22.4653 18.7219 20.5572 21.3907 17.9427 23.8879L19.3241 25.3342C22.1041 22.6789 24.1116 19.858 26.1533 16.8122L24.4921 15.6986ZM18.0306 23.8132C17.077 24.5336 16.304 25.0339 15.2554 25.3174L15.7775 27.2481C17.2032 26.8625 18.224 26.1737 19.2362 25.4089L18.0306 23.8132ZM15.3064 25.3051C14.8275 25.4079 14.4936 25.4239 14.0412 25.3508L13.7219 27.3251C14.4533 27.4434 15.0401 27.4079 15.7265 27.2604L15.3064 25.3051ZM14.0755 25.3569C13.6164 25.2662 13.3366 25.1417 12.9594 24.875L11.8049 26.5081C12.4013 26.9298 12.9405 27.1713 13.6876 27.319L14.0755 25.3569ZM12.9904 24.8978C12.2223 24.3093 11.8472 23.6529 11.44 22.6537L9.58789 23.4084C10.0522 24.5479 10.5969 25.5834 11.7739 26.4853L12.9904 24.8978ZM11.4459 22.6684C10.9559 21.409 10.7051 20.1944 10.4752 18.7951L8.50167 19.1193C8.73847 20.5606 9.01574 21.9382 9.58201 23.3936L11.4459 22.6684ZM10.4778 18.8115C9.86653 14.6623 9.74845 10.2272 9.51241 5.93454L7.51542 6.04435C7.74693 10.2544 7.87038 14.8349 8.49912 19.103L10.4778 18.8115ZM7.51548 6.04535C7.75198 10.2691 7.92976 14.8316 8.68348 19.1066L10.6531 18.7593C9.92527 14.6311 9.75219 10.2169 9.51235 5.93353L7.51548 6.04535ZM8.6846 19.1128C8.94533 20.5389 9.24872 21.9037 9.84817 23.337L11.6933 22.5653C11.1774 21.3318 10.9045 20.1343 10.652 18.7531L8.6846 19.1128ZM9.851 23.3437C10.3083 24.4152 10.8478 25.4236 11.999 26.2709L13.1845 24.6601C12.4582 24.1255 12.0942 23.5046 11.6905 22.5586L9.851 23.3437ZM12.0259 26.2899C12.5793 26.6698 13.0879 26.8906 13.7798 27.0166L14.1381 25.0489C13.7387 24.9762 13.4917 24.8702 13.1577 24.641L12.0259 26.2899ZM13.816 27.0225C14.5027 27.1216 15.0334 27.0783 15.6661 26.9347L15.2235 24.9843C14.7882 25.0831 14.507 25.1015 14.1019 25.043L13.816 27.0225ZM15.7252 26.9194C17.0778 26.5242 18.0595 25.8345 19.0075 25.1026L17.7853 23.5195C16.8832 24.2159 16.1446 24.7132 15.1643 24.9996L15.7252 26.9194ZM19.0847 25.0365C21.8987 22.3665 24.3004 18.837 26.3526 15.813L24.6977 14.69C22.6216 17.7491 20.3377 21.0906 17.7081 23.5856L19.0847 25.0365ZM24.6423 14.7817C22.8553 18.1397 20.8893 21.3405 17.8937 23.6591L19.1179 25.2407C22.4713 22.6452 24.6013 19.1158 26.4079 15.7213L24.6423 14.7817ZM17.9412 23.6245C17.002 24.267 16.2313 24.7082 15.2329 24.9079L15.6252 26.869C17.0264 26.5887 18.067 25.9616 19.0704 25.2752L17.9412 23.6245ZM15.2641 24.9022C14.8504 24.9713 14.5735 24.9726 14.2062 24.895L13.7929 26.8518C14.4475 26.9901 14.9808 26.9773 15.5939 26.8748L15.2641 24.9022ZM14.2362 24.9018C13.8785 24.8147 13.6711 24.7108 13.3841 24.4865L12.1526 26.0624C12.6533 26.4537 13.1171 26.6877 13.7629 26.845L14.2362 24.9018ZM13.4253 24.5205C12.8122 23.9862 12.5201 23.3797 12.2015 22.4689L10.3136 23.1292C10.667 24.1395 11.1007 25.1475 12.1114 26.0283L13.4253 24.5205ZM12.2136 22.506C11.836 21.2743 11.635 20.0308 11.4451 18.6869L9.46475 18.9667C9.65613 20.3213 9.87431 21.6989 10.3015 23.0922L12.2136 22.506ZM11.4473 18.7036C11.0144 15.218 10.5769 12.2065 9.68355 8.71326L7.74591 9.2088C8.60749 12.5777 9.03275 15.4896 9.46254 18.9501L11.4473 18.7036ZM9.13075 8.05168C9.10005 8.03763 9.07457 8.02781 9.07125 8.02651C9.06586 8.0244 9.08476 8.03162 9.10658 8.04136L8.29143 9.8677C8.30579 9.87411 8.31813 9.87925 8.32753 9.88306C8.33206 9.8849 8.33584 9.8864 8.33835 9.88738C8.3396 9.88788 8.34065 9.88829 8.34134 9.88856C8.34168 9.88869 8.34199 9.88881 8.34219 9.88889C8.34246 9.889 8.34246 9.889 8.34259 9.88905C8.34426 9.8897 8.32374 9.88183 8.29871 9.87038L9.13075 8.05168ZM9.69901 8.95453V8.95439H7.69901V8.95453H9.69901Z" fill="#FAFAFA" mask="url(#path-7-inside-4_5_2805)"/>
</g>
</g>
</svg>
